<svg width="2000" height="2000" viewBox="0 0 2000 2000" fill="none" xmlns="http://www.w3.org/2000/svg">
<mask id="mask0_198_23" style="mask-type:luminance" maskUnits="userSpaceOnUse" x="0" y="0" width="2000" height="2000">
<path d="M2000 0H0V2000H2000V0Z" fill="white"/>
</mask>
<g mask="url(#mask0_198_23)">
<path d="M1669.19 1269.12C1680.12 1254.42 1692.55 1241.23 1720.06 1261.96C1680.87 1320.37 1588.92 1457.17 1492.82 1493.34C1396.72 1529.52 1269.73 1633.9 1264.83 1642.95C1259.93 1651.99 1200.01 1726.23 1200.77 1723.97C1201.52 1721.71 1199.53 1646.08 1199.53 1646.08C1199.53 1646.08 1253.15 1560.41 1353.77 1506.9C1454.39 1453.01 1580.64 1385.81 1608.14 1344.86C1636.29 1303.12 1669.19 1269.11 1669.19 1269.11V1269.12Z" fill="url(#paint0_linear_198_23)"/>
<path d="M1709.34 1281.22C1665.03 1346.51 1653.36 1405.25 1459.22 1514.94C1279.65 1611.04 1210.73 1670.25 1197.14 1753.72C1183.55 1837.2 1157.34 2023.57 1157.34 2023.57C1157.34 2023.57 1937.76 2079.87 1937.76 2076.96C1937.76 2074.05 2010.56 2039.1 1984.35 1892.53C1958.14 1745.96 1873.79 1447.9 1760.17 1308.16C1720.06 1261.97 1728.87 1250.33 1709.33 1281.23L1709.34 1281.22Z" fill="url(#paint1_linear_198_23)"/>
<path d="M1648.76 1655.05C1689.33 1735.53 1681.21 1932.73 1657.36 2013.87C1633.51 2095.01 1522.42 2139.05 1567.62 2101.96C1612.82 2064.87 1629.05 1843.48 1632.53 1754.24C1636.01 1664.99 1596.46 1583.97 1605.73 1512.1C1605.73 1512.1 1617.95 1562.54 1648.75 1655.06L1648.76 1655.05ZM1709.34 1281.22C1788.48 1434.95 1897.19 1616.14 1889.14 1787.27C1881.09 1958.4 1860.95 2102.34 1860.95 2102.34C1860.95 2102.34 1994.96 2263.08 2000 2089.61C2005.03 1916.13 1950.48 1716.63 1891.62 1561.2C1832.76 1405.77 1720.79 1204 1709.33 1281.23L1709.34 1281.22ZM1677 1720.97C1672.04 1737.65 1664.6 1781.32 1683.84 1811.47C1703.08 1841.62 1740.93 1898.71 1744.78 1928.86C1739.65 1791.58 1676.99 1720.97 1676.99 1720.97H1677Z" fill="url(#paint2_linear_198_23)"/>
<path d="M1723.31 1255.85C1723.31 1255.85 1637.6 1432.45 1471.1 1506.53C1352.03 1559.51 1216.13 1661.87 1197.92 1728.29C1179.71 1794.71 1145.4 2167.52 1145.4 2167.52L1642.5 2227.51" stroke="black" stroke-width="18.34" stroke-linecap="round" stroke-linejoin="round"/>
<path d="M1197.93 1728.29V1663.37C1197.93 1652.81 1200.37 1642.31 1205.58 1633.12C1240.86 1570.87 1366.46 1500.82 1471.87 1446.16C1587.57 1386.17 1657.31 1268.51 1684.29 1247.61C1707.5 1243.41 1723.32 1255.84 1723.32 1255.84" stroke="black" stroke-width="18.34" stroke-linecap="round" stroke-linejoin="round"/>
<path d="M1605.73 1512.09C1654.01 1740.01 1764.48 1828.91 1743.49 1951.19" stroke="black" stroke-width="18.34" stroke-linecap="round" stroke-linejoin="round"/>
<path d="M1666.79 1698.28C1680.96 1793.9 1706.78 2024.07 1576.54 2158.8C1576.54 2158.8 1904.39 2222.8 1970.63 2138.59C2036.87 2054.38 1967.26 1581.79 1723.31 1255.85" stroke="black" stroke-width="18.34" stroke-linecap="round" stroke-linejoin="round"/>
</g>
<defs>
<linearGradient id="paint0_linear_198_23" x1="1199.53" y1="1487.63" x2="1720.06" y2="1487.63" gradientUnits="userSpaceOnUse">
<stop stop-color="#F269FF"/>
<stop offset="1" stop-color="#AE00A8"/>
</linearGradient>
<linearGradient id="paint1_linear_198_23" x1="1157.34" y1="1670.52" x2="1990.04" y2="1670.52" gradientUnits="userSpaceOnUse">
<stop stop-color="#FFC800"/>
<stop offset="1" stop-color="#00CEB4"/>
</linearGradient>
<linearGradient id="paint2_linear_198_23" x1="2013.03" y1="1548.6" x2="1502.05" y2="2059.58" gradientUnits="userSpaceOnUse">
<stop stop-color="#00CEB4"/>
<stop offset="1" stop-color="#FFC800"/>
</linearGradient>
</defs>
</svg>
