<svg width="2000" height="2000" viewBox="0 0 2000 2000" fill="none" xmlns="http://www.w3.org/2000/svg">
<mask id="mask0_554_296" style="mask-type:luminance" maskUnits="userSpaceOnUse" x="0" y="0" width="2000" height="2000">
<path d="M2000 0H0V2000H2000V0Z" fill="white"/>
</mask>
<g mask="url(#mask0_554_296)">
<path d="M1762.64 2056.92C1759.6 2091.92 1742.24 2119.88 1715.2 2141.56C1570.36 2257.75 1147.42 2193.55 1155.2 2063.08C1164.41 1908.26 1190.05 1673.49 1220.8 1569.96C1220.8 1569.96 1320.92 1593 1271.83 1273.93C1270.69 1266.67 1273.66 1259.29 1279.57 1254.89C1308.15 1233.54 1347.37 1215.45 1366.3 1209.51C1378.22 1205.73 1377.01 1223.12 1378.52 1235.56C1385.2 1290.44 1417.04 1404.98 1465.03 1401.9C1535.8 1397.35 1569.19 1275.58 1587.57 1219.41C1590.65 1209.91 1601.22 1205.14 1610.39 1209.06C1627.27 1216.29 1653.57 1227.81 1675.58 1238.67C1685.45 1243.55 1694.44 1248.28 1701.37 1252.46C1707.94 1256.39 1711.09 1264.16 1709.04 1271.5C1695.32 1320.74 1621.5 1484.77 1731.93 1581.4C1731.93 1581.4 1782.12 1834.44 1762.64 2056.91V2056.92Z" fill="url(#paint0_linear_554_296)"/>
<path d="M1571.82 1267.51C1571.82 1267.51 1524.74 1344.05 1548.96 1364.59C1573.18 1385.14 1667.11 1480.54 1672.98 1441.64C1678.85 1402.75 1692.35 1323.64 1692.35 1323.64C1692.35 1323.64 1588.34 1203.29 1580.03 1242.84L1571.82 1267.5V1267.51Z" fill="url(#paint1_linear_554_296)"/>
<path d="M1281.9 1354.92C1285.25 1413.63 1278.84 1452.59 1311.42 1479.61C1351.16 1514.58 1766.01 1922.28 1769.19 1895.26C1764.42 1806.25 1769.24 1709.99 1718.75 1688.98C1666.19 1639.11 1356.95 1345.73 1336.61 1326.44C1316.28 1307.15 1263.39 1245.63 1276.28 1305.01C1281.22 1347.7 1281.9 1354.93 1281.9 1354.93V1354.92Z" fill="url(#paint2_linear_554_296)"/>
<path d="M1312.59 1655.02C1372.9 1713.32 1753.72 2081.83 1753.72 2081.83C1753.72 2081.83 1505.88 2032.96 1503.55 2028.31C1501.22 2023.66 1345.21 1862.01 1275.46 1794.5C1205.67 1726.95 1188.28 1728.12 1196.3 1683.88C1207.59 1623.54 1203.53 1521.84 1261.04 1605.19C1301.36 1644.16 1312.59 1655.02 1312.59 1655.02Z" fill="url(#paint3_linear_554_296)"/>
<path d="M1157.36 2029.59C1162.23 1966.7 1144.98 1827.06 1202.09 1899.18C1278.38 1973.08 1361.6 2049.26 1361.6 2049.26C1361.6 2049.26 1223.13 2070.2 1219.64 2069.04C1216.15 2067.88 1157.36 2029.6 1157.36 2029.6V2029.59Z" fill="url(#paint4_linear_554_296)"/>
<path style="mix-blend-mode:multiply" d="M1762.64 2056.92C1759.6 2091.92 1742.24 2119.88 1715.2 2141.56C1713.51 2125.64 1680.56 2140.74 1684.41 2120.93C1709.87 1990.21 1745.41 1724.37 1677.35 1577.36C1614.45 1441.48 1694.43 1248.28 1701.36 1252.46C1707.93 1256.39 1711.08 1264.16 1709.03 1271.5C1695.31 1320.74 1621.49 1484.77 1731.92 1581.4C1731.92 1581.4 1782.11 1834.44 1762.63 2056.91L1762.64 2056.92Z" fill="url(#paint5_linear_554_296)"/>
<path d="M1279.56 1254.89C1308.13 1233.52 1347.37 1215.46 1366.31 1209.49C1378.24 1205.73 1377.02 1223.12 1378.52 1235.53C1385.19 1290.45 1417.05 1404.99 1465.03 1401.89C1535.8 1397.32 1569.2 1275.58 1587.55 1219.4C1590.65 1209.9 1601.19 1205.13 1610.37 1209.06C1634.8 1219.51 1678.99 1238.98 1701.38 1252.44C1707.92 1256.37 1711.1 1264.16 1709.05 1271.51C1695.31 1320.75 1611.76 1504.91 1731.93 1581.39C1731.93 1581.39 1782.12 1834.45 1762.64 2056.91C1743.16 2279.37 1145.95 2217.86 1155.18 2063.06C1164.41 1908.26 1190.04 1673.49 1220.79 1569.95C1220.79 1569.95 1337.82 1592.58 1271.81 1273.93C1270.32 1266.73 1273.65 1259.29 1279.54 1254.89H1279.56Z" stroke="black" stroke-width="18.34" stroke-linecap="round" stroke-linejoin="round"/>
<path d="M1172.71 1870.72L1951.39 2625.04" stroke="black" stroke-width="18.34" stroke-linecap="round" stroke-linejoin="round"/>
<path d="M1191.79 1713.51L1951.39 2448.75" stroke="black" stroke-width="18.34" stroke-linecap="round" stroke-linejoin="round"/>
<path d="M1222.66 1568.1L1951.39 2272.46" stroke="black" stroke-width="18.34" stroke-linecap="round" stroke-linejoin="round"/>
<path d="M1292.86 1462.01L1764.13 1908.91" stroke="black" stroke-width="18.34" stroke-linecap="round" stroke-linejoin="round"/>
<path d="M1277.3 1270.16L1752.42 1720.92" stroke="black" stroke-width="18.34" stroke-linecap="round" stroke-linejoin="round"/>
<path d="M1535.85 1352.43L1666.48 1458.7" stroke="black" stroke-width="18.34" stroke-linecap="round" stroke-linejoin="round"/>
<path d="M1584.92 1225.21L1692.92 1308.85" stroke="black" stroke-width="18.34" stroke-linecap="round" stroke-linejoin="round"/>
</g>
<defs>
<linearGradient id="paint0_linear_554_296" x1="1155.09" y1="1704.96" x2="1767.13" y2="1704.96" gradientUnits="userSpaceOnUse">
<stop stop-color="#FFEEF2"/>
<stop offset="1" stop-color="#FFB000"/>
</linearGradient>
<linearGradient id="paint1_linear_554_296" x1="1617.19" y1="1450.88" x2="1617.19" y2="1234.88" gradientUnits="userSpaceOnUse">
<stop stop-color="#FF2C10"/>
<stop offset="1" stop-color="#FFC800"/>
</linearGradient>
<linearGradient id="paint2_linear_554_296" x1="1521.74" y1="1896.55" x2="1521.74" y2="1279.78" gradientUnits="userSpaceOnUse">
<stop stop-color="#FFB000"/>
<stop offset="1" stop-color="#FF2C10"/>
</linearGradient>
<linearGradient id="paint3_linear_554_296" x1="1474.11" y1="2081.83" x2="1474.11" y2="1573.69" gradientUnits="userSpaceOnUse">
<stop stop-color="#FFB000"/>
<stop offset="1" stop-color="#FF2C10"/>
</linearGradient>
<linearGradient id="paint4_linear_554_296" x1="1259.48" y1="2069.08" x2="1259.48" y2="1879" gradientUnits="userSpaceOnUse">
<stop stop-color="#FFC800"/>
<stop offset="1" stop-color="#FF2C10"/>
</linearGradient>
<linearGradient id="paint5_linear_554_296" x1="1710.26" y1="2141.56" x2="1710.26" y2="1252.4" gradientUnits="userSpaceOnUse">
<stop stop-color="#FFB000"/>
<stop offset="1" stop-color="#FF2C10"/>
</linearGradient>
</defs>
</svg>
