<svg width="2000" height="2000" viewBox="0 0 2000 2000" fill="none" xmlns="http://www.w3.org/2000/svg">
<mask id="mask0_554_113" style="mask-type:luminance" maskUnits="userSpaceOnUse" x="0" y="0" width="2000" height="2000">
<path d="M2000 0H0V2000H2000V0Z" fill="white"/>
</mask>
<g mask="url(#mask0_554_113)">
<path d="M1993.73 2150L1579.96 2114.49L1472.61 2112.4C1470.59 2044.05 1469.9 1987.07 1472.54 1974.53C1479.99 1939.16 1506.88 1934.39 1510.81 1912.67C1514.7 1890.99 1506.94 1793.16 1487.35 1848.56C1472.49 1834.99 1484.33 1723.87 1484.33 1723.87C1484.33 1723.87 1495.19 1549.82 1519.92 1469.51C1544.65 1389.24 1562.04 1328.45 1562.04 1328.45C1562.04 1328.45 1578.51 1301.12 1534.67 1294.62C1491.71 1288.97 1428.79 1297.63 1428.79 1297.63C1398.82 1302.44 1382.34 1296.35 1397.97 1345.4C1413.6 1394.45 1434 1505.98 1438.33 1590.18C1442.66 1674.38 1442.51 1811.92 1434.55 1833.24C1426.63 1854.52 1425.18 1884.56 1409.68 1837.17C1399.26 1859.32 1392.77 1923.97 1421.42 1920.05C1441.38 1933.95 1441.71 1960.37 1434.15 2044.6C1432.61 2061.81 1430.33 2085.18 1427.69 2111.48L1303.58 2109.06L1119.04 2124.54C1119.04 2124.54 1149.09 2019.72 1162.37 1986.08C1175.61 1952.47 1152.02 1961.68 1121.94 1971.7C1091.86 1981.72 1063.53 1956.58 1049.92 1950.82C1036.31 1945.06 968.73 1943.3 996.69 1935.37C1024.68 1927.45 1035.65 1888.52 1035.07 1861.48C1019.86 1838.8 1045.87 1737.36 1042.3 1708.01C1034.05 1687.28 1102.76 1658.11 1081.45 1654.37C1060.17 1650.63 1078.26 1634.56 1088.64 1621.75C1098.99 1608.91 1102.69 1595.81 1111.2 1603.19C1100.01 1586.2 1107.24 1555.79 1118.46 1529.26C1138.34 1502.29 1147.41 1494.04 1115.56 1480.17C1082.83 1457.53 1186.4 1335.95 1255.71 1305.17C1163.29 1289.72 1295.22 1198.85 1476.86 1191.55C1658.46 1184.25 1732.79 1258.14 1762.84 1285.69C1792.92 1313.24 1716.5 1333.71 1778.98 1353.23C1841.46 1372.75 1865.16 1410.54 1856.94 1425.98C1848.72 1441.43 1838.38 1452.4 1850.41 1460.76C1862.44 1469.12 1886.03 1524.52 1892.71 1587.7C1919.42 1572.36 1925.03 1652.78 1925.03 1652.78C1925.03 1652.78 1921.51 1715.33 1935.27 1729.09C1949.06 1742.88 1963.26 1822.61 1960.36 1870.15C1957.5 1917.7 1973.68 1921.15 1969.02 1969.17C1964.36 2017.19 1993.75 2149.97 1993.75 2149.97L1993.73 2150Z" fill="url(#paint0_linear_554_113)"/>
<path style="mix-blend-mode:multiply" d="M1854.98 1466.15C1835.62 1446.47 1832.24 1443.2 1838.51 1509.86C1844.78 1576.52 1828.89 1575.66 1808.31 1569.77C1787.73 1563.88 1785.64 1540.8 1764.57 1573.14C1743.5 1605.48 1717.63 1621.41 1701.86 1600.44C1686.09 1579.47 1683.07 1625.22 1669.14 1650.5C1655.21 1675.78 1575.32 1737.9 1552.26 1750.15C1529.21 1762.4 1538.79 1795.2 1512.8 1792.8C1477.23 1795.67 1510.52 1840.69 1509.98 1915.93C1547.97 1869.82 1525.57 1768.76 1582.87 1759.31C1640.17 1749.86 1697.47 1632.11 1709.44 1652.89C1714.06 1660.92 1725.84 1657.45 1738.33 1648.86C1736.68 1676.14 1729.42 1712.69 1740.22 1751.94C1754.81 1804.99 1732.72 1873.17 1743.85 1939.12C1754.98 2005.08 1751.84 2038.23 1752.42 2035.37C1752.99 2032.51 1774.52 1998.56 1773.1 1953.22C1771.68 1907.88 1789.39 1867.5 1778.06 1788.86C1767.89 1718.31 1769.1 1670.01 1763.32 1625.52C1772.53 1614.22 1778.75 1602.34 1777.45 1594.33C1773.67 1571.03 1824.68 1606.29 1849.24 1594.33C1873.8 1582.37 1866.24 1505.54 1854.98 1466.15Z" fill="url(#paint1_linear_554_113)"/>
<path style="mix-blend-mode:multiply" d="M1308.68 1725.35C1325.8 1745.32 1344.88 1781.96 1337.04 1796.23C1329.19 1810.5 1355.59 1809.07 1369.86 1806.22C1384.13 1803.37 1394.11 1829.05 1383.41 1866.14C1372.71 1903.24 1361.3 1965.3 1387.69 1950.32C1414.08 1935.34 1412.66 2019.52 1410.52 2048.77C1408.38 2078.02 1439.21 2006.67 1436.63 1958.17C1434.06 1909.67 1427.49 1916.43 1415.51 1917.51C1403.53 1918.6 1393.6 1903.47 1401.63 1870.32C1409.66 1837.17 1420.67 1798.96 1397.43 1791.83C1374.19 1784.7 1354.81 1812.71 1362.33 1762.74C1359.15 1736.31 1308.68 1725.36 1308.68 1725.36V1725.35Z" fill="url(#paint2_linear_554_113)"/>
<path style="mix-blend-mode:multiply" d="M1029.35 1906.95C1055.96 1925.35 1080.22 1901.09 1100.91 1913.22C1121.6 1925.35 1155.13 1885.4 1167.25 1863.28C1167.25 1863.28 1140.14 1894.67 1161.54 1930.34C1164.98 1961.5 1154.75 1970.18 1121.91 1971.69C1089.07 1973.2 1096.62 1983.84 1043.12 1948.89C988.19 1934.62 994.89 1942.06 1029.35 1906.95Z" fill="url(#paint3_linear_554_113)"/>
<path d="M1000.79 1714.01C1041.79 1663.04 1054.67 1715.77 1035.34 1774.92C1016.01 1834.07 1056.42 1879.17 1021.87 1917.23C987.32 1955.3 907.09 1928.6 945.64 1883.35" stroke="black" stroke-width="18.34" stroke-linecap="round" stroke-linejoin="round"/>
<path d="M1385.5 1312.95C1426.92 1284.14 1535.48 1282.97 1568.73 1308.54" stroke="black" stroke-width="18.34" stroke-linecap="round" stroke-linejoin="round"/>
<path d="M1369.74 1276.03C1369.74 1276.03 1481.13 1486.78 1428.64 1883.55C1428.64 1883.55 1424.49 1762.18 1359.79 1788.24C1390.35 1733.42 1278.66 1761.93 1219.34 1604.66C1234.16 1646.01 1185.5 1646.18 1156.36 1580.62C1114.9 1671.91 1062.47 1545.01 1160.41 1489.97C1160.41 1489.97 988.54 1483.71 1255.68 1305.2C1255.68 1305.2 1186.95 1293.97 1264.25 1246.81C1317.05 1214.59 1381.81 1190.78 1501.68 1191.58C1583.81 1192.13 1658.95 1215.36 1694.74 1237.13C1829.88 1319.31 1735.1 1332.64 1735.1 1332.64C1735.1 1332.64 1925.36 1410.39 1830.3 1449.94C1830.3 1449.94 1871.36 1653.38 1778.95 1549.16C1742.97 1612.95 1714.51 1638.81 1692.12 1581.01C1690.24 1708.01 1501.7 1736.56 1530.69 1803.74C1530.69 1803.74 1478.26 1747.26 1483.26 1885.82C1464.54 1691.09 1535.37 1308.92 1597.79 1272.72" stroke="black" stroke-width="18.34" stroke-linecap="round" stroke-linejoin="round"/>
<path d="M1416.37 1820.3C1416.37 1820.3 1399.07 1871.83 1403.52 1918.6C1403.52 1918.6 1437.52 1910.57 1436.91 1944.13C1435.94 1997.43 1432.87 2080.75 1432.87 2080.75" stroke="black" stroke-width="18.34" stroke-linecap="round" stroke-linejoin="round"/>
<path d="M1025.13 1693.96C1025.13 1693.96 1081.62 1679.88 1084.58 1662.94C1087.12 1646.01 1057.06 1657.44 1078.23 1634.58C1099.4 1611.72 1105.57 1587.33 1105.57 1587.33" stroke="black" stroke-width="18.34" stroke-linecap="round" stroke-linejoin="round"/>
<path d="M1140.34 2048.39C1163.27 2016.58 1174.92 1932.57 1154.95 1914.82C1134.98 1897.07 1169 1890.09 1179.36 1814.44C1189.72 1738.78 1172.35 1756.15 1188.62 1702.15C1204.89 1648.15 1193.39 1628.17 1193.39 1628.17" stroke="black" stroke-width="18.34" stroke-linecap="round" stroke-linejoin="round"/>
<path d="M976.28 1935.39C1022.21 1939.22 1069.33 1953.88 1080.56 1968.86C1091.79 1983.84 1164.98 1961.51 1164.98 1961.51" stroke="black" stroke-width="18.34" stroke-linecap="round" stroke-linejoin="round"/>
<path d="M1729.95 1611.25C1750.06 1703.52 1732.34 1722.12 1743.86 1777.04C1755.37 1831.96 1730.57 1916.1 1743.86 1939.13C1757.15 1962.16 1729.95 2084.39 1729.95 2084.39" stroke="black" stroke-width="18.34" stroke-linecap="round" stroke-linejoin="round"/>
<path d="M1983.43 2074C1953.48 2000 1982.73 1893.45 1961.65 1925.62C1961.65 1925.62 1961.27 1714.26 1930.34 1736.41C1930.34 1736.41 1926.85 1551.17 1894.95 1596.2C1874.34 1521.11 1870.45 1457.52 1830.31 1449.94" stroke="black" stroke-width="18.34" stroke-linecap="round" stroke-linejoin="round"/>
<path d="M1232.03 1451.15C1232.03 1451.15 1218.27 1566.75 1280.61 1585.19" stroke="black" stroke-width="18.34" stroke-linecap="round" stroke-linejoin="round"/>
<path d="M1268.31 1518.46C1268.31 1518.46 1265.68 1582.55 1305.19 1612.41" stroke="black" stroke-width="18.34" stroke-linecap="round" stroke-linejoin="round"/>
<path d="M1700.46 1449.94C1700.46 1449.94 1694.8 1575.94 1632.02 1588.52" stroke="black" stroke-width="18.34" stroke-linecap="round" stroke-linejoin="round"/>
<path d="M1650.33 1521.91C1650.33 1521.91 1648.02 1586.89 1603.71 1612.39" stroke="black" stroke-width="18.34" stroke-linecap="round" stroke-linejoin="round"/>
<path d="M1475.17 2049.64C1475.17 2049.64 1453.04 1943.52 1504.84 1929.16C1504.84 1929.16 1524.51 1859.71 1491 1807.72" stroke="black" stroke-width="18.34" stroke-linecap="round" stroke-linejoin="round"/>
<path d="M1034.82 1719.5C1028.14 1718.95 1021.25 1716.42 1014.31 1712.49C1023.56 1702.88 1028.58 1702.25 1029.54 1702.77C1032 1704.09 1034.2 1710.03 1034.82 1719.5ZM947.1 1897.33C942.95 1905.29 943.98 1912.01 950.11 1917.43C957.48 1923.89 970.99 1927.56 984.74 1925.98C971.72 1917.83 959.1 1908.26 947.1 1897.33Z" fill="url(#paint4_linear_554_113)"/>
<path d="M1119.35 1880.54C1105.95 1922.76 1123.31 1921.44 1097.84 1940.88" stroke="black" stroke-width="18.34" stroke-linecap="round" stroke-linejoin="round"/>
<path d="M1881.69 1661.12C1864.6 1691.64 1809.67 1722.16 1806.01 1774.65" stroke="black" stroke-width="18.34" stroke-linecap="round" stroke-linejoin="round"/>
</g>
<defs>
<linearGradient id="paint0_linear_554_113" x1="989.95" y1="1670.53" x2="1993.73" y2="1670.53" gradientUnits="userSpaceOnUse">
<stop stop-color="#A3E8CF"/>
<stop offset="1" stop-color="#1BFD00"/>
</linearGradient>
<linearGradient id="paint1_linear_554_113" x1="1884.98" y1="1805.85" x2="1592.66" y2="1637.08" gradientUnits="userSpaceOnUse">
<stop stop-color="#A3E8C8"/>
<stop offset="1" stop-color="#1BFD00"/>
</linearGradient>
<linearGradient id="paint2_linear_554_113" x1="1308.68" y1="1890.47" x2="1436.78" y2="1890.47" gradientUnits="userSpaceOnUse">
<stop stop-color="#A3E8CF"/>
<stop offset="1" stop-color="#1BFD00"/>
</linearGradient>
<linearGradient id="paint3_linear_554_113" x1="1002.66" y1="1918.84" x2="1167.25" y2="1918.84" gradientUnits="userSpaceOnUse">
<stop stop-color="#A3E8CF"/>
<stop offset="1" stop-color="#1BFD00"/>
</linearGradient>
<linearGradient id="paint4_linear_554_113" x1="944.6" y1="1814.5" x2="1034.82" y2="1814.5" gradientUnits="userSpaceOnUse">
<stop stop-color="#1BFD00"/>
<stop offset="1" stop-color="#A3E8CF"/>
</linearGradient>
</defs>
</svg>
