<svg width="2000" height="2000" viewBox="0 0 2000 2000" fill="none" xmlns="http://www.w3.org/2000/svg">
<mask id="mask0_472_1937" style="mask-type:luminance" maskUnits="userSpaceOnUse" x="0" y="0" width="2000" height="2000">
<path d="M2000 0H0V2000H2000V0Z" fill="white"/>
</mask>
<g mask="url(#mask0_472_1937)">
<path d="M1169.24 2015.63C1177.42 1934.57 1175.35 1840.11 1210.52 1864.9C1245.69 1889.69 1585.41 1942.4 1720.38 1914.01C1748.01 1910 1748.74 1915.41 1748.82 1970.97C1748.9 2026.53 1719.87 2132.2 1719.87 2132.2C1719.87 2132.2 1122.4 2040.07 1133.24 2042.78C1144.08 2045.49 1169.24 2015.63 1169.24 2015.63Z" fill="url(#paint0_linear_472_1937)"/>
<path d="M1304.99 1236.28C1372.07 1197.71 1439.51 1161.81 1427.97 1252.71C1472.46 1473.17 1606.69 1734.63 1701.21 1846.03C1700.07 1870.03 1516.86 1701.94 1421.7 1547.11C1326.55 1392.28 1312.5 1353.75 1295.01 1316C1277.52 1278.24 1263.58 1239.84 1304.98 1236.28H1304.99Z" fill="url(#paint1_linear_472_1937)"/>
<path d="M1427.98 1252.71C1436.11 1188.66 1405.01 1187.59 1362.47 1206.03C1398.17 1552.99 1700.24 1866.52 1701.22 1846.03C1606.7 1734.63 1472.46 1473.17 1427.98 1252.71Z" fill="url(#paint2_linear_472_1937)"/>
<path d="M1655.98 1218.14C1724.88 1269.22 1816.91 1318.71 1912.67 1540.88C1980.85 1710.33 1993.5 1790.86 1961.17 1810.61C1928.84 1830.36 1836.7 1826.84 1800.51 1823.69C1764.31 1820.55 1745.57 1811.32 1746.79 1860.66C1748.01 1910.01 1721.43 1908.42 1636.05 1691.38C1550.67 1474.34 1586.28 1291.52 1586.28 1291.52C1586.28 1291.52 1590.88 1162.7 1655.98 1218.14Z" fill="url(#paint3_linear_472_1937)"/>
<path d="M1675.52 1889.48C1587.29 1871.43 1348.23 1759.57 1298.77 1728.05C1249.28 1696.54 1214.28 1636.62 1204.34 1707.06C1194.43 1777.5 1202.43 1841.48 1163.69 1768.07C1138.01 1719.42 1100.33 1672.53 1084.88 1658.63C1076.99 1651.59 1074.86 1653.02 1083.05 1667.1C1080.41 1680.45 1075.27 1692.12 1067.79 1701.84C1064.53 1706.1 1061.15 1709.54 1057.67 1712.26C1052.5 1709.14 1048.72 1704.63 1048.09 1699.27C1045.26 1674.8 1070.84 1613.75 1070.84 1613.75C1125.91 1462.45 1189.82 1360.79 1198.18 1348.02C1204.56 1338.33 1210.62 1306.67 1226.98 1322.78C1232.15 1327.88 1238.35 1337.71 1245.91 1354.55C1293.75 1428.92 1523.05 1762.63 1624.64 1823.31C1726.23 1884.03 1763.76 1907.47 1675.53 1889.46L1675.52 1889.48Z" fill="url(#paint4_linear_472_1937)"/>
<path style="mix-blend-mode:multiply" d="M1057.5 1650.12C1051.81 1667.79 1046.74 1687.67 1048.08 1699.29C1048.7 1704.65 1052.48 1709.16 1057.66 1712.28C1061.14 1709.57 1064.52 1706.12 1067.78 1701.86C1075.25 1692.16 1080.38 1680.51 1083.03 1667.19C1073.07 1663.72 1064.41 1657.77 1057.5 1650.12Z" fill="url(#paint5_linear_472_1937)"/>
<path d="M1700.13 1488.7C1750.79 1536.26 1803.71 1764.75 1800.51 1823.68C1751.82 1826.78 1735.42 1842.84 1739.48 1738.14C1729.28 1644.79 1700.12 1488.7 1700.12 1488.7H1700.13Z" fill="url(#paint6_linear_472_1937)"/>
<path d="M1647.4 1920.78C1704.27 1936.38 1698.07 2082.16 1698.07 2085.26C1698.07 2088.36 1741.49 2090.75 1737.36 2084.23C1733.22 2077.7 1749.48 2012.37 1748.75 1961.19C1748.02 1910.01 1752.86 1893.82 1647.41 1920.79L1647.4 1920.78Z" fill="url(#paint7_linear_472_1937)"/>
<path d="M1199.68 1738.64C1190.98 1805.15 1179.34 1811.83 1140.29 1736.87C1167.79 1665.17 1255.81 1483.06 1255.81 1483.06" fill="url(#paint8_linear_472_1937)"/>
<path d="M1742.1 2257.24C1749.23 2136.03 1751.57 1976.67 1745.32 1818.41C1744.29 1792.36 1732.38 1604.47 1697.68 1472.23" stroke="black" stroke-width="18.34" stroke-linecap="round" stroke-linejoin="round"/>
<path d="M1264.72 1459.49C1239.03 1518.59 1210.47 1668.62 1210.47 1668.62C1199.5 1734.69 1190.72 1801.14 1184.14 1867.79C1158.52 2127.45 1130.68 2357.39 1154.42 2389.03" stroke="black" stroke-width="18.34" stroke-linecap="round" stroke-linejoin="round"/>
<path d="M1056.64 1723.9C1031.04 1667.01 1049.4 1618.41 1102.02 1686.67C1154.64 1754.93 1190.98 1805.15 1190.98 1805.15" stroke="black" stroke-width="18.34" stroke-linecap="round" stroke-linejoin="round"/>
<path d="M1056.03 1653.89C1056.03 1653.89 1131.88 1434.95 1221.48 1314.06C1221.48 1314.06 1483.81 1769.25 1748.01 1910C1748.01 1910 1421.32 1829.76 1210.47 1668.62" stroke="black" stroke-width="18.34" stroke-linecap="round" stroke-linejoin="round"/>
<path d="M1748.01 1910C1455.37 1956.98 1185.32 1856.46 1185.32 1856.46" stroke="black" stroke-width="18.34" stroke-linecap="round" stroke-linejoin="round"/>
<path d="M1279.79 1250.06C1345.21 1210.24 1430.54 1194.6 1430.54 1194.6C1430.54 1194.6 1372.23 1409.35 1748.01 1910C1748.01 1910 1312.5 1514.59 1279.79 1250.06Z" stroke="black" stroke-width="18.34" stroke-linecap="round" stroke-linejoin="round"/>
<path d="M1745.33 1818.41C1745.33 1818.41 1949.93 1842.5 1972.39 1793.33C1981.91 1772.5 1966.07 1648.57 1908.16 1531.54C1824.9 1363.28 1749.11 1241.52 1612.58 1201.7C1612.58 1201.7 1473.21 1479.02 1748.01 1909.99" stroke="black" stroke-width="18.34" stroke-linecap="round" stroke-linejoin="round"/>
</g>
<defs>
<linearGradient id="paint0_linear_472_1937" x1="1133.09" y1="1996.54" x2="1748.82" y2="1996.54" gradientUnits="userSpaceOnUse">
<stop stop-color="#FF0085"/>
<stop offset="1" stop-color="#FFC700"/>
</linearGradient>
<linearGradient id="paint1_linear_472_1937" x1="1277.9" y1="1522" x2="1701.22" y2="1522" gradientUnits="userSpaceOnUse">
<stop stop-color="#FF0085"/>
<stop offset="1" stop-color="#FFC700"/>
</linearGradient>
<linearGradient id="paint2_linear_472_1937" x1="1644.38" y1="1331.26" x2="1434.79" y2="1694.28" gradientUnits="userSpaceOnUse">
<stop stop-color="#FF0085"/>
<stop offset="1" stop-color="#FFC700"/>
</linearGradient>
<linearGradient id="paint3_linear_472_1937" x1="1578.91" y1="1545.63" x2="1978.14" y2="1545.63" gradientUnits="userSpaceOnUse">
<stop stop-color="#FF0085"/>
<stop offset="1" stop-color="#FFC700"/>
</linearGradient>
<linearGradient id="paint4_linear_472_1937" x1="1047.86" y1="1606.86" x2="1725.03" y2="1606.86" gradientUnits="userSpaceOnUse">
<stop stop-color="#FF0085"/>
<stop offset="1" stop-color="#FFC700"/>
</linearGradient>
<linearGradient id="paint5_linear_472_1937" x1="1075.26" y1="1695.2" x2="470.229" y2="1090.17" gradientUnits="userSpaceOnUse">
<stop stop-color="#FF0085"/>
<stop offset="1" stop-color="#FFC700"/>
</linearGradient>
<linearGradient id="paint6_linear_472_1937" x1="1810.3" y1="1552.3" x2="1678.6" y2="1780.42" gradientUnits="userSpaceOnUse">
<stop stop-color="#FF0085"/>
<stop offset="1" stop-color="#FFC700"/>
</linearGradient>
<linearGradient id="paint7_linear_472_1937" x1="1743.3" y1="1915.11" x2="1658.19" y2="2062.53" gradientUnits="userSpaceOnUse">
<stop stop-color="#FF0085"/>
<stop offset="1" stop-color="#FFC700"/>
</linearGradient>
<linearGradient id="paint8_linear_472_1937" x1="1296.04" y1="1506.28" x2="1143.48" y2="1770.52" gradientUnits="userSpaceOnUse">
<stop stop-color="#FF0085"/>
<stop offset="1" stop-color="#FFC800"/>
</linearGradient>
</defs>
</svg>
