<svg width="2000" height="2000" viewBox="0 0 2000 2000" fill="none" xmlns="http://www.w3.org/2000/svg">
<mask id="mask0_554_3" style="mask-type:luminance" maskUnits="userSpaceOnUse" x="0" y="0" width="2000" height="2000">
<path d="M2000 0H0V2000H2000V0Z" fill="white"/>
</mask>
<g mask="url(#mask0_554_3)">
<path d="M1843.84 1381.28C1841.42 1400.54 1835.95 1415.73 1829.31 1426.92C1821.53 1411.14 1813.39 1395.92 1804.95 1381.65C1807.26 1377.83 1809.83 1373.87 1812.69 1369.76C1809.94 1370.16 1806.23 1372.58 1801.87 1376.51C1785.47 1391.11 1759.64 1426.66 1739.83 1456.71C1714.77 1494.79 1713.23 1513.06 1716.42 1556.17C1719.61 1599.31 1647.23 1668.14 1631.75 1701.31C1616.27 1734.51 1748.86 1897.26 1765.37 1915.68C1781.88 1934.13 1754.47 2022.29 1752.2 2061.4C1749.78 2102.31 1160.02 2077.14 1160.02 2077.14C1160.02 2077.14 1159.14 2057.15 1158.48 2030.84C1157.97 2010.55 1157.6 1986.52 1157.89 1965.02C1157.96 1960.65 1158.48 1956.14 1159.47 1951.45C1169.49 1903.02 1225.47 1838.71 1265.2 1794.79C1308.75 1746.69 1293.16 1714.85 1263.22 1687.51C1233.32 1660.21 1221.62 1620.55 1237.87 1560.09C1249.32 1495.12 1203.27 1429.52 1179.35 1394.59C1174.76 1387.91 1170.99 1382.34 1168.6 1378.12C1172.12 1384.91 1175.24 1391.22 1177.99 1397.09C1168.71 1414.26 1160.16 1432.02 1152.31 1449.85C1151.03 1445.7 1150.48 1438.26 1150.11 1428.09C1145.56 1392.98 1189.77 1323.42 1233.8 1299.46C1475.5 1096.06 1681.21 1252.79 1713.38 1271.32C1745.52 1289.88 1829.57 1351.37 1843.84 1381.27V1381.28Z" fill="url(#paint0_linear_554_3)"/>
<path d="M1804.95 1381.65C1813.39 1395.92 1821.53 1411.15 1829.31 1426.92C1835.95 1415.73 1841.42 1400.54 1843.84 1381.28C1841.51 1376.39 1837.28 1370.65 1831.76 1364.4C1824.74 1369.01 1817.03 1372.71 1808.66 1375.75C1807.36 1377.75 1806.12 1379.72 1804.95 1381.64V1381.65Z" fill="#2D1FC3"/>
<path d="M1152.31 1449.85C1160.16 1432.02 1168.71 1414.26 1177.99 1397.09C1175.24 1391.22 1172.12 1384.91 1168.6 1378.12C1170.98 1382.34 1174.76 1387.92 1179.35 1394.59C1179.85 1395.31 1180.36 1396.07 1180.88 1396.82C1180.43 1394.58 1180.02 1392.34 1179.68 1390.08C1174.39 1384.37 1170.14 1377.75 1167.08 1370.65C1155.11 1391.92 1148.18 1413.13 1150.11 1428.09C1150.48 1438.25 1151.03 1445.7 1152.31 1449.85Z" fill="#FF2C10"/>
<path d="M1441.8 1260.4C1525.91 1240.1 1603.56 1273.78 1575.49 1285.48C1547.42 1297.17 1372.94 1297.07 1411.29 1269.76C1429.53 1257.88 1441.79 1260.41 1441.79 1260.41L1441.8 1260.4Z" fill="url(#paint1_linear_554_3)"/>
<path d="M1742.1 2257.24C1748.27 2152.32 1768.83 2052.33 1765.36 1915.69C1722.36 1886.5 1626.35 1720.53 1626.35 1720.53C1626.35 1720.53 1640.3 1666.93 1719.62 1578.44C1713.61 1541.82 1706.36 1505.28 1697.68 1472.22" stroke="black" stroke-width="18.34" stroke-linecap="round" stroke-linejoin="round"/>
<path d="M1264.72 1459.49C1250.66 1491.84 1235.74 1551.42 1225.11 1598.74C1244.22 1671.72 1298.07 1723.18 1298.07 1723.18C1287.1 1789.25 1163.37 1909.3 1161.49 1927.92C1137.71 2163.71 1132.42 2359.71 1154.42 2389.03" stroke="black" stroke-width="18.34" stroke-linecap="round" stroke-linejoin="round"/>
<path d="M1240.9 1533.65C1235.85 1489.84 1134.19 1258.38 1152.71 1472.23" stroke="black" stroke-width="18.34" stroke-linecap="round" stroke-linejoin="round"/>
<path d="M1709.65 1524C1742.01 1415.65 1878.42 1274.45 1826.96 1441.97" stroke="black" stroke-width="18.34" stroke-linecap="round" stroke-linejoin="round"/>
<path d="M1159.98 1383.79C1247.82 1243.34 1525.77 1065.25 1831.5 1365.86" stroke="black" stroke-width="18.34" stroke-linecap="round" stroke-linejoin="round"/>
<path d="M1367.07 1268.95C1425.4 1299.53 1554.38 1298.73 1627.29 1261.98" stroke="black" stroke-width="18.34" stroke-linecap="round" stroke-linejoin="round"/>
<path d="M1395.8 1276.39C1430.9 1248.72 1543.8 1254.55 1590.06 1274.92" stroke="black" stroke-width="18.34" stroke-linecap="round" stroke-linejoin="round"/>
</g>
<defs>
<linearGradient id="paint0_linear_554_3" x1="1149.79" y1="1640.53" x2="1843.84" y2="1640.53" gradientUnits="userSpaceOnUse">
<stop stop-color="#FF0036"/>
<stop offset="1" stop-color="#AE00A8"/>
</linearGradient>
<linearGradient id="paint1_linear_554_3" x1="1581.34" y1="1273.45" x2="1405.82" y2="1273.45" gradientUnits="userSpaceOnUse">
<stop stop-color="#AE00A8"/>
<stop offset="0.7251" stop-color="#FF0036"/>
<stop offset="1" stop-color="#FF0036"/>
</linearGradient>
</defs>
</svg>
