<svg width="2000" height="2000" viewBox="0 0 2000 2000" fill="none" xmlns="http://www.w3.org/2000/svg">
<g clip-path="url(#clip0_28_32)">
<mask id="mask0_28_32" style="mask-type:luminance" maskUnits="userSpaceOnUse" x="0" y="0" width="2000" height="2000">
<path d="M2000 0H0V2000H2000V0Z" fill="white"/>
</mask>
<g mask="url(#mask0_28_32)">
<path d="M1892.5 2261.4L1155.6 2209.9C1155.6 2209.9 1156.4 2161.4 1172.6 2009.7C1172.6 2009.6 1172.6 2009.5 1172.6 2009.5C1175.3 1984.1 1178.5 1955.7 1182.1 1924.3C1084.8 1990 960.3 1957.5 902.2 1905.8C877 1881.5 946.3 1839.8 946.3 1839.8C946.3 1839.8 1001.1 1765.5 1008.9 1742.5C1016.7 1719.5 1020.3 1707.8 1033.3 1706.7C1073.5 1738.4 1085.8 1649.5 1098.3 1606.8C1110.9 1564 1162.2 1424.9 1194.7 1359.6C1158.7 1354 1142.5 1360.3 1085.4 1357.2C1082.5 1335.3 1168.2 1265.1 1239.3 1214.8C1263.3 1201.5 1339.4 1167.9 1392.8 1149.9C1467.1 1129.6 1603.1 1136.6 1681.2 1171C1682.1 1171.4 1833.1 1238.8 1900.9 1366.4C1727.1 1327.8 1822.6 1415.5 1835 1447.7C1921.9 1590.1 1951.4 1861.1 1953.3 1878.2C1955.2 1895.4 1961.7 2027.4 1983.5 2198.2C2005.3 2369.2 1892.5 2261.4 1892.5 2261.4Z" fill="url(#paint0_linear_28_32)"/>
<path d="M1171.8 2009.2C1174.5 1983.8 1177.7 1955.4 1181.3 1924C1084 1989.7 926.4 1937.7 894.8 1884.6C1004.9 1919.3 1168.7 1920.7 1204.2 1732.9C1181.9 1960.4 1173 2003.8 1171.8 2009.2Z" fill="url(#paint1_linear_28_32)"/>
<path d="M1365.1 1268.3C1335.8 1281.5 1284 1323.2 1331.8 1326.8C1379.6 1330.4 1477 1398.4 1496.4 1385.4C1515.8 1372.4 1622.7 1319.1 1663.4 1317.9C1704.1 1316.7 1690.4 1297.4 1672.8 1289.6C1655.2 1281.8 1605 1233.3 1492.8 1240.8C1382.9 1251.5 1365.1 1268.3 1365.1 1268.3Z" fill="#00C1E9" stroke="black" stroke-width="5" stroke-miterlimit="10"/>
<path d="M1434.4 1297.7C1458.1 1277.8 1503.4 1264.8 1546.7 1289.5C1590 1314.2 1503.6 1314.2 1476 1310.8C1448.4 1307.5 1434.4 1297.7 1434.4 1297.7Z" fill="#F60B0B"/>
<path d="M1768 2239.6C1812.7 2069.7 1763.3 1653 1737.4 1515C1744.6 1749.2 1745.6 1871.4 1749 1902.7C1752.4 1933.9 1737.4 2279.9 1737.4 2279.9L1757 2268.2L1768 2239.6Z" fill="url(#paint2_linear_28_32)"/>
<path d="M1742.1 2257.2C1749.2 2136 1751.6 1976.6 1745.3 1818.4C1744.3 1792.3 1732.4 1604.5 1697.7 1472.2" stroke="black" stroke-width="18.34" stroke-linecap="round" stroke-linejoin="round"/>
<path d="M1264.7 1459.5C1239 1518.6 1210.5 1668.6 1210.5 1668.6C1199.5 1734.7 1190.7 1801.1 1184.2 1867.8C1158.6 2127.5 1130.7 2357.4 1154.5 2389" stroke="black" stroke-width="18.34" stroke-linecap="round" stroke-linejoin="round"/>
<path d="M1028 1697.2C1040.5 1706.1 1051 1712 1055.3 1710.9C1087.6 1702.7 1108.1 1498.1 1196 1363.9" stroke="black" stroke-width="18.34" stroke-linecap="round" stroke-linejoin="round"/>
<path d="M1177.4 1934.6C1114.4 1977.7 955 1963.4 871 1876.5" stroke="black" stroke-width="18.34" stroke-linecap="round" stroke-linejoin="round"/>
<path d="M1788.5 1360.8C1914.9 1538.7 1960.9 1910 1960.9 2000C1960.9 2107.6 2002.7 2254.1 1981.3 2261.4C1981.3 2261.4 1749.8 2125.5 1742.1 2257.2" stroke="black" stroke-width="18.34" stroke-linecap="round" stroke-linejoin="round"/>
<path d="M1213.5 1653.1C1237.2 1503.6 1229.6 1476 1229.6 1476" stroke="black" stroke-width="18.34" stroke-linecap="round" stroke-linejoin="round"/>
<path d="M1737.4 1715.9V1504.1" stroke="black" stroke-width="18.34" stroke-linecap="round" stroke-linejoin="round"/>
<path d="M1055.2 1710.9C1085.8 1705.5 1122.1 1675.8 1153.4 1670.9" stroke="black" stroke-width="18.34" stroke-linecap="round" stroke-linejoin="round"/>
<path d="M1416.3 1290C1480.3 1341.3 1585.5 1298.1 1585.5 1298.1" stroke="black" stroke-width="18.34" stroke-linecap="round" stroke-linejoin="round"/>
<path d="M1569.5 1303.6C1496.8 1242.4 1431.5 1300 1431.5 1300" stroke="black" stroke-width="18.34" stroke-linecap="round" stroke-linejoin="round"/>
<path d="M1478.3 1462.5C1401.5 1337.3 1081 1359.6 1081 1359.6C1177.4 1216.1 1346.6 1137.1 1504.1 1137.1C1661.6 1137.1 1847.2 1235.8 1902.8 1370.9C1902.8 1370.9 1480.5 1277.2 1441.4 1571.8C1402.4 1866.4 1409.7 2289.4 1409.7 2289.4" stroke="black" stroke-width="18.34" stroke-linecap="round" stroke-linejoin="round"/>
<path d="M913 1860.7C901.9 1869.7 892.3 1873.9 884.9 1872.4C881.7 1871.8 876.1 1870.2 875.2 1867C873.2 1860 883 1845.1 893.5 1833.1C899.6 1842.8 906.1 1852 913 1860.7ZM1012.4 1689.4C1009.5 1687.2 1001.1 1688.8 991.9 1695.4C998.5 1701.7 1005.4 1707.1 1012.2 1711.3C1016.5 1697 1014.3 1690.8 1012.4 1689.4Z" fill="url(#paint3_linear_28_32)"/>
<path d="M978.4 1694.9C1005.8 1667.5 1046 1672 1008.9 1742.4C971.8 1812.8 918.3 1888.3 883.1 1881.4C838 1872.6 895 1818.3 895 1818.3" stroke="black" stroke-width="18.34" stroke-linecap="round" stroke-linejoin="round"/>
<path d="M1447.5 1428.3C1594.2 1272.7 1813.2 1324.4 1813.2 1324.4C1785.1 1294.3 1673 1206.1 1540.3 1194.2C1409.8 1182.5 1309 1220.2 1195.6 1315.2C1195.6 1315.2 1364.5 1301.3 1483.1 1395.4" stroke="black" stroke-width="18.34" stroke-linecap="round" stroke-linejoin="round"/>
<path d="M1309.1 1322.3C1347.7 1259.4 1435 1241.3 1501.6 1240.6C1568.2 1239.9 1661.2 1262.5 1699.8 1316.9" stroke="black" stroke-width="18.34" stroke-linecap="round" stroke-linejoin="round"/>
</g>
</g>
<defs>
<linearGradient id="paint0_linear_28_32" x1="896.728" y1="1716.77" x2="1986.28" y2="1716.77" gradientUnits="userSpaceOnUse">
<stop stop-color="#FF2C10"/>
<stop offset="1" stop-color="#FFCB00"/>
</linearGradient>
<linearGradient id="paint1_linear_28_32" x1="894.77" y1="1871.06" x2="1204.19" y2="1871.06" gradientUnits="userSpaceOnUse">
<stop stop-color="#FF2C10"/>
<stop offset="1" stop-color="#FFCB00"/>
</linearGradient>
<linearGradient id="paint2_linear_28_32" x1="1737.37" y1="1897.51" x2="1785.97" y2="1897.51" gradientUnits="userSpaceOnUse">
<stop stop-color="#FF2C10"/>
<stop offset="1" stop-color="#FFCB00"/>
</linearGradient>
<linearGradient id="paint3_linear_28_32" x1="874.897" y1="1780.6" x2="1014.7" y2="1780.6" gradientUnits="userSpaceOnUse">
<stop stop-color="#FF0085"/>
<stop offset="1" stop-color="#A3E8CF"/>
</linearGradient>
<clipPath id="clip0_28_32">
<rect width="2000" height="2000" fill="white"/>
</clipPath>
</defs>
</svg>
