<svg width="2000" height="2000" viewBox="0 0 2000 2000" fill="none" xmlns="http://www.w3.org/2000/svg">
<mask id="mask0_554_196" style="mask-type:luminance" maskUnits="userSpaceOnUse" x="0" y="0" width="2000" height="2000">
<path d="M2000 0H0V2000H2000V0Z" fill="white"/>
</mask>
<g mask="url(#mask0_554_196)">
<path d="M1872.35 1540.79C1885.04 1551 1935.9 1581.23 1960.18 1579.29L1930.05 1633.24C1930.05 1633.24 1837.92 1581 1834.36 1550.18" fill="#FFD13D"/>
<path d="M1872.35 1540.79C1885.04 1551 1935.9 1581.23 1960.18 1579.29L1930.05 1633.24C1930.05 1633.24 1837.92 1581 1834.36 1550.18" stroke="black" stroke-width="18.34" stroke-linecap="round" stroke-linejoin="round"/>
<g style="mix-blend-mode:multiply">
<path d="M1872.35 1540.79L1834.36 1550.18C1835.23 1557.74 1841.45 1566.6 1850.32 1575.65C1866.48 1569.66 1884.79 1562.28 1895.72 1555.95C1885.25 1549.96 1876.62 1544.24 1872.34 1540.79H1872.35Z" fill="#FFD13D"/>
</g>
<path d="M1872.35 1540.79C1885.04 1551 1935.9 1581.23 1960.18 1579.29L1930.05 1633.24C1930.05 1633.24 1837.92 1581 1834.36 1550.18" stroke="black" stroke-width="18.34" stroke-linecap="round" stroke-linejoin="round"/>
<path d="M1360.2 1257.48C1398.49 1344.24 1541.42 1637.37 1738.32 1672C1738.32 1672 1782.79 2032.62 1736.7 2116.93H1134.78C1134.78 2116.93 1181.71 1635.81 1216.61 1517.23C1251.51 1398.65 1194.44 1459.65 1194.44 1459.65C1194.44 1459.65 1263.98 1265.25 1194.44 1333.72C1194.44 1333.72 1203.78 1247.13 1321.13 1234.83C1337.68 1233.1 1353.47 1242.25 1360.19 1257.48H1360.2Z" fill="#FFD13D"/>
<mask id="mask1_554_196" style="mask-type:luminance" maskUnits="userSpaceOnUse" x="1134" y="1233" width="624" height="884">
<path d="M1349.99 1233.38C1349.99 1233.38 1506.87 1631.28 1738.33 1672C1738.33 1672 1782.8 2032.62 1736.71 2116.93H1134.79C1134.79 2116.93 1181.72 1635.81 1216.62 1517.23C1251.52 1398.65 1194.45 1459.65 1194.45 1459.65C1194.45 1459.65 1263.99 1265.25 1194.45 1333.72C1194.45 1333.72 1205.28 1233.38 1349.99 1233.38Z" fill="white"/>
</mask>
<g mask="url(#mask1_554_196)">
<path d="M1359.67 1233.68C1329.83 1243.85 1310.9 1282.95 1317.4 1321.01C1323.9 1359.08 1312.17 1345.31 1291.2 1290.26C1270.24 1235.21 1289.16 1196.11 1333.47 1202.93C1377.78 1209.75 1389.51 1223.52 1359.67 1233.68Z" fill="#FFB000"/>
<path d="M1430.99 1951.25C1401.15 1961.42 1382.22 2000.52 1388.72 2038.58C1395.22 2076.64 1383.49 2062.88 1362.52 2007.83C1341.56 1952.78 1360.48 1913.68 1404.79 1920.5C1449.1 1927.32 1460.83 1941.09 1430.99 1951.25Z" fill="#FFB000"/>
<path d="M1765.58 1749.33C1729.84 1761.51 1707.17 1808.34 1714.95 1853.94C1722.73 1899.54 1708.68 1883.05 1683.57 1817.11C1658.46 1751.17 1681.13 1704.34 1734.2 1712.5C1787.27 1720.67 1801.32 1737.16 1765.58 1749.33Z" fill="#FFB000"/>
<path d="M1348.54 1719.28C1302.99 1694.68 1277.89 1636.96 1287.62 1596.86C1294.65 1560.34 1326.27 1565.33 1363.12 1601.52C1402.66 1634.13 1440.02 1675.51 1441.69 1700.45C1440.67 1728.97 1396.79 1740.3 1348.54 1719.28Z" fill="#FFB000"/>
<path d="M1566.33 1926.92C1609.89 1910.58 1631.48 1859.63 1611.45 1812.82C1589.7 1765.84 1529.75 1740.3 1480.65 1756.1C1433.26 1772.06 1419.49 1823.79 1446.78 1871.32C1472.36 1918.68 1524.5 1943.44 1566.34 1926.93L1566.33 1926.92Z" fill="#FFB000"/>
<path d="M1536.89 1577.28C1571.59 1564.26 1588.78 1523.68 1572.83 1486.39C1555.51 1448.97 1507.75 1428.63 1468.64 1441.21C1430.89 1453.93 1419.92 1495.12 1441.66 1532.99C1462.03 1570.72 1503.56 1590.44 1536.89 1577.28Z" fill="#FFB000"/>
<path d="M1168.55 2072.27C1190.92 2034.54 1241.94 2004.64 1256.22 1987.76C1255.97 1961.1 1178.24 1930.05 1108.9 1936.14C1054.09 1952.01 1069.26 2026.5 1116.48 2084.8C1149.17 2133.32 1160.71 2119.77 1168.55 2072.26V2072.27Z" fill="#FFB000"/>
<path d="M1256.47 1518C1278.9 1480.17 1330.06 1450.19 1344.38 1433.27C1344.13 1406.54 1266.19 1375.41 1196.66 1381.51C1141.7 1397.42 1156.91 1472.12 1204.26 1530.57C1237.04 1579.22 1248.61 1565.64 1256.47 1518Z" fill="#FFB000"/>
<path d="M1275.38 1884.09C1319.13 1872.36 1313.68 1832.99 1269.41 1787.89C1228.57 1738.22 1174.02 1688.8 1141.35 1685.76C1105.26 1687.29 1095.09 1747.46 1124.84 1811.89C1158.02 1871.75 1228.2 1900.38 1275.37 1884.09H1275.38Z" fill="#FFB000"/>
<path d="M1584.03 1696.62C1602.8 1691.59 1600.46 1674.69 1581.47 1655.33C1563.94 1634.01 1540.53 1612.8 1526.52 1611.5C1511.03 1612.16 1506.67 1637.98 1519.44 1665.63C1533.68 1691.32 1563.79 1703.6 1584.04 1696.61L1584.03 1696.62Z" fill="#FFB000"/>
<path d="M1781.41 2136.56C1815.75 2127.35 1811.47 2096.45 1776.72 2061.04C1744.66 2022.05 1701.83 1983.25 1676.19 1980.87C1647.86 1982.07 1639.87 2029.31 1663.23 2079.89C1689.28 2126.89 1744.37 2149.36 1781.41 2136.57V2136.56Z" fill="#FFB000"/>
</g>
<path d="M1854.67 1467.31C1854.67 1467.31 1852.13 1399.24 1888.66 1411.29L1905.45 1462.83C1905.45 1462.83 1853.12 1461.84 1853.12 1488.5" fill="#FFD13D"/>
<path d="M1854.67 1467.31C1854.67 1467.31 1852.13 1399.24 1888.66 1411.29L1905.45 1462.83C1905.45 1462.83 1853.12 1461.84 1853.12 1488.5" stroke="black" stroke-width="18.34" stroke-linecap="round" stroke-linejoin="round"/>
<path d="M1703.92 1534.79C1703.92 1534.79 1865.33 1506.17 1839.15 1469.89C1839.15 1469.89 1887.29 1445.35 1872.35 1540.79C1872.35 1540.79 1814.25 1599.53 1713.08 1590.09L1703.91 1534.78L1703.92 1534.79Z" fill="#FFD13D"/>
<path d="M1194.73 1625.03C1164.84 1808.9 1134.79 2116.93 1134.79 2116.93H1157.8C1163.84 2026.75 1182.66 1781.15 1194.73 1625.03Z" fill="#FFD13D"/>
<g style="mix-blend-mode:multiply">
<path d="M1712.34 2116.93H1736.71C1782.8 2032.61 1738.33 1672 1738.33 1672C1723.14 1669.33 1726.91 1671.38 1712.39 1665.85C1731.5 1785.69 1734.32 1967.56 1712.34 2116.94V2116.93Z" fill="#FFD13D"/>
</g>
<g style="mix-blend-mode:multiply">
<path d="M1744.1 1526.19C1721.49 1531.67 1703.92 1534.79 1703.92 1534.79L1713.09 1590.1C1720.25 1595.14 1735.48 1593.68 1753.79 1588.94L1744.11 1526.19H1744.1Z" fill="#FFD13D"/>
</g>
<path d="M1359.94 1256.88C1397.83 1342.87 1540.97 1637.29 1738.33 1672C1738.33 1672 1782.8 2032.62 1736.71 2116.93H1134.79C1134.79 2116.93 1181.72 1635.81 1216.62 1517.23C1251.52 1398.65 1194.45 1459.65 1194.45 1459.65C1194.45 1459.65 1263.99 1265.25 1194.45 1333.72C1194.45 1333.72 1203.83 1246.8 1321.8 1234.76C1337.96 1233.11 1353.38 1242.01 1359.93 1256.88H1359.94Z" stroke="black" stroke-width="18.34" stroke-linecap="round" stroke-linejoin="round"/>
<path d="M1703.92 1534.79C1703.92 1534.79 1865.33 1506.17 1839.15 1469.89C1839.15 1469.89 1887.29 1445.35 1872.35 1540.79C1872.35 1540.79 1812.07 1601.16 1713.08 1590.09L1703.91 1534.78L1703.92 1534.79Z" stroke="black" stroke-width="18.34" stroke-linecap="round" stroke-linejoin="round"/>
</g>
</svg>
