<svg width="2000" height="2000" viewBox="0 0 2000 2000" fill="none" xmlns="http://www.w3.org/2000/svg">
<g clip-path="url(#clip0_28_752)">
<mask id="mask0_28_752" style="mask-type:luminance" maskUnits="userSpaceOnUse" x="0" y="0" width="2000" height="2000">
<path d="M2000 0H0V2000H2000V0Z" fill="white"/>
</mask>
<g mask="url(#mask0_28_752)">
<path d="M1747.86 2022.5C1747.86 2022.5 1734.95 2036.92 1719.72 2053.61C1699.1 2076.17 1674.3 2102.92 1671.44 2103.87C1666.45 2105.52 1196.44 2142.06 1176.52 2070.67C1156.6 1999.24 1206.86 1690.91 1243.99 1529.52C1326.43 1481.68 1345.32 1330.93 1365.68 1229.16C1372.06 1224.61 1377.49 1220.98 1382.08 1218.23C1412.05 1200.14 1407.06 1218.05 1404.17 1244.68C1379.37 1338.82 1372.97 1419.58 1423.2 1439.72C1620.39 1472.23 1558.3 1208.88 1558.3 1208.88C1558.3 1208.88 1563.99 1208.18 1575.65 1211.26C1578.7 1212.07 1582.14 1213.13 1586 1214.53C1591.54 1216.51 1597.96 1219.23 1605.22 1222.82C1595.42 1363.19 1643.23 1456.15 1693.05 1527.59C1697.27 1529.97 1701.19 1534.45 1704.83 1540.72C1743.94 1608.23 1749.37 1884.19 1747.86 2022.5Z" fill="url(#paint0_linear_28_752)"/>
<path d="M1704.82 1540.72C1602.57 1513.09 1589.97 1323.86 1585.99 1214.53C1582.14 1213.14 1589.04 1215.34 1585.99 1214.53C1591.53 1216.51 1597.95 1219.23 1605.21 1222.82C1595.41 1363.19 1643.22 1456.15 1693.04 1527.59C1697.26 1529.97 1701.18 1534.45 1704.82 1540.72Z" fill="url(#paint1_linear_28_752)"/>
<path d="M1742.1 2257.24C1749.23 2136.03 1751.57 1976.67 1745.32 1818.41C1744.29 1792.36 1732.38 1604.47 1697.68 1472.23" stroke="black" stroke-width="18.34" stroke-linecap="round" stroke-linejoin="round"/>
<path d="M1264.72 1459.49C1239.03 1518.59 1210.47 1668.62 1210.47 1668.62C1199.5 1734.69 1190.72 1801.14 1184.14 1867.79C1158.52 2127.45 1130.68 2357.39 1154.42 2389.03" stroke="black" stroke-width="18.34" stroke-linecap="round" stroke-linejoin="round"/>
<path d="M1713.31 1542.62C1613.37 1487.88 1605.2 1290 1605.2 1222.83C1605.2 1222.83 1576.05 1208.89 1558.31 1208.89C1562.11 1222.83 1610.35 1444.47 1460.04 1439.72C1345.08 1436.09 1384.12 1308.87 1407.49 1213.96C1407.49 1213.96 1389.75 1212.69 1365.67 1229.17C1340.32 1363.51 1314.97 1496.59 1244 1529.54" stroke="black" stroke-width="18.34" stroke-linecap="round" stroke-linejoin="round"/>
<path d="M1711.3 1532.21C1711.3 1532.21 1709.68 1485.19 1718.55 1447.17" stroke="black" stroke-width="18.34" stroke-linecap="round" stroke-linejoin="round"/>
<path d="M1238.91 1541.26C1255.35 1477.31 1255.35 1425.06 1255.35 1425.06" stroke="black" stroke-width="18.34" stroke-linecap="round" stroke-linejoin="round"/>
<path d="M1784.68 1527.26C1748.39 1488 1714.53 1515.29 1765.14 1570.61C1779.07 1585.84 1798.65 1593.18 1805.2 1593.1C1841.59 1554.72 1845.98 1426.78 1784.68 1527.25V1527.26Z" fill="url(#paint2_linear_28_752)" stroke="black" stroke-width="18.34" stroke-linecap="round" stroke-linejoin="round"/>
<path d="M1464.55 1257.37C1498.53 1273.3 1504.64 1277.18 1504.64 1277.18L1464.55 1257.37Z" fill="#FF0000"/>
<path d="M1464.55 1257.37C1498.53 1273.3 1504.64 1277.18 1504.64 1277.18" stroke="black" stroke-width="18.34" stroke-linecap="round" stroke-linejoin="round"/>
<path d="M1463.42 1274.45C1498.71 1261.69 1505.78 1260.11 1505.78 1260.11L1463.42 1274.45Z" fill="#FF0000"/>
<path d="M1463.42 1274.45C1498.71 1261.69 1505.78 1260.11 1505.78 1260.11" stroke="black" stroke-width="18.34" stroke-linecap="round" stroke-linejoin="round"/>
</g>
</g>
<defs>
<linearGradient id="paint0_linear_28_752" x1="1172" y1="1661.74" x2="1748.08" y2="1661.74" gradientUnits="userSpaceOnUse">
<stop stop-color="#FF000C"/>
<stop offset="1" stop-color="#FFA500"/>
</linearGradient>
<linearGradient id="paint1_linear_28_752" x1="1760.42" y1="1444.42" x2="1528.94" y2="1310.77" gradientUnits="userSpaceOnUse">
<stop stop-color="#FF000C"/>
<stop offset="1" stop-color="#FFA500"/>
</linearGradient>
<linearGradient id="paint2_linear_28_752" x1="1831.3" y1="1567.5" x2="1760.56" y2="1495.4" gradientUnits="userSpaceOnUse">
<stop stop-color="#FF00A6"/>
<stop offset="1" stop-color="#FF4200"/>
</linearGradient>
<clipPath id="clip0_28_752">
<rect width="2000" height="2000" fill="white"/>
</clipPath>
</defs>
</svg>
