<svg width="2000" height="2000" viewBox="0 0 2000 2000" fill="none" xmlns="http://www.w3.org/2000/svg">
<g clip-path="url(#clip0_28_621)">
<mask id="mask0_28_621" style="mask-type:luminance" maskUnits="userSpaceOnUse" x="0" y="0" width="2000" height="2000">
<path d="M2000 0H0V2000H2000V0Z" fill="white"/>
</mask>
<g mask="url(#mask0_28_621)">
<path d="M1628.42 1442.34C1637.8 1440.71 1647.97 1439.28 1658 1438.45C1684.51 1436.27 1708.53 1454.05 1714.38 1480C1737.18 1581.11 1796.22 1862.65 1785.64 2023.35C1783.62 2054.05 1756.15 2076.65 1725.62 2072.87C1684.11 2067.73 1626.55 2059.16 1586.33 2047.42C1562.27 2040.39 1546.53 2017.34 1548.32 1992.33L1584.33 1491.2C1586.09 1466.73 1604.24 1446.53 1628.42 1442.34Z" fill="white"/>
<path d="M1711.23 1470.39C1702.28 1449.8 1681.09 1436.55 1658 1438.45C1649.87 1439.12 1641.67 1440.2 1633.85 1441.45L1581.13 2045.56C1582.82 2046.25 1584.55 2046.89 1586.33 2047.41C1619.99 2057.24 1665.74 2064.83 1704.12 2070.06C1716.45 2019.45 1713.61 1831.85 1690.17 1667.63C1669.49 1522.74 1696.88 1521.19 1711.23 1470.39Z" fill="#CFCFCF"/>
<path d="M1628.42 1442.34C1637.8 1440.71 1647.97 1439.28 1658 1438.45C1684.51 1436.27 1708.53 1454.05 1714.38 1480C1737.18 1581.11 1796.22 1862.65 1785.64 2023.35C1783.62 2054.05 1756.15 2076.65 1725.62 2072.87C1684.11 2067.73 1626.55 2059.16 1586.33 2047.42C1562.27 2040.39 1546.53 2017.34 1548.32 1992.33L1584.33 1491.2C1586.09 1466.73 1604.24 1446.53 1628.42 1442.34Z" stroke="black" stroke-width="18.34" stroke-linecap="round" stroke-linejoin="round"/>
<path d="M1668.3 2082.5C1668.3 2082.5 1184.44 2057.41 1138.18 2026.57C1138.18 2026.57 1162.89 1728.42 1227.44 1505.87C1241.64 1456.9 1275.51 1418.59 1326.38 1415.15C1456.46 1406.35 1702.61 1389.16 1684.71 1446.56C1684.71 1446.56 1645.92 1458.02 1643.42 1521.86C1638.21 1654.52 1733.53 1780.87 1668.31 2082.51L1668.3 2082.5Z" fill="white"/>
<path d="M1356.54 1408.81C1302.48 1408.81 1242.4 1454.13 1230.21 1496.15C1165.67 1718.7 1141.44 2024.51 1141.44 2024.51C1146.01 2027.55 1159.9 2030.63 1172.05 2033.58C1195.64 1380.85 1299.55 1488.9 1356.53 1408.81H1356.54Z" fill="#CFCFCF"/>
<path d="M1668.3 2082.5C1668.3 2082.5 1187.71 2055.34 1141.45 2024.5C1141.45 2024.5 1165.67 1718.67 1230.22 1496.11C1244.42 1447.16 1287.56 1412.24 1338.41 1408.8C1455.79 1400.86 1661.57 1393.11 1687.46 1433.86C1691.14 1439.66 1687.28 1447.1 1680.56 1448.48C1671.39 1450.36 1657.29 1460.23 1650.35 1500.74C1627.23 1635.61 1733.52 1780.86 1668.3 2082.5Z" stroke="black" stroke-width="18.34" stroke-linecap="round" stroke-linejoin="round"/>
</g>
</g>
<defs>
<clipPath id="clip0_28_621">
<rect width="2000" height="2000" fill="white"/>
</clipPath>
</defs>
</svg>
