<svg width="2000" height="2000" viewBox="0 0 2000 2000" fill="none" xmlns="http://www.w3.org/2000/svg">
<g clip-path="url(#clip0_1_169)">
<mask id="mask0_1_169" style="mask-type:luminance" maskUnits="userSpaceOnUse" x="0" y="0" width="2000" height="2000">
<path d="M2000 0H0V2000H2000V0Z" fill="white"/>
</mask>
<g mask="url(#mask0_1_169)">
<path d="M471.899 1332.56C433.739 1389.24 294.589 1369.32 270.119 1234.05C257.459 1164.09 278.669 1121.09 312.819 1108.94H312.859C349.469 1095.95 397.42 1118.69 438 1181.5" fill="#A97400"/>
<path d="M478.429 1319.32C476.819 1324.13 474.609 1328.53 471.899 1332.56C441.339 1377.94 363.149 1371.7 308.559 1312.82C276.489 1252.48 262.399 1122.91 354.739 1110.6C387.829 1111.92 409.129 1131.25 441.449 1181.26L478.429 1319.32Z" fill="#703500"/>
<path d="M387.609 1200.74C388.769 1201.79 358.349 1149.65 340.559 1166.29C322.769 1182.93 340.559 1189.53 340.559 1189.53C340.559 1189.53 352.039 1168.34 387.609 1200.74Z" fill="#A97400"/>
<path d="M322.52 1156.93C354.38 1147.74 379.04 1176.27 390.22 1195.98" stroke="black" stroke-width="18.34" stroke-linecap="round" stroke-linejoin="round"/>
<path d="M346.26 1156.74C346.26 1156.74 313.12 1233.67 375.3 1281.9" stroke="black" stroke-width="18.34" stroke-linecap="round" stroke-linejoin="round"/>
<path d="M478.439 1319.33C454.159 1391.47 296.309 1378.95 270.109 1234.07C243.909 1089.19 362.989 1059.77 441.449 1181.27" stroke="black" stroke-width="18.34" stroke-linecap="round" stroke-linejoin="round"/>
</g>
</g>
<defs>
<clipPath id="clip0_1_169">
<rect width="2000" height="2000" fill="white"/>
</clipPath>
</defs>
</svg>
