<svg width="2000" height="2000" viewBox="0 0 2000 2000" fill="none" xmlns="http://www.w3.org/2000/svg">
<g clip-path="url(#clip0_655_2449)">
<mask id="mask0_655_2449" style="mask-type:luminance" maskUnits="userSpaceOnUse" x="0" y="0" width="2000" height="2000">
<path d="M2000 0H0V2000H2000V0Z" fill="white"/>
</mask>
<g mask="url(#mask0_655_2449)">
<path d="M1934.5 1771.92C1928.16 1736.58 1860.51 1448.8 1756.86 1329.07C1625.59 1177.44 1367.64 1197.52 1255.69 1305.2C1158.52 1398.67 1104.1 1608.2 1092.05 1668.9C1089.28 1682.85 1083.74 1696.18 1075.06 1707.45C1013.42 1787.48 922.629 1616.74 922.629 1616.74C922.629 1616.74 913.459 1598.95 901.019 1579.65L834.869 1599.28C838.799 1711.8 875.669 1804.51 929.709 1866.44C986.539 1931.6 1062.37 1962.78 1138.9 1947.26C1153.72 1944.25 1166.45 1939.92 1177.42 1934.57C1154.05 2165.85 1132.73 2360.15 1154.42 2389.02C1180.76 2424.2 1668.03 2428.15 1736.62 2273.31L1740.46 2306.07C1740.46 2306.07 1861.32 2486.48 1926.41 2268.24C1982.19 2081.22 1945.99 1837.75 1934.5 1771.92Z" fill="#A97400" stroke="black" stroke-width="18.34" stroke-linecap="round" stroke-linejoin="round"/>
<path d="M1742.1 2257.24C1749.23 2136.03 1751.57 1976.67 1745.32 1818.41C1744.29 1792.36 1732.38 1604.47 1697.68 1472.23" stroke="black" stroke-width="18.34" stroke-linecap="round" stroke-linejoin="round"/>
<path d="M1264.72 1459.49C1239.03 1518.59 1210.47 1668.62 1210.47 1668.62C1199.5 1734.69 1190.72 1801.14 1184.14 1867.79C1158.52 2127.45 1130.68 2357.39 1154.42 2389.03" stroke="black" stroke-width="18.34" stroke-linecap="round" stroke-linejoin="round"/>
<g style="mix-blend-mode:multiply">
<path d="M1185.32 1856.46C1184.88 1860.24 1184.51 1864.02 1184.15 1867.8C1181.91 1890.29 1179.67 1912.6 1177.47 1934.53C1166.5 1939.92 1153.73 1944.25 1138.87 1947.26C1062.34 1962.78 986.51 1931.59 929.68 1866.44C1077.5 1925.54 1127.98 1907.79 1185.32 1856.46Z" fill="#FFC2AB"/>
</g>
<g style="mix-blend-mode:multiply">
<path d="M1697.69 1472.23C1697.69 1472.23 1810.26 1525.06 1785.83 2120.56C1766.25 2337.05 1770.67 2325.95 1755.57 2316.01C1740.46 2306.07 1734.79 2293.25 1747.33 2131.32C1759.87 1969.4 1758.9 1651.77 1707.47 1513.6L1697.69 1472.23Z" fill="#FFC2AB"/>
</g>
<path d="M1223.73 1306.91C1149.17 1374.87 1098.26 1535.27 1081.63 1653.35C1081.63 1653.35 1075.39 1719.02 1031.52 1723.15C996.31 1725.21 990.15 1721.04 978.76 1730.3C962.08 1720.45 956.22 1724.46 960.26 1744.92C964.31 1765.39 966.94 1788.38 943.48 1776.57C920.02 1764.76 924.1 1779.07 929.67 1802.36C935.24 1825.65 906.14 1815.69 906.14 1815.69C906.14 1815.69 883.18 1811.28 906.14 1856.45C929.1 1901.62 967.24 1993.94 1065.12 1959C1027.77 2069.71 1075.56 2166.69 1075.56 2166.69L1118.27 2413.72C1118.27 2413.72 2043.92 2516.95 2048.82 2274.9C2053.72 2032.85 2063.89 1962.8 2033.99 1871.25C2004.09 1779.7 1914.19 1554.45 1901.38 1486.1C1888.57 1417.76 1763.99 1237.57 1613.42 1216.96C1462.84 1196.35 1351.93 1178.24 1223.71 1306.9L1223.73 1306.91Z" fill="url(#paint0_linear_655_2449)"/>
<path d="M1064.86 1961.06C1032.88 1975.75 1008.06 1976.12 979.999 1958.1C918.699 1918.73 890.279 1810.26 890.279 1810.26L912.799 1817.97C922.559 1821.31 932.159 1812.54 929.719 1802.51C921.889 1770.42 918.249 1758.54 918.249 1758.54C923.509 1767.17 933.099 1772.71 942.589 1776.25C953.849 1780.44 965.269 1770.41 962.869 1758.63C958.909 1739.14 955.159 1714.71 955.159 1714.71C955.159 1714.71 986.869 1744.89 1016.24 1723.75C1016.24 1723.75 1060.84 1742.19 1076.7 1678.77C1092.55 1615.36 1122.76 1201.74 1478.22 1201.56C1722.8 1201.43 1848.61 1331.57 1899.22 1500.69C1969.39 1735.19 2087.56 1888.45 2036.32 2066.64" stroke="black" stroke-width="18.34" stroke-linecap="round" stroke-linejoin="round"/>
<path d="M1303.43 1394.35C1161.07 1756.57 1109.25 1769.91 1078.24 1889.53C1058.81 1964.5 1057.46 2033.85 1075.66 2120.54" stroke="black" stroke-width="18.34" stroke-linecap="round" stroke-linejoin="round"/>
<path d="M1710.05 1418.09C1832.98 1840.77 1607.33 2009.17 1776.63 2174.82" stroke="black" stroke-width="18.34" stroke-linecap="round" stroke-linejoin="round"/>
<path d="M1580.6 1498.21L1627.91 1558.95" stroke="black" stroke-width="18.34" stroke-linecap="round" stroke-linejoin="round"/>
<path d="M1631.71 1501.89L1576.79 1553.83" stroke="black" stroke-width="18.34" stroke-linecap="round" stroke-linejoin="round"/>
<path d="M1310.15 1465.06L1336.26 1516.26" stroke="black" stroke-width="18.34" stroke-linecap="round" stroke-linejoin="round"/>
<path d="M1344.27 1472.2L1302.34 1508.26" stroke="black" stroke-width="18.34" stroke-linecap="round" stroke-linejoin="round"/>
<path d="M1821.39 1616.49C1825.93 1638.68 1826.08 1661.11 1825.03 1678.37C1824.52 1686.78 1835.59 1690.27 1840.02 1683.09C1850.38 1666.31 1861.52 1643.83 1863.14 1622.75" stroke="black" stroke-width="18.34" stroke-linecap="round" stroke-linejoin="round"/>
<path d="M1054.3 1785.08C1043.26 1804.85 1036.32 1826.18 1032.1 1842.95C1030.04 1851.12 1018.43 1851.09 1016.38 1842.91C1011.58 1823.78 1007.77 1798.98 1012.61 1778.4" stroke="black" stroke-width="18.34" stroke-linecap="round" stroke-linejoin="round"/>
<path d="M1176.82 1535.61C1165.78 1555.38 1158.84 1576.71 1154.62 1593.48C1152.56 1601.65 1140.95 1601.62 1138.9 1593.44C1134.1 1574.31 1130.29 1549.51 1135.13 1528.93" stroke="black" stroke-width="18.34" stroke-linecap="round" stroke-linejoin="round"/>
<path d="M1887.42 1686.97C1891.96 1709.16 1892.11 1731.59 1891.06 1748.85C1890.55 1757.26 1901.62 1760.75 1906.05 1753.57C1916.41 1736.79 1927.55 1714.31 1929.17 1693.23" stroke="black" stroke-width="18.34" stroke-linecap="round" stroke-linejoin="round"/>
<path d="M1783.77 1736.45C1788.31 1758.64 1788.46 1781.07 1787.41 1798.33C1786.9 1806.74 1797.97 1810.23 1802.4 1803.05C1812.76 1786.27 1823.9 1763.79 1825.52 1742.71" stroke="black" stroke-width="18.34" stroke-linecap="round" stroke-linejoin="round"/>
<path d="M1540.09 1862.45C1523.94 2004.28 1391.49 2161.98 1292.62 2160.63C1193.75 2159.28 1122.74 2089.09 1138.89 1947.26C1155.04 1805.43 1255.57 1602.58 1390.31 1603.2C1489.18 1603.66 1556.23 1720.63 1540.08 1862.45H1540.09Z" fill="url(#paint1_linear_655_2449)" stroke="black" stroke-width="18.34" stroke-linecap="round" stroke-linejoin="round"/>
<path d="M1472.31 1191.17C1569.01 1082.38 1820.93 1170.9 1771.17 1295.56C1620.15 1212.1 1607.45 1285.52 1607.45 1285.52" fill="url(#paint2_linear_655_2449)"/>
<path d="M1472.31 1191.17C1569.01 1082.38 1820.93 1170.9 1771.17 1295.56C1620.15 1212.1 1607.45 1285.52 1607.45 1285.52" stroke="black" stroke-width="18.34" stroke-linecap="round" stroke-linejoin="round"/>
<path d="M1382.55 1337.98C1346.99 1355.43 1331.21 1382.62 1361.46 1401.62C1391.71 1420.62 1412.46 1385.88 1406.56 1352.22" fill="url(#paint3_linear_655_2449)"/>
<path d="M1382.55 1337.98C1346.99 1355.43 1331.21 1382.62 1361.46 1401.62C1391.71 1420.62 1412.46 1385.88 1406.56 1352.22" stroke="black" stroke-width="18.34" stroke-linecap="round" stroke-linejoin="round"/>
<path d="M1590.31 1389.17C1586.85 1428.84 1592.07 1449.57 1633.55 1438.31C1651.69 1433.38 1656.65 1422.84 1656.49 1412.54C1656.18 1393.14 1659.22 1373.92 1666.68 1356.01C1676.35 1332.78 1697.84 1275.29 1648.68 1254.98" fill="url(#paint4_linear_655_2449)"/>
<path d="M1590.31 1389.17C1586.85 1428.84 1592.07 1449.57 1633.55 1438.31C1651.69 1433.38 1656.65 1422.84 1656.49 1412.54C1656.18 1393.14 1659.22 1373.92 1666.68 1356.01C1676.35 1332.78 1697.84 1275.29 1648.68 1254.98" stroke="black" stroke-width="18.34" stroke-linecap="round" stroke-linejoin="round"/>
<path d="M1643.71 1228.42C1652.61 1242.85 1657.14 1260.22 1656.61 1280.32C1655.52 1321.72 1638.36 1357.93 1605.26 1378.93C1584.98 1391.81 1558.71 1398.97 1526.49 1398.12C1441.61 1395.88 1360.96 1359 1362.72 1292.19C1363.53 1261.32 1378.89 1233.58 1403.61 1212.87L1419.64 1113.81L1501.22 1175.67C1507.22 1175.25 1513.32 1175.11 1519.54 1175.28C1531.44 1175.59 1542.68 1176.57 1553.27 1178.23L1627.22 1144.02L1660.63 1128.58L1643.73 1228.44L1643.71 1228.42Z" fill="url(#paint5_linear_655_2449)"/>
<path d="M1643.71 1228.42C1652.61 1242.85 1657.14 1260.22 1656.61 1280.32C1655.52 1321.72 1629.07 1383.81 1577.68 1391.6C1613.75 1366.39 1651.94 1304.61 1626.19 1253.74C1615.62 1232.85 1618.77 1210.91 1626.93 1176.19C1629.47 1165.4 1628.81 1154.42 1627.2 1144L1660.61 1128.56L1643.71 1228.42Z" fill="url(#paint6_linear_655_2449)"/>
<path d="M1643.72 1228.42C1652.62 1242.85 1657.14 1260.22 1656.61 1280.32C1654.85 1347.08 1611.35 1400.36 1526.48 1398.12C1441.61 1395.88 1360.95 1359.01 1362.71 1292.18C1363.52 1261.32 1378.89 1233.58 1403.59 1212.87L1419.63 1113.81L1501.21 1175.66C1507.2 1175.26 1513.3 1175.11 1519.53 1175.27C1531.41 1175.58 1542.66 1176.56 1553.26 1178.21L1660.61 1128.55L1643.72 1228.41V1228.42Z" stroke="black" stroke-width="18.34" stroke-linecap="round" stroke-linejoin="round"/>
<path d="M1475.99 1248.09C1476.28 1237.13 1468.98 1228.05 1459.69 1227.81C1450.4 1227.56 1442.63 1236.24 1442.34 1247.2C1442.05 1258.15 1449.35 1267.23 1458.64 1267.47C1467.93 1267.72 1475.7 1259.04 1475.99 1248.09Z" fill="url(#paint7_linear_655_2449)" stroke="black" stroke-width="18.34" stroke-linecap="round" stroke-linejoin="round"/>
<path d="M1569.86 1262.7C1570.15 1251.75 1562.85 1242.67 1553.56 1242.43C1544.27 1242.18 1536.5 1250.86 1536.21 1261.82C1535.92 1272.77 1543.22 1281.85 1552.51 1282.09C1561.8 1282.34 1569.57 1273.66 1569.86 1262.7Z" fill="url(#paint8_linear_655_2449)" stroke="black" stroke-width="18.34" stroke-linecap="round" stroke-linejoin="round"/>
<path d="M1522.37 1304.26C1522.09 1315 1497.53 1322.79 1497.53 1322.79C1497.53 1322.79 1475.96 1314.19 1476.21 1304.58C1476.46 1294.97 1485.94 1294.57 1498.28 1294.18C1511.4 1293.76 1522.65 1293.52 1522.37 1304.26Z" fill="url(#paint9_linear_655_2449)" stroke="black" stroke-width="18.34" stroke-linecap="round" stroke-linejoin="round"/>
<path d="M1497.53 1322.79C1497.53 1322.79 1513.47 1367.98 1555.98 1336.3" stroke="black" stroke-width="18.34" stroke-linecap="round" stroke-linejoin="round"/>
<path d="M1497.53 1322.79C1497.53 1322.79 1476.22 1364.15 1436.62 1331.49" stroke="black" stroke-width="18.34" stroke-linecap="round" stroke-linejoin="round"/>
<path d="M1592.43 1307.23L1617.63 1311.06" stroke="black" stroke-width="18.34" stroke-linecap="round" stroke-linejoin="round"/>
<path d="M1584.05 1329L1607.45 1343.46" stroke="black" stroke-width="18.34" stroke-linecap="round" stroke-linejoin="round"/>
<path d="M1416.03 1297.02L1392.13 1291.02" stroke="black" stroke-width="18.34" stroke-linecap="round" stroke-linejoin="round"/>
<path d="M1419.73 1319.82L1396.01 1329" stroke="black" stroke-width="18.34" stroke-linecap="round" stroke-linejoin="round"/>
<path d="M1587.38 1196.26C1604.07 1186.53 1629.24 1180.03 1629.24 1180.03L1617.88 1215.75C1615.68 1221.3 1606.59 1223.03 1601.12 1218.94L1586.57 1208.07C1582.08 1204.72 1582.46 1199.12 1587.38 1196.26Z" fill="url(#paint10_linear_655_2449)" stroke="black" stroke-width="18.34" stroke-linecap="round" stroke-linejoin="round"/>
<path d="M1469.55 1189.09C1456.3 1176.86 1436.47 1167.24 1436.47 1167.24L1436.94 1198.03C1437.73 1203.23 1445.74 1206.89 1451.72 1204.79L1467.63 1199.2C1472.54 1197.48 1473.45 1192.69 1469.55 1189.09Z" fill="url(#paint11_linear_655_2449)" stroke="black" stroke-width="18.34" stroke-linecap="round" stroke-linejoin="round"/>
</g>
</g>
<defs>
<linearGradient id="paint0_linear_655_2449" x1="1060.34" y1="1470.01" x2="1974.79" y2="2384.46" gradientUnits="userSpaceOnUse">
<stop stop-color="#00D7AD"/>
<stop offset="1" stop-color="#FF482E"/>
</linearGradient>
<linearGradient id="paint1_linear_655_2449" x1="1136.6" y1="1881.92" x2="1542.49" y2="1881.92" gradientUnits="userSpaceOnUse">
<stop stop-color="#FFB000"/>
<stop offset="1" stop-color="#FFC800"/>
</linearGradient>
<linearGradient id="paint2_linear_655_2449" x1="1472.31" y1="1218.81" x2="1777.61" y2="1218.81" gradientUnits="userSpaceOnUse">
<stop stop-color="#FFB000"/>
<stop offset="1" stop-color="#FFC800"/>
</linearGradient>
<linearGradient id="paint3_linear_655_2449" x1="1345.45" y1="1372.5" x2="1407.56" y2="1372.5" gradientUnits="userSpaceOnUse">
<stop stop-color="#FFB000"/>
<stop offset="1" stop-color="#FFC800"/>
</linearGradient>
<linearGradient id="paint4_linear_655_2449" x1="1589.43" y1="1348.16" x2="1679.75" y2="1348.16" gradientUnits="userSpaceOnUse">
<stop stop-color="#FFB000"/>
<stop offset="1" stop-color="#FFC800"/>
</linearGradient>
<linearGradient id="paint5_linear_655_2449" x1="1362.69" y1="1256" x2="1660.61" y2="1256" gradientUnits="userSpaceOnUse">
<stop stop-color="#FFB000"/>
<stop offset="1" stop-color="#FFC800"/>
</linearGradient>
<linearGradient id="paint6_linear_655_2449" x1="1577.68" y1="1260.08" x2="1660.61" y2="1260.08" gradientUnits="userSpaceOnUse">
<stop stop-color="#FFB000"/>
<stop offset="1" stop-color="#FFC800"/>
</linearGradient>
<linearGradient id="paint7_linear_655_2449" x1="1442.33" y1="1247.65" x2="1476" y2="1247.65" gradientUnits="userSpaceOnUse">
<stop stop-color="#A3E8CF"/>
<stop offset="1" stop-color="#D0FC3D"/>
</linearGradient>
<linearGradient id="paint8_linear_655_2449" x1="1536.19" y1="1262.28" x2="1569.86" y2="1262.28" gradientUnits="userSpaceOnUse">
<stop stop-color="#A3E8CF"/>
<stop offset="1" stop-color="#D0FC3D"/>
</linearGradient>
<linearGradient id="paint9_linear_655_2449" x1="1476.21" y1="1308.41" x2="1522.38" y2="1308.41" gradientUnits="userSpaceOnUse">
<stop stop-color="#FF2EFF"/>
<stop offset="1" stop-color="#A3E8CF"/>
</linearGradient>
<linearGradient id="paint10_linear_655_2449" x1="1583.44" y1="1200.61" x2="1629.24" y2="1200.61" gradientUnits="userSpaceOnUse">
<stop stop-color="#FF2EFF"/>
<stop offset="1" stop-color="#A3E8CF"/>
</linearGradient>
<linearGradient id="paint11_linear_655_2449" x1="1436.47" y1="1186.32" x2="1471.98" y2="1186.32" gradientUnits="userSpaceOnUse">
<stop stop-color="#FF2EFF"/>
<stop offset="1" stop-color="#A3E8CF"/>
</linearGradient>
<clipPath id="clip0_655_2449">
<rect width="2000" height="2000" fill="white"/>
</clipPath>
</defs>
</svg>
