<svg width="2000" height="2000" viewBox="0 0 2000 2000" fill="none" xmlns="http://www.w3.org/2000/svg">
<g clip-path="url(#clip0_1_228)">
<mask id="mask0_1_228" style="mask-type:luminance" maskUnits="userSpaceOnUse" x="0" y="0" width="2000" height="2000">
<path d="M2000 0H0V2000H2000V0Z" fill="white"/>
</mask>
<g mask="url(#mask0_1_228)">
<path d="M1934.5 1771.92C1928.16 1736.58 1860.51 1448.8 1756.86 1329.07C1625.59 1177.44 1367.64 1197.52 1255.69 1305.2C1158.52 1398.67 1104.1 1608.2 1092.05 1668.9C1089.28 1682.85 1083.74 1696.18 1075.06 1707.45C1013.42 1787.48 922.629 1616.74 922.629 1616.74C922.629 1616.74 913.459 1598.95 901.019 1579.65L834.869 1599.28C838.799 1711.8 875.669 1804.51 929.709 1866.44C986.539 1931.6 1062.37 1962.78 1138.9 1947.26C1153.72 1944.25 1166.45 1939.92 1177.42 1934.57C1154.05 2165.85 1132.73 2360.15 1154.42 2389.02C1180.76 2424.2 1668.03 2428.15 1736.62 2273.31L1740.46 2306.07C1740.46 2306.07 1861.32 2486.48 1926.41 2268.24C1982.19 2081.22 1945.99 1837.75 1934.5 1771.92Z" fill="#A97400" stroke="black" stroke-width="18.34" stroke-linecap="round" stroke-linejoin="round"/>
<path d="M1185.32 1856.46C1184.88 1860.24 1184.51 1864.02 1184.15 1867.8C1181.91 1890.29 1179.67 1912.6 1177.47 1934.53C1166.5 1939.92 1153.73 1944.25 1138.87 1947.26C1062.34 1962.78 986.51 1931.59 929.68 1866.44C1077.5 1925.54 1127.98 1907.79 1185.32 1856.46Z" fill="#703500"/>
<path d="M1697.69 1472.23C1697.69 1472.23 1810.26 1525.06 1785.83 2120.56C1766.25 2337.05 1770.67 2325.95 1755.57 2316.01C1740.46 2306.07 1734.79 2293.25 1747.33 2131.32C1759.87 1969.4 1758.9 1651.77 1707.47 1513.6L1697.69 1472.23Z" fill="#703500"/>
<path d="M1742.1 2257.24C1749.23 2136.03 1751.57 1976.67 1745.32 1818.41C1744.29 1792.36 1732.38 1604.47 1697.68 1472.23" stroke="black" stroke-width="18.34" stroke-linecap="round" stroke-linejoin="round"/>
<path d="M1264.72 1459.49C1239.03 1518.59 1210.47 1668.62 1210.47 1668.62C1199.5 1734.69 1190.72 1801.14 1184.14 1867.79C1158.52 2127.45 1130.68 2357.39 1154.42 2389.03" stroke="black" stroke-width="18.34" stroke-linecap="round" stroke-linejoin="round"/>
<path d="M1934.5 1771.92C1928.16 1736.58 1860.51 1448.8 1756.86 1329.07C1625.59 1177.44 1367.64 1197.52 1255.69 1305.2C1158.52 1398.67 1104.1 1608.2 1092.05 1668.9C1089.28 1682.85 1083.74 1696.18 1075.06 1707.45C1013.42 1787.48 922.629 1616.74 922.629 1616.74C922.629 1616.74 913.459 1598.95 901.019 1579.65L834.869 1599.28C838.799 1711.8 875.669 1804.51 929.709 1866.44C986.539 1931.6 1062.37 1962.78 1138.9 1947.26C1153.72 1944.25 1166.45 1939.92 1177.42 1934.57C1154.05 2165.85 1132.73 2360.15 1154.42 2389.02C1180.76 2424.2 1668.03 2428.15 1736.62 2273.31L1740.46 2306.07C1740.46 2306.07 1861.32 2486.48 1926.41 2268.24C1982.19 2081.22 1945.99 1837.75 1934.5 1771.92Z" stroke="black" stroke-width="18.34" stroke-linecap="round" stroke-linejoin="round"/>
</g>
</g>
<defs>
<clipPath id="clip0_1_228">
<rect width="2000" height="2000" fill="white"/>
</clipPath>
</defs>
</svg>
