<svg width="2000" height="2000" viewBox="0 0 2000 2000" fill="none" xmlns="http://www.w3.org/2000/svg">
<g clip-path="url(#clip0_655_2652)">
<mask id="mask0_655_2652" style="mask-type:luminance" maskUnits="userSpaceOnUse" x="0" y="0" width="2000" height="2000">
<path d="M2000 0H0V2000H2000V0Z" fill="white"/>
</mask>
<g mask="url(#mask0_655_2652)">
<path d="M1023.84 1805.3C1006.07 1805.3 991.67 1819.7 991.67 1837.47C991.67 1855.23 1006.07 1869.64 1023.84 1869.64H1420.68C1438.45 1869.64 1452.85 1855.23 1452.85 1837.47C1452.85 1819.7 1438.45 1805.3 1420.68 1805.3H1023.84Z" fill="#A97400" stroke="black" stroke-width="18.34" stroke-linecap="round" stroke-linejoin="round"/>
<path d="M1452.85 1191.14C1452.85 1033.8 1408.28 897.6 1338.8 831.12C1316.3 809.59 1279 825.33 1279 856.47C1279 865.88 1282.75 874.85 1289.43 881.48C1316.79 908.68 1388.53 998.38 1388.53 1191.13" fill="#A97400"/>
<path d="M1452.85 1191.14C1452.85 1033.8 1408.28 897.6 1338.8 831.12C1316.3 809.59 1279 825.33 1279 856.47C1279 865.88 1282.75 874.85 1289.43 881.48C1316.79 908.68 1388.53 998.38 1388.53 1191.13" stroke="black" stroke-width="18.34" stroke-linecap="round" stroke-linejoin="round"/>
<path d="M1054.25 1412.54L1049.56 1420.67C1041.97 1433.81 1046.47 1450.62 1059.62 1458.2L1406.94 1658.73C1420.08 1666.32 1436.89 1661.81 1444.47 1648.67L1449.16 1640.55C1456.75 1627.4 1452.25 1610.6 1439.11 1603.01L1091.79 1402.48C1078.64 1394.9 1061.84 1399.4 1054.25 1412.54Z" fill="#A97400" stroke="black" stroke-width="18.34" stroke-linecap="round" stroke-linejoin="round"/>
<path d="M1452.85 383.17C1452.85 365.403 1438.45 351 1420.68 351C1402.91 351 1388.51 365.403 1388.51 383.17V2465.65C1388.51 2483.42 1402.91 2497.82 1420.68 2497.82C1438.45 2497.82 1452.85 2483.42 1452.85 2465.65V383.17Z" fill="#A97400" stroke="black" stroke-width="18.34" stroke-linecap="round" stroke-linejoin="round"/>
<path d="M1157.25 1066.71L1154.55 1069.41C1142.73 1081.22 1142.73 1100.38 1154.55 1112.2L1397.89 1355.55C1409.71 1367.36 1428.87 1367.36 1440.69 1355.55L1443.39 1352.84C1455.21 1341.03 1455.21 1321.87 1443.39 1310.05L1200.04 1066.71C1188.23 1054.89 1169.07 1054.89 1157.25 1066.71Z" fill="#A97400" stroke="black" stroke-width="18.34" stroke-linecap="round" stroke-linejoin="round"/>
<path d="M1420.68 1805.3C1402.91 1805.3 1388.51 1819.7 1388.51 1837.47C1388.51 1855.23 1402.91 1869.64 1420.68 1869.64H1817.52C1835.29 1869.64 1849.69 1855.23 1849.69 1837.47C1849.69 1819.7 1835.29 1805.3 1817.52 1805.3H1420.68Z" fill="#A97400" stroke="black" stroke-width="18.34" stroke-linecap="round" stroke-linejoin="round"/>
<path d="M1148.38 303.527C1163.77 337.657 1194.39 370.947 1233.54 402.297V402.317C1301.26 456.557 1394.44 505.017 1478.4 542.067C1478.42 542.067 1478.42 542.097 1478.45 542.097C1504.6 553.627 1529.86 564.087 1553.18 573.227C1553.2 573.257 1553.25 573.257 1553.27 573.287C1579.97 583.777 1604.1 592.577 1624.11 599.457C1639.21 604.667 1653.89 608.487 1667.94 611.177C1771.25 631.007 1841.23 589.707 1793.39 578.747C1739.03 566.307 1719.17 554.587 1689.73 537.777C1689.73 537.777 1668.57 464.167 1725.87 389.447C1738.13 373.447 1740.06 357.737 1725.56 343.177C1712.46 330.007 1685.93 317.757 1641.46 307.047C1547.84 284.547 1524.47 261.937 1524.47 261.937C1524.47 261.937 1523.6 152.777 1443.04 203.277C1307.22 288.427 1280.33 363.747 1280.33 363.747C1184.97 337.647 1102.27 201.287 1148.39 303.517L1148.38 303.527Z" fill="#5BCAB3" stroke="black" stroke-width="18.34" stroke-linecap="round" stroke-linejoin="round"/>
<g style="mix-blend-mode:multiply">
<path d="M1519.69 290.158C1507.98 260.938 1515.68 211.148 1476.77 189.398C1476.77 189.398 1519.71 189.248 1525.64 249.978C1528.28 277.008 1520.97 293.348 1519.69 290.158Z" fill="#CC6D62"/>
</g>
<g style="mix-blend-mode:multiply">
<path d="M1422.89 455.45C1424.36 457.73 1472.22 531.41 1553.18 573.23C1553.2 573.26 1553.25 573.26 1553.27 573.29C1579.97 583.78 1604.1 592.58 1624.11 599.46C1639.21 604.67 1653.89 608.49 1667.94 611.18C1771.25 631.01 1841.23 589.71 1793.39 578.75C1739.03 566.31 1719.17 554.59 1689.73 537.78C1689.73 537.78 1668.57 464.17 1725.87 389.45C1738.13 373.45 1740.06 357.74 1725.56 343.18C1695.1 415.61 1643.48 452.15 1648.68 473.14C1655.96 502.59 1675.39 546.53 1600.66 523.81C1600.66 523.81 1451.24 485.87 1422.9 455.45H1422.89Z" fill="#5BCAB3"/>
</g>
<path d="M1148.38 303.527C1163.77 337.657 1194.39 370.947 1233.54 402.297V402.317C1301.26 456.557 1394.44 505.017 1478.4 542.067C1478.42 542.067 1478.42 542.097 1478.45 542.097C1504.6 553.627 1529.86 564.087 1553.18 573.227C1553.2 573.257 1553.25 573.257 1553.27 573.287C1579.97 583.777 1604.1 592.577 1624.11 599.457C1639.21 604.667 1653.89 608.487 1667.94 611.177C1771.25 631.007 1841.23 589.707 1793.39 578.747C1739.03 566.307 1719.17 554.587 1689.73 537.777C1689.73 537.777 1668.57 464.167 1725.87 389.447C1738.13 373.447 1740.06 357.737 1725.56 343.177C1712.46 330.007 1685.93 317.757 1641.46 307.047C1547.84 284.547 1524.47 261.937 1524.47 261.937C1524.47 261.937 1523.6 152.777 1443.04 203.277C1307.22 288.427 1280.33 363.747 1280.33 363.747C1184.97 337.647 1102.27 201.287 1148.39 303.517L1148.38 303.527Z" stroke="black" stroke-width="18.34" stroke-linecap="round" stroke-linejoin="round"/>
<path d="M1629.17 526.595C1629.17 526.595 1502.18 512.545 1375.6 426.355" stroke="black" stroke-width="18.34" stroke-linecap="round" stroke-linejoin="round"/>
<path d="M1524.47 261.938L1524.42 289.607" stroke="black" stroke-width="18.34" stroke-linecap="round" stroke-linejoin="round"/>
<path d="M1689.72 537.777C1694.91 558.247 1697.28 561.817 1697.28 561.817" stroke="black" stroke-width="18.34" stroke-linecap="round" stroke-linejoin="round"/>
<path d="M1280.32 363.75C1280.32 363.75 1276.72 372.02 1276.61 380.62" stroke="black" stroke-width="18.34" stroke-linecap="round" stroke-linejoin="round"/>
<path d="M1388.51 1191.14C1388.51 1033.8 1433.08 897.6 1502.56 831.12C1525.06 809.59 1562.36 825.33 1562.36 856.47C1562.36 865.88 1558.61 874.85 1551.93 881.48C1524.57 908.68 1452.83 998.38 1452.83 1191.13" fill="#A97400"/>
<path d="M1388.51 1191.14C1388.51 1033.8 1433.08 897.6 1502.56 831.12C1525.06 809.59 1562.36 825.33 1562.36 856.47C1562.36 865.88 1558.61 874.85 1551.93 881.48C1524.57 908.68 1452.83 998.38 1452.83 1191.13" stroke="black" stroke-width="18.34" stroke-linecap="round" stroke-linejoin="round"/>
<path d="M1452.85 840.347C1452.85 683.007 1408.28 546.807 1338.8 480.327C1316.3 458.797 1279 474.537 1279 505.677C1279 515.087 1282.75 524.057 1289.43 530.687C1316.79 557.887 1388.53 647.587 1388.53 840.337" fill="#A97400"/>
<path d="M1452.85 840.347C1452.85 683.007 1408.28 546.807 1338.8 480.327C1316.3 458.797 1279 474.537 1279 505.677C1279 515.087 1282.75 524.057 1289.43 530.687C1316.79 557.887 1388.53 647.587 1388.53 840.337" stroke="black" stroke-width="18.34" stroke-linecap="round" stroke-linejoin="round"/>
<path d="M1072.82 1903.47C1069.96 1918.47 1065.37 1932.89 1058.66 1945.99L1058.51 1946.72C1056.82 1946.35 1055.17 1945.99 1053.48 1945.55C1051.68 1945.11 1049.85 1944.63 1048.05 1944.16C1045.04 1943.32 1042.03 1942.44 1039.06 1941.45C1038.18 1941.19 1037.34 1940.9 1036.46 1940.61C1035.03 1940.13 1033.56 1939.62 1032.09 1939.07C1031.06 1938.7 1030.04 1938.34 1029.01 1937.93C1026.81 1937.09 1024.61 1936.24 1022.44 1935.29C1019.95 1934.26 1017.45 1933.16 1014.96 1931.99C1013.53 1931.37 1012.13 1930.67 1010.74 1929.97C1009.68 1929.46 1008.65 1928.94 1007.62 1928.43C1001.53 1925.35 995.51 1921.94 989.64 1918.23C988.43 1917.46 987.22 1916.69 986.01 1915.92C979.04 1911.37 972.22 1906.42 965.57 1901.06C963.55 1899.48 961.61 1897.83 959.63 1896.14C952.95 1890.49 946.5 1884.4 940.22 1877.91C939.23 1876.88 938.24 1875.86 937.25 1874.79C936.22 1873.69 935.2 1872.59 934.17 1871.45C932.67 1869.84 931.16 1868.15 929.69 1866.46C875.65 1804.53 838.78 1711.82 834.85 1599.3L901 1579.67C913.44 1598.97 922.61 1616.76 922.61 1616.76C922.61 1616.76 975.9 1716.95 1028.54 1727.83C1047.79 1731.81 1062.75 1746.95 1066.86 1766.18C1074.58 1802.25 1082.04 1855.86 1072.81 1903.48L1072.82 1903.47Z" fill="#A97400" stroke="black" stroke-width="18.34" stroke-linecap="round" stroke-linejoin="round"/>
<g style="mix-blend-mode:multiply">
<path d="M1072.82 1903.47C1069.96 1918.47 1065.37 1932.89 1058.66 1945.99L1058.51 1946.72C1056.82 1946.35 1055.17 1945.99 1053.48 1945.55C1051.68 1945.11 1049.85 1944.63 1048.05 1944.16C1045.04 1943.32 1042.03 1942.44 1039.06 1941.45C1038.18 1941.19 1037.34 1940.9 1036.46 1940.61C1035.03 1940.13 1033.56 1939.62 1032.09 1939.07C1031.06 1938.7 1030.04 1938.34 1029.01 1937.93C1026.81 1937.09 1024.61 1936.24 1022.44 1935.29C1019.95 1934.26 1017.45 1933.16 1014.96 1931.99C1013.53 1931.37 1012.13 1930.67 1010.74 1929.97C1009.68 1929.46 1008.65 1928.94 1007.62 1928.43C1001.53 1925.35 995.509 1921.94 989.639 1918.23C988.429 1917.46 987.219 1916.69 986.009 1915.92C979.039 1911.37 972.219 1906.42 965.569 1901.06C963.549 1899.48 961.609 1897.83 959.629 1896.14C952.949 1890.49 946.499 1884.4 940.219 1877.91C939.229 1876.88 938.239 1875.86 937.249 1874.79C936.219 1873.69 935.199 1872.59 934.169 1871.45C932.669 1869.84 931.159 1868.15 929.689 1866.46C992.129 1891.44 1037.26 1902.67 1072.81 1903.48L1072.82 1903.47Z" fill="#A97400"/>
</g>
<path d="M1461.34 1097.43C1425.67 1277.42 1409.04 1275.47 1375.73 1722.04C1376.66 1868.13 1354.56 1899.42 1407.54 1907.92C1462.1 1920.93 1523.36 1960.18 1521.13 1995.89C1518.91 2031.59 1499.09 2062.03 1521.19 2061.28C1543.29 2060.53 1780.02 2088.03 1935.22 1953.44C1980.2 1910.56 1984.47 1901.82 1971.46 1846.6C1971.46 1846.6 1965.42 1832.05 2009.59 1792.92C2053.76 1753.79 2069.97 1762.28 2024.29 1669.73C1980.53 1549.61 1801.25 1060.84 1727.99 958.508C1654.73 856.168 1636.22 841.408 1589.31 813.008C1542.4 784.608 1523.68 811.238 1516.5 870.718C1501.45 927.968 1461.32 1097.43 1461.32 1097.43H1461.34Z" fill="url(#paint0_linear_655_2652)"/>
<path d="M1967.88 1829.88L2053.78 1753.79C2053.78 1753.79 1880.8 1245.58 1728 958.499C1631.04 776.329 1534.08 808.209 1534.08 808.209C1534.08 808.209 1347.62 1430.3 1378.05 1892.43C1378.05 1892.43 1585.55 2007.29 1631.8 1968.4C1599.15 1812.8 1631.8 1535.32 1631.8 1535.32" stroke="black" stroke-width="18.34" stroke-linecap="round" stroke-linejoin="round"/>
<path d="M1805.92 1349.25C1805.92 1349.25 1988.2 1802.43 1980.03 1924.31C1792.31 2048.79 1748.79 2053.97 1506.66 2061.75C1541.34 2001.9 1505.7 1952.23 1505.7 1952.23" stroke="black" stroke-width="18.34" stroke-linecap="round" stroke-linejoin="round"/>
<path d="M1577.4 1255.25C1683.5 1239.69 1776 1213.76 1824.41 1160.19C1824.41 1160.19 1678.06 1225.02 1601.89 1207.72" stroke="black" stroke-width="18.34" stroke-linecap="round" stroke-linejoin="round"/>
</g>
</g>
<defs>
<linearGradient id="paint0_linear_655_2652" x1="1371.94" y1="1432.36" x2="2051.63" y2="1432.36" gradientUnits="userSpaceOnUse">
<stop stop-color="#A3E8CF"/>
<stop offset="1" stop-color="#E171FA"/>
</linearGradient>
<clipPath id="clip0_655_2652">
<rect width="2000" height="2000" fill="white"/>
</clipPath>
</defs>
</svg>
