<svg width="2000" height="2000" viewBox="0 0 2000 2000" fill="none" xmlns="http://www.w3.org/2000/svg">
<g clip-path="url(#clip0_655_2191)">
<mask id="mask0_655_2191" style="mask-type:luminance" maskUnits="userSpaceOnUse" x="0" y="0" width="2000" height="2000">
<path d="M2000 0H0V2000H2000V0Z" fill="white"/>
</mask>
<g mask="url(#mask0_655_2191)">
<path d="M1941.74 1756.55C1941.74 2216.12 1697.24 2331.02 1466.5 2331.02C1235.76 2331.02 1048.7 2073.82 1048.7 1756.55C1048.7 1439.28 1235.75 1182.08 1466.5 1182.08C1697.25 1182.08 1941.74 1296.97 1941.74 1756.55Z" fill="url(#paint0_linear_655_2191)" stroke="black" stroke-width="18.34" stroke-linecap="round" stroke-linejoin="round"/>
<path d="M1722.9 1679.48C1722.9 1789.43 1670.11 1885.45 1591.52 1937.18C1552.41 1962.9 1506.92 1977.65 1458.34 1977.65C1312.25 1977.65 1193.82 1844.18 1193.82 1679.49C1193.82 1514.8 1312.25 1381.33 1458.34 1381.33C1485.86 1381.33 1512.38 1386.06 1537.33 1394.87C1644.86 1432.73 1722.9 1545.84 1722.9 1679.49V1679.48Z" fill="url(#paint1_linear_655_2191)"/>
<path d="M1722.9 1679.48C1722.9 1789.43 1670.11 1885.45 1591.52 1937.18C1654.29 1736.53 1619.22 1548.84 1537.33 1394.86C1644.86 1432.72 1722.9 1545.83 1722.9 1679.48Z" fill="url(#paint2_linear_655_2191)"/>
<path d="M1722.9 1679.48C1722.9 1789.43 1670.11 1885.45 1591.52 1937.18C1552.41 1962.9 1506.92 1977.65 1458.34 1977.65C1312.25 1977.65 1193.82 1844.18 1193.82 1679.49C1193.82 1514.8 1312.25 1381.33 1458.34 1381.33C1485.86 1381.33 1512.38 1386.06 1537.33 1394.87C1644.86 1432.73 1722.9 1545.84 1722.9 1679.49V1679.48Z" stroke="black" stroke-width="18.34" stroke-linecap="round" stroke-linejoin="round"/>
<path d="M1227.12 1527.72C1302.74 1527.72 1364.04 1426.3 1364.04 1301.19C1364.04 1176.08 1302.74 1074.66 1227.12 1074.66C1151.5 1074.66 1090.2 1176.08 1090.2 1301.19C1090.2 1426.3 1151.5 1527.72 1227.12 1527.72Z" fill="#55BDE5" stroke="black" stroke-width="18.34" stroke-linecap="round" stroke-linejoin="round"/>
<path d="M1216.39 1136.5C1129.64 1154.43 1126.05 1263.18 1132.33 1329.92C1138.61 1396.66 1189.3 1518.97 1282.52 1439.16C1282.52 1439.16 1314 1383.55 1283.03 1409.54C1258.23 1416.16 1256.14 1400.94 1228.93 1397.95C1185.13 1363.88 1196.99 1227.95 1224.91 1210.6C1249.65 1190.98 1276.32 1195.11 1297.66 1198.49C1302.14 1194.45 1297.05 1176.17 1280.02 1160.55C1230.19 1114.88 1216.4 1136.5 1216.4 1136.5H1216.39Z" fill="#A3E8CF"/>
<path d="M1227.12 1466.84C1282.41 1466.84 1327.24 1392.67 1327.24 1301.19C1327.24 1209.7 1282.41 1135.54 1227.12 1135.54C1171.83 1135.54 1127 1209.7 1127 1301.19C1127 1392.67 1171.83 1466.84 1227.12 1466.84Z" stroke="black" stroke-width="18.34" stroke-linecap="round" stroke-linejoin="round"/>
<path d="M1644.26 1527.72C1719.88 1527.72 1781.18 1426.3 1781.18 1301.19C1781.18 1176.08 1719.88 1074.66 1644.26 1074.66C1568.64 1074.66 1507.34 1176.08 1507.34 1301.19C1507.34 1426.3 1568.64 1527.72 1644.26 1527.72Z" fill="#55BDE5" stroke="black" stroke-width="18.34" stroke-linecap="round" stroke-linejoin="round"/>
<path d="M1612.49 1160.18C1668.29 1134.53 1730.51 1185.39 1731.48 1269.71C1732.45 1354.03 1722.73 1434.34 1657.59 1446.38C1605.42 1456.03 1564.07 1389.55 1580.36 1387.29C1594.71 1395.9 1612.75 1398.33 1630.11 1386.55C1675.83 1357.1 1677.11 1282.95 1654.33 1241.89C1631.55 1200.83 1637.51 1204.18 1612.02 1203.61C1603.33 1203.42 1583.36 1215.24 1578.89 1211.34C1570.26 1203.81 1591.54 1166.42 1612.49 1160.18Z" fill="#A3E8CF"/>
<path d="M1644.26 1451.66C1694.49 1451.66 1735.21 1384.29 1735.21 1301.19C1735.21 1218.09 1694.49 1150.72 1644.26 1150.72C1594.03 1150.72 1553.31 1218.09 1553.31 1301.19C1553.31 1384.29 1594.03 1451.66 1644.26 1451.66Z" stroke="black" stroke-width="18.34" stroke-linecap="round" stroke-linejoin="round"/>
<path d="M1327.24 1301.19C1327.24 1361.33 1297.77 1410.08 1261.42 1410.08C1225.07 1410.08 1195.6 1361.33 1195.6 1301.19C1195.6 1241.05 1225.07 1192.3 1261.42 1192.3C1297.77 1192.3 1327.24 1241.05 1327.24 1301.19ZM1610.18 1207.1C1578.77 1207.1 1553.31 1249.22 1553.31 1301.19C1553.31 1353.16 1578.77 1395.28 1610.18 1395.28C1641.59 1395.28 1667.05 1353.16 1667.05 1301.19C1667.05 1249.22 1641.59 1207.1 1610.18 1207.1Z" fill="url(#paint3_linear_655_2191)" stroke="black" stroke-width="18.34" stroke-linecap="round" stroke-linejoin="round"/>
<path d="M1184.45 2231.56C1269.66 2146.36 1225.71 1964.26 1086.29 1824.84C946.865 1685.42 764.77 1641.47 679.566 1726.67C594.361 1811.88 638.312 1993.97 777.733 2133.39C917.154 2272.81 1099.25 2316.77 1184.45 2231.56Z" fill="url(#paint4_linear_655_2191)" stroke="black" stroke-width="18.34" stroke-linecap="round" stroke-linejoin="round"/>
<path d="M2205.1 2122.81C2344.52 1983.39 2388.48 1801.3 2303.27 1716.09C2218.07 1630.89 2035.97 1674.84 1896.55 1814.26C1757.13 1953.68 1713.18 2135.78 1798.38 2220.98C1883.59 2306.18 2065.68 2262.23 2205.1 2122.81Z" fill="url(#paint5_linear_655_2191)" stroke="black" stroke-width="18.34" stroke-linecap="round" stroke-linejoin="round"/>
<path d="M1414.12 1355.39C1426.37 1355.39 1436.31 1345.46 1436.31 1333.2C1436.31 1320.95 1426.37 1311.01 1414.12 1311.01C1401.86 1311.01 1391.93 1320.95 1391.93 1333.2C1391.93 1345.46 1401.86 1355.39 1414.12 1355.39Z" fill="url(#paint6_linear_655_2191)" stroke="black" stroke-width="18.34" stroke-linecap="round" stroke-linejoin="round"/>
<path d="M1458.44 1353.23C1470.7 1353.23 1480.63 1343.3 1480.63 1331.04C1480.63 1318.79 1470.7 1308.85 1458.44 1308.85C1446.18 1308.85 1436.25 1318.79 1436.25 1331.04C1436.25 1343.3 1446.18 1353.23 1458.44 1353.23Z" fill="url(#paint7_linear_655_2191)" stroke="black" stroke-width="18.34" stroke-linecap="round" stroke-linejoin="round"/>
<path d="M771.531 1395.17C825.911 1438.96 1210.05 1751.97 1237.7 1774.61C1265.35 1797.24 1367.09 1869.39 1265.76 1844.67C1265.76 1844.67 1213.97 1830.22 1274.5 1893.85C1335.03 1957.49 1471.77 2050.43 1638.16 1898.15C1701.39 1835.81 1715.41 1794.2 1661.24 1801.4C1632.12 1805.27 1621.13 1764.15 1586.17 1755.99C1564.05 1750.83 1486.38 1819.1 1458.93 1804.53C1416.27 1781.89 1389.71 1760.72 1330 1713.8C1171.17 1589 865.221 1347.62 865.221 1347.62C865.221 1347.62 629.931 1216.4 771.531 1395.17Z" fill="url(#paint8_linear_655_2191)"/>
<path d="M1691.71 1829.64C1687.34 1827.44 1682.46 1825.93 1677.03 1825.2C1594.74 1814.08 1576.95 1827.44 1520.23 1845.23C1463.51 1863.02 1265.54 1692.87 1304.47 1747.35C1343.4 1801.87 1439.04 1854.11 1354.51 1886.4C1321.27 1899.06 1298.74 1901.96 1288.11 1907.35C1283.23 1902.76 1278.68 1898.25 1274.5 1893.85C1213.97 1830.2 1265.77 1844.65 1265.77 1844.65C1367.1 1869.38 1265.37 1797.25 1237.7 1774.61C1210.04 1751.97 825.919 1438.95 771.509 1395.18C629.929 1216.4 865.209 1347.63 865.209 1347.63C865.209 1347.63 1171.15 1589 1330.01 1713.81C1389.7 1760.7 1416.26 1781.87 1458.93 1804.5C1486.37 1819.1 1564.04 1750.83 1586.16 1755.96C1621.12 1764.14 1632.09 1805.27 1661.22 1801.38C1691.27 1797.38 1700.33 1808.39 1691.71 1829.63V1829.64Z" fill="url(#paint9_linear_655_2191)"/>
<path d="M1691.71 1829.64C1684.74 1846.7 1666.32 1870.36 1638.15 1898.14C1483.25 2039.9 1354.04 1969.17 1288.11 1907.35C1298.75 1901.96 1321.28 1899.06 1354.51 1886.4C1439.04 1854.12 1343.39 1801.87 1304.47 1747.35C1265.54 1692.87 1463.51 1863.03 1520.23 1845.23C1576.95 1827.44 1594.74 1814.08 1677.03 1825.2C1682.46 1825.93 1687.34 1827.44 1691.71 1829.64Z" fill="url(#paint10_linear_655_2191)"/>
<path d="M845.859 1332.69C1058.86 1496.43 1362.4 1746.41 1451.68 1802.95C1495.85 1830.92 1544.36 1754.27 1586.16 1755.98C1628.85 1757.73 1664.78 1837.08 1703.13 1792.66" stroke="black" stroke-width="18.34" stroke-linecap="round" stroke-linejoin="round"/>
<path d="M743.279 1372.66C854.629 1460.74 1245.32 1780.87 1302.12 1827.34C1358.92 1873.81 1233.24 1836.15 1233.24 1836.15" stroke="black" stroke-width="18.34" stroke-linecap="round" stroke-linejoin="round"/>
<path d="M1722.88 1679.48C1722.88 1844.15 1604.44 1977.64 1458.34 1977.64C1333.44 1977.64 1228.76 1880.09 1201.01 1748.89" stroke="black" stroke-width="18.34" stroke-linecap="round" stroke-linejoin="round"/>
<path d="M757.82 1420.09C841.84 1532.28 808.38 1657.61 770.29 1594.79C732.2 1531.96 757.82 1420.09 757.82 1420.09Z" fill="#EA3385" stroke="black" stroke-width="18.34" stroke-linecap="round" stroke-linejoin="round"/>
<path d="M902.141 1339.8C991.571 1312.49 1062.63 1361.89 1014.58 1371.55C966.531 1381.22 902.141 1339.8 902.141 1339.8Z" fill="#EA3385" stroke="black" stroke-width="18.34" stroke-linecap="round" stroke-linejoin="round"/>
<path d="M877.859 1453.6C967.769 1497.45 987.879 1586.41 943.189 1559.04C898.499 1531.67 877.859 1453.6 877.859 1453.6Z" fill="#EA3385" stroke="black" stroke-width="18.34" stroke-linecap="round" stroke-linejoin="round"/>
<path d="M906.471 1779.84C1070.33 1872.11 1179.9 2003.84 1190.93 2276.1" stroke="black" stroke-width="18.34" stroke-linecap="round" stroke-linejoin="round"/>
<path d="M2074.81 1777.81C1920.25 1791.85 1825.25 1919.36 1776.19 1995.87" stroke="black" stroke-width="18.34" stroke-linecap="round" stroke-linejoin="round"/>
</g>
</g>
<defs>
<linearGradient id="paint0_linear_655_2191" x1="1048.7" y1="1756.55" x2="1941.74" y2="1756.55" gradientUnits="userSpaceOnUse">
<stop stop-color="#FBEEF1"/>
<stop offset="1" stop-color="#EC664A"/>
</linearGradient>
<linearGradient id="paint1_linear_655_2191" x1="1193.82" y1="1679.48" x2="1722.9" y2="1679.48" gradientUnits="userSpaceOnUse">
<stop stop-color="#FFCC33"/>
<stop offset="1" stop-color="#C52987"/>
</linearGradient>
<linearGradient id="paint2_linear_655_2191" x1="1728.49" y1="1758.32" x2="1427.73" y2="1584.68" gradientUnits="userSpaceOnUse">
<stop stop-color="#FFCC33"/>
<stop offset="1" stop-color="#C52987"/>
</linearGradient>
<linearGradient id="paint3_linear_655_2191" x1="1195.61" y1="1301.19" x2="1667.05" y2="1301.19" gradientUnits="userSpaceOnUse">
<stop stop-color="#5BCAB3"/>
<stop offset="1" stop-color="#EA3385"/>
</linearGradient>
<linearGradient id="paint4_linear_655_2191" x1="636.111" y1="1979.12" x2="1227.91" y2="1979.12" gradientUnits="userSpaceOnUse">
<stop stop-color="#FBEEF1"/>
<stop offset="1" stop-color="#EC664A"/>
</linearGradient>
<linearGradient id="paint5_linear_655_2191" x1="1754.93" y1="1968.53" x2="2346.73" y2="1968.53" gradientUnits="userSpaceOnUse">
<stop stop-color="#FBEEF1"/>
<stop offset="1" stop-color="#EC664A"/>
</linearGradient>
<linearGradient id="paint6_linear_655_2191" x1="1391.9" y1="1334.35" x2="1436.22" y2="1332.19" gradientUnits="userSpaceOnUse">
<stop stop-color="#FFCC33"/>
<stop offset="1" stop-color="#F17156"/>
</linearGradient>
<linearGradient id="paint7_linear_655_2191" x1="1436.22" y1="1332.19" x2="1480.54" y2="1330.03" gradientUnits="userSpaceOnUse">
<stop stop-color="#FFCC33"/>
<stop offset="1" stop-color="#F17156"/>
</linearGradient>
<linearGradient id="paint8_linear_655_2191" x1="726.181" y1="1640.97" x2="1694.81" y2="1640.97" gradientUnits="userSpaceOnUse">
<stop stop-color="#FF5A3F"/>
<stop offset="1" stop-color="#FF0085"/>
</linearGradient>
<linearGradient id="paint9_linear_655_2191" x1="726.179" y1="1604.27" x2="1694.82" y2="1604.27" gradientUnits="userSpaceOnUse">
<stop stop-color="#917A3E"/>
<stop offset="1" stop-color="#2C1FBD"/>
</linearGradient>
<linearGradient id="paint10_linear_655_2191" x1="1386.26" y1="1973.59" x2="1524.95" y2="1733.36" gradientUnits="userSpaceOnUse">
<stop stop-color="#917A3E"/>
<stop offset="1" stop-color="#2C1FBD"/>
</linearGradient>
<clipPath id="clip0_655_2191">
<rect width="2000" height="2000" fill="white"/>
</clipPath>
</defs>
</svg>
