<svg width="2000" height="2000" viewBox="0 0 2000 2000" fill="none" xmlns="http://www.w3.org/2000/svg">
<g clip-path="url(#clip0_655_1914)">
<mask id="mask0_655_1914" style="mask-type:luminance" maskUnits="userSpaceOnUse" x="0" y="0" width="2000" height="2000">
<path d="M2000 0H0V2000H2000V0Z" fill="white"/>
</mask>
<g mask="url(#mask0_655_1914)">
<path d="M1889.27 1553.03C1872.21 1554.75 1862.19 1557.8 1855.81 1564.7C1851.44 1533.26 1844.69 1497.12 1819.89 1469.68C1756.16 1399.09 1411.55 1407.82 1411.55 1407.82C1215.49 1401 1175.39 1441.1 1143.29 1511.98C1093.25 1577.03 959.3 1400.74 1090.13 1332.47C1214.76 1278.21 1290.19 1037.02 1391.01 715.011C1391.01 715.011 1426.12 573.211 1466.95 479.511C1507.78 385.851 1594.22 166.121 1703.18 137.841C1899.46 96.381 1834.23 287.201 1809.02 430.901C1783.78 574.611 1796.11 619.371 1849.6 635.291C1903.09 651.211 1920.04 633.971 1925.58 612.471C1931.08 590.971 1948.58 554.251 1961.46 612.471C1974.34 670.661 1983.18 829.521 1937.91 974.871C1891.79 1121.88 1865.52 1041.09 1829.9 1001.76C1794.28 962.431 1858.81 1118.39 1877.41 1161.76C1896.01 1205.09 1938.42 1289.07 1961.87 1356.1C2074.87 1462.38 1937.03 1547.28 1889.26 1553.04L1889.27 1553.03Z" fill="url(#paint0_linear_655_1914)"/>
<path d="M1841.08 762.762C1789.77 838.392 1862.41 998.382 1899.98 973.492C1937.55 948.602 1965.51 842.522 1965.51 842.522C1965.51 842.522 1926.69 1092.74 1880.36 1054.91C1833.19 1016.24 1786.23 947.722 1776.73 848.392C1776.73 806.672 1768.04 809.892 1794.77 794.502C1821.51 779.112 1841.08 762.762 1841.08 762.762Z" fill="url(#paint1_linear_655_1914)"/>
<path d="M2107.6 1735.88C2107.6 1735.88 2041.2 1826.54 1946.98 1939.39C1852.77 2052.24 1800.65 2268.05 1697.63 2175.05C1653.68 2135.39 1684.94 1954.87 1671.94 2015.5C1658.86 2076.54 1492.78 2283.19 1492.78 2283.19C1492.78 2283.19 1463.53 1979.5 1548.76 1908.15C1590.49 1873.21 1453.94 2138.61 1429.95 2101.55C1417.44 2142.71 1389.17 1942.07 1376.3 2032.8C1363.46 2123.53 1311.58 2109.62 1311.58 2109.62C1311.58 2109.62 1065.99 2128.26 1123.67 2101.88C1181.38 2075.54 1298.58 1919.12 1244.06 1946.85C1089.02 2008.34 1014.08 1928.01 922.261 1885.16C826 1800.5 780.871 1674.17 744.801 1539.82C725.211 1413.69 709.981 1426.12 697.771 1481.78C685.551 1537.4 721.451 1586.34 750.281 1652.05C771.781 1706.42 670.431 1784.61 617.381 1658.77C564.291 1532.93 630.811 1423.67 630.811 1423.67C756.541 1290.38 797.521 1364.93 849.691 1482.19C901.861 1599.44 908.791 1692.26 1085.56 1732.91C1216.5 1725.54 1165.39 1698.2 1165.39 1698.2C1165.39 1698.2 1120.48 1620.24 1148.07 1504.56C1146.57 1507.31 1144.99 1509.81 1143.3 1511.97C1175.4 1441.09 1215.5 1400.99 1411.56 1407.81C1411.56 1407.81 1756.17 1399.08 1819.9 1469.67C1844.7 1497.11 1851.45 1533.25 1855.82 1564.69C1843.97 1577.42 1844.63 1603.29 1836.23 1658.17C1823.28 1742.7 1750.01 1747.54 1774.34 1817.73C1798.66 1887.95 1905.76 1839.82 1985.48 1740.25C2065.2 1640.68 2107.61 1735.88 2107.61 1735.88H2107.6Z" fill="url(#paint2_linear_655_1914)"/>
<path d="M1679.78 1418.15C1505.84 1406.4 1324.5 1404.93 1290.41 1429.92C1865.89 1405.54 1708.8 1857.95 1615.95 1896.26C1714.56 1941.72 1781.78 2040.06 1799.24 2034.59C1816.7 2029.13 1854.52 2087.28 2041.99 1808.95C2039.62 1706.81 2060.11 1674.03 1952.21 1768.27C1844.31 1862.51 1819.21 1893.03 1780.55 1832.01C1741.88 1771 1756.91 1583.89 1756.91 1583.89C1756.91 1583.89 1850.74 1418.44 1679.79 1418.15H1679.78Z" fill="url(#paint3_linear_655_1914)"/>
<path d="M837.161 1449.87C807.441 1423.37 727.061 1492.07 761.011 1601.74C761.011 1601.74 734.331 1493.02 731.151 1461.67C727.971 1430.32 695.171 1442.42 695.121 1522.96C695.121 1522.96 655.841 1368.08 613.031 1466.17C613.031 1466.17 682.941 1278.95 797.801 1384.6C833.301 1426.93 837.151 1449.87 837.151 1449.87H837.161Z" fill="url(#paint4_linear_655_1914)"/>
<path d="M1743.24 389.07C1663.44 583.92 1831.68 1287.72 1831.68 1287.72C1831.68 1287.72 1964.46 1430.66 1839.94 1511.87C1839.94 1511.87 1833.61 1575.75 1889.26 1553.04C1944.9 1530.33 2063 1491.47 1972.88 1357.21C1898.47 1216.34 1721.77 899.04 1743.25 389.08L1743.24 389.07Z" fill="url(#paint5_linear_655_1914)"/>
<path d="M1768.11 1711.9C1752.17 1917.85 1846.93 1879.18 1997.4 1728.44C2149.53 1576.03 2313.67 1616.71 2313.67 1616.71" stroke="black" stroke-width="18.34" stroke-linecap="round" stroke-linejoin="round"/>
<path d="M1254.86 1943.64C1254.86 1943.64 1276.2 1973.32 1127.33 2109.62" stroke="black" stroke-width="18.34" stroke-linecap="round" stroke-linejoin="round"/>
<path d="M1497.85 1857.11C1493.73 1859.71 1330.36 2045.6 1420.44 2094.94" stroke="black" stroke-width="18.34" stroke-linecap="round" stroke-linejoin="round"/>
<path d="M1563.08 1888.42C1476.51 1991.9 1492.78 2231.23 1492.78 2231.23" stroke="black" stroke-width="18.34" stroke-linecap="round" stroke-linejoin="round"/>
<path d="M1690.26 1939.39C1690.26 1939.39 1661.34 2000.77 1653.63 2231.23" stroke="black" stroke-width="18.34" stroke-linecap="round" stroke-linejoin="round"/>
<path d="M1393.56 1848.52C1405.9 1811.52 1464.63 1759.47 1478.89 1804.76C1493.15 1850.05 1512.37 1867.31 1507.03 1884.15C1501.69 1901 1506.55 1900.82 1468.39 1898.07C1430.23 1895.32 1387.94 1900.8 1386.7 1881.86C1385.46 1862.92 1393.57 1848.52 1393.57 1848.52H1393.56Z" fill="#E7F5F6"/>
<path d="M727.973 1430.31C740.703 1592.67 812.473 1761.32 874.113 1831.97C941.333 1909.04 1098.55 2013.16 1244.05 1946.85C1376.56 1886.47 1409.87 1787.04 1462.17 1782.31C1470.61 1781.55 1477.77 1788.37 1478.22 1796.83C1479.72 1825.29 1491.89 1890.28 1571.92 1888.5C1616.82 1887.5 1659.9 1905.43 1689.83 1938.93C1960.4 2241.77 1962.43 1641.18 2292.28 1688.21" stroke="black" stroke-width="18.34" stroke-linecap="round" stroke-linejoin="round"/>
<path d="M771.712 1408.76C703.442 1413.03 672.402 1511.95 719.812 1585.37C789.142 1692.74 726.532 1771.34 638.462 1690.37C584.782 1641.03 574.682 1441.96 675.662 1375.11C776.642 1308.26 829.572 1410.36 860.622 1516.29C891.672 1622.21 1023.95 1842.28 1245.93 1675.35" stroke="black" stroke-width="18.34" stroke-linecap="round" stroke-linejoin="round"/>
<path d="M1412.51 1575.22C1445.53 1679.96 1413.4 1783.45 1340.73 1806.36C1268.06 1829.27 1182.38 1762.93 1149.36 1658.19C1116.34 1553.45 1148.47 1449.96 1221.14 1427.05C1293.81 1404.14 1379.49 1470.48 1412.51 1575.22ZM1573.07 1575.22C1540.05 1679.96 1572.18 1783.45 1644.85 1806.36C1717.52 1829.27 1803.2 1762.93 1836.22 1658.19C1869.24 1553.45 1837.11 1449.96 1764.44 1427.05C1691.77 1404.14 1606.09 1470.48 1573.07 1575.22Z" fill="url(#paint6_linear_655_1914)"/>
<path d="M1340.71 1806.36C1333.67 1808.56 1326.51 1809.96 1319.28 1810.51C1372.7 1711.86 1387.7 1598.09 1367.74 1489.38C1386.52 1513.15 1402.12 1542.28 1412.5 1575.23C1445.52 1679.97 1413.38 1783.47 1340.7 1806.36H1340.71Z" fill="url(#paint7_linear_655_1914)"/>
<path d="M1836.22 1658.18C1811.79 1735.7 1758.48 1792.16 1703.01 1806.99C1791.54 1616.65 1793.7 1507.18 1754.12 1424.45C1757.57 1425.11 1761.02 1425.99 1764.43 1427.05C1837.11 1449.98 1869.25 1553.44 1836.23 1658.18H1836.22Z" fill="url(#paint8_linear_655_1914)"/>
<path d="M1340.74 1806.34C1413.4 1783.43 1445.54 1679.94 1412.51 1575.2C1379.49 1470.45 1293.81 1404.11 1221.14 1427.03C1148.47 1449.94 1116.34 1553.42 1149.36 1658.17C1182.39 1762.91 1268.07 1829.25 1340.74 1806.34Z" stroke="black" stroke-width="18.34" stroke-linecap="round" stroke-linejoin="round"/>
<path d="M1836.23 1658.21C1869.25 1553.47 1837.12 1449.98 1764.45 1427.07C1691.78 1404.16 1606.1 1470.5 1573.08 1575.24C1540.05 1679.99 1572.19 1783.47 1644.85 1806.38C1717.52 1829.3 1803.2 1762.96 1836.23 1658.21Z" stroke="black" stroke-width="18.34" stroke-linecap="round" stroke-linejoin="round"/>
<path d="M1141.34 1528.22C1014.99 1511.13 923.362 1319.3 1321.08 1251.44" stroke="black" stroke-width="18.34" stroke-linecap="round" stroke-linejoin="round"/>
<path d="M1848.77 1561.87C2091.19 1522.83 2061.94 1304.47 1704.64 1261.58" stroke="black" stroke-width="18.34" stroke-linecap="round" stroke-linejoin="round"/>
<path d="M1148.08 1299.78C1280.14 1142.64 1365.92 817.05 1422.46 616.24C1479 415.43 1615.47 72.2903 1788.99 138.58C1949.08 199.74 1635.56 693.22 1917.18 634.54" stroke="black" stroke-width="18.34" stroke-linecap="round" stroke-linejoin="round"/>
<path d="M1985.47 1382.29C1861.14 1132.9 1724.66 912.591 1744.16 358.891" stroke="black" stroke-width="18.34" stroke-linecap="round" stroke-linejoin="round"/>
<path d="M1768.11 801.36C1830.14 796.5 1909.22 705.55 1931.26 587.09C1933.79 573.51 1953.13 573.08 1956.15 586.57C1978.84 687.97 2001.52 886.5 1894.28 1066.6C1894.28 1066.6 1842.14 1026.6 1805.82 967.64" stroke="black" stroke-width="18.34" stroke-linecap="round" stroke-linejoin="round"/>
<path d="M1265.79 1423.66C1485.15 1384.36 1719.78 1423.66 1719.78 1423.66" stroke="black" stroke-width="18.34" stroke-linecap="round" stroke-linejoin="round"/>
<path d="M1201.66 1483.83C1225.45 1483.83 1244.74 1464.54 1244.74 1440.75C1244.74 1416.96 1225.45 1397.67 1201.66 1397.67C1177.87 1397.67 1158.58 1416.96 1158.58 1440.75C1158.58 1464.54 1177.87 1483.83 1201.66 1483.83Z" fill="url(#paint9_linear_655_1914)" stroke="black" stroke-width="18.34" stroke-linecap="round" stroke-linejoin="round"/>
<path d="M1606.16 1544.83C1629.95 1544.83 1649.24 1525.54 1649.24 1501.75C1649.24 1477.96 1629.95 1458.67 1606.16 1458.67C1582.37 1458.67 1563.08 1477.96 1563.08 1501.75C1563.08 1525.54 1582.37 1544.83 1606.16 1544.83Z" fill="url(#paint10_linear_655_1914)" stroke="black" stroke-width="18.34" stroke-linecap="round" stroke-linejoin="round"/>
<path d="M1512.93 1233.52C1473.78 1233.52 1440.24 1220.38 1415.93 1195.52C1390.5 1169.52 1377.06 1132.15 1377.06 1087.46C1377.06 1035.06 1395.25 982.311 1426.97 942.751C1461.33 899.891 1508.13 876.281 1558.73 876.281C1599.29 876.281 1632.4 891.371 1654.46 919.911C1674.39 945.701 1684.93 981.821 1684.93 1024.36C1684.93 1076.36 1669.01 1128.06 1641.26 1166.19C1626.11 1187.01 1607.93 1203.36 1587.24 1214.79C1564.74 1227.21 1539.74 1233.51 1512.93 1233.51V1233.52ZM1557.2 967.901C1545.49 967.901 1533.09 977.241 1523.18 993.521C1512.47 1011.13 1506.33 1034.24 1506.33 1056.94C1506.33 1070.55 1508.86 1102.22 1532.27 1102.22C1558.36 1102.22 1579.58 1062.74 1579.58 1014.2C1579.58 993.081 1575.7 967.901 1557.2 967.901Z" fill="url(#paint11_linear_655_1914)"/>
<path d="M1558.74 885.449C1638.63 885.449 1675.77 945.999 1675.77 1024.36C1675.77 1121.55 1618.28 1224.34 1512.94 1224.34C1440.68 1224.34 1386.24 1176 1386.24 1087.46C1386.24 986.199 1456.46 885.449 1558.74 885.449ZM1532.27 1111.38C1564.33 1111.38 1588.75 1067.62 1588.75 1014.19C1588.75 975.519 1576.03 958.719 1557.2 958.719C1525.65 958.719 1497.16 1006.05 1497.16 1056.93C1497.16 1094.08 1511.92 1111.38 1532.27 1111.38ZM1558.74 867.109C1505.3 867.109 1455.96 891.939 1419.82 937.009C1386.82 978.169 1367.89 1033.01 1367.89 1087.46C1367.89 1134.6 1382.23 1174.18 1409.37 1201.93C1422.43 1215.29 1438.13 1225.58 1456.02 1232.51C1473.44 1239.26 1492.59 1242.69 1512.93 1242.69C1541.31 1242.69 1567.81 1236.01 1591.68 1222.83C1613.56 1210.75 1632.73 1193.52 1648.68 1171.6C1677.55 1131.93 1694.11 1078.27 1694.11 1024.37C1694.11 979.779 1682.91 941.719 1661.72 914.309C1637.86 883.429 1602.24 867.109 1558.73 867.109H1558.74ZM1532.27 1093.04C1527.81 1093.04 1524.79 1091.42 1522.15 1087.62C1519.67 1084.05 1515.51 1075.32 1515.51 1056.93C1515.51 1035.87 1521.17 1014.49 1531.03 998.279C1538.99 985.199 1549.02 977.069 1557.21 977.069C1560.03 977.069 1562.11 977.799 1564.4 981.539C1566.65 985.209 1570.41 994.319 1570.41 1014.19C1570.41 1060.66 1550.31 1093.04 1532.27 1093.04Z" fill="black"/>
<path d="M1397.72 1828.32L1389.45 1868.46C1386.59 1882.33 1397.19 1895.33 1411.35 1895.33H1437.12L1451.53 1784.64" stroke="black" stroke-width="18.34" stroke-linecap="round" stroke-linejoin="round"/>
<path d="M1507.02 1867.31L1504.94 1880.4C1503.1 1892 1492.6 1900.2 1480.9 1899.17L1437.12 1895.32" stroke="black" stroke-width="18.34" stroke-linecap="round" stroke-linejoin="round"/>
</g>
</g>
<defs>
<linearGradient id="paint0_linear_655_1914" x1="1034.41" y1="848.381" x2="2005.28" y2="848.381" gradientUnits="userSpaceOnUse">
<stop stop-color="#FF0085"/>
<stop offset="1" stop-color="#FF33FF"/>
</linearGradient>
<linearGradient id="paint1_linear_655_1914" x1="1964.22" y1="990.842" x2="1778.75" y2="805.372" gradientUnits="userSpaceOnUse">
<stop stop-color="#FF0085"/>
<stop offset="1" stop-color="#FF33FF"/>
</linearGradient>
<linearGradient id="paint2_linear_655_1914" x1="596.821" y1="1817.94" x2="2107.6" y2="1817.94" gradientUnits="userSpaceOnUse">
<stop stop-color="#00D7AD"/>
<stop offset="1" stop-color="#FF482E"/>
</linearGradient>
<linearGradient id="paint3_linear_655_1914" x1="1955.17" y1="1934.48" x2="1370.51" y2="1349.81" gradientUnits="userSpaceOnUse">
<stop stop-color="#00D7AD"/>
<stop offset="1" stop-color="#FF482E"/>
</linearGradient>
<linearGradient id="paint4_linear_655_1914" x1="821.391" y1="1541.35" x2="664.041" y2="1384" gradientUnits="userSpaceOnUse">
<stop stop-color="#00D7AD"/>
<stop offset="1" stop-color="#FF482E"/>
</linearGradient>
<linearGradient id="paint5_linear_655_1914" x1="2154.87" y1="1328.2" x2="1479.49" y2="652.82" gradientUnits="userSpaceOnUse">
<stop stop-color="#FF0085"/>
<stop offset="1" stop-color="#FF33FF"/>
</linearGradient>
<linearGradient id="paint6_linear_655_1914" x1="1136.37" y1="1616.7" x2="1849.2" y2="1616.7" gradientUnits="userSpaceOnUse">
<stop stop-color="#AE00A8"/>
<stop offset="1" stop-color="#2D1FC3"/>
</linearGradient>
<linearGradient id="paint7_linear_655_1914" x1="1432.66" y1="1701.41" x2="1292.17" y2="1620.29" gradientUnits="userSpaceOnUse">
<stop stop-color="#AE00A8"/>
<stop offset="1" stop-color="#2D1FC3"/>
</linearGradient>
<linearGradient id="paint8_linear_655_1914" x1="1834.84" y1="1674.06" x2="1666.2" y2="1576.7" gradientUnits="userSpaceOnUse">
<stop stop-color="#AE00A8"/>
<stop offset="1" stop-color="#2D1FC3"/>
</linearGradient>
<linearGradient id="paint9_linear_655_1914" x1="1158.58" y1="1440.75" x2="1244.74" y2="1440.75" gradientUnits="userSpaceOnUse">
<stop stop-color="#FFB000"/>
<stop offset="1" stop-color="#FFC800"/>
</linearGradient>
<linearGradient id="paint10_linear_655_1914" x1="1563.08" y1="1501.75" x2="1649.24" y2="1501.75" gradientUnits="userSpaceOnUse">
<stop stop-color="#FFB000"/>
<stop offset="1" stop-color="#FFC800"/>
</linearGradient>
<linearGradient id="paint11_linear_655_1914" x1="1377.06" y1="1054.9" x2="1684.94" y2="1054.9" gradientUnits="userSpaceOnUse">
<stop stop-color="#FFB000"/>
<stop offset="1" stop-color="#FFC800"/>
</linearGradient>
<clipPath id="clip0_655_1914">
<rect width="2000" height="2000" fill="white"/>
</clipPath>
</defs>
</svg>
