<svg width="2000" height="2000" viewBox="0 0 2000 2000" fill="none" xmlns="http://www.w3.org/2000/svg">
<g clip-path="url(#clip0_7_1386)">
<mask id="mask0_7_1386" style="mask-type:luminance" maskUnits="userSpaceOnUse" x="0" y="0" width="2000" height="2000">
<path d="M2000 0H0V2000H2000V0Z" fill="white"/>
</mask>
<g mask="url(#mask0_7_1386)">
<path d="M1177.62 621.25C1187.43 614.15 1198.72 609.88 1210.96 608.16C1236.9 547.94 1314.01 506.78 1475.23 505.66C1554.41 505.11 1614.9 512.99 1660.01 527.32C1735.19 551.2 1767.65 592.98 1772.69 643.51C1774.73 644.62 1776.72 645.8 1778.64 647.15C1800.16 662.29 1809.96 689.86 1808.48 722.4C1806.94 756.3 1793.15 795.6 1767.63 831.88C1734.05 879.62 1688.69 909.96 1649.2 915.42C1621.04 951.06 1591.64 984.23 1565.17 1012.41C1517.93 1062.72 1432.75 1061.48 1387.73 1009.56C1366.19 984.72 1342.73 956.17 1319.93 925.56C1277.16 916.24 1229.67 883.28 1193.4 833.22C1134.78 752.3 1127.71 657.4 1177.61 621.25H1177.62Z" fill="url(#paint0_linear_7_1386)"/>
<path d="M1606.44 901.73C1610.5 897.73 1627.32 880.58 1686.34 819.53C1762.01 741.25 1740.2 623.63 1720.58 560.69C1748.36 583.1 1762.01 611.03 1765.14 642.32C1767.18 643.43 1769.17 644.61 1771.09 645.96C1792.61 661.1 1802.41 688.67 1800.93 721.21C1799.39 755.11 1785.6 794.4 1760.08 830.69C1726.5 878.43 1681.14 908.77 1641.65 914.23C1613.49 949.87 1584.09 983.04 1557.62 1011.22C1533.33 1037.09 1499.01 1049.29 1465.28 1048.02L1464.89 1043.68C1549.34 1023.16 1602.84 909.57 1606.44 901.74V901.73ZM1374.96 641.79C1376.46 703.74 1421.23 752.9 1474.94 751.59C1528.65 750.29 1570.98 699.01 1569.47 637.06C1567.97 575.11 1523.2 525.95 1469.49 527.26C1415.78 528.56 1373.45 579.84 1374.96 641.79Z" fill="url(#paint1_linear_7_1386)"/>
<path d="M1177.62 621.25C1187.43 614.15 1198.72 609.88 1210.96 608.16C1236.9 547.94 1314.01 506.78 1475.23 505.66C1554.41 505.11 1614.9 512.99 1660.01 527.32C1735.19 551.2 1767.65 592.98 1772.69 643.51C1774.73 644.62 1776.72 645.8 1778.64 647.15C1800.16 662.29 1809.96 689.86 1808.48 722.4C1806.94 756.3 1793.15 795.6 1767.63 831.88C1734.05 879.62 1688.69 909.96 1649.2 915.42C1621.04 951.06 1591.64 984.23 1565.17 1012.41C1517.93 1062.72 1432.75 1061.48 1387.73 1009.56C1366.19 984.72 1342.73 956.17 1319.93 925.56C1277.16 916.24 1229.67 883.28 1193.4 833.22C1134.78 752.3 1127.71 657.4 1177.61 621.25H1177.62Z" stroke="black" stroke-width="18.34" stroke-linecap="round" stroke-linejoin="round"/>
<path d="M1373.04 882.644C1412.37 854.148 1406.8 779.326 1360.58 715.524C1314.36 651.723 1245 623.102 1205.67 651.598C1166.33 680.093 1171.91 754.915 1218.13 818.717C1264.34 882.519 1333.7 911.14 1373.04 882.644Z" fill="black" stroke="black" stroke-width="18.34" stroke-linecap="round" stroke-linejoin="round"/>
<path d="M1379.51 857.286C1399.52 842.787 1396.69 804.721 1373.17 772.264C1349.66 739.806 1314.38 725.248 1294.36 739.747C1274.35 754.246 1277.18 792.312 1300.69 824.769C1324.21 857.227 1359.49 871.785 1379.51 857.286Z" fill="white" stroke="black" stroke-width="18.34" stroke-linecap="round" stroke-linejoin="round"/>
<path d="M1729.2 817.469C1772.83 755.445 1777.19 683.359 1738.94 656.46C1700.7 629.561 1634.33 658.036 1590.71 720.06C1547.09 782.084 1542.72 854.17 1580.97 881.069C1619.21 907.967 1685.58 879.493 1729.2 817.469Z" fill="black" stroke="black" stroke-width="18.34" stroke-linecap="round" stroke-linejoin="round"/>
<path d="M1729.2 817.467C1755.4 780.221 1758.02 736.933 1735.05 720.78C1712.08 704.627 1672.23 721.726 1646.03 758.972C1619.84 796.218 1617.22 839.506 1640.19 855.659C1663.15 871.813 1703.01 854.713 1729.2 817.467Z" fill="white" stroke="black" stroke-width="18.34" stroke-linecap="round" stroke-linejoin="round"/>
<path d="M1486.03 877.355C1488.95 877.335 1491.26 869.278 1491.19 859.359C1491.12 849.44 1488.7 841.416 1485.78 841.436C1482.86 841.457 1480.54 849.514 1480.61 859.433C1480.68 869.351 1483.11 877.376 1486.03 877.355Z" fill="black"/>
<path d="M1471.77 878.015C1474.7 877.994 1477.01 869.937 1476.94 860.018C1476.87 850.099 1474.45 842.075 1471.52 842.095C1468.6 842.116 1466.29 850.173 1466.36 860.092C1466.43 870.011 1468.85 878.035 1471.77 878.015Z" fill="black"/>
<path d="M1474.94 760.121C1511.52 759.233 1540.02 710.407 1538.58 651.065C1537.14 591.723 1506.31 544.336 1469.72 545.224C1433.13 546.112 1404.64 594.938 1406.08 654.28C1407.52 713.622 1438.35 761.009 1474.94 760.121Z" fill="black" stroke="black" stroke-width="18.34" stroke-linecap="round" stroke-linejoin="round"/>
<path d="M1504.77 708.962C1524.2 708.49 1539.33 682.565 1538.57 651.055C1537.81 619.545 1521.44 594.384 1502.01 594.855C1482.58 595.327 1467.45 621.253 1468.21 652.762C1468.98 684.272 1485.35 709.433 1504.77 708.962Z" fill="white" stroke="black" stroke-width="18.34" stroke-linecap="round" stroke-linejoin="round"/>
<path d="M1602.17 576.44C1602.17 576.44 1591.99 450.29 1671.25 379.31C1671.06 376 1671.42 372.61 1672.47 369.27C1677.11 354.48 1692.87 346.26 1707.65 350.9C1722.44 355.54 1730.66 371.3 1726.02 386.08C1722.15 398.41 1710.55 406.14 1698.24 405.69C1674.5 431.49 1635.03 488.48 1635.75 581.85" fill="url(#paint2_linear_7_1386)"/>
<path d="M1602.17 576.44C1602.17 576.44 1591.99 450.29 1671.25 379.31C1671.06 376 1671.42 372.61 1672.47 369.27C1677.11 354.48 1692.87 346.26 1707.65 350.9C1722.44 355.54 1730.66 371.3 1726.02 386.08C1722.15 398.41 1710.55 406.14 1698.24 405.69C1674.5 431.49 1635.03 488.48 1635.75 581.85" stroke="black" stroke-width="18.34" stroke-linecap="round" stroke-linejoin="round"/>
<path d="M1305.78 596.25C1305.78 596.25 1289.02 495.32 1248.38 489.08C1231.38 486.47 1220.05 492.05 1212.69 499.11C1213.07 502.03 1212.97 505.06 1212.25 508.1C1209.08 521.49 1195.65 529.77 1182.26 526.6C1168.87 523.43 1160.59 510 1163.76 496.61C1166.57 484.77 1177.38 476.95 1189.1 477.48C1199.33 463.9 1217.48 457.66 1236.25 456.23C1315.85 450.14 1341.56 586.04 1341.56 586.04" fill="url(#paint3_linear_7_1386)"/>
<path d="M1305.78 596.25C1305.78 596.25 1289.02 495.32 1248.38 489.08C1231.38 486.47 1220.05 492.05 1212.69 499.11C1213.07 502.03 1212.97 505.06 1212.25 508.1C1209.08 521.49 1195.65 529.77 1182.26 526.6C1168.87 523.43 1160.59 510 1163.76 496.61C1166.57 484.77 1177.38 476.95 1189.1 477.48C1199.33 463.9 1217.48 457.66 1236.25 456.23C1315.85 450.14 1341.56 586.04 1341.56 586.04" stroke="black" stroke-width="18.34" stroke-linecap="round" stroke-linejoin="round"/>
<path d="M1130.05 506.8L1121.49 536.98C1121.33 537.53 1120.95 538 1120.44 538.26L1105.89 545.8C1104.43 546.56 1104.38 548.63 1105.81 549.45L1120 557.63C1120.5 557.92 1120.86 558.399 1120.99 558.969L1128.17 590.18C1128.65 592.29 1131.63 592.35 1132.21 590.27L1140.79 559.41C1140.94 558.849 1141.33 558.38 1141.84 558.12L1156.38 550.59C1157.84 549.83 1157.89 547.76 1156.46 546.94L1142.26 538.76C1141.76 538.47 1141.4 537.99 1141.27 537.43L1134.07 506.9C1133.58 504.81 1130.62 504.74 1130.04 506.81L1130.05 506.8Z" fill="white"/>
<path d="M1386.88 945.33L1369.97 1004.94C1369.66 1006.03 1368.91 1006.95 1367.9 1007.47L1339.16 1022.36C1336.27 1023.86 1336.18 1027.95 1339 1029.58L1367.03 1045.74C1368.02 1046.31 1368.73 1047.27 1368.99 1048.38L1383.17 1110.03C1384.13 1114.19 1390 1114.32 1391.15 1110.21L1408.09 1049.26C1408.4 1048.16 1409.15 1047.23 1410.16 1046.71L1438.89 1031.83C1441.78 1030.33 1441.87 1026.24 1439.05 1024.61L1411.01 1008.44C1410.03 1007.87 1409.32 1006.92 1409.06 1005.82L1394.85 945.51C1393.88 941.38 1388.04 941.25 1386.89 945.33H1386.88Z" fill="white"/>
<path d="M1734.13 333.43L1723.14 372.16C1722.94 372.87 1722.45 373.46 1721.8 373.8L1703.13 383.47C1701.25 384.44 1701.19 387.1 1703.02 388.16L1721.23 398.66C1721.87 399.03 1722.33 399.65 1722.5 400.38L1731.72 440.43C1732.34 443.13 1736.16 443.22 1736.9 440.55L1747.91 400.95C1748.11 400.23 1748.6 399.63 1749.26 399.29L1767.93 389.62C1769.81 388.65 1769.87 385.99 1768.04 384.93L1749.82 374.43C1749.18 374.06 1748.72 373.45 1748.55 372.73L1739.32 333.55C1738.69 330.87 1734.9 330.78 1734.15 333.43H1734.13Z" fill="white"/>
<path d="M1523.01 538.54C1523.01 538.54 1560.37 561.76 1566.43 623.36" stroke="black" stroke-width="18.34" stroke-linecap="round" stroke-linejoin="round"/>
<path d="M1414.49 541.52C1414.49 541.52 1382.34 562.85 1379.31 623.44" stroke="black" stroke-width="18.34" stroke-linecap="round" stroke-linejoin="round"/>
</g>
</g>
<defs>
<linearGradient id="paint0_linear_7_1386" x1="1144.37" y1="777.48" x2="1808.62" y2="777.48" gradientUnits="userSpaceOnUse">
<stop stop-color="#0087BF"/>
<stop offset="1" stop-color="#6E00D4"/>
</linearGradient>
<linearGradient id="paint1_linear_7_1386" x1="1692.61" y1="903.47" x2="1375.89" y2="586.75" gradientUnits="userSpaceOnUse">
<stop stop-color="#0087BF"/>
<stop offset="1" stop-color="#6E00D4"/>
</linearGradient>
<linearGradient id="paint2_linear_7_1386" x1="1601.75" y1="465.72" x2="1727.31" y2="465.72" gradientUnits="userSpaceOnUse">
<stop stop-color="#0087BF" stop-opacity="0"/>
<stop offset="0.01" stop-color="#077DC0" stop-opacity="0.07"/>
<stop offset="0.06" stop-color="#1C63C4" stop-opacity="0.26"/>
<stop offset="0.11" stop-color="#304BC8" stop-opacity="0.44"/>
<stop offset="0.16" stop-color="#4137CB" stop-opacity="0.59"/>
<stop offset="0.23" stop-color="#4F25CE" stop-opacity="0.72"/>
<stop offset="0.29" stop-color="#5A17D0" stop-opacity="0.82"/>
<stop offset="0.37" stop-color="#630DD1" stop-opacity="0.9"/>
<stop offset="0.47" stop-color="#6905D3" stop-opacity="0.96"/>
<stop offset="0.61" stop-color="#6D01D3" stop-opacity="0.99"/>
<stop offset="1" stop-color="#6E00D4"/>
</linearGradient>
<linearGradient id="paint3_linear_7_1386" x1="1163.09" y1="526.13" x2="1341.58" y2="526.13" gradientUnits="userSpaceOnUse">
<stop stop-color="#0087BF"/>
<stop offset="0.39" stop-color="#0086BF" stop-opacity="0.99"/>
<stop offset="0.54" stop-color="#0085BF" stop-opacity="0.95"/>
<stop offset="0.64" stop-color="#0083C0" stop-opacity="0.89"/>
<stop offset="0.72" stop-color="#0080C1" stop-opacity="0.8"/>
<stop offset="0.79" stop-color="#007CC3" stop-opacity="0.69"/>
<stop offset="0.85" stop-color="#0078C4" stop-opacity="0.55"/>
<stop offset="0.91" stop-color="#0072C7" stop-opacity="0.38"/>
<stop offset="0.96" stop-color="#006CC9" stop-opacity="0.19"/>
<stop offset="1" stop-color="#0066CC" stop-opacity="0"/>
</linearGradient>
<clipPath id="clip0_7_1386">
<rect width="2000" height="2000" fill="white"/>
</clipPath>
</defs>
</svg>
