<svg width="2000" height="2000" viewBox="0 0 2000 2000" fill="none" xmlns="http://www.w3.org/2000/svg">
<g clip-path="url(#clip0_1_246)">
<mask id="mask0_1_246" style="mask-type:luminance" maskUnits="userSpaceOnUse" x="0" y="0" width="2000" height="2000">
<path d="M2000 0H0V2000H2000V0Z" fill="white"/>
</mask>
<g mask="url(#mask0_1_246)">
<path d="M1386.17 966.683C1395.4 943.229 1378.08 914.451 1347.48 902.404C1316.89 890.358 1284.6 899.606 1275.36 923.06C1266.13 946.514 1283.45 975.292 1314.05 987.339C1344.64 999.385 1376.93 990.137 1386.17 966.683Z" fill="#EA008A" stroke="black" stroke-width="18.34" stroke-linecap="round" stroke-linejoin="round"/>
<path d="M1275.36 923.05L1386.15 966.67" stroke="black" stroke-width="18.34" stroke-linecap="round" stroke-linejoin="round"/>
<path d="M1299.66 964.37C1304.46 964.37 1309.05 960.15 1308.83 955.2C1308.61 950.25 1304.8 946.03 1299.66 946.03C1294.86 946.03 1290.27 950.25 1290.49 955.2C1290.71 960.15 1294.52 964.37 1299.66 964.37Z" fill="black"/>
<path d="M1323.18 957.8C1327.98 957.8 1332.57 953.58 1332.35 948.63C1332.13 943.68 1328.32 939.46 1323.18 939.46C1318.38 939.46 1313.79 943.68 1314.01 948.63C1314.23 953.58 1318.04 957.8 1323.18 957.8Z" fill="black"/>
<path d="M1337.74 981.26C1342.54 981.26 1347.13 977.04 1346.91 972.09C1346.69 967.14 1342.88 962.92 1337.74 962.92C1332.94 962.92 1328.35 967.14 1328.57 972.09C1328.79 977.04 1332.6 981.26 1337.74 981.26Z" fill="black"/>
<path d="M1314.98 925.45C1319.78 925.45 1324.37 921.23 1324.15 916.28C1323.93 911.33 1320.12 907.11 1314.98 907.11C1310.18 907.11 1305.59 911.33 1305.81 916.28C1306.03 921.23 1309.84 925.45 1314.98 925.45Z" fill="black"/>
<path d="M1327.71 946.29C1332.51 946.29 1337.1 942.07 1336.88 937.12C1336.66 932.17 1332.85 927.95 1327.71 927.95C1322.91 927.95 1318.32 932.17 1318.54 937.12C1318.76 942.07 1322.57 946.29 1327.71 946.29Z" fill="black"/>
<path d="M1354.35 939.06C1359.15 939.06 1363.74 934.84 1363.52 929.89C1363.3 924.94 1359.49 920.72 1354.35 920.72C1349.55 920.72 1344.96 924.94 1345.18 929.89C1345.4 934.84 1349.21 939.06 1354.35 939.06Z" fill="black"/>
<path d="M1374.46 547.31C1402.49 541.27 1431.98 537.06 1461.95 534.9C1485.35 533.21 1509.62 546.76 1533.13 547.67C1559.98 548.72 1586.03 537.55 1611.74 542.29C1657.27 550.68 1649.36 574.69 1685.29 596C1702.9 606.45 1736.61 609.22 1750.54 623.09C1767.27 639.75 1789.48 660.95 1799.46 682.88C1812.02 710.49 1842.97 740.16 1842 776.74C1836.05 999.38 1467.11 848.44 1463.71 846.93C1460.31 845.42 1292.84 782.03 1294.54 772.97C1296.24 763.91 1374.46 547.31 1374.46 547.31Z" fill="#FFC8C4" stroke="black" stroke-width="18.34" stroke-miterlimit="10"/>
<path d="M1374.46 547.31C1402.49 541.27 1431.98 537.06 1461.95 534.9C1485.35 533.21 1509.62 546.76 1533.13 547.67C1559.98 548.72 1586.03 537.55 1611.74 542.29C1657.27 550.68 1649.36 574.69 1685.29 596C1702.9 606.45 1736.61 609.22 1750.54 623.09C1767.27 639.75 1789.48 660.95 1799.46 682.88C1812.02 710.49 1842.97 740.16 1842 776.74C1836.05 999.38 1467.11 848.44 1463.71 846.93C1460.31 845.42 1292.84 782.03 1294.54 772.97C1296.24 763.91 1374.46 547.31 1374.46 547.31Z" fill="#FF9D97"/>
<path d="M1611.74 542.3C1657.27 550.69 1649.36 574.7 1685.29 596.01C1702.9 606.46 1736.61 609.23 1750.54 623.1C1767.27 639.76 1789.48 660.96 1799.46 682.89C1812.02 710.5 1842.97 740.17 1842 776.75C1836.05 999.39 1467.11 848.45 1463.71 846.94C1460.31 845.43 1292.84 782.04 1294.54 772.98C1296.24 763.92 1666.24 796 1666.24 796C1666.24 796 1864.28 674.92 1611.74 542.31" fill="#FF7B74"/>
<path d="M1374.46 547.31C1402.49 541.27 1431.98 537.06 1461.95 534.9C1485.35 533.21 1509.62 546.76 1533.13 547.67C1559.98 548.72 1586.03 537.55 1611.74 542.29C1657.27 550.68 1649.36 574.69 1685.29 596C1702.9 606.45 1736.61 609.22 1750.54 623.09C1767.27 639.75 1789.48 660.95 1799.46 682.88C1812.02 710.49 1842.97 740.16 1842 776.74C1836.05 999.38 1467.11 848.44 1463.71 846.93C1460.31 845.42 1292.84 782.03 1294.54 772.97C1296.24 763.91 1374.46 547.31 1374.46 547.31Z" stroke="black" stroke-width="18.34" stroke-miterlimit="10"/>
<path d="M1785.81 911.13C1763.85 914.87 1743.39 925.09 1726.98 940.1C1713.4 952.56 1692.8 965.12 1663.36 968.39C1651.31 969.79 1637.83 969.55 1622.71 967.16C1622.61 967.16 1622.47 967.13 1622.37 967.09C1607.09 964.64 1591.32 967.94 1578.8 977.1C1556.23 993.58 1508.37 1012.5 1417.61 988.91C1395.82 983.19 1378.94 974.65 1366.24 964.2C1355.28 955.18 1340.91 951.43 1327.13 954.7L1325.12 955.18C1278.35 966.31 1181.33 979.45 1154.16 906.43C1123.15 823.2 1137.62 709.8 1236.95 715.11C1250.36 715.82 1258.91 701.05 1251.72 689.71C1228.84 653.76 1250.29 621.42 1262.95 602.84C1273.54 587.32 1296.24 579.15 1315.34 578.4C1331.14 577.79 1345.23 568.49 1351.63 554.06C1352.68 551.71 1353.81 549.36 1355.03 547.12C1370.01 519.31 1397.79 499.9 1434.86 499.9C1436.09 499.9 1437.31 499.93 1438.54 499.97C1440.21 500 1441.88 500.11 1443.58 500.24C1444.84 500.34 1446.1 500.48 1447.36 500.61C1448.65 500.75 1449.91 500.92 1451.21 501.09C1451.62 501.16 1452.03 501.23 1452.47 501.29C1453.59 501.46 1454.75 501.63 1455.91 501.87C1456.05 501.87 1456.18 501.9 1456.35 501.97C1457.41 502.14 1458.46 502.34 1459.55 502.58C1460.23 502.72 1460.88 502.85 1461.56 503.02L1462.34 566.54L1536.55 611.2L1552.55 624.58L1600.41 664.61L1635.51 734.12L1708.02 710.8L1729.16 703.99L1731.64 703.21L1759.04 694.39L1774.09 724.18L1777.09 730.1L1817.26 795.89L1862.47 789.37C1862.54 789.64 1862.61 789.88 1862.67 790.15C1862.98 791.34 1863.28 792.53 1863.56 793.72C1863.9 795.15 1864.21 796.58 1864.51 798.01C1864.78 799.37 1865.05 800.7 1865.26 802.03C1876.26 865.45 1835.2 902.62 1785.81 911.1V911.13Z" fill="#FFC8C4"/>
<path d="M1461.56 503.04L1462.34 566.56C1438.58 507.67 1366.78 558.29 1355.04 547.12C1370.02 519.31 1397.8 499.9 1434.87 499.9C1436.1 499.9 1437.32 499.93 1438.55 499.97C1440.22 500 1441.89 500.11 1443.59 500.24C1444.85 500.34 1446.11 500.48 1447.37 500.61C1448.66 500.75 1449.92 500.92 1451.22 501.09C1451.63 501.16 1452.04 501.23 1452.48 501.29C1453.6 501.46 1454.76 501.63 1455.92 501.87C1456.06 501.87 1456.19 501.9 1456.36 501.97C1457.42 502.14 1458.47 502.34 1459.56 502.58C1460.24 502.72 1460.89 502.85 1461.57 503.02L1461.56 503.04Z" fill="#FF9D97"/>
<path d="M1536.55 611.22L1552.55 624.6C1523.89 643.9 1493.96 644.89 1462.34 566.56L1536.55 611.22Z" fill="#FF9D97"/>
<path d="M1785.81 911.13C1763.85 914.87 1743.39 925.09 1726.98 940.1C1713.4 952.56 1692.8 965.12 1663.36 968.39C1670.88 957.19 1676.81 943.51 1676.26 928.02C1674.97 890.1 1818.25 879.2 1792.1 828.69C1772.87 791.55 1773.92 758.05 1777.09 730.14L1817.26 795.93L1862.47 789.41C1862.54 789.68 1862.61 789.92 1862.67 790.19C1862.98 791.38 1863.28 792.57 1863.56 793.76C1863.9 795.19 1864.21 796.62 1864.51 798.05C1864.78 799.41 1865.05 800.74 1865.26 802.07C1876.26 865.49 1835.2 902.66 1785.81 911.14V911.13Z" fill="#FF9D97"/>
<path d="M1373.37 788.45C1403.68 788.45 1482.33 836.07 1434.7 894.52C1434.7 894.52 1554.48 820.92 1373.37 788.45Z" fill="#FF9D97"/>
<path d="M1335.61 793.27C1335.61 793.27 1228.53 883.94 1304.3 955.08C1325.12 955.19 1281.97 833.19 1338.92 813.1L1335.61 793.27Z" fill="#FF9D97"/>
<g style="mix-blend-mode:multiply">
<path d="M1710.41 653.36C1709.63 652.03 1708.88 650.7 1708.06 649.34C1708.95 650.4 1709.73 651.76 1710.41 653.36Z" fill="#FFC8C4"/>
</g>
<g style="mix-blend-mode:multiply">
<path d="M1661.83 766.49C1685.11 764.11 1700.5 738.06 1708.02 710.83L1729.16 704.02L1731.64 703.24C1749.34 777.86 1661.82 766.49 1661.82 766.49H1661.83Z" fill="#FFC8C4"/>
</g>
<path d="M1388.09 635.47C1388.09 635.47 1310.95 726.14 1386.73 797.28C1407.55 797.39 1357.56 684.63 1391.4 655.3L1388.09 635.47Z" fill="#FF9D97"/>
<path d="M1688.72 758.25C1688.72 758.25 1741.48 829.5 1742.62 928.03" stroke="black" stroke-width="18.34" stroke-linecap="round" stroke-linejoin="round"/>
<path d="M1774.1 724.21C1717.62 755.85 1769.58 804.99 1769.58 804.99" stroke="black" stroke-width="18.34" stroke-linecap="round" stroke-linejoin="round"/>
<path d="M1601.89 967.28C1548.64 942.9 1592.92 874.33 1592.92 874.33" stroke="black" stroke-width="18.34" stroke-linecap="round" stroke-linejoin="round"/>
<path d="M1394.98 914.49C1544.75 870.39 1448.57 790.7 1395.87 793.02C1306.79 788.85 1281.31 895.47 1325.59 955.08" stroke="black" stroke-width="18.34" stroke-linecap="round" stroke-linejoin="round"/>
<path d="M1349.24 803.03C1349.24 803.03 1194.06 728.58 1220.46 875.49" stroke="black" stroke-width="18.34" stroke-linecap="round" stroke-linejoin="round"/>
<path d="M1395.87 793.01C1395.87 793.01 1330.84 661.47 1449.44 595.84" stroke="black" stroke-width="18.34" stroke-linecap="round" stroke-linejoin="round"/>
<path d="M1393.64 649.35C1393.64 649.35 1357.22 595.87 1305.09 654.77" stroke="black" stroke-width="18.34" stroke-linecap="round" stroke-linejoin="round"/>
<path d="M1476.32 708.12C1479.48 706.54 1513.35 680.58 1571.53 731.91C1629.71 783.24 1726.78 772.03 1729.16 704.03" stroke="black" stroke-width="18.34" stroke-linecap="round" stroke-linejoin="round"/>
<path d="M1785.81 911.13C1763.85 914.87 1743.39 925.09 1726.98 940.1C1713.4 952.56 1692.8 965.12 1663.36 968.39C1651.31 969.79 1637.83 969.55 1622.71 967.16C1622.61 967.16 1622.47 967.13 1622.37 967.09C1607.09 964.64 1591.32 967.94 1578.8 977.1C1556.23 993.58 1508.37 1012.5 1417.61 988.91C1395.85 983.2 1378.98 974.67 1366.29 964.23C1355.31 955.21 1340.96 951.41 1327.14 954.69L1325.12 955.17C1278.35 966.3 1181.33 979.44 1154.16 906.42C1123.15 823.19 1137.62 709.79 1236.95 715.1C1250.36 715.81 1258.91 701.04 1251.72 689.7C1228.84 653.75 1250.29 621.41 1262.95 602.83C1273.54 587.31 1296.24 579.14 1315.34 578.39C1331.14 577.78 1345.23 568.48 1351.63 554.05C1352.68 551.7 1353.81 549.35 1355.03 547.11C1373.41 512.97 1411.06 491.49 1461.55 503.03L1462.11 548.09C1462.25 559.57 1468.32 570.16 1478.16 576.08L1532.25 608.63C1535.11 610.35 1537.83 612.29 1540.4 614.43L1594.79 659.92C1598.5 663.02 1601.54 666.85 1603.72 671.17L1622.89 709.14C1630.16 723.53 1646.82 730.5 1662.17 725.56L1729.16 704.01L1738.52 701C1750.34 697.2 1763.17 702.57 1768.77 713.65L1774.09 724.19L1797.75 771.02C1807.47 790.27 1829.7 799.65 1850.28 793.2L1862.47 789.38C1881.53 860.53 1838.4 902.09 1785.81 911.11V911.13Z" stroke="black" stroke-width="18.34" stroke-linecap="round" stroke-linejoin="round"/>
<path d="M1513.06 646.779C1529.46 618.279 1525.05 584.983 1503.2 572.41C1481.36 559.837 1450.35 572.749 1433.95 601.25C1417.55 629.75 1421.96 663.047 1443.81 675.619C1465.65 688.192 1496.66 675.28 1513.06 646.779Z" fill="#EA008A" stroke="black" stroke-width="18.34" stroke-linecap="round" stroke-linejoin="round"/>
<path d="M1503.24 572.46L1443.85 675.66" stroke="black" stroke-width="18.34" stroke-linecap="round" stroke-linejoin="round"/>
<path d="M1467.88 600.95C1472.68 600.95 1477.27 596.73 1477.05 591.78C1476.83 586.83 1473.02 582.61 1467.88 582.61C1463.08 582.61 1458.49 586.83 1458.71 591.78C1458.93 596.73 1462.74 600.95 1467.88 600.95Z" fill="black"/>
<path d="M1470.92 625.19C1475.72 625.19 1480.31 620.97 1480.09 616.02C1479.87 611.07 1476.06 606.85 1470.92 606.85C1466.12 606.85 1461.53 611.07 1461.75 616.02C1461.97 620.97 1465.78 625.19 1470.92 625.19Z" fill="black"/>
<path d="M1445.58 636.15C1450.38 636.15 1454.97 631.93 1454.75 626.98C1454.53 622.03 1450.72 617.81 1445.58 617.81C1440.78 617.81 1436.19 622.03 1436.41 626.98C1436.63 631.93 1440.44 636.15 1445.58 636.15Z" fill="black"/>
<path d="M1504.13 621.82C1508.93 621.82 1513.52 617.6 1513.3 612.65C1513.08 607.7 1509.27 603.48 1504.13 603.48C1499.33 603.48 1494.74 607.7 1494.96 612.65C1495.18 617.6 1498.99 621.82 1504.13 621.82Z" fill="black"/>
<path d="M1481.65 631.36C1486.45 631.36 1491.04 627.14 1490.82 622.19C1490.6 617.24 1486.79 613.02 1481.65 613.02C1476.85 613.02 1472.26 617.24 1472.48 622.19C1472.7 627.14 1476.51 631.36 1481.65 631.36Z" fill="black"/>
<path d="M1484.9 658.77C1489.7 658.77 1494.29 654.55 1494.07 649.6C1493.85 644.65 1490.04 640.43 1484.9 640.43C1480.1 640.43 1475.51 644.65 1475.73 649.6C1475.95 654.55 1479.76 658.77 1484.9 658.77Z" fill="black"/>
<path d="M1860.74 851.567C1884.69 843.715 1895.8 812.019 1885.56 780.772C1875.32 749.525 1847.59 730.56 1823.64 738.412C1799.69 746.264 1788.58 777.96 1798.82 809.206C1809.06 840.453 1836.78 859.419 1860.74 851.567Z" fill="#EA008A" stroke="black" stroke-width="18.34" stroke-linecap="round" stroke-linejoin="round"/>
<path d="M1823.63 738.52L1860.72 851.67" stroke="black" stroke-width="18.34" stroke-linecap="round" stroke-linejoin="round"/>
<path d="M1814.37 786.91C1819.17 786.91 1823.76 782.69 1823.54 777.74C1823.32 772.79 1819.51 768.57 1814.37 768.57C1809.57 768.57 1804.98 772.79 1805.2 777.74C1805.42 782.69 1809.23 786.91 1814.37 786.91Z" fill="black"/>
<path d="M1834.44 800.84C1839.24 800.84 1843.83 796.62 1843.61 791.67C1843.39 786.72 1839.58 782.5 1834.44 782.5C1829.64 782.5 1825.05 786.72 1825.27 791.67C1825.49 796.62 1829.3 800.84 1834.44 800.84Z" fill="black"/>
<path d="M1825.66 827.01C1830.46 827.01 1835.05 822.79 1834.83 817.84C1834.61 812.89 1830.8 808.67 1825.66 808.67C1820.86 808.67 1816.27 812.89 1816.49 817.84C1816.71 822.79 1820.52 827.01 1825.66 827.01Z" fill="black"/>
<path d="M1854.12 773.88C1858.92 773.88 1863.51 769.66 1863.29 764.71C1863.07 759.76 1859.26 755.54 1854.12 755.54C1849.32 755.54 1844.73 759.76 1844.95 764.71C1845.17 769.66 1848.98 773.88 1854.12 773.88Z" fill="black"/>
<path d="M1846.19 796.99C1850.99 796.99 1855.58 792.77 1855.36 787.82C1855.14 782.87 1851.33 778.65 1846.19 778.65C1841.39 778.65 1836.8 782.87 1837.02 787.82C1837.24 792.77 1841.05 796.99 1846.19 796.99Z" fill="black"/>
<path d="M1868.76 812.89C1873.56 812.89 1878.15 808.67 1877.93 803.72C1877.71 798.77 1873.9 794.55 1868.76 794.55C1863.96 794.55 1859.37 798.77 1859.59 803.72C1859.81 808.67 1863.62 812.89 1868.76 812.89Z" fill="black"/>
</g>
</g>
<defs>
<clipPath id="clip0_1_246">
<rect width="2000" height="2000" fill="white"/>
</clipPath>
</defs>
</svg>
