<svg width="2000" height="2000" viewBox="0 0 2000 2000" fill="none" xmlns="http://www.w3.org/2000/svg">
<g clip-path="url(#clip0_28_505)">
<mask id="mask0_28_505" style="mask-type:luminance" maskUnits="userSpaceOnUse" x="0" y="0" width="2000" height="2000">
<path d="M2000 0H0V2000H2000V0Z" fill="white"/>
</mask>
<g mask="url(#mask0_28_505)">
<path d="M1787.36 1104.08H1258.5C1222.58 1104.08 1199.3 1066.18 1215.54 1034.14L1278.51 909.9C1286.72 893.71 1303.32 883.51 1321.47 883.51H1724.38C1742.53 883.51 1759.13 893.71 1767.34 909.9L1830.31 1034.14C1846.55 1066.18 1823.27 1104.08 1787.35 1104.08H1787.36Z" fill="#DF5C00" stroke="black" stroke-width="18.34" stroke-linecap="round" stroke-linejoin="round"/>
<path d="M1456.53 1068.75C1745.57 1082.31 1784.85 1001.52 1787.42 949.5C1760.25 928.85 1710.07 926.62 1710.07 926.62L1278.52 909.91L1296.83 931.69C1296.83 931.69 1294.37 1061.14 1456.53 1068.75Z" fill="#D34100"/>
<path d="M1787.36 1104.08H1258.5C1222.58 1104.08 1199.3 1066.18 1215.54 1034.14L1278.51 909.9C1286.72 893.71 1303.32 883.51 1321.47 883.51H1724.38C1742.53 883.51 1759.13 893.71 1767.34 909.9L1830.31 1034.14C1846.55 1066.18 1823.27 1104.08 1787.35 1104.08H1787.36Z" stroke="black" stroke-width="18.34" stroke-linecap="round" stroke-linejoin="round"/>
<path d="M1748.96 707.24C1748.96 707.24 1668.91 931.69 1520.88 976.12C1520.88 976.12 1881.08 1050.64 1748.96 707.24Z" fill="#0B5600" stroke="black" stroke-width="18.34" stroke-linecap="round" stroke-linejoin="round"/>
<path d="M1748.96 707.24C1748.96 707.24 1668.91 931.69 1520.88 976.12C1520.88 976.12 1881.08 1050.64 1748.96 707.24Z" stroke="black" stroke-width="18.34" stroke-linecap="round" stroke-linejoin="round"/>
<path d="M1513.08 984.38C1513.08 984.38 1346.33 926.63 1309.31 768.8C1309.31 768.8 1178.03 1069.09 1513.08 984.38Z" stroke="black" stroke-width="18.34" stroke-linecap="round" stroke-linejoin="round"/>
<path d="M1513.08 984.38C1513.08 984.38 1346.33 926.63 1309.31 768.8C1309.31 768.8 1178.03 1069.09 1513.08 984.38Z" fill="#068500"/>
<path d="M1513.08 984.38C1513.08 984.38 1346.33 926.63 1309.31 768.8C1309.31 768.8 1178.03 1069.09 1513.08 984.38Z" stroke="black" stroke-width="18.34" stroke-linecap="round" stroke-linejoin="round"/>
<path d="M1501.82 346.24L1310.32 962.65C1306.5 974.96 1313.93 987.93 1326.51 990.78C1359.47 998.25 1369.69 1018.94 1522.94 1024.77C1663.42 1030.11 1671.89 1013.87 1719.32 990.72C1730.92 985.06 1739.39 974.91 1735.55 962.58L1544.07 346.24C1537.63 325.5 1508.27 325.5 1501.82 346.24Z" fill="#FF6A00" stroke="black" stroke-width="18.34" stroke-linecap="round" stroke-linejoin="round"/>
<path d="M1462.12 474.03C1532.27 150.36 1693.94 920.46 1608.67 987.02C1579.11 1010.09 1576.67 1040.48 1658.83 989.87C1740.98 939.25 1727.25 904.82 1676.92 773.84C1626.59 611.84 1555.21 382.09 1549.64 364.16C1544.07 346.23 1521.73 299.99 1487.32 392.91C1470.74 446.29 1462.12 474.02 1462.12 474.02V474.03Z" fill="#D34100"/>
<path d="M1564.13 410.81C1555.86 415.19 1541.84 418.08 1525.94 418.08" stroke="black" stroke-width="18.34" stroke-linecap="round" stroke-linejoin="round"/>
<path d="M1565.93 508.04C1554.51 510.8 1540.75 512.41 1525.93 512.41C1508.63 512.41 1492.76 510.22 1480.39 506.56" stroke="black" stroke-width="18.34" stroke-linecap="round" stroke-linejoin="round"/>
<path d="M1594.58 596.58C1577.01 602.86 1552.75 606.74 1525.94 606.74C1509.48 606.74 1493.98 605.28 1480.4 602.69" stroke="black" stroke-width="18.34" stroke-linecap="round" stroke-linejoin="round"/>
<path d="M1407.16 668.14C1420.69 687.07 1468.74 701.07 1525.93 701.07C1559.87 701.07 1590.58 696.14 1612.78 688.18" stroke="black" stroke-width="18.34" stroke-linecap="round" stroke-linejoin="round"/>
<path d="M1612.78 785.34C1588.38 791.66 1558.37 795.39 1525.93 795.39" stroke="black" stroke-width="18.34" stroke-linecap="round" stroke-linejoin="round"/>
<path d="M1635.72 875.75C1605.8 884.49 1567.58 889.72 1525.93 889.72C1458.59 889.72 1400.21 876.02 1371.42 856" stroke="black" stroke-width="18.34" stroke-linecap="round" stroke-linejoin="round"/>
<path d="M1522.12 1041.57C1522.12 1041.57 1374.75 882.33 1309.3 875.75C1309.3 875.75 1219.23 1069.04 1522.12 1041.57Z" stroke="black" stroke-width="18.34" stroke-linecap="round" stroke-linejoin="round"/>
<path d="M1501.82 346.24L1310.32 962.65C1306.5 974.96 1313.93 987.93 1326.51 990.78C1359.47 998.25 1369.69 1018.94 1522.94 1024.77C1663.42 1030.11 1671.89 1013.87 1719.32 990.72C1730.92 985.06 1739.39 974.91 1735.55 962.58L1544.07 346.24C1537.63 325.5 1508.27 325.5 1501.82 346.24Z" stroke="black" stroke-width="18.34" stroke-linecap="round" stroke-linejoin="round"/>
<path d="M1501.82 346.24L1310.32 962.65C1306.5 974.96 1313.93 987.93 1326.51 990.78C1359.47 998.25 1369.69 1018.94 1522.94 1024.77C1663.42 1030.11 1671.89 1013.87 1719.32 990.72C1730.92 985.06 1739.39 974.91 1735.55 962.58L1544.07 346.24C1537.63 325.5 1508.27 325.5 1501.82 346.24Z" stroke="black" stroke-width="18.34" stroke-linecap="round" stroke-linejoin="round"/>
<path d="M1525.93 1046.06C1525.93 1046.06 1754.77 926.72 1747.58 817.32C1747.58 817.32 1908.2 1011.26 1525.93 1046.06Z" fill="#068500" stroke="black" stroke-width="18.34" stroke-linecap="round" stroke-linejoin="round"/>
<path d="M1522.12 1041.57C1522.12 1041.57 1374.75 882.33 1309.3 875.75C1309.3 875.75 1219.23 1069.04 1522.12 1041.57Z" fill="#068500" stroke="black" stroke-width="18.34" stroke-linecap="round" stroke-linejoin="round"/>
<path d="M1772.16 934.3C1719.31 990.72 1612.05 1015.66 1532.22 1045.43C1704.23 1028.7 1766.44 1002.6 1772.16 934.3Z" fill="#0B5600"/>
<path d="M1525.93 1046.06C1525.93 1046.06 1754.77 926.72 1747.58 817.32C1747.58 817.32 1908.2 1011.26 1525.93 1046.06Z" stroke="black" stroke-width="18.34" stroke-linecap="round" stroke-linejoin="round"/>
<path d="M1522.12 1041.57C1522.12 1041.57 1374.75 882.33 1309.3 875.75C1309.3 875.75 1219.23 1069.04 1522.12 1041.57Z" stroke="black" stroke-width="18.34" stroke-linecap="round" stroke-linejoin="round"/>
<path d="M1450.28 838.89C1450.28 838.89 1514.17 1025.93 1604.42 1038.44C1604.42 1038.44 1422.84 1124.59 1450.28 838.89Z" fill="#068500" stroke="black" stroke-width="18.34" stroke-linecap="round" stroke-linejoin="round"/>
</g>
</g>
<defs>
<clipPath id="clip0_28_505">
<rect width="2000" height="2000" fill="white"/>
</clipPath>
</defs>
</svg>
