<svg width="2000" height="2000" viewBox="0 0 2000 2000" fill="none" xmlns="http://www.w3.org/2000/svg">
<g clip-path="url(#clip0_28_635)">
<mask id="mask0_28_635" style="mask-type:luminance" maskUnits="userSpaceOnUse" x="0" y="0" width="2000" height="2000">
<path d="M2000 0H0V2000H2000V0Z" fill="white"/>
</mask>
<g mask="url(#mask0_28_635)">
<path d="M1176.08 633.83L1132.32 619.36C1098.97 608.33 1062.97 626.33 1051.78 659.63C1040.31 693.76 1059.33 730.62 1093.79 741.05L1160.45 761.22" fill="url(#paint0_linear_28_635)"/>
<path d="M1176.08 633.83L1132.32 619.36C1098.97 608.33 1062.97 626.33 1051.78 659.63C1040.31 693.76 1059.33 730.62 1093.79 741.05L1160.45 761.22" stroke="black" stroke-width="18.34" stroke-miterlimit="10"/>
<path d="M1597.61 742.73C1597.61 745.11 1597.57 747.5 1597.5 749.88C1591.56 724.86 1579.41 701.78 1566.98 680.25C1548.97 649.1 1528.02 618.14 1496.87 600.09C1466.71 582.63 1429.8 579.51 1392.42 579.51C1355.04 579.51 1318.16 582.63 1287.97 600.13C1256.82 618.14 1235.87 649.11 1217.86 680.26C1200.4 710.45 1183.56 743.66 1183.56 781.04C1183.56 818.42 1200.4 851.63 1217.86 881.78C1235.87 912.93 1256.82 943.93 1287.97 961.94C1318.16 979.4 1355.04 982.56 1392.42 982.56C1393.78 982.56 1395.13 982.56 1396.49 982.52C1382.73 984.98 1368.57 986.23 1354.12 986.23C1219.66 986.23 1110.66 877.19 1110.66 742.73C1110.66 608.27 1219.66 499.23 1354.12 499.23C1488.58 499.23 1597.62 608.23 1597.62 742.73H1597.61Z" fill="url(#paint1_linear_28_635)"/>
<path d="M1597.5 749.88C1594.13 866.69 1508.5 962.89 1396.49 982.52C1395.13 982.56 1393.78 982.56 1392.42 982.56C1355.04 982.56 1318.16 979.41 1287.97 961.94C1256.82 943.93 1235.87 912.92 1217.86 881.78C1200.4 851.62 1183.56 818.42 1183.56 781.04C1183.56 743.66 1200.4 710.45 1217.86 680.26C1235.87 649.11 1256.82 618.15 1287.97 600.13C1318.16 582.63 1355.04 579.51 1392.42 579.51C1429.8 579.51 1466.71 582.63 1496.87 600.09C1528.02 618.14 1548.97 649.11 1566.98 680.25C1579.42 701.79 1591.56 724.86 1597.5 749.88Z" fill="#FFD899" stroke="black" stroke-width="18.34" stroke-linecap="round" stroke-linejoin="round"/>
<path d="M1390.52 860.56C1442.05 860.56 1483.82 818.788 1483.82 767.26C1483.82 715.732 1442.05 673.96 1390.52 673.96C1338.99 673.96 1297.22 715.732 1297.22 767.26C1297.22 818.788 1338.99 860.56 1390.52 860.56Z" fill="#28A8E0"/>
<path d="M1597.61 742.73C1597.61 745.11 1597.57 747.5 1597.5 749.88C1591.56 724.86 1579.41 701.78 1566.98 680.25C1548.97 649.1 1528.02 618.14 1496.87 600.09C1466.71 582.63 1429.8 579.51 1392.42 579.51C1355.04 579.51 1318.16 582.63 1287.97 600.13C1256.82 618.14 1235.87 649.11 1217.86 680.26C1200.4 710.45 1183.56 743.66 1183.56 781.04C1183.56 818.42 1200.4 851.63 1217.86 881.78C1235.87 912.93 1256.82 943.93 1287.97 961.94C1318.16 979.4 1355.04 982.56 1392.42 982.56C1393.78 982.56 1395.13 982.56 1396.49 982.52C1382.73 984.98 1368.57 986.23 1354.12 986.23C1219.66 986.23 1110.66 877.19 1110.66 742.73C1110.66 608.27 1219.66 499.23 1354.12 499.23C1488.58 499.23 1597.62 608.23 1597.62 742.73H1597.61Z" stroke="black" stroke-width="18.34" stroke-linecap="round" stroke-linejoin="round"/>
<path d="M1597.5 749.88C1594.13 866.69 1508.5 962.89 1396.49 982.52C1395.13 982.56 1393.78 982.56 1392.42 982.56C1355.04 982.56 1318.16 979.41 1287.97 961.94C1256.82 943.93 1235.87 912.92 1217.86 881.78C1200.4 851.62 1183.56 818.42 1183.56 781.04C1183.56 743.66 1200.4 710.45 1217.86 680.26C1235.87 649.11 1256.82 618.15 1287.97 600.13C1318.16 582.63 1355.04 579.51 1392.42 579.51C1429.8 579.51 1466.71 582.63 1496.87 600.09C1528.02 618.14 1548.97 649.11 1566.98 680.25C1579.42 701.79 1591.56 724.86 1597.5 749.88Z" stroke="black" stroke-width="18.34" stroke-linecap="round" stroke-linejoin="round"/>
<path d="M1390.52 860.56C1442.05 860.56 1483.82 818.788 1483.82 767.26C1483.82 715.732 1442.05 673.96 1390.52 673.96C1338.99 673.96 1297.22 715.732 1297.22 767.26C1297.22 818.788 1338.99 860.56 1390.52 860.56Z" stroke="black" stroke-width="18.34" stroke-linecap="round" stroke-linejoin="round"/>
<path d="M1448.84 755.2C1458.24 734.85 1464.91 729.35 1439.48 720.94C1414.05 712.53 1348.52 665.01 1315.36 711.98C1282.21 758.95 1298.3 811.38 1335.05 814.05C1380.08 827.68 1431.05 869.15 1435.46 814.05C1438.4 772.66 1448.83 755.2 1448.83 755.2H1448.84Z" fill="url(#paint2_linear_28_635)"/>
<path d="M1390.52 860.55C1338.99 860.55 1297.22 818.78 1297.22 767.25C1297.22 715.72 1338.99 673.95 1390.52 673.95" stroke="black" stroke-width="18.34" stroke-linecap="round" stroke-linejoin="round"/>
<path d="M1917.95 846.88C1917.95 849.26 1917.91 851.65 1917.84 854.03C1911.9 829.01 1899.75 805.93 1887.32 784.4C1869.31 753.25 1848.36 722.29 1817.21 704.24C1787.05 686.78 1750.14 683.66 1712.76 683.66C1675.38 683.66 1638.5 686.78 1608.31 704.28C1577.16 722.29 1556.21 753.26 1538.2 784.41C1520.74 814.6 1503.9 847.81 1503.9 885.19C1503.9 922.57 1520.74 955.78 1538.2 985.93C1556.21 1017.08 1577.16 1048.08 1608.31 1066.09C1638.5 1083.55 1675.38 1086.71 1712.76 1086.71C1714.12 1086.71 1715.47 1086.71 1716.83 1086.67C1703.07 1089.13 1688.91 1090.38 1674.46 1090.38C1540 1090.38 1431 981.34 1431 846.88C1431 712.42 1540 603.38 1674.46 603.38C1808.92 603.38 1917.96 712.38 1917.96 846.88H1917.95Z" fill="#FFD899" stroke="black" stroke-width="18.34" stroke-linecap="round" stroke-linejoin="round"/>
<path d="M1917.84 854.04C1914.47 970.85 1828.84 1067.05 1716.83 1086.68C1715.47 1086.72 1714.12 1086.72 1712.76 1086.72C1675.38 1086.72 1638.5 1083.57 1608.31 1066.1C1577.16 1048.09 1556.21 1017.08 1538.2 985.94C1520.74 955.78 1503.9 922.58 1503.9 885.2C1503.9 847.82 1520.74 814.61 1538.2 784.42C1556.21 753.27 1577.16 722.31 1608.31 704.29C1638.5 686.79 1675.38 683.67 1712.76 683.67C1750.14 683.67 1787.05 686.79 1817.21 704.25C1848.36 722.3 1869.31 753.27 1887.32 784.41C1899.76 805.95 1911.9 829.02 1917.84 854.04Z" fill="url(#paint3_linear_28_635)"/>
<path d="M1738.51 687.34C1714.91 705.87 1681.74 721.07 1652.62 742.3C1624.24 762.99 1599.89 789.73 1575.22 808.57C1529.26 843.67 1493.15 871.94 1503.92 878.97C1519.15 888.92 1559.11 865.52 1604.38 840.82C1634.91 824.16 1671.59 810.44 1701.38 792.85C1752.72 762.54 1796.11 736.03 1798.29 751.26C1801.7 775.08 1766.58 806.96 1728.82 842.07C1701.15 867.8 1673.63 899.6 1645.87 922.85C1594.14 966.17 1556.17 999.78 1596.7 998.61C1633.36 997.55 1672.02 970.36 1711.61 943.24C1747.36 918.75 1786.58 894.64 1816.27 868.76C1873.63 818.77 1913.41 781.72 1904.32 829.75C1898.23 861.91 1868.48 895.88 1836.55 931.85C1810.38 961.33 1783.44 995.44 1750.64 1020.12C1714.31 1047.46 1673.3 1063.49 1641.34 1076.37" stroke="white" stroke-width="11.01" stroke-linecap="round" stroke-linejoin="round"/>
<path d="M1710.87 964.71C1762.4 964.71 1804.17 922.938 1804.17 871.41C1804.17 819.882 1762.4 778.11 1710.87 778.11C1659.34 778.11 1617.57 819.882 1617.57 871.41C1617.57 922.938 1659.34 964.71 1710.87 964.71Z" fill="#28A8E0"/>
<path d="M1429.48 842.62L1305.2 805.01" stroke="black" stroke-width="18.34" stroke-linecap="round" stroke-linejoin="round"/>
<path d="M1340.83 688.31L1461.77 728.31" stroke="black" stroke-width="18.34" stroke-linecap="round" stroke-linejoin="round"/>
<path d="M1917.95 846.88C1917.95 849.26 1917.91 851.65 1917.84 854.03C1911.9 829.01 1899.75 805.93 1887.32 784.4C1869.31 753.25 1848.36 722.29 1817.21 704.24C1787.05 686.78 1750.14 683.66 1712.76 683.66C1675.38 683.66 1638.5 686.78 1608.31 704.28C1577.16 722.29 1556.21 753.26 1538.2 784.41C1520.74 814.6 1503.9 847.81 1503.9 885.19C1503.9 922.57 1520.74 955.78 1538.2 985.93C1556.21 1017.08 1577.16 1048.08 1608.31 1066.09C1638.5 1083.55 1675.38 1086.71 1712.76 1086.71C1714.12 1086.71 1715.47 1086.71 1716.83 1086.67C1703.07 1089.13 1688.91 1090.38 1674.46 1090.38C1540 1090.38 1431 981.34 1431 846.88C1431 712.42 1540 603.38 1674.46 603.38C1808.92 603.38 1917.96 712.38 1917.96 846.88H1917.95Z" stroke="black" stroke-width="18.34" stroke-linecap="round" stroke-linejoin="round"/>
<path d="M1917.84 854.04C1914.47 970.85 1828.84 1067.05 1716.83 1086.68C1715.47 1086.72 1714.12 1086.72 1712.76 1086.72C1675.38 1086.72 1638.5 1083.57 1608.31 1066.1C1577.16 1048.09 1556.21 1017.08 1538.2 985.94C1520.74 955.78 1503.9 922.58 1503.9 885.2C1503.9 847.82 1520.74 814.61 1538.2 784.42C1556.21 753.27 1577.16 722.31 1608.31 704.29C1638.5 686.79 1675.38 683.67 1712.76 683.67C1750.14 683.67 1787.05 686.79 1817.21 704.25C1848.36 722.3 1869.31 753.27 1887.32 784.41C1899.76 805.95 1911.9 829.02 1917.84 854.04Z" stroke="black" stroke-width="18.34" stroke-linecap="round" stroke-linejoin="round"/>
<path d="M1710.87 964.71C1762.4 964.71 1804.17 922.938 1804.17 871.41C1804.17 819.882 1762.4 778.11 1710.87 778.11C1659.34 778.11 1617.57 819.882 1617.57 871.41C1617.57 922.938 1659.34 964.71 1710.87 964.71Z" stroke="black" stroke-width="18.34" stroke-miterlimit="10"/>
<path d="M1685.13 803.02C1759.66 827.27 1801.9 845.5 1814.13 849.95C1826.35 854.4 1870.23 859.45 1874.89 890.52C1879.56 921.6 1868.97 971.97 1804.17 956.97C1739.36 941.98 1617.58 911.05 1617.58 891.22C1617.58 871.39 1624.66 774.29 1685.13 803.01V803.02Z" fill="url(#paint4_linear_28_635)"/>
<path d="M1659.33 793.64L1843.26 860.55C1870.14 869.6 1884.75 898.58 1876.06 925.57C1867.33 952.68 1838.37 967.67 1811.19 959.14L1622.37 900.99" stroke="black" stroke-width="18.34" stroke-linecap="round" stroke-linejoin="round"/>
<path d="M1710.87 964.7C1659.34 964.7 1617.57 922.93 1617.57 871.4C1617.57 819.87 1659.34 778.1 1710.87 778.1" stroke="black" stroke-width="18.34" stroke-miterlimit="10"/>
</g>
</g>
<defs>
<linearGradient id="paint0_linear_28_635" x1="1048.45" y1="688.67" x2="1176.08" y2="688.67" gradientUnits="userSpaceOnUse">
<stop stop-color="#00EEC9"/>
<stop offset="1" stop-color="#FFC700"/>
</linearGradient>
<linearGradient id="paint1_linear_28_635" x1="1110.65" y1="742.73" x2="1597.61" y2="742.73" gradientUnits="userSpaceOnUse">
<stop stop-color="#FF0029"/>
<stop offset="1" stop-color="#FDA900"/>
</linearGradient>
<linearGradient id="paint2_linear_28_635" x1="1297.34" y1="766.7" x2="1457.24" y2="766.7" gradientUnits="userSpaceOnUse">
<stop stop-color="#00EEC9"/>
<stop offset="1" stop-color="#FFC700"/>
</linearGradient>
<linearGradient id="paint3_linear_28_635" x1="1503.89" y1="885.18" x2="1917.84" y2="885.18" gradientUnits="userSpaceOnUse">
<stop stop-color="#FF0029"/>
<stop offset="1" stop-color="#FDA900"/>
</linearGradient>
<linearGradient id="paint4_linear_28_635" x1="1617.57" y1="878.73" x2="1875.85" y2="878.73" gradientUnits="userSpaceOnUse">
<stop stop-color="#00EEC9"/>
<stop offset="1" stop-color="#FFC700"/>
</linearGradient>
<clipPath id="clip0_28_635">
<rect width="2000" height="2000" fill="white"/>
</clipPath>
</defs>
</svg>
