<svg width="2000" height="2000" viewBox="0 0 2000 2000" fill="none" xmlns="http://www.w3.org/2000/svg">
<g clip-path="url(#clip0_25_63)">
<mask id="mask0_25_63" style="mask-type:luminance" maskUnits="userSpaceOnUse" x="0" y="0" width="2000" height="2000">
<path d="M2000 0H0V2000H2000V0Z" fill="white"/>
</mask>
<g mask="url(#mask0_25_63)">
<path d="M1343.88 733.44L1299.68 854.26L1412.41 944.87L1494.88 939.34L1560.51 763.38C1560.51 763.38 1469.59 698.05 1466.7 697.18C1463.82 696.31 1408.65 687.6 1399.21 688.47C1389.77 689.34 1343.87 733.43 1343.87 733.43L1343.88 733.44Z" fill="url(#paint0_linear_25_63)" stroke="black" stroke-width="18.34" stroke-linecap="round" stroke-linejoin="round"/>
<path d="M1350.44 837.82L1433.98 888.55L1379.2 966.18C1391.27 987.06 1399.23 1000.01 1399.23 1000.01H1534.2C1534.2 1000.01 1669.28 780.76 1669.28 689.48C1669.28 577.62 1578.59 486.89 1466.69 486.89C1354.83 486.89 1264.1 577.62 1264.1 689.48C1264.1 697.62 1265.16 706.8 1267.14 716.74L1386.17 772.05L1350.42 837.82H1350.44Z" fill="url(#paint1_linear_25_63)" stroke="black" stroke-width="18.34" stroke-linecap="round" stroke-linejoin="round"/>
<path d="M1518.35 1057.3H1415.06C1406.32 1057.3 1399.22 1050.2 1399.22 1041.46V1000H1534.19V1041.46C1534.19 1050.2 1527.09 1057.3 1518.35 1057.3Z" fill="url(#paint2_linear_25_63)" stroke="black" stroke-width="18.34" stroke-linecap="round" stroke-linejoin="round"/>
<path d="M1380.11 590.79L1587.84 626.48C1601.2 628.78 1613.42 618.48 1613.42 604.92V602.08C1613.42 591.43 1605.75 582.33 1595.25 580.52L1387.52 544.83C1374.16 542.53 1361.94 552.83 1361.94 566.39V569.23C1361.94 579.88 1369.61 588.98 1380.11 590.79Z" fill="white" stroke="black" stroke-width="18.34" stroke-linecap="round" stroke-linejoin="round"/>
<path d="M1553.15 620.51L1419.33 597.52C1418.26 577.4 1420.68 555.48 1427.06 533.75C1445.74 470.21 1491.24 432.42 1528.7 449.34C1566.15 466.26 1581.37 531.48 1562.69 595.01C1560.03 604.07 1556.8 612.58 1553.15 620.51Z" fill="#FDEA00" stroke="black" stroke-width="18.34" stroke-linecap="round" stroke-linejoin="round"/>
<path d="M1530.85 616.68L1433.98 600.04C1435.15 589.46 1437.7 578.48 1441.74 567.65C1457.72 524.79 1490.81 500.56 1515.64 513.53C1540.47 526.5 1547.64 571.76 1531.66 614.62C1531.4 615.32 1531.12 616 1530.85 616.69V616.68Z" fill="#FD8900"/>
<path d="M1553.15 620.51L1419.33 597.52C1418.26 577.4 1420.68 555.48 1427.06 533.75C1445.74 470.21 1491.24 432.42 1528.7 449.34C1566.15 466.26 1581.37 531.48 1562.69 595.01C1560.03 604.07 1556.8 612.58 1553.15 620.51Z" stroke="black" stroke-width="18.34" stroke-linecap="round" stroke-linejoin="round"/>
<path d="M1590.11 831.46L1573.2 891.07C1572.89 892.16 1572.14 893.08 1571.13 893.6L1542.39 908.49C1539.5 909.99 1539.41 914.08 1542.23 915.71L1570.26 931.87C1571.25 932.44 1571.96 933.4 1572.22 934.51L1586.4 996.16C1587.36 1000.32 1593.23 1000.45 1594.38 996.34L1611.32 935.39C1611.63 934.29 1612.38 933.36 1613.39 932.84L1642.12 917.96C1645.01 916.46 1645.1 912.37 1642.28 910.74L1614.24 894.57C1613.26 894 1612.55 893.05 1612.29 891.95L1598.08 831.64C1597.11 827.51 1591.27 827.38 1590.12 831.46H1590.11Z" fill="white"/>
<path d="M1692.55 522.37L1683.05 555.86C1682.88 556.47 1682.46 556.99 1681.89 557.28L1665.75 565.64C1664.13 566.48 1664.08 568.78 1665.66 569.7L1681.41 578.78C1681.97 579.1 1682.36 579.64 1682.51 580.26L1690.48 614.89C1691.02 617.23 1694.32 617.3 1694.96 614.99L1704.48 580.75C1704.65 580.13 1705.07 579.61 1705.64 579.32L1721.78 570.96C1723.4 570.12 1723.45 567.82 1721.87 566.9L1706.12 557.82C1705.57 557.5 1705.17 556.97 1705.02 556.35L1697.04 522.47C1696.49 520.15 1693.22 520.08 1692.57 522.37H1692.55Z" fill="white"/>
<path d="M1241.53 613.4L1234.49 638.22C1234.36 638.67 1234.05 639.06 1233.63 639.27L1221.66 645.47C1220.46 646.09 1220.42 647.8 1221.59 648.48L1233.26 655.21C1233.67 655.45 1233.97 655.85 1234.07 656.31L1239.98 681.98C1240.38 683.71 1242.82 683.77 1243.3 682.05L1250.35 656.67C1250.48 656.21 1250.79 655.83 1251.21 655.61L1263.17 649.41C1264.37 648.79 1264.41 647.08 1263.24 646.4L1251.56 639.67C1251.15 639.43 1250.86 639.04 1250.75 638.58L1244.83 613.47C1244.42 611.75 1242 611.7 1241.51 613.4H1241.53Z" fill="white"/>
</g>
</g>
<defs>
<linearGradient id="paint0_linear_25_63" x1="1560.51" y1="816.65" x2="1299.68" y2="816.65" gradientUnits="userSpaceOnUse">
<stop stop-color="#F0B700"/>
<stop offset="1" stop-color="white"/>
</linearGradient>
<linearGradient id="paint1_linear_25_63" x1="1669.29" y1="743.45" x2="1264.11" y2="743.45" gradientUnits="userSpaceOnUse">
<stop stop-color="#FFD899"/>
<stop offset="1" stop-color="white"/>
</linearGradient>
<linearGradient id="paint2_linear_25_63" x1="1534.19" y1="1028.65" x2="1399.22" y2="1028.65" gradientUnits="userSpaceOnUse">
<stop offset="0.01" stop-color="white"/>
<stop offset="1" stop-color="#00CFAF"/>
</linearGradient>
<clipPath id="clip0_25_63">
<rect width="2000" height="2000" fill="white"/>
</clipPath>
</defs>
</svg>
