<svg width="2000" height="2000" viewBox="0 0 2000 2000" fill="none" xmlns="http://www.w3.org/2000/svg">
<g clip-path="url(#clip0_356_128)">
<mask id="mask0_356_128" style="mask-type:luminance" maskUnits="userSpaceOnUse" x="0" y="0" width="2000" height="2000">
<path d="M2000 0H0V2000H2000V0Z" fill="white"/>
</mask>
<g mask="url(#mask0_356_128)">
<path opacity="0.44" d="M1331.04 640.86L1393.97 1024.64C1393.97 1024.64 1415.31 1049.11 1514.55 1049.02C1622.45 1048.93 1632.94 1024.64 1632.94 1024.64L1692.31 651.8L1331.04 640.86Z" fill="#E0FBFF"/>
<path d="M1617.37 893.55C1617.37 887.35 1570.98 909.45 1514.1 909.45C1457.22 909.45 1399.72 887.12 1399.72 893.32L1408.68 946.88L1409.15 949.51L1416.93 996.93C1416.93 996.93 1433.83 1016.31 1512.44 1016.25C1597.91 1016.18 1606.22 996.93 1606.22 996.93L1614.19 946.88C1619.89 895.71 1620.41 895.54 1619.89 895.71" fill="#EF0403"/>
<path d="M1613.42 896.78L1613.65 895.21L1612.13 895.62C1612.65 895.44 1613.16 895.26 1613.67 895.09L1613.65 895.22L1614.14 895.09C1614.07 888.89 1569.98 867.93 1513.1 868.56C1456.22 869.19 1408.1 891.18 1408.17 897.38L1408.28 897.96C1478.33 923.31 1546.51 911.23 1613.42 896.79V896.78Z" fill="#FF7676"/>
<path d="M1331.04 640.86L1391.61 1010.28C1393.38 1021.05 1400.48 1030.27 1410.58 1034.44C1427.07 1041.24 1458.3 1049.08 1514.55 1049.04C1569.72 1048.99 1599.43 1042.62 1615.28 1036.4C1625.76 1032.29 1633.22 1022.91 1634.99 1011.8L1692.31 651.82L1331.04 640.88V640.86Z" stroke="black" stroke-width="18.34" stroke-linecap="round" stroke-linejoin="round"/>
<path d="M1619.89 895.71L1606.71 994.31C1606.71 994.31 1598.39 1013.56 1512.93 1013.63C1434.32 1013.69 1417.42 994.31 1417.42 994.31L1408.19 892.24C1408.19 892.24 1507.87 938.81 1619.9 895.71H1619.89Z" stroke="black" stroke-width="18.34" stroke-linecap="round" stroke-linejoin="round"/>
<path d="M1317 588.6L1311.06 669.28C1311.06 669.28 1400.84 721.54 1523.88 721.54C1646.92 721.54 1712.29 664.7 1712.29 664.7L1715.16 588.6" fill="#FFFF00"/>
<path d="M1715.21 590.42L1715.26 588.61H1317.1L1316.9 592.28C1438.05 684.65 1588.75 692.56 1715.21 590.42Z" fill="#DAB100"/>
<path d="M1715.16 589.97C1715.16 610.5 1626.03 664.31 1516.08 664.31C1406.13 664.31 1317 610.5 1317 589.97C1317 569.44 1406.13 589.97 1516.08 589.97C1626.03 589.97 1715.16 569.44 1715.16 589.97Z" stroke="black" stroke-width="18.34" stroke-linecap="round" stroke-linejoin="round"/>
<path d="M1665.58 515.12L1664.68 592.34C1664.68 592.34 1618.7 624.59 1509.69 624.59C1400.68 624.59 1357.76 592.34 1357.76 592.34L1358.66 515.12C1358.66 515.12 1393.31 486.26 1512.12 486.26C1630.93 486.26 1665.58 515.12 1665.58 515.12Z" fill="#FFAF00"/>
<path d="M1668 515.36V515.12C1668 515.12 1627.59 486.26 1514.54 486.26C1395.72 486.26 1361.08 515.12 1361.08 515.12V516.29C1458.42 550.27 1569.13 549.14 1668 515.36Z" fill="#FFF100"/>
<path d="M1366.99 521.05C1366.99 521.05 1521.52 579.32 1662.31 515.13" stroke="black" stroke-width="18.34" stroke-linecap="round" stroke-linejoin="round"/>
<path d="M1317 588.6L1312.33 652.1C1311.54 662.85 1317.48 672.93 1327.22 677.54C1358.36 692.27 1431.81 721.53 1523.88 721.53C1615.95 721.53 1677.97 688.49 1701.32 672.79C1708.21 668.16 1712.45 660.52 1712.76 652.22L1715.16 588.59" stroke="black" stroke-width="18.34" stroke-linecap="round" stroke-linejoin="round"/>
<path d="M1667.81 530.97L1667.28 575.33C1667.16 585.47 1660.4 593.31 1651.71 598.79C1634.55 609.62 1587.4 631.34 1514.08 631.34C1440.76 631.34 1391.65 608.86 1375.99 598.88C1367.12 593.23 1360.24 585.17 1360.36 574.78L1360.89 529.92C1361.01 519.66 1367.19 510.34 1376.77 506.33C1396.81 497.94 1438.39 486.26 1514.53 486.26C1590.67 486.26 1630.31 498.14 1651.39 506.54C1661.45 510.55 1667.92 520.27 1667.8 530.97H1667.81Z" stroke="black" stroke-width="18.34" stroke-linecap="round" stroke-linejoin="round"/>
<path d="M1511.67 521.04C1540.61 521.04 1564.08 518.389 1564.08 515.12C1564.08 511.85 1540.61 509.2 1511.67 509.2C1482.72 509.2 1459.26 511.85 1459.26 515.12C1459.26 518.389 1482.72 521.04 1511.67 521.04Z" fill="#FFAF00"/>
<path d="M1408.18 892.23C1408.18 892.23 1492.81 837.84 1617.37 893.55" stroke="black" stroke-width="18.34" stroke-linecap="round" stroke-linejoin="round"/>
<path d="M1532.68 801.97L1532.53 770.25C1531.01 772.04 1385.14 838.52 1501.24 858.77L1501.39 890.49C1502.91 888.7 1648.78 822.22 1532.68 801.97Z" fill="url(#paint0_linear_356_128)"/>
<path d="M1532.68 801.97L1532.53 770.25C1531.01 772.04 1385.14 838.52 1501.24 858.77L1501.39 890.49C1502.91 888.7 1648.78 822.22 1532.68 801.97Z" stroke="black" stroke-width="18.34" stroke-linecap="round" stroke-linejoin="round"/>
</g>
</g>
<defs>
<linearGradient id="paint0_linear_356_128" x1="1457.67" y1="822.671" x2="1576.46" y2="837.846" gradientUnits="userSpaceOnUse">
<stop stop-color="#8AE8CB"/>
<stop offset="1" stop-color="#FFCD00"/>
</linearGradient>
<clipPath id="clip0_356_128">
<rect width="2000" height="2000" fill="white"/>
</clipPath>
</defs>
</svg>
