<svg width="2000" height="2000" viewBox="0 0 2000 2000" fill="none" xmlns="http://www.w3.org/2000/svg">
<g clip-path="url(#clip0_356_185)">
<mask id="mask0_356_185" style="mask-type:luminance" maskUnits="userSpaceOnUse" x="0" y="0" width="2000" height="2000">
<path d="M2000 0H0V2000H2000V0Z" fill="white"/>
</mask>
<g mask="url(#mask0_356_185)">
<path d="M1653.23 751.11C1633.77 759.45 1570.47 769.14 1570.47 769.14C1570.47 769.14 1574.76 645.01 1569.42 534.55C1555.44 515.81 1511.56 498.78 1511.56 498.78C1511.56 498.78 1564.21 484.69 1591.57 481.35C1647.34 474.54 1669.69 484.93 1692.08 610.43C1712.28 723.68 1672.66 742.78 1653.21 751.12L1653.23 751.11Z" fill="#09D1E0"/>
<path d="M1498.02 498.45C1494.99 499.28 1515.74 754.14 1515.74 754.14L1569.36 763.3C1569.36 763.3 1565.64 616.75 1569.43 534.55C1546.61 520.01 1522.89 491.67 1498.02 498.45Z" fill="#009DB7"/>
<path d="M1653.23 751.11C1633.77 759.45 1570.47 769.14 1570.47 769.14L1569.42 534.55C1569.38 525.91 1563.71 518.31 1555.44 515.81L1498.01 498.45C1498.01 498.45 1564.13 483.87 1591.58 481.34C1656.54 475.37 1669.7 484.92 1692.09 610.42C1712.29 723.67 1672.67 742.77 1653.22 751.11H1653.23Z" stroke="black" stroke-width="18.34" stroke-linecap="round" stroke-linejoin="round"/>
<path d="M1393.36 993.79L1553.36 968.9C1578.85 964.94 1602 945.96 1597.01 925.69L1573.65 765.76L1299.79 808.35L1338.17 964.27C1343.16 984.53 1367.87 997.75 1393.36 993.78V993.79Z" fill="#09D1E0"/>
<path d="M1404.31 720.1C1406.54 742.98 1420.09 667.4 1370.17 566.97" stroke="black" stroke-width="18.34" stroke-linecap="round" stroke-linejoin="round"/>
<path d="M1498.02 498.45C1501.13 533.28 1517.79 613.79 1520.71 735.05L1498.02 498.45Z" fill="white"/>
<path d="M1498.02 498.45C1501.13 533.28 1517.79 613.79 1520.71 735.05" stroke="black" stroke-width="18.34" stroke-linecap="round" stroke-linejoin="round"/>
<path d="M1300.78 818.66L1329.15 779.58C1333 774.27 1338.71 770.6 1345.14 769.3L1511.43 735.58C1519.02 734.04 1526.9 735.94 1532.96 740.77L1565.65 766.84" fill="url(#paint0_linear_356_185)"/>
<path d="M1300.78 818.66L1329.15 779.58C1333 774.27 1338.71 770.6 1345.14 769.3L1511.43 735.58C1519.02 734.04 1526.9 735.94 1532.96 740.77L1565.65 766.84" stroke="black" stroke-width="18.34" stroke-linecap="round" stroke-linejoin="round"/>
<path d="M1377.51 738.09C1395.16 738.09 1409.47 723.781 1409.47 706.13C1409.47 688.479 1395.16 674.17 1377.51 674.17C1359.86 674.17 1345.55 688.479 1345.55 706.13C1345.55 723.781 1359.86 738.09 1377.51 738.09Z" fill="#12C0C8" stroke="black" stroke-width="18.34" stroke-linecap="round" stroke-linejoin="round"/>
<path d="M1455.63 746.04C1458.91 754.54 1453.63 763.92 1444.66 765.54L1426.01 768.91L1416.29 770.66C1408.39 772.09 1400.83 766.83 1399.43 758.92L1387.64 692.74C1386.25 684.94 1391.37 677.47 1399.14 675.95L1414.61 672.92C1421.52 671.57 1428.41 675.37 1430.94 681.95L1455.63 746.04Z" fill="#0C80E7" stroke="black" stroke-width="18.34" stroke-linecap="round" stroke-linejoin="round"/>
<path d="M1357.29 623.31C1357.29 623.31 1375.5 590.39 1360.63 532.49C1348.77 486.26 1358.11 440.38 1358.11 440.38C1358.11 440.38 1486.04 511.42 1357.29 623.31Z" fill="#CC0A0A" stroke="black" stroke-width="18.34" stroke-linecap="round" stroke-linejoin="round"/>
<path d="M1418.2 591.6C1418.2 591.6 1351.62 616.61 1308.66 575.03C1265.7 533.45 1282.6 470.26 1282.6 470.26C1282.6 470.26 1362.37 505.96 1418.2 591.6Z" fill="#CC0A0A" stroke="black" stroke-width="18.34" stroke-linecap="round" stroke-linejoin="round"/>
<path d="M1596.76 916.82L1597.02 925.69C1496.55 952.85 1408.52 958.2 1384.38 952.38C1346.9 943.34 1341.01 886.09 1304.33 813.86L1333.64 964.28C1338.63 984.54 1363.34 997.76 1388.83 993.79L1570.37 965.55C1587.73 958.24 1598.52 935.76 1596.75 916.82H1596.76Z" fill="#00B8E2"/>
<path d="M1340.56 486.26C1340.56 486.26 1302.47 549.15 1333.92 612.09C1336.28 616.81 1338.75 621.16 1341.28 625.23C1371.05 624.05 1403.12 619.2 1426.37 601.77C1418.92 520.35 1340.55 486.26 1340.55 486.26H1340.56Z" fill="url(#paint1_linear_356_185)" stroke="black" stroke-width="18.34" stroke-linecap="round" stroke-linejoin="round"/>
<path d="M1388.91 625.22C1388.91 625.22 1401.65 600.75 1411.14 534.34C1419.87 473.23 1416.94 438.46 1416.94 438.46C1416.94 438.46 1531.8 578.37 1388.92 625.22H1388.91Z" fill="url(#paint2_linear_356_185)" stroke="black" stroke-width="18.34" stroke-linecap="round" stroke-linejoin="round"/>
<path d="M1392.55 624.48C1392.55 624.48 1350.7 650.98 1288.41 618.28C1226.11 585.58 1225.18 520.02 1225.18 520.02C1225.18 520.02 1308.87 566.98 1392.55 624.48Z" fill="url(#paint3_linear_356_185)" stroke="black" stroke-width="18.34" stroke-linecap="round" stroke-linejoin="round"/>
<path d="M1382.75 993.33L1557.42 960.71C1582.91 955.72 1600.52 936.07 1596.76 916.82L1567.77 768.66L1300.78 819.34L1329.77 967.5C1333.54 986.75 1357.26 998.32 1382.75 993.33Z" stroke="black" stroke-width="18.34" stroke-linecap="round" stroke-linejoin="round"/>
</g>
</g>
<defs>
<linearGradient id="paint0_linear_356_185" x1="1300.78" y1="776.86" x2="1565.64" y2="776.86" gradientUnits="userSpaceOnUse">
<stop stop-color="#FF5A9E"/>
<stop offset="1" stop-color="#A2FF80"/>
</linearGradient>
<linearGradient id="paint1_linear_356_185" x1="1321.48" y1="555.74" x2="1426.38" y2="555.74" gradientUnits="userSpaceOnUse">
<stop stop-color="#FF9300"/>
<stop offset="1" stop-color="#FF4CFF"/>
</linearGradient>
<linearGradient id="paint2_linear_356_185" x1="1388.91" y1="531.84" x2="1460.6" y2="531.84" gradientUnits="userSpaceOnUse">
<stop stop-color="#FF9300"/>
<stop offset="1" stop-color="#FF4CFF"/>
</linearGradient>
<linearGradient id="paint3_linear_356_185" x1="1225.18" y1="577.31" x2="1392.55" y2="577.31" gradientUnits="userSpaceOnUse">
<stop stop-color="#FF9300"/>
<stop offset="1" stop-color="#FF4CFF"/>
</linearGradient>
<clipPath id="clip0_356_185">
<rect width="2000" height="2000" fill="white"/>
</clipPath>
</defs>
</svg>
