<svg width="2000" height="2000" viewBox="0 0 2000 2000" fill="none" xmlns="http://www.w3.org/2000/svg">
<g clip-path="url(#clip0_7_1242)">
<mask id="mask0_7_1242" style="mask-type:luminance" maskUnits="userSpaceOnUse" x="0" y="0" width="2000" height="2000">
<path d="M2000 0H0V2000H2000V0Z" fill="white"/>
</mask>
<g mask="url(#mask0_7_1242)">
<path d="M1612.24 841.86L1651.66 817.42L1760.05 524.44C1756.82 519.29 1746.04 465.72 1746.04 465.72" fill="#D98000"/>
<path d="M1682.93 443.254L1549.14 819.398L1612.2 841.828L1745.99 465.683L1682.93 443.254Z" fill="#FFC600"/>
<path d="M1404.69 829.86L1435.98 779.35L1424.44 473.04C1420.61 469.51 1379.24 431.44 1379.24 431.44" fill="#D98000"/>
<path d="M1379.26 431.328L1328.83 434.553L1354.32 832.969L1404.74 829.743L1379.26 431.328Z" fill="#FFC600"/>
<path d="M1404.69 829.86L1435.98 779.35L1424.44 473.04C1420.61 469.51 1379.24 431.44 1379.24 431.44" stroke="black" stroke-width="18.34" stroke-linecap="round" stroke-linejoin="round"/>
<path d="M1379.26 431.328L1328.83 434.553L1354.32 832.969L1404.74 829.743L1379.26 431.328Z" stroke="black" stroke-width="18.34" stroke-linecap="round" stroke-linejoin="round"/>
<path d="M1421.28 814.25L1457.05 784.72L1537.43 492.01C1533.54 487.34 1503.2 423.52 1503.2 423.52" fill="#D98000"/>
<path d="M1437.67 409.766L1355.76 800.502L1421.26 814.235L1503.17 423.499L1437.67 409.766Z" fill="#FFC600"/>
<path d="M1421.28 814.25L1457.05 784.72L1537.43 492.01C1533.54 487.34 1503.2 423.52 1503.2 423.52" stroke="black" stroke-width="18.34" stroke-linecap="round" stroke-linejoin="round"/>
<path d="M1437.67 409.766L1355.76 800.502L1421.26 814.235L1503.17 423.499L1437.67 409.766Z" stroke="black" stroke-width="18.34" stroke-linecap="round" stroke-linejoin="round"/>
<path d="M1612.24 841.86L1651.66 817.42L1760.05 524.44C1756.82 519.29 1746.04 465.72 1746.04 465.72" stroke="black" stroke-width="18.34" stroke-linecap="round" stroke-linejoin="round"/>
<path d="M1682.93 443.254L1549.14 819.398L1612.2 841.828L1745.99 465.683L1682.93 443.254Z" stroke="black" stroke-width="18.34" stroke-linecap="round" stroke-linejoin="round"/>
<path d="M1477.82 891.07L1516.43 865.37L1647.67 447.29C1644.28 442.25 1631.66 377.2 1631.66 377.2" fill="#D98000"/>
<path d="M1567.9 356.82L1414.07 870.69L1477.82 891.07L1631.65 377.2L1567.9 356.82Z" fill="#FFC600"/>
<path d="M1477.82 891.07L1516.43 865.37L1647.67 447.29C1644.28 442.25 1631.66 377.2 1631.66 377.2" stroke="black" stroke-width="18.34" stroke-linecap="round" stroke-linejoin="round"/>
<path d="M1567.9 356.82L1414.07 870.69L1477.82 891.07L1631.65 377.2L1567.9 356.82Z" stroke="black" stroke-width="18.34" stroke-linecap="round" stroke-linejoin="round"/>
<path d="M1615.75 904.43L1669.5 883.13L1851.48 633.38C1850.96 628.4 1846.12 578.37 1846.12 578.37" fill="#D98000"/>
<path d="M1808.2 551.543L1577.85 877.611L1615.72 904.367L1846.07 578.299L1808.2 551.543Z" fill="#FFC600"/>
<path d="M1615.75 904.43L1669.5 883.13L1851.48 633.38C1850.96 628.4 1846.12 578.37 1846.12 578.37" stroke="black" stroke-width="18.34" stroke-linecap="round" stroke-linejoin="round"/>
<path d="M1808.2 551.543L1577.85 877.611L1615.72 904.367L1846.07 578.299L1808.2 551.543Z" stroke="black" stroke-width="18.34" stroke-linecap="round" stroke-linejoin="round"/>
<path d="M1714.51 648.45L1621.63 629.63C1621.63 629.63 1570.11 729.92 1487.72 713.22C1405.32 696.52 1402.91 585.3 1402.91 585.3L1307.03 565.87L1279.54 1009.32C1279.54 1009.32 1335.71 1070.77 1434.59 1090.8C1533.46 1110.84 1606.13 1075.51 1606.13 1075.51C1658.62 1061.23 1692.34 1031.53 1692.34 1031.53C1692.34 1031.53 1790.44 731.12 1790.98 728.46L1714.51 648.46V648.45Z" fill="#FF0801"/>
<path d="M1466.73 1032.22C1525.92 1032.22 1573.9 984.238 1573.9 925.05C1573.9 865.862 1525.92 817.88 1466.73 817.88C1407.54 817.88 1359.56 865.862 1359.56 925.05C1359.56 984.238 1407.54 1032.22 1466.73 1032.22Z" fill="#FFC600"/>
<path d="M1470.56 774.87C1579.47 792.39 1628.73 704.1 1628.73 704.1L1701.2 715.07L1717.01 645.8L1625.81 627.32C1625.81 627.32 1574.29 727.61 1491.9 710.91C1409.5 694.21 1407.09 582.99 1407.09 582.99L1311.21 563.56L1306.5 639.58L1363.76 646.9C1363.76 646.9 1361.66 757.35 1470.57 774.87H1470.56Z" fill="white"/>
<g style="mix-blend-mode:multiply">
<path d="M1615.15 1071.82C1664.85 1057.1 1696.51 1029.21 1696.51 1029.21C1696.51 1029.21 1749.18 867.93 1777.55 780.67L1700.36 728.68L1615.16 1071.81L1615.15 1071.82Z" fill="#CF0100"/>
</g>
<path d="M1700.35 728.69L1720.4 647.94L1719.49 646.98L1698.12 727.18L1700.35 728.69Z" fill="#DFAD96"/>
<path d="M1777.55 780.67C1787.9 748.84 1795.01 726.85 1795.16 726.14L1720.41 647.93L1700.36 728.68L1777.55 780.67Z" fill="#DFAD96"/>
<path d="M1714.51 648.45L1621.63 629.63C1621.63 629.63 1570.11 729.92 1487.72 713.22C1405.32 696.52 1402.91 585.3 1402.91 585.3L1307.03 565.87L1279.54 1009.32C1279.54 1009.32 1335.71 1070.77 1434.59 1090.8C1533.46 1110.84 1606.13 1075.51 1606.13 1075.51C1658.62 1061.23 1692.34 1031.53 1692.34 1031.53C1692.34 1031.53 1790.44 731.12 1790.98 728.46L1714.51 648.46V648.45Z" stroke="black" stroke-width="18.34" stroke-linecap="round" stroke-linejoin="round"/>
<path d="M1699.46 909.34L1669.85 1007.55" stroke="black" stroke-width="18.34" stroke-linecap="round" stroke-linejoin="round"/>
<path d="M1481.31 894.89L1481.17 866.74C1479.82 868.33 1350.39 927.32 1453.41 945.29L1453.55 973.44C1454.9 971.85 1584.33 912.86 1481.31 894.89Z" fill="url(#paint0_linear_7_1242)"/>
<path d="M1302.32 641.88L1359.58 649.2C1359.58 649.2 1356.07 744.76 1453.44 773.81C1571.45 809.02 1624.56 706.4 1624.56 706.4L1697.03 717.37L1773.79 781.72" stroke="black" stroke-width="18.34" stroke-linecap="round" stroke-linejoin="round"/>
<path d="M1714.51 648.45L1606.13 1075.5" stroke="black" stroke-width="18.34" stroke-linecap="round" stroke-linejoin="round"/>
<path d="M1466.73 1032.22C1525.92 1032.22 1573.9 984.238 1573.9 925.05C1573.9 865.862 1525.92 817.88 1466.73 817.88C1407.54 817.88 1359.56 865.862 1359.56 925.05C1359.56 984.238 1407.54 1032.22 1466.73 1032.22Z" stroke="black" stroke-width="18.34" stroke-linecap="round" stroke-linejoin="round"/>
<path d="M1481.31 894.89L1481.17 866.74C1479.82 868.33 1350.39 927.32 1453.41 945.29L1453.55 973.44C1454.9 971.85 1584.33 912.86 1481.31 894.89Z" stroke="black" stroke-width="18.34" stroke-linecap="round" stroke-linejoin="round"/>
</g>
</g>
<defs>
<linearGradient id="paint0_linear_7_1242" x1="1414.78" y1="913.239" x2="1520.18" y2="926.704" gradientUnits="userSpaceOnUse">
<stop stop-color="#89E7CA"/>
<stop offset="1" stop-color="#FDCC00"/>
</linearGradient>
<clipPath id="clip0_7_1242">
<rect width="2000" height="2000" fill="white"/>
</clipPath>
</defs>
</svg>
