<?xml version="1.0" encoding="UTF-8"?>
<svg id="Layer_2" data-name="Layer 2" xmlns="http://www.w3.org/2000/svg" xmlns:xlink="http://www.w3.org/1999/xlink" viewBox="0 0 2000 2000">
  <defs>
    <style>
      .cls-1 {
        clip-path: url(#clippath);
      }

      .cls-2, .cls-3, .cls-4, .cls-5, .cls-6, .cls-7 {
        stroke-width: 0px;
      }

      .cls-2, .cls-8 {
        fill: none;
      }

      .cls-3 {
        fill: url(#linear-gradient);
      }

      .cls-8 {
        stroke: #000;
        stroke-linecap: round;
        stroke-linejoin: round;
        stroke-width: 18.34px;
      }

      .cls-4 {
        fill: url(#linear-gradient-4);
      }

      .cls-5 {
        fill: url(#linear-gradient-2);
      }

      .cls-6 {
        fill: url(#linear-gradient-3);
      }

      .cls-7 {
        fill: url(#linear-gradient-5);
      }
    </style>
    <clipPath id="clippath">
      <rect class="cls-2" width="2000" height="2000"/>
    </clipPath>
    <linearGradient id="linear-gradient" x1="1074.42" y1="765.36" x2="1904.88" y2="765.36" gradientUnits="userSpaceOnUse">
      <stop offset="0" stop-color="#00d7ad"/>
      <stop offset="1" stop-color="#ff0085"/>
    </linearGradient>
    <linearGradient id="linear-gradient-2" x1="1066.69" y1="745.85" x2="1887.14" y2="745.85" gradientUnits="userSpaceOnUse">
      <stop offset="0" stop-color="#68ebcb"/>
      <stop offset="1" stop-color="#ffcb00"/>
    </linearGradient>
    <linearGradient id="linear-gradient-3" x1="1397.83" y1="738.95" x2="1277.07" y2="738.95" xlink:href="#linear-gradient-2"/>
    <linearGradient id="linear-gradient-4" x1="1450.14" y1="696.6" x2="1597.43" y2="696.6" xlink:href="#linear-gradient-2"/>
    <linearGradient id="linear-gradient-5" x1="1777.29" y1="633.83" x2="1884.2" y2="633.83" xlink:href="#linear-gradient-2"/>
  </defs>
  <g id="Layer_1-2" data-name="Layer 1">
    <g class="cls-1">
      <g>
        <g>
          <path class="cls-3" d="M1901.91,737.33c-8.21,34.15-46.58,71.82-85.5,83.99-30.06,9.42-57.63,3.91-79.82-15.91-52.86-47.18-33.63-115.82,1.85-190.3-17.07,18.45-31.57,44.64-43.31,65.8-15.78,28.51-24.47,44.25-38.49,41.8-11.48-2.02-15.1-14.92-17.33-28.56-5.33-33.03-14.97-54.45-23.57-67.86.69,46.58-3.87,135.17-45.16,176.97-24.9,25.25-67.74,34.88-97.5,21.98-21.93-9.55-33.46-29.46-32.38-56.12,1.76-43.61,25.8-70.32,73.5-81.71,17.55-4.17,32.64-36.3,37.11-64.94,3.48-22.41-.3-34.88-3.14-36.6-.43-.26-3.57-.26-10.1,4.56-17.07,12.69-38.49,34.96-63.26,60.73-21.89,22.79-46.1,48.04-72.29,71.78,2.11,16,4.6,30.75,6.8,43.82,2.32,13.59,4.3,25.29,5.25,34.92,2.11,20.56-12.04,67-42.1,138.05-.04.09-.13.17-.17.26-.34.77-.77,1.51-1.33,2.15-.09.17-.21.34-.34.47-.56.65-1.16,1.25-1.89,1.72l-142.91,99.86c-.09.04-.17.09-.21.13-.09.09-.22.13-.3.17-.82.52-1.68.95-2.58,1.2h-.13c-.94.3-1.93.43-2.92.43,0,0,0,.04-.04.04-.77,0-1.55-.13-2.32-.3-.26-.04-.47-.17-.73-.22-.34-.13-.77-.22-1.12-.39l-124.55-52.94c-.17-.09-.34-.21-.51-.3-.43-.17-.82-.39-1.16-.65-.26-.17-.52-.34-.73-.56-.3-.22-.6-.43-.86-.69-.21-.22-.43-.47-.64-.69-.22-.3-.47-.56-.69-.86-.17-.26-.3-.52-.47-.77-.17-.34-.34-.65-.52-.99-.13-.3-.21-.56-.34-.86-.09-.34-.21-.69-.3-1.03-.09-.34-.13-.69-.17-1.03-.04-.17-.09-.34-.09-.56l-9.59-110.96v-.22c0-.43,0-.82.04-1.25,0-.3,0-.6.04-.9.04-.34.13-.69.21-1.03.09-.34.13-.69.26-1.03.09-.26.26-.56.39-.82.13-.39.3-.77.51-1.12.04-.04.04-.13.09-.22l4.69-7.57c14.54-23.83,28.3-46.23,47.7-67.18l-50.92-47.44c-.17-.17-.3-.34-.47-.52-.3-.3-.56-.6-.82-.95-.21-.26-.34-.56-.56-.86-.17-.3-.34-.56-.52-.9-.13-.3-.26-.65-.39-.99-.09-.3-.22-.6-.3-.94-.08-.34-.13-.69-.21-.99-.04-.34-.09-.73-.13-1.08v-1.03c.04-.34.04-.69.09-1.03.04-.39.13-.77.26-1.16.04-.26.04-.47.13-.73,7.91-24.47,36.64-109.32,74.96-173.75.13-.17.3-.34.43-.52.22-.34.43-.64.69-.95.21-.3.47-.52.73-.77.26-.22.47-.47.77-.69.3-.26.64-.47.99-.65.21-.13.34-.3.56-.39,33.97-18.23,118.01-55.56,163.77-8.9,4.08,4.21,10.41,5.12,15.31,2.15,25.25-14.97,44.6-18.06,57.46-9.25,12.52,8.56,16.3,26.11,11.7,53.59-.95,5.5-2.02,16.82-3.05,29.42,14.06-11.44,27.87-22.96,41.24-34.15,53.33-44.64,95.48-79.91,126.7-83.52,80.85-9.33,97.67,38.49,106.66,64.17,1.55,4.39,3.61,10.19,5.16,12.82,4.69-2.67,14.32-14.19,21.55-22.79,27.83-33.16,69.93-83.35,137.45-72.08,14.8,2.49,25.8,9.76,32.73,21.63,21.42,36.6-4.69,108.51-21.98,156.07-1.12,3.1-2.28,6.28-3.4,9.42,19.22-11.96,32.77-8.26,39.87-4.17,17.42,9.93,24.13,37.33,16.73,68.21Z"/>
          <g>
            <path class="cls-5" d="M1869.82,660.55c-7.1-4.09-27.13,3.77-46.36,15.73,1.12-3.14,6.16-23.27,7.28-26.37,17.29-47.57,44.88-121.19,23.47-157.79-6.93-11.87-13.92-15.55-28.71-18.04-67.52-11.27-99.73,39.77-127.55,72.92-7.22,8.6-22.05,25.67-26.74,28.34-1.55-2.62-12.42-19.58-13.97-23.97-8.99-25.68-16.92-67.57-97.77-58.24-31.22,3.61-68.64,40.99-121.96,85.63-13.38,11.18-37.86,25.66-51.92,37.1,1.03-12.6-2.14-31.59-1.19-37.1,4.6-27.48,4.89-46.07-7.62-54.63-12.86-8.82-27.35-2.77-52.6,12.2-4.9,2.97-15.23.4-19.31-3.81-39.56-40.33-102.31-16.86-142,1.76-.21.27-.38.54-.62.8-7.01,7.35-15.13,13.46-22.8,20.07-.35,3.16-.83,6.16-2.02,8.36-31.7,58.1-53.17,123.21-61.9,149.66-.28.88-2.54,1.13-4.65,1.37.2.57.39,1.15.51,1.81,1.8,10.25,14.78,18.35,22.37,24.51,9.12,7.4,18.07,18.8,29.25,23.1,11.63,4.47,8.16,21.87-2.18,21.58-13.53,16.37-22.44,32.29-33.96,51.11l-2.14,6.34c-.68,1.15-6.72-1.42-9.74-1.86,2.29,3.36,2.53,7.89.54,11.66-1.82,3.44-3.44,6.61-4.81,9.89l4.15,8.22,9.82,87.08c2.21,1.19,4.41,2.41,6.55,3.74,8.2,5.06,13.94,11.77,20.55,18.6.31.32.53.67.79,1l93.16,37.91c4.1-.25,8.24-.16,12.34,0v-1.83s116.56-78.85,116.56-78.85c6.93-11.3,17.75-18.96,25.88-29.24.54-.68,1.19-1.21,1.89-1.66l1.68-4.92c25.68-62.4,35.7-89.45,33.76-108.5-.95-9.63-5.78-27.32-8.1-40.91-2.19-13.07-.18-35.47-2.29-51.47,26.19-23.74,37.82-45.16,59.71-67.95,24.77-25.76,57.12-52.36,74.19-65.05,6.54-4.82,19.39-6.36,19.82-6.1,2.84,1.72,15.17,19.52,11.69,41.92-4.47,28.64-26.51,72.14-44.05,76.32-47.69,11.4-66.49,28.21-68.26,71.82-1.07,26.66,7.29,39.75,29.22,49.29,29.76,12.9,61.74,5.68,86.64-19.57,41.29-41.8,47.7-140.94,47.01-187.52,8.6,13.42,31,46.25,36.33,79.28,2.24,13.63,3,20.29,14.48,22.31,14.02,2.45,7.23-8.23,23.01-36.74,11.74-21.16,42.54-65.35,69.48-79.84-35.48,74.49-61.75,157.62-8.89,204.8,22.19,19.83,41.62,17.37,71.68,7.95,38.92-12.17,65.79-40.67,74.01-74.82,7.4-30.88,3.71-47.48-13.7-57.41ZM1240.52,614.62c7.53-16.64,21.5-26.49,31.27-22.02,9.76,4.43,11.61,21.55,4.08,38.19-7.48,16.64-21.46,26.49-31.22,22.02-9.76-4.43-11.61-21.55-4.13-38.19ZM1255.96,838.08c-80.81,40.77-80.21-19.4,23.09-64.68,8-3.53,15.91-7.48,23.7-11.83-.26,2.67-5.72,55.74-46.79,76.51Z"/>
            <path class="cls-6" d="M1380.36,606.95c-4.44,40.35-103.29,88.86-103.29,88.86,89.43-33.32,63.67-131.15,64.71-160.99,58.64-26.81,43.03,31.77,38.59,72.12ZM1285.08,811.48c40.5-35.35,77.86,34.7,25.45,138.37,50.45-22.41,78.86-109.69,85.61-150.99,6.75-41.3-6.93-113.73-36.47-76.57-29.54,37.16-63.55,20.7-74.59,89.18Z"/>
            <path class="cls-4" d="M1596.28,587.4c-20.84,75.29-114.82,229.03-146.14,194.6,0,0,51.7,55.6,104.89-3.16,53.19-58.76,41.25-191.44,41.25-191.44Z"/>
            <path class="cls-7" d="M1817,478.67c18.66,18.8,25.73,91.06-23.28,176.45-49.01,85.39,27.79,76.3,22.23,98.53-5.56,22.23-15.9,55.54,28.21,19.22,44.11-36.33,56.48-121.52,13.12-113.32-43.35,8.2-37.67-6.13-19.6-51.42,18.07-45.29,41.51-118.96-20.68-129.46Z"/>
          </g>
          <g>
            <line class="cls-8" x1="1132.93" y1="770.75" x2="1057.47" y2="700.47"/>
            <path class="cls-8" d="M1075.52,724.27s44.48-144.86,101.58-214.61"/>
            <path class="cls-8" d="M1383.19,701.85c4.42,35.26,10.82,64.7,12.79,84.02,4.08,40.04-67.97,192.75-67.97,192.75"/>
            <path class="cls-8" d="M1088.74,592.03c29.01-32.64,159.07-111.02,213.47-55.53,7.53,7.68,19.24,9.36,28.49,3.87,24.05-14.27,63.61-29.48,53.03,33.28-1.68,9.99-3.72,36.1-4.99,54.93"/>
            <line class="cls-8" x1="1405.49" y1="883.14" x2="1177.1" y2="1042.71"/>
            <line class="cls-8" x1="1227.4" y1="1025.18" x2="1044.41" y2="947.36"/>
            <line class="cls-8" x1="1088.74" y1="983.45" x2="1075.52" y2="830.3"/>
            <path class="cls-8" d="M1065.35,874.05c42.88-65.93,61.46-121.5,183.82-166.54,122.35-45.04,251.09-202.68,311.3-209.63,106.95-12.34,86.27,80.41,110.74,77.44,24.47-2.96,67.15-110.39,157.08-95.41,89.92,14.98-43.5,239.48,0,197.45,43.5-42.02,66.12-4.71,55.25,40.58-10.88,45.29-91.95,112.35-147.69,62.58-55.74-49.77-22.18-127.53,22.56-213.99-69.27,20.39-104.13,184.53-116.36,109.02-12.24-75.51-46.22-94.98-46.22-94.98,0,0,12.59,144.18-40.78,198.25-34.7,35.15-114.03,37.22-111.48-26.15,1.34-33.18,16.31-60.02,65.25-71.7,48.94-11.68,67.97-155.33,14.95-116.06s-141.38,162.79-244.7,208.08c-103.32,45.29-103.91,105.48-23.11,64.7,42.14-21.27,46.79-76.58,46.79-76.58"/>
            <ellipse class="cls-8" cx="1258.21" cy="622.33" rx="33.04" ry="19.44" transform="translate(176.53 1516.96) rotate(-65.91)"/>
          </g>
        </g>
        <path class="cls-8" d="M1489.65,720.8c-20.72,18.21-13.86,49.95-13.86,49.95"/>
        <path class="cls-8" d="M1758.82,662.07c-50.37,62.2,12.69,105.82,12.69,105.82"/>
        <line class="cls-8" x1="1149.36" y1="614.1" x2="1109.51" y2="707.86"/>
        <line class="cls-8" x1="1109.51" y1="879.71" x2="1115.55" y2="947.36"/>
      </g>
    </g>
  </g>
</svg>