<svg width="2000" height="2000" viewBox="0 0 2000 2000" fill="none" xmlns="http://www.w3.org/2000/svg">
<g clip-path="url(#clip0_956_64)">
<mask id="mask0_956_64" style="mask-type:luminance" maskUnits="userSpaceOnUse" x="0" y="0" width="2000" height="2000">
<path d="M2000 0H0V2000H2000V0Z" fill="white"/>
</mask>
<g mask="url(#mask0_956_64)">
<path d="M1467.88 856.97C1467.88 856.97 1520.65 929.44 1453.64 970.09C1453.64 970.09 1534.24 955.93 1547.25 905.14C1560.25 854.34 1467.89 856.97 1467.89 856.97H1467.88Z" fill="#FF0085" stroke="black" stroke-width="18.34" stroke-linecap="round" stroke-linejoin="round"/>
<path d="M1739.19 958.33C1824.82 1009.45 1788.74 1077.67 1788.74 1077.67L1735.46 1094.71L1694.8 1107.72C1653.57 1120.93 1611.26 1093.71 1604.18 1050.96C1602.98 1043.62 1601.08 1035.86 1598.34 1027.64C1570.8 945.45 1498.37 903.87 1498.37 903.87L1622.2 875.45L1729.41 850.81C1729.41 850.81 1682.31 924.41 1739.19 958.34V958.33Z" fill="url(#paint0_linear_956_64)"/>
<path d="M1739.18 958.33C1824.81 1009.45 1788.73 1077.67 1788.73 1077.67L1735.45 1094.71C1735.31 1093.1 1735.2 1091.43 1735.12 1089.71C1732.69 1041.06 1718.8 993.78 1693.4 952.21C1678.84 928.37 1667.5 898.04 1671.48 864.13L1729.42 850.81C1729.42 850.81 1682.32 924.41 1739.2 958.34L1739.18 958.33Z" fill="url(#paint1_linear_956_64)"/>
<path d="M1498.39 903.87C1498.39 903.87 1570.78 945.45 1598.33 1027.63C1601.08 1035.85 1603 1043.62 1604.21 1050.97C1611.25 1093.71 1653.57 1120.9 1694.82 1107.71L1788.71 1077.67C1788.71 1077.67 1824.84 1009.45 1739.17 958.33C1682.34 924.42 1729.43 850.82 1729.43 850.82L1498.39 903.88V903.87Z" stroke="black" stroke-width="18.34" stroke-linecap="round" stroke-linejoin="round"/>
<path d="M1386.45 933.06C1305.62 1033.5 1443 1039.86 1581.5 990.21" stroke="black" stroke-width="18.34" stroke-linecap="round" stroke-linejoin="round"/>
<path d="M1751.94 620.5L1808.61 661.61L1158.48 776.99L1195.03 700.18L1683.54 605.35C1707.45 600.71 1732.22 606.19 1751.94 620.5Z" fill="url(#paint2_linear_956_64)" stroke="black" stroke-width="18.34" stroke-linecap="round" stroke-linejoin="round"/>
<path d="M1833.62 702.24C1833.81 703.16 1834.01 704.08 1834.19 705C1848.33 773.95 1803.69 841.3 1734.9 856.19C1617.18 881.67 1444.22 920.14 1334.88 944.55C1260.11 961.24 1186.33 908.39 1181.06 831.96C1180.45 823.19 1180.71 814.68 1182.1 806.69L1161.42 793.07C1153.37 779.19 1161.41 761.51 1177.17 758.45L1750.67 647.27C1788.68 639.9 1825.63 664.33 1833.62 702.22V702.24Z" fill="url(#paint3_linear_956_64)"/>
<path d="M1238.07 912.74C1288.61 920.77 1330.94 919.88 1373.44 882.64C1415.95 845.4 1445.11 807.01 1433.75 841.67C1422.39 876.32 1425.3 936.4 1330.71 946.25C1235.07 955.07 1238.07 912.74 1238.07 912.74Z" fill="#FF0085"/>
<path d="M1833.62 702.24C1833.81 703.16 1834.01 704.08 1834.19 705C1848.33 773.95 1803.69 841.3 1734.9 856.19C1617.18 881.67 1444.22 920.14 1334.88 944.55C1260.11 961.24 1186.33 908.39 1181.06 831.96C1180.45 823.19 1180.71 814.68 1182.1 806.69L1161.42 793.07C1153.37 779.19 1161.41 761.51 1177.17 758.45L1750.67 647.27C1788.68 639.9 1825.63 664.33 1833.62 702.22V702.24Z" stroke="black" stroke-width="18.34" stroke-linecap="round" stroke-linejoin="round"/>
<path d="M1182.11 806.71L1721.6 697.13" stroke="black" stroke-width="18.34" stroke-linecap="round" stroke-linejoin="round"/>
<path d="M1510.47 785.15L1718.71 742.85" stroke="black" stroke-width="18.34" stroke-linecap="round" stroke-linejoin="round"/>
<path d="M1177.16 758.47L1750.66 647.3" stroke="black" stroke-width="18.34" stroke-linecap="round" stroke-linejoin="round"/>
<path d="M1295.67 701.959L1320.35 697.97C1369.31 690.059 1402.58 643.96 1394.67 595.006L1367.93 429.532C1360.01 380.578 1313.92 347.306 1264.96 355.217L1240.28 359.206C1191.33 367.117 1158.05 413.216 1165.97 462.17L1192.71 627.644C1200.62 676.598 1246.72 709.87 1295.67 701.959Z" fill="url(#paint4_linear_956_64)"/>
<mask id="mask1_956_64" style="mask-type:luminance" maskUnits="userSpaceOnUse" x="1164" y="354" width="232" height="350">
<path d="M1295.67 701.959L1320.35 697.97C1369.31 690.059 1402.58 643.96 1394.67 595.006L1367.93 429.532C1360.01 380.578 1313.92 347.306 1264.96 355.217L1240.28 359.206C1191.33 367.117 1158.05 413.216 1165.97 462.17L1192.71 627.644C1200.62 676.598 1246.72 709.87 1295.67 701.959Z" fill="white"/>
</mask>
<g mask="url(#mask1_956_64)">
<path d="M1336.75 602.77C1337.6 603.4 1338.17 604.19 1338.61 605.19C1338.8 604.79 1338.97 604.46 1339.15 604.07C1339.96 605.15 1340.39 606.33 1340.47 607.67C1341.22 606.29 1342.3 605.3 1343.77 604.67C1343.77 605.14 1343.75 605.54 1343.74 606.05C1344.91 604.74 1346.3 604.07 1348.03 603.99C1347.93 604.33 1347.84 604.62 1347.73 604.98C1348.86 604.48 1349.95 604.14 1351.18 604.22C1351.11 604.51 1351.05 604.75 1350.98 605.04C1352.23 604.7 1353.46 604.57 1354.74 605.01C1354.26 606.15 1353.46 606.99 1352.59 607.83C1352.9 607.96 1353.18 608.07 1353.52 608.21C1352.69 609.29 1351.63 610 1350.52 610.69C1350.85 610.85 1351.16 611 1351.55 611.18C1351.31 611.36 1351.14 611.53 1350.95 611.64C1349.89 612.24 1348.72 612.56 1347.55 612.88C1347.2 612.98 1346.85 613.05 1346.5 613.19C1346.91 613.26 1347.33 613.29 1347.73 613.4C1348.49 613.61 1349.25 613.84 1349.99 614.1C1350.42 614.26 1350.43 614.41 1350.11 614.75C1350.01 614.86 1349.89 614.94 1349.73 615.09C1351.42 615.54 1353.03 616.06 1354.44 617.17C1354.23 617.3 1354.06 617.41 1353.85 617.55C1355.25 618.13 1356.55 618.82 1357.63 619.93C1357.51 620.03 1357.43 620.1 1357.34 620.17C1357.26 620.23 1357.17 620.28 1357.05 620.35C1358.08 621.13 1359.15 621.82 1359.85 622.99C1358.8 623.53 1357.69 623.45 1356.59 623.49C1356.64 623.74 1356.69 623.98 1356.74 624.28C1354.84 624.48 1353.12 623.88 1351.35 623.34C1351.35 623.51 1351.36 623.66 1351.37 623.81C1351.37 624.09 1351.27 624.25 1350.96 624.16C1350.27 623.95 1349.57 623.77 1348.9 623.51C1348.33 623.29 1347.81 622.97 1347.25 622.69C1347.2 622.93 1347.14 623.16 1347.07 623.5C1346.3 623.13 1345.6 622.8 1344.97 622.5C1345.13 622.88 1345.33 623.33 1345.55 623.84C1345.19 623.93 1344.94 624 1344.66 624.07C1345.3 625.16 1346.13 626.15 1346.35 627.51C1346.01 627.49 1345.74 627.48 1345.42 627.46C1345.73 628.35 1346.02 629.23 1345.94 630.26C1345.42 630.1 1344.92 629.96 1344.37 629.79C1344.32 631 1344.07 632.15 1343.54 633.27C1342.48 632.67 1341.73 631.81 1341.12 630.81C1340.81 631.06 1340.52 631.3 1340.23 631.55C1340.04 631.71 1339.87 631.7 1339.75 631.49C1339.48 631.01 1339.19 630.54 1338.99 630.03C1338.81 629.56 1338.73 629.05 1338.6 628.52C1338.36 628.78 1338.13 629.03 1337.85 629.33C1336.98 628.42 1336.79 627.3 1336.65 626.09C1336.57 626.23 1336.51 626.33 1336.46 626.42C1336.28 626.72 1336.16 626.76 1335.99 626.44C1335.71 625.92 1335.45 625.37 1335.28 624.8C1335 623.88 1334.96 622.91 1335.06 621.94C1334.61 622.2 1334.18 622.45 1333.69 622.74C1333.69 622.49 1333.69 622.35 1333.69 622.2C1333.16 622.68 1332.64 623.15 1332.05 623.68C1332 623.34 1331.97 623.13 1331.94 622.88C1331.1 623.28 1330.3 623.75 1329.32 623.75C1329.36 622.97 1329.54 622.24 1329.89 621.58C1330.23 620.94 1330.68 620.36 1331.09 619.73C1330.85 619.64 1330.54 619.53 1330.2 619.4C1330.8 618.37 1331.69 617.68 1332.69 617.06C1332.47 616.94 1332.28 616.84 1332.06 616.73C1332.74 615.74 1333.69 615.18 1334.79 614.67C1333.53 614.46 1332.44 614.06 1331.44 613.45C1330.72 613.01 1330.06 612.48 1329.39 611.96C1329.03 611.69 1328.99 611.33 1329.17 610.9C1329.43 610.28 1329.85 609.85 1330.49 609.62C1330.8 609.51 1331.03 609.56 1331.27 609.81C1331.91 610.48 1332.56 611.14 1333.27 611.74C1333.96 612.33 1334.78 612.74 1335.7 612.88C1335.79 612.89 1335.88 612.9 1335.97 612.91C1336.01 612.91 1336.05 612.91 1336.14 612.9C1335.29 611.74 1334.93 610.49 1335.2 609.08C1335.46 609.16 1335.69 609.23 1336.01 609.32C1335.18 608 1335.01 606.62 1335.15 605.17C1335.42 605.34 1335.65 605.5 1335.96 605.7C1335.91 604.59 1336.2 603.67 1336.74 602.78L1336.75 602.77Z" fill="url(#paint5_linear_956_64)"/>
<path d="M1257.39 516.24C1257.06 517.28 1256.48 518.1 1255.65 518.87C1256.11 518.92 1256.49 518.97 1256.93 519.02C1256.14 520.17 1255.14 520.99 1253.86 521.52C1255.46 521.78 1256.79 522.51 1257.91 523.73C1257.45 523.88 1257.05 524.01 1256.55 524.17C1258.22 524.88 1259.35 526 1260.01 527.67C1259.64 527.69 1259.34 527.7 1258.94 527.72C1259.81 528.66 1260.5 529.61 1260.85 530.83C1260.55 530.86 1260.29 530.88 1259.98 530.91C1260.74 532.02 1261.28 533.17 1261.28 534.58C1260.01 534.5 1258.91 534 1257.81 533.43C1257.79 533.78 1257.77 534.09 1257.75 534.47C1256.41 534.02 1255.36 533.23 1254.31 532.37C1254.27 532.75 1254.23 533.1 1254.18 533.54C1253.92 533.37 1253.7 533.26 1253.53 533.1C1252.59 532.26 1251.88 531.23 1251.17 530.19C1250.96 529.88 1250.76 529.57 1250.51 529.27C1250.58 529.69 1250.69 530.12 1250.72 530.54C1250.77 531.35 1250.81 532.17 1250.79 532.99C1250.79 533.47 1250.64 533.52 1250.2 533.32C1250.06 533.26 1249.94 533.17 1249.75 533.07C1249.88 534.87 1249.91 536.62 1249.31 538.37C1249.11 538.21 1248.94 538.08 1248.74 537.92C1248.65 539.48 1248.41 540.99 1247.68 542.41C1247.54 542.33 1247.44 542.27 1247.35 542.2C1247.27 542.14 1247.19 542.07 1247.08 541.97C1246.67 543.23 1246.35 544.52 1245.44 545.59C1244.56 544.74 1244.26 543.64 1243.85 542.58C1243.62 542.71 1243.4 542.84 1243.13 543C1242.29 541.21 1242.3 539.33 1242.24 537.42C1242.08 537.48 1241.94 537.54 1241.79 537.59C1241.52 537.69 1241.32 537.64 1241.31 537.31C1241.28 536.57 1241.22 535.82 1241.25 535.07C1241.27 534.44 1241.41 533.82 1241.5 533.18C1241.25 533.21 1241.01 533.23 1240.65 533.27C1240.75 532.4 1240.84 531.59 1240.92 530.88C1240.61 531.17 1240.23 531.51 1239.8 531.9C1239.59 531.58 1239.44 531.35 1239.27 531.1C1238.42 532.09 1237.73 533.23 1236.48 533.91C1236.38 533.57 1236.31 533.3 1236.22 532.99C1235.46 533.59 1234.69 534.18 1233.66 534.44C1233.64 533.88 1233.61 533.34 1233.59 532.75C1232.39 533.11 1231.19 533.25 1229.91 533.11C1230.15 531.88 1230.73 530.85 1231.49 529.92C1231.14 529.71 1230.81 529.5 1230.47 529.3C1230.25 529.17 1230.2 529 1230.37 528.81C1230.75 528.39 1231.11 527.94 1231.54 527.57C1231.94 527.23 1232.41 526.99 1232.89 526.68C1232.56 526.53 1232.23 526.39 1231.85 526.22C1232.44 525.06 1233.48 524.5 1234.61 523.96C1234.44 523.93 1234.33 523.91 1234.22 523.88C1233.86 523.81 1233.79 523.7 1234.04 523.43C1234.46 522.98 1234.91 522.54 1235.4 522.19C1236.21 521.61 1237.14 521.24 1238.12 521.01C1237.71 520.66 1237.32 520.32 1236.88 519.94C1237.13 519.86 1237.26 519.81 1237.41 519.77C1236.76 519.41 1236.13 519.06 1235.41 518.67C1235.73 518.51 1235.92 518.41 1236.15 518.29C1235.47 517.6 1234.75 516.99 1234.42 516.03C1235.2 515.8 1235.97 515.74 1236.73 515.86C1237.47 515.98 1238.19 516.22 1238.94 516.41C1238.94 516.15 1238.95 515.81 1238.96 515.43C1240.17 515.67 1241.14 516.31 1242.09 517.07C1242.13 516.82 1242.17 516.6 1242.21 516.34C1243.41 516.67 1244.27 517.41 1245.14 518.32C1244.92 517.02 1244.94 515.81 1245.2 514.64C1245.39 513.79 1245.69 512.96 1245.96 512.13C1246.11 511.69 1246.44 511.53 1246.92 511.56C1247.62 511.61 1248.18 511.87 1248.61 512.42C1248.82 512.69 1248.84 512.92 1248.68 513.25C1248.25 514.1 1247.82 514.96 1247.47 515.85C1247.12 516.73 1247 517.66 1247.17 518.61C1247.19 518.7 1247.21 518.79 1247.23 518.88C1247.24 518.92 1247.26 518.96 1247.3 519.05C1248.14 517.83 1249.24 517.05 1250.72 516.85L1250.76 517.72C1251.77 516.46 1253.06 515.83 1254.53 515.49C1254.45 515.81 1254.38 516.09 1254.29 516.46C1255.36 516.04 1256.36 516.01 1257.41 516.24H1257.39Z" fill="url(#paint6_linear_956_64)"/>
<path d="M1292.13 371.89C1291.8 372.93 1291.22 373.75 1290.39 374.52C1290.85 374.57 1291.23 374.62 1291.67 374.67C1290.88 375.82 1289.88 376.64 1288.6 377.17C1290.2 377.43 1291.53 378.16 1292.65 379.38C1292.19 379.53 1291.79 379.66 1291.29 379.82C1292.96 380.53 1294.09 381.65 1294.75 383.32C1294.38 383.34 1294.08 383.35 1293.68 383.37C1294.55 384.31 1295.24 385.26 1295.59 386.48C1295.29 386.51 1295.03 386.53 1294.72 386.56C1295.48 387.67 1296.02 388.82 1296.02 390.23C1294.75 390.15 1293.65 389.65 1292.55 389.08C1292.53 389.43 1292.51 389.74 1292.49 390.12C1291.15 389.67 1290.1 388.88 1289.05 388.02C1289.01 388.4 1288.97 388.75 1288.92 389.19C1288.66 389.02 1288.44 388.91 1288.27 388.75C1287.33 387.91 1286.62 386.88 1285.91 385.84C1285.7 385.53 1285.5 385.22 1285.25 384.92C1285.32 385.34 1285.43 385.77 1285.46 386.19C1285.51 387 1285.55 387.82 1285.53 388.64C1285.53 389.12 1285.38 389.17 1284.94 388.97C1284.8 388.91 1284.68 388.82 1284.49 388.72C1284.62 390.52 1284.65 392.27 1284.05 394.02C1283.85 393.86 1283.68 393.73 1283.48 393.57C1283.39 395.13 1283.15 396.64 1282.42 398.06C1282.28 397.98 1282.18 397.92 1282.09 397.85C1282.01 397.79 1281.93 397.72 1281.82 397.62C1281.41 398.88 1281.09 400.17 1280.18 401.24C1279.3 400.39 1279 399.29 1278.59 398.23C1278.36 398.36 1278.14 398.49 1277.87 398.65C1277.03 396.86 1277.04 394.98 1276.98 393.07C1276.82 393.13 1276.68 393.19 1276.53 393.24C1276.26 393.34 1276.06 393.29 1276.05 392.96C1276.02 392.22 1275.96 391.47 1275.99 390.72C1276.01 390.09 1276.15 389.47 1276.24 388.83C1275.99 388.86 1275.75 388.88 1275.39 388.92C1275.49 388.05 1275.58 387.24 1275.66 386.53C1275.35 386.82 1274.97 387.16 1274.54 387.55C1274.33 387.23 1274.18 387 1274.01 386.75C1273.16 387.74 1272.47 388.88 1271.22 389.56C1271.12 389.22 1271.05 388.95 1270.96 388.64C1270.2 389.24 1269.43 389.83 1268.4 390.09C1268.38 389.53 1268.35 388.99 1268.33 388.4C1267.13 388.76 1265.93 388.9 1264.65 388.76C1264.89 387.53 1265.47 386.5 1266.23 385.57C1265.88 385.36 1265.55 385.15 1265.21 384.95C1264.99 384.82 1264.94 384.65 1265.11 384.46C1265.49 384.04 1265.85 383.59 1266.28 383.22C1266.68 382.88 1267.15 382.64 1267.63 382.33C1267.3 382.18 1266.97 382.04 1266.59 381.87C1267.18 380.71 1268.22 380.15 1269.35 379.61C1269.18 379.58 1269.07 379.56 1268.96 379.53C1268.6 379.46 1268.53 379.35 1268.78 379.08C1269.2 378.63 1269.65 378.19 1270.14 377.84C1270.95 377.26 1271.88 376.89 1272.86 376.66C1272.45 376.31 1272.06 375.97 1271.62 375.59C1271.87 375.51 1272 375.46 1272.15 375.42C1271.5 375.06 1270.87 374.71 1270.15 374.32C1270.47 374.16 1270.66 374.06 1270.89 373.94C1270.21 373.25 1269.49 372.64 1269.16 371.68C1269.94 371.45 1270.71 371.39 1271.47 371.51C1272.21 371.63 1272.93 371.87 1273.68 372.06C1273.68 371.8 1273.69 371.46 1273.7 371.08C1274.91 371.32 1275.88 371.96 1276.83 372.72C1276.87 372.47 1276.91 372.25 1276.95 371.99C1278.15 372.32 1279.01 373.06 1279.88 373.97C1279.66 372.67 1279.68 371.46 1279.94 370.29C1280.13 369.44 1280.43 368.61 1280.7 367.78C1280.85 367.34 1281.18 367.18 1281.66 367.21C1282.36 367.26 1282.92 367.52 1283.35 368.07C1283.56 368.34 1283.58 368.57 1283.42 368.9C1282.99 369.75 1282.56 370.61 1282.21 371.5C1281.86 372.38 1281.74 373.31 1281.91 374.26C1281.93 374.35 1281.95 374.44 1281.97 374.53C1281.98 374.57 1282 374.61 1282.04 374.7C1282.88 373.48 1283.98 372.7 1285.46 372.5L1285.5 373.37C1286.51 372.11 1287.8 371.48 1289.27 371.14C1289.19 371.46 1289.12 371.74 1289.03 372.11C1290.1 371.69 1291.1 371.66 1292.15 371.89H1292.13Z" fill="url(#paint7_linear_956_64)"/>
<path d="M1227.83 578.95C1226.8 578.67 1225.99 578.13 1225.21 577.35C1225.17 577.8 1225.14 578.17 1225.1 578.6C1223.95 577.87 1223.12 576.92 1222.56 575.69C1222.36 577.26 1221.69 578.58 1220.54 579.71C1220.38 579.26 1220.24 578.88 1220.07 578.4C1219.44 580.05 1218.38 581.19 1216.78 581.89C1216.75 581.53 1216.73 581.23 1216.7 580.85C1215.82 581.73 1214.92 582.44 1213.74 582.81C1213.7 582.51 1213.67 582.26 1213.64 581.96C1212.59 582.74 1211.48 583.3 1210.11 583.35C1210.15 582.11 1210.6 581.02 1211.11 579.93C1210.77 579.93 1210.47 579.92 1210.1 579.91C1210.49 578.59 1211.23 577.54 1212.03 576.49C1211.66 576.46 1211.31 576.43 1210.88 576.4C1211.04 576.14 1211.14 575.93 1211.28 575.75C1212.06 574.8 1213.05 574.08 1214.03 573.35C1214.32 573.14 1214.62 572.93 1214.91 572.68C1214.5 572.76 1214.09 572.89 1213.68 572.93C1212.89 573.01 1212.09 573.07 1211.3 573.08C1210.83 573.08 1210.78 572.95 1210.96 572.51C1211.02 572.38 1211.09 572.25 1211.19 572.06C1209.44 572.25 1207.74 572.33 1206.01 571.81C1206.16 571.61 1206.28 571.44 1206.43 571.24C1204.91 571.2 1203.43 571.02 1202.02 570.37C1202.1 570.23 1202.15 570.13 1202.21 570.04C1202.27 569.96 1202.33 569.88 1202.42 569.77C1201.17 569.41 1199.91 569.15 1198.84 568.29C1199.63 567.4 1200.7 567.08 1201.72 566.64C1201.58 566.42 1201.45 566.21 1201.29 565.95C1203 565.07 1204.84 565.02 1206.69 564.89C1206.62 564.74 1206.56 564.6 1206.51 564.46C1206.4 564.2 1206.45 564.01 1206.76 563.98C1207.48 563.92 1208.21 563.84 1208.94 563.85C1209.55 563.85 1210.16 563.96 1210.79 564.03C1210.75 563.79 1210.72 563.55 1210.67 563.21C1211.53 563.28 1212.31 563.34 1213 563.39C1212.71 563.09 1212.36 562.74 1211.97 562.34C1212.27 562.12 1212.49 561.97 1212.73 561.8C1211.73 561.01 1210.6 560.38 1209.9 559.18C1210.22 559.07 1210.49 558.99 1210.79 558.89C1210.18 558.17 1209.58 557.44 1209.29 556.45C1209.84 556.41 1210.36 556.37 1210.93 556.32C1210.54 555.16 1210.36 553.99 1210.45 552.75C1211.66 552.94 1212.68 553.47 1213.62 554.18C1213.82 553.83 1214.01 553.5 1214.19 553.17C1214.31 552.95 1214.47 552.9 1214.66 553.05C1215.09 553.4 1215.53 553.74 1215.91 554.15C1216.25 554.52 1216.51 554.98 1216.82 555.43C1216.95 555.1 1217.08 554.78 1217.23 554.4C1218.38 554.94 1218.96 555.93 1219.52 557.01C1219.55 556.84 1219.56 556.74 1219.58 556.63C1219.64 556.28 1219.74 556.21 1220.01 556.44C1220.46 556.83 1220.9 557.25 1221.27 557.73C1221.87 558.5 1222.25 559.39 1222.51 560.34C1222.84 559.93 1223.15 559.54 1223.51 559.1C1223.6 559.34 1223.65 559.47 1223.7 559.61C1224.03 558.97 1224.35 558.34 1224.71 557.63C1224.88 557.93 1224.98 558.12 1225.1 558.34C1225.75 557.66 1226.32 556.93 1227.25 556.58C1227.5 557.33 1227.59 558.08 1227.5 558.82C1227.41 559.54 1227.2 560.25 1227.04 561C1227.3 561 1227.63 560.99 1228 560.98C1227.81 562.17 1227.22 563.14 1226.51 564.08C1226.76 564.11 1226.97 564.14 1227.22 564.17C1226.94 565.35 1226.24 566.22 1225.39 567.09C1226.65 566.83 1227.82 566.81 1228.98 567.02C1229.81 567.17 1230.63 567.44 1231.45 567.68C1231.89 567.81 1232.05 568.13 1232.04 568.59C1232.02 569.27 1231.78 569.83 1231.26 570.27C1231.01 570.49 1230.78 570.52 1230.46 570.37C1229.61 569.98 1228.76 569.59 1227.88 569.28C1227.01 568.97 1226.1 568.89 1225.18 569.09C1225.09 569.11 1225 569.13 1224.92 569.16C1224.88 569.17 1224.84 569.2 1224.76 569.23C1225.98 570.01 1226.77 571.06 1227.02 572.49C1226.75 572.51 1226.51 572.53 1226.17 572.56C1227.43 573.5 1228.09 574.74 1228.47 576.16C1228.16 576.09 1227.88 576.03 1227.52 575.96C1227.96 576.99 1228.03 577.96 1227.84 578.99L1227.83 578.95Z" fill="url(#paint8_linear_956_64)"/>
<path d="M1178.18 448.95C1178.87 449.75 1179.24 450.65 1179.45 451.72C1179.73 451.37 1179.96 451.09 1180.23 450.75C1180.77 451.98 1180.93 453.23 1180.7 454.55C1181.74 453.37 1183.01 452.66 1184.58 452.37C1184.47 452.83 1184.37 453.21 1184.24 453.71C1185.68 452.7 1187.17 452.36 1188.87 452.67C1188.7 452.98 1188.55 453.24 1188.36 453.57C1189.57 453.34 1190.71 453.25 1191.88 453.6C1191.75 453.86 1191.63 454.09 1191.5 454.35C1192.8 454.3 1194.02 454.45 1195.17 455.16C1194.45 456.16 1193.48 456.8 1192.45 457.42C1192.73 457.62 1192.97 457.79 1193.27 458C1192.22 458.87 1191.03 459.32 1189.79 459.74C1190.08 459.97 1190.35 460.18 1190.68 460.45C1190.41 460.57 1190.21 460.7 1189.99 460.76C1188.82 461.1 1187.61 461.15 1186.4 461.2C1186.04 461.21 1185.68 461.21 1185.31 461.27C1185.69 461.43 1186.1 461.55 1186.46 461.75C1187.15 462.12 1187.84 462.51 1188.5 462.94C1188.89 463.19 1188.86 463.34 1188.47 463.6C1188.35 463.68 1188.22 463.74 1188.03 463.84C1189.57 464.65 1191.02 465.53 1192.15 466.92C1191.92 467 1191.72 467.07 1191.49 467.16C1192.72 468.04 1193.83 469 1194.63 470.32C1194.49 470.39 1194.39 470.44 1194.29 470.49C1194.2 470.53 1194.1 470.55 1193.97 470.6C1194.79 471.58 1195.68 472.5 1196.1 473.8C1194.95 474.09 1193.9 473.77 1192.82 473.56C1192.82 473.82 1192.8 474.06 1192.79 474.36C1190.9 474.13 1189.36 473.16 1187.76 472.24C1187.73 472.4 1187.7 472.55 1187.67 472.7C1187.61 472.97 1187.47 473.11 1187.2 472.95C1186.57 472.59 1185.93 472.26 1185.34 471.85C1184.84 471.51 1184.4 471.08 1183.92 470.68C1183.82 470.9 1183.71 471.11 1183.56 471.42C1182.89 470.89 1182.28 470.41 1181.74 469.98C1181.81 470.38 1181.9 470.87 1182 471.42C1181.63 471.42 1181.37 471.44 1181.08 471.44C1181.46 472.64 1182.04 473.79 1181.95 475.17C1181.62 475.08 1181.36 475 1181.06 474.91C1181.16 475.84 1181.25 476.77 1180.94 477.75C1180.47 477.48 1180.02 477.23 1179.52 476.94C1179.2 478.11 1178.7 479.17 1177.93 480.14C1177.04 479.32 1176.5 478.31 1176.12 477.21C1175.77 477.39 1175.43 477.55 1175.09 477.73C1174.87 477.84 1174.71 477.79 1174.64 477.56C1174.49 477.03 1174.31 476.51 1174.23 475.97C1174.16 475.47 1174.2 474.96 1174.19 474.41C1173.9 474.61 1173.61 474.8 1173.28 475.03C1172.63 473.95 1172.7 472.81 1172.84 471.61C1172.73 471.73 1172.65 471.81 1172.58 471.89C1172.34 472.15 1172.21 472.15 1172.12 471.81C1171.97 471.24 1171.84 470.65 1171.8 470.06C1171.74 469.1 1171.91 468.15 1172.23 467.23C1171.73 467.38 1171.26 467.53 1170.72 467.7C1170.78 467.46 1170.81 467.32 1170.85 467.18C1170.23 467.53 1169.61 467.87 1168.93 468.25C1168.96 467.91 1168.98 467.7 1169 467.45C1168.09 467.65 1167.21 467.93 1166.26 467.71C1166.47 466.96 1166.81 466.29 1167.3 465.73C1167.78 465.19 1168.34 464.72 1168.89 464.2C1168.68 464.06 1168.4 463.88 1168.09 463.68C1168.9 462.81 1169.93 462.34 1171.04 461.96C1170.85 461.8 1170.69 461.66 1170.5 461.49C1171.38 460.68 1172.44 460.35 1173.62 460.1C1172.44 459.62 1171.47 458.98 1170.63 458.16C1170.03 457.57 1169.51 456.9 1168.97 456.25C1168.68 455.9 1168.72 455.55 1168.99 455.17C1169.39 454.62 1169.89 454.3 1170.56 454.22C1170.89 454.18 1171.09 454.29 1171.27 454.58C1171.75 455.37 1172.23 456.16 1172.78 456.91C1173.32 457.64 1174.02 458.22 1174.89 458.56C1174.97 458.59 1175.06 458.62 1175.14 458.65C1175.18 458.66 1175.22 458.66 1175.31 458.68C1174.74 457.36 1174.67 456.07 1175.26 454.75L1175.99 455.16C1175.48 453.69 1175.62 452.31 1176.09 450.93C1176.31 451.16 1176.51 451.36 1176.76 451.62C1176.96 450.53 1177.45 449.7 1178.17 448.95H1178.18Z" fill="url(#paint9_linear_956_64)"/>
<path d="M1196.1 504.54C1196.96 504.01 1197.85 503.8 1198.89 503.76C1198.61 503.45 1198.37 503.18 1198.09 502.88C1199.33 502.55 1200.52 502.6 1201.73 503C1200.78 501.85 1200.3 500.54 1200.26 499.02C1200.67 499.2 1201.02 499.35 1201.47 499.54C1200.74 498.04 1200.64 496.58 1201.18 495.03C1201.44 495.24 1201.66 495.42 1201.95 495.64C1201.91 494.46 1202 493.39 1202.5 492.33C1202.73 492.49 1202.92 492.64 1203.15 492.8C1203.29 491.57 1203.62 490.45 1204.46 489.47C1205.29 490.29 1205.75 491.3 1206.18 492.36C1206.41 492.13 1206.6 491.93 1206.85 491.67C1207.51 492.79 1207.76 493.97 1207.97 495.2C1208.23 494.96 1208.47 494.74 1208.77 494.47C1208.85 494.74 1208.93 494.95 1208.96 495.17C1209.11 496.32 1208.98 497.47 1208.84 498.61C1208.8 498.95 1208.75 499.29 1208.74 499.65C1208.95 499.31 1209.12 498.95 1209.36 498.64C1209.81 498.04 1210.28 497.46 1210.79 496.9C1211.08 496.57 1211.22 496.62 1211.4 497.03C1211.46 497.15 1211.49 497.29 1211.56 497.48C1212.55 496.15 1213.59 494.92 1215.07 494.07C1215.11 494.3 1215.15 494.49 1215.19 494.73C1216.2 493.7 1217.27 492.8 1218.63 492.25C1218.67 492.39 1218.71 492.49 1218.74 492.59C1218.76 492.68 1218.77 492.78 1218.79 492.91C1219.84 492.28 1220.83 491.58 1222.12 491.39C1222.22 492.51 1221.76 493.45 1221.4 494.44C1221.64 494.49 1221.87 494.53 1222.15 494.59C1221.65 496.34 1220.51 497.64 1219.4 499C1219.55 499.05 1219.68 499.1 1219.82 499.15C1220.07 499.24 1220.17 499.4 1219.99 499.63C1219.56 500.17 1219.15 500.72 1218.68 501.22C1218.28 501.64 1217.82 501.99 1217.37 502.38C1217.56 502.51 1217.74 502.64 1218.02 502.83C1217.42 503.38 1216.88 503.88 1216.39 504.32C1216.78 504.32 1217.25 504.3 1217.78 504.29C1217.73 504.64 1217.7 504.89 1217.67 505.16C1218.86 504.98 1220.02 504.61 1221.3 504.89C1221.16 505.18 1221.05 505.42 1220.93 505.69C1221.82 505.73 1222.71 505.79 1223.58 506.23L1222.61 507.45C1223.66 507.93 1224.58 508.55 1225.38 509.42C1224.47 510.13 1223.45 510.5 1222.35 510.68C1222.46 511.04 1222.57 511.38 1222.68 511.73C1222.75 511.95 1222.68 512.1 1222.46 512.13C1221.94 512.2 1221.42 512.29 1220.9 512.28C1220.42 512.28 1219.94 512.16 1219.43 512.08C1219.57 512.38 1219.71 512.68 1219.88 513.02C1218.77 513.47 1217.71 513.23 1216.6 512.92C1216.7 513.05 1216.76 513.13 1216.82 513.21C1217.03 513.47 1217.01 513.59 1216.68 513.63C1216.12 513.69 1215.54 513.72 1214.98 513.67C1214.07 513.59 1213.21 513.28 1212.38 512.84C1212.45 513.33 1212.52 513.8 1212.59 514.33C1212.37 514.24 1212.25 514.19 1212.12 514.13C1212.35 514.77 1212.58 515.39 1212.84 516.1C1212.52 516.02 1212.33 515.97 1212.1 515.91C1212.15 516.8 1212.29 517.66 1211.93 518.53C1211.25 518.22 1210.68 517.8 1210.22 517.26C1209.78 516.73 1209.43 516.13 1209.02 515.54C1208.86 515.72 1208.65 515.95 1208.41 516.21C1207.71 515.32 1207.43 514.28 1207.23 513.18C1207.05 513.33 1206.89 513.46 1206.71 513.61C1206.08 512.66 1205.93 511.62 1205.87 510.47C1205.24 511.51 1204.5 512.33 1203.6 512.99C1202.96 513.47 1202.25 513.86 1201.56 514.27C1201.19 514.49 1200.87 514.4 1200.55 514.09C1200.09 513.64 1199.86 513.12 1199.89 512.47C1199.9 512.16 1200.03 511.98 1200.34 511.85C1201.16 511.52 1201.97 511.18 1202.75 510.78C1203.52 510.38 1204.17 509.81 1204.62 509.05C1204.66 508.98 1204.71 508.9 1204.74 508.82C1204.76 508.78 1204.77 508.74 1204.79 508.66C1203.47 509 1202.24 508.87 1201.09 508.13C1201.25 507.93 1201.39 507.75 1201.59 507.5C1200.13 507.76 1198.85 507.42 1197.63 506.78C1197.88 506.61 1198.1 506.45 1198.38 506.26C1197.38 505.9 1196.68 505.32 1196.08 504.53L1196.1 504.54Z" fill="url(#paint10_linear_956_64)"/>
<path d="M1178.9 416.71C1180.35 415.82 1181.87 415.45 1183.62 415.39C1183.14 414.86 1182.74 414.42 1182.27 413.9C1184.37 413.35 1186.39 413.42 1188.44 414.1C1186.83 412.15 1186.01 409.94 1185.95 407.37C1186.65 407.67 1187.24 407.92 1187.99 408.24C1186.75 405.7 1186.58 403.23 1187.5 400.6C1187.95 400.96 1188.32 401.26 1188.8 401.64C1188.74 399.65 1188.89 397.82 1189.74 396.04C1190.12 396.32 1190.45 396.56 1190.84 396.84C1191.08 394.76 1191.63 392.85 1193.06 391.21C1194.47 392.61 1195.25 394.31 1195.97 396.11C1196.35 395.72 1196.69 395.37 1197.1 394.95C1198.21 396.84 1198.64 398.85 1198.99 400.93C1199.43 400.53 1199.84 400.16 1200.35 399.69C1200.48 400.15 1200.62 400.5 1200.67 400.87C1200.92 402.82 1200.7 404.76 1200.47 406.7C1200.4 407.28 1200.31 407.85 1200.3 408.46C1200.65 407.89 1200.95 407.28 1201.36 406.75C1202.13 405.74 1202.93 404.75 1203.77 403.8C1204.27 403.25 1204.49 403.33 1204.81 404.02C1204.91 404.23 1204.97 404.46 1205.08 404.78C1206.76 402.53 1208.52 400.44 1211.02 399C1211.09 399.39 1211.15 399.72 1211.23 400.11C1212.94 398.37 1214.75 396.84 1217.06 395.91C1217.14 396.15 1217.2 396.32 1217.24 396.49C1217.28 396.65 1217.29 396.81 1217.33 397.03C1219.11 395.97 1220.79 394.78 1222.96 394.45C1223.13 396.35 1222.35 397.95 1221.75 399.62C1222.16 399.7 1222.54 399.77 1223.02 399.87C1222.18 402.83 1220.25 405.04 1218.37 407.34C1218.62 407.43 1218.85 407.51 1219.08 407.6C1219.5 407.76 1219.68 408.02 1219.36 408.42C1218.63 409.33 1217.94 410.26 1217.15 411.11C1216.48 411.82 1215.69 412.42 1214.93 413.08C1215.25 413.3 1215.56 413.52 1216.02 413.84C1215.01 414.77 1214.08 415.62 1213.26 416.37C1213.92 416.36 1214.72 416.34 1215.61 416.32C1215.53 416.91 1215.48 417.33 1215.42 417.79C1217.43 417.49 1219.4 416.85 1221.58 417.34C1221.35 417.83 1221.16 418.23 1220.95 418.69C1222.46 418.76 1223.96 418.86 1225.44 419.6C1224.89 420.28 1224.37 420.94 1223.8 421.66C1225.58 422.47 1227.14 423.53 1228.49 425C1226.95 426.21 1225.21 426.82 1223.36 427.14C1223.55 427.75 1223.73 428.33 1223.92 428.91C1224.05 429.29 1223.92 429.54 1223.54 429.59C1222.66 429.7 1221.78 429.86 1220.9 429.85C1220.09 429.85 1219.28 429.64 1218.41 429.52C1218.65 430.03 1218.89 430.54 1219.17 431.12C1217.29 431.88 1215.49 431.48 1213.62 430.96C1213.79 431.17 1213.89 431.31 1214 431.44C1214.35 431.88 1214.32 432.09 1213.75 432.15C1212.8 432.25 1211.83 432.3 1210.88 432.22C1209.33 432.08 1207.87 431.56 1206.48 430.82C1206.6 431.65 1206.71 432.45 1206.84 433.35C1206.47 433.19 1206.26 433.11 1206.04 433.02C1206.44 434.1 1206.82 435.16 1207.26 436.35C1206.73 436.22 1206.4 436.13 1206 436.03C1206.09 437.53 1206.32 439 1205.72 440.46C1204.57 439.93 1203.6 439.22 1202.83 438.31C1202.08 437.42 1201.48 436.4 1200.79 435.4C1200.52 435.7 1200.16 436.1 1199.76 436.54C1198.58 435.03 1198.1 433.27 1197.76 431.41C1197.45 431.67 1197.19 431.89 1196.88 432.15C1195.81 430.54 1195.55 428.78 1195.45 426.83C1194.38 428.59 1193.12 429.98 1191.61 431.1C1190.52 431.91 1189.32 432.57 1188.15 433.26C1187.52 433.63 1186.97 433.48 1186.44 432.95C1185.67 432.18 1185.28 431.3 1185.32 430.21C1185.34 429.68 1185.56 429.38 1186.08 429.17C1187.46 428.61 1188.84 428.04 1190.16 427.35C1191.46 426.67 1192.56 425.7 1193.32 424.41C1193.39 424.29 1193.46 424.16 1193.53 424.03C1193.56 423.97 1193.57 423.9 1193.62 423.76C1191.38 424.33 1189.3 424.12 1187.35 422.85C1187.62 422.51 1187.86 422.21 1188.2 421.79C1185.73 422.24 1183.57 421.66 1181.49 420.56C1181.91 420.27 1182.28 420.01 1182.76 419.67C1181.07 419.07 1179.87 418.08 1178.86 416.75L1178.9 416.71Z" fill="url(#paint11_linear_956_64)"/>
<path d="M1314.45 660.26C1315.31 659.73 1316.2 659.52 1317.24 659.48C1316.96 659.17 1316.72 658.9 1316.44 658.6C1317.68 658.27 1318.87 658.32 1320.08 658.72C1319.13 657.57 1318.65 656.26 1318.61 654.74C1319.02 654.92 1319.37 655.07 1319.82 655.26C1319.09 653.76 1318.99 652.3 1319.53 650.75C1319.79 650.96 1320.01 651.14 1320.3 651.36C1320.26 650.18 1320.35 649.11 1320.85 648.05C1321.08 648.21 1321.27 648.36 1321.5 648.52C1321.64 647.29 1321.97 646.17 1322.81 645.19C1323.64 646.01 1324.1 647.02 1324.53 648.08C1324.76 647.85 1324.95 647.65 1325.2 647.39C1325.86 648.51 1326.11 649.69 1326.32 650.92C1326.58 650.68 1326.82 650.46 1327.12 650.19C1327.2 650.46 1327.28 650.67 1327.31 650.89C1327.46 652.04 1327.33 653.19 1327.19 654.33C1327.15 654.67 1327.1 655.01 1327.09 655.37C1327.3 655.03 1327.47 654.67 1327.71 654.36C1328.16 653.76 1328.63 653.18 1329.14 652.62C1329.43 652.29 1329.57 652.34 1329.75 652.75C1329.81 652.87 1329.84 653.01 1329.91 653.2C1330.9 651.87 1331.94 650.64 1333.42 649.79C1333.46 650.02 1333.5 650.21 1333.54 650.45C1334.55 649.42 1335.62 648.52 1336.98 647.97C1337.02 648.11 1337.06 648.21 1337.09 648.31C1337.11 648.4 1337.12 648.5 1337.14 648.63C1338.19 648 1339.18 647.3 1340.47 647.11C1340.57 648.23 1340.11 649.17 1339.75 650.16C1339.99 650.21 1340.22 650.25 1340.5 650.31C1340 652.06 1338.86 653.36 1337.75 654.72C1337.9 654.77 1338.03 654.82 1338.17 654.87C1338.42 654.96 1338.52 655.12 1338.34 655.35C1337.91 655.89 1337.5 656.44 1337.03 656.94C1336.63 657.36 1336.17 657.71 1335.72 658.1C1335.91 658.23 1336.09 658.36 1336.37 658.55C1335.77 659.1 1335.23 659.6 1334.74 660.04C1335.13 660.04 1335.6 660.02 1336.13 660.01C1336.08 660.36 1336.05 660.61 1336.02 660.88C1337.21 660.7 1338.37 660.33 1339.65 660.61C1339.51 660.9 1339.4 661.14 1339.28 661.41C1340.17 661.45 1341.06 661.51 1341.93 661.95C1341.61 662.35 1341.3 662.74 1340.96 663.17C1342.01 663.65 1342.93 664.27 1343.73 665.14C1342.82 665.85 1341.8 666.22 1340.7 666.4C1340.81 666.76 1340.92 667.1 1341.03 667.45C1341.1 667.67 1341.03 667.82 1340.81 667.85C1340.29 667.92 1339.77 668.01 1339.25 668C1338.77 668 1338.29 667.88 1337.78 667.8C1337.92 668.1 1338.06 668.4 1338.23 668.74C1337.12 669.19 1336.06 668.95 1334.95 668.64C1335.05 668.77 1335.11 668.85 1335.17 668.93C1335.38 669.19 1335.36 669.31 1335.03 669.35C1334.47 669.41 1333.89 669.44 1333.33 669.39C1332.42 669.31 1331.56 669 1330.73 668.56C1330.8 669.05 1330.87 669.52 1330.94 670.05C1330.72 669.96 1330.6 669.91 1330.47 669.85C1330.7 670.49 1330.93 671.11 1331.19 671.82C1330.87 671.74 1330.68 671.69 1330.45 671.63C1330.5 672.52 1330.64 673.38 1330.28 674.25C1329.6 673.94 1329.03 673.52 1328.57 672.98C1328.13 672.45 1327.78 671.85 1327.37 671.26C1327.21 671.44 1327 671.67 1326.76 671.93C1326.06 671.04 1325.78 670 1325.58 668.9C1325.4 669.05 1325.24 669.18 1325.06 669.33C1324.43 668.38 1324.28 667.34 1324.22 666.19C1323.59 667.23 1322.85 668.05 1321.95 668.71C1321.31 669.19 1320.6 669.58 1319.91 669.99C1319.54 670.21 1319.22 670.12 1318.9 669.81C1318.44 669.36 1318.21 668.84 1318.24 668.19C1318.25 667.88 1318.38 667.7 1318.69 667.57C1319.51 667.24 1320.32 666.9 1321.1 666.5C1321.87 666.1 1322.52 665.53 1322.97 664.77C1323.01 664.7 1323.06 664.62 1323.09 664.54C1323.11 664.5 1323.12 664.46 1323.14 664.38C1321.82 664.72 1320.59 664.59 1319.44 663.85L1319.94 663.22C1318.48 663.48 1317.2 663.14 1315.98 662.5C1316.23 662.33 1316.45 662.17 1316.73 661.98C1315.73 661.62 1315.03 661.04 1314.43 660.25L1314.45 660.26Z" fill="url(#paint12_linear_956_64)"/>
<path d="M1349.45 480.12C1348.76 479.32 1348.39 478.42 1348.19 477.35C1347.91 477.7 1347.68 477.98 1347.41 478.32C1346.87 477.09 1346.72 475.84 1346.94 474.52C1345.9 475.7 1344.63 476.41 1343.06 476.7C1343.17 476.24 1343.27 475.86 1343.4 475.36C1341.97 476.37 1340.47 476.71 1338.77 476.4C1338.94 476.09 1339.09 475.83 1339.28 475.5C1338.07 475.73 1336.93 475.82 1335.76 475.47C1335.89 475.21 1336.01 474.98 1336.14 474.72C1334.85 474.77 1333.62 474.62 1332.48 473.91C1333.2 472.91 1334.17 472.27 1335.2 471.65C1334.92 471.45 1334.68 471.28 1334.38 471.07C1335.43 470.2 1336.62 469.75 1337.86 469.33C1337.57 469.1 1337.3 468.89 1336.97 468.62C1337.24 468.5 1337.44 468.37 1337.66 468.31C1338.83 467.97 1340.04 467.92 1341.25 467.87C1341.61 467.86 1341.97 467.86 1342.34 467.8C1341.96 467.64 1341.55 467.52 1341.19 467.32C1340.5 466.95 1339.81 466.56 1339.15 466.13C1338.76 465.88 1338.79 465.73 1339.18 465.47C1339.3 465.39 1339.43 465.33 1339.62 465.23C1338.08 464.42 1336.63 463.54 1335.5 462.15C1335.73 462.07 1335.93 462 1336.16 461.91C1334.93 461.03 1333.82 460.07 1333.02 458.75C1333.16 458.68 1333.26 458.63 1333.36 458.58C1333.45 458.54 1333.55 458.52 1333.68 458.47C1332.86 457.49 1331.97 456.57 1331.55 455.27C1332.69 454.98 1333.75 455.3 1334.83 455.51C1334.83 455.25 1334.85 455.01 1334.86 454.71C1336.75 454.94 1338.29 455.91 1339.89 456.83C1339.92 456.67 1339.95 456.52 1339.98 456.37C1340.04 456.1 1340.18 455.96 1340.45 456.12C1341.08 456.48 1341.72 456.81 1342.31 457.21C1342.81 457.55 1343.25 457.98 1343.73 458.38C1343.83 458.16 1343.94 457.95 1344.09 457.64C1344.76 458.17 1345.37 458.65 1345.91 459.08C1345.84 458.68 1345.75 458.19 1345.65 457.64C1346.02 457.64 1346.28 457.62 1346.57 457.62C1346.19 456.42 1345.61 455.27 1345.7 453.89C1346.03 453.98 1346.29 454.06 1346.59 454.15C1346.49 453.22 1346.4 452.29 1346.71 451.31C1347.18 451.58 1347.63 451.83 1348.13 452.12C1348.45 450.95 1348.95 449.89 1349.72 448.92C1350.61 449.74 1351.15 450.75 1351.53 451.85C1351.88 451.67 1352.22 451.51 1352.56 451.33C1352.78 451.22 1352.94 451.27 1353.01 451.5C1353.16 452.03 1353.34 452.55 1353.42 453.09C1353.49 453.59 1353.45 454.1 1353.46 454.65C1353.75 454.45 1354.04 454.26 1354.37 454.03C1355.02 455.11 1354.95 456.25 1354.81 457.44C1354.92 457.32 1355 457.24 1355.07 457.16C1355.31 456.9 1355.44 456.9 1355.53 457.24C1355.68 457.81 1355.81 458.4 1355.85 458.99C1355.91 459.95 1355.74 460.9 1355.42 461.82C1355.92 461.67 1356.39 461.52 1356.93 461.35C1356.87 461.59 1356.84 461.73 1356.8 461.87C1357.42 461.52 1358.03 461.18 1358.72 460.8C1358.69 461.14 1358.67 461.35 1358.65 461.6C1359.56 461.4 1360.44 461.12 1361.39 461.34C1361.18 462.09 1360.84 462.76 1360.35 463.32C1359.87 463.86 1359.31 464.33 1358.76 464.85C1358.97 464.99 1359.25 465.17 1359.56 465.37C1358.75 466.24 1357.72 466.71 1356.61 467.09C1356.8 467.25 1356.96 467.39 1357.15 467.56C1356.27 468.37 1355.21 468.7 1354.03 468.95C1355.21 469.43 1356.18 470.07 1357.02 470.89C1357.62 471.48 1358.14 472.15 1358.68 472.8C1358.97 473.15 1358.93 473.5 1358.66 473.88C1358.26 474.43 1357.76 474.75 1357.09 474.83C1356.76 474.87 1356.56 474.76 1356.38 474.47C1355.9 473.68 1355.42 472.89 1354.87 472.15C1354.33 471.42 1353.63 470.84 1352.76 470.5C1352.68 470.47 1352.59 470.44 1352.51 470.41C1352.47 470.4 1352.43 470.4 1352.34 470.38C1352.91 471.7 1352.98 472.99 1352.39 474.31C1352.16 474.18 1351.95 474.06 1351.66 473.9C1352.17 475.37 1352.03 476.75 1351.56 478.13C1351.34 477.9 1351.14 477.7 1350.89 477.44C1350.69 478.53 1350.2 479.36 1349.48 480.11L1349.45 480.12Z" fill="url(#paint13_linear_956_64)"/>
<path d="M1289.05 544.71C1291.55 542.41 1294.4 541.11 1297.82 540.32C1296.68 539.46 1295.72 538.74 1294.6 537.91C1298.51 536.03 1302.5 535.39 1306.79 535.96C1302.88 532.75 1300.44 528.72 1299.32 523.69C1300.8 524.01 1302.07 524.28 1303.67 524.63C1300.26 520.12 1298.99 515.33 1299.78 509.81C1300.79 510.34 1301.64 510.78 1302.73 511.35C1301.85 507.46 1301.45 503.82 1302.43 499.99C1303.29 500.39 1304.03 500.73 1304.9 501.14C1304.58 496.97 1304.93 493.01 1307.11 489.24C1310.41 491.44 1312.59 494.5 1314.69 497.75C1315.29 496.83 1315.82 496.03 1316.47 495.04C1319.38 498.32 1320.98 502.11 1322.47 506.06C1323.18 505.1 1323.84 504.22 1324.66 503.1C1325.09 503.96 1325.51 504.59 1325.74 505.29C1326.98 509.02 1327.28 512.92 1327.57 516.8C1327.66 517.96 1327.69 519.12 1327.91 520.32C1328.38 519.06 1328.74 517.76 1329.33 516.56C1330.46 514.28 1331.64 512.03 1332.95 509.85C1333.72 508.57 1334.19 508.65 1335.07 509.88C1335.34 510.26 1335.55 510.68 1335.9 511.27C1338.34 506.21 1341.01 501.44 1345.36 497.65C1345.65 498.39 1345.9 499.01 1346.19 499.75C1348.88 495.69 1351.85 491.99 1356.03 489.28C1356.27 489.72 1356.46 490.03 1356.6 490.35C1356.73 490.64 1356.83 490.96 1356.98 491.38C1360.06 488.61 1362.92 485.64 1367.05 484.17C1368.11 487.83 1367.19 491.27 1366.64 494.77C1367.48 494.77 1368.25 494.77 1369.23 494.77C1368.7 500.9 1365.75 505.97 1362.95 511.21C1363.48 511.29 1363.96 511.36 1364.43 511.45C1365.32 511.6 1365.77 512.05 1365.29 512.95C1364.21 515.01 1363.21 517.11 1361.97 519.07C1360.93 520.72 1359.6 522.19 1358.36 523.79C1359.07 524.1 1359.77 524.41 1360.8 524.86C1359.17 527.06 1357.67 529.09 1356.35 530.88C1357.64 530.6 1359.21 530.26 1360.95 529.88C1361.02 531.06 1361.07 531.92 1361.13 532.85C1364.97 531.5 1368.59 529.49 1373.04 529.61C1372.78 530.67 1372.56 531.52 1372.32 532.51C1375.31 532.07 1378.3 531.7 1381.47 532.58C1380.66 534.13 1379.88 535.62 1379.03 537.25C1382.83 538.16 1386.3 539.64 1389.52 542.01C1386.96 544.97 1383.78 546.84 1380.27 548.16C1380.88 549.28 1381.45 550.36 1382.05 551.42C1382.44 552.11 1382.3 552.65 1381.57 552.89C1379.89 553.44 1378.21 554.08 1376.48 554.4C1374.88 554.69 1373.22 554.61 1371.47 554.69C1372.14 555.6 1372.8 556.5 1373.56 557.54C1370.15 559.74 1366.48 559.65 1362.6 559.34C1363.01 559.69 1363.27 559.92 1363.53 560.15C1364.38 560.89 1364.41 561.31 1363.32 561.64C1361.49 562.2 1359.6 562.68 1357.71 562.87C1354.62 563.19 1351.56 562.72 1348.53 561.8C1349.08 563.39 1349.61 564.91 1350.21 566.62C1349.42 566.46 1348.98 566.36 1348.52 566.27C1349.71 568.24 1350.87 570.17 1352.19 572.35C1351.09 572.29 1350.42 572.25 1349.6 572.21C1350.35 575.12 1351.35 577.91 1350.74 581.01C1348.28 580.42 1346.1 579.39 1344.25 577.88C1342.44 576.41 1340.88 574.64 1339.14 572.94C1338.72 573.64 1338.17 574.55 1337.56 575.57C1334.67 573.05 1333.04 569.79 1331.68 566.26C1331.18 566.88 1330.74 567.42 1330.24 568.04C1327.53 565.29 1326.35 561.93 1325.41 558.13C1323.98 561.99 1322.04 565.2 1319.51 567.97C1317.68 569.97 1315.58 571.73 1313.55 573.54C1312.46 574.51 1311.32 574.42 1310.08 573.58C1308.27 572.36 1307.17 570.79 1306.84 568.63C1306.68 567.58 1306.99 566.9 1307.93 566.29C1310.43 564.66 1312.93 563.02 1315.25 561.16C1317.55 559.33 1319.33 557.01 1320.34 554.18C1320.44 553.91 1320.53 553.63 1320.61 553.35C1320.65 553.22 1320.64 553.08 1320.68 552.79C1316.5 554.77 1312.33 555.14 1308.02 553.41C1308.42 552.64 1308.78 551.95 1309.27 551.01C1304.58 552.83 1300.13 552.52 1295.62 551.16C1296.33 550.43 1296.97 549.77 1297.78 548.93C1294.24 548.39 1291.51 546.91 1289.02 544.68L1289.05 544.71Z" fill="url(#paint14_linear_956_64)"/>
<path d="M1244.3 655.2C1244.32 651.82 1245.31 648.86 1247.06 645.84C1245.66 646.09 1244.49 646.3 1243.12 646.55C1244.4 642.43 1246.65 639.09 1249.97 636.36C1244.98 637.03 1240.39 636.07 1235.98 633.47C1237.22 632.61 1238.27 631.87 1239.61 630.94C1234.01 630.36 1229.66 628.04 1226.19 623.72C1227.26 623.34 1228.16 623.02 1229.31 622.62C1225.88 620.63 1222.97 618.45 1220.84 615.13C1221.72 614.77 1222.47 614.47 1223.35 614.11C1220.1 611.52 1217.45 608.58 1216.19 604.42C1220.03 603.51 1223.73 604 1227.52 604.68C1227.26 603.62 1227.04 602.69 1226.75 601.54C1231.11 601.65 1234.95 603.05 1238.83 604.65C1238.62 603.48 1238.42 602.41 1238.17 601.05C1239.09 601.32 1239.83 601.45 1240.5 601.75C1244.06 603.38 1247.09 605.81 1250.12 608.23C1251.02 608.95 1251.89 609.71 1252.91 610.37C1252.31 609.18 1251.61 608.03 1251.14 606.79C1250.25 604.43 1249.41 602.03 1248.71 599.61C1248.3 598.19 1248.68 597.9 1250.17 598.09C1250.63 598.15 1251.08 598.28 1251.75 598.43C1249.73 593.22 1248.07 588.05 1248.26 582.31C1249 582.6 1249.61 582.84 1250.36 583.13C1249.23 578.42 1248.56 573.75 1249.42 568.87C1249.91 569 1250.25 569.07 1250.59 569.18C1250.9 569.28 1251.19 569.43 1251.6 569.6C1251.68 565.48 1251.45 561.38 1253.19 557.38C1256.57 559.09 1258.45 562.09 1260.63 564.87C1261.2 564.26 1261.72 563.69 1262.38 562.98C1266.48 567.52 1268.17 573.11 1270.08 578.7C1270.5 578.37 1270.87 578.07 1271.26 577.78C1271.97 577.24 1272.6 577.22 1272.94 578.17C1273.71 580.35 1274.56 582.51 1275.14 584.74C1275.63 586.62 1275.8 588.58 1276.12 590.57C1276.83 590.26 1277.53 589.96 1278.55 589.52C1279.05 592.2 1279.5 594.66 1279.91 596.84C1280.58 595.71 1281.39 594.34 1282.3 592.82C1283.21 593.57 1283.87 594.11 1284.58 594.7C1286.2 590.99 1287.2 587 1290.31 583.84C1290.9 584.75 1291.38 585.48 1291.93 586.33C1293.64 583.86 1295.39 581.43 1298.19 579.72C1298.77 581.36 1299.32 582.93 1299.93 584.66C1303.17 582.51 1306.6 581 1310.51 580.26C1310.93 584.13 1310.13 587.71 1308.71 591.16C1309.94 591.48 1311.11 591.79 1312.29 592.07C1313.06 592.25 1313.36 592.72 1313.03 593.42C1312.29 595.02 1311.62 596.67 1310.67 598.15C1309.8 599.51 1308.61 600.66 1307.48 602C1308.6 602.13 1309.7 602.26 1310.97 602.41C1310.26 606.38 1307.7 608.99 1304.84 611.6C1305.37 611.54 1305.71 611.51 1306.05 611.47C1307.17 611.35 1307.49 611.62 1306.99 612.63C1306.15 614.34 1305.22 616.04 1304.08 617.55C1302.21 620.01 1299.79 621.92 1297.07 623.51C1298.6 624.19 1300.06 624.83 1301.72 625.56C1301.07 626.02 1300.7 626.29 1300.32 626.55C1302.56 627.02 1304.76 627.49 1307.23 628.01C1306.44 628.77 1305.96 629.23 1305.37 629.8C1308 631.23 1310.71 632.4 1312.55 634.94C1310.45 636.32 1308.23 637.22 1305.87 637.54C1303.57 637.86 1301.22 637.8 1298.81 637.9C1299.03 638.68 1299.33 639.7 1299.65 640.83C1295.85 641.22 1292.38 640.2 1288.89 638.79C1289 639.57 1289.09 640.26 1289.21 641.05C1285.37 641.16 1282.12 639.74 1278.72 637.84C1280.56 641.5 1281.58 645.08 1281.88 648.81C1282.09 651.5 1281.95 654.22 1281.88 656.93C1281.84 658.38 1281.01 659.15 1279.56 659.48C1277.45 659.97 1275.55 659.71 1273.76 658.48C1272.89 657.88 1272.61 657.2 1272.8 656.1C1273.31 653.18 1273.81 650.24 1274.04 647.29C1274.27 644.37 1273.78 641.51 1272.42 638.85C1272.29 638.59 1272.15 638.34 1272 638.09C1271.93 637.98 1271.83 637.88 1271.64 637.66C1270.25 642.05 1267.69 645.33 1263.5 647.29C1263.21 646.47 1262.96 645.75 1262.6 644.75C1260.75 649.4 1257.5 652.43 1253.45 654.78C1253.4 653.76 1253.36 652.86 1253.3 651.7C1250.51 653.91 1247.58 654.9 1244.26 655.19L1244.3 655.2Z" fill="url(#paint15_linear_956_64)"/>
<path d="M1327.2 474.96C1323.26 475.28 1319.72 474.43 1316.02 472.7C1316.45 474.3 1316.82 475.65 1317.24 477.21C1312.31 476.14 1308.19 473.86 1304.68 470.28C1305.96 476.02 1305.32 481.46 1302.74 486.87C1301.61 485.52 1300.65 484.36 1299.43 482.9C1299.33 489.48 1297.06 494.78 1292.39 499.26C1291.84 498.05 1291.38 497.04 1290.79 495.73C1288.82 499.92 1286.58 503.54 1282.94 506.35C1282.44 505.37 1282.01 504.52 1281.5 503.53C1278.81 507.58 1275.66 510.96 1270.95 512.85C1269.5 508.47 1269.69 504.11 1270.1 499.63C1268.89 500.04 1267.84 500.4 1266.53 500.84C1266.21 495.75 1267.46 491.14 1268.92 486.46C1267.59 486.83 1266.35 487.17 1264.79 487.6C1265.01 486.5 1265.08 485.62 1265.37 484.82C1266.9 480.51 1269.42 476.73 1271.93 472.96C1272.68 471.84 1273.47 470.75 1274.14 469.5C1272.81 470.32 1271.55 471.26 1270.15 471.93C1267.49 473.21 1264.79 474.43 1262.03 475.49C1260.41 476.11 1260.04 475.7 1260.11 473.94C1260.13 473.4 1260.24 472.86 1260.35 472.07C1254.49 474.95 1248.64 477.42 1241.93 477.77C1242.19 476.88 1242.41 476.14 1242.67 475.25C1237.3 477.05 1231.93 478.3 1226.16 477.8C1226.26 477.22 1226.3 476.81 1226.4 476.41C1226.49 476.04 1226.63 475.69 1226.79 475.19C1221.99 475.52 1217.24 476.2 1212.4 474.59C1214.05 470.48 1217.35 467.99 1220.36 465.17C1219.59 464.57 1218.88 464.02 1217.99 463.32C1222.86 458.08 1229.19 455.55 1235.51 452.75C1235.09 452.3 1234.7 451.89 1234.32 451.47C1233.62 450.7 1233.53 449.96 1234.6 449.48C1237.06 448.37 1239.49 447.16 1242.02 446.25C1244.16 445.48 1246.43 445.09 1248.71 444.51C1248.28 443.71 1247.86 442.93 1247.24 441.78C1250.31 440.93 1253.13 440.14 1255.62 439.45C1254.24 438.78 1252.56 437.98 1250.69 437.08C1251.47 435.94 1252.03 435.13 1252.65 434.23C1248.16 432.72 1243.41 431.96 1239.42 428.67C1240.42 427.89 1241.23 427.26 1242.16 426.53C1239.1 424.79 1236.1 423 1233.82 419.91C1235.67 419.07 1237.45 418.26 1239.39 417.38C1236.56 413.83 1234.45 409.99 1233.19 405.51C1237.65 404.62 1241.9 405.19 1246.07 406.49C1246.31 405.03 1246.56 403.63 1246.77 402.23C1246.91 401.32 1247.42 400.92 1248.27 401.23C1250.21 401.93 1252.2 402.54 1254.02 403.49C1255.69 404.36 1257.15 405.63 1258.82 406.81C1258.86 405.5 1258.9 404.19 1258.94 402.7C1263.64 403.12 1266.94 405.83 1270.27 408.9C1270.15 408.29 1270.08 407.89 1270 407.5C1269.75 406.21 1270.03 405.81 1271.26 406.29C1273.33 407.09 1275.41 408 1277.28 409.18C1280.34 411.11 1282.81 413.73 1284.93 416.73C1285.56 414.87 1286.16 413.11 1286.84 411.11C1287.45 411.82 1287.79 412.23 1288.14 412.64C1288.46 409.98 1288.78 407.38 1289.13 404.44C1290.09 405.28 1290.68 405.8 1291.4 406.42C1292.8 403.21 1293.88 399.94 1296.66 397.54C1298.48 399.84 1299.75 402.34 1300.37 405.05C1300.97 407.69 1301.14 410.43 1301.51 413.24C1302.4 412.9 1303.55 412.46 1304.84 411.96C1305.68 416.34 1304.84 420.48 1303.56 424.69C1304.46 424.48 1305.25 424.3 1306.16 424.09C1306.68 428.55 1305.35 432.48 1303.49 436.63C1307.56 434.12 1311.63 432.56 1315.94 431.84C1319.05 431.32 1322.23 431.2 1325.39 431C1327.08 430.89 1328.06 431.79 1328.6 433.44C1329.39 435.85 1329.27 438.08 1328.02 440.29C1327.41 441.37 1326.65 441.76 1325.34 441.65C1321.89 441.35 1318.42 441.07 1314.96 441.11C1311.54 441.14 1308.25 442 1305.3 443.86C1305.01 444.04 1304.73 444.23 1304.46 444.43C1304.33 444.52 1304.24 444.65 1304 444.89C1309.25 446.07 1313.34 448.71 1316.04 453.39C1315.12 453.81 1314.3 454.18 1313.17 454.69C1318.77 456.37 1322.63 459.85 1325.78 464.32C1324.6 464.48 1323.55 464.63 1322.2 464.81C1325.06 467.84 1326.51 471.15 1327.19 474.98L1327.2 474.96Z" fill="url(#paint16_linear_956_64)"/>
</g>
<path d="M1295.67 701.959L1320.35 697.97C1369.31 690.059 1402.58 643.96 1394.67 595.006L1367.93 429.532C1360.01 380.578 1313.92 347.306 1264.96 355.217L1240.28 359.206C1191.33 367.117 1158.05 413.216 1165.97 462.17L1192.71 627.644C1200.62 676.598 1246.72 709.87 1295.67 701.959Z" stroke="black" stroke-width="18.34" stroke-linecap="round" stroke-linejoin="round"/>
<path d="M1295.67 701.959L1320.35 697.97C1369.31 690.059 1402.58 643.96 1394.67 595.006L1367.93 429.532C1360.01 380.578 1313.92 347.306 1264.96 355.217L1240.28 359.206C1191.33 367.117 1158.05 413.216 1165.97 462.17L1192.71 627.644C1200.62 676.598 1246.72 709.87 1295.67 701.959Z" stroke="black" stroke-width="18.34" stroke-linecap="round" stroke-linejoin="round"/>
<path d="M1214.43 907.79C1382.73 951.17 1440.05 796.81 1440.05 796.81C1440.05 796.81 1440.33 874.42 1386.46 933.05" stroke="black" stroke-width="18.34" stroke-linecap="round" stroke-linejoin="round"/>
</g>
</g>
<defs>
<linearGradient id="paint0_linear_956_64" x1="1569.69" y1="1031.63" x2="1768.61" y2="920.871" gradientUnits="userSpaceOnUse">
<stop stop-color="#00CFA7"/>
<stop offset="1" stop-color="#331DD1"/>
</linearGradient>
<linearGradient id="paint1_linear_956_64" x1="1681.6" y1="997.634" x2="-640.679" y2="2290.73" gradientUnits="userSpaceOnUse">
<stop stop-color="#00CFA7"/>
<stop offset="1" stop-color="#331DD1"/>
</linearGradient>
<linearGradient id="paint2_linear_956_64" x1="1805.25" y1="714.14" x2="1164.97" y2="673.632" gradientUnits="userSpaceOnUse">
<stop stop-color="#FFC700"/>
<stop offset="1" stop-color="#331DD1"/>
</linearGradient>
<linearGradient id="paint3_linear_956_64" x1="1831.62" y1="815.687" x2="1158.68" y2="773.113" gradientUnits="userSpaceOnUse">
<stop stop-color="#FFC700"/>
<stop offset="1" stop-color="#331DD1"/>
</linearGradient>
<linearGradient id="paint4_linear_956_64" x1="1400.6" y1="536.257" x2="1159.95" y2="521.032" gradientUnits="userSpaceOnUse">
<stop stop-color="#FFC700" stop-opacity="0.75"/>
<stop offset="1" stop-color="#331DD1" stop-opacity="0"/>
</linearGradient>
<linearGradient id="paint5_linear_956_64" x1="1348.57" y1="603.166" x2="1339.93" y2="632.206" gradientUnits="userSpaceOnUse">
<stop stop-color="#8CE9CD"/>
<stop offset="1" stop-color="#00D7AD"/>
</linearGradient>
<linearGradient id="paint6_linear_956_64" x1="1260.93" y1="527.945" x2="1229.65" y2="529.267" gradientUnits="userSpaceOnUse">
<stop stop-color="#8CE9CD"/>
<stop offset="1" stop-color="#00D7AD"/>
</linearGradient>
<linearGradient id="paint7_linear_956_64" x1="1295.68" y1="383.589" x2="1264.4" y2="384.911" gradientUnits="userSpaceOnUse">
<stop stop-color="#8CE9CD"/>
<stop offset="1" stop-color="#00D7AD"/>
</linearGradient>
<linearGradient id="paint8_linear_956_64" x1="1216.51" y1="582.801" x2="1214.16" y2="552.382" gradientUnits="userSpaceOnUse">
<stop stop-color="#8CE9CD"/>
<stop offset="1" stop-color="#00D7AD"/>
</linearGradient>
<linearGradient id="paint9_linear_956_64" x1="1189.59" y1="452.001" x2="1174.66" y2="478.3" gradientUnits="userSpaceOnUse">
<stop stop-color="#8CE9CD"/>
<stop offset="1" stop-color="#00D7AD"/>
</linearGradient>
<linearGradient id="paint10_linear_956_64" x1="1200.66" y1="494.233" x2="1223.17" y2="512.186" gradientUnits="userSpaceOnUse">
<stop stop-color="#8CE9CD"/>
<stop offset="1" stop-color="#00D7AD"/>
</linearGradient>
<linearGradient id="paint11_linear_956_64" x1="1186.62" y1="399.259" x2="1224.74" y2="429.666" gradientUnits="userSpaceOnUse">
<stop stop-color="#8CE9CD"/>
<stop offset="1" stop-color="#00D7AD"/>
</linearGradient>
<linearGradient id="paint12_linear_956_64" x1="1319" y1="649.949" x2="1341.51" y2="667.903" gradientUnits="userSpaceOnUse">
<stop stop-color="#8CE9CD"/>
<stop offset="1" stop-color="#00D7AD"/>
</linearGradient>
<linearGradient id="paint13_linear_956_64" x1="1338" y1="477.031" x2="1352.92" y2="450.733" gradientUnits="userSpaceOnUse">
<stop stop-color="#8CE9CD"/>
<stop offset="1" stop-color="#00D7AD"/>
</linearGradient>
<linearGradient id="paint14_linear_956_64" x1="1297.56" y1="507.478" x2="1384" y2="552.629" gradientUnits="userSpaceOnUse">
<stop stop-color="#8CE9CD"/>
<stop offset="1" stop-color="#00D7AD"/>
</linearGradient>
<linearGradient id="paint15_linear_956_64" x1="1223" y1="623.714" x2="1314.5" y2="591.456" gradientUnits="userSpaceOnUse">
<stop stop-color="#8CE9CD"/>
<stop offset="1" stop-color="#00D7AD"/>
</linearGradient>
<linearGradient id="paint16_linear_956_64" x1="1292.7" y1="502.911" x2="1245.83" y2="399.674" gradientUnits="userSpaceOnUse">
<stop stop-color="#8CE9CD"/>
<stop offset="1" stop-color="#00D7AD"/>
</linearGradient>
<clipPath id="clip0_956_64">
<rect width="2000" height="2000" fill="white"/>
</clipPath>
</defs>
</svg>
