<svg width="2000" height="2000" viewBox="0 0 2000 2000" fill="none" xmlns="http://www.w3.org/2000/svg">
<g clip-path="url(#clip0_173_33)">
<mask id="mask0_173_33" style="mask-type:luminance" maskUnits="userSpaceOnUse" x="0" y="0" width="2000" height="2000">
<path d="M2000 0H0V2000H2000V0Z" fill="white"/>
</mask>
<g mask="url(#mask0_173_33)">
<path d="M1763.38 874.537C1779.3 938.627 1752.45 941.677 1687.8 975.867C1661.2 989.917 1631.3 993.956 1599.71 992.966C1554.58 991.607 1505.97 979.977 1458.57 972.897C1307.71 960.607 1310.31 952.126 1259.69 944.936C1209.06 937.746 1246.3 828.457 1235.51 778.517C1224.76 728.587 1213.94 654.437 1227.62 619.917C1241.27 585.427 1283.68 486.887 1313.18 478.267C1285.85 475.367 1268.6 468.947 1264.27 429.397C1285.15 344.537 1287.27 366.107 1447.64 388.377C1447.64 388.377 1607.97 402.687 1667.51 412.997C1672.02 413.767 1675.95 414.537 1679.18 415.267C1725.19 425.617 1695.73 501.996 1720.86 540.816C1785.58 614.156 1765.36 754.377 1763.38 874.527V874.537Z" fill="#A3E8CF"/>
<g style="mix-blend-mode:multiply">
<path d="M1763.38 874.537C1779.3 938.627 1752.45 941.677 1687.8 975.867C1661.2 989.917 1631.3 993.957 1599.71 992.967C1633.72 901.537 1576.78 691.467 1613.17 638.787C1672.66 541.167 1670.61 481.317 1657.63 435.697C1655.59 428.507 1290.63 390.437 1306.61 366.017C1311.12 366.787 1675.93 414.547 1679.16 415.277C1725.17 425.627 1695.71 502.007 1720.84 540.827C1785.56 614.167 1765.34 754.387 1763.36 874.537H1763.38Z" fill="#A3E8CF"/>
</g>
<g style="mix-blend-mode:multiply">
<path d="M1693.76 554.136C1689.97 549.146 1682.18 550.206 1679.85 556.026C1647.21 637.926 1606.58 734.386 1689.35 706.476C1772.19 678.536 1746.75 623.966 1693.75 554.136H1693.76Z" fill="#A3E8CF"/>
</g>
<g style="mix-blend-mode:multiply">
<path d="M1631.75 600.666C1597.42 559.986 1552.29 531.936 1512.38 518.716C1463.07 502.386 1609.69 538.346 1609.69 538.346L1675.52 518.136L1631.75 600.656V600.666Z" fill="#A3E8CF"/>
</g>
<path d="M1651.86 473.616C1635.45 536.566 1593.85 514.756 1636.56 449.076C1659.39 412.266 1681.63 473.866 1680.36 500.286C1679.08 526.886 1628.09 599.396 1613.19 638.776C1598.29 678.156 1597.23 737.756 1622.77 759.046C1648.31 780.336 1623.83 999.576 1623.83 999.576C1623.83 999.576 1667.24 979.206 1752.44 941.686C1764.8 936.246 1771.56 922.666 1768.14 909.606C1757.57 869.266 1765.58 790.756 1766.45 707.966C1767.38 619.876 1740.84 584.296 1708.65 528.736C1699.87 513.576 1706.14 495.736 1707.41 478.266C1711.56 420.776 1679.18 415.286 1679.18 415.286L1322.69 364.336C1314.65 363.186 1306.47 365.006 1299.69 369.476C1261.98 394.296 1234.62 454.256 1295.41 478.266C1370.94 489.986 1533.77 522.876 1600.62 536.546C1618.72 540.246 1640.96 541.216 1680.36 500.296" stroke="black" stroke-width="18.34" stroke-linecap="round" stroke-linejoin="round"/>
<path d="M1623.83 999.576C1623.83 999.576 1557.87 986.796 1458.57 972.896C1373.98 961.056 1293.71 966.506 1247.23 943.006C1235.88 937.266 1230.23 924.366 1232.83 911.926C1237.24 890.836 1234.75 858.386 1238.78 833.216C1244.08 800.116 1218.26 690.886 1218.26 663.746C1218.26 636.606 1295.4 478.256 1295.4 478.256" stroke="black" stroke-width="18.34" stroke-linecap="round" stroke-linejoin="round"/>
<path d="M1268.08 695.676C1268.08 695.676 1306.12 713.066 1388.21 727.626C1470.3 742.186 1547.32 738.916 1547.32 738.916" stroke="black" stroke-width="18.34" stroke-linecap="round" stroke-linejoin="round"/>
<path d="M1407.82 837.997C1416.72 839.387 1423.15 831.867 1423.15 823.937C1423.15 814.617 1417.38 808.756 1410.62 807.696C1401.22 806.226 1394.79 813.356 1394.79 822.076C1394.79 830.796 1400.89 836.917 1407.82 837.997Z" fill="#FF4CFF"/>
<path d="M1532.63 891.646C1530.65 891.336 1528.84 893.436 1525.05 892.836C1522.08 892.376 1519.44 890.766 1517.47 889.076L1517.31 888.456C1520.44 887.956 1528.36 883.836 1528.36 873.326C1528.36 865.396 1523.41 859.066 1515.83 857.876C1510.55 857.046 1504.29 858.646 1499.51 861.866C1510.72 845.966 1515.67 824.326 1515.67 807.866C1515.67 788.626 1508.75 777.826 1498.69 776.256C1488.73 774.696 1481.06 782.666 1475.31 795.096C1473.9 779.926 1467.48 771.366 1458.62 769.986C1432.11 765.836 1421.83 828.976 1420.79 864.696C1419.2 866.096 1417.36 867.066 1415.26 866.736C1412.46 866.296 1411.14 863.716 1411.14 859.546C1411.14 855.976 1412.13 851.766 1412.13 849.186C1412.13 845.026 1409.49 841.636 1403.72 840.726C1395.26 839.406 1389.67 845.426 1386.87 855.566C1384.78 858.316 1381.94 861.516 1378.33 860.946C1376.85 860.716 1376.52 859.476 1376.52 857.296C1376.52 855.316 1377.01 853.406 1377.01 850.436C1377.01 843.886 1374.04 836.086 1364.31 834.566C1357.22 833.456 1350.63 835.996 1344.86 840.646C1341.89 833.046 1337.27 829.936 1332 829.116C1321.12 827.416 1314.85 835.556 1310.73 843.836C1311.22 841.336 1311.39 839.176 1311.39 837.196C1311.39 831.646 1308.59 826.836 1302.82 825.936C1290.13 823.946 1283.86 837.446 1283.86 857.676C1283.86 876.126 1288.97 890.606 1302.49 892.726C1310.57 893.986 1314.86 889.896 1314.86 882.166C1314.86 866.496 1317.66 858.406 1319.81 858.746C1320.63 858.876 1320.96 860.116 1321.13 861.726C1318.66 866.496 1317.17 871.816 1317.17 877.766C1317.17 888.276 1322.12 895.796 1330.36 897.086C1338.44 898.346 1348.66 893.796 1348.66 867.816C1348.66 866.826 1348.66 865.236 1348.5 863.626C1349.49 862.586 1350.48 861.956 1351.14 862.056C1351.63 862.136 1352.13 862.606 1352.13 863.596C1352.13 865.976 1349.49 871.516 1349.49 880.436C1349.49 892.336 1355.59 901.026 1366.47 902.736C1375.64 904.166 1382.25 898.966 1386.95 891.516C1389.59 900.756 1394.78 907.166 1403.41 908.516C1412.86 909.996 1419.6 904.416 1424.33 896.596C1427.91 907.096 1434.05 913.306 1442.32 914.606C1451.97 916.116 1458.82 910.706 1463.6 903.036C1466.54 913.466 1471.87 919.226 1480.08 920.506C1488.16 921.766 1492.44 917.676 1492.44 909.946V903.206C1496.4 914.336 1505.47 924.486 1515.52 926.056C1527.39 927.916 1536.79 918.076 1536.79 899.036C1536.79 895.066 1535.8 892.136 1532.67 891.646H1532.63ZM1450.69 816.546C1452.01 811.796 1453.49 810.046 1454.65 810.226C1456.14 810.456 1456.79 812.546 1456.79 815.326C1456.79 822.866 1451.68 837.136 1446.73 845.086C1447.22 834.846 1448.54 823.556 1450.69 816.546ZM1452.67 873.576C1450.53 873.246 1449.04 871.416 1448.22 868.716C1453.49 863.276 1458.38 855.916 1462.54 847.816C1461.63 855.766 1461.08 863.416 1460.87 870.136C1458.71 872.326 1456.02 874.106 1452.68 873.576H1452.67ZM1486.8 851.346C1487.29 841.116 1488.61 829.816 1490.76 822.806C1492.08 818.056 1493.56 816.306 1494.72 816.486C1496.21 816.716 1496.86 818.806 1496.86 821.586C1496.86 829.126 1491.75 843.396 1486.8 851.346ZM1493.56 890.886C1494.88 883.156 1496.86 878.506 1500.16 879.026C1501.48 879.236 1502.47 880.576 1502.47 882.556C1502.47 885.726 1498.84 889.326 1493.57 890.886H1493.56Z" fill="#FF4CFF"/>
</g>
</g>
<defs>
<clipPath id="clip0_173_33">
<rect width="2000" height="2000" fill="white"/>
</clipPath>
</defs>
</svg>
