<svg width="2000" height="2000" viewBox="0 0 2000 2000" fill="none" xmlns="http://www.w3.org/2000/svg">
<g clip-path="url(#clip0_42_137)">
<mask id="mask0_42_137" style="mask-type:luminance" maskUnits="userSpaceOnUse" x="0" y="0" width="2000" height="2000">
<path d="M2000 0H0V2000H2000V0Z" fill="white"/>
</mask>
<g mask="url(#mask0_42_137)">
<path d="M1772.8 967.6C1749.1 979.7 1720.4 983.7 1692.6 987.9C1664.9 992.2 1636.5 997.3 1614.5 1011.2C1604.6 1017.5 1596.1 1025.5 1588 1033.8C1588 1033.8 1587.9 1033.8 1587.9 1033.9C1570.1 1052.1 1554.1 1071.7 1527.6 1078.1C1502.6 1084.2 1474.2 1076.5 1449.1 1065.7C1448.4 1065.4 1447.6 1065.1 1446.9 1064.8C1422.7 1054.1 1399.7 1040.4 1374.5 1032.2C1373 1031.7 1371.5 1031.3 1369.9 1030.8C1343 1022.8 1314.9 1021.8 1287.7 1015.2C1276.3 1012.4 1265.1 1008.6 1254.4 1003.9C1228.7 992.5 1205.6 975.7 1189.7 954.6C1167.1 924.7 1160.4 886.3 1176.1 856.9C1195.9 820 1245.5 802.6 1267.3 766.2C1281.1 743.2 1282.3 715 1286.6 688.1C1291.6 657.2 1301.5 626.6 1322.4 602.5C1343.3 578.4 1376.7 561.6 1413.2 563.9C1436 565.3 1458.3 573.7 1481 576.5C1498.8 578.7 1516 577.4 1532.6 573.7C1562.6 567 1590.4 552.5 1615.1 536.2C1628.9 527.1 1642.5 517.3 1659.3 512.8C1667.6 510.6 1677 510 1685.9 511.6C1695 513.1 1703.6 516.7 1710.1 522.9C1724.9 537 1723.6 558.7 1715.6 574.9C1707.6 591.1 1695.6 605.9 1687.4 625.7C1679.3 645.4 1687.7 662.1 1701.8 676.4C1715.8 690.7 1734.5 700.6 1751.3 712.3C1768.1 723.9 1784 738.8 1788 756.5C1793.7 782 1773.6 805.2 1776.2 830.7C1779 857.8 1806.9 880.8 1811 907.7C1814.9 932.8 1796.6 955.4 1772.8 967.6Z" fill="#FF7700"/>
<path d="M1775.3 897.3C1771.6 873.3 1746.8 852.8 1744.2 828.6C1741.8 805.9 1759.9 785.2 1754.7 762.4C1751.1 746.5 1736.9 733.3 1722 722.9C1707 712.5 1690.4 703.6 1677.9 690.9C1665.3 678.2 1657.8 663.3 1665 645.7C1672.3 628 1683.1 614.9 1690.2 600.4C1697.3 585.9 1698.4 566.5 1685.3 554C1679.5 548.5 1671.8 545.2 1663.7 543.9C1655.8 542.5 1647.4 543 1640 545C1625 549 1612.8 557.7 1600.5 565.8C1566.3 588.3 1525.4 607.3 1480.9 601.8C1460.6 599.3 1440.7 591.8 1420.4 590.5C1387.8 588.5 1358 603.5 1339.3 625C1320.7 646.5 1311.8 673.8 1307.4 701.4C1303.6 725.3 1302.5 750.4 1290.2 771C1270.8 803.5 1226.5 819 1208.9 851.9C1194.8 878.1 1200.8 912.4 1221 939.1C1235.2 957.9 1255.7 972.9 1278.7 983.1C1288.3 987.3 1298.3 990.7 1308.4 993.2C1332.7 999.1 1357.8 1000 1381.8 1007.1C1383.2 1007.5 1384.6 1007.9 1385.9 1008.4C1408.4 1015.8 1428.9 1027.9 1450.5 1037.5C1451.1 1037.8 1451.8 1038.1 1452.4 1038.3C1474.8 1048 1500.1 1054.8 1522.4 1049.4C1556.9 1041.1 1571.5 1007.7 1599.9 989.7C1619.5 977.3 1644.8 972.7 1669.6 969C1694.4 965.2 1719.9 961.7 1741.1 950.8C1762.5 939.8 1778.8 919.6 1775.3 897.3ZM1686.9 921.7C1670.1 930.3 1649.8 933.1 1630.2 936.1C1610.6 939.1 1590.5 942.7 1575 952.5C1552.5 966.8 1540.9 993.2 1513.6 999.7C1495.9 1004 1475.8 998.6 1458.1 990.9C1457.6 990.7 1457.1 990.5 1456.6 990.2C1439.5 982.6 1423.3 973 1405.5 967.2C1404.4 966.8 1403.3 966.5 1402.3 966.2C1383.3 960.5 1363.4 959.9 1344.1 955.2C1336.1 953.3 1328.1 950.6 1320.5 947.2C1302.3 939.2 1286.1 927.3 1274.8 912.4C1258.8 891.3 1254 864.1 1265.1 843.4C1279.1 817.3 1314.2 805 1329.5 779.3C1339.3 763 1340.1 743.1 1343.2 724.1C1346.8 702.3 1353.8 680.6 1368.5 663.6C1383.3 646.5 1406.9 634.7 1432.7 636.3C1448.8 637.3 1464.5 643.2 1480.6 645.2C1515.9 649.5 1548.3 634.6 1575.4 616.7C1585.1 610.3 1594.8 603.3 1606.7 600.2C1612.6 598.7 1619.2 598.3 1625.5 599.3C1631.9 600.4 1638 603 1642.6 607.3C1653.1 617.2 1652.2 632.6 1646.6 644.1C1640.9 655.6 1632.4 666 1626.7 680C1620.9 693.9 1626.9 705.7 1636.9 715.8C1646.8 725.8 1660 732.9 1671.9 741.1C1683.7 749.3 1695 759.8 1697.8 772.4C1701.8 790.4 1687.6 806.8 1689.4 824.8C1691.4 844 1711.1 860.2 1714 879.2C1716.6 897.1 1703.7 913.1 1686.9 921.7Z" fill="#FF3000"/>
<path d="M1772.8 967.6C1749.1 979.7 1720.4 983.7 1692.6 987.9C1664.9 992.2 1636.5 997.3 1614.5 1011.2C1604.6 1017.5 1596.1 1025.5 1588 1033.8C1588 1033.8 1587.9 1033.8 1587.9 1033.9C1570.1 1052.1 1554.1 1071.7 1527.6 1078.1C1502.6 1084.2 1474.2 1076.5 1449.1 1065.7C1448.4 1065.4 1447.6 1065.1 1446.9 1064.8C1422.7 1054.1 1399.7 1040.4 1374.5 1032.2C1373 1031.7 1371.5 1031.3 1369.9 1030.8C1343 1022.8 1314.9 1021.8 1287.7 1015.2C1276.3 1012.4 1265.1 1008.6 1254.4 1003.9C1228.7 992.5 1205.6 975.7 1189.7 954.6C1167.1 924.7 1160.4 886.3 1176.1 856.9C1195.9 820 1245.5 802.6 1267.3 766.2C1281.1 743.2 1282.3 715 1286.6 688.1C1291.6 657.2 1301.5 626.6 1322.4 602.5C1343.3 578.4 1376.7 561.6 1413.2 563.9C1436 565.3 1458.3 573.7 1481 576.5C1498.8 578.7 1516 577.4 1532.6 573.7C1562.6 567 1590.4 552.5 1615.1 536.2C1628.9 527.1 1642.5 517.3 1659.3 512.8C1667.6 510.6 1677 510 1685.9 511.6C1695 513.1 1703.6 516.7 1710.1 522.9C1724.9 537 1723.6 558.7 1715.6 574.9C1707.6 591.1 1695.6 605.9 1687.4 625.7C1679.3 645.4 1687.7 662.1 1701.8 676.4C1715.8 690.7 1734.5 700.6 1751.3 712.3C1768.1 723.9 1784 738.8 1788 756.5C1793.7 782 1773.6 805.2 1776.2 830.7C1779 857.8 1806.9 880.8 1811 907.7C1814.9 932.8 1796.6 955.4 1772.8 967.6Z" stroke="black" stroke-width="18.34" stroke-linecap="round" stroke-linejoin="round"/>
<path d="M1587.9 811.3C1587.9 854.2 1557.1 890.5 1514.3 903.5C1503.5 906.8 1492 908.6 1479.9 908.6C1420.3 908.6 1372 865.1 1372 811.4C1372 757.7 1420.3 714.2 1479.9 714.2C1487.1 714.2 1494.2 714.8 1501 716.1C1550.6 724.8 1587.9 764.2 1587.9 811.3Z" fill="#FAEEBD"/>
<path d="M1587.9 811.3C1587.9 854.2 1557.1 890.5 1514.3 903.5C1562.4 839.7 1542 768.4 1501 716C1550.6 724.8 1587.9 764.2 1587.9 811.3Z" fill="#F2D5AF"/>
<path d="M1480 908.6C1539.59 908.6 1587.9 865.082 1587.9 811.4C1587.9 757.718 1539.59 714.2 1480 714.2C1420.41 714.2 1372.1 757.718 1372.1 811.4C1372.1 865.082 1420.41 908.6 1480 908.6Z" stroke="black" stroke-width="18.34" stroke-linecap="round" stroke-linejoin="round"/>
<path d="M1298.6 578.6L1316.6 647.8C1316.9 649.1 1317.8 650.1 1318.9 650.8L1351.7 668.7C1355 670.5 1355 675.2 1351.7 677L1319 694.9C1317.8 695.5 1317 696.6 1316.7 697.9L1298.7 768.6C1297.5 773.4 1290.7 773.4 1289.5 768.6L1271.5 697.9C1271.2 696.6 1270.3 695.5 1269.2 694.9L1236.5 677C1233.2 675.2 1233.2 670.5 1236.5 668.7L1269.3 650.8C1270.5 650.2 1271.3 649.1 1271.6 647.8L1289.6 578.6C1290.7 573.9 1297.4 573.9 1298.6 578.6Z" fill="white"/>
<path d="M1798.9 817.2L1809 856.1C1809.2 856.8 1809.7 857.4 1810.3 857.8L1828.7 867.9C1830.5 868.9 1830.5 871.6 1828.7 872.6L1810.3 882.7C1809.6 883.1 1809.2 883.7 1809 884.4L1798.9 924.2C1798.2 926.9 1794.4 926.9 1793.7 924.2L1783.6 884.4C1783.4 883.7 1782.9 883.1 1782.3 882.7L1763.9 872.6C1762.1 871.6 1762.1 868.9 1763.9 867.9L1782.3 857.8C1783 857.5 1783.4 856.8 1783.6 856.1L1793.7 817.2C1794.4 814.5 1798.2 814.5 1798.9 817.2Z" fill="white"/>
<path d="M1446.8 1034.9L1452.8 1057.9C1452.9 1058.3 1453.2 1058.7 1453.6 1058.9L1464.5 1064.8C1465.6 1065.4 1465.6 1067 1464.5 1067.6L1453.6 1073.5C1453.2 1073.7 1452.9 1074.1 1452.8 1074.5L1446.8 1098C1446.4 1099.6 1444.1 1099.6 1443.7 1098L1437.7 1074.5C1437.6 1074.1 1437.3 1073.7 1436.9 1073.5L1426 1067.6C1424.9 1067 1424.9 1065.4 1426 1064.8L1436.9 1058.9C1437.3 1058.7 1437.6 1058.3 1437.7 1057.9L1443.7 1034.9C1444.1 1033.3 1446.3 1033.3 1446.8 1034.9Z" fill="white"/>
<path d="M1559.5 726.5L1565.5 749.5C1565.6 749.9 1565.9 750.3 1566.3 750.5L1577.2 756.5C1578.3 757.1 1578.3 758.7 1577.2 759.3L1566.3 765.3C1565.9 765.5 1565.6 765.9 1565.5 766.3L1559.5 789.8C1559.1 791.4 1556.8 791.4 1556.4 789.8L1550.4 766.3C1550.3 765.9 1550 765.5 1549.6 765.3L1538.7 759.3C1537.6 758.7 1537.6 757.1 1538.7 756.5L1549.6 750.5C1550 750.3 1550.3 749.9 1550.4 749.5L1556.4 726.5C1556.8 725 1559 725 1559.5 726.5Z" fill="white"/>
</g>
</g>
<defs>
<clipPath id="clip0_42_137">
<rect width="2000" height="2000" fill="white"/>
</clipPath>
</defs>
</svg>
