<svg width="2000" height="2000" viewBox="0 0 2000 2000" fill="none" xmlns="http://www.w3.org/2000/svg">
<g clip-path="url(#clip0_2_891)">
<mask id="mask0_2_891" style="mask-type:luminance" maskUnits="userSpaceOnUse" x="0" y="0" width="2000" height="2000">
<path d="M2000 0H0V2000H2000V0Z" fill="white"/>
</mask>
<g mask="url(#mask0_2_891)">
<path d="M1488.69 923.68C1427.36 923.68 1388.54 970.42 1394.24 1019.4C1395.76 1032.49 1400.15 1044.3 1406.74 1054.7C1424.81 1083.31 1459.35 1100.57 1495.31 1101.39C1496.23 1101.44 1497.14 1101.44 1498.05 1101.44C1558.24 1101.44 1598.25 1054.75 1592.81 1008.01C1587.11 959.03 1546.63 923.69 1488.68 923.69L1488.69 923.68ZM1797.71 450.92C1787.32 417.36 1769.91 388.84 1747.44 365.59C1699.4 315.87 1628.28 290.1 1553.54 290.1C1492.31 290.1 1443.76 303.47 1408.04 326.26C1352.32 361.92 1327.94 420.56 1335.7 487.22C1345.12 568.16 1410.87 616 1469.96 616C1521.06 616 1559.24 582.95 1555.27 548.8C1553.94 537.4 1528.03 510.03 1524.45 479.26C1521.54 454.22 1534.73 440.53 1554.03 440.53C1577.89 440.53 1596.69 465.62 1600.41 497.52C1613.4 609.17 1411.02 685.53 1425.48 809.73C1430.79 855.33 1462.5 903.16 1520.4 903.16C1535.05 903.16 1538.05 894.51 1537.31 883.38C1537.24 882.37 1537.17 881.37 1537.05 880.36C1534.31 856.78 1547.02 835.5 1568.23 814.26C1595.15 787.2 1635.83 760.33 1676.1 729.16C1748.47 673.08 1819.46 603.22 1806.76 494.09C1804.99 478.89 1801.94 464.47 1797.72 450.92H1797.71Z" fill="url(#paint0_linear_2_891)"/>
<path d="M1495.32 1101.39C1459.36 1100.57 1424.82 1083.31 1406.75 1054.7C1421.35 1029.57 1434.84 1064.71 1470.71 1042.74C1504.92 1021.87 1591.32 998.91 1495.32 1101.39ZM1553.54 290.1C1492.31 290.1 1443.76 303.47 1408.04 326.26C1477.2 337.48 1430.85 384.41 1575.64 327.84C1600.07 318.29 1726.64 362.84 1747.45 365.58C1699.41 315.86 1628.29 290.09 1553.55 290.09L1553.54 290.1ZM1797.71 450.92C1701.22 456.14 1681.71 617.46 1676.09 729.16C1748.46 673.08 1819.45 603.22 1806.75 494.09C1804.98 478.89 1801.93 464.47 1797.71 450.92ZM1568.03 691.97C1522.04 741 1464.18 742.03 1468.83 801.54C1471.67 837.71 1506 868.47 1537.31 883.39C1537.24 882.38 1537.17 881.38 1537.05 880.37C1534.31 856.79 1547.02 835.51 1568.23 814.27C1658.48 637.52 1606.68 650.82 1568.03 691.97ZM1649.41 518.66C1677.77 519.6 1695.78 457.38 1665.64 448.69C1637.38 440.54 1610.41 408.07 1616.68 445.9C1617.69 452.02 1618.53 458.18 1619.24 464.31C1621.32 482.17 1628.14 517.96 1649.41 518.67V518.66Z" fill="url(#paint1_linear_2_891)"/>
<path d="M1498.05 1101.45C1448.07 1101.45 1400.06 1069.54 1394.23 1019.4C1388.53 970.4 1427.39 923.68 1488.72 923.68C1546.65 923.68 1587.1 959 1592.81 1008C1598.25 1054.72 1558.25 1101.44 1498.05 1101.44V1101.45ZM1425.48 809.73C1411.02 685.52 1613.4 609.17 1600.41 497.5C1596.7 465.59 1577.88 440.52 1554.03 440.52C1534.72 440.52 1521.55 454.2 1524.46 479.26C1528.04 510.03 1553.94 537.38 1555.27 548.77C1559.25 582.96 1521.07 616 1469.96 616C1410.9 616 1345.13 568.14 1335.71 487.23C1322.98 377.84 1396.82 290.09 1553.56 290.09C1677.36 290.09 1791.22 360.74 1806.73 494.07C1832.06 711.72 1524.6 773.25 1537.06 880.37C1538.52 892.91 1536.31 903.16 1520.4 903.16C1462.47 903.16 1430.78 855.3 1425.47 809.72L1425.48 809.73Z" stroke="black" stroke-width="18.34" stroke-linecap="round" stroke-linejoin="round"/>
<path d="M1477.01 493.925C1497.96 472.325 1495.27 435.73 1471.01 412.188C1446.74 388.646 1410.08 387.072 1389.12 408.672C1368.17 430.272 1370.86 466.867 1395.12 490.41C1419.39 513.952 1456.05 515.526 1477.01 493.925Z" fill="url(#paint2_linear_2_891)" stroke="black" stroke-width="18.34"/>
<path d="M1448.34 619.923C1461.28 606.576 1459.62 583.96 1444.62 569.409C1429.62 554.857 1406.96 553.881 1394.02 567.228C1381.07 580.575 1382.73 603.191 1397.73 617.743C1412.73 632.294 1435.39 633.27 1448.34 619.923Z" fill="url(#paint3_linear_2_891)" stroke="black" stroke-width="18.34"/>
<path d="M1308.49 255.1L1326.45 324.28C1326.78 325.55 1327.62 326.62 1328.77 327.25L1361.53 345.17C1364.82 346.97 1364.82 351.7 1361.53 353.5L1328.79 371.41C1327.63 372.04 1326.79 373.13 1326.47 374.41L1308.51 445.14C1307.3 449.91 1300.52 449.91 1299.31 445.14L1281.35 374.41C1281.03 373.13 1280.18 372.05 1279.03 371.41L1246.29 353.5C1243 351.7 1243 346.97 1246.29 345.17L1279.05 327.25C1280.2 326.62 1281.04 325.55 1281.37 324.28L1299.33 255.1C1300.56 250.36 1307.29 250.36 1308.52 255.1H1308.49Z" fill="white"/>
<path d="M1749.48 507.86L1757.44 538.52C1757.59 539.08 1757.96 539.56 1758.47 539.84L1772.99 547.78C1774.45 548.58 1774.45 550.67 1772.99 551.47L1758.48 559.41C1757.97 559.69 1757.59 560.17 1757.45 560.74L1749.49 592.09C1748.95 594.2 1745.95 594.2 1745.41 592.09L1737.45 560.74C1737.31 560.17 1736.93 559.69 1736.42 559.41L1721.91 551.47C1720.45 550.67 1720.45 548.58 1721.91 547.78L1736.43 539.84C1736.94 539.56 1737.31 539.08 1737.46 538.52L1745.42 507.86C1745.97 505.76 1748.95 505.76 1749.49 507.86H1749.48Z" fill="white"/>
<path d="M1436.69 905.93L1450.65 959.73C1450.91 960.72 1451.56 961.55 1452.45 962.04L1477.92 975.97C1480.48 977.37 1480.48 981.05 1477.92 982.45L1452.46 996.38C1451.56 996.87 1450.91 997.72 1450.65 998.71L1436.69 1053.71C1435.75 1057.42 1430.48 1057.42 1429.53 1053.71L1415.57 998.71C1415.32 997.72 1414.66 996.87 1413.76 996.38L1388.3 982.45C1385.74 981.05 1385.74 977.37 1388.3 975.97L1413.77 962.04C1414.66 961.55 1415.32 960.71 1415.57 959.73L1429.53 905.93C1430.49 902.24 1435.72 902.24 1436.68 905.93H1436.69Z" fill="white"/>
</g>
</g>
<defs>
<linearGradient id="paint0_linear_2_891" x1="1275.87" y1="693.51" x2="1749.51" y2="693.51" gradientUnits="userSpaceOnUse">
<stop stop-color="#F86E00"/>
<stop offset="1" stop-color="#FF00A8"/>
</linearGradient>
<linearGradient id="paint1_linear_2_891" x1="1773.7" y1="391.81" x2="1257.25" y2="908.26" gradientUnits="userSpaceOnUse">
<stop stop-color="#F86E00"/>
<stop offset="1" stop-color="#FF00A8"/>
</linearGradient>
<linearGradient id="paint2_linear_2_891" x1="1323.1" y1="449.924" x2="1438.43" y2="449.924" gradientUnits="userSpaceOnUse">
<stop stop-color="#00EEC9"/>
<stop offset="1" stop-color="#FFC700"/>
</linearGradient>
<linearGradient id="paint3_linear_2_891" x1="1316.68" y1="591.735" x2="1387.95" y2="591.735" gradientUnits="userSpaceOnUse">
<stop stop-color="#00EEC9"/>
<stop offset="1" stop-color="#FFC700"/>
</linearGradient>
<clipPath id="clip0_2_891">
<rect width="2000" height="2000" fill="white"/>
</clipPath>
</defs>
</svg>
