<svg width="2000" height="2000" viewBox="0 0 2000 2000" fill="none" xmlns="http://www.w3.org/2000/svg">
<g clip-path="url(#clip0_356_81)">
<mask id="mask0_356_81" style="mask-type:luminance" maskUnits="userSpaceOnUse" x="0" y="0" width="2000" height="2000">
<path d="M2000 0H0V2000H2000V0Z" fill="white"/>
</mask>
<g mask="url(#mask0_356_81)">
<path d="M1592.55 943.84C1592.55 941.61 1717.84 764.79 1717.84 764.79L1767.15 1070.89L1592.55 943.84Z" fill="#E56AD0"/>
<path d="M1724.59 776.78L1776.04 1059.6" stroke="black" stroke-width="18.34" stroke-linecap="round" stroke-linejoin="round"/>
<path d="M1639.85 900.91L1770.96 1049.19C1784.21 1064.18 1769.46 1087.13 1750.32 1081.3L1263.44 932.88C1259.74 931.75 1256.45 929.57 1253.98 926.59L1101.02 738.83" fill="#FF93E4"/>
<path d="M1253.98 926.6C1256.45 929.57 1259.74 931.76 1263.44 932.89L1750.32 1081.3C1769.46 1087.13 1784.21 1064.18 1770.96 1049.19L1727.14 999.63L1218.76 883.36L1253.98 926.59V926.6Z" fill="#E56AD0"/>
<path d="M1639.85 900.91L1770.96 1049.19C1784.21 1064.18 1769.46 1087.13 1750.32 1081.3L1263.44 932.88C1259.74 931.75 1256.45 929.57 1253.98 926.59L1101.02 738.83" stroke="black" stroke-width="18.34" stroke-linecap="round" stroke-linejoin="round"/>
<path d="M1218.89 624.09L1712.08 761.95C1723.09 765.03 1728.11 777.77 1722.16 787.52L1655.45 897C1651.35 903.72 1643.23 906.81 1635.7 904.52L1108.66 743.74C1095.79 739.67 1092.38 723.06 1102.6 714.25L1202.99 627.64C1207.36 623.87 1213.33 622.54 1218.89 624.09Z" fill="#FF93E4" stroke="black" stroke-width="18.34" stroke-linecap="round" stroke-linejoin="round"/>
<path d="M1547.27 802.87C1543.34 817.97 1478.05 811.39 1397.26 790.35C1316.47 769.32 1254.72 726.7 1258.65 711.6C1262.58 696.5 1331.26 701.31 1412.04 722.35C1492.83 743.38 1551.2 787.77 1547.27 802.87Z" fill="#D32EBE" stroke="black" stroke-width="18.34" stroke-miterlimit="10"/>
<path d="M1375.14 749.57L1255.84 553.5C1255.84 553.5 1420.67 451.84 1427.58 515.01C1434.49 578.18 1494.7 550.54 1528.26 552.52C1576.38 555.35 1568.34 589.04 1568.34 589.04L1438.63 769.02" fill="white"/>
<path d="M1491.1 689.5C1475.03 663.73 1404.79 668.48 1412.34 647.46C1426.73 607.41 1355.84 653.96 1325.9 670.21L1382.81 750.24L1438.63 769.02L1495.83 691.67C1497.1 686.09 1493.02 692.61 1491.09 689.51L1491.1 689.5Z" fill="#E7E7E7"/>
<path d="M1337.86 733.41C1337.86 733.41 1385.53 773.87 1468.62 773.87" stroke="black" stroke-width="18.34" stroke-linecap="round" stroke-linejoin="round"/>
<path d="M1371.47 749.57L1252.45 557.72C1252.45 557.72 1417.28 456.06 1424.19 519.23C1431.1 582.4 1491.31 554.76 1524.87 556.74C1572.99 559.57 1564.95 593.26 1564.95 593.26L1434.96 769.02" stroke="black" stroke-width="18.34" stroke-linecap="round" stroke-linejoin="round"/>
</g>
</g>
<defs>
<clipPath id="clip0_356_81">
<rect width="2000" height="2000" fill="white"/>
</clipPath>
</defs>
</svg>
