<svg width="2000" height="2000" viewBox="0 0 2000 2000" fill="none" xmlns="http://www.w3.org/2000/svg">
<g clip-path="url(#clip0_356_62)">
<mask id="mask0_356_62" style="mask-type:luminance" maskUnits="userSpaceOnUse" x="0" y="0" width="2000" height="2000">
<path d="M2000 0H0V2000H2000V0Z" fill="white"/>
</mask>
<g mask="url(#mask0_356_62)">
<path d="M1561.75 883.39C1532.43 893.66 1166.28 920.01 1245.23 673.31C1303.45 491.37 1606.69 464.68 1672.19 780.05C1678.81 811.91 1642.38 823.76 1567.31 792.22C1567.31 792.22 1585.31 875.14 1561.75 883.39Z" fill="#FFC100"/>
<path d="M1567.31 792.22C1642.37 823.76 1644.44 823.76 1637.82 791.89C1627.55 742.43 1594.14 688.77 1567.22 660.63C1523.09 614.51 1496.62 595.7 1499.47 620.03C1502.2 643.38 1539.57 724.43 1568.29 797.1C1567.7 794.03 1567.31 792.21 1567.31 792.21V792.22Z" fill="#FFAF00"/>
<path d="M1235.84 723C1252.09 761.08 1338.93 890.27 1480.25 852.15C1581.28 824.9 1557.91 867.86 1506.24 870.87C1506.24 870.87 1312.49 879.27 1259.54 822.08C1206.58 764.89 1235.85 723 1235.85 723H1235.84Z" fill="#885100"/>
<path d="M1567.31 792.22C1642.37 823.76 1678.8 811.91 1672.19 780.05C1606.69 464.68 1303.45 491.37 1245.23 673.31C1166.29 920.01 1548.36 907.89 1570.59 877.91C1600.33 837.82 1516.39 696.49 1501.02 633.31C1499.7 627.87 1499.82 604.61 1522.97 628.82" stroke="black" stroke-width="18.34" stroke-linecap="round" stroke-linejoin="round"/>
<path d="M1289.61 798.75C1289.61 798.75 1365.01 1004.63 1470.64 1041.57C1520.45 978.81 1562.1 1022.52 1623.04 999.35C1634.15 995.13 1635.09 979.8 1624.48 974.47C1579.59 951.93 1505.17 923.75 1499.4 847.5C1471.99 854.48 1432.21 864.89 1383.79 857.87C1351.16 853.14 1317.8 831.25 1289.61 798.74V798.75Z" fill="white"/>
<path d="M1502.21 866.53C1499.22 858.32 1500.16 857.53 1499.4 847.51C1471.99 854.49 1432.21 864.9 1383.79 857.88C1351.16 853.15 1317.8 831.26 1289.61 798.75C1289.61 798.75 1296.6 817.82 1309.29 845.38C1347 873.63 1413.31 899.82 1502.21 866.53Z" fill="#C3C3C3"/>
<path d="M1446.41 882.92C1446.17 883.06 1444.88 883.32 1442.53 883.71C1440.19 884.1 1437.27 884.66 1433.79 885.4C1430.31 886.14 1427.26 886.99 1424.63 887.95C1425.53 888.77 1426.35 889.39 1427.09 889.81C1427.47 890.04 1427.95 890.23 1428.54 890.38C1429.13 890.53 1429.61 890.68 1429.99 890.85C1430.37 891.02 1430.61 891.2 1430.71 891.39C1431.2 892.27 1431.01 893.42 1430.12 894.85C1429.24 896.29 1428.16 897.37 1426.85 898.1C1423.96 899.71 1421.28 900.16 1418.83 899.44C1416.37 898.72 1414.35 897.06 1412.78 894.46L1411.62 895.11C1410.75 895.59 1410.07 896.21 1409.57 896.97C1409.07 897.72 1408.77 898.12 1408.68 898.18C1407.67 898.75 1406.24 898.43 1404.41 897.24C1402.58 896.05 1400.99 894.25 1399.64 891.84C1398.24 889.32 1397.84 886.61 1398.42 883.69C1399.01 880.77 1400.63 878.57 1403.28 877.09C1404.05 876.66 1404.64 876.36 1405.06 876.19C1404.27 873.86 1403.56 872.13 1402.94 871.02C1402.08 869.48 1401.16 868.31 1400.18 867.53C1399.2 866.74 1398.63 866.19 1398.44 865.85C1398.31 865.61 1398.18 865.27 1398.06 864.83C1397.66 863.21 1397.89 861.53 1398.74 859.75C1399.59 857.98 1400.98 856.56 1402.91 855.48C1405.76 853.89 1410.59 853.43 1417.41 854.09C1424.23 854.75 1430.83 856.29 1437.21 858.72C1443.58 861.14 1447.58 863.81 1449.19 866.7C1450.73 869.46 1451.25 872.51 1450.79 875.87C1450.32 879.23 1448.86 881.59 1446.4 882.96L1446.41 882.92ZM1411.54 867.15C1412.53 868.24 1413.73 869.94 1415.15 872.26C1421.68 870.7 1427.75 869.85 1433.36 869.7C1429.49 868.43 1425.57 867.59 1421.6 867.15C1417.62 866.7 1414.27 866.71 1411.54 867.15Z" fill="#C40505"/>
<path d="M1476.07 904.44C1479.11 909.9 1479.6 915.06 1477.53 919.91C1475.46 924.76 1471.48 928.83 1465.59 932.11C1462.07 934.07 1458.34 935.46 1454.41 936.3C1450.48 937.13 1446.63 937.36 1442.89 936.98C1439.13 936.6 1435.6 935.39 1432.26 933.32C1428.93 931.25 1426.26 928.41 1424.24 924.79C1421.28 919.48 1420.58 914.19 1422.14 908.93C1423.69 903.66 1427.54 899.33 1433.67 895.91C1438.5 893.22 1443.66 891.68 1449.16 891.27C1454.66 890.86 1459.87 891.79 1464.79 894.05C1469.71 896.3 1473.48 899.76 1476.08 904.45L1476.07 904.44ZM1441.83 918.59C1443.1 920.86 1445.5 922.01 1449.07 922.05C1452.64 922.09 1456.32 921.04 1460.14 918.92C1465.4 915.99 1467.2 913.03 1465.53 910.04C1464.29 907.82 1461.77 906.64 1457.96 906.49C1454.13 906.33 1450.42 907.27 1446.8 909.28C1444.24 910.71 1442.56 912.24 1441.77 913.88C1440.98 915.52 1441 917.09 1441.83 918.59Z" fill="#C40505"/>
<path d="M1514.76 961.87C1514.5 962.08 1513.04 962.66 1510.37 963.6C1507.72 964.54 1504.41 965.8 1500.49 967.38C1496.57 968.97 1493.18 970.6 1490.29 972.26C1491.53 973.04 1492.61 973.6 1493.56 973.92C1494.05 974.11 1494.66 974.23 1495.37 974.29C1496.09 974.34 1496.69 974.42 1497.17 974.54C1497.64 974.66 1497.96 974.82 1498.13 975.02C1498.88 975.94 1498.89 977.33 1498.16 979.19C1497.43 981.06 1496.38 982.55 1495.01 983.67C1491.95 986.16 1488.9 987.23 1485.88 986.9C1482.85 986.57 1480.15 985.04 1477.76 982.31L1476.54 983.31C1475.63 984.05 1474.96 984.92 1474.53 985.91C1474.1 986.89 1473.84 987.43 1473.74 987.51C1472.66 988.38 1470.93 988.3 1468.54 987.29C1466.14 986.27 1463.9 984.49 1461.83 981.95C1459.67 979.29 1458.64 976.2 1458.73 972.66C1458.81 969.12 1460.25 966.2 1463.06 963.92C1463.87 963.26 1464.51 962.79 1464.95 962.5C1463.53 959.93 1462.35 958.06 1461.39 956.88C1460.07 955.25 1458.74 954.07 1457.44 953.36C1456.13 952.64 1455.34 952.1 1455.05 951.74C1454.84 951.49 1454.62 951.12 1454.39 950.63C1453.6 948.82 1453.51 946.79 1454.13 944.54C1454.76 942.29 1456.1 940.34 1458.14 938.68C1461.15 936.23 1466.71 934.68 1474.83 934.04C1482.95 933.41 1491 933.84 1498.98 935.36C1506.95 936.87 1512.18 939.17 1514.67 942.23C1517.03 945.13 1518.28 948.6 1518.43 952.64C1518.59 956.68 1517.36 959.74 1514.76 961.86V961.87ZM1470.65 950.62C1472.04 951.7 1473.79 953.44 1475.93 955.86C1483.26 952.69 1490.19 950.43 1496.73 949.09C1491.94 948.41 1487.17 948.23 1482.42 948.54C1477.67 948.85 1473.74 949.54 1470.64 950.62H1470.65Z" fill="#C40505"/>
<path d="M1289.61 798.75C1289.61 798.75 1356.89 970.92 1449.16 1030.14C1460.42 1037.37 1475.05 1036.97 1485.81 1029C1539.35 989.36 1568.95 1019.41 1626.25 997.02C1634.89 993.64 1635.27 981.49 1626.82 977.67C1576.52 954.92 1504.89 929.74 1503.84 849.71" stroke="black" stroke-width="18.34" stroke-linecap="round" stroke-linejoin="round"/>
<path d="M1235.84 723C1252.09 761.08 1338.93 890.27 1480.25 852.15C1581.28 824.9 1557.91 867.86 1506.24 870.87" stroke="black" stroke-width="18.34" stroke-linecap="round" stroke-linejoin="round"/>
</g>
</g>
<defs>
<clipPath id="clip0_356_62">
<rect width="2000" height="2000" fill="white"/>
</clipPath>
</defs>
</svg>
