<svg width="2000" height="2000" viewBox="0 0 2000 2000" fill="none" xmlns="http://www.w3.org/2000/svg">
<g clip-path="url(#clip0_442_234)">
<path d="M1127.6 1690.72C1188.29 1787.12 1140.42 1901.11 1124.4 2000H0V682.291C55.05 681.391 92.59 792.181 160.04 823.171C231.61 855.681 516.9 831.311 597.37 919.331C677.84 1006.99 514.42 1176.67 601.99 1308.77C689.56 1440.49 1034.73 1543.2 1127.6 1690.72Z" fill="#AE00A8"/>
<path d="M2000 0V1317.71C1944.95 1318.61 1907.41 1207.82 1839.96 1176.83C1768.39 1144.32 1483.1 1168.69 1402.63 1080.67C1322.16 993.01 1485.58 823.33 1398.01 691.23C1310.44 559.51 965.269 456.8 872.399 309.28C811.709 212.88 859.579 98.89 875.599 0L2000 0Z" fill="#AE00A8"/>
<path d="M2000 1317.71V2000H1124.4C1140.42 1901.11 1188.29 1787.12 1127.6 1690.72C1034.73 1543.2 689.56 1440.49 601.99 1308.77C514.42 1176.67 677.84 1006.99 597.37 919.33C516.9 831.31 231.61 855.68 160.04 823.17C92.59 792.18 55.05 681.39 0 682.29V0H875.6C859.58 98.89 811.71 212.88 872.4 309.28C965.27 456.8 1310.44 559.51 1398.01 691.23C1485.58 823.33 1322.16 993.01 1402.63 1080.67C1483.1 1168.69 1768.39 1144.32 1839.96 1176.83C1907.41 1207.82 1944.95 1318.61 2000 1317.71Z" fill="url(#paint0_linear_442_234)"/>
</g>
<defs>
<linearGradient id="paint0_linear_442_234" x1="562.2" y1="1437.8" x2="1437.8" y2="562.2" gradientUnits="userSpaceOnUse">
<stop stop-color="#AE00A8"/>
<stop offset="1" stop-color="#FF0085"/>
</linearGradient>
<clipPath id="clip0_442_234">
<rect width="2000" height="2000" fill="white"/>
</clipPath>
</defs>
</svg>
