<svg width="2000" height="2000" viewBox="0 0 2000 2000" fill="none" xmlns="http://www.w3.org/2000/svg">
<g clip-path="url(#clip0_173_61)">
<mask id="mask0_173_61" style="mask-type:luminance" maskUnits="userSpaceOnUse" x="0" y="0" width="2000" height="2000">
<path d="M2000 0H0V2000H2000V0Z" fill="white"/>
</mask>
<g mask="url(#mask0_173_61)">
<path d="M957.14 1548.02C957.14 1548.02 1032.38 1699.92 937.34 1753C900.29 1773.69 861.23 1692.94 829.44 1672.25L813.62 1543.37L957.15 1548.02" fill="#A97400"/>
<path d="M957.14 1548.02C957.14 1548.02 1032.38 1699.92 937.34 1753C900.29 1773.69 861.23 1692.94 829.44 1672.25L813.62 1543.37L957.15 1548.02" stroke="black" stroke-width="18.34" stroke-linecap="round" stroke-linejoin="round"/>
<path d="M1025.57 1929.08C1018.93 1967.09 999.67 1967.49 982.9 1959.35C966.17 1951.24 954.58 1935.32 950.8 1917.09C927.69 1804.75 857.43 1582.75 718.35 1351.03C559.93 1086.95 312.14 810.21 -57.1201 668.67V648.93C326.71 764.42 587.81 1047.84 758.6 1320.68C768.69 1336.79 778.48 1352.89 787.91 1368.89C922.3 1596.13 994.46 1808.52 1023.52 1900.72C1024.95 1905.2 1025.83 1909.78 1026.23 1914.4C1026.63 1919.28 1026.41 1924.2 1025.57 1929.08Z" fill="#FF0085"/>
<path d="M1025.57 1929.08C1018.93 1967.09 999.67 1967.49 982.9 1959.35C966.17 1951.24 954.58 1935.32 950.8 1917.09C927.69 1804.75 857.43 1582.75 718.35 1351.03C731.63 1340.94 745.57 1330.45 758.6 1320.69C768.69 1336.8 778.48 1352.9 787.91 1368.9C776.79 1390.03 768.94 1402.73 779.18 1421.62C798.77 1457.83 942.04 1732.22 972.19 1848.34C990.2 1917.72 1008.77 1919.81 1026.23 1914.41C1026.63 1919.29 1026.41 1924.21 1025.57 1929.09V1929.08Z" fill="#87002D"/>
<path d="M-57.1299 668.68C636.21 934.45 901.3 1676.8 950.82 1917.1C954.57 1935.32 966.16 1951.24 982.9 1959.36C999.67 1967.5 1018.94 1967.09 1025.58 1929.08C1027.23 1919.62 1026.42 1909.9 1023.53 1900.74C957.82 1692.08 671.28 868.1 -57.1199 648.93" stroke="black" stroke-width="18.34" stroke-linecap="round" stroke-linejoin="round"/>
<path d="M942.435 1620.25C966.275 1613.05 975.135 1572.55 962.224 1529.79C949.313 1487.03 919.521 1458.2 895.682 1465.39C871.842 1472.59 862.982 1513.09 875.893 1555.85C888.804 1598.62 918.596 1627.45 942.435 1620.25Z" fill="#A97400" stroke="black" stroke-width="18.34" stroke-linecap="round" stroke-linejoin="round"/>
<path d="M838.97 1602.16C829.05 1634.55 803.35 1654.01 781.56 1645.6C773.55 1642.52 767.17 1636.09 762.83 1627.58C755.32 1612.98 753.77 1592.22 760.05 1571.73C769.94 1539.33 795.67 1519.88 817.46 1528.29C833.82 1534.62 843.34 1554.89 842.83 1578.29C842.69 1586.02 841.44 1594.09 838.97 1602.16Z" fill="#A97400" stroke="black" stroke-width="18.34" stroke-linecap="round" stroke-linejoin="round"/>
<path d="M838.97 1602.16C829.05 1634.55 803.35 1654.01 781.56 1645.6C773.55 1642.52 767.17 1636.09 762.83 1627.58C788.68 1591.36 813 1573.67 842.83 1578.3C842.69 1586.03 841.44 1594.1 838.97 1602.17V1602.16Z" fill="#703500"/>
<path d="M840.436 1596.61C848.299 1563.58 836.342 1532.44 813.728 1527.05C791.114 1521.67 766.408 1544.08 758.545 1577.11C750.681 1610.15 762.639 1641.29 785.253 1646.67C807.867 1652.05 832.573 1629.64 840.436 1596.61Z" stroke="black" stroke-width="18.34" stroke-linecap="round" stroke-linejoin="round"/>
<path d="M857.82 1684.66C848.8 1714.08 826.76 1732.83 806.47 1729.68C804.43 1729.38 802.41 1728.85 800.41 1728.1C778.62 1719.69 768.98 1686.62 778.9 1654.23C788.82 1621.84 814.52 1602.38 836.31 1610.79C846.01 1614.55 853.31 1623.16 857.51 1634.45C862.8 1648.53 863.31 1666.7 857.82 1684.66Z" fill="#A97400" stroke="black" stroke-width="18.34" stroke-linecap="round" stroke-linejoin="round"/>
<path d="M857.82 1684.66C848.8 1714.08 826.76 1732.83 806.47 1729.68C808.75 1693.24 818.05 1658.89 857.51 1634.45C862.8 1648.53 863.31 1666.7 857.82 1684.66Z" fill="#703500"/>
<path d="M859.288 1679.13C867.151 1646.1 855.194 1614.96 832.58 1609.58C809.966 1604.19 785.26 1626.61 777.397 1659.64C769.533 1692.67 781.491 1723.81 804.105 1729.19C826.719 1734.58 851.425 1712.16 859.288 1679.13Z" stroke="black" stroke-width="18.34" stroke-linecap="round" stroke-linejoin="round"/>
<path d="M912.678 1721.6C920.541 1688.57 908.583 1657.42 885.97 1652.04C863.356 1646.66 838.649 1669.07 830.786 1702.1C822.923 1735.13 834.881 1766.28 857.495 1771.66C880.109 1777.04 904.815 1754.63 912.678 1721.6Z" fill="#A97400" stroke="black" stroke-width="18.34" stroke-linecap="round" stroke-linejoin="round"/>
</g>
</g>
<defs>
<clipPath id="clip0_173_61">
<rect width="2000" height="2000" fill="white"/>
</clipPath>
</defs>
</svg>
