<svg width="2000" height="2000" viewBox="0 0 2000 2000" fill="none" xmlns="http://www.w3.org/2000/svg">
<g clip-path="url(#clip0_1_493)">
<mask id="mask0_1_493" style="mask-type:luminance" maskUnits="userSpaceOnUse" x="0" y="0" width="2000" height="2000">
<path d="M2000 0H0V2000H2000V0Z" fill="white"/>
</mask>
<g mask="url(#mask0_1_493)">
<path d="M948.44 1632.54C941.54 1677.96 955.19 1714.72 882.99 1741.06C871.95 1745.1 859.29 1746.6 845.94 1745.79C771.83 1741.64 675.19 1668.27 703.41 1573.06C716.54 1528.74 731.66 1495.98 752.2 1481.85C768.38 1470.66 787.9 1471.06 812.48 1486.47C868.25 1521.43 955.38 1587.1 948.45 1632.52L948.44 1632.54Z" fill="#A97400"/>
<path d="M845.94 1745.8C771.83 1741.65 675.19 1668.28 703.41 1573.07C716.54 1528.75 729.59 1529.64 750.14 1515.52C803.67 1566.3 823.46 1634.32 802.41 1653.28C829.84 1676.84 861.03 1718.29 845.95 1745.8H845.94Z" fill="#703500"/>
<path d="M907.241 2232.28L880.171 2239.95L801.181 2262.33L725.931 1763.63L716.831 1703.31L662.641 1344.18L720.571 1332.51L741.481 1433.33L780.041 1619.19L798.061 1706.06L907.241 2232.28Z" fill="url(#paint0_linear_1_493)" stroke="black" stroke-width="18.34" stroke-linecap="round" stroke-linejoin="round"/>
<path d="M780.04 1619.19C768.41 1615.89 757.95 1609.36 750.4 1598.28C731.4 1570.47 736.17 1487.08 741.48 1433.33L780.04 1619.19Z" fill="url(#paint1_linear_1_493)"/>
<path d="M907.24 2232.28L880.16 2239.95C865.52 2163.86 822.49 1938.74 794.68 1779.52C780.37 1778.68 756.93 1777.47 725.93 1763.63L716.83 1703.32C750.55 1704.02 786.06 1704.93 798.06 1706.07L907.24 2232.28Z" fill="url(#paint2_linear_1_493)"/>
<path d="M907.241 2232.28L880.171 2239.95L801.181 2262.33L725.931 1763.63L716.831 1703.31L662.641 1344.18L720.571 1332.51L741.481 1433.33L780.041 1619.19L798.061 1706.06L907.241 2232.28Z" stroke="black" stroke-width="18.34" stroke-linecap="round" stroke-linejoin="round"/>
<path d="M830.21 1565.59C825.7 1566.95 820.56 1566.76 815.1 1565.26C790.59 1558.73 759.52 1526.3 748.44 1488.95C742.5 1468.92 743.27 1450.83 748.11 1436.19C754.31 1417.44 767.15 1404.38 781.09 1400.24C805.85 1392.87 822.33 1453.03 862.9 1491.63C917.93 1544.06 970.69 1584.93 945.08 1661.27" fill="#A97400"/>
<path d="M830.21 1565.59C825.7 1566.95 820.56 1566.76 815.1 1565.26C790.59 1558.73 759.52 1526.3 748.44 1488.95C742.5 1468.92 743.27 1450.83 748.11 1436.19C754.31 1417.44 767.15 1404.38 781.09 1400.24C805.85 1392.87 822.33 1453.03 862.9 1491.63C917.93 1544.06 970.69 1584.93 945.08 1661.27" stroke="black" stroke-width="18.34" stroke-linecap="round" stroke-linejoin="round"/>
<path d="M815.74 1565.26C791.23 1558.73 760.16 1526.3 749.08 1488.95C743.14 1468.92 743.91 1450.83 748.75 1436.19C759.83 1478.23 786.02 1531.69 815.74 1565.26Z" fill="#703500"/>
<path d="M830.86 1565.59C826.35 1566.95 821.21 1566.76 815.75 1565.26C791.24 1558.73 760.17 1526.3 749.09 1488.95C743.15 1468.92 743.92 1450.83 748.76 1436.19C754.96 1417.44 767.8 1404.38 781.74 1400.24C806.5 1392.87 822.98 1453.03 863.55 1491.63C918.58 1544.06 971.34 1584.93 945.73 1661.27" stroke="black" stroke-width="18.34" stroke-linecap="round" stroke-linejoin="round"/>
<path d="M823.811 1738.9C815.111 1760.18 772.741 1763 729.161 1745.21C685.541 1727.42 657.251 1695.75 665.911 1674.48C667.301 1671.03 669.581 1668.1 672.621 1665.68C688.281 1652.84 724.021 1653.24 760.601 1668.17C789.361 1679.91 811.521 1697.7 820.731 1714.58C825.461 1723.27 826.751 1731.68 823.811 1738.9Z" fill="#A97400"/>
<path d="M820.731 1714.58C763.201 1721.07 712.681 1700.75 672.621 1665.68C688.281 1652.84 724.021 1653.24 760.601 1668.17C789.361 1679.91 811.521 1697.7 820.731 1714.58Z" fill="#703500"/>
<path d="M823.811 1738.9C815.111 1760.18 772.741 1763 729.161 1745.21C685.541 1727.42 657.251 1695.75 665.911 1674.48C667.301 1671.03 669.581 1668.1 672.621 1665.68C688.281 1652.84 724.021 1653.24 760.601 1668.17C789.361 1679.91 811.521 1697.7 820.731 1714.58C825.461 1723.27 826.751 1731.68 823.811 1738.9Z" stroke="black" stroke-width="18.34" stroke-linecap="round" stroke-linejoin="round"/>
<path d="M805.061 1676.71C796.371 1697.99 753.991 1700.81 710.411 1683.02C666.791 1665.23 638.501 1633.56 647.161 1612.29C649.511 1606.53 654.311 1602.13 660.921 1599.16C678.821 1590.98 710.011 1593 741.821 1605.98C777.851 1620.66 803.351 1644.8 806.321 1664.72C806.981 1668.94 806.581 1673.01 805.071 1676.72L805.061 1676.71Z" fill="#A97400"/>
<path d="M806.31 1664.72C744.6 1665.09 695.77 1635.41 660.92 1599.16C678.82 1590.98 710.01 1593 741.82 1605.98C777.85 1620.66 803.35 1644.8 806.32 1664.72H806.31Z" fill="#703500"/>
<path d="M805.061 1676.71C796.371 1697.99 753.991 1700.81 710.411 1683.02C666.791 1665.23 638.501 1633.56 647.161 1612.29C649.511 1606.53 654.311 1602.13 660.921 1599.16C678.821 1590.98 710.011 1593 741.821 1605.98C777.851 1620.66 803.351 1644.8 806.321 1664.72C806.981 1668.94 806.581 1673.01 805.071 1676.72L805.061 1676.71Z" stroke="black" stroke-width="18.34" stroke-linecap="round" stroke-linejoin="round"/>
<path d="M692.15 1539.8C710.39 1537.07 729.38 1538.73 741.83 1543.81C785.43 1561.6 813.74 1593.27 805.06 1614.55C796.38 1635.83 754 1638.65 710.39 1620.86C682.5 1609.48 647.59 1579.96 646.69 1547.26C646.18 1528.84 656.47 1509.41 684.88 1491.64L692.15 1539.8Z" fill="#A97400" stroke="black" stroke-width="18.34" stroke-linecap="round" stroke-linejoin="round"/>
<path d="M823.811 1738.91C844.581 1749.94 867.011 1766.94 907.581 1727.45" stroke="black" stroke-width="18.34" stroke-linecap="round" stroke-linejoin="round"/>
<path d="M686.551 1374.39C674.951 1366.57 652.781 1372.92 656.571 1386.38C663.691 1411.68 654.131 1459.45 666.311 1473.55C685.511 1495.78 706.661 1474.19 705.611 1451.85C705.431 1448.05 704.341 1444.02 702.061 1439.77C689.141 1415.74 699.741 1409.45 710.281 1401.58C729.821 1386.99 730.161 1371.09 733.681 1344.69C719.111 1329.47 700.321 1383.67 686.551 1374.38V1374.39Z" fill="#FF00AD" stroke="black" stroke-width="18.34" stroke-linecap="round" stroke-linejoin="round"/>
</g>
</g>
<defs>
<linearGradient id="paint0_linear_1_493" x1="662.641" y1="1797.42" x2="907.241" y2="1797.42" gradientUnits="userSpaceOnUse">
<stop stop-color="#E87600"/>
<stop offset="1" stop-color="#00FFA9"/>
</linearGradient>
<linearGradient id="paint1_linear_1_493" x1="758.4" y1="1619.19" x2="758.4" y2="1433.33" gradientUnits="userSpaceOnUse">
<stop stop-color="#E87600"/>
<stop offset="1" stop-color="#00FFA9"/>
</linearGradient>
<linearGradient id="paint2_linear_1_493" x1="812.04" y1="2239.95" x2="812.04" y2="1703.31" gradientUnits="userSpaceOnUse">
<stop stop-color="#E87600"/>
<stop offset="1" stop-color="#00FFA9"/>
</linearGradient>
<clipPath id="clip0_1_493">
<rect width="2000" height="2000" fill="white"/>
</clipPath>
</defs>
</svg>
