<svg width="2000" height="2000" viewBox="0 0 2000 2000" fill="none" xmlns="http://www.w3.org/2000/svg">
<g clip-path="url(#clip0_2_641)">
<mask id="mask0_2_641" style="mask-type:luminance" maskUnits="userSpaceOnUse" x="0" y="0" width="2000" height="2000">
<path d="M2000 0H0V2000H2000V0Z" fill="white"/>
</mask>
<g mask="url(#mask0_2_641)">
<path d="M805.389 1522.81C805.329 1523.04 805.259 1523.27 805.189 1523.5C804.009 1527.59 802.459 1531.49 800.659 1535.2H832.439C836.739 1528.11 840.229 1520.31 842.649 1511.95C851.819 1480.37 843.409 1449.63 823.489 1432.32C816.229 1425.94 807.459 1421.39 797.419 1419.22C797.369 1419.21 797.319 1419.2 797.269 1419.19C789.649 1417.55 781.499 1418.48 773.539 1420.87C767.529 1422.68 761.389 1423.93 755.159 1424.61C751.829 1424.95 748.439 1425.14 745.069 1425.14C687.649 1425.14 647.479 1372.94 655.369 1308.58C662.559 1249.94 707.149 1201.43 758.449 1193.23C752.909 1192.43 747.249 1192.02 741.449 1192.02C662.939 1192.02 590.799 1266.47 585.519 1355.87C581.089 1430.93 627.739 1491.53 694.039 1496.91C718.039 1498.86 741.719 1493.68 763.339 1483.03C789.049 1470.37 813.609 1493.38 805.389 1522.81Z" fill="url(#paint0_linear_2_641)" stroke="black" stroke-width="18.34" stroke-miterlimit="10"/>
<path d="M973.751 1689.9C956.071 1670.46 913.441 1678.2 885.411 1696.83C866.811 1709.16 854.671 1726.29 860.541 1743.42C815.411 1737.88 773.741 1706.77 754.951 1659.3C731.981 1601.22 750.661 1537.57 796.631 1504.99C804.111 1499.63 812.301 1495.16 821.141 1491.67C884.431 1466.61 957.401 1501.03 984.141 1568.53C1000.87 1610.72 995.551 1655.85 973.761 1689.89L973.751 1689.9Z" fill="#FF482E"/>
<path d="M860.529 1743.43C815.399 1737.89 773.729 1706.78 754.939 1659.31C731.969 1601.23 750.649 1537.58 796.619 1505C788.839 1574.93 803.879 1647.2 885.399 1696.84C866.799 1709.17 854.659 1726.3 860.529 1743.43Z" fill="#DD0000"/>
<path d="M973.74 1689.9C944.32 1657.54 845.81 1700.5 860.52 1743.43C815.39 1737.89 773.72 1706.78 754.93 1659.3C728.22 1591.79 757.83 1516.73 821.11 1491.67C884.4 1466.61 957.37 1501.03 984.11 1568.53C1000.84 1610.72 995.52 1655.85 973.73 1689.89L973.74 1689.9Z" stroke="black" stroke-width="18.34" stroke-linecap="round" stroke-linejoin="round"/>
<path d="M788.029 1649.7C823.489 1592.5 904.939 1571.08 951.039 1586.78" stroke="black" stroke-width="18.34" stroke-linecap="round" stroke-linejoin="round"/>
<path d="M786.6 1560.44C812.83 1521.96 869.79 1509.59 901.19 1521.83" stroke="black" stroke-width="18.34" stroke-linecap="round" stroke-linejoin="round"/>
<path d="M549.59 1303.01C531.56 1367.52 560.33 1356.16 565.54 1386.05C570.76 1415.93 591.01 1447.15 608.67 1424.94C624.06 1405.58 576.87 1397.87 607 1378.99C623.41 1368.71 624.03 1382.13 650.76 1370.94C683.52 1357.21 666.28 1303.5 663.91 1303.02C661.54 1302.55 549.59 1303.02 549.59 1303.02V1303.01Z" fill="#FF0000" stroke="black" stroke-width="18.34" stroke-linecap="round" stroke-linejoin="round"/>
</g>
</g>
<defs>
<linearGradient id="paint0_linear_2_641" x1="585.229" y1="1363.62" x2="846.359" y2="1363.62" gradientUnits="userSpaceOnUse">
<stop stop-color="#FF0085"/>
<stop offset="1" stop-color="#BE00AD"/>
</linearGradient>
<clipPath id="clip0_2_641">
<rect width="2000" height="2000" fill="white"/>
</clipPath>
</defs>
</svg>
