<svg width="2000" height="2000" viewBox="0 0 2000 2000" fill="none" xmlns="http://www.w3.org/2000/svg">
<g clip-path="url(#clip0_42_271)">
<mask id="mask0_42_271" style="mask-type:luminance" maskUnits="userSpaceOnUse" x="0" y="0" width="2000" height="2000">
<path d="M2000 0H0V2000H2000V0Z" fill="white"/>
</mask>
<g mask="url(#mask0_42_271)">
<path d="M906.47 1661.59L849.35 1713.42C775.35 1728.87 733.54 1687.73 721.82 1647.94C713.93 1621.15 701.38 1596.61 701.38 1575.22C701.38 1559.3 706.74 1547.15 716.64 1538.02C720.16 1534.68 724.27 1531.78 728.93 1529.25C734.73 1526.06 741.37 1523.45 748.78 1521.25C769.58 1515.2 796.44 1512.89 827.77 1512.89C904.19 1512.89 941.65 1585.06 906.46 1661.59H906.47Z" fill="#A97400"/>
<path d="M882.07 1588.1C876.93 1614.59 863.87 1629.56 703.59 1626.78C687.48 1603.96 701.39 1596.62 701.39 1575.23C701.39 1559.31 706.75 1547.16 716.65 1538.03C721.16 1534.76 725.34 1531.79 728.94 1529.26C736.46 1523.94 741.49 1520.53 741.89 1520.64C742.15 1520.71 744.64 1520.93 748.79 1521.26C772.67 1523.24 850.56 1529.07 859.55 1529.59C870.08 1530.18 887.65 1559.42 882.08 1588.11L882.07 1588.1Z" fill="#703500"/>
<path d="M854.86 1713.81C722.54 1741.4 701.4 1623.76 701.4 1575.23C701.4 1526.7 751.34 1512.9 827.77 1512.9C904.2 1512.9 941.65 1585.05 906.47 1661.57" stroke="black" stroke-width="18.34" stroke-linecap="round" stroke-linejoin="round"/>
<path d="M747.79 1601.72C733.81 1621.53 700.43 1622.63 669.65 1605.65C666.13 1603.71 662.64 1601.54 659.23 1599.12C625.95 1575.57 611.61 1538.59 627.24 1516.5C630.39 1512.02 634.5 1508.54 639.38 1505.97C658.6 1495.77 689.24 1500.28 715.8 1519.1C749.11 1542.62 763.42 1579.6 747.79 1601.72Z" fill="#A97400"/>
<path d="M747.79 1601.72C733.81 1621.53 700.43 1622.63 669.65 1605.65C666.9 1601.17 674.07 1595.45 671.39 1590.53C653.3 1557.25 644.13 1526.33 646.74 1502.96C665.96 1492.76 689.24 1500.28 715.8 1519.1C749.11 1542.62 763.42 1579.6 747.79 1601.72Z" fill="#703500"/>
<path d="M747.79 1601.72C733.81 1621.53 700.43 1622.63 669.65 1605.65C666.13 1603.71 662.64 1601.54 659.23 1599.12C625.95 1575.57 611.61 1538.59 627.24 1516.5C630.39 1512.02 634.5 1508.54 639.38 1505.97C658.6 1495.77 689.24 1500.28 715.8 1519.1C749.11 1542.62 763.42 1579.6 747.79 1601.72Z" stroke="black" stroke-width="18.34" stroke-miterlimit="10"/>
<path d="M746.883 1552.08C769.682 1537.5 770.357 1497.84 748.392 1463.49C726.426 1429.14 690.138 1413.12 667.339 1427.7C644.541 1442.28 643.866 1481.94 665.831 1516.29C687.797 1550.64 724.085 1566.66 746.883 1552.08Z" fill="#A97400"/>
<path d="M746.883 1552.08C769.682 1537.5 770.357 1497.84 748.392 1463.49C726.426 1429.14 690.138 1413.12 667.339 1427.7C644.541 1442.28 643.866 1481.94 665.831 1516.29C687.797 1550.64 724.085 1566.66 746.883 1552.08Z" fill="#703500"/>
<path d="M746.883 1552.08C769.682 1537.5 770.357 1497.84 748.392 1463.49C726.426 1429.14 690.138 1413.12 667.339 1427.7C644.541 1442.28 643.866 1481.94 665.831 1516.29C687.797 1550.64 724.085 1566.66 746.883 1552.08Z" stroke="black" stroke-width="18.34" stroke-miterlimit="10"/>
<path d="M799.53 1574.29C809.72 1586.28 815.12 1634.85 824.12 1650.45C833.11 1666.04 883.49 1766.18 890.68 1784.17C897.88 1802.16 956.64 1897.5 950.05 2023.43C923.07 2025.23 915.27 2003.04 915.27 2003.04C915.27 2003.04 929.13 1903.52 850.54 1769.79C783.34 1648.65 774.35 1594.08 774.35 1594.08L799.54 1574.29H799.53Z" fill="#FFC400"/>
<path d="M784.58 1617.55C788.95 1664.2 838.15 1728.42 891.63 1864.06C945.1 1999.7 917.53 2098.59 839.53 2166.54" stroke="black" stroke-width="18.34" stroke-linecap="round" stroke-linejoin="round"/>
<path d="M813.2 1608.54C817.57 1655.19 872.81 1735.79 926.29 1871.43C979.76 2007.07 942.36 2124.88 851.95 2201.17" stroke="black" stroke-width="18.34" stroke-linecap="round" stroke-linejoin="round"/>
<path d="M836.83 1441.08C861.62 1529.02 888.67 1585.7 821.14 1606.09C750.88 1627.3 695.46 1659.53 662.41 1516.64" fill="#BE00AD"/>
<path d="M811.22 1490.79L675.59 1523.71C665.63 1526.13 659.08 1517.51 663.36 1507.64L676.05 1478.39C678.3 1473.21 683.05 1469.1 688.28 1467.83L823.91 1434.91C833.87 1432.49 840.42 1441.11 836.14 1450.98L823.45 1480.23C821.2 1485.41 816.45 1489.52 811.22 1490.79Z" fill="#BE00AD"/>
<path d="M757.9 1503.74L775.66 1446.63C775.66 1446.63 837.34 1421.87 846.39 1458.07C855.44 1494.27 854.05 1594.52 833.86 1604.97C813.67 1615.41 761.32 1518.78 757.91 1503.74H757.9Z" fill="#89002E"/>
<path d="M836.83 1441.08C861.62 1529.02 888.67 1585.7 821.14 1606.09C750.88 1627.3 695.46 1659.53 662.41 1516.64" stroke="black" stroke-width="18.34" stroke-linecap="round" stroke-linejoin="round"/>
<path d="M811.22 1490.79L675.59 1523.71C665.63 1526.13 659.08 1517.51 663.36 1507.64L676.05 1478.39C678.3 1473.21 683.05 1469.1 688.28 1467.83L823.91 1434.91C833.87 1432.49 840.42 1441.11 836.14 1450.98L823.45 1480.23C821.2 1485.41 816.45 1489.52 811.22 1490.79Z" stroke="black" stroke-width="18.34" stroke-linecap="round" stroke-linejoin="round"/>
<path d="M819.23 1486.23L839.99 1555.01" stroke="black" stroke-width="18.34" stroke-linecap="round" stroke-linejoin="round"/>
<path d="M691.02 1410.54L711.78 1479.32" stroke="#FFC400" stroke-width="18.34" stroke-linecap="round" stroke-linejoin="round"/>
<path d="M772.19 1393.13L789.32 1463.29" stroke="#FFC400" stroke-width="18.34" stroke-linecap="round" stroke-linejoin="round"/>
<path d="M916.229 1575.59C901.549 1596.36 865.749 1596.61 833.869 1577.13C831.779 1575.85 829.689 1574.49 827.629 1573.02C794.349 1549.47 780.049 1512.49 795.639 1490.36C808.479 1472.2 837.609 1469.78 866.039 1482.58C872.169 1485.3 878.289 1488.78 884.199 1492.96C917.509 1516.51 931.819 1553.49 916.229 1575.58V1575.59Z" fill="#A97400"/>
<path d="M852.919 1582.05C850.829 1580.77 829.679 1574.49 827.629 1573.02C794.349 1549.47 780.049 1512.49 795.639 1490.36C808.479 1472.2 805.529 1465.51 833.959 1478.31C793.709 1512.09 821.129 1556.95 852.919 1582.04V1582.05Z" fill="#703500"/>
<path d="M916.201 1575.74C931.824 1553.64 917.502 1516.65 884.212 1493.11C850.921 1469.57 811.27 1468.41 795.647 1490.51C780.025 1512.6 794.347 1549.6 827.637 1573.13C860.927 1596.67 900.579 1597.83 916.201 1575.74Z" stroke="black" stroke-width="18.34" stroke-miterlimit="10"/>
<path d="M746.99 1647.1C747.72 1663.17 742.07 1677.11 730.48 1683.79C711.04 1695.02 682.23 1681.59 666.2 1653.78C654.83 1634.12 652.88 1612.54 659.6 1597.61C662.39 1591.45 666.64 1586.42 672.33 1583.12C691.77 1571.86 720.57 1585.32 736.61 1613.13C743.1 1624.36 746.52 1636.24 746.99 1647.1Z" fill="#A97400"/>
<path d="M746.99 1647.1C721.71 1614.92 695.66 1597.83 659.6 1597.61C662.39 1591.45 666.64 1586.42 672.33 1583.12C691.77 1571.86 720.57 1585.32 736.61 1613.13C743.1 1624.36 746.52 1636.24 746.99 1647.1Z" fill="#703500"/>
<path d="M730.465 1683.78C749.913 1672.55 752.665 1640.91 736.613 1613.11C720.561 1585.31 691.783 1571.87 672.335 1583.1C652.888 1594.33 650.135 1625.97 666.188 1653.77C682.24 1681.57 711.018 1695.01 730.465 1683.78Z" stroke="black" stroke-width="18.34" stroke-miterlimit="10"/>
</g>
</g>
<defs>
<clipPath id="clip0_42_271">
<rect width="2000" height="2000" fill="white"/>
</clipPath>
</defs>
</svg>
