<svg width="2000" height="2000" viewBox="0 0 2000 2000" fill="none" xmlns="http://www.w3.org/2000/svg">
<g clip-path="url(#clip0_1_128)">
<mask id="mask0_1_128" style="mask-type:luminance" maskUnits="userSpaceOnUse" x="0" y="0" width="2000" height="2000">
<path d="M2000 0H0V2000H2000V0Z" fill="white"/>
</mask>
<g mask="url(#mask0_1_128)">
<path d="M798.899 1493.56C795.979 1487.43 728.669 1494.22 686.929 1499.05C677.699 1489.94 665.289 1481.29 650.659 1474.47C613.289 1457.03 573.229 1457 567.219 1476.72C552.329 1525.52 633.699 1541.62 673.999 1550.36C749.169 1566.66 788.929 1597.76 850.189 1636.49C943.039 1695.2 803.139 1502.47 798.899 1493.57V1493.56Z" fill="#A97400" stroke="black" stroke-width="18.34" stroke-miterlimit="10"/>
<path d="M798.9 1493.56C795.98 1487.43 728.67 1494.22 686.93 1499.05C677.7 1489.94 641.79 1469.86 626.22 1465.59C600.54 1458.54 620.53 1521.26 643.07 1543.29C654.39 1546.17 665.18 1548.44 674 1550.35C749.17 1566.65 788.93 1597.75 850.19 1636.48C943.04 1695.19 803.14 1502.46 798.9 1493.56Z" fill="#703500"/>
<path d="M798.899 1493.56C795.979 1487.43 728.669 1494.22 686.929 1499.05C677.699 1489.94 665.289 1481.29 650.659 1474.47C613.289 1457.03 573.229 1457 567.219 1476.72C552.329 1525.52 633.699 1541.62 673.999 1550.36C749.169 1566.66 788.929 1597.76 850.189 1636.49C943.039 1695.2 803.139 1502.47 798.899 1493.57V1493.56Z" stroke="black" stroke-width="18.34" stroke-miterlimit="10"/>
<path d="M824.439 1622.14C813.039 1608.21 797.619 1595.62 781.029 1584.56C752.109 1565.28 719.669 1550.8 698.929 1542.44C691.949 1540.47 684.699 1537.77 677.509 1534.43C640.149 1516.99 616.919 1487.73 625.619 1469.04C627.979 1464.07 632.299 1460.34 638.169 1457.9C654.239 1451.13 681.619 1453.96 709.039 1466.77C725.279 1474.35 738.859 1484.17 748.289 1494.41L783.209 1499.25C783.209 1499.25 868.139 1675.61 824.429 1622.14H824.439Z" fill="#A97400" stroke="black" stroke-width="18.34" stroke-miterlimit="10"/>
<path d="M824.439 1622.14C813.039 1608.21 797.619 1595.62 781.029 1584.56C737.669 1519.9 675.289 1521.5 659.809 1463.56C675.879 1456.79 681.619 1453.96 709.039 1466.77C725.279 1474.35 738.859 1484.17 748.289 1494.41L783.209 1499.25C783.209 1499.25 868.139 1675.61 824.429 1622.14H824.439Z" fill="#703500"/>
<path d="M824.439 1622.14C813.039 1608.21 797.619 1595.62 781.029 1584.56C752.109 1565.28 719.669 1550.8 698.929 1542.44C691.949 1540.47 684.699 1537.77 677.509 1534.43C640.149 1516.99 616.919 1487.73 625.619 1469.04C627.979 1464.07 632.299 1460.34 638.169 1457.9C654.239 1451.13 681.619 1453.96 709.039 1466.77C725.279 1474.35 738.859 1484.17 748.289 1494.41L783.209 1499.25C783.209 1499.25 868.139 1675.61 824.429 1622.14H824.439Z" stroke="black" stroke-width="18.34" stroke-miterlimit="10"/>
<path d="M891.6 1680.02C891.6 1680.02 903.25 1553.44 903.17 1542.09C903.17 1541.23 903.17 1540.38 903.13 1539.56C902.83 1514.24 900.69 1505.5 900.77 1500.7C900 1488.23 902.83 1473.58 909.6 1459.09C924.04 1428.11 950.91 1409.99 969.59 1418.73C988.27 1427.43 1002.38 1477.66 983.63 1518.99C964.87 1560.32 962.21 1568.14 962.85 1607.43C963.06 1623.58 967.05 1638.07 977.72 1646.81C1014.44 1676.93 891.61 1680.02 891.61 1680.02H891.6Z" fill="#A97400" stroke="black" stroke-width="18.34" stroke-miterlimit="10"/>
<g style="mix-blend-mode:multiply">
<path d="M891.6 1696.1C891.6 1696.1 903.25 1569.52 903.17 1558.17C903.17 1557.31 903.17 1556.46 903.13 1555.64C919.16 1570.98 938.89 1584.48 959.4 1587.04C959.61 1603.19 960.63 1625.82 971.3 1634.56C1008.02 1664.68 891.6 1696.09 891.6 1696.09V1696.1Z" fill="#FFC2AB"/>
</g>
<path d="M891.6 1680.02C891.6 1680.02 903.25 1553.44 903.17 1542.09C903.17 1541.23 903.17 1540.38 903.13 1539.56C902.83 1514.24 900.69 1505.5 900.77 1500.7C900 1488.23 902.83 1473.58 909.6 1459.09C924.04 1428.11 950.91 1409.99 969.59 1418.73C988.27 1427.43 1002.38 1477.66 983.63 1518.99C964.87 1560.32 962.21 1568.14 962.85 1607.43C963.06 1623.58 967.05 1638.07 977.72 1646.81C1014.44 1676.93 891.61 1680.02 891.61 1680.02H891.6Z" stroke="black" stroke-width="18.34" stroke-miterlimit="10"/>
<path d="M975.238 1701.15C1002.16 1659.6 981.118 1577.58 906.758 1571.44C850.848 1566.82 840.088 1525.72 825.988 1497.4C816.668 1478.68 803.628 1457.7 788.808 1448.67C753.588 1427.23 691.688 1435.64 677.718 1450.8C648.988 1481.99 713.038 1490.64 745.798 1515.7C806.098 1565.36 826.338 1627.03 850.198 1672.12C856.868 1684.73 860.018 1692.16 881.938 1709.06" fill="#A97400"/>
<path d="M975.238 1701.15C1002.16 1659.6 981.118 1577.58 906.758 1571.44C850.848 1566.82 840.088 1525.72 825.988 1497.4C816.668 1478.68 803.628 1457.7 788.808 1448.67C753.588 1427.23 691.688 1435.64 677.718 1450.8C648.988 1481.99 713.038 1490.64 745.798 1515.7C806.098 1565.36 826.338 1627.03 850.198 1672.12C856.868 1684.73 860.018 1692.16 881.938 1709.06" stroke="black" stroke-width="18.34" stroke-linecap="round" stroke-linejoin="round"/>
<path d="M1161.51 1399.61C1168.26 1333.27 971.627 1258.92 722.321 1233.56C473.015 1208.19 265.44 1241.4 258.689 1307.74C251.939 1374.08 448.57 1448.43 697.876 1473.8C947.182 1499.16 1154.76 1465.95 1161.51 1399.61Z" fill="url(#paint0_linear_1_128)" stroke="black" stroke-width="18.34" stroke-linecap="round" stroke-linejoin="round"/>
<path d="M704.159 1442.25C454.819 1417.5 255.799 1350.62 259.659 1292.86C260.739 1276.82 277.329 1263.2 306.049 1252.39C380.849 1224.21 537.989 1215.21 718.169 1233.11C766.089 1237.85 812.169 1244.18 855.319 1251.67C1036.53 1283.23 1165.8 1335.85 1162.66 1382.5C1158.8 1440.23 953.489 1467.01 704.149 1442.25H704.159Z" fill="#FF008B" stroke="black" stroke-width="18.34" stroke-linecap="round" stroke-linejoin="round"/>
<path d="M306.049 1252.39C380.849 1224.21 537.989 1215.21 718.169 1233.11C766.089 1237.85 812.169 1244.18 855.319 1251.67C839.009 1410.96 496.959 1458.6 306.049 1252.39Z" fill="#FF0000"/>
<path d="M704.159 1442.25C454.819 1417.5 255.799 1350.62 259.659 1292.86C260.739 1276.82 277.329 1263.2 306.049 1252.39C380.849 1224.21 537.989 1215.21 718.169 1233.11C766.089 1237.85 812.169 1244.18 855.319 1251.67C1036.53 1283.23 1165.8 1335.85 1162.66 1382.5C1158.8 1440.23 953.489 1467.01 704.149 1442.25H704.159Z" stroke="black" stroke-width="18.34" stroke-linecap="round" stroke-linejoin="round"/>
</g>
</g>
<defs>
<linearGradient id="paint0_linear_1_128" x1="1161.95" y1="1392.04" x2="257.818" y2="1315.65" gradientUnits="userSpaceOnUse">
<stop stop-color="#FF33FF"/>
<stop offset="1" stop-color="#00D7AD"/>
</linearGradient>
<clipPath id="clip0_1_128">
<rect width="2000" height="2000" fill="white"/>
</clipPath>
</defs>
</svg>
