<svg width="2000" height="2000" viewBox="0 0 2000 2000" fill="none" xmlns="http://www.w3.org/2000/svg">
<g clip-path="url(#clip0_41_70)">
<mask id="mask0_41_70" style="mask-type:luminance" maskUnits="userSpaceOnUse" x="0" y="0" width="2000" height="2000">
<path d="M2000 0H0V2000H2000V0Z" fill="white"/>
</mask>
<g mask="url(#mask0_41_70)">
<path d="M838.84 1627C845.8 1566.58 900.76 1523.46 927.93 1537.08C955.1 1550.7 991.43 1623.36 989.61 1632.45C987.79 1641.53 981.27 1713.74 977.95 1716.92C974.63 1720.1 954.65 1744.17 952.83 1744.17C951.01 1744.17 914.68 1744.62 905.15 1737.81C895.61 1731 830.22 1701.93 838.85 1627H838.84Z" fill="#A97400"/>
<path d="M858.62 1737.8C838.73 1675.95 809.11 1552.7 744.83 1467.9C694.85 1401.97 759.35 1326.11 806.03 1365.32C845.66 1398.61 850.21 1445.29 854.75 1494.76C857.11 1520.45 859.47 1546.9 866.75 1572.61C866.75 1572.61 904.23 1499.39 927.92 1521.14" fill="#A97400"/>
<path d="M858.62 1737.8C838.73 1675.95 809.11 1552.7 744.83 1467.9C694.85 1401.97 759.35 1326.11 806.03 1365.32C845.66 1398.61 850.21 1445.29 854.75 1494.76C857.11 1520.45 859.47 1546.9 866.75 1572.61C866.75 1572.61 904.23 1499.39 927.92 1521.14" stroke="black" stroke-width="18.34" stroke-linecap="round" stroke-linejoin="round"/>
<path d="M762.71 1493.83C757.1 1484.88 751.15 1476.18 744.84 1467.89C700.85 1409.89 745.46 1344.18 788.65 1355.92C739.34 1386.99 742.13 1437.62 762.71 1493.83Z" fill="#703500"/>
<path d="M847.239 1438.26C851.319 1487.97 796.709 1551.31 845.599 1596.57C879.019 1627.5 856.82 1533.06 856.82 1533.06L847.239 1438.26Z" fill="#703500"/>
<path d="M858.62 1737.8C838.73 1675.95 809.11 1552.7 744.83 1467.9C694.85 1401.97 759.35 1326.11 806.03 1365.32C845.66 1398.61 850.21 1445.29 854.75 1494.76C857.11 1520.45 859.47 1546.9 866.75 1572.61C866.75 1572.61 904.23 1499.39 927.92 1521.14" stroke="black" stroke-width="18.34" stroke-linecap="round" stroke-linejoin="round"/>
<path d="M998.05 1585.18C998.05 1585.18 1036.5 1724.33 949.4 1752.65L998.05 1585.18Z" fill="#A97400"/>
<path d="M998.05 1585.18C998.05 1585.18 1036.5 1724.33 949.4 1752.65" stroke="black" stroke-width="18.34" stroke-linecap="round" stroke-linejoin="round"/>
<path d="M935.35 1504.41C934.12 1505.19 916.75 1456.92 873.01 1484.57C829.27 1512.23 835.3 1578.4 864.11 1604.88" fill="#A97400"/>
<path d="M935.35 1504.41C934.12 1505.19 916.75 1456.92 873.01 1484.57C829.27 1512.23 835.3 1578.4 864.11 1604.88" stroke="black" stroke-width="18.34" stroke-linecap="round" stroke-linejoin="round"/>
<path d="M929.96 1496C927.92 1496 894.67 1483.54 890.6 1540.57C887.91 1578.19 914.64 1616.03 921.01 1609.16C927.37 1602.29 864.35 1551.59 929.96 1496.01V1496Z" fill="#703500"/>
<path d="M935.35 1504.41C934.12 1505.19 916.75 1456.92 873.01 1484.57C829.27 1512.23 835.3 1578.4 864.11 1604.88" stroke="black" stroke-width="18.34" stroke-linecap="round" stroke-linejoin="round"/>
<path d="M921.01 1609.15C855.34 1501.05 975.94 1456.99 1012.58 1555.68C1049.22 1654.36 1006.83 1653.89 1006.83 1653.89" fill="#A97400"/>
<path d="M921.01 1609.15C855.34 1501.05 975.94 1456.99 1012.58 1555.68C1049.22 1654.36 1006.83 1653.89 1006.83 1653.89" stroke="black" stroke-width="18.34" stroke-linecap="round" stroke-linejoin="round"/>
<path d="M998.05 1585.18C998.05 1585.18 1036.5 1724.33 949.4 1752.65" stroke="black" stroke-width="18.34" stroke-linecap="round" stroke-linejoin="round"/>
</g>
</g>
<defs>
<clipPath id="clip0_41_70">
<rect width="2000" height="2000" fill="white"/>
</clipPath>
</defs>
</svg>
