<svg width="2000" height="2000" viewBox="0 0 2000 2000" fill="none" xmlns="http://www.w3.org/2000/svg">
<path d="M1040.6 1035.1C1039.8 1020.6 1040 1006.1 1040.2 991.6C1039 990.3 1037.9 988.9 1037 987.4C1032.2 979.8 1029.1 971 1027.4 962.1C1026.3 956.3 1025.4 950.7 1023.6 945.1C1019.9 937.7 1015.4 930.7 1011.3 923.6C1007.8 917.5 1004.6 911.2 1001.6 904.8C997.5 902.3 994.1 898.9 991.7 894.7C990.9 893.2 989.9 891.8 989 890.3C988.7 890 988.5 889.7 988.2 889.4C985.4 886.2 982.3 883.3 979.1 880.5C978.3 879.8 977.5 879.1 976.6 878.4C976.5 878.4 976.5 878.3 976.4 878.2C975.4 877.4 974.1 876.5 973.7 876.2C970.4 873.8 966.9 871.6 963.5 869.4C949.6 860.6 935.8 852 920.8 845.2C911.5 841.6 901.9 838.6 892.1 836.4C900.3 840.3 907.3 844.4 912.9 848.5C912.7 847.9 912.6 847.3 912.4 846.7C919.5 851.9 927.2 856.6 934.9 859.7C935.1 860.2 935.2 860.7 935.3 861.2C935.3 861.4 935.4 861.5 935.5 861.7C937.1 867.8 901.9 1227.1 938.6 1263.4C943.8 1272.5 955.7 1279.2 968.1 1281.8C981.8 1284.7 995.1 1290.8 1002.4 1284.7C1008.2 1279.9 1010.2 1267.7 1005.9 1240.6C1005.7 1191.3 1026.4 1115.8 1041.1 1038.1C1040.7 1037.3 1040.6 1036.2 1040.6 1035.1Z" fill="#F607A9"/>
<path d="M1039.3 1049.4C1021 1124.2 997.6 1205 1008.6 1288.3C1008.6 1288.3 944 1288.3 934 1254.1" stroke="black" stroke-width="18.34" stroke-linecap="round" stroke-linejoin="round"/>
</svg>
