<svg width="2000" height="2000" viewBox="0 0 2000 2000" fill="none" xmlns="http://www.w3.org/2000/svg">
<g clip-path="url(#clip0_258_3)">
<mask id="mask0_258_3" style="mask-type:luminance" maskUnits="userSpaceOnUse" x="0" y="0" width="2000" height="2000">
<path d="M2000 0H0V2000H2000V0Z" fill="white"/>
</mask>
<g mask="url(#mask0_258_3)">
<path d="M912.3 847C917.7 851 923.5 854.6 929.3 857.5C938.3 854.1 948.3 858.9 953.8 866.6C950.7 862.3 953.7 866.3 954.7 867.2C954.8 867.3 954.9 867.4 955 867.5C957.5 869 959.9 870.6 962.4 872.1C968.3 875.7 974 879.7 978.7 884.8C988.3 895.5 996.1 907.3 1003.7 919.6C1008.4 927.3 1012 935.4 1015 943.8C1018.4 945.5 1021.3 948.2 1023.6 951.6C1034 967.5 1032.8 989.2 1030.2 1007.2C1030.2 1007.4 1030.1 1007.5 1030.1 1007.7C1036 1011.4 1040.3 1018.5 1040 1025.3C1039.7 1030 1040.3 1034.7 1040.9 1039.4C1052.9 976.3 1060.9 911.7 1050.5 858.4C1027.4 739.6 867.6 690.4 764.8 658.8C662 627.2 525.7 670.6 525.7 670.6C519.7 671.8 513.7 673.3 507.8 675.2C433.8 698.7 373.1 775.9 340.6 858.5C320.3 903.2 308.5 952.2 308.7 985.5C316 975.1 322.7 964.5 328.9 954.1C326.1 964.4 323.9 974.9 322.2 985.5C360.4 906.4 405.1 863.7 460 837.8C499 819.4 543.2 809.4 594 800.9C701 782.8 863.1 811.7 913 848.9C912.7 848.2 912.5 847.6 912.3 847Z" fill="#F607A9"/>
<path d="M507.6 675.1C529.6 742.1 389.3 799.8 434.8 851.1C379.9 877 360.2 906.2 322 985.4C323.7 974.8 326 964.3 328.7 954C322.5 964.4 315.8 975 308.5 985.4C308.3 952.1 320.1 903.2 340.4 858.4C372.9 775.8 433.6 698.7 507.6 675.1Z" fill="#CE0D5B"/>
<path d="M1039.3 1049.4C1039.3 1049.4 1043 976.2 1005.9 920.6C1003.3 916.7 1000.7 912.7 998.2 908.6C927.3 789.4 381.599 683.9 308.899 1024.6C308.899 1024.6 292.799 828.1 469.399 701C650.299 570.9 977.7 701.2 1035.3 818.5C1073.2 895.8 1059.2 968.4 1039.3 1049.4Z" stroke="black" stroke-width="18.34" stroke-linecap="round" stroke-linejoin="round"/>
<path d="M507.7 741.9L285.6 603.8L293.6 378L483.7 486.7L507.7 741.9Z" fill="#3DFF00" stroke="black" stroke-width="18.34" stroke-linecap="round" stroke-linejoin="round"/>
<path d="M507.4 738.7L369.4 558.9L302.1 382.8L293.6 378L285.6 603.8L507.7 741.9L507.4 738.7Z" fill="#00C109"/>
<path d="M293.6 378L369.4 558.9L507.7 741.9" stroke="black" stroke-width="18.34" stroke-linecap="round" stroke-linejoin="round"/>
<path d="M483.699 486.7L315.199 396.7L462.399 512.3L500.499 665.4L483.699 486.7Z" fill="#00C109"/>
<path d="M285.6 603.8L369.4 558.9L483.7 486.7" stroke="black" stroke-width="18.34" stroke-linecap="round" stroke-linejoin="round"/>
<path d="M507.7 741.9L285.6 603.8L293.6 378L483.7 486.7L507.7 741.9Z" stroke="black" stroke-width="18.34" stroke-linecap="round" stroke-linejoin="round"/>
</g>
</g>
<defs>
<clipPath id="clip0_258_3">
<rect width="2000" height="2000" fill="white"/>
</clipPath>
</defs>
</svg>
