<svg width="2000" height="2000" viewBox="0 0 2000 2000" fill="none" xmlns="http://www.w3.org/2000/svg">
<g clip-path="url(#clip0_25_41)">
<mask id="mask0_25_41" style="mask-type:luminance" maskUnits="userSpaceOnUse" x="0" y="0" width="2000" height="2000">
<path d="M2000 0H0V2000H2000V0Z" fill="white"/>
</mask>
<g mask="url(#mask0_25_41)">
<path d="M428.02 1156.74L540.51 986.7C527.15 944.62 480.16 867.06 480.16 867.06C567.42 903.42 554.39 923.41 573.64 949.88L724.8 858.97L693.74 744.93L769.25 832.24L920.7 741.15C920.7 741.15 774.25 429.98 455.79 547.39C127.06 668.59 99.0003 1025.88 257.06 1153.01L435.46 1165.18" fill="#1610DF"/>
<path d="M368.85 588.44C117.07 730.67 107.39 1046.5 275.37 1171.19L398.05 1169.43C124.9 909.62 262.31 715.83 368.85 588.44Z" fill="#0B006D"/>
<path d="M435.47 1165.17L540.51 986.7C527.15 944.62 480.16 867.06 480.16 867.06C552.31 912.06 554.39 923.41 573.64 949.88L724.8 858.97L691.58 737.03L769.24 832.24L920.69 741.15C920.69 741.15 774.24 429.98 455.78 547.39C127.05 668.59 82.4002 1024.62 275.34 1171.2L435.45 1165.19" stroke="black" stroke-width="18.34" stroke-linecap="round" stroke-linejoin="round"/>
<path d="M453.07 1075.5C467.39 1096.28 591.11 1288.37 653.54 1405.11C674.8 1444.87 656.34 1494.25 614.18 1510.24C614.18 1510.24 478.44 1108.77 420.89 1151.81" fill="#1610DF"/>
<path d="M453.07 1075.5C467.39 1096.28 591.11 1288.37 653.54 1405.11C674.8 1444.87 656.34 1494.25 614.18 1510.24C614.18 1510.24 478.44 1108.77 420.89 1151.81" stroke="black" stroke-width="18.34" stroke-linecap="round" stroke-linejoin="round"/>
</g>
</g>
<defs>
<clipPath id="clip0_25_41">
<rect width="2000" height="2000" fill="white"/>
</clipPath>
</defs>
</svg>
