<svg width="2000" height="2000" viewBox="0 0 2000 2000" fill="none" xmlns="http://www.w3.org/2000/svg">
<g clip-path="url(#clip0_175_224)">
<mask id="mask0_175_224" style="mask-type:luminance" maskUnits="userSpaceOnUse" x="0" y="0" width="2000" height="2000">
<path d="M2000 0H0V2000H2000V0Z" fill="white"/>
</mask>
<g mask="url(#mask0_175_224)">
<path d="M653.622 960.01C725.522 1076.2 723.462 1067.76 721.242 1182.93C719.022 1298.1 653.622 1398.73 707.322 1543.32C712.232 1556.54 495.922 1369.62 519.482 1244.6C519.482 1244.6 449.182 1362.26 555.602 1497.56C555.602 1497.56 399.792 1425.47 355.832 1283.85C311.872 1142.23 550.642 960.01 550.642 960.01H653.622Z" fill="#FF2C10"/>
<g style="mix-blend-mode:multiply">
<path d="M653.622 960.01C725.522 1076.2 723.462 1067.76 721.242 1182.93C719.022 1298.1 653.622 1398.73 707.322 1543.32C712.232 1556.54 495.922 1369.62 519.482 1244.6C519.482 1244.6 449.182 1362.26 555.602 1497.56C555.602 1497.56 399.792 1425.47 355.832 1283.85C311.872 1142.23 550.642 960.01 550.642 960.01H653.622Z" fill="#FF2C10"/>
</g>
<path d="M653.622 960.01C725.522 1076.2 723.462 1067.76 721.242 1182.93C719.022 1298.1 653.622 1398.73 707.322 1543.32C712.232 1556.54 495.922 1369.62 519.482 1244.6C519.482 1244.6 449.182 1362.26 555.602 1497.56C555.602 1497.56 399.792 1425.47 355.832 1283.85C311.872 1142.23 550.642 960.01 550.642 960.01H653.622Z" stroke="black" stroke-width="18.34" stroke-linecap="round" stroke-linejoin="round"/>
</g>
</g>
<defs>
<clipPath id="clip0_175_224">
<rect width="2000" height="2000" fill="white"/>
</clipPath>
</defs>
</svg>
