<svg width="2000" height="2000" viewBox="0 0 2000 2000" fill="none" xmlns="http://www.w3.org/2000/svg">
<g clip-path="url(#clip0_7_1185)">
<mask id="mask0_7_1185" style="mask-type:luminance" maskUnits="userSpaceOnUse" x="0" y="0" width="2000" height="2000">
<path d="M2000 0H0V2000H2000V0Z" fill="white"/>
</mask>
<g mask="url(#mask0_7_1185)">
<path d="M94.9599 1321.18C133.56 1397.25 379.02 1319.24 379.02 1319.24L239.35 1089.39C227.47 1097.63 39.3999 1203.19 94.9599 1321.18C131.29 1398.36 379.02 1319.24 379.02 1319.24L94.9599 1321.18Z" fill="#7D00DA"/>
<path d="M395.87 1306.55C398.77 1305.6 401.61 1304.66 404.37 1303.74C414.43 1300.37 423.47 1297.21 431.15 1294.46C431.93 1294.18 432.68 1293.91 433.43 1293.64C449.07 1287.99 458.53 1284.23 458.53 1284.23L333.46 1080.77C322.23 1089.61 91.78 1210.34 138.88 1315.52C146.3 1332.08 163.89 1340.62 187.22 1343.72C190.81 1344.2 194.53 1344.54 198.38 1344.77C200.3 1344.88 202.25 1344.97 204.23 1345.02C208.19 1345.13 212.26 1345.13 216.43 1345.02C220.6 1344.91 224.86 1344.7 229.2 1344.39C231.37 1344.24 233.56 1344.06 235.77 1343.85C240.19 1343.45 244.67 1342.95 249.22 1342.37C258.31 1341.21 267.61 1339.73 277 1337.99C281.7 1337.12 286.42 1336.19 291.14 1335.21C298.23 1333.73 305.33 1332.13 312.4 1330.44C314.76 1329.88 317.1 1329.3 319.45 1328.72C323.7 1327.67 327.92 1326.58 332.12 1325.47C334.87 1324.75 337.6 1324.02 340.32 1323.28C348.87 1320.95 357.23 1318.54 365.32 1316.13C366.47 1315.79 367.61 1315.44 368.75 1315.1C378.27 1312.22 387.37 1309.34 395.88 1306.56L395.87 1306.55Z" fill="#4700A1"/>
<path d="M954.6 912.21C952.66 908.83 950.82 905.57 949.17 902.38C945.28 894.97 942.27 888.069 940.55 881.729C938.64 874.579 936.92 868.01 935.34 861.95C929.36 839.17 924.99 823.209 919.45 810.479C956.76 857.769 956.36 877.989 954.6 912.219V912.21Z" fill="#FDEA00"/>
<path d="M429.75 1012.99C429.75 1012.99 489.42 1152.79 437.48 1188.04C437.48 1188.04 421.08 1129.75 308.1 1108.32" fill="#FDEA00"/>
<path d="M267.04 1160.34C297.47 1133.91 356.8 1067.21 410.81 1026.91C410.81 1026.91 468.5 983.86 516.72 952.58C655.37 862.64 886.72 812.57 935.45 800.81C935.45 800.81 776.83 430.1 374.93 626.37C195.38 714.06 135.15 958.2 189.32 1056.24C237.37 1143.21 267.04 1160.33 267.04 1160.33V1160.34Z" fill="#7D00DA"/>
<path d="M282.61 1067.97C191.23 905.03 191.23 870.51 228.21 752.17C157.94 868.05 163.5 1009.5 189.32 1056.25C237.37 1143.22 267.04 1160.34 267.04 1160.34C279.54 1149.48 296.93 1131.82 316.82 1111.99C305.17 1097.59 291.77 1084.32 282.61 1067.97Z" fill="#4700A1"/>
<path d="M228.05 1118.12C279.61 1072.54 493.75 838.52 900.93 754.1L935.44 800.81C935.44 800.81 524.94 853.69 267.76 1177.99L228.05 1118.12Z" fill="#0D009F"/>
<path d="M661.63 603.69C671.75 680.7 657.84 718.17 657.84 718.17C646.65 667.06 590.77 659.47 560.89 659.16C553.39 659.08 549.37 667.93 554.23 673.65C642.21 777.11 587.6 842.41 581.43 860.84C581.43 860.84 757.82 832.58 799.67 729.58C809.81 704.63 814.48 682.84 815.55 663.94C801.39 653.62 786.02 643.87 769.41 635.21C761.69 683.57 741.3 693.4 741.3 693.4C733.69 650.22 710.2 622.52 690.26 606.17C680.98 604.1 671.47 602.36 661.66 601.11C661.53 601.93 661.51 602.79 661.63 603.69Z" fill="#4700A1"/>
<path d="M267.77 1177.99C288.59 1158.45 356.81 1067.21 410.82 1026.9C410.82 1026.9 468.51 983.85 516.73 952.57C655.38 862.63 880.28 809.92 929.01 798.16C929.01 798.16 776.84 425.37 374.94 626.36C189 719.35 132.56 926.02 189.33 1056.23C231.56 1153.08 267.77 1177.98 267.77 1177.98V1177.99Z" stroke="black" stroke-width="18.34" stroke-linecap="round" stroke-linejoin="round"/>
<path d="M608.16 838.51C606.19 835.23 581.32 751.56 679.75 727.28C778.17 703 824.35 738.92 830.26 763.2L608.17 838.51H608.16Z" fill="#FDC100"/>
<path d="M374.93 1311.71C374.93 1311.71 129.47 1389.72 90.87 1313.65C41.0799 1215.53 198.79 1108.76 210.67 1100.52" stroke="black" stroke-width="18.34" stroke-linecap="round" stroke-linejoin="round"/>
<path d="M900.93 754.1L837.06 763.2C833.88 760.99 812.88 686.83 700.03 716.73C566.26 752.17 618.26 845.34 618.26 845.34C618.26 845.34 488.16 879.7 228.05 1118.12" stroke="black" stroke-width="18.34" stroke-linecap="round" stroke-linejoin="round"/>
<path d="M429.75 1012.99C429.75 1012.99 471.24 1121.79 437.48 1188.04" stroke="black" stroke-width="18.34" stroke-linecap="round" stroke-linejoin="round"/>
<path d="M921.35 798.17C977.56 866.89 962.45 885.86 962.82 944.23" stroke="black" stroke-width="18.34" stroke-linecap="round" stroke-linejoin="round"/>
<path d="M837.07 763.2C837.07 763.2 809.89 770.56 768.1 782.37" stroke="black" stroke-width="18.34" stroke-linecap="round" stroke-linejoin="round"/>
<path d="M618.27 845.34C624.09 827.94 677.61 764.41 582.58 663.67C582.58 663.67 673.42 652.55 687.38 716.31C687.38 716.31 701.82 677.42 688.51 597.31C688.51 597.31 750.16 621.83 762.87 693.91C762.87 693.91 797.99 677.04 789.67 575.01C789.67 575.01 859.87 617.82 815.66 726.63C777.81 819.78 618.28 845.34 618.28 845.34H618.27Z" fill="#FDEA00"/>
<path d="M641.77 668.03C663.11 684.63 673.79 680.44 688.01 705.09C699.62 666.89 696.51 658 710.58 710.17C724.65 762.34 688.65 828.77 668.32 833.79C648 838.82 612.71 869.98 632.04 814.85C651.37 759.72 621.17 703.3 603.95 683.48C586.73 663.66 600.78 661.41 619.03 665.58C637.28 669.75 641.77 668.02 641.77 668.02V668.03Z" fill="#FDC100"/>
<path d="M618.27 845.34C624.09 827.94 677.61 764.41 582.58 663.67C582.58 663.67 673.42 652.55 687.38 716.31C687.38 716.31 701.82 677.42 688.51 597.31C688.51 597.31 750.16 621.83 762.87 693.91C762.87 693.91 797.99 677.04 789.67 575.01C789.67 575.01 859.87 617.82 815.66 726.63C777.81 819.78 618.28 845.34 618.28 845.34H618.27Z" stroke="black" stroke-width="18.34" stroke-linecap="round" stroke-linejoin="round"/>
<path d="M374.93 1311.71C374.93 1311.71 129.47 1389.72 90.87 1313.65" stroke="black" stroke-width="18.34" stroke-linecap="round" stroke-linejoin="round"/>
<path d="M517.28 865.68C517.28 865.68 552.81 921.52 548.1 949.06L616.35 917.919C616.35 917.919 588.1 851.519 569.69 839.979L517.28 865.68Z" fill="#D1D1D1"/>
<path d="M516.96 892.63C516.96 892.63 458.31 926.95 349.43 947.09C349.43 947.09 366.84 988.1 361.92 1004.49C361.92 1004.49 487.74 989.02 548.61 935.52" fill="#0D009F"/>
<path d="M524.51 890.09C524.51 890.09 458.31 926.96 349.43 947.09C349.43 947.09 366.84 988.1 361.92 1004.49C361.92 1004.49 503.81 990.37 546.85 936.65" stroke="black" stroke-width="18.34" stroke-linecap="round" stroke-linejoin="round"/>
<path d="M512.63 874.63C512.63 874.63 552.81 921.52 548.1 949.06L616.35 917.92C616.35 917.92 597.77 853.01 579.36 841.46L512.63 874.62V874.63Z" stroke="black" stroke-width="18.34" stroke-linecap="round" stroke-linejoin="round"/>
</g>
</g>
<defs>
<clipPath id="clip0_7_1185">
<rect width="2000" height="2000" fill="white"/>
</clipPath>
</defs>
</svg>
