<svg width="2000" height="2000" viewBox="0 0 2000 2000" fill="none" xmlns="http://www.w3.org/2000/svg">
<g clip-path="url(#clip0_636_3)">
<mask id="mask0_636_3" style="mask-type:luminance" maskUnits="userSpaceOnUse" x="0" y="0" width="2000" height="2000">
<path d="M2000 0H0V2000H2000V0Z" fill="white"/>
</mask>
<g mask="url(#mask0_636_3)">
<path d="M462.399 1067.7C465.399 1138.6 507.599 1158.9 374.599 1196.3C320.099 1247.3 241.799 1362.8 366.999 1465.5C366.999 1465.5 118.599 1352.2 252.799 1006H252.999L462.299 960.299L518.399 949.399C515.299 951.299 459.499 997.799 462.399 1067.7Z" fill="#00D4B0"/>
<path d="M367.098 1465.4C367.098 1465.4 118.698 1352.1 252.898 1005.9H253.098L462.398 960.199C292.998 1050.5 398.098 1059 363.298 1132.4C356.098 1147.6 344.998 1160.5 331.598 1170.5C263.498 1221 248.198 1368 367.098 1465.4Z" fill="#00AFAF"/>
<path d="M462.399 1067.7C465.199 1134.2 495.899 1158.6 405.599 1186.3C382.599 1193.4 359.699 1216.4 343.099 1233.8C289.599 1290.2 278.599 1393.8 380.399 1477.2C380.399 1477.2 118.699 1352.2 252.899 1006H253.099L462.399 960.299L518.499 949.399C515.299 951.299 459.499 997.799 462.399 1067.7Z" stroke="black" stroke-width="18.34" stroke-linecap="round" stroke-linejoin="round"/>
<path d="M1089.3 627.099C1061.7 675.199 1011.8 719.899 949.599 760.499C841.999 830.699 697.599 888.799 568.499 931.299C568.499 931.299 568.499 931.299 568.399 931.299C528.199 944.499 489.399 956.299 453.799 966.499C453.799 966.499 453.699 966.499 453.699 966.599C412.799 978.199 375.999 987.699 345.499 994.999C322.499 1000.5 300.299 1004 279.199 1006C124.099 1020.4 26.7989 949.399 98.8989 940.199C180.799 929.699 211.799 915.199 257.599 894.699C257.599 894.699 299.399 789.199 225.699 670.799C209.899 645.499 209.299 621.999 232.799 602.599C253.999 585.099 294.899 570.799 361.999 561.399C503.199 541.699 540.999 511.699 540.999 511.699C540.999 511.699 557.999 350.899 669.499 436.899C857.499 581.999 886.299 696.899 886.299 696.899C1030.4 672.199 1172 483.099 1089.3 627.099Z" fill="#331DD1" stroke="black" stroke-width="18.34" stroke-linecap="round" stroke-linejoin="round"/>
<path d="M543.799 554C565.299 512.6 561.099 438.1 621.599 411.6C621.599 411.6 558.299 405.2 540.799 493.9C532.999 533.4 541.499 558.5 543.799 554Z" fill="#4C13BA"/>
<path d="M662.699 811.6C660.199 814.8 578.999 916.5 453.699 966.5C453.699 966.5 453.599 966.5 453.599 966.6C412.699 978.2 375.899 987.7 345.399 995C322.399 1000.5 300.199 1004 279.099 1006C123.999 1020.4 26.6993 949.4 98.7993 940.2C180.699 929.7 211.699 915.2 257.499 894.7C257.499 894.7 299.299 789.2 225.599 670.8C209.799 645.5 209.199 622 232.699 602.6C267.199 713.8 337.999 775.1 327.399 805.3C312.399 847.7 277.499 909.6 390.899 886.9C390.899 886.9 616.599 852.4 662.699 811.6Z" fill="#4C13BA"/>
<path d="M1089.3 627.099C1061.7 675.199 1011.8 719.899 949.599 760.499C841.999 830.699 697.599 888.799 568.499 931.299C568.499 931.299 568.499 931.299 568.399 931.299C528.199 944.499 489.399 956.299 453.799 966.499C453.799 966.499 453.699 966.499 453.699 966.599C412.799 978.199 375.999 987.699 345.499 994.999C322.499 1000.5 300.299 1004 279.199 1006C124.099 1020.4 26.7989 949.399 98.8989 940.199C180.799 929.699 211.799 915.199 257.599 894.699C257.599 894.699 299.399 789.199 225.699 670.799C209.899 645.499 209.299 621.999 232.799 602.599C253.999 585.099 294.899 570.799 361.999 561.399C503.199 541.699 540.999 511.699 540.999 511.699C540.999 511.699 557.999 350.899 669.499 436.899C857.499 581.999 886.299 696.899 886.299 696.899C1030.4 672.199 1172 483.099 1089.3 627.099Z" stroke="black" stroke-width="18.34" stroke-linecap="round" stroke-linejoin="round"/>
<path d="M348.398 886.9C348.398 886.9 537.598 884.4 736.598 775.6" stroke="black" stroke-width="18.34" stroke-linecap="round" stroke-linejoin="round"/>
<path d="M540.798 511.8L536.898 552.5" stroke="black" stroke-width="18.34" stroke-linecap="round" stroke-linejoin="round"/>
<path d="M257.498 894.6C246.898 924 242.898 929 242.898 929" stroke="black" stroke-width="18.34" stroke-linecap="round" stroke-linejoin="round"/>
<path d="M886.1 697C886.1 697 890.2 709.7 889.1 722.4" stroke="black" stroke-width="18.34" stroke-linecap="round" stroke-linejoin="round"/>
</g>
</g>
<defs>
<clipPath id="clip0_636_3">
<rect width="2000" height="2000" fill="white"/>
</clipPath>
</defs>
</svg>
