<svg width="2000" height="2000" viewBox="0 0 2000 2000" fill="none" xmlns="http://www.w3.org/2000/svg">
<g clip-path="url(#clip0_636_26)">
<mask id="mask0_636_26" style="mask-type:luminance" maskUnits="userSpaceOnUse" x="0" y="0" width="2000" height="2000">
<path d="M2000 0H0V2000H2000V0Z" fill="white"/>
</mask>
<g mask="url(#mask0_636_26)">
<path d="M989.399 1118.7C959.499 1282.4 673.499 1482.4 939.999 1678.1C935.499 1676.1 547.499 1615.7 365.699 1465.5C229.499 1338.8 293.099 1128.6 398.799 1155.2C504.599 1181.8 475.499 1138.6 472.899 1067.7C470.299 997.9 563.399 933.4 566.199 931.4C566.199 931.4 566.199 931.4 566.299 931.4C700.499 888.7 812.499 835.9 931.999 770C933.299 772.5 1030.5 893 989.399 1118.7Z" fill="#00D4B0" stroke="black" stroke-width="18.34" stroke-linecap="round" stroke-linejoin="round"/>
</g>
</g>
<defs>
<clipPath id="clip0_636_26">
<rect width="2000" height="2000" fill="white"/>
</clipPath>
</defs>
</svg>
