<svg width="2000" height="2000" viewBox="0 0 2000 2000" fill="none" xmlns="http://www.w3.org/2000/svg">
<g clip-path="url(#clip0_41_2)">
<mask id="mask0_41_2" style="mask-type:luminance" maskUnits="userSpaceOnUse" x="0" y="0" width="2000" height="2000">
<path d="M2000 0H0V2000H2000V0Z" fill="white"/>
</mask>
<g mask="url(#mask0_41_2)">
<path d="M914.551 822.73C904.321 794.06 891.511 782.95 847.261 753.06C832.001 742.75 815.891 733.66 799.201 725.94C797.871 722.69 797.151 720.83 797.151 720.83C796.061 721.73 794.971 722.63 793.881 723.49C681.921 814.41 559.391 782.22 559.391 782.22C512.391 858.13 392.171 868.05 392.171 868.05C406.551 899.75 398.461 931.65 389.281 952.65C382.841 967.44 375.851 976.8 375.851 976.8C375.851 976.8 431.601 1034.18 427.341 1104.18C426.771 1113.53 425.111 1123.08 422.091 1132.78C422.051 1132.91 422.041 1133.02 422.001 1133.15C417.421 1147.94 409.651 1163.05 397.781 1178C382.731 1196.96 368.201 1207.23 354.621 1211.4C297.651 1228.83 256.331 1140.12 256.331 1140.12C69.1505 1151.57 150.241 976.66 150.241 976.66C-60.3495 863.04 155.791 720.96 155.791 720.96C143.461 668.7 182.641 582.46 280.611 615.12C318.961 462.56 386.531 423.3 446.461 423.69C511.331 424.08 567.201 471.02 567.201 471.02C750.191 305.84 896.001 524.29 893.871 679.75C968.091 714.63 951.061 791.28 914.551 822.72V822.73Z" fill="#00C7F1" stroke="black" stroke-width="18.34" stroke-linecap="round" stroke-linejoin="round"/>
<path d="M446.46 423.701C377.09 459.771 346.95 505.411 338.04 586.291C332.34 638.021 317.08 688.581 290.51 733.341C274.71 759.951 264.96 797.871 283.13 846.961C294.93 878.861 318.7 904.671 348.58 920.941C361.17 927.791 375.87 937.951 389.29 952.651C382.85 967.441 375.86 976.801 375.86 976.801C375.86 976.801 431.61 1034.18 427.35 1104.18C426.06 1113.35 424.35 1122.93 422.06 1132.94L422.01 1133.14C417.43 1147.93 409.66 1163.04 397.79 1177.99C382.74 1196.95 368.21 1207.22 354.63 1211.39C297.66 1228.82 256.34 1140.11 256.34 1140.11C69.1603 1151.56 150.25 976.651 150.25 976.651C-60.3397 863.031 155.8 720.951 155.8 720.951C143.47 668.691 182.65 582.451 280.62 615.111C318.97 462.551 386.54 423.291 446.47 423.681L446.46 423.701Z" fill="#0099DD"/>
<path d="M914.551 822.73C904.321 794.06 891.511 782.95 847.261 753.06C832.001 742.75 815.891 733.66 799.201 725.94C797.871 722.69 797.151 720.83 797.151 720.83C796.061 721.73 794.971 722.63 793.881 723.49C681.921 814.41 559.391 782.22 559.391 782.22C512.391 858.13 392.171 868.05 392.171 868.05C406.551 899.75 398.461 931.65 389.281 952.65C382.841 967.44 375.851 976.8 375.851 976.8C375.851 976.8 431.601 1034.18 427.341 1104.18C426.771 1113.53 425.111 1123.08 422.091 1132.78C422.051 1132.91 422.041 1133.02 422.001 1133.15C417.421 1147.94 409.651 1163.05 397.781 1178C382.731 1196.96 368.201 1207.23 354.621 1211.4C297.651 1228.83 256.331 1140.12 256.331 1140.12C69.1505 1151.57 150.241 976.66 150.241 976.66C-60.3495 863.04 155.791 720.96 155.791 720.96C143.461 668.7 182.641 582.46 280.611 615.12C318.961 462.56 386.531 423.3 446.461 423.69C511.331 424.08 567.201 471.02 567.201 471.02C750.191 305.84 896.001 524.29 893.871 679.75C968.091 714.63 951.061 791.28 914.551 822.72V822.73Z" stroke="black" stroke-width="18.34" stroke-linecap="round" stroke-linejoin="round"/>
</g>
</g>
<defs>
<clipPath id="clip0_41_2">
<rect width="2000" height="2000" fill="white"/>
</clipPath>
</defs>
</svg>
