<svg width="2000" height="2000" viewBox="0 0 2000 2000" fill="none" xmlns="http://www.w3.org/2000/svg">
<g clip-path="url(#clip0_1067_12)">
<mask id="mask0_1067_12" style="mask-type:luminance" maskUnits="userSpaceOnUse" x="0" y="0" width="2000" height="2000">
<path d="M2000 0H0V2000H2000V0Z" fill="white"/>
</mask>
<g mask="url(#mask0_1067_12)">
<path d="M954.858 839.85C946.128 827.93 923.748 806.35 906.208 804.41C869.888 800.37 756.708 763.98 719.428 751.54C682.188 739.1 668.068 710.63 662.778 763.79C657.498 816.99 581.328 958.93 532.168 995.44C483.008 1031.94 499.108 1029.82 505.198 1073.7C499.618 1118.83 526.768 1138.6 525.848 1195.98C523.058 1253.36 555.928 1225.15 549.548 1262.75C543.198 1300.36 552.148 1307.22 559.898 1323.32C566.388 1336.82 561.478 1348.74 556.958 1370.57C556.078 1374.79 555.198 1379.41 554.428 1384.51C549.698 1415.69 574.058 1437.52 546.648 1426.26C535.458 1398.85 475.038 1392.54 478.408 1350.21C481.048 1347.35 483.768 1344.3 486.438 1341.11C499.498 1325.55 511.568 1306.81 510.908 1290.04C527.018 1268.39 492.458 1259.77 494.688 1228.73C506.828 1172.12 476.268 1159.13 435.368 1152.27C410.858 1148.16 385.288 1195.34 368.708 1233.94C357.558 1259.88 350.478 1281.89 350.478 1281.89C350.478 1281.89 298.158 1269.6 267.788 1161.19C260.268 1134.33 254.068 1101.57 250.358 1061.62C231.688 860.5 317.018 698.41 453.128 636.74C499.538 617.44 542.678 605.92 582.598 600.64C833.578 567.11 956.008 778.54 954.838 839.84L954.858 839.85Z" fill="#FFD13D"/>
<path d="M582.616 600.641C266.416 751.091 353.216 1258.45 267.796 1161.19C260.276 1134.33 254.076 1101.57 250.366 1061.62C231.696 860.501 317.026 698.411 453.136 636.741C499.546 617.441 542.686 605.921 582.606 600.641H582.616Z" fill="#FFB000"/>
<path d="M660.006 651.23C703.196 799.8 563.476 1004.87 465.016 1039.15" stroke="black" stroke-width="18.34" stroke-linecap="round" stroke-linejoin="round"/>
<path d="M413.883 1146.15C485.303 1163.02 519.753 1203.75 519.753 1203.75" stroke="black" stroke-width="18.34" stroke-linecap="round" stroke-linejoin="round"/>
<path d="M466.812 1165.31C526.482 1133.9 499.133 1029.81 499.133 1029.81" stroke="black" stroke-width="18.34" stroke-linecap="round" stroke-linejoin="round"/>
<path d="M505.391 1110.6C505.391 1110.6 547.821 1190.06 511.881 1258.45" stroke="black" stroke-width="18.34" stroke-linecap="round" stroke-linejoin="round"/>
<path d="M496.217 1183.14C496.217 1183.14 482.867 1262.55 536.067 1274.3" stroke="black" stroke-width="18.34" stroke-linecap="round" stroke-linejoin="round"/>
<path d="M526.327 1228.72C578.997 1251.38 525.867 1323.33 525.867 1323.33" stroke="black" stroke-width="18.34" stroke-linecap="round" stroke-linejoin="round"/>
<path d="M517.77 1267.23C517.77 1267.23 486.1 1327.56 558.89 1338.25" stroke="black" stroke-width="18.34" stroke-linecap="round" stroke-linejoin="round"/>
<path d="M543.032 1298.93C543.032 1298.93 571.582 1316.05 559.152 1353.34C546.722 1390.63 560.932 1416.92 574.072 1437.52C574.072 1437.52 537.492 1430.42 532.162 1407.33C532.162 1407.33 438.402 1379.32 511.762 1310.26" stroke="black" stroke-width="18.34" stroke-linecap="round" stroke-linejoin="round"/>
<path d="M668.078 733.68C668.078 733.68 823.848 789.43 869.328 795.58C958.068 807.6 983.528 862.81 936.388 897.01" stroke="black" stroke-width="18.34" stroke-linecap="round" stroke-linejoin="round"/>
<path d="M954.84 839.84C956.18 729.45 732.02 507.46 462.64 632.18C227.76 740.93 220.2 1076.08 284.19 1233.85" stroke="black" stroke-width="18.34" stroke-linecap="round" stroke-linejoin="round"/>
<path d="M550.182 1288.95C550.182 1305.15 540.602 1322.28 523.042 1322.28C511.002 1322.28 501.922 1314.22 501.922 1299.47C501.922 1282.59 513.622 1265.8 530.672 1265.8C543.982 1265.8 550.182 1275.89 550.182 1288.95Z" fill="#FF0000" stroke="black" stroke-width="18.34" stroke-miterlimit="10"/>
</g>
</g>
<defs>
<clipPath id="clip0_1067_12">
<rect width="2000" height="2000" fill="white"/>
</clipPath>
</defs>
</svg>
