<svg width="2000" height="2000" viewBox="0 0 2000 2000" fill="none" xmlns="http://www.w3.org/2000/svg">
<g clip-path="url(#clip0_1067_2)">
<mask id="mask0_1067_2" style="mask-type:luminance" maskUnits="userSpaceOnUse" x="0" y="0" width="2000" height="2000">
<path d="M2000 0H0V2000H2000V0Z" fill="white"/>
</mask>
<g mask="url(#mask0_1067_2)">
<path d="M868.599 751.09C914.659 761.93 1009.5 842.25 930.919 914.54C979.369 975.52 910.179 1238.43 884.849 1329.84C859.509 1421.25 860.329 1559.61 715.039 1520.26C635.309 1534.28 350.459 1848.74 249.829 1805.26C200.679 1802.43 247.029 1780.66 278.729 1717.71C318.559 1646.63 306.709 1349.19 308.569 1248.62C310.429 1148.06 800.869 852.71 800.869 852.71L868.609 751.1L868.599 751.09Z" fill="#FFD13D"/>
<path d="M868.606 751.09C914.666 761.93 1009.51 842.25 930.926 914.54C979.376 975.52 910.186 1238.43 884.856 1329.84C859.516 1421.25 858.826 1559.61 715.046 1520.26C635.316 1534.28 350.466 1848.74 249.836 1805.26C390.236 1726.59 388.376 1354.98 390.236 1254.41C392.096 1153.85 800.876 852.7 800.876 852.7L868.616 751.09H868.606Z" fill="#FFB000"/>
<path d="M295.752 1281.9C324.182 1367.61 331.842 1729.46 227.582 1787.73C227.582 1787.73 212.252 1827.59 345.642 1787.73C479.032 1747.87 656.002 1491.5 758.522 1526.92C834.352 1553.12 909.882 1374.7 888.422 1237.76C866.952 1100.83 295.752 1281.9 295.752 1281.9Z" stroke="black" stroke-width="18.34" stroke-linecap="round" stroke-linejoin="round"/>
</g>
</g>
<defs>
<clipPath id="clip0_1067_2">
<rect width="2000" height="2000" fill="white"/>
</clipPath>
</defs>
</svg>
