<svg width="2000" height="2000" viewBox="0 0 2000 2000" fill="none" xmlns="http://www.w3.org/2000/svg">
<g clip-path="url(#clip0_2_907)">
<mask id="mask0_2_907" style="mask-type:luminance" maskUnits="userSpaceOnUse" x="0" y="0" width="2000" height="2000">
<path d="M2000 0H0V2000H2000V0Z" fill="white"/>
</mask>
<g mask="url(#mask0_2_907)">
<path d="M376.84 521.48C313.8 565.45 292.4 610.19 264.69 595C231.07 583.18 205.32 647.4 217.77 681.03C230.22 714.66 231.86 718.25 214.58 794.23C215.97 857.44 231.03 881.21 194.33 940.29C176.2 1012.88 191.89 1111.76 230.82 1137.82C235.3 1215.48 277.51 1280.49 337.44 1268.67C400.76 1174.96 480.11 1083.79 491.09 1022.16C501.22 964.75 508.63 957.9 421.84 955.09C465.48 942.61 555.72 915.32 581.33 908.86C626.12 897.56 676.56 887.88 550.28 838.56C624.47 849.09 646.46 843.2 689.07 830.1C735.44 842.68 734.94 839.52 745.55 798.78C756.16 758.04 770.35 767.18 764.52 796.74C758.69 826.29 775.46 826.43 807.17 792.17C867.13 756.27 839.82 790.17 822.89 810.77C805.96 831.36 822.57 832.52 872.68 823.24C922.8 813.96 964.39 798.55 983.94 757.55C983.94 757.55 1001.84 746.67 949.16 694.81C934.78 685.37 906.67 669.69 892.19 637.82C870.12 609.33 851.39 617.77 855.69 588.23C859.99 558.69 775.92 496.09 681.19 483.91C642.18 431.21 618.09 437.6 623.29 400.13C628.49 362.67 649.83 275.84 609.28 228.58C568.73 181.32 577.85 162.97 520.89 197.15C473.8 192.02 416.98 317.88 447.3 308.44C477.63 299.01 524.44 268.77 503.95 343.65C490.9 427.74 499.5 472.56 465.73 477.63C431.96 482.7 376.82 521.46 376.82 521.46L376.84 521.48Z" fill="#FF008B"/>
<path d="M232.39 707.34C243.83 720.68 204.59 773.29 218.1 884.04C244.41 852.93 321.37 787.17 354.55 783.36C313.14 766.2 232.38 707.34 232.38 707.34H232.39Z" fill="#D8004E"/>
<path d="M243.58 861.51C197.09 904.92 174.75 965.64 186.53 1044.45C201.98 1131.21 226.43 1149.8 243.58 1081.06C260.73 1012.33 265.06 967.58 312.42 957.96C359.78 948.34 206.9 947.14 243.58 861.5V861.51Z" fill="#D8004E"/>
<path d="M327.381 954.32C297.441 953.68 274.741 959.72 251.131 1034.71C224.261 1116.43 220.051 1237.85 301.201 1261.29C352.751 1276.18 389.361 1219.26 420.421 1160.27C412.051 1146.6 276.021 1112.72 327.381 954.32Z" fill="#D8004E"/>
<path d="M225.13 611.721C243.44 668.441 544.44 846.331 611.82 846.991C397.18 799.551 167.2 752.141 225.13 611.721Z" fill="#D8004E"/>
<path d="M579.979 187.67C579.979 187.67 646.14 261.97 635.06 324.63C624.1 386.65 607.62 473.55 637.96 518.11" stroke="black" stroke-width="18.34" stroke-linecap="round" stroke-linejoin="round"/>
<path d="M492.87 526.51C479.26 414.46 507.8 315.5 532.42 251.9" stroke="black" stroke-width="18.34" stroke-linecap="round" stroke-linejoin="round"/>
<path d="M621.31 423.25C710.11 493.27 774.09 626.93 767.84 690.89C761.68 753.92 736.46 828.41 736.46 828.41" stroke="black" stroke-width="18.34" stroke-linecap="round" stroke-linejoin="round"/>
<path d="M748.45 788.44C875.22 692.06 854.44 569.24 854.44 569.24C836.33 545.36 784.19 506.87 674.97 476.24" stroke="black" stroke-width="18.34" stroke-linecap="round" stroke-linejoin="round"/>
<path d="M855.3 604.25C904.16 637.48 937.8 702.37 932.84 720.56C932.84 720.56 783.07 794.67 765.5 838.08C765.5 838.08 759.66 792.43 770.68 770.02" stroke="black" stroke-width="18.34" stroke-linecap="round" stroke-linejoin="round"/>
<path d="M922.4 682.52C959.39 684.54 975.58 722.16 994.38 740.62C994.38 740.62 963.34 798.74 922.81 813.96C881.36 829.52 843.48 826.7 805.21 845.46C805.21 845.46 843.59 798.32 867.14 756.27" stroke="black" stroke-width="18.34" stroke-linecap="round" stroke-linejoin="round"/>
<path d="M232.39 707.34C247 726.38 272.61 746.14 319.79 763.95C409.94 797.96 575.05 853.61 611.82 846.99C647.89 840.54 689.06 830.11 689.06 830.11" stroke="black" stroke-width="18.34" stroke-linecap="round" stroke-linejoin="round"/>
<path d="M285.31 604.2C296.31 609.4 309.8 616.16 325.91 624.91C377.32 652.78 509.23 700.23 509.23 700.23" stroke="black" stroke-width="18.34" stroke-linecap="round" stroke-linejoin="round"/>
<path d="M365.64 780.75C273.58 798.23 183.38 921.19 183.9 986.4C183.36 1125.94 223.22 1129.37 223.22 1129.37" stroke="black" stroke-width="18.34" stroke-linecap="round" stroke-linejoin="round"/>
<path d="M223.28 1010.33C259.85 945.19 357.02 955.96 404.95 953.24C451.64 950.59 558.31 919.36 643.01 880.45C599.7 868.24 571.23 843.32 571.23 843.32" stroke="black" stroke-width="18.34" stroke-linecap="round" stroke-linejoin="round"/>
<path d="M368.89 954.02C368.89 954.02 497.82 951.63 494.44 975.53C473.81 1121.35 402.89 1165.82 402.89 1165.82" stroke="black" stroke-width="18.34" stroke-linecap="round" stroke-linejoin="round"/>
<path d="M579.98 187.67C489.25 187.68 455.58 238.14 438.48 313.05C438.48 313.05 524.57 265.66 514.15 305.18" stroke="black" stroke-width="18.34" stroke-linecap="round" stroke-linejoin="round"/>
<path d="M232.39 707.34C217.33 687.77 213.8 669.05 210.23 654.03C203.09 624.12 247.93 588.65 247.93 588.65C247.93 588.65 259.94 592.24 285.31 604.2" stroke="black" stroke-width="18.34" stroke-linecap="round" stroke-linejoin="round"/>
<path d="M219.2 893.82C210.25 819.73 216.66 758.23 232.39 707.33" stroke="black" stroke-width="18.34" stroke-linecap="round" stroke-linejoin="round"/>
<path d="M285.31 604.2C366.64 497.78 489.37 473.61 489.37 473.61" stroke="black" stroke-width="18.34" stroke-linecap="round" stroke-linejoin="round"/>
<path d="M288.92 963C288.92 963 164.3 1132.73 279.99 1267.19" stroke="black" stroke-width="18.34" stroke-linecap="round" stroke-linejoin="round"/>
<path d="M735.43 842.69C598.81 814.38 644.79 769.05 509.25 700.23C424.45 657.17 438.48 529.45 376.38 391.92C476.19 457.47 491.22 585.18 627.03 638.64C751.91 687.8 735.43 842.69 735.43 842.69Z" fill="#FF00FF"/>
<path d="M735.43 842.71C598.81 814.39 644.77 769.04 509.25 700.25C424.46 657.18 438.48 529.47 376.37 391.93C388.04 399.6 398.57 408.11 408.25 417.28C481.37 486.36 507.12 591.44 627.02 638.65C711.62 671.96 731.36 753.78 735.29 803.12C737.16 826.6 735.44 842.71 735.44 842.71H735.43Z" fill="#FF00FF"/>
<g style="mix-blend-mode:multiply">
<path d="M735.43 842.71C598.81 814.39 644.77 769.04 509.25 700.25C424.46 657.18 438.48 529.47 376.37 391.93C388.04 399.6 398.57 408.11 408.25 417.28C446.19 523.86 463.32 644.82 631.09 731.99C676.51 755.62 710.37 779.57 735.28 803.13C737.15 826.61 735.43 842.72 735.43 842.72V842.71Z" fill="#FF00FF"/>
</g>
<path d="M735.43 842.69C598.81 814.38 644.79 769.05 509.25 700.23C424.45 657.17 438.48 529.45 376.38 391.92C476.19 457.47 491.22 585.18 627.03 638.64C751.91 687.8 735.43 842.69 735.43 842.69Z" stroke="black" stroke-width="18.34" stroke-linecap="round" stroke-linejoin="round"/>
</g>
</g>
<defs>
<clipPath id="clip0_2_907">
<rect width="2000" height="2000" fill="white"/>
</clipPath>
</defs>
</svg>
