<svg width="2000" height="2000" viewBox="0 0 2000 2000" fill="none" xmlns="http://www.w3.org/2000/svg">
<g clip-path="url(#clip0_173_125)">
<mask id="mask0_173_125" style="mask-type:luminance" maskUnits="userSpaceOnUse" x="0" y="0" width="2000" height="2000">
<path d="M2000 0H0V2000H2000V0Z" fill="white"/>
</mask>
<g mask="url(#mask0_173_125)">
<path d="M933.04 858.49C922.33 885.05 907.73 810.39 835.41 768.53C827.12 763.72 818.06 759.36 808.15 755.62C711.99 719.26 621.52 787.36 584.76 816.3C548 845.28 502.21 924.13 447.8 1053.6C393.43 1190.48 290.59 1202.77 290.59 1202.77C173.12 1183.95 131.7 1041.09 108.25 959.75C84.8101 878.38 108.21 725.02 152.86 638.95C197.55 552.88 278.26 464.06 392.36 447.73C510.83 466.81 512 429.09 512 429.09C512 429.09 577.08 338.07 719.4 335.02C884.86 332.86 918.17 475.79 876.46 582.44C877.23 582.48 878.26 582.95 879.47 583.94C889.27 591.9 910.03 631.63 896.42 705.08C939.42 716.2 944.96 828.9 933.03 858.47L933.04 858.49Z" fill="#FFC800"/>
<g style="mix-blend-mode:multiply">
<path d="M933.04 858.49C922.33 885.05 907.73 810.39 835.41 768.53C841.5 766.15 853.68 752.79 856.69 685.21C858.6 641 867.44 608.31 879.47 583.95C889.27 591.91 910.03 631.64 896.42 705.09C939.42 716.21 944.96 828.91 933.03 858.48L933.04 858.49Z" fill="#FFC800"/>
</g>
<g style="mix-blend-mode:multiply">
<path d="M756.918 358.28C575.528 373.17 718.248 534.64 528.008 459.96C481.308 455.67 410.238 460.03 414.018 592.95C417.758 725.87 529.508 735.56 528.008 785.08C527.818 791.42 525.208 801.84 520.718 815.27C547.418 853.22 417.078 951.66 262.328 692.73C279.628 784.33 352.848 897.98 490.448 890.7C442.788 998.44 362.818 1150.25 329.598 1190C398.388 1163 430.118 1098.39 478.848 983.74C527.608 869.05 615.288 779.46 665.848 764.27C674.028 719.4 754.518 670.86 808.158 661.21C861.828 651.6 920.588 374.3 756.928 358.26L756.918 358.28ZM560.658 727.15C619.428 671.76 637.788 530.63 508.428 452.58C664.938 490.41 685.568 682.06 560.658 727.15Z" fill="#FFC800"/>
</g>
<path d="M269.021 1199.97C117.971 1133.44 44.5508 866.3 146.741 651.53C248.411 437.86 378.701 437.55 490.191 451.93C490.191 451.93 590.891 327.86 743.731 335.05C896.571 342.24 927.141 532.85 851.621 624.56C776.101 716.27 659.011 621.25 643.031 504.08C621.451 345.84 796.111 337.09 841.231 375.58" stroke="black" stroke-width="18.34" stroke-linecap="round" stroke-linejoin="round"/>
<path d="M641.25 480.74C641.25 388.68 798.53 370.69 838.74 452.16C878.95 533.64 848.29 636.45 779.5 661.23" stroke="black" stroke-width="18.34" stroke-linecap="round" stroke-linejoin="round"/>
<path d="M886.72 548.88C880.14 617.76 878.51 645.35 824.09 692.73" stroke="black" stroke-width="18.34" stroke-linecap="round" stroke-linejoin="round"/>
<path d="M884.472 569.359C907.962 685.049 896.052 744.199 873.922 801.089" stroke="black" stroke-width="18.34" stroke-linecap="round" stroke-linejoin="round"/>
<path d="M789.838 472.89C816.778 515.37 813.638 565.64 782.818 585.19C752.008 604.73 705.188 586.14 678.248 543.67C651.308 501.19 646.168 437.7 676.978 418.16C707.788 398.62 762.898 430.42 789.838 472.9V472.89Z" stroke="black" stroke-width="18.34" stroke-linecap="round" stroke-linejoin="round"/>
<path d="M931.69 884.11C937.03 676.99 926.6 766.59 897.25 686.07" stroke="black" stroke-width="18.34" stroke-linecap="round" stroke-linejoin="round"/>
<path d="M633.949 569.06C654.559 654.72 636.109 698.34 573.999 725.38C511.889 752.42 458.179 710.19 427.069 638.74C395.959 567.29 421.669 455.67 490.399 452.41C562.739 448.98 615.809 493.66 633.949 569.06Z" stroke="black" stroke-width="18.34" stroke-linecap="round" stroke-linejoin="round"/>
<path d="M400 1137.69C449.73 1092.48 498.84 862.88 621.51 787.34C836.24 655.11 931.69 884.11 931.69 884.11" stroke="black" stroke-width="18.34" stroke-linecap="round" stroke-linejoin="round"/>
<path d="M400.782 447.16C239.452 724.67 521.512 861.03 608.242 796.33C636.642 775.14 662.552 727.59 641.252 642.77" stroke="black" stroke-width="18.34" stroke-linecap="round" stroke-linejoin="round"/>
<path d="M423.5 513.24C457.32 474.08 549.79 492.62 582.02 530.73C624.75 581.26 633.95 679.67 574.01 725.39" stroke="black" stroke-width="18.34" stroke-linecap="round" stroke-linejoin="round"/>
<path d="M539.08 660.103C567.101 645.254 572.513 600.564 551.168 560.284C529.823 520.005 489.804 499.389 461.783 514.238C433.762 529.087 428.35 573.777 449.695 614.057C471.04 654.336 511.059 674.952 539.08 660.103Z" stroke="black" stroke-width="18.34" stroke-linecap="round" stroke-linejoin="round"/>
<path d="M292.839 476.859C169.359 862.549 432.289 894.709 519.999 902.789" stroke="black" stroke-width="18.34" stroke-linecap="round" stroke-linejoin="round"/>
<path d="M129.621 692.35C129.621 932.79 316.811 1050.41 460.201 1025.53" stroke="black" stroke-width="18.34" stroke-linecap="round" stroke-linejoin="round"/>
<path d="M642.02 775.61C681.22 750.34 692.46 652.51 744.06 653.06" stroke="black" stroke-width="18.34" stroke-linecap="round" stroke-linejoin="round"/>
</g>
</g>
<defs>
<clipPath id="clip0_173_125">
<rect width="2000" height="2000" fill="white"/>
</clipPath>
</defs>
</svg>
