<svg width="2000" height="2000" viewBox="0 0 2000 2000" fill="none" xmlns="http://www.w3.org/2000/svg">
<g clip-path="url(#clip0_2_802)">
<mask id="mask0_2_802" style="mask-type:luminance" maskUnits="userSpaceOnUse" x="0" y="0" width="2000" height="2000">
<path d="M2000 0H0V2000H2000V0Z" fill="white"/>
</mask>
<g mask="url(#mask0_2_802)">
<path d="M943.01 838.27C940.33 850.08 937.62 857.05 934.94 860.43C928.19 834.82 923.53 818.02 916.71 804.63C916.71 804.04 916.71 803.46 916.75 802.87C915.76 799.24 913.67 796.41 910.62 794.4C904.57 790.22 894.73 788.97 882.04 789.92C831.04 793.63 734.23 832.29 654.8 859.52C547.05 896.43 420.33 1007.45 389.14 1046.96C388.74 1047.47 388.33 1047.99 387.97 1048.46C365.85 1077.48 346.18 1104.89 327.8 1120.37C322.26 1125.03 316.83 1128.62 311.51 1130.83C311.29 1130.94 311.07 1131.05 310.85 1131.12C287.63 1140.33 277.24 1054.55 286.49 976.26C295.77 897.93 278.09 939.61 250.02 967.86C192.09 1008.73 222.1 983.82 195.57 1028.87C169.04 1073.92 141.24 1014.97 148.57 965.55C155.87 916.09 224.62 777.52 268.39 727.41C281.93 712.07 294.66 698.35 306.69 686.06C411.4 579.08 464.19 582.38 567.1 606.45C734.47 632.83 874.4 732.18 894.76 748.21C915.09 764.24 948.77 799.83 943.01 838.28V838.27Z" fill="#FFC700"/>
<path d="M932.251 806.05C927.381 806.54 912.231 796.44 917.651 806.61C923.961 819.68 928.511 836.04 934.941 860.43C937.621 857.05 940.331 850.08 943.011 838.27C944.721 826.83 942.931 815.65 939.051 805.16C936.791 805.51 934.521 805.82 932.251 806.05Z" fill="#CE36B8"/>
<path d="M389.13 1046.95C388.73 1047.46 388.32 1047.98 387.96 1048.45C365.84 1077.47 346.17 1104.88 327.79 1120.36C322.25 1125.02 316.82 1128.61 311.5 1130.82C311.28 1130.93 311.06 1131.04 310.84 1131.11C287.62 1140.32 277.23 1054.54 286.48 976.25C295.76 897.92 278.08 939.6 250.01 967.85C192.08 1008.72 222.09 983.81 195.56 1028.86C169.03 1073.91 141.23 1014.96 148.56 965.54C155.86 916.08 224.61 777.51 268.38 727.4C281.92 712.06 294.65 698.34 306.68 686.05C284.77 921.28 542.77 739.79 449.74 828.05C307.78 962.73 376.97 1018.08 389.12 1046.95H389.13Z" fill="#FF9100"/>
<path d="M459.5 988.3C454.45 1017.83 425.83 1090.72 423.59 1105.48C421.35 1120.24 420.08 1134.69 392.63 1123.27C365.18 1111.84 319.16 1121.53 367.8 1072.82C416.44 1024.11 459.5 988.31 459.5 988.31V988.3Z" fill="#FF74FF"/>
<path d="M928.47 871.95C987.6 788.71 890.58 752.94 670.5 852.29C450.42 951.63 352.6 1078.49 334.26 1128.92" stroke="black" stroke-width="18.34" stroke-linecap="round" stroke-linejoin="round"/>
<path d="M932.74 802.96C905.87 694.86 601.72 616.92 513.08 590.93C424.43 564.95 296.05 653.59 189.07 859.92C82.0802 1066.25 213.52 1017.34 199.77 1090.7C199.77 1090.7 197.33 1096.46 191.22 1036.86C185.11 977.25 235.89 1011.64 284.8 921.27" stroke="black" stroke-width="18.34" stroke-linecap="round" stroke-linejoin="round"/>
<path d="M235.67 893.349C323.75 790.269 257.89 1049.84 299.22 1119.69" stroke="black" stroke-width="18.34" stroke-linecap="round" stroke-linejoin="round"/>
<path d="M462.24 978.14C446.45 1042.07 396.01 1121.73 423.14 1191.82" stroke="black" stroke-width="18.34" stroke-linecap="round" stroke-linejoin="round"/>
<path d="M419.18 889.599C582.55 835.229 546.82 729.669 707.88 730.259" stroke="black" stroke-width="18.34" stroke-linecap="round" stroke-linejoin="round"/>
<path d="M235.67 1088.08C235.67 1149.71 199.21 1214.89 132.42 1214.89C86.6001 1214.89 52.0801 1184.24 52.0801 1128.09C52.0801 1063.88 96.6101 999.989 161.46 999.989C212.12 999.989 235.67 1038.39 235.67 1088.07V1088.08Z" fill="url(#paint0_linear_2_802)"/>
<path d="M107.22 1211.49C74.5301 1202.06 52.0801 1173.33 52.0801 1128.1C52.0801 1089.87 67.8901 1051.72 94.3801 1027.17C45.3101 1147.21 227.06 1162.76 107.22 1211.49Z" fill="url(#paint1_linear_2_802)"/>
<path d="M161.45 999.989C135.25 999.989 112.32 1010.45 94.3801 1027.18C67.8901 1051.72 52.0801 1089.88 52.0801 1128.11C52.0801 1173.35 74.5301 1202.07 107.22 1211.5C115.11 1213.77 123.55 1214.91 132.42 1214.91C199.19 1214.91 235.66 1149.72 235.66 1088.08C235.66 1038.4 212.11 999.989 161.44 999.989H161.45Z" stroke="black" stroke-width="18.34" stroke-miterlimit="10"/>
</g>
</g>
<defs>
<linearGradient id="paint0_linear_2_802" x1="52.0801" y1="1107.45" x2="235.67" y2="1107.45" gradientUnits="userSpaceOnUse">
<stop stop-color="#FF482E"/>
<stop offset="1" stop-color="#FF0085"/>
</linearGradient>
<linearGradient id="paint1_linear_2_802" x1="148.9" y1="1119.33" x2="52.0801" y2="1119.33" gradientUnits="userSpaceOnUse">
<stop stop-color="#FF482E"/>
<stop offset="1" stop-color="#FF0085"/>
</linearGradient>
<clipPath id="clip0_2_802">
<rect width="2000" height="2000" fill="white"/>
</clipPath>
</defs>
</svg>
