<svg width="2000" height="2000" viewBox="0 0 2000 2000" fill="none" xmlns="http://www.w3.org/2000/svg">
<g clip-path="url(#clip0_169_123)">
<mask id="mask0_169_123" style="mask-type:luminance" maskUnits="userSpaceOnUse" x="0" y="0" width="2000" height="2000">
<path d="M2000 0H0V2000H2000V0Z" fill="white"/>
</mask>
<g mask="url(#mask0_169_123)">
<path d="M966.488 800.64C968.558 812.39 964.228 824.399 954.588 836.549C952.338 839.359 948.928 845.31 947.018 842.26L906.238 773.289L899.478 870.699C900.168 876.609 891.718 877.87 886.938 881.449C862.358 899.879 858.828 909.349 816.338 920.989C803.568 924.509 789.938 919.25 783.088 907.9L747.608 849.33L755.408 920.439C757.128 936.219 748.898 951.349 734.768 958.569C707.498 972.49 685.758 976.679 643.528 978.219C634.278 978.549 625.568 973.759 620.918 965.789L584.758 903.879L593.138 975.739C594.708 989.179 586.388 1001.79 573.378 1005.66C550.078 1012.62 530.288 1018.35 510.068 1024.03C502.498 1026.17 494.848 1028.27 486.958 1030.44C473.548 1034.12 459.398 1027.48 453.628 1014.87L419.768 940.359C419.768 940.359 423.588 986.44 420.608 1024.42C419.568 1037.98 412.998 1050.4 399.768 1053.89C373.678 1060.75 350.108 1066.81 330.078 1071.95C297.298 1080.41 281.848 1085.85 277.738 1052.36C259.628 904.109 296.188 786.919 370.728 709.369C417.668 660.519 479.668 627.419 552.588 612.179C739.698 578.549 926.078 680.56 966.488 800.63V800.64Z" fill="#FFC800"/>
<g style="mix-blend-mode:multiply">
<path d="M510.092 1024.04C502.522 1026.18 494.872 1028.28 486.982 1030.45C473.572 1034.13 459.422 1027.49 453.652 1014.88L419.792 940.37C419.792 940.37 423.612 986.45 420.632 1024.43C419.592 1037.99 413.022 1050.41 399.792 1053.9C373.702 1060.76 350.132 1066.82 330.102 1071.96C297.322 1080.42 281.872 1085.86 277.762 1052.37C259.652 904.12 296.212 786.93 370.752 709.38C279.522 981.85 352.072 975.66 369.132 941.22C388.502 902.01 428.262 834.75 469.922 937.14C485.002 974.15 498.732 1002.72 510.102 1024.04H510.092Z" fill="#FFC800"/>
</g>
<path d="M965.08 813.41C967.16 825.17 962.8 837.17 953.19 849.3C950.95 852.12 946.53 851.86 944.59 848.8L907.91 775.91L900.8 855.58C899.89 865.73 894.88 875.04 886.95 881.45C871.62 893.85 844.18 913.47 815.99 921.11C803.31 924.54 789.9 919.15 783.09 907.91L747.62 849.33L755.41 920.44C757.14 936.19 748.9 951.34 734.79 958.55C707.51 972.48 685.75 976.67 643.51 978.23C634.28 978.57 625.58 973.79 620.92 965.81L584.76 903.88L593.14 975.73C594.71 989.16 586.38 1001.79 573.42 1005.66C541.42 1015.22 515.98 1022.5 486.95 1030.46C473.53 1034.14 459.41 1027.54 453.64 1014.87L419.76 940.38C419.76 940.38 423.57 986.46 420.61 1024.43C419.55 1038 412.99 1050.41 399.77 1053.89C373.67 1060.76 350.09 1066.82 330.07 1071.97C297.29 1080.43 281.84 1085.88 277.74 1052.38C248.19 810.76 363.9 651.6 552.58 612.22C739.69 578.59 943.32 690.22 965.05 813.42L965.08 813.41Z" stroke="black" stroke-width="18.34" stroke-linecap="round" stroke-linejoin="round"/>
<path d="M752.17 766.089C752.17 766.089 718.53 789.899 677.51 790.339C675.46 790.379 673.4 790.339 671.31 790.189C653.7 789.379 634.99 783.949 617.2 770.339C613.97 767.849 612.32 763.809 612.87 759.769C614.04 751.109 615.25 742.449 616.47 733.829C619.37 713.029 622.3 692.229 625.24 671.639C626.52 662.609 637.38 658.799 644.1 664.959L665.16 684.479L752.04 764.859V764.899L752.19 766.069L752.17 766.089Z" fill="#AE00A8"/>
<g style="mix-blend-mode:multiply">
<path d="M671.31 790.189C653.7 789.379 634.99 783.949 617.2 770.339C613.97 767.849 612.32 763.809 612.87 759.769C614.04 751.109 615.25 742.449 616.47 733.829C619.37 713.029 622.3 692.229 625.24 671.639C626.52 662.609 637.38 658.799 644.1 664.959L665.16 684.479C632.18 717.609 615.12 765.009 671.32 790.179L671.31 790.189Z" fill="#AE00A8"/>
</g>
<path d="M636.452 661.959C639.122 661.959 641.832 662.909 644.072 664.979L752.032 764.869V764.909L752.182 766.079C752.182 766.079 718.542 789.889 677.522 790.329C677.092 790.329 676.651 790.329 676.221 790.329C657.191 790.329 636.652 785.219 617.202 770.319C613.972 767.839 612.302 763.799 612.862 759.769C614.052 751.119 615.261 742.469 616.471 733.829C619.361 713.019 622.292 692.249 625.232 671.639C626.082 665.659 631.172 661.949 636.452 661.949M636.452 643.609C629.572 643.609 622.852 646.009 617.542 650.379C611.842 655.059 608.122 661.689 607.072 669.049C603.932 691.069 601.062 711.439 598.302 731.309L598.242 731.709C597.052 740.229 595.862 748.749 594.682 757.279C593.232 767.839 597.582 778.419 606.042 784.899C626.652 800.689 650.262 808.689 676.212 808.689C676.722 808.689 677.232 808.689 677.732 808.689C723.922 808.189 761.202 782.179 762.762 781.069C768.282 777.159 771.212 770.529 770.362 763.819L770.232 762.749C769.722 758.439 767.691 754.399 764.471 751.419L656.512 651.529C651.002 646.439 643.872 643.629 636.432 643.629L636.452 643.609Z" fill="black"/>
<path d="M729.683 744.18L647.653 668.27L632.643 654.4C629.933 651.87 628.603 648.13 629.123 644.46C631.873 625.53 634.593 606.78 637.303 588.33C638.623 579.34 649.483 575.53 656.123 581.69L689.403 612.47L736.843 656.39C738.823 658.22 740.113 660.72 740.403 663.4L748.583 734.61C749.753 745.03 737.393 751.3 729.693 744.19L729.683 744.18Z" fill="#AE00A8"/>
<g style="mix-blend-mode:multiply">
<path d="M689.403 612.48C669.333 613.54 646.743 618.49 646.383 634.63C646.123 645.53 650.553 657.61 647.653 668.28L632.643 654.41C629.933 651.88 628.603 648.14 629.123 644.47C631.873 625.54 634.593 606.79 637.303 588.34C638.623 579.35 649.483 575.54 656.123 581.7L689.403 612.48Z" fill="#AE00A8"/>
</g>
<path d="M648.521 578.68C651.181 578.68 653.891 579.62 656.131 581.7L736.841 656.4C738.821 658.23 740.081 660.72 740.391 663.4L748.551 734.62C749.391 741.95 743.501 747.23 737.251 747.23C734.631 747.23 731.941 746.3 729.671 744.19L632.621 654.39C629.891 651.87 628.581 648.15 629.121 644.47C631.851 625.52 634.591 606.77 637.291 588.34C638.171 582.37 643.251 578.68 648.511 578.68M648.521 560.34C633.661 560.34 621.311 571 619.151 585.68C616.301 605.09 613.551 623.99 610.971 641.86C609.581 651.52 613.021 661.24 620.171 667.86L717.221 757.66C722.741 762.76 729.851 765.58 737.261 765.58C745.751 765.58 753.871 761.94 759.541 755.58C765.191 749.25 767.761 741.07 766.781 732.54L758.621 661.32C757.811 654.28 754.511 647.76 749.311 642.95L668.601 568.25C663.101 563.16 655.971 560.35 648.531 560.35L648.521 560.34Z" fill="black"/>
<path d="M717.572 638.56L660.082 585.36L640.422 567.16V567.12C643.542 545.91 646.622 525.26 649.632 505.23C650.952 496.28 661.812 492.5 668.452 498.66L697.952 525.92L727.812 553.58V553.62L736.472 628.98C737.642 639.4 725.242 645.67 717.582 638.56H717.572Z" fill="#AE00A8"/>
<g style="mix-blend-mode:multiply">
<path d="M697.942 525.93C681.912 531.84 647.312 520.63 660.082 585.36L640.422 567.16V567.12C643.542 545.91 646.622 525.26 649.632 505.23C650.952 496.28 661.812 492.5 668.452 498.66L697.952 525.92L697.942 525.93Z" fill="#AE00A8"/>
</g>
<path d="M660.822 495.63C663.492 495.63 666.202 496.58 668.452 498.65L727.822 553.58V553.62L736.462 628.99C737.302 636.32 731.412 641.6 725.162 641.6C722.542 641.6 719.852 640.67 717.582 638.56L640.432 567.16V567.12C643.542 545.94 646.622 525.28 649.632 505.24C650.522 499.3 655.582 495.64 660.832 495.63M660.822 477.29C646.012 477.29 633.682 487.9 631.482 502.52C628.202 524.42 625.192 544.68 622.282 564.46C622.152 565.34 622.082 566.24 622.082 567.13C622.082 572.24 624.212 577.16 627.962 580.63L705.112 652.03C710.632 657.14 717.752 659.95 725.152 659.95C733.642 659.95 741.762 656.31 747.432 649.95C753.082 643.62 755.652 635.44 754.672 626.91L746.042 551.63C745.562 547.25 743.522 543.14 740.262 540.12L680.892 485.19C675.382 480.1 668.252 477.29 660.812 477.29H660.822Z" fill="black"/>
<path d="M705.471 532.9L673.181 503.04L652.781 484.18V484.14C656.051 462.64 659.161 441.95 662.171 422.39C663.531 413.44 674.351 409.66 680.991 415.82L689.681 423.85L712.611 445.09C714.591 446.92 715.881 449.42 716.171 452.1L724.351 523.31C725.521 533.73 713.161 540 705.461 532.89L705.471 532.9Z" fill="#AE00A8"/>
<g style="mix-blend-mode:multiply">
<path d="M671.311 474.38C672.851 484.07 673.331 493.82 673.181 503.03L652.781 484.17V484.13C656.051 462.63 659.161 441.94 662.171 422.38C663.531 413.43 674.351 409.65 680.991 415.81L689.681 423.84C674.491 438.88 668.071 454.07 671.301 474.36L671.311 474.38Z" fill="#AE00A8"/>
</g>
<path d="M673.363 412.789C676.033 412.789 678.743 413.739 680.983 415.809L712.643 445.109C714.623 446.939 715.883 449.429 716.193 452.109L724.353 523.329C725.193 530.659 719.303 535.939 713.053 535.939C710.433 535.939 707.743 535.009 705.473 532.899L652.793 484.159V484.119C656.043 462.619 659.173 441.949 662.163 422.369C663.063 416.439 668.123 412.779 673.363 412.779M673.363 394.449C658.593 394.449 646.253 405.039 644.033 419.609C641.413 436.759 638.443 456.389 634.663 481.379C634.523 482.289 634.453 483.209 634.453 484.119C634.453 489.229 636.583 494.149 640.343 497.619L693.023 546.359C698.543 551.459 705.653 554.269 713.063 554.269C721.553 554.269 729.673 550.629 735.343 544.269C740.993 537.939 743.563 529.759 742.583 521.229L734.423 450.009C733.613 442.969 730.313 436.449 725.113 431.639L693.453 402.339C687.953 397.239 680.813 394.439 673.373 394.439L673.363 394.449Z" fill="black"/>
<path d="M693.365 427.28L686.065 420.53L669.775 405.45C667.025 402.88 665.735 399.14 666.285 395.43C670.685 366.74 674.725 340.91 678.175 318.79C678.245 318.28 678.355 317.73 678.435 317.21C680.455 304.22 699.315 304.63 700.775 317.69L701.255 321.84L703.605 342.35L712.265 417.71C713.435 428.13 701.035 434.4 693.375 427.29L693.365 427.28Z" fill="#AE00A8"/>
<g style="mix-blend-mode:multiply">
<path d="M701.255 321.83C694.985 314.93 691.605 326.27 688.485 369.01C687.095 388.27 686.355 405.51 686.065 420.52L669.775 405.44C667.025 402.87 665.735 399.13 666.285 395.42C670.685 366.73 674.725 340.9 678.175 318.78C678.245 318.27 678.355 317.72 678.435 317.2C680.455 304.21 699.315 304.62 700.775 317.68L701.255 321.83Z" fill="#AE00A8"/>
</g>
<path d="M689.543 307.69C694.783 307.69 700.023 311.06 700.783 317.7L703.603 342.33L712.243 417.7C713.083 425.03 707.193 430.31 700.943 430.31C698.323 430.31 695.633 429.38 693.363 427.27L669.773 405.44C667.023 402.89 665.713 399.12 666.283 395.42C670.693 366.73 674.703 340.93 678.173 318.78C678.253 318.26 678.333 317.74 678.413 317.23C679.413 310.84 684.473 307.69 689.533 307.69M689.543 289.35C682.843 289.35 676.303 291.58 671.143 295.63C665.333 300.19 661.483 306.85 660.303 314.4L660.123 315.55L660.063 315.95C656.063 341.49 652.063 367.29 648.163 392.63C646.663 402.38 650.083 412.2 657.323 418.9L680.913 440.73C686.433 445.84 693.553 448.65 700.953 448.65C709.443 448.65 717.563 445.01 723.233 438.65C728.883 432.32 731.453 424.14 730.473 415.61L721.833 340.24L719.013 315.61C717.273 300.39 704.873 289.34 689.543 289.34V289.35Z" fill="black"/>
<path d="M525.871 820.369C562.401 768.239 560.921 747.879 632.811 758.779C704.701 769.679 748.301 786.749 793.231 772.779C787.981 871.569 688.391 815.719 688.391 815.719L525.871 820.359V820.369Z" fill="#FFC800"/>
<path d="M562.398 768.24C607.298 740.26 649.738 766.57 689.398 773.45C786.888 790.36 805.108 765.38 805.108 765.38" stroke="black" stroke-width="18.34" stroke-linecap="round" stroke-linejoin="round"/>
</g>
</g>
<defs>
<clipPath id="clip0_169_123">
<rect width="2000" height="2000" fill="white"/>
</clipPath>
</defs>
</svg>
