<svg width="2000" height="2000" viewBox="0 0 2000 2000" fill="none" xmlns="http://www.w3.org/2000/svg">
<g clip-path="url(#clip0_559_417)">
<mask id="mask0_559_417" style="mask-type:luminance" maskUnits="userSpaceOnUse" x="0" y="0" width="2000" height="2000">
<path d="M2000 0H0V2000H2000V0Z" fill="white"/>
</mask>
<g mask="url(#mask0_559_417)">
<path d="M996.7 880.49C915.14 963.04 947.32 877.3 947.32 877.3C972.74 844.54 984.78 796.4 967.13 740.01C919.66 666.01 904.58 679.92 817.37 684.83C591.7 718.14 416.37 827 315.15 905.32C268.96 941.02 238.18 970.37 225.12 983.28C189.09 1001.33 203.77 1061.32 224.57 1077.79C245.41 1094.26 245.7 1106.59 225.34 1135.72C211.62 1205.68 263.39 1178.31 294.94 1187.19C335.3 1220.32 279.93 1221.38 197.24 1186.38C92.4996 1132.6 158.5 956.42 204.69 893.65C250.84 830.88 237.08 807.47 236.61 706.98C223.11 596.62 336.25 545.77 475.23 489.42C476.37 488.83 477.54 488.25 478.75 487.66C519.99 467.81 595.71 458.35 625.28 462.46C655.69 466.64 797.16 581.88 825.6 603.89C852.6 612.77 899.6 597.91 978.29 666.37C1063.81 731.42 1042.82 797.97 996.71 880.48L996.7 880.49Z" fill="#FFD13D"/>
<path d="M304.692 720.87C358.492 912.8 315.562 856.94 315.152 905.33C268.962 941.03 238.182 970.38 225.122 983.29C210.892 990.41 204.572 1004.06 203.442 1019.02C183.632 1034.58 166.022 1059.23 143.972 1111.44C130.252 1037.26 172.332 937.65 204.692 893.66C250.842 830.89 237.082 807.48 236.612 706.99C223.112 596.63 336.252 545.78 475.232 489.43C476.372 488.84 477.542 488.26 478.752 487.67C346.932 537.14 282.662 642.26 304.702 720.87H304.692Z" fill="#FFB000"/>
<path d="M547.93 886.03C556.4 918.61 548.44 953.76 548.44 953.76C523.38 1021.34 459.21 1010.52 459.21 1010.52C462.07 1036.05 474.69 1088.37 462.26 1127.63C451.84 1160.5 418.93 1163.11 393.36 1174.48C388.37 1176.68 383.67 1179.25 379.46 1182.4C354.84 1229.29 328.13 1229.07 309.57 1208.19C291.01 1187.35 290.82 1179.43 275.45 1180.34C222.07 1205.58 212.31 1145.3 245.59 1096.51C231.76 1092.88 212.31 1075.96 203.18 1021.63C225.34 941.72 460.84 804.549 581.17 751.859C595.77 745.479 608.69 740.299 619.33 736.669C619.33 736.669 677.18 717.11 692.48 712.27C707.12 824.57 596.4 878.36 547.94 886.03H547.93Z" fill="#FF0085"/>
<path d="M340.128 1004.75C317.048 1105.05 380.667 1052.59 380.047 1117.49C379.827 1141.52 386.097 1159.68 393.367 1174.47C388.377 1176.67 383.678 1179.24 379.467 1182.39C354.848 1229.28 328.137 1229.06 309.577 1208.18C291.017 1187.34 290.827 1179.42 275.457 1180.33C222.077 1205.57 212.318 1145.29 245.598 1096.5C231.768 1092.87 212.318 1075.95 203.188 1021.62C225.347 941.71 460.847 804.54 581.177 751.85C464.177 833.55 357.568 928.94 340.138 1004.74L340.128 1004.75Z" fill="#FF0036"/>
<path d="M947.321 877.3C939.321 893 929.781 893.3 920.571 886.66C906.041 876.2 887.991 835.58 882.381 824.06C873.241 805.24 885.651 797.19 844.591 803.1C796.051 807.47 727.441 765.92 692.471 712.29C693.501 711.52 681.911 714.61 685.801 713.1C702.791 706.61 747.361 694.17 821.621 686.02C821.621 686.02 866.201 680.22 904.571 679.93C1020.61 721.97 967.891 836.84 947.311 877.31L947.321 877.3Z" fill="#FF0085"/>
<path d="M947.325 877.3C939.325 893 929.785 893.3 920.575 886.66C936.095 856.8 968.635 817.28 915.215 777.88C897.935 765.15 935.245 740.02 918.775 728.46C883.595 703.81 784.425 700.72 685.805 713.09C702.795 706.6 747.365 694.16 821.625 686.01C821.625 686.01 866.205 680.21 904.575 679.92C1020.61 721.96 967.895 836.83 947.315 877.3H947.325Z" fill="#FF0036"/>
<path d="M309.57 1208.2C330.7 1230.95 350.11 1220.49 364.09 1204.64C377.7 1189.27 386.18 1168.8 386.18 1168.8C386.18 1168.8 492.13 1188.61 459.23 1010.53C555.9 1017.98 562.73 915.619 547.94 886.049C703.75 857.619 692.48 712.279 692.48 712.279C709.8 746.799 818.35 825.959 872.94 796.759C886.59 851.349 935.47 894.859 935.47 894.859C1017.61 780.909 967.17 715.639 904.58 679.939" stroke="black" stroke-width="18.34" stroke-linecap="round" stroke-linejoin="round"/>
<path d="M309.571 1208.2C302.561 1200.72 295.411 1189.56 288.141 1173.75C215.871 1216.34 207.281 1141.02 245.581 1096.52C219.421 1082.32 205.441 1047.8 201.961 1010.67C235.601 967.27 286.081 921.26 348.891 877.35" stroke="black" stroke-width="18.34" stroke-linecap="round" stroke-linejoin="round"/>
<g style="mix-blend-mode:multiply">
<path d="M309.566 1208.2C234.796 1208.93 180.796 1190.11 162.046 1150.6C144.436 1113.58 160.506 1064.09 201.966 1010.67C205.456 1047.8 219.426 1082.32 245.586 1096.52C207.286 1141.02 215.866 1216.34 288.146 1173.75C295.406 1189.56 302.566 1200.72 309.576 1208.2H309.566Z" fill="#FFD13D"/>
</g>
<g style="mix-blend-mode:multiply">
<path d="M930.266 679.63C973.166 686.44 1032.89 708.01 1041.66 750.91C1050.43 793.81 985.366 907.7 953.906 915.1C944.016 900.93 932.396 897.38 956.806 867.75C980.506 837.18 982.426 737.3 952.066 712.99C921.706 688.67 916.046 680.88 917.936 679.63C919.836 678.38 930.256 679.63 930.256 679.63H930.266Z" fill="#FFD13D"/>
</g>
<path d="M309.566 1208.2C234.796 1208.93 180.796 1190.11 162.046 1150.6C144.436 1113.58 160.506 1064.09 201.966 1010.67C205.456 1047.8 219.426 1082.32 245.586 1096.52C207.286 1141.02 215.866 1216.34 288.146 1173.75C295.406 1189.56 302.566 1200.72 309.576 1208.2H309.566Z" stroke="black" stroke-width="18.34" stroke-linecap="round" stroke-linejoin="round"/>
<path d="M935.456 894.86C939.226 903.82 944.606 913.41 950.696 923.73C1021.76 853.11 1054.78 784.87 1032.15 737.25C1015.09 701.33 968.936 682.51 904.586 679.94C855.276 677.96 795.256 685.48 729.406 702.17" stroke="black" stroke-width="18.34" stroke-linecap="round" stroke-linejoin="round"/>
<path d="M1032.14 737.24C1004.39 661.96 919.178 613.15 842.058 607.27C827.198 606.14 813.188 600.02 801.848 590.35C769.728 562.95 703.408 507.44 653.248 472.44C636.228 460.56 615.398 455.38 594.838 458.27C521.508 468.55 366.718 516.43 262.378 609.13C248.908 621.09 240.798 637.96 239.358 655.91C234.228 719.76 235.988 786.11 237.768 823.86C238.658 842.75 231.898 861.06 219.408 875.25C162.228 940.21 114.968 1065.02 162.048 1150.59" stroke="black" stroke-width="18.34" stroke-linecap="round" stroke-linejoin="round"/>
<path d="M348.938 877.32C398.618 842.54 455.988 809.12 518.838 779.22C591.628 744.66 663.428 718.83 729.388 702.18" stroke="black" stroke-width="18.34" stroke-linecap="round" stroke-linejoin="round"/>
<path d="M294.148 824.82C461.038 679.94 683.588 619.42 762.818 613.35" stroke="black" stroke-width="18.34" stroke-linecap="round" stroke-linejoin="round"/>
<path d="M592.827 599.49C621.048 599.49 643.927 576.612 643.927 548.39C643.927 520.168 621.048 497.29 592.827 497.29C564.605 497.29 541.727 520.168 541.727 548.39C541.727 576.612 564.605 599.49 592.827 599.49Z" fill="#FF0036" stroke="black" stroke-width="18.34" stroke-linecap="round" stroke-linejoin="round"/>
</g>
</g>
<defs>
<clipPath id="clip0_559_417">
<rect width="2000" height="2000" fill="white"/>
</clipPath>
</defs>
</svg>
