<svg width="2000" height="2000" viewBox="0 0 2000 2000" fill="none" xmlns="http://www.w3.org/2000/svg">
<g clip-path="url(#clip0_1_68)">
<mask id="mask0_1_68" style="mask-type:luminance" maskUnits="userSpaceOnUse" x="0" y="0" width="2000" height="2000">
<path d="M2000 0H0V2000H2000V0Z" fill="white"/>
</mask>
<g mask="url(#mask0_1_68)">
<path d="M1770.96 671.96C1817.48 705.38 1750.64 727.18 1737.57 731.54C1737.57 731.54 1791.32 782.39 1672.19 794.02C1656.82 795.52 1644.82 793.58 1635.58 789.07C1573.06 758.69 1635.87 610.95 1635.87 610.95C1649.19 608.79 1662.25 607.17 1674.83 606.07C1780.27 596.82 1852.73 623.94 1770.95 671.96H1770.96Z" fill="white" stroke="black" stroke-width="18.34" stroke-miterlimit="10"/>
<path d="M1672.19 794.02C1656.87 796.01 1644.82 793.58 1635.58 789.07C1712.99 786.17 1727.15 747.25 1724.95 729.24C1724.95 729.24 1807.38 776.44 1672.19 794.03V794.02Z" fill="#CACACA"/>
<path d="M1724.95 729.23C1750.96 707.51 1763.72 688.93 1757.19 671.4C1823.33 699.98 1738.01 724.87 1724.95 729.23Z" fill="#CACACA"/>
<path d="M1757.19 671.4C1808.15 636.62 1746.08 613.99 1674.83 606.07C1780.27 596.82 1860.56 626.53 1757.19 671.4Z" fill="#CACACA"/>
<path d="M1770.96 671.96C1817.48 705.38 1750.64 727.18 1737.57 731.54C1737.57 731.54 1791.32 782.39 1672.19 794.02C1656.82 795.52 1644.82 793.58 1635.58 789.07C1573.06 758.69 1635.87 610.95 1635.87 610.95C1649.19 608.79 1662.25 607.17 1674.83 606.07C1780.27 596.82 1852.73 623.94 1770.95 671.96H1770.96Z" stroke="black" stroke-width="18.34" stroke-miterlimit="10"/>
<path d="M1329.02 794.09C1328.62 794.09 1328.21 794.05 1327.81 794.02C1208.68 782.39 1262.43 731.54 1262.43 731.54C1249.37 727.17 1182.52 705.38 1229.01 671.96C1154.5 628.19 1208.1 601.78 1298.02 604.49C1318.53 605.04 1340.91 607.17 1364.13 610.95C1364.13 610.95 1446.38 804.33 1329.02 794.1V794.09Z" fill="white" stroke="black" stroke-width="18.34" stroke-miterlimit="10"/>
<path d="M1345.75 794.09C1342.85 781.95 1326.77 756.57 1321.01 739.69C1302.67 685.76 1283.4 656.51 1298.02 604.49C1318.53 605.04 1357.64 607.17 1380.87 610.95C1380.87 610.95 1463.12 804.33 1345.76 794.1L1345.75 794.09Z" fill="#CACACA"/>
<path d="M1329.02 794.09C1328.62 794.09 1328.21 794.05 1327.81 794.02C1208.68 782.39 1262.43 731.54 1262.43 731.54C1249.37 727.17 1182.52 705.38 1229.01 671.96C1154.5 628.19 1208.1 601.78 1298.02 604.49C1318.53 605.04 1340.91 607.17 1364.13 610.95C1364.13 610.95 1446.38 804.33 1329.02 794.1V794.09Z" stroke="black" stroke-width="18.34" stroke-miterlimit="10"/>
<path d="M1677.18 667.43C1670.36 764.16 1634.93 775.15 1622.64 868.86C1615.26 925.28 1595.55 976.76 1576.83 995.21C1564.49 1007.43 1552.56 1005.2 1544.98 980.34C1525.88 917.93 1528.61 838.56 1499.99 831.13C1496.08 832.16 1492.76 834.51 1489.91 837.98C1471.69 859.9 1471.49 926.46 1455 980.35C1447.3 1005.53 1435.2 1007.5 1422.68 994.75C1404.11 975.89 1384.63 924.79 1377.31 868.87C1365.06 775.16 1329.59 764.17 1322.8 667.44C1316.95 584.49 1390.3 565.36 1463.76 584.31C1487.56 590.42 1512.42 590.42 1536.19 584.31C1559.2 578.37 1582.18 576.17 1602.75 578.49C1647.83 583.6 1681.21 610.46 1677.18 667.44V667.43Z" fill="#FFD899" stroke="black" stroke-width="18.34" stroke-miterlimit="10"/>
<path d="M1576.22 613.84C1554.19 621.46 1528.04 625.85 1499.99 625.85C1471.94 625.85 1445.79 621.46 1423.76 613.84" stroke="black" stroke-width="18.34" stroke-linecap="round" stroke-linejoin="round"/>
<path d="M1489.92 837.97C1471.7 859.89 1471.5 926.45 1455.01 980.34C1447.31 1005.52 1435.21 1007.49 1422.69 994.74C1442.49 976.9 1443.32 930.59 1460.63 882.14C1474.97 842 1483.17 832.04 1489.93 837.98L1489.92 837.97Z" fill="#FFB75C"/>
<path d="M1677.18 667.43C1670.36 764.16 1634.93 775.15 1622.64 868.86C1615.26 925.28 1595.55 976.76 1576.83 995.21C1602.07 914.49 1587.09 844.44 1614.59 773.62C1643.65 698.69 1649.82 624.64 1602.75 578.48C1647.83 583.59 1681.21 610.45 1677.18 667.43Z" fill="#FFB75C"/>
<path d="M1677.18 667.43C1670.36 764.16 1634.93 775.15 1622.64 868.86C1615.26 925.28 1595.55 976.76 1576.83 995.21C1564.49 1007.43 1552.56 1005.2 1544.98 980.34C1525.88 917.93 1528.61 838.56 1499.99 831.13C1471.37 838.56 1474.07 917.93 1455 980.34C1435.93 1042.75 1389.59 962.56 1377.31 868.86C1365.06 775.15 1329.59 764.16 1322.8 667.43C1316.95 584.48 1390.3 565.35 1463.76 584.3C1487.56 590.41 1512.42 590.41 1536.19 584.3C1559.2 578.36 1582.18 576.16 1602.75 578.48C1647.83 583.59 1681.21 610.45 1677.18 667.43Z" stroke="black" stroke-width="18.34" stroke-miterlimit="10"/>
<path d="M1669.76 512.77C1638.14 488.48 1580.46 465.48 1512.41 452.57C1404.55 432.06 1311.54 444.68 1304.68 480.82C1297.82 516.88 1379.71 562.74 1487.57 583.25C1541.21 593.45 1591.14 595.43 1628.67 590.44C1666.64 585.41 1691.88 573.2 1695.33 555.04C1697.86 541.69 1688.29 527.01 1669.76 512.78V512.77ZM1493.55 551.81C1417.86 537.43 1359.38 510.61 1362.94 491.86C1366.54 473.11 1430.78 469.59 1506.46 483.97C1582.15 498.35 1640.59 525.21 1637.03 543.95C1633.47 562.66 1569.23 566.18 1493.54 551.8L1493.55 551.81Z" fill="#FFCE00" stroke="black" stroke-width="18.34" stroke-miterlimit="10"/>
<path d="M1695.33 555.04C1691.88 573.2 1666.64 585.42 1628.67 590.44C1660.48 567.55 1710.26 559.53 1631.33 489.86C1649.86 504.09 1697.86 541.68 1695.33 555.04Z" fill="#FFA600"/>
<path d="M1669.76 512.77C1638.14 488.48 1580.46 465.48 1512.41 452.57C1404.55 432.06 1311.54 444.68 1304.68 480.82C1297.82 516.88 1379.71 562.74 1487.57 583.25C1541.21 593.45 1591.14 595.43 1628.67 590.44C1666.64 585.41 1691.88 573.2 1695.33 555.04C1697.86 541.69 1688.29 527.01 1669.76 512.78V512.77ZM1493.55 551.81C1417.86 537.43 1359.38 510.61 1362.94 491.86C1366.54 473.11 1430.78 469.59 1506.46 483.97C1582.15 498.35 1640.59 525.21 1637.03 543.95C1633.47 562.66 1569.23 566.18 1493.54 551.8L1493.55 551.81Z" stroke="black" stroke-width="18.34" stroke-miterlimit="10"/>
<path d="M1395.51 445.12L1413.47 514.3C1413.8 515.57 1414.64 516.64 1415.79 517.27L1448.55 535.19C1451.84 536.99 1451.84 541.72 1448.55 543.52L1415.81 561.43C1414.65 562.06 1413.81 563.15 1413.49 564.43L1395.53 635.16C1394.32 639.93 1387.54 639.93 1386.33 635.16L1368.37 564.43C1368.05 563.15 1367.2 562.07 1366.05 561.43L1333.31 543.52C1330.02 541.72 1330.02 536.99 1333.31 535.19L1366.07 517.27C1367.22 516.64 1368.06 515.57 1368.39 514.3L1386.35 445.12C1387.58 440.38 1394.31 440.38 1395.54 445.12H1395.51Z" fill="white"/>
<path d="M1666.09 600.57L1672.37 624.75C1672.49 625.19 1672.78 625.57 1673.18 625.79L1684.63 632.05C1685.78 632.68 1685.78 634.33 1684.63 634.96L1673.18 641.22C1672.78 641.44 1672.48 641.82 1672.37 642.27L1666.09 666.99C1665.67 668.66 1663.3 668.66 1662.87 666.99L1656.59 642.27C1656.48 641.82 1656.18 641.44 1655.78 641.22L1644.33 634.96C1643.18 634.33 1643.18 632.68 1644.33 632.05L1655.78 625.79C1656.18 625.57 1656.47 625.19 1656.59 624.75L1662.87 600.57C1663.3 598.91 1665.65 598.91 1666.08 600.57H1666.09Z" fill="white"/>
<path d="M1361.97 751.41L1372.53 792.09C1372.72 792.84 1373.22 793.47 1373.89 793.84L1393.15 804.37C1395.09 805.43 1395.09 808.21 1393.15 809.27L1373.9 819.8C1373.22 820.17 1372.72 820.81 1372.53 821.56L1361.97 863.14C1361.26 865.95 1357.27 865.95 1356.56 863.14L1346 821.56C1345.81 820.81 1345.31 820.17 1344.63 819.8L1325.38 809.27C1323.44 808.21 1323.44 805.43 1325.38 804.37L1344.64 793.84C1345.32 793.47 1345.81 792.84 1346 792.09L1356.56 751.41C1357.28 748.62 1361.24 748.62 1361.96 751.41H1361.97Z" fill="white"/>
</g>
</g>
<defs>
<clipPath id="clip0_1_68">
<rect width="2000" height="2000" fill="white"/>
</clipPath>
</defs>
</svg>
