<svg width="2000" height="2000" viewBox="0 0 2000 2000" fill="none" xmlns="http://www.w3.org/2000/svg">
<g clip-path="url(#clip0_356_2)">
<mask id="mask0_356_2" style="mask-type:luminance" maskUnits="userSpaceOnUse" x="0" y="0" width="2000" height="2000">
<path d="M2000 0H0V2000H2000V0Z" fill="white"/>
</mask>
<g mask="url(#mask0_356_2)">
<path d="M1582.76 806.46L1582.72 806.48L1582.76 806.59C1582.76 806.59 1582.76 806.51 1582.76 806.47V806.46Z" fill="#FFF800"/>
<path d="M1798.76 1075.87C1798.47 1075.17 1798.1 1074.52 1797.65 1073.91L1797.9 1073.81L1659.56 774.52H1659.53C1659.56 774.6 1659.62 774.66 1659.65 774.74C1662.92 782.13 1648.44 795.69 1627.32 805.01C1607.55 813.74 1588.96 815.67 1583.99 809.82L1700.23 1114.42L1701.02 1114.09C1701.14 1114.84 1701.34 1115.56 1701.63 1116.26C1706.3 1127.5 1731.83 1127.56 1758.66 1116.41C1785.48 1105.26 1803.43 1087.11 1798.76 1075.87Z" fill="#FFF800"/>
<path d="M1674.66 1072.9L1687.46 1074.19C1687.58 1074.94 1687.78 1075.66 1688.07 1076.36C1692.22 1086.35 1705.99 1091.11 1729.37 1083.41C1697.46 1038.14 1653.91 910.12 1593.9 813.13L1674.66 1072.9Z" fill="#DFD400"/>
<path d="M1671.12 1057.25C1671.12 1057.25 1769.3 1061.83 1781.05 1020.27L1800.22 1088.94C1800.22 1088.94 1771.32 1121.5 1752.51 1122.6C1733.7 1123.7 1694.23 1114.45 1694.23 1114.45L1671.11 1057.24L1671.12 1057.25Z" fill="#E19500"/>
<path d="M1671.12 1057.25L1694.24 1114.46C1694.24 1114.46 1723.84 1124.46 1742.65 1123.36C1727.62 1123.98 1743.95 1123.29 1742.65 1123.36C1730.93 1104.92 1717.77 1074.68 1707.35 1056.11C1682.63 1059.57 1671.13 1057.25 1671.13 1057.25H1671.12Z" fill="#B46B00"/>
<path d="M1678.64 1057.84C1678.64 1057.84 1739.33 1071.44 1773.42 1020.85" stroke="black" stroke-width="18.34" stroke-linecap="round" stroke-linejoin="round"/>
<path d="M1582.76 806.46L1582.72 806.48L1582.76 806.59C1582.76 806.59 1582.76 806.51 1582.76 806.47V806.46Z" stroke="black" stroke-width="18.34" stroke-linecap="round" stroke-linejoin="round"/>
<path d="M1700.23 1114.42C1704.9 1125.66 1731.83 1127.57 1758.65 1116.41C1785.47 1105.26 1803.42 1087.11 1798.75 1075.87C1763.95 1000.53 1659.55 774.52 1659.55 774.52H1659.52C1659.55 774.6 1659.61 774.66 1659.64 774.74C1662.91 782.13 1648.43 795.69 1627.31 805.01C1607.54 813.74 1588.95 815.67 1583.98 809.82L1700.22 1114.42H1700.23Z" stroke="black" stroke-width="18.34" stroke-linecap="round" stroke-linejoin="round"/>
<path d="M1627.32 804.947C1648.44 795.617 1662.92 782.063 1659.65 774.672C1656.39 767.28 1636.62 768.852 1615.5 778.181C1594.37 787.51 1579.9 801.065 1583.16 808.456C1586.43 815.847 1606.19 814.276 1627.32 804.947Z" stroke="black" stroke-width="18.34" stroke-linecap="round" stroke-linejoin="round"/>
<path d="M1646.44 782.41C1638.66 763.7 1631.74 747.08 1625.7 730.84C1624.14 726.65 1625.67 721.94 1629.4 719.48L1745.83 642.77C1756.93 635.46 1760.32 620.71 1753.53 609.29L1674.35 475.97C1667.52 464.47 1652.83 460.43 1641.07 466.82L1551.26 515.66C1539.19 522.23 1534.73 537.33 1541.29 549.4C1547.85 561.47 1562.96 565.93 1575.03 559.37L1643.79 521.97L1698.61 614.27L1578.31 693.53C1568.32 700.11 1558.9 717.66 1563.51 728.69C1573.43 752.42 1587.86 775.62 1599.3 803.13C1599.3 803.13 1614.47 801.17 1623.45 796.24C1632.43 791.31 1646.43 782.4 1646.43 782.4L1646.44 782.41Z" fill="#CBCBCB"/>
<path d="M1624.22 797.05C1633.39 792.94 1639.03 788 1641.76 786.22L1633.71 765.73C1617.76 793.64 1586.87 783.41 1587.41 782.58C1591.6 793.76 1594.12 792.84 1598.94 804.43C1598.94 804.43 1614.87 801.24 1624.22 797.05Z" fill="#A9A9A9"/>
<path d="M1650.2 783.15C1642.42 764.44 1631.74 747.08 1625.7 730.83C1624.14 726.64 1625.67 721.93 1629.4 719.47L1745.83 642.76C1756.93 635.45 1760.32 620.7 1753.53 609.28L1674.35 475.96C1667.52 464.46 1652.83 460.42 1641.07 466.81L1551.26 515.65C1539.19 522.22 1534.73 537.32 1541.29 549.39C1547.85 561.46 1562.96 565.92 1575.03 559.36L1643.79 521.96L1698.61 614.26L1569.31 694.93C1556.56 703.17 1552.38 716.81 1556.99 727.85C1566.91 751.58 1579.38 781.49 1590.82 809" stroke="black" stroke-width="18.34" stroke-linecap="round" stroke-linejoin="round"/>
<path d="M1538.44 634.376L1259.72 784.548C1205.77 813.617 1142.26 800.464 1117.86 755.185C1093.46 709.897 1136.09 604.604 1190.04 575.535L1410.98 456.334C1464.94 427.264 1567.55 454.467 1591.94 499.747C1616.34 545.035 1592.39 605.306 1538.43 634.367L1538.44 634.376Z" fill="#FF8001"/>
<path d="M1591.95 499.755C1587.24 491.011 1579.59 482.959 1569.96 475.832C1578.01 546.563 1576 566.319 1391.83 670.812C1189.77 785.454 1178.06 763.814 1110.87 721.361C1110.77 734.336 1112.92 746.005 1117.86 755.185C1142.26 800.473 1205.77 813.617 1259.73 784.548L1538.45 634.375C1592.4 605.306 1616.35 545.035 1591.96 499.755H1591.95Z" fill="#E56400"/>
<path d="M1247.26 555.486C1253.62 560.987 1316.14 596.002 1335.38 653.749C1345.65 684.543 1379.84 670.021 1383.88 652.967C1389.36 629.799 1347.07 574.317 1282.65 531.775" fill="#FFA94F"/>
<path d="M1247.26 555.486C1253.62 560.987 1316.14 596.002 1335.38 653.749C1345.65 684.543 1379.84 670.021 1383.88 652.967C1389.36 629.799 1347.07 574.317 1282.65 531.775" stroke="black" stroke-width="18.34" stroke-linecap="round" stroke-linejoin="round"/>
<path d="M1322.62 510.1C1328.98 515.601 1387.32 538.769 1406.57 596.508C1416.83 627.301 1451.03 612.78 1455.06 595.726C1460.55 572.557 1422.44 528.931 1358.03 486.389" fill="#FFA94F"/>
<path d="M1322.62 510.1C1328.98 515.601 1387.32 538.769 1406.57 596.508C1416.83 627.301 1451.03 612.78 1455.06 595.726C1460.55 572.557 1422.44 528.931 1358.03 486.389" stroke="black" stroke-width="18.34" stroke-linecap="round" stroke-linejoin="round"/>
<path d="M1390.13 470.553C1396.49 476.054 1441.4 483.999 1472.77 536.157C1486.26 558.587 1511.19 554.144 1515.22 537.099C1520.71 513.93 1487.79 474.445 1428.09 449.393" fill="#FFA94F"/>
<path d="M1390.13 470.553C1396.49 476.054 1441.4 483.999 1472.77 536.157C1486.26 558.587 1511.19 554.144 1515.22 537.099C1520.71 513.93 1487.79 474.445 1428.09 449.393" stroke="black" stroke-width="18.34" stroke-linecap="round" stroke-linejoin="round"/>
<path d="M1175.04 590.714C1184.3 595.939 1215.8 602.453 1242.76 657.019C1254.36 680.49 1279.56 678.117 1284.99 661.454C1292.37 638.819 1262.56 597.281 1205.14 567.385" fill="#FFA94F"/>
<path d="M1175.04 590.714C1184.3 595.939 1215.8 602.453 1242.76 657.019C1254.36 680.49 1279.56 678.117 1284.99 661.454C1292.37 638.819 1262.56 597.281 1205.14 567.385" stroke="black" stroke-width="18.34" stroke-linecap="round" stroke-linejoin="round"/>
<path d="M1252.38 648.497C1225.42 593.931 1193.93 587.417 1184.65 582.192L1200.61 569.821C1200.36 569.688 1200.11 569.545 1199.85 569.412L1169.75 592.732C1179.02 597.948 1210.51 604.471 1237.48 659.037C1248.54 681.433 1271.97 680.26 1278.8 665.623C1269.63 666.662 1258.87 661.632 1252.38 648.489V648.497Z" fill="#F99029"/>
<path d="M1482.96 524.595C1451.94 472.224 1420.06 468.1 1410.41 463.603L1425.4 450.059C1425.13 449.944 1424.87 449.828 1424.61 449.713L1396.36 475.245C1406 479.751 1437.88 483.866 1468.9 536.245C1481.63 557.743 1504.89 554.802 1510.61 539.694C1501.54 541.418 1490.43 537.214 1482.96 524.604V524.595Z" fill="#F99029"/>
<path d="M1345.16 637.548C1311.27 568.967 1265.87 551.646 1254.22 545.088L1274.28 529.544C1273.95 529.375 1273.65 529.198 1273.32 529.029L1238.52 549.389C1250.17 555.947 1286.72 573.091 1320.61 641.68C1334.52 669.834 1364.65 677.477 1373.24 659.081C1361.72 660.387 1353.33 654.069 1345.16 637.548Z" fill="#F99029"/>
<path d="M1416.25 583.311C1390.48 523.626 1340.68 507.345 1329.03 500.786L1358.02 486.398C1357.7 486.23 1358.35 486.567 1358.02 486.398L1323.7 503.426C1335.35 509.984 1365.47 524.124 1399.37 592.713C1413.28 620.867 1435.75 623.24 1444.34 604.844C1432.82 606.151 1423.56 600.232 1416.25 583.311Z" fill="#F99029"/>
<path d="M1538.44 634.376L1259.72 784.548C1205.77 813.617 1142.26 800.464 1117.86 755.185C1093.46 709.897 1136.09 604.604 1190.04 575.535L1410.98 456.334C1464.94 427.264 1567.55 454.467 1591.94 499.747C1616.34 545.035 1592.39 605.306 1538.43 634.367L1538.44 634.376Z" stroke="black" stroke-width="18.34" stroke-linecap="round" stroke-linejoin="round"/>
<path d="M1240.33 550.394C1246.69 555.895 1316.14 596.01 1335.38 653.758C1345.65 684.552 1379.84 670.03 1383.88 652.976C1389.36 629.808 1347.07 574.326 1282.66 531.784" stroke="black" stroke-width="18.34" stroke-linecap="round" stroke-linejoin="round"/>
<path d="M1322.62 510.1C1328.98 515.601 1387.32 538.769 1406.57 596.508C1416.83 627.301 1451.03 612.78 1455.06 595.726C1460.55 572.557 1422.44 528.931 1358.03 486.389" stroke="black" stroke-width="18.34" stroke-linecap="round" stroke-linejoin="round"/>
<path d="M1390.13 470.553C1396.49 476.054 1441.4 483.999 1472.77 536.157C1486.26 558.587 1511.19 554.144 1515.22 537.099C1520.71 513.93 1487.79 474.445 1428.09 449.393" stroke="black" stroke-width="18.34" stroke-linecap="round" stroke-linejoin="round"/>
<path d="M1175.04 590.714C1184.3 595.939 1215.8 602.453 1242.76 657.019C1254.36 680.49 1279.56 678.117 1284.99 661.454C1292.37 638.819 1262.56 597.281 1205.14 567.385" stroke="black" stroke-width="18.34" stroke-linecap="round" stroke-linejoin="round"/>
<path d="M1582.76 806.46L1582.72 806.48L1582.76 806.58C1582.76 806.58 1582.76 806.5 1582.76 806.46Z" fill="#FFF800"/>
</g>
</g>
<defs>
<clipPath id="clip0_356_2">
<rect width="2000" height="2000" fill="white"/>
</clipPath>
</defs>
</svg>
