<svg width="2000" height="2000" viewBox="0 0 2000 2000" fill="none" xmlns="http://www.w3.org/2000/svg">
<g clip-path="url(#clip0_429_47)">
<mask id="mask0_429_47" style="mask-type:luminance" maskUnits="userSpaceOnUse" x="0" y="0" width="2000" height="2000">
<path d="M2000 0H0V2000H2000V0Z" fill="white"/>
</mask>
<g mask="url(#mask0_429_47)">
<path d="M1590.03 1067.11C1589.59 1067.26 1589.15 1067.37 1588.71 1067.48L1522.56 1082.34C1513.35 1084.43 1504.66 1077.42 1504.66 1068L1504.77 1037.04C1522.64 1035.35 1539.99 1030.73 1556.65 1023.61C1568.43 1032.56 1582.15 1038.4 1590.04 1041.29C1602 1045.73 1602.18 1063.23 1590.04 1067.12L1590.03 1067.11Z" fill="#EC0083" stroke="black" stroke-width="18.34" stroke-linecap="round" stroke-linejoin="round"/>
<path d="M1740.38 719.98C1740.38 798.75 1704.13 890.5 1647.41 955.11C1621.07 985.16 1590.29 1009.33 1556.64 1023.61C1539.98 1030.73 1522.63 1035.35 1504.76 1037.04C1499.59 1037.59 1494.38 1037.85 1489.13 1037.85C1350.41 1037.85 1237.93 858.74 1237.93 719.99C1237.93 581.24 1350.41 468.79 1489.13 468.79C1495.18 468.79 1501.16 469.01 1507.11 469.45C1637.46 478.66 1740.37 587.33 1740.37 719.99L1740.38 719.98Z" fill="#FF0085"/>
<g style="mix-blend-mode:multiply">
<path d="M1647.41 955.11C1704.86 700.42 1627.86 561.45 1507.12 469.44C1637.47 478.65 1740.38 587.32 1740.38 719.98C1740.38 798.75 1704.13 890.5 1647.41 955.11Z" fill="#FF0085"/>
</g>
<path d="M1740.38 719.97C1740.38 835.35 1662.6 978.62 1556.65 1023.6C1539.99 1030.72 1522.64 1035.34 1504.77 1037.03C1499.6 1037.58 1494.39 1037.84 1489.14 1037.84C1350.42 1037.84 1237.94 858.73 1237.94 719.98C1237.94 581.23 1350.43 468.78 1489.14 468.78C1627.85 468.78 1740.38 581.26 1740.38 719.98V719.97Z" stroke="black" stroke-width="18.34" stroke-linecap="round" stroke-linejoin="round"/>
<path d="M1672.46 456.28L1624.92 544.43L1614.83 486.43L1662.39 398.24L1672.46 456.28Z" fill="white" stroke="black" stroke-width="18.34" stroke-linecap="round" stroke-linejoin="round"/>
<path d="M1714.28 378.71L1672.45 456.28L1662.38 398.24L1682.23 361.43L1714.28 378.71Z" fill="#EC0083" stroke="black" stroke-width="18.34" stroke-linecap="round" stroke-linejoin="round"/>
<path d="M1577.36 632.62L1529.81 720.81L1519.72 662.81L1567.27 574.62L1577.36 632.62Z" fill="white" stroke="black" stroke-width="18.34" stroke-linecap="round" stroke-linejoin="round"/>
<path d="M1624.92 544.43L1577.36 632.62L1567.27 574.62L1614.83 486.43L1624.92 544.43Z" fill="#EC0083" stroke="black" stroke-width="18.34" stroke-linecap="round" stroke-linejoin="round"/>
<path d="M1519.72 662.81L1529.81 720.81L1509.96 757.62L1477.91 740.34L1519.72 662.81Z" fill="#EC0083" stroke="black" stroke-width="18.34" stroke-linecap="round" stroke-linejoin="round"/>
<path d="M1440.81 674.89C1453.48 634.37 1502.68 633.72 1509.55 645.63C1516.42 657.54 1533.64 684.43 1574.09 685.27C1614.54 686.11 1546.41 772.22 1546.41 772.22L1458.6 763.85L1440.81 674.89Z" fill="#FF0085"/>
<path d="M1499.92 618.41C1499.92 673.85 1560.18 694.47 1592.91 678.27" stroke="black" stroke-width="18.34" stroke-linecap="round" stroke-linejoin="round"/>
</g>
</g>
<defs>
<clipPath id="clip0_429_47">
<rect width="2000" height="2000" fill="white"/>
</clipPath>
</defs>
</svg>
