<svg width="2000" height="2000" viewBox="0 0 2000 2000" fill="none" xmlns="http://www.w3.org/2000/svg">
<g clip-path="url(#clip0_186_30)">
<mask id="mask0_186_30" style="mask-type:luminance" maskUnits="userSpaceOnUse" x="0" y="0" width="2000" height="2000">
<path d="M2000 0H0V2000H2000V0Z" fill="white"/>
</mask>
<g mask="url(#mask0_186_30)">
<path d="M1798.78 691.95C1793.77 496.25 1635.67 467.4 1497.68 511.32C1359.69 555.21 1342.38 657.78 1375.97 705.77C1402.33 743.4 1385.84 737.08 1305.72 770.98C1253.67 793.02 1232.35 825.45 1231.36 859.04C1229.37 923.79 1302.89 992.73 1377.25 999.33C1387.46 1000.23 1399.32 1000.08 1412.46 998.83C1544.32 986.72 1803.33 869.96 1798.78 691.94V691.95ZM1381.8 856.9C1359.39 856.9 1340.74 844.17 1336.91 827.39C1336.41 825.3 1336.16 823.16 1336.16 820.98C1336.16 801.15 1356.61 785.06 1381.79 785.06C1406.97 785.06 1427.42 801.15 1427.42 820.98C1427.42 822.44 1427.3 823.91 1427.08 825.31C1424.37 843.12 1405.14 856.9 1381.79 856.9H1381.8Z" fill="url(#paint0_linear_186_30)"/>
<path style="mix-blend-mode:multiply" d="M1798.78 691.95C1793.77 496.25 1635.67 467.4 1497.68 511.32C1359.69 555.21 1342.38 657.78 1375.97 705.77C1402.33 743.4 1385.84 737.08 1305.72 770.98C1253.67 793.02 1232.35 825.45 1231.36 859.04C1229.37 923.79 1302.89 992.73 1377.25 999.33C1387.46 1000.23 1399.32 1000.08 1412.46 998.83C1544.32 986.72 1803.33 869.96 1798.78 691.94V691.95ZM1381.8 856.9C1359.39 856.9 1340.74 844.17 1336.91 827.39C1336.41 825.3 1336.16 823.16 1336.16 820.98C1336.16 801.15 1356.61 785.06 1381.79 785.06C1406.97 785.06 1427.42 801.15 1427.42 820.98C1427.42 822.44 1427.3 823.91 1427.08 825.31C1424.37 843.12 1405.14 856.9 1381.79 856.9H1381.8Z" fill="url(#paint1_linear_186_30)"/>
<path d="M1540.52 879.93C1540.52 881.39 1438.27 965.37 1412.46 998.84C1399.32 1000.09 1387.46 1000.24 1377.25 999.34C1302.89 992.74 1229.36 923.79 1231.36 859.05C1260.99 835.05 1287.42 825.28 1298.63 826.74C1304.2 827.46 1318.58 827.61 1336.92 827.39C1363.69 827.14 1398.86 826.14 1427.1 825.3C1454.37 824.49 1475.16 823.81 1475.78 824.02C1477.43 824.58 1540.53 878.28 1540.53 879.93H1540.52Z" fill="#FDE3D2"/>
<path d="M1337.74 781.49C1351.5 758.75 1415.12 731.35 1427.42 790.83C1427.42 790.83 1429.48 805.47 1414.95 796.33C1400.42 787.18 1341.71 794.34 1340.96 806.86C1333.52 795.96 1337.74 781.49 1337.74 781.49Z" fill="#FDE3D2"/>
<path d="M1798.79 691.97C1793.77 496.25 1635.69 467.4 1497.68 511.31C1359.69 555.21 1342.39 657.78 1375.98 705.77C1402.33 743.4 1385.86 737.1 1305.73 771C1153.34 835.5 1264.33 989.3 1377.25 999.35C1490.17 1009.38 1803.82 887.68 1798.79 691.97ZM1381.8 856.9C1356.61 856.9 1336.17 840.82 1336.17 820.98C1336.17 801.14 1356.61 785.06 1381.8 785.06C1406.99 785.06 1427.43 801.14 1427.43 820.98C1427.43 840.82 1407.01 856.9 1381.8 856.9Z" stroke="black" stroke-width="18.34" stroke-miterlimit="10"/>
<path d="M1416.59 998.46C1438.73 954.17 1507.29 943.61 1558.07 921.95" stroke="black" stroke-width="18.34" stroke-linecap="round" stroke-linejoin="round"/>
<path d="M1798.79 661.82C1793.77 466.1 1635.69 437.25 1497.68 481.16C1359.69 525.06 1342.39 627.63 1375.98 675.62C1402.33 713.25 1385.86 706.95 1305.73 740.85C1153.34 805.35 1276.6 943.69 1389.51 953.74C1502.43 963.77 1803.81 857.53 1798.79 661.82ZM1381.8 826.74C1356.61 826.74 1336.17 810.66 1336.17 790.82C1336.17 770.98 1356.61 754.9 1381.8 754.9C1406.99 754.9 1427.43 770.98 1427.43 790.82C1427.43 810.66 1407.01 826.74 1381.8 826.74Z" fill="url(#paint2_linear_186_30)"/>
<path d="M1588.68 503.45C1572.89 485.29 1551.05 459.43 1612.68 463.41C1673.65 467.39 1752.48 477.35 1662.19 522.23C1623.66 578.11 1597.91 639.22 1597.85 674.92C1597.79 710.62 1600.72 726.66 1582.49 732.92C1564.27 739.18 1577.56 787.94 1587.09 805.2C1596.61 822.46 1634.76 848.22 1665.69 842.88C1696.62 837.53 1697.54 850.44 1661.2 871.34C1624.87 892.24 1495.71 970.03 1360.29 948.41C1283.2 933.41 1224.85 864.12 1236.79 805.96C1248.73 747.8 1300.2 742.65 1322.36 734C1339.19 727.4 1351.12 734.03 1325.78 762.79C1300.44 791.55 1244.59 818.43 1282.46 834.16C1320.33 849.89 1313.03 866.46 1305.74 888.33C1330.59 909.55 1405.51 954.61 1474.61 913.18C1543.71 871.76 1560.31 831.63 1559.97 785.07C1559.62 738.51 1541.78 730.1 1567.28 663.71C1592.77 597.32 1602.48 527.57 1588.68 503.45Z" fill="#FDE3D2"/>
<path d="M1798.79 661.82C1793.77 466.1 1635.69 437.25 1497.68 481.16C1359.69 525.06 1342.39 627.63 1375.98 675.62C1402.33 713.25 1385.86 706.95 1305.73 740.85C1153.34 805.35 1276.6 943.69 1389.51 953.74C1502.43 963.77 1803.81 857.53 1798.79 661.82ZM1381.8 826.74C1356.61 826.74 1336.17 810.66 1336.17 790.82C1336.17 770.98 1356.61 754.9 1381.8 754.9C1406.99 754.9 1427.43 770.98 1427.43 790.82C1427.43 810.66 1407.01 826.74 1381.8 826.74Z" stroke="black" stroke-width="18.34" stroke-miterlimit="10"/>
<path d="M1561.02 466.56C1649.29 530.01 1529.71 694.21 1556.07 766.99C1579.29 831.09 1501.93 922.03 1431.26 925.19C1360.6 928.35 1302.05 907.59 1310.32 879.84C1326.14 826.74 1257.39 843.56 1270.04 813.39C1282.7 783.22 1324.03 790.82 1344.52 725.34" stroke="black" stroke-width="18.34" stroke-miterlimit="10"/>
<path d="M1721.13 494.42C1630.21 498.59 1595.09 650.69 1598.25 696.04C1601.41 741.39 1567.66 721.64 1577.16 759.61C1586.65 797.58 1577.26 867.46 1711.68 834.1" stroke="black" stroke-width="18.34" stroke-miterlimit="10"/>
</g>
</g>
<defs>
<linearGradient id="paint0_linear_186_30" x1="1736.9" y1="535.96" x2="1298.73" y2="974.13" gradientUnits="userSpaceOnUse">
<stop stop-color="#D5001A"/>
<stop offset="1" stop-color="#B20011"/>
</linearGradient>
<linearGradient id="paint1_linear_186_30" x1="1736.9" y1="535.96" x2="1298.73" y2="974.13" gradientUnits="userSpaceOnUse">
<stop stop-color="#D5001A"/>
<stop offset="1" stop-color="#B20011"/>
</linearGradient>
<linearGradient id="paint2_linear_186_30" x1="1234.63" y1="708.85" x2="1798.85" y2="708.85" gradientUnits="userSpaceOnUse">
<stop stop-color="#D5001A"/>
<stop offset="1" stop-color="#B20011"/>
</linearGradient>
<clipPath id="clip0_186_30">
<rect width="2000" height="2000" fill="white"/>
</clipPath>
</defs>
</svg>
