<svg width="2000" height="2000" viewBox="0 0 2000 2000" fill="none" xmlns="http://www.w3.org/2000/svg">
<g clip-path="url(#clip0_643_299)">
<mask id="mask0_643_299" style="mask-type:luminance" maskUnits="userSpaceOnUse" x="0" y="0" width="2000" height="2000">
<path d="M2000 0H0V2000H2000V0Z" fill="white"/>
</mask>
<g mask="url(#mask0_643_299)">
<path d="M1610.7 539.6C1610.2 539.7 1609.6 539.9 1609.1 540V539.9L1232.1 611.3L1306.4 981.3L1679.6 912.3L1679.3 910.8C1679.8 910.7 1680.4 910.7 1680.9 910.6C1726.1 902 1747.1 812 1727.7 709.6C1708.4 607.2 1656 531.1 1610.7 539.6Z" fill="#686868" stroke="black" stroke-width="18.34" stroke-linecap="round" stroke-linejoin="round"/>
<path d="M1302.44 982.165C1347.7 973.589 1368.64 883.587 1349.23 781.14C1329.81 678.693 1277.39 602.597 1232.13 611.173C1186.88 619.75 1165.93 709.752 1185.35 812.198C1204.76 914.645 1257.19 990.742 1302.44 982.165Z" fill="white"/>
<path d="M1274.2 974.8C1283.9 979.8 1293.6 981.8 1303 980C1348.2 971.4 1369.2 881.4 1349.8 779C1344.1 749.2 1335.7 721.6 1325.4 697.7C1303.9 660.7 1278.4 632.2 1257 612.1C1250.2 609.3 1243.5 608 1236.9 608.5C1379.7 801 1327.9 923.7 1274.2 974.8Z" fill="#A8A8A8"/>
<path d="M1302.44 982.165C1347.7 973.589 1368.64 883.587 1349.23 781.14C1329.81 678.693 1277.39 602.597 1232.13 611.173C1186.88 619.75 1165.93 709.752 1185.35 812.198C1204.76 914.645 1257.19 990.742 1302.44 982.165Z" stroke="black" stroke-width="18.34" stroke-linecap="round" stroke-linejoin="round"/>
<path d="M1277.67 864.589C1293.84 861.524 1301.32 829.348 1294.38 792.721C1287.44 756.094 1268.7 728.887 1252.53 731.951C1236.36 735.016 1228.88 767.192 1235.82 803.819C1242.77 840.446 1261.5 867.653 1277.67 864.589Z" fill="#A8A8A8" stroke="black" stroke-width="18.34" stroke-linecap="round" stroke-linejoin="round"/>
<path d="M1858.1 1012C1858.1 1012 1799.4 1010.2 1760.9 807.2C1706.3 519.2 1621.8 540.3 1621.8 540.3L1243.3 612C1289.6 607.3 1368.3 710 1358.3 857.6C1347.3 1019.4 1497.4 1091.9 1497.4 1091.9L1550.6 1119.6L1586.6 1074.2L1631.2 1100.8L1664.4 1047L1725.2 1074.1L1749.9 1031.9L1804.8 1056.8L1805.9 1013.8L1858.1 1012Z" fill="white"/>
<path d="M1469.7 1072.3L1552.1 1112.6L1568.5 1091.8C1471.3 1058.9 1412.8 995 1382.4 951.1C1416.6 1028.4 1476.2 1065.9 1469.7 1072.3Z" fill="#A8A8A8"/>
<path d="M1302.3 655.3L1327.3 650.5" stroke="black" stroke-width="18.34" stroke-linecap="round" stroke-linejoin="round"/>
<path d="M1374.1 641.7L1631.2 593" stroke="black" stroke-width="18.34" stroke-linecap="round" stroke-linejoin="round"/>
<path d="M1654.6 588.5L1679.7 583.8" stroke="black" stroke-width="18.34" stroke-linecap="round" stroke-linejoin="round"/>
<path d="M1842.5 1020.1C1853.2 1021.8 1859.5 1008.5 1851.4 1001.4C1821.1 974.7 1782.3 919.7 1761 807.2C1706.4 519.2 1610.7 539.6 1610.7 539.6L1232.1 611.3C1278.4 606.6 1348.4 699.5 1354.5 847.3C1360.7 997.7 1437.1 1057 1497.4 1091.8C1506.5 1097.1 1529.2 1108.6 1541.8 1115C1546.8 1117.5 1552.9 1115.8 1555.9 1111L1573.8 1081.8C1576.6 1077.3 1582.3 1075.4 1587.2 1077.5L1623.5 1092.8C1628.3 1094.8 1633.8 1093.1 1636.7 1088.8L1659.4 1054.5C1662.3 1050.1 1668 1048.5 1672.8 1050.6L1716.4 1070C1721.4 1072.2 1727.3 1070.3 1730.1 1065.6L1745 1040.1C1747.8 1035.3 1753.7 1033.4 1758.8 1035.7L1790 1049.9C1797 1053.1 1805 1048.1 1805.2 1040.3L1805.5 1026.2C1805.7 1019.6 1811.7 1014.7 1818.2 1015.9C1824.8 1017.1 1833.3 1018.6 1842.5 1020.1Z" stroke="black" stroke-width="18.34" stroke-linecap="round" stroke-linejoin="round"/>
<path d="M1749.5 717.1C1735.1 666 1719.3 628.9 1703.6 601.8L1696.9 509.5C1695.6 502 1688.3 497.1 1680.9 498.6L1162 590.7C1154.5 592.3 1149.3 599.1 1149.8 606.8L1158.6 751.8C1159.8 771.6 1177.9 786 1197.4 782.9L1238.7 776.2C1251.8 774.1 1264.3 782.3 1267.5 795.2C1267.9 797 1268.3 798.8 1268.6 800.7C1270.5 814.5 1260.8 827.3 1246.9 829.3L1192.8 837C1151.1 842.9 1113.3 812 1110.8 770L1100.2 592.3C1099.1 573.4 1112.1 556.6 1130.6 553L1693.9 456.9C1710.1 453.9 1732.6 470 1736 486.1L1765 674.2C1768 693.4 1763.6 709.2 1749.5 717.1Z" fill="#0171E3"/>
<path d="M1742.2 718.2C1765.1 712.9 1765.5 697.5 1761.9 674.2L1732.9 486.1C1729.5 470 1707 453.9 1690.8 456.9L1127.5 553C1108.9 556.6 1095.9 573.4 1097.1 592.2L1107.7 770C1110.2 812 1148.1 842.9 1189.7 837L1243.8 829.3C1257.6 827.3 1267.4 814.5 1265.5 800.7C1265.2 798.8 1264.9 796.9 1264.4 795.2C1261.2 782.3 1248.7 774 1235.6 776.2L1194.3 782.9C1174.7 786.1 1156.7 771.6 1155.5 751.8L1146.7 606.8C1146.2 599.1 1151.5 592.3 1158.9 590.7L1677.8 498.6C1685.2 497.1 1692.5 502 1693.8 509.5L1708.7 631.2" stroke="black" stroke-width="18.34" stroke-linecap="round" stroke-linejoin="round"/>
</g>
<path d="M1581 757.2C1591.2 755.7 1598.5 746.5 1598.5 738.9C1598.5 730 1591.9 726.3 1584.2 727.5C1573.5 729.1 1566.1 737.9 1566.1 746.2C1566.1 754.5 1573.1 758.4 1581 757.2Z" fill="#0171E3"/>
<path d="M1698.1 753.4C1694.7 753.9 1693.2 756 1691.3 758.6C1688.5 762.4 1684.1 768.9 1677.7 769.9C1675.2 770.3 1673.6 769 1672.6 766.7C1689.9 746.9 1703.9 713.2 1703.9 694.2C1703.9 675.9 1696 667.9 1684.5 669.6C1673.3 671.3 1664.6 681 1658.1 694.3C1656.4 680.8 1649.1 674.9 1639.1 676.4C1608.8 680.9 1597 744.3 1595.8 778.5C1594 780.3 1591.9 781.8 1589.5 782.2C1586.3 782.7 1584.8 780.6 1584.8 776.7C1584.8 773.3 1585.9 769 1585.9 766.5C1585.9 762.5 1582.9 760.2 1576.3 761.2C1563.8 763.1 1556.8 775 1555.1 790.5C1551.7 777.5 1541.5 767.9 1523.4 765.8C1532.4 759 1538.3 749.6 1538.3 737.2C1538.3 712.7 1509.5 694 1462.7 701C1424 706.8 1389.9 730 1389.9 765.4C1389.9 783.3 1402.3 794.1 1421.2 791.3C1437.2 788.9 1445.3 778.1 1445.3 772.6C1445.3 770.9 1443.4 769.3 1443.4 764.8C1443.4 749.5 1459 734.9 1479.4 731.9C1495.2 729.5 1508.8 733.9 1508.8 746.7C1508.8 754.6 1502.6 762.9 1493.5 766.1C1494.4 762.2 1495.2 758.5 1496.3 755.3C1499.5 745 1501.8 745.4 1501.8 742.6C1501.8 738.3 1492.4 735.5 1482.2 737.1C1454.1 741.3 1447.7 771.7 1442 795.9C1436 795.3 1429.9 795.1 1424.1 795.9C1404.1 798.9 1388.5 813.9 1388.5 832.5C1388.5 849.8 1401.9 861.8 1427 858C1441.9 855.8 1453.2 849.6 1461.9 841.3C1473.2 848.7 1487.7 853.6 1508.1 850.6C1536.2 846.4 1552 827.7 1555.6 809C1557.7 820.5 1563.9 827.5 1576 825.7C1586.8 824.1 1594.5 816.6 1599.9 807.7C1604 816.5 1611 820.5 1620.5 819.1C1631.8 817.4 1639.7 809.7 1645.2 800.6C1649.3 809.6 1656.4 813.7 1665.9 812.2C1695.3 807.8 1701.9 763.1 1701.9 757.4C1701.9 754.6 1700.2 753.1 1698.1 753.4ZM1425.5 826.7C1421.2 827.3 1419.3 824.8 1419.3 822.4C1419.3 819.8 1421.7 816.9 1425.7 816.4C1428.7 815.9 1431.9 816.8 1434.9 818.6C1432.6 823.1 1429.6 826 1425.5 826.7ZM1493.7 804.4C1490.5 804.9 1487.1 804.8 1483.5 804.4C1486 797.1 1487.8 789.8 1489.5 782.8C1490.8 782.6 1492.3 782.2 1493.6 782C1501.5 780.8 1507.2 784.3 1507.2 790.5C1507.3 797.8 1501.8 803.2 1493.7 804.4ZM1630 723.1C1631.5 718.2 1633.2 716 1634.5 715.8C1636.2 715.5 1637 717.3 1637 720C1637 727.2 1631.2 742.4 1625.5 751.5C1626.1 741.6 1627.6 730.4 1630 723.1ZM1632.3 776.7C1629.8 777.1 1628.2 775.8 1627.2 773.5C1633 766.9 1638.4 758.7 1643.1 750C1642.1 757.7 1641.5 765 1641.3 771.3C1638.9 773.8 1635.9 776.1 1632.3 776.7ZM1675.5 716.3C1677 711.4 1678.7 709.2 1680 709C1681.7 708.7 1682.5 710.5 1682.5 713.2C1682.5 720.4 1676.7 735.6 1671 744.7C1671.5 734.8 1673 723.6 1675.5 716.3Z" fill="#0171E3"/>
</g>
<defs>
<clipPath id="clip0_643_299">
<rect width="2000" height="2000" fill="white"/>
</clipPath>
</defs>
</svg>
