<svg width="2000" height="2000" viewBox="0 0 2000 2000" fill="none" xmlns="http://www.w3.org/2000/svg">
<g clip-path="url(#clip0_5_1143)">
<mask id="mask0_5_1143" style="mask-type:luminance" maskUnits="userSpaceOnUse" x="0" y="0" width="2000" height="2000">
<path d="M2000 0H0V2000H2000V0Z" fill="white"/>
</mask>
<g mask="url(#mask0_5_1143)">
<path d="M1746.55 675.07L1631.98 691.54C1621.71 709.07 1600.22 717.57 1580.24 710.78C1574.15 708.71 1568.84 705.39 1564.43 701.25L1229.59 749.39L1210.83 818.53C1224.91 833.89 1230.67 855.07 1223.95 874.82C1217.99 892.34 1203.56 904.76 1186.05 909.86L1172.13 961.19L1551.98 1055.49C1560.31 1036.84 1604.59 1039.17 1629.91 1047.78C1650.37 1054.74 1665.89 1068.71 1673.53 1084.78L1756.97 1105.35L1841.6 894.71L1746.54 675.04L1746.55 675.07Z" fill="#FFC600"/>
<path d="M1562.85 1039.53C1562.85 1039.53 1584.41 999.69 1616.21 1011.39C1648.01 1023.09 1655.98 1057.22 1655.1 1061.72L1562.85 1039.54V1039.53Z" fill="#B38300"/>
<path d="M1484 402.95L1467.42 453.64C1467.42 453.64 1485.54 475.22 1513.23 464.4C1535.52 455.69 1555.29 468.8 1555.29 468.8L1569.78 416.21C1569.78 416.21 1561.29 401.93 1530.6 411.44C1494.82 422.53 1484 402.95 1484 402.95Z" fill="#00C2ED"/>
<path d="M1460.86 547.6L1482.53 464.39" stroke="black" stroke-width="18.34" stroke-linecap="round" stroke-linejoin="round"/>
<path d="M1484 402.95L1467.42 453.64C1467.42 453.64 1485.54 475.22 1513.23 464.4C1535.52 455.69 1555.29 468.8 1555.29 468.8L1569.78 416.21C1569.78 416.21 1561.29 401.93 1530.6 411.44C1494.82 422.53 1484 402.95 1484 402.95Z" stroke="black" stroke-width="18.34" stroke-linecap="round" stroke-linejoin="round"/>
<path d="M1375.99 553.93C1369.85 576.17 1370.2 591.34 1370.2 591.34L1546.53 663.03C1546.53 663.03 1527.7 645.76 1541.91 602.74C1555.54 561.45 1582.46 529.18 1582.46 529.18L1404.69 491.98C1404.69 491.98 1390.36 501.84 1375.98 553.93H1375.99Z" fill="url(#paint0_linear_5_1143)"/>
<path d="M1375.99 553.93C1369.85 576.17 1370.2 591.34 1370.2 591.34L1546.53 663.03C1546.53 663.03 1527.7 645.76 1541.91 602.74C1555.54 561.45 1582.46 529.18 1582.46 529.18L1404.69 491.98C1404.69 491.98 1390.36 501.84 1375.98 553.93H1375.99Z" stroke="black" stroke-width="18.34" stroke-linecap="round" stroke-linejoin="round"/>
<path d="M1316.6 586.91C1307.44 624.46 1319.34 644.94 1319.34 644.94L1488.17 700.16C1486.86 696.19 1464.51 674.32 1473.03 634.42C1487.15 568.34 1511.02 572.44 1511.02 572.44L1344.96 543.91C1344.96 543.91 1325.03 552.37 1316.6 586.91Z" fill="url(#paint1_linear_5_1143)"/>
<path d="M1216.01 816.14C1216.01 816.14 1271.83 848.6 1255.94 882.11C1240.05 915.62 1197.23 927.74 1187.4 923.52C1187.4 923.52 1213.75 891.72 1220.65 862.63C1227.55 833.54 1216 816.14 1216 816.14H1216.01Z" fill="#B38300"/>
<path d="M1737.77 686.06L1793.87 881.31C1795.2 887.23 1794.83 893.4 1792.79 899.12L1695.85 1090.27C1695.57 1091.07 1695.35 1091.87 1695.13 1092.67L1750.29 1105.37L1834.92 894.73L1739.86 675.06L1737.24 675.44C1736.84 678.98 1736.98 682.56 1737.77 686.06Z" fill="#D6A200"/>
<path d="M1713.96 913.21L1672.67 915.16C1671.68 915.39 1678.82 913.2 1677.86 913.47C1688.49 916.15 1706.24 921.49 1707.65 935.07C1709.98 957.46 1676.75 962.18 1674.15 963.33L1737.01 953.04C1737.01 953.04 1737.93 942.15 1737.93 942.13L1726.82 918.81C1723.18 916.48 1718.84 914.56 1713.97 913.21H1713.96Z" fill="#B38300"/>
<path d="M1537.04 833.59C1537.04 833.59 1540.63 823.14 1556.46 827.25C1572.29 831.36 1592.31 859.67 1592.31 859.67C1592.31 859.67 1560.95 888.66 1552.1 882.55C1543.25 876.44 1537.04 833.59 1537.04 833.59Z" fill="#B38300"/>
<path d="M1204.8 818.95C1204.8 818.95 1252.11 880.28 1177.58 919.3" stroke="black" stroke-width="18.34" stroke-linecap="round" stroke-linejoin="round"/>
<path d="M1551.38 1048.71C1564.22 1016.19 1597.85 999 1626.5 1010.31C1652.69 1020.65 1665.58 1051.25 1657.78 1081.28L1750.21 1108.51L1835.47 898.02L1610.3 846.61C1610.3 846.61 1573.45 890.99 1552.09 882.56C1531.47 874.42 1537.81 848.72 1531.44 825.83L1222.81 752.54L1204.79 818.96C1210.9 818.6 1217.07 819.48 1223 821.82C1247.41 831.46 1258.33 861.74 1247.39 889.46C1243.29 899.85 1236.69 908.41 1228.76 914.54C1215.55 924.75 1198.63 928.22 1183.37 922.19C1181.33 921.38 1179.42 920.39 1177.58 919.31L1165.36 964.35L1549.11 1055.48C1549.75 1053.22 1550.49 1050.96 1551.38 1048.72V1048.71Z" stroke="black" stroke-width="18.34" stroke-linecap="round" stroke-linejoin="round"/>
<path d="M1695.81 965.81C1720.17 964.708 1739.37 951.533 1738.68 936.382C1737.99 921.232 1717.69 909.844 1693.32 910.946C1668.96 912.048 1649.77 925.223 1650.45 940.373C1651.14 955.524 1671.44 966.912 1695.81 965.81Z" stroke="black" stroke-width="18.34" stroke-linecap="round" stroke-linejoin="round"/>
<path d="M1710.31 768.018C1712.63 757.451 1697.8 745.21 1677.19 740.677C1656.57 736.145 1637.97 741.036 1635.65 751.603C1633.33 762.17 1648.16 774.411 1668.77 778.944C1689.39 783.476 1707.98 778.584 1710.31 768.018Z" fill="#FFC600"/>
<path d="M1550.5 794.02C1550.5 794.02 1597.31 827.4 1591.98 855.16L1609.69 841.22C1609.69 841.22 1567.85 796.64 1556.73 792.86C1545.61 789.08 1550.5 794.02 1550.5 794.02Z" fill="#B38300"/>
<path d="M1702.47 756.5L1684.71 747.71C1684.71 747.71 1677.33 749.93 1677.31 749.93C1678.4 750.39 1696.81 760.27 1686.71 763.87C1674.47 768.23 1654.35 766.14 1653.3 766.49C1652.26 766.84 1636.85 760.1 1636.81 760.13L1646.1 774.09L1682.03 785.91C1685.46 786.08 1688.74 785.97 1691.78 785.61L1708.4 779C1708.4 779 1708.4 779 1708.4 778.99L1710.44 765.57C1708.9 762.42 1706.15 759.33 1702.44 756.5H1702.47Z" fill="#B38300"/>
<path d="M1375.75 925.626C1380.41 915.905 1371.51 901.949 1355.88 894.456C1340.24 886.962 1323.79 888.768 1319.13 898.49C1314.47 908.211 1323.37 922.167 1339 929.66C1354.64 937.154 1371.09 935.348 1375.75 925.626Z" fill="#FFC600"/>
<path d="M1347.48 912.12C1342.16 925.26 1328.13 909.9 1328.43 912.12C1328.74 914.34 1339.56 922.31 1350.2 929.66C1361 931.87 1370.84 929.67 1375.02 923.21C1380.22 915.18 1374.92 903.28 1363.13 894.93L1333.2 898.85C1333.2 898.85 1351.53 902.09 1347.48 912.11V912.12Z" fill="#B38300"/>
<path d="M1375.75 925.626C1380.41 915.905 1371.51 901.949 1355.88 894.456C1340.24 886.962 1323.79 888.768 1319.13 898.49C1314.47 908.211 1323.37 922.167 1339 929.66C1354.64 937.154 1371.09 935.348 1375.75 925.626Z" stroke="black" stroke-width="18.34" stroke-linecap="round" stroke-linejoin="round"/>
<path d="M1710.31 768.018C1712.63 757.451 1697.8 745.21 1677.19 740.677C1656.57 736.145 1637.97 741.036 1635.65 751.603C1633.33 762.17 1648.16 774.411 1668.77 778.944C1689.39 783.476 1707.98 778.584 1710.31 768.018Z" stroke="black" stroke-width="18.34" stroke-linecap="round" stroke-linejoin="round"/>
<path d="M1531.45 825.82C1582.47 813.7 1558.25 876.51 1610.31 846.61" stroke="black" stroke-width="18.34" stroke-linecap="round" stroke-linejoin="round"/>
<path d="M1739.78 678.2L1617.77 695.74C1617.5 696.83 1617.19 697.93 1616.82 699.02C1611.02 716.06 1594.67 725.91 1580.28 721.02C1572.35 718.32 1566.69 711.7 1564.17 703.45L1222.82 752.53L1531.45 825.82C1531.22 825.01 1514.33 781.84 1544.03 787.59C1579.59 794.48 1609.66 821.62 1610.31 846.61L1834.85 897.87L1739.79 678.2H1739.78Z" stroke="black" stroke-width="18.34" stroke-linecap="round" stroke-linejoin="round"/>
<path d="M1399.18 674.35L1388.45 761.19C1389.43 771.02 1413.88 773.96 1416.98 764.62L1439.1 687.14" fill="#47241A"/>
<path d="M1399.18 674.35L1388.45 761.19C1389.43 771.02 1413.88 773.96 1416.98 764.62L1439.1 687.14" stroke="black" stroke-width="18.34" stroke-linecap="round" stroke-linejoin="round"/>
<path d="M1316.6 586.91C1307.44 624.46 1319.34 644.94 1319.34 644.94L1488.17 700.16C1486.86 696.19 1464.51 674.32 1473.03 634.42C1487.15 568.34 1511.02 572.44 1511.02 572.44L1344.96 543.91C1344.96 543.91 1325.03 552.37 1316.6 586.91Z" stroke="black" stroke-width="18.34" stroke-linecap="round" stroke-linejoin="round"/>
<path d="M1370.96 583.25L1424.99 641.75" stroke="black" stroke-width="18.34" stroke-linecap="round" stroke-linejoin="round"/>
<path d="M1436.35 601.89L1359.59 623.11" stroke="black" stroke-width="18.34" stroke-linecap="round" stroke-linejoin="round"/>
<path d="M1700.68 958.36L1700.41 958.48C1700.41 958.48 1700.5 958.44 1700.68 958.36Z" fill="#B38300"/>
<path d="M1551.38 1048.71C1551.38 1048.71 1597.93 1030.8 1655.1 1069.28" stroke="black" stroke-width="18.34" stroke-linecap="round" stroke-linejoin="round"/>
</g>
</g>
<defs>
<linearGradient id="paint0_linear_5_1143" x1="1382.22" y1="533.95" x2="1568.91" y2="597.432" gradientUnits="userSpaceOnUse">
<stop stop-color="#89E7CA"/>
<stop offset="1" stop-color="#FDCC00"/>
</linearGradient>
<linearGradient id="paint1_linear_5_1143" x1="1319.91" y1="576.136" x2="1508.6" y2="640.298" gradientUnits="userSpaceOnUse">
<stop stop-color="#FF49FF"/>
<stop offset="1" stop-color="#D97B00"/>
</linearGradient>
<clipPath id="clip0_5_1143">
<rect width="2000" height="2000" fill="white"/>
</clipPath>
</defs>
</svg>
