<svg width="2000" height="2000" viewBox="0 0 2000 2000" fill="none" xmlns="http://www.w3.org/2000/svg">
<g clip-path="url(#clip0_437_26)">
<mask id="mask0_437_26" style="mask-type:luminance" maskUnits="userSpaceOnUse" x="0" y="0" width="2000" height="2000">
<path d="M2000 0H0V2000H2000V0Z" fill="white"/>
</mask>
<g mask="url(#mask0_437_26)">
<path d="M1158.44 799.06C1147.16 818.14 1170.84 881.28 1191.95 888.02L1534.71 997.46C1555.82 1004.2 1579.86 998.01 1601.78 973.76C1632.02 940.29 1685.92 873.41 1722.66 827.36C1770.99 827.15 1800.3 804.33 1806.96 783.48L1795.78 669.09L1621.18 715.08" fill="url(#paint0_linear_437_26)"/>
<path d="M1803.69 702.38C1829.55 652.23 1750.88 572.14 1585.44 514.5C1440.02 463.84 1322.03 480.45 1286.58 533.76C1278.13 546.47 1275.37 575.95 1295.65 599.31C1257.64 634.74 1173.25 715.37 1148.18 757.75C1136.9 776.83 1153.09 801.44 1174.2 808.18L1516.96 917.62C1538.07 924.36 1562.11 918.17 1584.03 893.92C1614.27 860.45 1667.51 794.39 1704.26 748.34C1752.59 748.13 1793.66 721.82 1803.69 702.37V702.38Z" fill="url(#paint1_linear_437_26)"/>
<path d="M1803.69 702.38C1824.26 662.48 1778.6 603.64 1675.78 552.22C1728.53 600.73 1797.88 650.59 1771.07 686.43C1744.19 722.36 1704.32 725.9 1686.18 725.44C1679.87 725.28 1673.81 727.83 1669.62 732.55C1642.79 762.71 1546.02 870.24 1517.1 884.58C1483.42 901.28 1451.53 896.76 1451.52 896.76L1516.96 917.65C1538.07 924.39 1562.12 918.2 1584.03 893.95C1614.27 860.48 1667.51 794.42 1704.26 748.37C1752.59 748.16 1793.66 721.85 1803.69 702.4V702.38Z" fill="url(#paint2_linear_437_26)"/>
<path d="M1164.07 861.44C1164.07 861.44 1145.9 781.86 1144.84 775.7L1164.07 861.44Z" fill="#FDC489"/>
<path d="M1164.07 861.44C1164.07 861.44 1145.9 781.86 1144.84 775.7" stroke="black" stroke-width="18.34" stroke-linecap="round" stroke-linejoin="round"/>
<path d="M1163.64 860.15C1167.49 872.61 1178.76 883.81 1191.95 888.02L1534.71 997.46C1555.82 1004.2 1579.86 998.01 1601.78 973.76C1632.02 940.29 1685.92 873.41 1722.66 827.36C1770.99 827.15 1800.63 804.43 1806.96 783.48C1813.68 761.24 1808.52 686.43 1808.52 686.43" stroke="black" stroke-width="18.34" stroke-linecap="round" stroke-linejoin="round"/>
<path d="M1669.49 674.5C1688.71 666.4 1693.04 642.48 1678.04 627.62C1654.51 604.32 1608.57 579.67 1552.9 562.78C1485.47 542.32 1425.88 527.85 1397.27 541.26C1387.03 546.06 1381.4 556.68 1382.45 567.66L1383.95 618.97C1385.01 630.1 1392.84 639.83 1403.96 643.84L1574.72 705.38C1582.15 708.06 1590.29 707.88 1597.38 704.9L1669.49 674.51V674.5Z" fill="white" stroke="black" stroke-width="18.34" stroke-linecap="round" stroke-linejoin="round"/>
<path d="M1803.69 702.38C1829.55 652.23 1751.8 569.42 1585.44 514.5C1442.38 467.27 1312.89 487.15 1286.58 533.76C1275.98 552.55 1275.37 575.95 1295.65 599.31C1257.64 634.74 1173.25 715.37 1148.18 757.75C1136.9 776.83 1153.09 801.44 1174.2 808.18L1516.96 917.62C1538.07 924.36 1562.11 918.17 1584.03 893.92C1614.27 860.45 1667.51 794.39 1704.26 748.34C1752.59 748.13 1793.66 721.82 1803.69 702.37V702.38Z" stroke="black" stroke-width="18.34" stroke-linecap="round" stroke-linejoin="round"/>
<path d="M1418.93 569.8C1428.63 569.8 1546.35 576.08 1642.27 644.61" stroke="black" stroke-width="18.34" stroke-linecap="round" stroke-linejoin="round"/>
<path d="M1469.87 660.68L1433.2 564.56" stroke="#FF0402" stroke-width="18.34" stroke-linecap="round" stroke-linejoin="round"/>
<path d="M1669.49 674.5C1688.71 666.4 1693.04 642.48 1678.04 627.62C1654.51 604.32 1608.57 579.67 1552.9 562.78C1485.47 542.32 1425.88 527.85 1397.27 541.26C1387.03 546.06 1381.4 556.68 1382.45 567.66L1383.95 618.97C1385.01 630.1 1392.84 639.83 1403.96 643.84L1574.72 705.38C1582.15 708.06 1590.29 707.88 1597.38 704.9L1669.49 674.51V674.5Z" stroke="black" stroke-width="18.34" stroke-linecap="round" stroke-linejoin="round"/>
<path d="M1678.05 627.62C1654.52 604.32 1608.58 579.67 1552.92 562.78C1485.49 542.32 1425.9 527.85 1397.29 541.26C1393.45 543.06 1390.27 545.67 1387.84 548.81C1418.14 551.7 1508.81 561.84 1557.19 583.67C1615.85 610.14 1680.23 633.03 1660.92 652.35C1646 667.27 1585.01 689.84 1558.01 699.34L1574.74 705.37C1582.17 708.05 1590.31 707.87 1597.4 704.89L1669.51 674.5C1688.73 666.4 1693.06 642.48 1678.06 627.62H1678.05Z" fill="#D6D5D4"/>
<path d="M1669.49 674.5C1688.71 666.4 1693.04 642.48 1678.04 627.62C1654.51 604.32 1608.57 579.67 1552.9 562.78C1485.47 542.32 1425.88 527.85 1397.27 541.26C1387.03 546.06 1381.4 556.68 1382.45 567.66L1383.95 618.97C1385.01 630.1 1392.84 639.83 1403.96 643.84L1574.72 705.38C1582.15 708.06 1590.29 707.88 1597.38 704.9L1669.49 674.51V674.5Z" stroke="black" stroke-width="18.34" stroke-linecap="round" stroke-linejoin="round"/>
</g>
</g>
<defs>
<linearGradient id="paint0_linear_437_26" x1="1155.53" y1="834.55" x2="1806.96" y2="834.55" gradientUnits="userSpaceOnUse">
<stop stop-color="#FFC000"/>
<stop offset="1" stop-color="#CF00B2"/>
</linearGradient>
<linearGradient id="paint1_linear_437_26" x1="1144.49" y1="702.09" x2="1808.52" y2="702.09" gradientUnits="userSpaceOnUse">
<stop stop-color="#FF0085"/>
<stop offset="1" stop-color="#BE00AD"/>
</linearGradient>
<linearGradient id="paint2_linear_437_26" x1="1734.4" y1="822.46" x2="1554.41" y2="718.54" gradientUnits="userSpaceOnUse">
<stop stop-color="#FF0085"/>
<stop offset="1" stop-color="#BE00AD"/>
</linearGradient>
<clipPath id="clip0_437_26">
<rect width="2000" height="2000" fill="white"/>
</clipPath>
</defs>
</svg>
