<svg width="2000" height="2000" viewBox="0 0 2000 2000" fill="none" xmlns="http://www.w3.org/2000/svg">
<g clip-path="url(#clip0_356_152)">
<mask id="mask0_356_152" style="mask-type:luminance" maskUnits="userSpaceOnUse" x="0" y="0" width="2000" height="2000">
<path d="M2000 0H0V2000H2000V0Z" fill="white"/>
</mask>
<g mask="url(#mask0_356_152)">
<path d="M1600.21 848.83C1600.21 848.83 1582.15 777.81 1579.54 714.94C1579.54 714.94 1551.55 698.1 1531.47 708.09C1531.47 708.09 1528.46 771.17 1520.34 783.42C1513.54 793.68 1503.19 739.01 1451.25 718.83C1451.25 718.83 1425.16 732.01 1422.31 754.09C1422.31 754.09 1480.09 778.08 1490.22 811.06C1490.22 811.06 1451.2 822.68 1385.86 781.78L1371.54 827.53C1371.54 827.53 1497.66 891.92 1519.19 883.17L1600.21 848.82V848.83Z" fill="#5CC545"/>
<path d="M1451.25 718.84C1451.25 718.84 1425.16 732.02 1422.31 754.1C1422.31 754.1 1456.5 768.31 1476.89 789.88C1486.22 781.86 1496.2 774.77 1506.78 768.89C1497.18 753.38 1481.08 730.42 1451.25 718.84Z" fill="#41A420"/>
<path d="M1577 749.48C1576.28 741.65 1564.72 726.57 1564.37 718.32C1564.37 718.32 1544.84 706.57 1530.84 713.55C1530.84 713.55 1529.87 733.79 1527.48 749.48C1539.5 744.83 1563.39 749.25 1577 749.48Z" fill="#41A420"/>
<path d="M1464.55 815.57C1452.35 813.4 1432.07 817.28 1411.96 804.7L1401.97 836.62C1401.97 836.62 1419.4 845.52 1440.06 854.85C1445.9 844.11 1456.61 824.65 1464.55 815.57Z" fill="#41A420"/>
<path d="M1601.03 832.2C1601.03 832.2 1571.93 783 1579.54 714.95C1579.54 714.95 1551.55 698.11 1531.47 708.1C1531.47 708.1 1528.46 771.18 1520.34 783.43C1513.54 793.69 1503.19 739.02 1451.25 718.84C1451.25 718.84 1425.16 732.02 1422.31 754.1C1422.31 754.1 1480.09 778.09 1490.22 811.07C1490.22 811.07 1451.2 822.69 1385.86 781.79L1371.54 827.54C1371.54 827.54 1487.48 881.77 1510.54 884.69" stroke="black" stroke-width="18.34" stroke-linecap="round" stroke-linejoin="round"/>
<path d="M1606.8 825.83L1605.12 822.32L1604.03 822.84C1605.31 823.63 1606.28 824.6 1606.8 825.83Z" fill="white"/>
<path d="M1631.54 877.68L1606.8 825.83C1611.27 836.3 1584.38 859.49 1555.85 871.68C1529.81 882.8 1495.69 889.72 1486.52 882.88L1511.39 935C1525.6 964.78 1552.29 982.25 1595.94 968.88L1608.24 963.01C1647.06 941.79 1645.75 907.45 1631.54 877.67V877.68Z" fill="#8D8D8D"/>
<path d="M1624.55 875.61C1596.81 908.29 1555.39 923.5 1511.14 935.06L1512.05 936.96C1526.26 966.75 1552.95 984.21 1596.6 970.84L1608.9 964.97C1647.72 943.75 1638.76 905.4 1624.55 875.61Z" fill="white"/>
<path d="M1510.53 924.45C1510.53 924.45 1583.99 929.14 1626.66 867.45" stroke="black" stroke-width="18.34" stroke-linecap="round" stroke-linejoin="round"/>
<path d="M1602.72 530.81C1601.35 518.39 1598.16 505.9 1592.93 493.74C1565.98 430.97 1495.91 400.79 1436.43 426.33C1401.17 441.47 1377.55 472.8 1369.77 508.88C1348.07 491.5 1318.66 486.09 1292.4 497.37C1268.17 507.77 1252.38 529.91 1248.24 555.04C1235.51 555.07 1222.66 557.57 1210.34 562.86C1158.96 584.92 1136.19 646.76 1159.47 700.98C1170.34 726.3 1189.34 745.48 1211.74 756.48C1211.41 774.41 1214.82 792.85 1222.44 810.59C1249.8 874.31 1320.94 904.95 1381.32 879.02C1427.03 859.39 1453.45 812.98 1451.73 763.94C1457.51 762.65 1463.24 760.85 1468.86 758.43C1488.56 749.97 1504.04 735.64 1514.35 718.16C1540.69 732.43 1572.28 735.16 1601.01 722.82C1652.39 700.76 1675.16 638.92 1651.88 584.7C1641.51 560.56 1623.75 542.02 1602.72 530.8V530.81Z" fill="#077013"/>
<path d="M1457.8 762.37C1441.17 677.12 1358.44 683.35 1358.44 683.35C1358.44 683.35 1280.58 708.68 1232.95 665.2C1204.09 638.86 1196.33 598.86 1194.68 571.4C1154.58 598.26 1138.7 652.64 1159.46 700.98C1170.33 726.3 1189.33 745.48 1211.73 756.48C1211.4 774.41 1214.81 792.85 1222.43 810.59C1249.79 874.31 1320.93 904.95 1381.31 879.02C1427.02 859.39 1453.44 812.98 1451.72 763.94C1453.75 763.49 1455.78 762.94 1457.8 762.36V762.37Z" fill="#055608"/>
<path d="M1506.79 736.65C1505.26 736.79 1503.67 736.48 1502.23 735.66C1498.48 733.53 1491.76 739.01 1499.29 725.01C1513.74 698.14 1500.98 681.96 1500.3 681.19C1497.45 677.98 1497.06 669.92 1500.25 667.05C1503.45 664.18 1508.34 664.41 1511.23 667.58C1519.64 676.82 1527.98 706.12 1512.87 732.72C1511.55 735.03 1509.24 736.42 1506.78 736.64L1506.79 736.65Z" fill="#055608"/>
<path d="M1214.52 754.62C1214.52 754.62 1277.23 730.54 1320 771.18" stroke="black" stroke-width="18.34" stroke-linecap="round" stroke-linejoin="round"/>
<path d="M1506.43 672.75C1506.43 672.75 1526.94 695.28 1510.64 723.98" stroke="black" stroke-width="18.34" stroke-linecap="round" stroke-linejoin="round"/>
<path d="M1447.63 570.23C1422.63 572.5 1401.9 568.56 1385.72 558.42C1360.93 542.89 1355.89 510.19 1355.72 509.16C1355.02 504.9 1357.89 500.88 1362.15 500.18C1366.4 499.5 1370.4 502.34 1371.12 506.57C1371.28 507.44 1375.48 533.73 1394.29 545.36C1414.85 558.06 1445.43 558.55 1485.17 546.8C1489.31 545.59 1497.78 544.77 1499 548.9C1500.22 553.04 1493.73 560.56 1489.6 561.78C1474.5 566.24 1460.49 569.06 1447.62 570.23H1447.63Z" fill="#055608"/>
<path d="M1451.73 763.95C1450.61 748.38 1447.95 687.46 1365.17 681.26" stroke="black" stroke-width="18.34" stroke-linecap="round" stroke-linejoin="round"/>
<path d="M1562.04 630.17C1558.66 630.48 1552.41 623.5 1551.11 620.19C1524.72 552.41 1594.34 521.89 1595.05 521.59C1599.01 519.9 1606.55 526.79 1608.24 530.76C1609.93 534.72 1608.08 539.31 1604.12 541C1601.81 541.99 1547.75 565.98 1568.61 619.55C1570.18 623.57 1568.19 628.1 1564.17 629.67C1563.47 629.94 1562.75 630.11 1562.04 630.17Z" fill="#055608"/>
<path d="M1368.89 511.04C1368.89 511.04 1380.63 582.04 1492.1 549.1" stroke="black" stroke-width="18.34" stroke-linecap="round" stroke-linejoin="round"/>
<path d="M1603.6 533.59C1603.6 533.59 1539.93 560.66 1563.88 622.16" stroke="black" stroke-width="18.34" stroke-linecap="round" stroke-linejoin="round"/>
<path d="M1234.57 556.92C1233.89 558.2 1268.92 628.68 1326.98 612.22C1326.98 612.22 1253.35 611.34 1248.24 555.05L1234.57 556.92Z" fill="#055608"/>
<path d="M1248.48 555.97C1248.48 555.97 1262.84 599.11 1321.01 609.44" stroke="black" stroke-width="18.34" stroke-linecap="round" stroke-linejoin="round"/>
<path d="M1602.72 530.81C1601.35 518.39 1598.16 505.9 1592.93 493.74C1565.98 430.97 1495.91 400.79 1436.43 426.33C1401.17 441.47 1377.55 472.8 1369.77 508.88C1348.07 491.5 1318.66 486.09 1292.4 497.37C1268.17 507.77 1252.38 529.91 1248.24 555.04C1235.51 555.07 1222.66 557.57 1210.34 562.86C1158.96 584.92 1136.19 646.76 1159.47 700.98C1170.34 726.3 1189.34 745.48 1211.74 756.48C1211.41 774.41 1214.82 792.85 1222.44 810.59C1249.8 874.31 1320.94 904.95 1381.32 879.02C1427.03 859.39 1453.45 812.98 1451.73 763.94C1457.51 762.65 1463.24 760.85 1468.86 758.43C1488.56 749.97 1504.04 735.64 1514.35 718.16C1540.69 732.43 1572.28 735.16 1601.01 722.82C1652.39 700.76 1675.16 638.92 1651.88 584.7C1641.51 560.56 1623.75 542.02 1602.72 530.8V530.81Z" stroke="black" stroke-width="18.34" stroke-linecap="round" stroke-linejoin="round"/>
<path d="M1606.8 825.83L1605.12 822.32L1604.03 822.84C1605.31 823.63 1606.28 824.6 1606.8 825.83Z" stroke="black" stroke-width="18.34" stroke-linecap="round" stroke-linejoin="round"/>
<path d="M1631.54 877.68L1606.8 825.83C1611.27 836.3 1584.38 859.49 1555.85 871.68C1529.81 882.8 1495.69 889.72 1486.52 882.88L1511.39 935C1525.6 964.78 1552.29 982.25 1595.94 968.88L1608.24 963.01C1647.06 941.79 1645.75 907.45 1631.54 877.67V877.68Z" stroke="black" stroke-width="18.34" stroke-linecap="round" stroke-linejoin="round"/>
</g>
</g>
<defs>
<clipPath id="clip0_356_152">
<rect width="2000" height="2000" fill="white"/>
</clipPath>
</defs>
</svg>
