<svg width="2000" height="2000" viewBox="0 0 2000 2000" fill="none" xmlns="http://www.w3.org/2000/svg">
<g clip-path="url(#clip0_7_1412)">
<mask id="mask0_7_1412" style="mask-type:luminance" maskUnits="userSpaceOnUse" x="0" y="0" width="2000" height="2000">
<path d="M2000 0H0V2000H2000V0Z" fill="white"/>
</mask>
<g mask="url(#mask0_7_1412)">
<path d="M1470.26 667.61C1472.31 674.53 1406.99 641.31 1336.79 470.07C1321.38 432.47 1238.84 487.28 1275.69 535.03C1264.28 552.07 1264.21 583.48 1299.18 611.73C1296.23 634.87 1295.01 667.04 1391.25 688.77" fill="#F2F2F2"/>
<path d="M1275.69 535.02C1275.69 535.02 1284.67 554.32 1318.08 566.62L1275.69 535.02Z" fill="#F2F2F2"/>
<path d="M1299.18 611.72C1299.18 611.72 1305.26 620.26 1331.89 626.13L1299.18 611.72Z" fill="#F2F2F2"/>
<path d="M1671.29 711.45C1641 728.99 1629.69 739.58 1653.1 746.26C1686.8 755.87 1702.89 742.3 1671.29 711.45Z" fill="#468A2C"/>
<path d="M1389.94 570.03C1384.37 637 1378.07 645.92 1389.91 692.88C1393.35 693.75 1398.55 698.21 1402.28 699.05L1479.17 678.46C1468.56 675.09 1444.73 688.21 1389.95 570.02L1389.94 570.03Z" fill="#BDBDBD"/>
<path d="M1470.26 667.61C1472.31 674.53 1406.99 641.31 1336.79 470.07C1321.38 432.47 1238.84 487.28 1275.69 535.03C1264.28 552.07 1264.21 583.48 1299.18 611.73C1296.23 634.87 1295.01 667.04 1391.25 688.77" stroke="black" stroke-width="18.34" stroke-miterlimit="10"/>
<path d="M1275.69 535.02C1275.69 535.02 1284.67 554.32 1318.08 566.62" stroke="black" stroke-width="18.34" stroke-linecap="round" stroke-linejoin="round"/>
<path d="M1299.18 611.72C1299.18 611.72 1305.26 620.26 1331.89 626.13" stroke="black" stroke-width="18.34" stroke-linecap="round" stroke-linejoin="round"/>
<path d="M1609.53 516.89C1609.53 516.89 1459.31 547.38 1438.87 707.49C1417.43 875.42 1318.6 887.95 1318.6 887.95L1521.09 999.99C1521.09 999.99 1626.2 949.85 1617.89 837C1607.14 690.94 1774.05 691.29 1774.05 691.29L1609.53 516.88V516.89Z" fill="#2C5E15" stroke="black" stroke-width="18.34" stroke-linecap="round" stroke-linejoin="round"/>
<path d="M1604.25 469.71C1604.25 469.71 1441.26 498.45 1417.4 659.09C1392.38 827.57 1285.22 838.91 1285.22 838.91L1503.28 954.05C1503.28 954.05 1617.64 904.99 1609.86 791.49C1599.79 644.59 1777.22 624.94 1777.22 624.94L1604.24 469.71H1604.25Z" fill="#468A2C"/>
<path d="M1499.88 926.83C1497.44 926.96 1494.96 926.47 1492.67 925.3L1355.47 848.8C1350.63 846.33 1347.62 841.32 1347.72 835.88C1347.82 830.44 1351.01 825.54 1355.94 823.26C1359.06 821.76 1434.31 784.32 1449.86 649.61C1464.05 526.64 1596.17 503.8 1597.49 503.62C1601.61 503.05 1605.75 504.32 1608.84 507.08L1712.59 601.88C1716.59 605.43 1718.25 610.93 1716.9 616.11C1715.54 621.28 1711.39 625.26 1706.16 626.39C1705.86 626.46 1680.7 640.62 1650.73 659.34C1612.83 683.01 1592.33 736.07 1593.99 773.23C1597.79 858.19 1512.7 918.97 1509.44 922.42C1506.87 925.13 1503.43 926.65 1499.88 926.85V926.83ZM1390.04 834.53L1495.7 894.96C1513.55 873.61 1568.2 834.52 1565.55 775.41C1562.1 698.23 1630.15 631.39 1680.63 613.23L1595.12 532.89C1571.41 537.84 1493.38 568.24 1478.06 652.86C1459.04 757.92 1418.56 811.76 1390.03 834.52L1390.04 834.53Z" fill="#2C5E15"/>
<path d="M1435.58 604.53C1427.81 621.92 1422.42 635.19 1419.14 657.31C1416 678.48 1411.55 697.17 1406.19 713.67L1600.74 830.8L1611.37 784.97C1610.34 760.35 1614.11 745.73 1621.98 727.93C1540.25 688.98 1456.87 624.91 1435.59 604.52L1435.58 604.53Z" fill="#1A4403"/>
<path d="M1604.25 469.71C1604.25 469.71 1441.26 498.45 1417.4 659.09C1392.38 827.57 1285.22 838.91 1285.22 838.91L1503.28 954.05C1503.28 954.05 1617.64 904.99 1609.86 791.49C1599.79 644.59 1777.22 624.94 1777.22 624.94L1604.24 469.71H1604.25Z" stroke="black" stroke-width="18.34" stroke-linecap="round" stroke-linejoin="round"/>
<path d="M1401.54 601.73C1406.39 592.1 1449.93 644.71 1611.81 729.6C1661.9 758.58 1688.53 746.83 1693.63 732.64C1693.63 732.64 1677.32 798.02 1670.95 821.56C1665.03 829.55 1625.96 850.69 1597.21 825.8L1375.81 702.87C1375.81 702.87 1379.89 644.73 1401.53 601.73H1401.54Z" fill="#DF7500"/>
<path d="M1671.4 833.29C1677.77 809.75 1694.08 744.37 1694.08 744.37C1689.62 756.78 1658.88 760.11 1626.29 747.66C1623.82 770.72 1617.81 804.48 1603.35 841.78C1631.32 859.73 1665.87 840.76 1671.4 833.29Z" fill="#A85600"/>
<path d="M1678.89 715.97C1719.79 766.87 1650.88 755.92 1613.6 736.37C1489.93 662.79 1446.43 628.88 1405.6 599.51C1383.95 642.51 1378 698.07 1378 698.07L1599 832.58C1627.75 857.47 1666.82 836.33 1672.74 828.34L1690.38 745.62" stroke="black" stroke-width="18.34" stroke-linecap="round" stroke-linejoin="round"/>
<path d="M1259.72 951.38L1388.21 865.05" stroke="white" stroke-width="18.34" stroke-linecap="round" stroke-linejoin="round"/>
<path d="M1163.34 1010.03L1226.94 969.33" stroke="white" stroke-width="18.34" stroke-linecap="round" stroke-linejoin="round"/>
<path d="M1234.07 1031.85L1301.82 987.45" stroke="white" stroke-width="18.34" stroke-linecap="round" stroke-linejoin="round"/>
<path d="M1344.22 954.46L1411.97 910.06" stroke="white" stroke-width="18.34" stroke-linecap="round" stroke-linejoin="round"/>
<path d="M1170.2 945.67L1241.5 904" stroke="white" stroke-width="18.34" stroke-linecap="round" stroke-linejoin="round"/>
<path d="M1270.81 889.81C1276.06 889.81 1280.31 885.557 1280.31 880.31C1280.31 875.063 1276.06 870.81 1270.81 870.81C1265.56 870.81 1261.31 875.063 1261.31 880.31C1261.31 885.557 1265.56 889.81 1270.81 889.81Z" fill="white"/>
<path d="M1287.95 1077.42C1293.2 1077.42 1297.45 1073.17 1297.45 1067.92C1297.45 1062.67 1293.2 1058.42 1287.95 1058.42C1282.7 1058.42 1278.45 1062.67 1278.45 1067.92C1278.45 1073.17 1282.7 1077.42 1287.95 1077.42Z" fill="white"/>
<path d="M1317.86 1043.17L1446.35 956.83" stroke="white" stroke-width="18.34" stroke-linecap="round" stroke-linejoin="round"/>
<path d="M1654.64 782.61C1653.94 933.3 1805.78 885.6 1818.84 861.79C1871.47 859.2 1885.54 830.73 1886.37 806.84C1954.16 787.18 1933.4 706.71 1889.04 722.26C1713.36 783.83 1654.64 782.61 1654.64 782.61Z" fill="#F2F2F2"/>
<path d="M1886.37 806.84C1886.37 806.84 1878.16 813.47 1838.92 808.56L1886.37 806.84Z" fill="#F2F2F2"/>
<path d="M1824.77 861.37C1824.77 861.37 1787.68 862.76 1763.35 842.03L1824.77 861.37Z" fill="#F2F2F2"/>
<path d="M1665.68 834.39C1671.9 931.24 1800.21 880.25 1816.53 865.15C1855.55 866.58 1893.68 821.48 1883.98 811.99C1848.24 838.27 1732.94 861.96 1665.68 834.39Z" fill="#BDBDBD"/>
<path d="M1654.64 782.61C1653.94 933.3 1805.78 885.6 1818.84 861.79C1871.47 859.2 1885.54 830.73 1886.37 806.84C1954.16 787.18 1933.4 706.71 1889.04 722.26C1713.36 783.83 1654.64 782.61 1654.64 782.61Z" stroke="black" stroke-width="18.34" stroke-linecap="round" stroke-linejoin="round"/>
<path d="M1886.37 806.84C1886.37 806.84 1878.16 813.47 1838.92 808.56" stroke="black" stroke-width="18.34" stroke-linecap="round" stroke-linejoin="round"/>
<path d="M1824.77 861.37C1824.77 861.37 1787.68 862.76 1763.35 842.03" stroke="black" stroke-width="18.34" stroke-linecap="round" stroke-linejoin="round"/>
<path d="M1480.4 648.31C1480.4 648.31 1472.41 571.78 1596.88 529.59L1684.08 604.58C1684.08 604.58 1597.93 631.66 1582.34 707.55" stroke="black" stroke-width="18.34" stroke-linecap="round" stroke-linejoin="round"/>
<path d="M1561.23 814.42C1548.48 868.59 1486.56 901.7 1486.56 901.7L1377.57 838.9C1377.57 838.9 1454.34 778.61 1448.43 746.26" stroke="black" stroke-width="18.34" stroke-linecap="round" stroke-linejoin="round"/>
<path d="M1580.94 571.78C1578.88 572.49 1577.05 573.63 1575.46 575.18C1579.02 577.93 1583.06 581.16 1587.59 584.86L1590.31 587.04C1593.28 584.4 1595.62 582.47 1597.35 581.26C1599.07 580.05 1601.13 579.23 1603.54 578.8C1605.95 578.38 1608.6 578.82 1611.49 580.13C1615.74 582.06 1618.26 585.54 1619.04 590.58C1619.82 595.62 1618.87 601.45 1616.18 608.08C1619.08 610.48 1620.76 611.93 1621.22 612.46C1622.38 613.68 1623.13 614.83 1623.5 615.92C1623.86 617 1623.75 618.2 1623.15 619.51C1622.63 620.67 1621.97 621.4 1621.2 621.71C1620.42 622.02 1619.15 621.84 1617.37 621.16L1611.61 616.07C1609.13 619.31 1606.47 621.86 1603.64 623.71C1600.81 625.56 1598.18 625.93 1595.77 624.84C1592.88 623.53 1592.16 620.16 1593.61 614.75C1595.25 615.18 1597.04 614.9 1598.97 613.91C1600.91 612.92 1602.68 611.56 1604.29 609.82C1603.86 609.38 1603.38 608.97 1602.85 608.6C1599.82 606.08 1596.19 603.14 1591.95 599.76L1590.75 600.73C1587.52 603.38 1584.4 605.22 1581.4 606.27C1578.39 607.32 1575.16 607.05 1571.69 605.48C1568.17 603.89 1565.73 601.51 1564.34 598.35C1562.96 595.19 1562.39 591.84 1562.63 588.31C1562.87 584.78 1563.56 581.47 1564.71 578.38L1561.65 576.14C1560.84 575.84 1559.73 575.39 1558.31 574.82C1556.89 574.24 1555.79 573.77 1555.01 573.42C1554.4 572.95 1554.11 572.11 1554.16 570.9C1554.2 569.68 1554.42 568.66 1554.8 567.82C1555.37 566.56 1556.35 565.58 1557.74 564.89C1559.14 564.2 1560.47 564.1 1561.76 564.62C1563.38 565.8 1565.78 567.62 1568.97 570.07C1571.24 566.61 1573.7 563.96 1576.37 562.13C1579.04 560.3 1581.79 560.03 1584.62 561.31C1587.51 562.62 1588.23 565.99 1586.78 571.41C1584.96 570.96 1583.02 571.09 1580.95 571.8L1580.94 571.78ZM1580.07 594.94C1581.17 594.61 1582.34 593.97 1583.6 593.03C1580.68 590.69 1577.17 587.96 1573.07 584.84L1571.32 583.47C1570.85 586.05 1571.1 588.31 1572.08 590.27C1573.06 592.23 1574.6 593.69 1576.69 594.64C1577.85 595.16 1578.97 595.26 1580.07 594.94ZM1602.71 591.4C1601.47 591.82 1600.12 592.61 1598.64 593.78L1604.11 598.25L1608.78 601.98C1609.39 599.66 1609.52 597.52 1609.18 595.56C1608.84 593.6 1607.88 592.26 1606.3 591.55C1605.15 591.02 1603.95 590.97 1602.71 591.4Z" fill="black"/>
</g>
</g>
<defs>
<clipPath id="clip0_7_1412">
<rect width="2000" height="2000" fill="white"/>
</clipPath>
</defs>
</svg>
