<svg width="2000" height="2000" viewBox="0 0 2000 2000" fill="none" xmlns="http://www.w3.org/2000/svg">
<g clip-path="url(#clip0_429_71)">
<mask id="mask0_429_71" style="mask-type:luminance" maskUnits="userSpaceOnUse" x="0" y="0" width="2000" height="2000">
<path d="M2000 0H0V2000H2000V0Z" fill="white"/>
</mask>
<g mask="url(#mask0_429_71)">
<path d="M1657.39 870.67L1696.71 968.02C1705.52 989.83 1729.8 1001.95 1752.04 994.28C1768.38 988.64 1778.11 973.84 1755.86 937.91C1744.15 919 1747.3 908.49 1758.62 903.37C1778.58 894.34 1779.49 866.6 1759.53 857.57L1698.22 829.84" fill="url(#paint0_linear_429_71)"/>
<path d="M1657.39 870.67L1696.71 968.02C1705.52 989.83 1729.8 1001.95 1752.04 994.28C1768.38 988.64 1778.11 973.84 1755.86 937.91C1744.15 919 1747.3 908.49 1758.62 903.37C1778.58 894.34 1779.49 866.6 1759.53 857.57L1698.22 829.84" stroke="black" stroke-width="18.34" stroke-linecap="round" stroke-linejoin="round"/>
<path d="M1466.23 420.205C1406.04 360.01 1308.44 360.008 1248.25 420.201C1188.05 480.395 1188.06 577.989 1248.25 638.185L1489.15 879.082C1549.34 939.277 1646.94 939.279 1707.13 879.085C1767.33 818.892 1767.32 721.298 1707.13 661.102L1466.23 420.205Z" fill="white" stroke="black" stroke-width="18.34" stroke-linecap="round" stroke-linejoin="round"/>
<path d="M1562.37 607.25C1540.51 640.04 1443.83 737.37 1384.32 766.52C1412.03 801.96 1524.7 962.85 1637.55 915.91C1697.67 891.62 1775.47 848.57 1746.32 724.09C1711.93 635.26 1598.44 552.41 1598.44 552.41C1598.44 552.41 1591.19 554.01 1579.39 576.56C1567.21 603.92 1562.38 607.25 1562.38 607.25H1562.37Z" fill="url(#paint1_linear_429_71)"/>
<path d="M1466.23 420.205C1406.04 360.01 1308.44 360.008 1248.25 420.201C1188.05 480.395 1188.06 577.989 1248.25 638.185L1489.15 879.082C1549.34 939.277 1646.94 939.279 1707.13 879.085C1767.33 818.892 1767.32 721.298 1707.13 661.102L1466.23 420.205Z" stroke="black" stroke-width="18.34" stroke-linecap="round" stroke-linejoin="round"/>
<path d="M1581.95 535.93C1599.54 553.52 1565 616.57 1504.81 676.77C1444.62 736.96 1381.56 771.5 1363.97 753.91" fill="white"/>
<path d="M1581.95 535.93C1599.54 553.52 1565 616.57 1504.81 676.77C1444.62 736.96 1381.56 771.5 1363.97 753.91" stroke="black" stroke-width="18.34" stroke-linecap="round" stroke-linejoin="round"/>
<path d="M1256.66 469.94L1159.31 430.62C1137.5 421.81 1125.38 397.53 1133.05 375.29C1138.69 358.95 1153.49 349.22 1189.42 371.47C1208.33 383.18 1218.84 380.03 1223.96 368.71C1232.99 348.75 1260.73 347.84 1269.76 367.8L1297.49 429.11" fill="white"/>
<path d="M1256.66 469.94L1159.31 430.62C1137.5 421.81 1125.38 397.53 1133.05 375.29C1138.69 358.95 1153.49 349.22 1189.42 371.47C1208.33 383.18 1218.84 380.03 1223.96 368.71C1232.99 348.75 1260.73 347.84 1269.76 367.8L1297.49 429.11" stroke="black" stroke-width="18.34" stroke-linecap="round" stroke-linejoin="round"/>
</g>
</g>
<defs>
<linearGradient id="paint0_linear_429_71" x1="1657.39" y1="913.22" x2="1774.04" y2="913.22" gradientUnits="userSpaceOnUse">
<stop stop-color="#68EBCB"/>
<stop offset="1" stop-color="#FFCB00"/>
</linearGradient>
<linearGradient id="paint1_linear_429_71" x1="1384.32" y1="738.42" x2="1752.64" y2="738.42" gradientUnits="userSpaceOnUse">
<stop stop-color="#68EBCB"/>
<stop offset="1" stop-color="#FFCB00"/>
</linearGradient>
<clipPath id="clip0_429_71">
<rect width="2000" height="2000" fill="white"/>
</clipPath>
</defs>
</svg>
