<svg width="2000" height="2000" viewBox="0 0 2000 2000" fill="none" xmlns="http://www.w3.org/2000/svg">
<g clip-path="url(#clip0_437_2)">
<mask id="mask0_437_2" style="mask-type:luminance" maskUnits="userSpaceOnUse" x="0" y="0" width="2000" height="2000">
<path d="M2000 0H0V2000H2000V0Z" fill="white"/>
</mask>
<g mask="url(#mask0_437_2)">
<path d="M1500.34 647.48C1508.67 695.47 1568.48 620.22 1568.48 620.22C1568.48 620.22 1594.61 542.83 1550.8 497.98C1502.32 448.36 1495.13 438 1495.13 438C1495.13 438 1482.52 544.79 1500.34 647.47V647.48Z" fill="#FF0402"/>
<path d="M1571.55 608.8C1576.89 585.63 1584.31 532.3 1550.79 497.98C1543.78 490.81 1537.67 484.48 1532.28 478.87L1523.52 480.81C1523.52 480.81 1577.19 543.62 1552.88 612.42L1571.55 608.8Z" fill="#CD0201"/>
<path d="M1621.81 912.25L1621.57 728.05C1621.57 712.95 1611.92 710.06 1594.82 716.47C1565.87 727.32 1530.74 741.96 1530.74 744.05C1530.74 747.41 1581.58 992.74 1572.35 993.93" fill="url(#paint0_linear_437_2)"/>
<path d="M1448.44 743.19V936.98C1448.48 943.28 1452.3 959.61 1458.37 963.64L1528.69 1010.34C1546.06 1021.87 1572.37 1011.99 1572.36 993.93L1572.22 757.16" fill="url(#paint1_linear_437_2)"/>
<path d="M1561.55 756.05L1457.87 745.27C1449.3 744.38 1445.43 736.21 1451.11 731L1501.67 684.64C1504.11 682.4 1507.81 681.32 1511.48 681.78L1612.63 694.31C1620.77 695.32 1624.57 702.94 1619.54 708.15L1578.78 750.35C1574.71 754.56 1568.15 756.73 1561.55 756.05Z" fill="url(#paint2_linear_437_2)" stroke="black" stroke-width="18.34" stroke-linecap="round" stroke-linejoin="round"/>
<path d="M1447.96 740.06L1448.91 904.56C1449.07 931.88 1454.2 960.86 1480.47 978.31L1528.68 1010.33C1546.05 1021.86 1572.36 1011.98 1572.35 993.92L1572.21 757.15" stroke="black" stroke-width="18.34" stroke-linecap="round" stroke-linejoin="round"/>
<path d="M1621.72 701.87L1620.62 877.68C1620.24 905.71 1619.39 926.45 1603.29 951.36C1590.24 971.55 1580.17 989.81 1572.33 1000.01" stroke="black" stroke-width="18.34" stroke-linecap="round" stroke-linejoin="round"/>
<path d="M1440.69 690.2L1453.16 738.23C1453.39 739.11 1453.97 739.86 1454.77 740.29L1477.51 752.73C1479.8 753.98 1479.8 757.26 1477.51 758.51L1454.78 770.94C1453.98 771.38 1453.39 772.13 1453.17 773.02L1440.7 822.12C1439.86 825.43 1435.15 825.43 1434.31 822.12L1421.84 773.02C1421.61 772.13 1421.03 771.38 1420.23 770.94L1397.5 758.51C1395.21 757.26 1395.21 753.98 1397.5 752.73L1420.24 740.29C1421.04 739.85 1421.62 739.11 1421.85 738.23L1434.32 690.2C1435.17 686.91 1439.85 686.91 1440.7 690.2H1440.69Z" fill="white"/>
<path d="M1617.72 524L1622.13 540.98C1622.21 541.29 1622.42 541.56 1622.7 541.71L1630.74 546.11C1631.55 546.55 1631.55 547.71 1630.74 548.15L1622.7 552.55C1622.42 552.71 1622.21 552.97 1622.13 553.29L1617.72 570.65C1617.42 571.82 1615.76 571.82 1615.46 570.65L1611.05 553.29C1610.97 552.98 1610.76 552.71 1610.48 552.55L1602.44 548.15C1601.63 547.71 1601.63 546.55 1602.44 546.11L1610.48 541.71C1610.76 541.56 1610.97 541.29 1611.05 540.98L1615.46 524C1615.76 522.84 1617.41 522.84 1617.72 524Z" fill="white"/>
<path d="M1450.57 440.91L1455.58 460.21C1455.67 460.56 1455.91 460.86 1456.23 461.04L1465.37 466.04C1466.29 466.54 1466.29 467.86 1465.37 468.36L1456.24 473.36C1455.92 473.54 1455.68 473.84 1455.59 474.2L1450.58 493.93C1450.24 495.26 1448.35 495.26 1448.01 493.93L1443 474.2C1442.91 473.84 1442.67 473.54 1442.35 473.36L1433.22 468.36C1432.3 467.86 1432.3 466.54 1433.22 466.04L1442.36 461.04C1442.68 460.86 1442.91 460.56 1443.01 460.21L1448.02 440.91C1448.36 439.59 1450.24 439.59 1450.58 440.91H1450.57Z" fill="white"/>
<path d="M1568.47 615.13C1568.47 615.13 1594.6 537.74 1550.79 492.89C1502.31 443.27 1495.12 432.91 1495.12 432.91C1495.12 432.91 1482.51 539.7 1500.33 642.38" stroke="black" stroke-width="18.34" stroke-linecap="round" stroke-linejoin="round"/>
<path d="M1586.35 704.11V586.69C1586.35 585.24 1586.11 583.86 1585.76 582.53C1582.12 592.12 1561.98 599.46 1537.61 599.46C1513.24 599.46 1493.1 592.12 1489.46 582.53C1489.12 583.86 1488.87 585.23 1488.87 586.69V704.11C1488.87 704.73 1488.91 705.34 1488.98 705.94C1488.88 706.46 1488.81 706.98 1488.81 707.51C1488.81 718.57 1510.65 727.54 1537.6 727.54C1564.55 727.54 1586.39 718.57 1586.39 707.51C1586.39 706.98 1586.32 706.45 1586.23 705.93C1586.29 705.33 1586.34 704.73 1586.34 704.11H1586.35Z" fill="url(#paint3_linear_437_2)"/>
<path d="M1552.88 727.03C1572.33 724.4 1586.4 716.89 1586.4 708.02C1586.4 707.49 1586.32 706.96 1586.23 706.44C1586.29 705.84 1586.34 705.24 1586.34 704.62V587.2C1586.34 585.75 1586.11 584.37 1585.76 583.04C1582.92 590.52 1570 596.62 1552.88 598.95V727.03Z" fill="url(#paint4_linear_437_2)"/>
<path d="M1583.86 707.18V589.76C1583.86 588.31 1583.62 586.93 1583.27 585.6C1579.63 595.19 1559.49 602.53 1535.12 602.53C1510.75 602.53 1490.61 595.19 1486.97 585.6C1486.63 586.93 1486.38 588.3 1486.38 589.76V707.18C1486.38 707.8 1486.42 708.41 1486.49 709.01C1486.39 709.53 1486.32 710.05 1486.32 710.58C1486.32 721.64 1508.16 730.61 1535.11 730.61C1562.06 730.61 1583.9 721.64 1583.9 710.58C1583.9 710.05 1583.83 709.52 1583.74 709C1583.8 708.4 1583.85 707.8 1583.85 707.18H1583.86Z" stroke="black" stroke-width="18.34" stroke-linecap="round" stroke-linejoin="round"/>
<path d="M1505.45 391.79C1513.58 409.48 1502.61 422.63 1534.71 465.26C1539.24 471.28 1567.49 508.79 1567.49 508.79C1567.49 508.79 1513.21 494.55 1485.9 534.43C1485.9 534.43 1485.18 523.95 1488.82 480.29C1490.29 462.68 1485.83 414.88 1472.66 397.46C1459.41 379.94 1488.82 355.61 1505.45 391.78V391.79Z" fill="url(#paint5_linear_437_2)"/>
<path d="M1534.71 465.26C1502.61 422.63 1513.59 409.48 1505.45 391.79C1499.84 379.59 1492.78 374.29 1486.39 373.27C1493.4 406.29 1509.56 475.69 1523.53 486.43C1530.76 491.99 1536.35 499.43 1540.49 506.43C1555.77 505.72 1567.49 508.79 1567.49 508.79C1567.49 508.79 1539.24 471.28 1534.71 465.26Z" fill="url(#paint6_linear_437_2)"/>
<path d="M1505.45 391.79C1513.58 409.48 1502.61 422.63 1534.71 465.26C1539.24 471.28 1567.49 508.79 1567.49 508.79C1567.49 508.79 1513.21 494.55 1485.9 534.43C1485.9 534.43 1485.18 523.95 1488.82 480.29C1490.29 462.68 1488.97 422.43 1475.05 405.61C1450.06 375.4 1488.82 355.61 1505.45 391.78V391.79Z" stroke="black" stroke-width="18.34" stroke-linecap="round" stroke-linejoin="round"/>
</g>
</g>
<defs>
<linearGradient id="paint0_linear_437_2" x1="1530.73" y1="853.59" x2="1621.81" y2="853.59" gradientUnits="userSpaceOnUse">
<stop stop-color="#FF0029"/>
<stop offset="1" stop-color="#FDA900"/>
</linearGradient>
<linearGradient id="paint1_linear_437_2" x1="1448.44" y1="879.24" x2="1572.35" y2="879.24" gradientUnits="userSpaceOnUse">
<stop stop-color="#FF0029"/>
<stop offset="1" stop-color="#FDA900"/>
</linearGradient>
<linearGradient id="paint2_linear_437_2" x1="1448.44" y1="718.93" x2="1621.81" y2="718.93" gradientUnits="userSpaceOnUse">
<stop stop-color="#00C2ED"/>
<stop offset="1" stop-color="#311DCB"/>
</linearGradient>
<linearGradient id="paint3_linear_437_2" x1="1488.82" y1="655.04" x2="1586.4" y2="655.04" gradientUnits="userSpaceOnUse">
<stop stop-color="#FF0029"/>
<stop offset="1" stop-color="#FDA900"/>
</linearGradient>
<linearGradient id="paint4_linear_437_2" x1="1552.88" y1="655.04" x2="1586.4" y2="655.04" gradientUnits="userSpaceOnUse">
<stop stop-color="#FF0029"/>
<stop offset="1" stop-color="#FDA900"/>
</linearGradient>
<linearGradient id="paint5_linear_437_2" x1="1469.33" y1="453.75" x2="1567.49" y2="453.75" gradientUnits="userSpaceOnUse">
<stop stop-color="#FFC600"/>
<stop offset="1" stop-color="#00CCB1"/>
</linearGradient>
<linearGradient id="paint6_linear_437_2" x1="1576.14" y1="500.15" x2="1467.83" y2="391.84" gradientUnits="userSpaceOnUse">
<stop stop-color="#FFC600"/>
<stop offset="1" stop-color="#00CCB1"/>
</linearGradient>
<clipPath id="clip0_437_2">
<rect width="2000" height="2000" fill="white"/>
</clipPath>
</defs>
</svg>
