<svg width="2000" height="2000" viewBox="0 0 2000 2000" fill="none" xmlns="http://www.w3.org/2000/svg">
<g clip-path="url(#clip0_169_36)">
<mask id="mask0_169_36" style="mask-type:luminance" maskUnits="userSpaceOnUse" x="0" y="0" width="2000" height="2000">
<path d="M2000 0H0V2000H2000V0Z" fill="white"/>
</mask>
<g mask="url(#mask0_169_36)">
<path d="M1370.66 901.431C1370.66 901.431 1367.2 912.641 1362.58 918.651C1361.04 920.571 1359.45 921.971 1357.77 922.261C1350.94 923.511 1344.78 940.831 1332.37 947.661C1320.01 954.491 1307.59 976.141 1301.39 977.391C1295.18 978.641 1289.03 987.251 1267.23 997.211C1245.39 1007.17 1229.56 987.251 1216.24 987.251C1202.92 987.251 1196.08 963.151 1180.02 948.911C1163.9 934.621 1153.99 906.141 1153.99 889.451C1153.99 872.761 1185.6 861.551 1185.6 854.761C1185.6 847.971 1209.12 838.021 1220.86 826.861C1232.65 815.701 1236.35 815.701 1246.26 803.341C1247.66 801.611 1249.29 800.121 1251.07 798.871C1262.04 791.031 1278.54 791.321 1278.54 791.321C1404.34 793.581 1370.67 901.441 1370.67 901.441L1370.66 901.431Z" fill="#F6F6F6"/>
<path d="M1370.66 901.431C1370.66 901.431 1362.39 916.251 1357.77 922.261C1343.39 853.081 1312.56 815.271 1246.26 803.341C1257.23 795.501 1278.54 791.311 1278.54 791.311C1404.34 793.571 1370.67 901.431 1370.67 901.431H1370.66Z" fill="#FF2C10"/>
<path d="M1278.54 791.321C1278.54 791.321 1256.18 790.941 1246.27 803.331C1236.36 815.721 1232.64 815.721 1220.87 826.871C1209.1 838.021 1185.56 847.931 1185.56 854.741C1185.56 861.551 1153.97 872.701 1153.97 889.431C1153.97 906.161 1163.88 934.651 1179.99 948.891C1196.09 963.141 1202.97 987.231 1216.25 987.231C1229.53 987.231 1245.4 1007.17 1267.2 997.201C1289 987.231 1295.19 978.621 1301.39 977.381C1307.58 976.141 1319.97 954.461 1332.36 947.651C1344.75 940.841 1350.94 923.491 1357.76 922.251C1364.57 921.011 1370.64 901.431 1370.64 901.431C1370.64 901.431 1404.33 793.551 1278.53 791.311L1278.54 791.321Z" stroke="black" stroke-width="18.34" stroke-linecap="round" stroke-linejoin="round"/>
<path d="M1209.45 892.61C1256.22 905.97 1259.67 959.38 1259.67 959.38" stroke="black" stroke-width="18.34" stroke-linecap="round" stroke-linejoin="round"/>
<path d="M1779.09 583.53C1719.63 684.46 1476.16 857.6 1395.43 913.31C1389.95 917.11 1383.31 916.87 1378.3 913.89C1374.11 911.39 1371.04 907.01 1370.65 901.43C1368.44 867.47 1352.61 813.68 1278.52 791.31C1266.06 787.56 1264.47 772.84 1273.57 763.5C1443.87 588.24 1610.76 579.34 1707.74 543.79C1731.65 535.03 1752.14 525.89 1768.64 518.63C1823.1 494.53 1834.07 490.25 1779.08 583.53H1779.09Z" fill="#FF0085"/>
<g style="mix-blend-mode:multiply">
<path d="M1779.09 583.53C1719.63 684.46 1476.16 857.6 1395.43 913.31C1389.95 917.11 1383.31 916.87 1378.3 913.89C1511.51 788.09 1671.95 628.03 1768.65 518.64C1823.11 494.54 1834.08 490.26 1779.09 583.54V583.53Z" fill="#FF0085"/>
</g>
<path d="M1278.54 791.321C1266.08 787.561 1264.49 772.821 1273.56 763.491C1443.88 588.231 1610.76 579.371 1707.74 543.781C1810.43 506.101 1850.7 461.991 1779.1 583.531C1719.62 684.481 1476.17 857.601 1395.43 913.331C1385.35 920.291 1371.42 913.671 1370.63 901.451C1368.44 867.481 1352.63 813.711 1278.52 791.331L1278.54 791.321Z" stroke="black" stroke-width="18.34" stroke-linecap="round" stroke-linejoin="round"/>
<path d="M1341.52 740.11C1437.5 758.94 1437.5 849.87 1437.5 849.87" stroke="black" stroke-width="18.34" stroke-linecap="round" stroke-linejoin="round"/>
<path d="M1466.49 623.321C1466.49 623.321 1516.92 622.601 1545.61 701.501" stroke="black" stroke-width="18.34" stroke-linecap="round" stroke-linejoin="round"/>
<path d="M1520.05 710.041C1520.05 710.041 1548.17 733.151 1545.42 769.821" stroke="black" stroke-width="18.34" stroke-linecap="round" stroke-linejoin="round"/>
<path d="M1565.91 611C1565.91 611 1590.5 621.25 1603.82 655.06" stroke="black" stroke-width="18.34" stroke-linecap="round" stroke-linejoin="round"/>
<path d="M1669.4 590.51C1669.4 590.51 1709.05 595.27 1710.23 665.13" stroke="black" stroke-width="18.34" stroke-linecap="round" stroke-linejoin="round"/>
<path d="M1540.89 736.639C1593.39 708.489 1626.62 668.269 1615.11 646.804C1603.6 625.339 1551.71 630.758 1499.21 658.908C1446.71 687.058 1413.48 727.278 1424.99 748.743C1436.5 770.208 1488.39 764.789 1540.89 736.639Z" fill="#FFC800" stroke="black" stroke-width="18.34" stroke-linecap="round" stroke-linejoin="round"/>
<path d="M1153.54 842.1C1152.17 848.88 1143.75 850.47 1141.76 843.85C1089.77 670.87 1329.74 351.01 1157.41 385.88C960.319 425.77 1071.63 137.88 1034.34 117.78C1028.84 114.82 1030.98 106.49 1037.22 106.49H1419.91C1424.66 106.49 1425.72 111.03 1424.99 115.73C1283.34 1038.08 1246.22 384.56 1153.53 842.11L1153.54 842.1Z" fill="url(#paint0_linear_169_36)"/>
</g>
</g>
<defs>
<linearGradient id="paint0_linear_169_36" x1="1228.19" y1="848.08" x2="1228.19" y2="106.49" gradientUnits="userSpaceOnUse">
<stop stop-color="white" stop-opacity="0.98"/>
<stop offset="0.09" stop-color="white" stop-opacity="0.78"/>
<stop offset="0.17" stop-color="white" stop-opacity="0.59"/>
<stop offset="0.26" stop-color="white" stop-opacity="0.43"/>
<stop offset="0.35" stop-color="white" stop-opacity="0.3"/>
<stop offset="0.45" stop-color="white" stop-opacity="0.19"/>
<stop offset="0.55" stop-color="white" stop-opacity="0.11"/>
<stop offset="0.67" stop-color="white" stop-opacity="0.05"/>
<stop offset="0.8" stop-color="white" stop-opacity="0.01"/>
<stop offset="1" stop-color="white" stop-opacity="0"/>
</linearGradient>
<clipPath id="clip0_169_36">
<rect width="2000" height="2000" fill="white"/>
</clipPath>
</defs>
</svg>
