<svg width="2000" height="2000" viewBox="0 0 2000 2000" fill="none" xmlns="http://www.w3.org/2000/svg">
<g clip-path="url(#clip0_25_21)">
<mask id="mask0_25_21" style="mask-type:luminance" maskUnits="userSpaceOnUse" x="0" y="0" width="2000" height="2000">
<path d="M2000 0H0V2000H2000V0Z" fill="white"/>
</mask>
<g mask="url(#mask0_25_21)">
<path d="M1660.98 698.66C1660.14 698.59 1659.3 698.58 1658.46 698.53C1635 642.57 1604.82 562.28 1540.16 557.2C1464.55 551.26 1373.82 635.66 1347.94 703.02C1259.64 700.8 1184.06 768.09 1177.07 857.2C1169.84 949.33 1238.66 1029.88 1330.79 1037.11C1403.6 1042.83 1469.14 1001.02 1497.01 937.77C1521.98 989.77 1573.15 1027.46 1634.8 1032.3C1726.93 1039.53 1807.48 970.71 1814.71 878.58C1821.94 786.45 1753.12 705.9 1660.99 698.67L1660.98 698.66Z" fill="#31AEFF"/>
<path d="M1356.71 747.18C1365.05 746.68 1369.64 736.52 1371.69 728.42C1388.8 660.8 1452.16 601 1486.94 572.37C1426.29 595.13 1367.41 657.44 1347.38 709.57C1259.08 707.35 1183.5 774.64 1176.51 863.75C1171.96 921.68 1197.5 975.01 1239.98 1008.44L1250.85 1008.62C1126.85 797.08 1308.47 750.07 1356.72 747.18H1356.71Z" fill="#0282C4"/>
<path d="M1796.44 948C1806.15 928.97 1812.37 907.76 1814.14 885.13C1815.5 867.86 1814.18 850.99 1810.54 834.94C1801.02 806.72 1782.2 775.36 1751.08 740.74C1748.32 738.56 1745.47 736.49 1742.58 734.48C1764.58 775.37 1874.98 950.09 1623.62 1036.99C1623.62 1037.24 1623.72 1037.46 1623.83 1037.67C1627.27 1038.16 1630.73 1038.57 1634.23 1038.84C1635.57 1038.94 1636.89 1038.98 1638.22 1039.05C1672.12 1035.02 1756.31 1006.05 1796.44 947.99V948Z" fill="#0282C4"/>
<path d="M1660.98 698.66C1660.14 698.59 1659.3 698.58 1658.46 698.53C1635 642.57 1604.82 562.28 1540.16 557.2C1464.55 551.26 1373.82 635.66 1347.94 703.02C1259.64 700.8 1184.06 768.09 1177.07 857.2C1169.84 949.33 1238.66 1029.88 1330.79 1037.11C1403.6 1042.83 1469.14 1001.02 1497.01 937.77C1521.98 989.77 1573.15 1027.46 1634.8 1032.3C1726.93 1039.53 1807.48 970.71 1814.71 878.58C1821.94 786.45 1753.12 705.9 1660.99 698.67L1660.98 698.66Z" stroke="black" stroke-width="18.34" stroke-linecap="round" stroke-linejoin="round"/>
<path d="M1454.03 500.51L1858.3 269.31L1557.69 591.75L1826.18 454.45L1531.85 756.41L1815.3 621.45L1356.56 1160.48L1568.12 798.91L1315.35 885L1525.94 675.04L1399.79 716.17L1568.01 496.49L1454.03 500.51Z" fill="#FFC600"/>
<path d="M1438.7 760.41L1413.85 785.19L1418.92 831.86L1452.22 837.89L1479.81 828.49C1477.88 798.15 1457.22 775.12 1438.7 760.41Z" fill="#FDA100"/>
<path d="M1571.26 835.17C1564.44 866.72 1568.06 887.1 1576.4 900.26L1696.52 759.12C1658.7 755.54 1587.64 759.43 1571.26 835.18V835.17Z" fill="#FDA100"/>
<path d="M1419.7 756.7C1419.7 756.7 1526.26 837.89 1450.34 913.26C1395.76 967.44 1291.17 891.99 1291.17 891.99" fill="#0282C4"/>
<path d="M1454.03 500.51L1858.3 269.31L1557.69 591.75L1826.18 454.45L1531.85 756.41L1815.3 621.45L1356.56 1160.48L1568.12 798.91L1315.35 885L1525.94 675.04L1399.79 716.17L1568.01 496.49L1454.03 500.51Z" stroke="black" stroke-width="18.34" stroke-linecap="round" stroke-linejoin="round"/>
<path d="M1662.34 962.21C1662.34 962.21 1546.66 945.21 1591.45 843.03C1629.94 755.21 1698.63 800.51 1698.63 800.51" fill="#0282C4"/>
<path d="M1416.73 755.41C1416.73 755.41 1511.51 828.18 1441.68 898.77C1391.48 949.51 1298.38 881.98 1298.38 881.98" fill="#31AEFF"/>
<path d="M1416.73 755.41C1416.73 755.41 1511.51 828.18 1441.68 898.77C1391.48 949.51 1298.38 881.98 1298.38 881.98" stroke="black" stroke-width="18.34" stroke-linecap="round" stroke-linejoin="round"/>
<path d="M1663.9 951.84C1663.9 951.84 1548.62 923.06 1589.71 827.89C1627.71 739.86 1736.02 790.97 1736.02 790.97" fill="#31AEFF"/>
<path d="M1663.9 951.84C1663.9 951.84 1548.62 923.06 1589.71 827.89C1627.71 739.86 1736.02 790.97 1736.02 790.97" stroke="black" stroke-width="18.34" stroke-linecap="round" stroke-linejoin="round"/>
</g>
</g>
<defs>
<clipPath id="clip0_25_21">
<rect width="2000" height="2000" fill="white"/>
</clipPath>
</defs>
</svg>
