<svg width="2000" height="2000" viewBox="0 0 2000 2000" fill="none" xmlns="http://www.w3.org/2000/svg">
<g clip-path="url(#clip0_28_908)">
<mask id="mask0_28_908" style="mask-type:luminance" maskUnits="userSpaceOnUse" x="0" y="0" width="2000" height="2000">
<path d="M2000 0H0V2000H2000V0Z" fill="white"/>
</mask>
<g mask="url(#mask0_28_908)">
<path d="M1815.49 975.76C1845.85 975.76 1870.47 951.144 1870.47 920.78C1870.47 890.415 1845.85 865.8 1815.49 865.8C1785.13 865.8 1760.51 890.415 1760.51 920.78C1760.51 951.144 1785.13 975.76 1815.49 975.76Z" fill="#6CEAFD" stroke="black" stroke-width="18.34" stroke-linecap="round" stroke-linejoin="round"/>
<path d="M1742.21 862.92C1704.94 937.62 1697.67 947.34 1697.67 947.34C1697.67 947.34 1727.72 968.69 1721.19 978.08C1714.66 987.47 1684.25 1015.39 1671.88 1018.4C1659.52 1021.41 1658.31 993.89 1636.77 999.4C1629.18 1001.34 1601.29 1013.78 1563.06 1022.88C1493.28 1039.57 1389.05 1045.3 1310.98 956.47C1231.44 854.99 1235.55 776.22 1241.71 726.69C1219.33 721.7 1194.24 713.85 1214.71 665.97C1235.18 618.09 1255.54 670.85 1278.33 654.96C1301.15 639.07 1323.2 540.49 1491.74 523.43C1491.74 523.43 1492.66 522.92 1494.16 522C1497.09 520.2 1502.34 516.86 1507.37 512.75C1516.32 515.94 1526.08 518.88 1536.57 521.48C1574.87 530.98 1603.71 538.54 1624.62 544.19C1627.3 548.08 1630.38 551.71 1633.83 555.01C1648.84 569.43 1667.58 583.88 1680.31 594.82C1701.52 613.02 1789.64 700.63 1742.2 862.9L1742.21 862.92Z" fill="#B1B3D5"/>
<path d="M1742.21 862.92C1704.94 937.62 1697.67 947.34 1697.67 947.34C1697.67 947.34 1727.72 968.69 1721.19 978.08C1714.66 987.47 1684.25 1015.39 1671.88 1018.4C1659.52 1021.41 1658.31 993.89 1636.77 999.4C1629.18 1001.34 1601.29 1013.78 1563.06 1022.88C1543.31 949.75 1679.51 928.12 1660.28 854.48C1661.78 854.66 1663.36 854.77 1664.94 854.77C1685.96 854.77 1702.99 837.05 1702.99 815.18C1702.99 794.49 1687.73 777.54 1668.28 775.81C1598.84 703.62 1695.9 610.11 1494.16 522C1497.09 520.2 1502.34 516.86 1507.37 512.75C1516.32 515.94 1526.08 518.88 1536.57 521.48C1574.87 530.98 1603.71 538.54 1624.62 544.19C1627.3 548.08 1630.38 551.71 1633.83 555.01C1648.84 569.43 1667.58 583.88 1680.31 594.82C1701.52 613.02 1789.64 700.63 1742.2 862.9L1742.21 862.92Z" fill="#8E8BBC"/>
<path d="M1408.21 637.65C1380.58 652.82 1363.12 702.51 1400.24 686.2C1437.36 669.89 1454.28 612.36 1408.21 637.65Z" fill="#8E8BBC"/>
<path d="M1218.3 664.54C1206.25 693.67 1223.76 743.35 1242.49 707.38C1261.22 671.42 1238.39 615.98 1218.3 664.54Z" fill="#8E8BBC"/>
<path d="M1702.99 815.19C1702.99 837.06 1685.97 854.78 1664.94 854.78C1663.36 854.78 1661.79 854.67 1660.28 854.49C1641.46 852.11 1626.86 835.41 1626.86 815.2C1626.86 793.33 1643.92 775.65 1664.94 775.65C1666.08 775.65 1667.18 775.69 1668.28 775.83C1687.72 777.55 1702.99 794.5 1702.99 815.2V815.19Z" fill="#8E8BBC"/>
<path d="M1624.63 544.22C1603.72 538.57 1574.88 531.01 1536.58 521.51C1526.09 518.91 1516.33 515.97 1507.38 512.78C1513.07 508.19 1518.5 502.65 1519.96 497.52C1523.37 485.52 1519.37 474.3 1564.5 486.92C1599.94 496.83 1612.12 498.11 1613.11 512.38C1613.88 523.9 1618.06 534.83 1624.63 544.23V544.22Z" fill="#B1B3D5"/>
<path d="M1624.63 544.22C1603.72 538.57 1574.88 531.01 1536.58 521.51C1526.09 518.91 1516.33 515.97 1507.38 512.78C1513.07 508.19 1518.5 502.65 1519.96 497.52C1523.37 485.52 1519.37 474.3 1564.5 486.92C1599.94 496.83 1612.12 498.11 1613.11 512.38C1613.88 523.9 1618.06 534.83 1624.63 544.23V544.22Z" fill="#8E8BBC"/>
<path d="M1436.64 976.13C1449.69 976.13 1460.27 965.551 1460.27 952.5C1460.27 939.45 1449.69 928.87 1436.64 928.87C1423.59 928.87 1413.01 939.45 1413.01 952.5C1413.01 965.551 1423.59 976.13 1436.64 976.13Z" fill="#8E8BBC"/>
<path d="M1522.42 911.59L1606.36 922.1C1606.36 922.1 1551.54 961.24 1522.42 916.85" fill="#8E8BBC"/>
<path d="M1320.83 598.39C1304.06 614.8 1289.83 633.69 1278.35 654.97" stroke="black" stroke-width="18.34" stroke-miterlimit="10"/>
<path d="M1360.7 566.96C1400.41 541.88 1449.33 526.63 1506.09 522.03C1543.35 519.03 1583.83 528.85 1621.32 548.69C1666.37 572.5 1707.09 610.8 1732.7 658.63" stroke="black" stroke-width="18.34" stroke-miterlimit="10"/>
<path d="M1752.21 707.22C1762.49 744.18 1763.86 784.97 1752.73 827.93C1749.52 840.34 1746 851.98 1742.2 862.91" stroke="black" stroke-width="18.34" stroke-miterlimit="10"/>
<path d="M1710.71 929.05C1708.86 932 1706.94 934.85 1704.96 937.6C1685.28 965.52 1662.24 985.29 1636.81 999.41H1636.78C1591.1 1024.81 1537.77 1031.95 1482.59 1035.51C1381.05 1042.06 1265.69 947.48 1246.95 825.33" stroke="black" stroke-width="18.34" stroke-miterlimit="10"/>
<path d="M1247.02 754.64C1248.05 746.94 1249.33 739.45 1250.83 732.1C1250.89 731.82 1250.93 731.54 1251 731.26" stroke="black" stroke-width="18.34" stroke-miterlimit="10"/>
<path d="M1246.04 688.142C1250.88 667.323 1246.74 648.571 1236.79 646.257C1226.83 643.943 1214.84 658.944 1210 679.762C1205.16 700.58 1209.3 719.332 1219.26 721.646C1229.21 723.96 1241.2 708.96 1246.04 688.142Z" stroke="black" stroke-width="18.34" stroke-miterlimit="10"/>
<path d="M1420.85 674.362C1436.48 659.794 1443.52 641.923 1436.55 634.447C1429.59 626.971 1411.26 632.721 1395.63 647.289C1379.99 661.857 1372.95 679.728 1379.92 687.204C1386.88 694.68 1405.21 688.931 1420.85 674.362Z" stroke="black" stroke-width="18.34" stroke-miterlimit="10"/>
<path d="M1702.84 689.053C1711.15 683.102 1707.79 664.194 1695.34 646.819C1682.89 629.445 1666.07 620.184 1657.76 626.135C1649.46 632.085 1652.82 650.994 1665.26 668.368C1677.71 685.743 1694.54 695.004 1702.84 689.053Z" stroke="black" stroke-width="18.34" stroke-miterlimit="10"/>
<path d="M1430.86 888.96C1418.24 897.43 1398.69 893.41 1385.24 878.99C1384.12 877.8 1383.09 876.56 1382.13 875.29C1397.99 880.09 1414.26 884.66 1430.86 888.96Z" stroke="black" stroke-width="18.34" stroke-miterlimit="10"/>
<path d="M1506.08 522.03C1506.08 522.03 1521.32 501.32 1523.36 485.53C1525.39 469.74 1610.99 489.45 1616.67 507.3C1616.67 507.3 1607.82 541.01 1621.63 548.91" stroke="black" stroke-width="18.34" stroke-miterlimit="10"/>
<path d="M1704.96 937.61C1704.96 937.61 1705.59 957.4 1718.68 966.47C1731.77 975.54 1690.35 1021.57 1671.88 1018.41C1671.88 1018.41 1654.13 1003.91 1636.78 999.41" stroke="black" stroke-width="18.34" stroke-miterlimit="10"/>
<path d="M1437.23 976.12C1450.39 976.12 1461.06 965.451 1461.06 952.29C1461.06 939.129 1450.39 928.46 1437.23 928.46C1424.07 928.46 1413.4 939.129 1413.4 952.29C1413.4 965.451 1424.07 976.12 1437.23 976.12Z" stroke="black" stroke-width="18.34" stroke-miterlimit="10"/>
<path d="M1664.46 854.76C1685.95 854.76 1703.37 837.339 1703.37 815.85C1703.37 794.361 1685.95 776.94 1664.46 776.94C1642.97 776.94 1625.55 794.361 1625.55 815.85C1625.55 837.339 1642.97 854.76 1664.46 854.76Z" stroke="black" stroke-width="18.34" stroke-miterlimit="10"/>
<path d="M1606.35 922.11C1599.8 927.44 1590.8 932.15 1580.41 935.3C1556.45 942.59 1534.06 938.78 1530.42 926.82C1530.03 925.48 1529.85 924.12 1529.97 922.72C1530.11 919.11 1531.84 915.31 1534.81 911.59C1559.22 915.9 1583.12 919.41 1606.36 922.11H1606.35Z" stroke="black" stroke-width="18.34" stroke-miterlimit="10"/>
<path d="M1236.88 646.33C1236.88 646.33 1260.64 664.9 1295.14 650.84" stroke="black" stroke-width="18.34" stroke-miterlimit="10" stroke-linecap="round"/>
<path d="M1219.34 721.73C1219.34 721.73 1252.02 720.93 1264.11 749.32" stroke="black" stroke-width="18.34" stroke-miterlimit="10" stroke-linecap="round"/>
<path d="M1436.53 634.35C1436.53 634.35 1461.16 673.68 1490.66 650.56" stroke="black" stroke-width="18.34" stroke-miterlimit="10" stroke-linecap="round"/>
<path d="M1379.89 687.12C1379.89 687.12 1396.98 714.36 1386.92 736.73" stroke="black" stroke-width="18.34" stroke-miterlimit="10" stroke-linecap="round"/>
<path d="M1702.85 689.08C1702.85 689.08 1683.13 717.34 1677.24 734.98" stroke="black" stroke-width="18.34" stroke-miterlimit="10" stroke-linecap="round"/>
<path d="M1657.77 626.15C1657.77 626.15 1635.13 641.15 1608.74 634.19" stroke="black" stroke-width="18.34" stroke-miterlimit="10" stroke-linecap="round"/>
<path d="M1272.65 712.57C1272.65 712.57 1304.55 734.21 1286.21 777.2" stroke="black" stroke-width="18.34" stroke-miterlimit="10" stroke-linecap="round"/>
<path d="M1312.76 747.31C1312.76 747.31 1314.96 793.48 1282.86 810.38" stroke="black" stroke-width="18.34" stroke-miterlimit="10" stroke-linecap="round"/>
<path d="M1311.1 873.75C1311.1 873.75 1307.19 928.46 1347.57 947.35" stroke="black" stroke-width="18.34" stroke-miterlimit="10" stroke-linecap="round"/>
<path d="M1571.43 995.87C1594.9 992.82 1617.9 968.55 1617.9 968.55" stroke="black" stroke-width="18.34" stroke-miterlimit="10" stroke-linecap="round"/>
<path d="M1582.27 616.74C1553.79 597.63 1508.66 600.59 1508.66 600.59" stroke="black" stroke-width="18.34" stroke-miterlimit="10" stroke-linecap="round"/>
<path d="M1545.46 575.61C1524.5 564.61 1491.73 571.26 1491.73 571.26" stroke="black" stroke-width="18.34" stroke-miterlimit="10" stroke-linecap="round"/>
<path d="M1612.75 863.73C1613.27 861.37 1614.01 858.95 1615.04 856.5" stroke="black" stroke-width="18.34" stroke-miterlimit="10" stroke-linecap="round"/>
<path d="M1530.42 926.81C1529.97 922.22 1527.22 890.82 1507.25 884.48" stroke="black" stroke-width="18.34" stroke-miterlimit="10" stroke-linecap="round"/>
<path d="M1579 889.21C1579 889.21 1570.28 877.25 1576.77 862.28" stroke="black" stroke-width="18.34" stroke-miterlimit="10" stroke-linecap="round"/>
<path d="M1430.73 663.1C1433.5 663.81 1450.75 691.27 1471.91 685.38" stroke="black" stroke-width="18.34" stroke-miterlimit="10" stroke-linecap="round"/>
<path d="M1678.56 682.66C1678.56 682.66 1666.16 698.33 1663.08 707.79" stroke="black" stroke-width="18.34" stroke-miterlimit="10" stroke-linecap="round"/>
<path d="M1724.29 756.15C1724.78 757.45 1739.44 784.25 1725.93 811.8" stroke="black" stroke-width="18.34" stroke-miterlimit="10" stroke-linecap="round"/>
<path d="M1582.94 718.99C1572.64 732.56 1552.48 754.75 1536.56 750.42" stroke="black" stroke-width="18.34" stroke-miterlimit="10" stroke-linecap="round"/>
<path d="M1611.66 724.37C1601.24 742.55 1580.18 769.96 1564.5 774.35" stroke="black" stroke-width="18.34" stroke-miterlimit="10" stroke-linecap="round"/>
<path d="M1943.59 849.46C1931.19 902.69 1839.32 930.65 1710.7 929.04C1678.05 928.67 1643.05 926.4 1606.36 922.11C1588.24 920.02 1569.71 917.41 1550.89 914.33C1545.57 913.49 1540.21 912.57 1534.82 911.62C1532.36 911.18 1529.87 910.74 1527.41 910.26C1506.61 906.52 1485.51 902.12 1464.2 897.16C1452.94 894.56 1441.82 891.8 1430.89 888.98C1414.27 884.69 1398.02 880.1 1382.17 875.3C1333.01 860.51 1287.52 843.6 1246.94 825.37C1120.11 768.36 1042.04 698.72 1055.06 642.81C1069.66 580 1194.95 552.41 1360.71 566.98C1346.15 576.15 1332.83 586.64 1320.83 598.38C1234.39 599.26 1174.08 618.63 1165.79 654.29C1158.75 684.48 1190.33 720.62 1247.05 754.67C1259.16 761.9 1272.44 769.09 1286.71 776.06C1292.84 779.07 1299.11 782.04 1305.6 784.94C1354.28 806.92 1412.91 826.69 1477.12 841.62C1524.59 852.66 1570.49 859.96 1612.75 863.74C1661.88 868.14 1706.12 867.81 1742.22 862.93C1778.54 858.01 1806.64 848.59 1823.23 834.86C1831.59 828 1837.06 819.96 1839.15 810.9C1843 794.32 1835.22 775.97 1818.02 757.15C1802.94 740.57 1780.49 723.62 1752.24 707.22C1747.54 690.12 1740.9 673.91 1732.72 658.61C1733.82 659.09 1734.88 659.53 1735.95 660C1872.03 718.26 1957.1 791.31 1943.6 849.46H1943.59Z" fill="#FF0000" stroke="black" stroke-width="18.34" stroke-miterlimit="10"/>
<path d="M1943.59 849.46C1931.19 902.69 1839.32 930.65 1710.7 929.04C1678.05 928.67 1643.05 926.4 1606.36 922.11C1588.24 920.02 1569.71 917.41 1550.89 914.33C1723.51 921.23 2096.45 884.33 1735.94 660.01C1872.02 718.27 1957.09 791.32 1943.59 849.47V849.46Z" fill="#CE0000"/>
<path d="M1943.59 849.46C1931.19 902.69 1839.32 930.65 1710.7 929.04C1678.05 928.67 1643.05 926.4 1606.36 922.11C1588.24 920.02 1569.71 917.41 1550.89 914.33C1545.57 913.49 1540.21 912.57 1534.82 911.62C1532.36 911.18 1529.87 910.74 1527.41 910.26C1506.61 906.52 1485.51 902.12 1464.2 897.16C1452.94 894.56 1441.82 891.8 1430.89 888.98C1414.27 884.69 1398.02 880.1 1382.17 875.3C1333.01 860.51 1287.52 843.6 1246.94 825.37C1120.11 768.36 1042.04 698.72 1055.06 642.81C1069.66 580 1194.95 552.41 1360.71 566.98C1346.15 576.15 1332.83 586.64 1320.83 598.38C1234.39 599.26 1174.08 618.63 1165.79 654.29C1158.75 684.48 1190.33 720.62 1247.05 754.67C1259.16 761.9 1272.44 769.09 1286.71 776.06C1292.84 779.07 1299.11 782.04 1305.6 784.94C1354.28 806.92 1412.91 826.69 1477.12 841.62C1524.59 852.66 1570.49 859.96 1612.75 863.74C1661.88 868.14 1706.12 867.81 1742.22 862.93C1778.54 858.01 1806.64 848.59 1823.23 834.86C1831.59 828 1837.06 819.96 1839.15 810.9C1843 794.32 1835.22 775.97 1818.02 757.15C1802.94 740.57 1780.49 723.62 1752.24 707.22C1747.54 690.12 1740.9 673.91 1732.72 658.61C1733.82 659.09 1734.88 659.53 1735.95 660C1872.03 718.26 1957.1 791.31 1943.6 849.46H1943.59Z" stroke="black" stroke-width="18.34" stroke-miterlimit="10"/>
<path d="M1207.14 589.23C1232 589.23 1252.15 569.078 1252.15 544.22C1252.15 519.362 1232 499.21 1207.14 499.21C1182.28 499.21 1162.13 519.362 1162.13 544.22C1162.13 569.078 1182.28 589.23 1207.14 589.23Z" fill="#FF27C4" stroke="black" stroke-width="18.34" stroke-linecap="round" stroke-linejoin="round"/>
<path d="M1390.09 846.18C1406.23 846.18 1419.31 833.098 1419.31 816.96C1419.31 800.822 1406.23 787.74 1390.09 787.74C1373.95 787.74 1360.87 800.822 1360.87 816.96C1360.87 833.098 1373.95 846.18 1390.09 846.18Z" fill="#FF008A" stroke="black" stroke-width="18.34" stroke-linecap="round" stroke-linejoin="round"/>
</g>
</g>
<defs>
<clipPath id="clip0_28_908">
<rect width="2000" height="2000" fill="white"/>
</clipPath>
</defs>
</svg>
