<svg width="2000" height="2000" viewBox="0 0 2000 2000" fill="none" xmlns="http://www.w3.org/2000/svg">
<g clip-path="url(#clip0_437_45)">
<mask id="mask0_437_45" style="mask-type:luminance" maskUnits="userSpaceOnUse" x="0" y="0" width="2000" height="2000">
<path d="M2000 0H0V2000H2000V0Z" fill="white"/>
</mask>
<g mask="url(#mask0_437_45)">
<path d="M1810.47 760.96C1810.47 760.96 1925.83 895.77 1807.28 1053.5C1795.67 1068.94 1753.49 1064.98 1745.65 989.04C1737.81 913.09 1702.2 900.34 1702.2 900.34L1810.48 760.97L1810.47 760.96Z" fill="#FDECF0"/>
<path d="M1840.62 811.71C1835.72 800.56 1830.56 791.01 1825.92 783.29L1757.9 828.61L1702.19 900.32C1702.19 900.32 1721.6 907.31 1734.92 941.53C1787.88 915.15 1821.92 855.2 1840.62 811.7V811.71Z" fill="#C76F11"/>
<path d="M1810.47 769.39C1810.47 769.39 1925.83 904.2 1807.28 1061.93C1795.67 1077.37 1753.49 1073.41 1745.65 997.47C1737.81 921.52 1702.2 908.77 1702.2 908.77L1810.48 769.4L1810.47 769.39Z" stroke="black" stroke-width="18.34" stroke-linecap="round" stroke-linejoin="round"/>
<path d="M1225.72 718.39C1225.72 718.39 1088.01 830.28 1176.29 1006.74C1184.93 1024.02 1227.14 1027.7 1248.5 954.4C1269.86 881.1 1307.19 874.95 1307.19 874.95L1225.72 718.39Z" fill="#FDECF0"/>
<path d="M1307.19 874.94L1225.72 718.38C1225.72 718.38 1206.38 734.09 1186.84 763.03C1200.67 809.03 1225.28 869.22 1266.56 911.27C1286.1 878.43 1307.19 874.94 1307.19 874.94Z" fill="#C76F11"/>
<path d="M1225.72 718.39C1225.72 718.39 1088.01 830.28 1176.29 1006.74C1184.93 1024.02 1227.14 1027.7 1248.5 954.4C1269.86 881.1 1307.19 874.95 1307.19 874.95L1225.72 718.39Z" stroke="black" stroke-width="18.34" stroke-linecap="round" stroke-linejoin="round"/>
<path d="M1689.08 600.13C1689.08 600.13 1850.74 693.28 1833.37 776.76C1815.99 860.24 1692.73 939.03 1660.57 914.85C1628.41 890.67 1557.76 840.11 1557.76 840.11L1689.08 600.13Z" fill="#FDECF0"/>
<path d="M1754.35 645.81C1728.68 624.89 1704.29 609.36 1694.09 603.14L1666.53 641.34L1557.76 840.12C1557.76 840.12 1601.13 871.16 1635.38 896.23C1689.04 824.63 1733.02 708.38 1754.35 645.82V645.81Z" fill="#C76F11"/>
<path d="M1689.08 600.13C1689.08 600.13 1850.74 693.28 1833.37 776.76C1815.99 860.24 1692.73 939.03 1660.57 914.85C1628.41 890.67 1557.76 840.11 1557.76 840.11L1689.08 600.13Z" stroke="black" stroke-width="18.34" stroke-linecap="round" stroke-linejoin="round"/>
<path d="M1375.65 579.92C1375.65 579.92 1199.88 642.51 1201.97 727.74C1204.06 812.98 1311.16 912.64 1347.14 894.63C1383.12 876.63 1461.71 839.59 1461.71 839.59L1375.65 579.91V579.92Z" fill="#FDECF0"/>
<path d="M1459.86 834.02L1375.65 579.92C1375.65 579.92 1348.33 589.65 1315.36 606.66C1324.98 696.01 1344.8 812.24 1385.09 876.09C1413.89 862.21 1445.39 847.3 1457.03 841.8L1459.87 834.01L1459.86 834.02Z" fill="#C76F11"/>
<path d="M1375.65 579.92C1375.65 579.92 1199.88 642.51 1201.97 727.74C1204.06 812.98 1311.16 912.64 1347.14 894.63C1383.12 876.63 1461.71 839.59 1461.71 839.59L1375.65 579.91V579.92Z" stroke="black" stroke-width="18.34" stroke-linecap="round" stroke-linejoin="round"/>
<path d="M1452.42 879.74C1438.6 877.48 1426.77 868.59 1420.75 855.94C1390.24 791.83 1300.99 593.05 1345.77 549.85C1399.34 498.18 1727.35 525.08 1732.32 600.14C1737.95 685.17 1604.46 881.61 1568.7 888.44C1543.37 893.28 1484.55 884.98 1452.41 879.72L1452.42 879.74Z" fill="#FDECF0" stroke="black" stroke-width="18.34" stroke-linecap="round" stroke-linejoin="round"/>
<path d="M1476.49 618.3V659.29C1476.49 659.29 1536.18 632.45 1585.86 670.36L1589.36 627.17C1589.36 627.17 1540.43 586.2 1476.49 618.29V618.3Z" fill="#C76F11" stroke="black" stroke-width="18.34" stroke-linecap="round" stroke-linejoin="round"/>
<path d="M1174.8 830.02C1179.51 839.44 1183.83 848.96 1187.78 858.7C1189.69 863.58 1191.36 868.58 1193.58 873.34C1197.95 882.87 1204.08 891.46 1209.89 900.14C1215.86 908.53 1222.04 916.94 1229.81 923.68C1233.7 926.95 1238.12 929.67 1243.29 930.62L1243.27 930.99C1240.6 931.16 1237.86 930.66 1235.3 929.74C1227.63 926.94 1221.44 921.1 1216.22 915.07C1209.41 906.87 1203.98 897.66 1199.45 888.07C1197.19 883.29 1194.94 878.54 1192.51 873.87C1190.09 869.2 1187.34 864.67 1184.98 859.95C1182.63 855.23 1180.71 850.31 1178.92 845.35C1177.17 840.38 1175.55 835.35 1174.44 830.16L1174.79 830.04L1174.8 830.02Z" fill="#C76F11"/>
<path d="M1771.1 988.24C1777.97 980.25 1785.08 972.6 1792.54 965.19C1796.3 961.54 1800.27 958.07 1803.8 954.19C1810.91 946.48 1816.46 937.51 1822.22 928.79C1827.65 920.04 1833.02 911.1 1836.23 901.32C1837.74 896.47 1838.55 891.34 1837.42 886.2L1837.77 886.08C1838.96 888.48 1839.55 891.2 1839.69 893.91C1840.07 902.06 1837.07 910.03 1833.53 917.18C1828.6 926.63 1822.2 935.19 1815.11 943.08C1811.58 947.01 1808.06 950.92 1804.69 954.97C1801.32 959.01 1798.2 963.3 1794.75 967.29C1791.3 971.28 1787.5 974.95 1783.62 978.52C1779.71 982.06 1775.7 985.49 1771.33 988.52L1771.08 988.25L1771.1 988.24Z" fill="#C76F11"/>
<path d="M1241.76 708.86C1248.35 721.76 1254.46 734.82 1260.19 748.1C1265.52 761.53 1271.23 774.84 1278.73 787.24C1285.22 798.17 1294.31 813.67 1301.4 824C1307.38 832.87 1313.49 841.78 1321.49 848.92C1324.17 851.23 1327.11 853.29 1330.54 854.34L1330.47 854.7C1326.79 854.24 1323.39 852.47 1320.34 850.4C1311.33 844.04 1304.43 835.1 1298.16 826.19C1287.89 811.16 1279.92 794.81 1272.32 778.34C1267.73 768.48 1262.33 759.06 1257.41 749.37C1254.19 742.88 1251.36 736.21 1248.67 729.49C1246.01 722.76 1243.47 715.97 1241.41 708.99L1241.75 708.85L1241.76 708.86Z" fill="#C76F11"/>
<path d="M1670.6 878.58C1680.63 871.08 1700.61 855.92 1710.51 848.28C1717.16 843.25 1723.93 838.31 1730.22 832.81C1742.83 821.88 1753.66 809.01 1763.98 795.97C1774.01 782.82 1783.11 768.84 1789.2 753.43C1792.17 745.74 1794.31 737.69 1795.13 729.36H1795.5C1795.88 737.78 1794.47 746.29 1791.93 754.38C1782.78 782.8 1761.94 805.46 1740.25 825.15C1731.22 833.34 1721.64 842.76 1712.42 850.66C1706.01 856.08 1699.23 861.06 1692.3 865.8C1685.35 870.51 1678.26 875.02 1670.79 878.89L1670.6 878.58Z" fill="#C76F11"/>
<path d="M1403.19 567.41C1407.04 591.97 1414.88 647.15 1418.54 670.84C1420.13 679.32 1421.79 688.04 1423.8 696.45C1435.16 744.41 1448.32 792.14 1461.88 839.54L1461.53 839.66C1460.47 836.95 1459.44 834.23 1458.42 831.51C1456.66 826.91 1454.1 819.85 1452.39 815.12C1443.8 790.4 1436.74 765.06 1430.88 739.56C1425.59 716.89 1421.98 693.87 1417.38 671.06C1416.56 666.82 1414.8 658.19 1413.88 653.96C1410.26 636.87 1407.48 619.62 1405.55 602.27C1404.26 590.7 1403.23 579.1 1402.84 567.45L1403.21 567.42L1403.19 567.41Z" fill="#C76F11"/>
<path d="M1557.6 840.01C1560.16 834.36 1563.34 828.93 1566.59 823.68C1569.75 818.32 1573.98 813.7 1577.45 808.57C1582.08 801.71 1585.29 794.02 1589.35 786.83C1593.75 778.32 1599.84 768.42 1604.27 759.91C1605.16 758.08 1606.1 756.25 1606.42 754.27L1606.79 754.25C1607.21 758.56 1605.41 762.61 1603.99 766.56C1599.33 778.17 1592.63 788.78 1585.33 798.88C1582.88 802.23 1580.54 805.65 1578.45 809.21C1576.34 812.77 1574.63 816.58 1572.59 820.19C1570.55 823.8 1568.18 827.2 1565.76 830.55C1563.31 833.89 1560.77 837.17 1557.89 840.23L1557.59 840.03L1557.6 840.01Z" fill="#C76F11"/>
<path d="M1763.11 768.96C1777.35 768.96 1788.88 757.422 1788.88 743.19C1788.88 728.958 1777.35 717.42 1763.11 717.42C1748.88 717.42 1737.34 728.958 1737.34 743.19C1737.34 757.422 1748.88 768.96 1763.11 768.96Z" fill="#C76F11" stroke="black" stroke-width="18.34" stroke-linecap="round" stroke-linejoin="round"/>
<path d="M1717.91 841.24C1732.14 841.24 1743.68 829.703 1743.68 815.47C1743.68 801.238 1732.14 789.7 1717.91 789.7C1703.68 789.7 1692.14 801.238 1692.14 815.47C1692.14 829.703 1703.68 841.24 1717.91 841.24Z" fill="#C76F11" stroke="black" stroke-width="18.34" stroke-linecap="round" stroke-linejoin="round"/>
<path d="M1336.48 782.17L1328.54 764.23L1350.5 754.52L1332.28 713.33L1310.32 723.04L1302.39 705.1L1267.18 720.68L1275.11 738.62L1255.21 747.42L1273.43 788.61L1293.33 779.8L1301.26 797.75L1336.48 782.17Z" fill="#C76F11" stroke="black" stroke-width="18.34" stroke-linecap="round" stroke-linejoin="round"/>
</g>
</g>
<defs>
<clipPath id="clip0_437_45">
<rect width="2000" height="2000" fill="white"/>
</clipPath>
</defs>
</svg>
