<svg width="2000" height="2000" viewBox="0 0 2000 2000" fill="none" xmlns="http://www.w3.org/2000/svg">
<g clip-path="url(#clip0_2_671)">
<mask id="mask0_2_671" style="mask-type:luminance" maskUnits="userSpaceOnUse" x="0" y="0" width="2000" height="2000">
<path d="M2000 0H0V2000H2000V0Z" fill="white"/>
</mask>
<g mask="url(#mask0_2_671)">
<path d="M1574.78 814.6C1574.78 978.28 1538.83 1030.66 1495.19 1027.85C1452.3 1025.08 1418.08 969.88 1418.08 811.3C1418.08 652.72 1495.19 444.48 1495.19 444.48C1495.19 444.48 1574.78 650.91 1574.78 814.59V814.6Z" fill="#00D7AD" stroke="black" stroke-width="18.34" stroke-linecap="round" stroke-linejoin="round"/>
<path d="M1473.27 1014.49C1588.33 915.43 1334.82 552.59 1264.76 556.87C1264.76 556.87 1346.03 672.3 1351.91 826.67C1357.28 967.51 1473.26 1014.5 1473.26 1014.5L1473.27 1014.49Z" fill="#00D7AD" stroke="black" stroke-width="18.34" stroke-linecap="round" stroke-linejoin="round"/>
<path d="M1749.28 541.25C1749.28 541.25 1653.89 669.95 1647.25 833.91C1641.23 982.79 1517.3 1017.24 1517.3 1017.24C1510.59 1010.67 1505.23 1003.23 1501.08 994.93C1461.75 916.56 1532.37 767.25 1611.51 661.33C1663.24 592.1 1718.57 541.43 1749.27 541.25H1749.28Z" fill="#00D7AD"/>
<path d="M1749.28 541.25C1749.28 541.25 1653.89 669.95 1647.25 833.91C1641.23 982.79 1517.3 1017.24 1517.3 1017.24C1510.59 1010.67 1505.23 1003.23 1501.08 994.93C1516.89 935.68 1558.42 877.46 1574.79 840.77C1587.23 812.89 1591.48 742.45 1611.51 661.33C1663.24 592.1 1718.57 541.43 1749.27 541.25H1749.28Z" fill="#00B7AE"/>
<path d="M1749.28 541.25C1749.28 541.25 1653.89 669.95 1647.25 833.91C1641.23 982.79 1517.3 1017.24 1517.3 1017.24C1510.59 1010.67 1505.23 1003.23 1501.08 994.93C1461.75 916.56 1532.37 767.25 1611.51 661.33C1663.24 592.1 1718.57 541.43 1749.27 541.25H1749.28Z" stroke="black" stroke-width="18.34" stroke-linecap="round" stroke-linejoin="round"/>
<path d="M1529.83 1018.01C1571.01 813.52 1738.46 726.29 1855.91 728.07C1855.91 728.07 1717.18 809.83 1687.7 901.77C1658.55 992.67 1529.83 1018.01 1529.83 1018.01Z" fill="#00D7AD"/>
<path d="M1529.83 1018.01C1571.01 813.52 1738.46 726.29 1855.91 728.07C1855.91 728.07 1717.18 809.83 1687.7 901.77C1658.55 992.67 1529.83 1018.01 1529.83 1018.01Z" fill="#00B7AE"/>
<path d="M1529.83 1018.01C1571.01 813.52 1738.46 726.29 1855.91 728.07C1855.91 728.07 1717.18 809.83 1687.7 901.77C1658.55 992.67 1529.83 1018.01 1529.83 1018.01Z" stroke="black" stroke-width="18.34" stroke-linecap="round" stroke-linejoin="round"/>
<path d="M1461.01 1013.73C1421.61 810.4 1273.69 724.72 1180.38 725.62C1180.38 725.62 1291.47 801.51 1316.57 887.83C1341.94 975.07 1461.01 1013.73 1461.01 1013.73Z" fill="#00D7AD" stroke="black" stroke-width="18.34" stroke-linecap="round" stroke-linejoin="round"/>
<path d="M1263.29 541.78C1263.29 553.92 1253.2 564.07 1240.81 564.45C1228.49 564.83 1218.55 555.39 1218.55 543.36C1218.55 531.33 1228.49 521.19 1240.81 520.69C1253.2 520.19 1263.29 529.63 1263.29 541.77V541.78Z" fill="#FFD899" stroke="black" stroke-width="18.34" stroke-linecap="round" stroke-linejoin="round"/>
<path d="M1181.26 719.6C1181.26 731.53 1171.52 741.13 1159.56 741.05C1147.66 740.97 1138.06 731.32 1138.06 719.5C1138.06 707.68 1147.66 698.08 1159.56 698.05C1171.52 698.02 1181.26 707.67 1181.26 719.6Z" fill="#FFD899" stroke="black" stroke-width="18.34" stroke-linecap="round" stroke-linejoin="round"/>
<path d="M1913.77 721.3C1913.77 735.12 1900.71 746.23 1884.68 746.11C1868.75 746 1855.91 734.83 1855.91 721.16C1855.91 707.49 1868.75 696.38 1884.68 696.35C1900.71 696.31 1913.77 707.48 1913.77 721.3Z" fill="#FFD899" stroke="black" stroke-width="18.34" stroke-linecap="round" stroke-linejoin="round"/>
<path d="M1804.83 522.59C1804.83 536.13 1792.29 547.48 1776.91 547.96C1761.62 548.43 1749.28 537.95 1749.28 524.56C1749.28 511.17 1761.61 499.82 1776.91 499.2C1792.29 498.58 1804.83 509.05 1804.83 522.59Z" fill="#FFD899" stroke="black" stroke-width="18.34" stroke-linecap="round" stroke-linejoin="round"/>
<path d="M1520.17 411.44C1520.17 424.24 1508.95 435.24 1495.18 436C1481.49 436.76 1470.44 427.09 1470.44 414.42C1470.44 401.75 1481.48 390.76 1495.18 389.88C1508.95 388.99 1520.17 398.65 1520.17 411.45V411.44Z" fill="#FFD899" stroke="black" stroke-width="18.34" stroke-linecap="round" stroke-linejoin="round"/>
<path d="M1699.25 991.05C1699.25 1047.13 1614.13 1092.6 1509.13 1092.6C1404.13 1092.6 1319.01 1047.14 1319.01 991.05C1319.01 934.96 1404.13 981.3 1509.13 981.3C1614.13 981.3 1699.25 934.96 1699.25 991.05Z" fill="url(#paint0_linear_2_671)" stroke="black" stroke-width="18.34" stroke-linecap="round" stroke-linejoin="round"/>
</g>
</g>
<defs>
<linearGradient id="paint0_linear_2_671" x1="1319.01" y1="1027.95" x2="1699.25" y2="1027.95" gradientUnits="userSpaceOnUse">
<stop stop-color="#FF0085"/>
<stop offset="1" stop-color="#FF33FF"/>
</linearGradient>
<clipPath id="clip0_2_671">
<rect width="2000" height="2000" fill="white"/>
</clipPath>
</defs>
</svg>
