<svg width="2000" height="2000" viewBox="0 0 2000 2000" fill="none" xmlns="http://www.w3.org/2000/svg">
<g clip-path="url(#clip0_2_1034)">
<mask id="mask0_2_1034" style="mask-type:luminance" maskUnits="userSpaceOnUse" x="0" y="0" width="2000" height="2000">
<path d="M2000 0H0V2000H2000V0Z" fill="white"/>
</mask>
<g mask="url(#mask0_2_1034)">
<path d="M1772.38 536.63L1778.35 559.62C1778.46 560.04 1778.74 560.4 1779.12 560.61L1790 566.56C1791.09 567.16 1791.09 568.73 1790 569.33L1779.12 575.28C1778.74 575.49 1778.46 575.85 1778.35 576.28L1772.38 599.78C1771.98 601.37 1769.72 601.37 1769.32 599.78L1763.35 576.28C1763.24 575.86 1762.96 575.49 1762.58 575.28L1751.7 569.33C1750.61 568.73 1750.61 567.16 1751.7 566.56L1762.58 560.61C1762.96 560.4 1763.24 560.04 1763.35 559.62L1769.32 536.63C1769.73 535.06 1771.96 535.06 1772.37 536.63H1772.38Z" fill="white"/>
<path d="M1228.73 611.45L1376.22 521.68C1377.02 521.19 1377.93 520.92 1378.86 520.89L1608.94 512.16C1610.21 512.11 1611.45 512.5 1612.46 513.27L1754.39 620.91C1755.62 621.84 1756.4 623.26 1756.54 624.8L1770.72 787.1C1770.81 788.14 1770.6 789.18 1770.12 790.11L1626.29 1066.18C1624.8 1069.03 1621.19 1070 1618.48 1068.26L1266.23 843.05C1265.25 842.42 1264.5 841.5 1264.07 840.42L1236.94 770.55C1236.74 770.04 1236.62 769.49 1236.58 768.94L1226.11 616.5C1225.97 614.46 1226.98 612.51 1228.73 611.45Z" fill="url(#paint0_radial_2_1034)"/>
<path d="M1240.93 644.13C1256.69 665.59 1284.89 705.51 1291.65 715.09C1292.6 716.44 1292.88 718.12 1292.43 719.71L1264.65 818.53C1263.17 823.81 1255.71 823.87 1254.13 818.63L1236.02 758.55C1235.89 758.11 1235.81 757.66 1235.79 757.21L1231.05 647.64C1230.82 642.23 1237.72 639.78 1240.92 644.14L1240.93 644.13Z" fill="#1207A0"/>
<path d="M1672.17 706.09L1668.71 850.5C1668.71 850.79 1634.63 994.11 1634.57 994.4L1633.69 999.13C1632.43 1005.91 1642.28 1008.31 1644.32 1001.72C1648.7 987.51 1685.99 834.68 1686.51 834.95C1688.36 835.9 1672.17 706.09 1672.17 706.09Z" fill="#073AB3"/>
<path d="M1762.77 796.52L1699.3 838.01C1695.96 840.19 1691.49 838.19 1690.89 834.25L1672.8 715.07C1672.52 713.24 1673.19 711.39 1674.57 710.16L1743.94 648.35C1747.3 645.35 1752.65 647.47 1753.04 651.96L1765.23 791.46C1765.41 793.47 1764.46 795.42 1762.77 796.52Z" fill="#1207A0"/>
<path d="M1307.6 868.45L1595.22 1041.05L1349.99 865.93C1349.05 865.26 1347.92 864.97 1346.77 864.97C1341.27 864.97 1326.36 861.84 1311.66 858.41C1305.58 856.99 1302.24 865.23 1307.6 868.44V868.45Z" fill="#1207A0"/>
<path d="M1699.09 848.39L1753.64 810.49C1758.46 807.14 1764.46 812.69 1761.49 817.76L1655.83 997.27C1652.56 1002.85 1644.02 999.15 1645.85 992.95L1696.96 851.34C1697.31 850.14 1698.06 849.1 1699.09 848.39Z" fill="#1207A0"/>
<path d="M1289.58 722.02L1265.77 837.02C1265.18 839.87 1266.92 842.68 1269.73 843.42L1483.32 900.24C1484.21 900.48 1485.15 900.49 1486.04 900.26L1682.09 851.86C1684.66 851.23 1686.41 848.85 1686.24 846.21L1677.7 706.08" stroke="black" stroke-width="18.34" stroke-linecap="round" stroke-linejoin="round"/>
<path d="M1756.33 622.46V622.38L1612.46 513.27C1611.45 512.5 1610.21 512.11 1608.94 512.16L1390.83 520.43C1390.42 520.45 1390.02 520.51 1389.63 520.61L1368.92 526.12C1371.32 524.66 1523.77 537.17 1581.06 541.93C1595.12 543.1 1608.67 547.74 1620.49 555.44L1719.14 619.68C1721.63 621.3 1722.37 624.61 1720.81 627.14L1699.31 675.21C1695.91 680.73 1700.29 678.13 1704.89 673.56L1756.32 622.45L1756.33 622.46Z" fill="#1207A0"/>
<path d="M1471.54 747.23L1484.53 898.92C1484.62 900.01 1485.04 901.05 1485.74 901.91L1616.9 1063.32C1619.69 1066.76 1625.2 1065.63 1626.42 1061.37L1686.02 852.57C1686.35 851.4 1687.06 850.38 1688.04 849.66L1770.87 788.68" stroke="black" stroke-width="18.34" stroke-linecap="round" stroke-linejoin="round"/>
<path d="M1292.43 719.71L1230.31 606.72L1385.81 526.72L1278.32 604.18C1264.59 614.08 1259.06 631.85 1264.77 647.79C1275.07 676.51 1290.27 718.1 1292.43 719.72" fill="#1207A0"/>
<path d="M1228.73 611.45L1376.22 521.68C1377.02 521.19 1377.93 520.92 1378.86 520.89L1608.94 512.16C1610.21 512.11 1611.45 512.5 1612.46 513.27L1754.39 620.91C1755.62 621.84 1756.4 623.26 1756.54 624.8L1770.72 787.1C1770.81 788.14 1770.6 789.18 1770.12 790.11L1626.29 1066.18C1624.8 1069.03 1621.19 1070 1618.48 1068.26L1266.23 843.05C1265.25 842.42 1264.5 841.5 1264.07 840.42L1236.94 770.55C1236.74 770.04 1236.62 769.49 1236.58 768.94L1226.11 616.5C1225.97 614.46 1226.98 612.51 1228.73 611.45Z" stroke="black" stroke-width="18.34" stroke-linecap="round" stroke-linejoin="round"/>
<path d="M1225.89 613.18L1288.24 719.72C1289.09 721.17 1290.55 722.15 1292.22 722.38L1470.62 747.11C1471.23 747.19 1471.84 747.18 1472.44 747.06L1675.97 706.44C1677.09 706.22 1678.11 705.65 1678.89 704.82L1756.32 622.39" stroke="black" stroke-width="18.34" stroke-linecap="round" stroke-linejoin="round"/>
<path d="M1309.81 394.73L1328.94 468.42C1329.29 469.77 1330.18 470.92 1331.41 471.59L1366.3 490.67C1369.81 492.59 1369.81 497.62 1366.3 499.54L1331.42 518.62C1330.19 519.29 1329.29 520.45 1328.95 521.81L1309.82 597.15C1308.53 602.23 1301.31 602.23 1300.02 597.15L1280.89 521.81C1280.54 520.45 1279.65 519.29 1278.42 518.62L1243.54 499.54C1240.03 497.62 1240.03 492.59 1243.54 490.67L1278.43 471.59C1279.65 470.92 1280.55 469.77 1280.9 468.42L1300.03 394.73C1301.34 389.68 1308.51 389.68 1309.82 394.73H1309.81Z" fill="white"/>
<path d="M1486.46 960.2L1496.56 999.12C1496.75 999.83 1497.22 1000.44 1497.86 1000.79L1516.29 1010.87C1518.14 1011.88 1518.14 1014.54 1516.29 1015.56L1497.87 1025.64C1497.22 1026 1496.75 1026.61 1496.56 1027.33L1486.46 1067.12C1485.78 1069.8 1481.96 1069.8 1481.28 1067.12L1471.18 1027.33C1471 1026.61 1470.52 1026 1469.87 1025.64L1451.45 1015.56C1449.6 1014.55 1449.6 1011.89 1451.45 1010.87L1469.88 1000.79C1470.53 1000.44 1471 999.83 1471.18 999.12L1481.28 960.2C1481.97 957.53 1485.76 957.53 1486.45 960.2H1486.46Z" fill="white"/>
</g>
</g>
<defs>
<radialGradient id="paint0_radial_2_1034" cx="0" cy="0" r="1" gradientUnits="userSpaceOnUse" gradientTransform="translate(1498.42 790.64) scale(216.95 216.95)">
<stop offset="0.49" stop-color="white" stop-opacity="0"/>
<stop offset="0.54" stop-color="#F4F6FB" stop-opacity="0.04"/>
<stop offset="0.63" stop-color="#D8E0F3" stop-opacity="0.16"/>
<stop offset="0.73" stop-color="#A9BBE4" stop-opacity="0.34"/>
<stop offset="0.85" stop-color="#6988D1" stop-opacity="0.6"/>
<stop offset="0.98" stop-color="#1747B8" stop-opacity="0.93"/>
<stop offset="1" stop-color="#073AB3"/>
</radialGradient>
<clipPath id="clip0_2_1034">
<rect width="2000" height="2000" fill="white"/>
</clipPath>
</defs>
</svg>
