<svg width="2000" height="2000" viewBox="0 0 2000 2000" fill="none" xmlns="http://www.w3.org/2000/svg">
<g clip-path="url(#clip0_2_733)">
<mask id="mask0_2_733" style="mask-type:luminance" maskUnits="userSpaceOnUse" x="0" y="0" width="2000" height="2000">
<path d="M2000 0H0V2000H2000V0Z" fill="white"/>
</mask>
<g mask="url(#mask0_2_733)">
<path d="M1835.38 656.6C1849.64 713.61 1867.08 783.09 1794.55 886.9C1722.02 990.71 1535.21 1107.74 1326.64 1092.3C1168.85 1071.42 1170.66 947.19 1170.66 947.19L1835.37 656.6H1835.38Z" fill="#2EBEFF"/>
<path d="M1404.83 623.93C1366.56 641.58 1332.28 662.98 1303.06 686.57C1294.02 693.86 1285.47 701.36 1277.44 709.02C1277.6 690.53 1259.98 676.28 1246.49 655.09C1285.12 623.9 1330.43 595.62 1381.02 572.28C1406.56 560.51 1432.2 550.56 1457.59 542.49C1467.39 557.93 1493.09 571.19 1542.36 583.48C1516.64 586.77 1489.87 592.72 1462.75 601.39C1443.54 607.5 1424.14 615.02 1404.83 623.93Z" fill="#2EBEFF"/>
<path d="M1710.31 914.19C1671.84 945.12 1626.75 973.22 1576.5 996.39C1525.39 1019.95 1473.88 1036.13 1424.64 1045.19C1411.3 1047.65 1398.12 1049.59 1385.16 1051C1348.42 1043.89 1307.9 1049.34 1340.25 988.29C1340.46 987.89 1340.67 987.5 1340.87 987.1C1370.7 989.75 1403.54 987.98 1437.83 981.66C1475.07 974.81 1514.03 962.57 1552.69 944.75C1594.3 925.57 1631.21 901.93 1662.01 875.89C1676.54 863.61 1689.71 850.8 1701.37 837.66C1700.79 845.43 1698.89 852.9 1695.11 859.8C1687.25 874.13 1696.32 896.46 1710.31 914.19Z" fill="#2EBEFF"/>
<path d="M1842.18 741.44C1817.25 724.86 1776.18 728.62 1759.26 731.1C1764.35 705.39 1762.3 680.62 1752.04 658.37C1751.12 656.37 1750.14 654.4 1749.09 652.48C1780.06 664.74 1792.01 653.15 1803.19 569.2C1818.89 582.85 1831.4 599.1 1840.02 617.81C1857.21 655.1 1856.97 697.72 1842.18 741.44Z" fill="#2EBEFF"/>
<path d="M1385.16 1051C1262.63 1064.46 1159.58 1031.67 1120.6 957.11C1120.07 956.09 1119.54 955.05 1119.03 954.01C1118.52 952.97 1118.02 951.92 1117.53 950.86C1077.21 863.44 1132.76 746.81 1246.49 655.09C1267.77 688.51 1299.32 704.69 1255.18 747.43C1188.82 811.67 1184.38 863.29 1240.43 885.41C1296.46 907.54 1317.49 972.91 1313.95 925.03C1311.23 888.23 1369.66 932.8 1340.25 988.29C1307.9 1049.34 1348.42 1043.89 1385.16 1051Z" fill="#2EBEFF"/>
<path d="M1598.76 595.32C1511.67 579.66 1470.61 563 1457.59 542.49C1598.95 497.29 1733.12 508.04 1803.19 569.2C1781.62 731.18 1757.18 623.79 1598.76 595.32Z" fill="#2EBEFF"/>
<path d="M1803.19 569.2C1792.01 653.15 1780.06 664.74 1749.09 652.48C1720.3 641.07 1675.08 609.04 1598.76 595.32C1577.24 591.45 1558.53 587.52 1542.36 583.48C1493.09 571.19 1467.39 557.93 1457.59 542.49C1598.95 497.29 1733.12 508.04 1803.19 569.2Z" fill="#8EF222"/>
<path d="M1430.07 1089.97C1295.51 1101.08 1164.15 1040.97 1120.6 957.11C1120.07 956.09 1119.54 955.05 1119.03 954.01C1118.52 952.97 1118.02 951.92 1117.53 950.86C1077.21 863.44 1132.76 746.81 1246.49 655.09C1259.98 676.28 1277.6 690.53 1277.44 709.02C1209 774.24 1178.21 851.12 1205.51 910.31C1226.24 955.31 1276.57 981.43 1340.87 987.1C1340.67 987.5 1340.46 987.89 1340.25 988.29C1307.9 1049.34 1348.42 1043.89 1385.16 1051C1406.08 1055.04 1425.78 1063.17 1430.07 1089.97Z" fill="#8EF222"/>
<path d="M1747.21 941.51C1735.87 939.65 1721.52 928.39 1710.31 914.19C1696.32 896.46 1687.25 874.13 1695.11 859.8C1698.89 852.9 1700.79 845.43 1701.37 837.66C1718.43 818.44 1732.25 798.54 1742.36 778.62C1750.47 762.67 1756.18 746.71 1759.26 731.1C1776.18 728.62 1817.25 724.86 1842.18 741.44C1844.23 742.8 1846.17 744.3 1847.98 745.95C1888.79 753.51 1794.54 901.52 1747.21 941.51Z" fill="#8EF222"/>
<path d="M1759.26 731.1C1754.46 731.79 1751.61 732.39 1751.61 732.39C1628.92 696.12 1706.01 776.31 1701.37 837.66C1689.71 850.8 1676.54 863.61 1662.01 875.89C1631.21 901.93 1594.3 925.57 1552.69 944.75C1514.03 962.57 1475.07 974.81 1437.83 981.66C1403.54 987.98 1370.7 989.75 1340.87 987.1C1368.83 932.17 1311.25 888.49 1313.95 925.03C1317.49 972.91 1296.46 907.54 1240.43 885.41C1184.38 863.29 1188.82 811.67 1255.18 747.43C1271.34 731.79 1277.35 719.7 1277.44 709.02C1285.47 701.36 1294.02 693.86 1303.06 686.57C1332.28 662.98 1366.56 641.58 1404.83 623.93C1424.14 615.02 1443.54 607.5 1462.75 601.39C1489.87 592.72 1516.64 586.77 1542.36 583.48C1558.53 587.52 1577.24 591.45 1598.76 595.32C1675.08 609.04 1720.3 641.07 1749.09 652.48C1750.14 654.4 1751.12 656.37 1752.04 658.37C1762.3 680.62 1764.35 705.39 1759.26 731.1Z" fill="#0E88CC"/>
<path d="M1340.87 987.1C1276.57 981.43 1226.24 955.31 1205.51 910.31C1178.21 851.12 1209 774.24 1277.44 709.02C1277.35 719.7 1271.34 731.79 1255.18 747.43C1188.82 811.67 1184.38 863.29 1240.43 885.41C1296.46 907.54 1317.49 972.91 1313.95 925.03C1311.25 888.49 1368.83 932.17 1340.87 987.1Z" fill="#43DD10"/>
<path d="M1749.09 652.48C1720.3 641.07 1675.08 609.04 1598.76 595.32C1577.24 591.45 1558.53 587.52 1542.36 583.48C1618.04 573.78 1684.62 587.07 1724.18 621.6C1734.38 630.46 1742.79 640.78 1749.09 652.48Z" fill="#43DD10"/>
<path d="M1759.26 731.1C1756.18 746.71 1750.47 762.67 1742.36 778.62C1732.25 798.54 1718.43 818.44 1701.37 837.66C1706.01 776.31 1628.92 696.12 1751.61 732.39C1751.61 732.39 1754.46 731.79 1759.26 731.1Z" fill="#43DD10"/>
<g style="mix-blend-mode:multiply">
<path d="M1742.36 778.62C1725.35 812.15 1697.82 845.64 1662.02 875.89C1631.21 901.92 1594.3 925.57 1552.7 944.74C1514.04 962.56 1475.08 974.8 1437.83 981.65C1329.68 1001.6 1235.87 976.18 1205.51 910.3C1175.01 844.17 1217.03 755.94 1303.06 686.56C1332.28 662.97 1366.56 641.57 1404.83 623.92C1424.15 615.01 1443.54 607.49 1462.75 601.38C1569.68 567.19 1671.17 575.32 1724.18 621.58C1736.06 631.9 1745.52 644.2 1752.04 658.35C1768.52 694.12 1763.81 736.39 1742.35 778.6L1742.36 778.62Z" stroke="black" stroke-width="18.34" stroke-miterlimit="10"/>
</g>
<path d="M1840.02 617.81C1905.96 760.86 1797.68 951.38 1598.16 1043.34C1398.65 1135.31 1183.45 1093.9 1117.51 950.85" stroke="black" stroke-width="18.34" stroke-miterlimit="10"/>
<path d="M1576.53 996.315C1776.03 904.34 1894 734.85 1840.02 617.747C1786.03 500.644 1580.54 480.274 1381.03 572.248C1181.52 664.223 1063.55 833.713 1117.54 950.816C1171.52 1067.92 1377.02 1088.29 1576.53 996.315Z" stroke="black" stroke-width="18.34" stroke-miterlimit="10"/>
<path d="M1601.86 846.2C1562.46 861.04 1514.38 867.91 1461.93 865.85C1416.79 864.07 1368.41 855.71 1319.54 840.11C1274.12 825.61 1232.67 806.26 1196.71 783.77C1092.25 718.5 1033.95 626.57 1058.67 549.17C1083.46 471.46 1184.88 430.31 1308.43 438.02C1350.41 440.62 1394.92 448.85 1439.89 463.19C1462.59 470.43 1484.3 478.88 1504.79 488.35C1619.01 540.93 1696.73 624.38 1705.56 702.69C1707.57 720.2 1706.1 737.52 1700.79 754.14C1687.37 796.17 1651.52 827.53 1601.87 846.19L1601.86 846.2Z" fill="#FFB900"/>
<path d="M1547.75 798.82C1517.94 810.05 1481.58 815.24 1441.9 813.68C1407.76 812.34 1371.16 806.01 1334.19 794.21C1299.83 783.24 1268.48 768.61 1241.27 751.59C1162.25 702.21 1118.15 632.68 1136.85 574.13C1155.6 515.34 1232.32 484.22 1325.78 490.05C1357.54 492.02 1391.2 498.24 1425.22 509.09C1442.39 514.57 1458.82 520.96 1474.31 528.13C1560.71 567.91 1619.5 631.03 1626.18 690.27C1627.7 703.52 1626.59 716.61 1622.57 729.19C1612.42 760.98 1585.3 784.7 1547.75 798.82Z" fill="#C67100" stroke="black" stroke-width="18.34" stroke-miterlimit="10"/>
<path d="M1700.68 754.035C1733.9 649.954 1617.08 519.704 1439.76 463.114C1262.44 406.524 1091.77 445.024 1058.55 549.105C1025.34 653.186 1142.16 783.435 1319.48 840.025C1496.79 896.615 1667.47 858.116 1700.68 754.035Z" stroke="black" stroke-width="18.34" stroke-miterlimit="10"/>
<path d="M1699.31 528.28C1683.18 557.89 1657.62 587.2 1624.73 613.38C1596.43 635.91 1562.72 656.14 1524.92 672.24C1489.79 687.2 1454.54 697.15 1420.97 702.32C1323.49 717.38 1240.06 692.13 1214.57 632.27C1188.96 572.18 1228.94 494.19 1307.89 434.24C1334.71 413.86 1365.99 395.57 1400.77 380.75C1418.32 373.27 1435.91 367.04 1453.28 362.06C1550.04 334.21 1640.81 344.16 1687.12 387.02C1697.5 396.59 1705.66 407.86 1711.14 420.72C1724.98 453.22 1719.64 490.99 1699.31 528.27V528.28Z" fill="url(#paint0_linear_2_733)"/>
<path d="M1641.72 527.85C1629.52 550.25 1610.18 572.42 1585.31 592.22C1563.9 609.26 1538.4 624.57 1509.81 636.75C1483.24 648.07 1456.57 655.59 1431.18 659.51C1357.44 670.9 1294.33 651.8 1275.05 606.52C1255.68 561.07 1285.92 502.07 1345.64 456.72C1365.93 441.3 1389.59 427.47 1415.9 416.26C1429.18 410.6 1442.48 405.89 1455.63 402.13C1528.82 381.06 1597.49 388.59 1632.52 421.01C1640.37 428.25 1646.54 436.77 1650.69 446.5C1661.16 471.09 1657.12 499.66 1641.74 527.86L1641.72 527.85Z" fill="url(#paint1_linear_2_733)" stroke="black" stroke-width="18.34" stroke-miterlimit="10"/>
<path d="M1524.94 672.346C1662.07 613.939 1745.44 501.341 1711.16 420.85C1676.88 340.359 1537.92 322.456 1400.79 380.863C1263.66 439.269 1180.28 551.867 1214.57 632.358C1248.85 712.849 1387.81 730.752 1524.94 672.346Z" stroke="black" stroke-width="18.34" stroke-miterlimit="10"/>
<path d="M1413.25 448.92C1426.36 448.92 1436.98 438.296 1436.98 425.19C1436.98 412.084 1426.36 401.46 1413.25 401.46C1400.14 401.46 1389.52 412.084 1389.52 425.19C1389.52 438.296 1400.14 448.92 1413.25 448.92Z" fill="url(#paint2_linear_2_733)" stroke="black" stroke-width="18.34" stroke-miterlimit="10"/>
<path d="M1215.39 764.47C1236.24 764.47 1253.14 747.568 1253.14 726.72C1253.14 705.871 1236.24 688.97 1215.39 688.97C1194.54 688.97 1177.64 705.871 1177.64 726.72C1177.64 747.568 1194.54 764.47 1215.39 764.47Z" fill="#8EF222" stroke="black" stroke-width="18.34" stroke-miterlimit="10"/>
<path d="M1609.49 679.6C1645.04 679.6 1673.86 650.78 1673.86 615.23C1673.86 579.679 1645.04 550.86 1609.49 550.86C1573.94 550.86 1545.12 579.679 1545.12 615.23C1545.12 650.78 1573.94 679.6 1609.49 679.6Z" fill="#FFB900" stroke="black" stroke-width="18.34" stroke-miterlimit="10"/>
</g>
</g>
<defs>
<linearGradient id="paint0_linear_2_733" x1="1206.87" y1="526.5" x2="1718.85" y2="526.5" gradientUnits="userSpaceOnUse">
<stop stop-color="#00D7AD"/>
<stop offset="1" stop-color="#FF0085"/>
</linearGradient>
<linearGradient id="paint1_linear_2_733" x1="1269.21" y1="526.5" x2="1656.5" y2="526.5" gradientUnits="userSpaceOnUse">
<stop stop-color="#00D7AD"/>
<stop offset="1" stop-color="#FF0085"/>
</linearGradient>
<linearGradient id="paint2_linear_2_733" x1="1389.52" y1="425.19" x2="1436.98" y2="425.19" gradientUnits="userSpaceOnUse">
<stop stop-color="#00D7AD"/>
<stop offset="1" stop-color="#FF0085"/>
</linearGradient>
<clipPath id="clip0_2_733">
<rect width="2000" height="2000" fill="white"/>
</clipPath>
</defs>
</svg>
