<svg width="2000" height="2000" viewBox="0 0 2000 2000" fill="none" xmlns="http://www.w3.org/2000/svg">
<g clip-path="url(#clip0_41_36)">
<mask id="mask0_41_36" style="mask-type:luminance" maskUnits="userSpaceOnUse" x="0" y="0" width="2000" height="2000">
<path d="M2000 0H0V2000H2000V0Z" fill="white"/>
</mask>
<g mask="url(#mask0_41_36)">
<path d="M1587.98 778.89C1589.2 814.42 1602.2 826.87 1625.19 825.84C1650.35 824.71 1684.83 805.1 1696.43 822.32C1703.51 832.82 1691.06 854.88 1680.69 891.66" stroke="black" stroke-width="18.34" stroke-linecap="round" stroke-linejoin="round"/>
<path d="M1677.29 667.44C1677.14 669.64 1676.96 671.81 1676.78 673.93C1652.79 679.98 1635.03 701.7 1635.03 727.57C1635.03 743.53 1641.78 757.95 1652.6 768C1641.19 795 1629.01 821.23 1622.77 868.85C1615.4 925.28 1595.66 976.75 1576.95 995.2C1564.62 1007.42 1552.66 1005.18 1545.11 980.34C1526 917.9 1528.75 838.54 1500.13 831.13C1496.2 832.16 1492.87 834.51 1490.04 837.95C1471.81 859.89 1471.62 926.44 1455.11 980.34C1447.41 1005.51 1435.3 1007.49 1422.79 994.72C1408.37 980.08 1393.44 946.04 1384.05 905.39C1396.82 893.21 1404.74 876 1404.74 856.96C1404.74 826.99 1385.11 801.6 1358 792.98C1347.18 765.54 1335.22 743.6 1328.1 707.61C1336.76 699.47 1342.15 687.91 1342.15 675.07C1342.15 660.43 1335.14 647.44 1324.28 639.26C1335.43 580.3 1399.6 567.72 1463.88 584.3C1487.69 590.39 1512.53 590.39 1536.3 584.3C1559.3 578.36 1582.31 576.16 1602.85 578.47C1647.94 583.61 1681.32 610.46 1677.29 667.44Z" fill="#FFBF00" stroke="black" stroke-width="18.34" stroke-miterlimit="10"/>
<path d="M1576.34 613.84C1554.31 620.87 1528.16 624.92 1500.11 624.92C1472.06 624.92 1445.91 620.87 1423.88 613.84" stroke="black" stroke-width="18.34" stroke-linecap="round" stroke-linejoin="round"/>
<path d="M1576.34 738.19C1554.31 757.45 1528.16 768.56 1500.11 768.56C1472.06 768.56 1445.91 757.45 1423.88 738.19" stroke="black" stroke-width="18.34" stroke-linecap="round" stroke-linejoin="round"/>
<g style="mix-blend-mode:multiply">
<path d="M1490.03 837.97C1471.81 859.89 1471.61 926.45 1455.12 980.34C1447.42 1005.52 1435.32 1007.49 1422.8 994.74C1442.6 976.9 1443.43 930.59 1460.74 882.14C1475.08 842 1483.28 832.04 1490.04 837.98L1490.03 837.97Z" fill="#FFBF00"/>
</g>
<g style="mix-blend-mode:multiply">
<path d="M1677.3 667.43C1659.38 678.87 1642.83 700.6 1639.63 714.35C1634.89 734.74 1642.98 756.19 1652.61 768.01C1641.21 795 1628.99 821.26 1622.76 868.86C1615.38 925.28 1595.67 976.76 1576.95 995.21C1602.19 914.49 1587.21 844.44 1614.71 773.62C1643.77 698.69 1649.94 624.64 1602.87 578.48C1647.95 583.59 1681.33 610.45 1677.3 667.43Z" fill="#FFBF00"/>
</g>
<path d="M1677.29 667.44C1677.14 669.64 1676.96 671.81 1676.78 673.93C1652.79 679.98 1635.03 701.7 1635.03 727.57C1635.03 743.53 1641.78 757.95 1652.6 768C1641.19 795 1629.01 821.23 1622.77 868.85C1615.4 925.28 1595.66 976.75 1576.95 995.2C1564.62 1007.42 1552.66 1005.18 1545.11 980.34C1526 917.9 1528.75 838.54 1500.13 831.13C1496.2 832.16 1492.87 834.51 1490.04 837.95C1471.81 859.89 1471.62 926.44 1455.11 980.34C1447.41 1005.51 1435.3 1007.49 1422.79 994.72C1408.37 980.08 1393.44 946.04 1384.05 905.39C1396.82 893.21 1404.74 876 1404.74 856.96C1404.74 826.99 1385.11 801.6 1358 792.98C1347.18 765.54 1335.22 743.6 1328.1 707.61C1336.76 699.47 1342.15 687.91 1342.15 675.07C1342.15 660.43 1335.14 647.44 1324.28 639.26C1335.43 580.3 1399.6 567.72 1463.88 584.3C1487.69 590.39 1512.53 590.39 1536.3 584.3C1559.3 578.36 1582.31 576.16 1602.85 578.47C1647.94 583.61 1681.32 610.46 1677.29 667.44Z" stroke="black" stroke-width="18.34" stroke-miterlimit="10"/>
<path d="M1606.34 603.06C1648.82 575.11 1664.47 505.8 1665.59 480.09C1665.59 480.09 1683.48 586.04 1646.59 625.86C1619.76 622.07 1606.34 603.07 1606.34 603.07V603.06Z" fill="#FF0000" stroke="black" stroke-width="18.34" stroke-linecap="round" stroke-linejoin="round"/>
<path d="M1402.46 603.06C1359.98 575.11 1344.33 505.8 1343.21 480.09C1343.21 480.09 1325.32 586.04 1362.21 625.86C1389.04 622.07 1402.46 603.07 1402.46 603.07V603.06Z" fill="#FF0000" stroke="black" stroke-width="18.34" stroke-linecap="round" stroke-linejoin="round"/>
<path d="M1569.58 745.04L1573.81 776.21C1574.52 784.55 1564.16 788.95 1558.66 782.64L1542.09 760.64" fill="white"/>
<path d="M1569.58 745.04L1573.81 776.21C1574.52 784.55 1564.16 788.95 1558.66 782.64L1542.09 760.64" stroke="black" stroke-width="18.34" stroke-linecap="round" stroke-linejoin="round"/>
<path d="M1430.64 745.04L1426.41 776.21C1425.7 784.55 1436.06 788.95 1441.56 782.64L1458.13 760.64" fill="white"/>
<path d="M1430.64 745.04L1426.41 776.21C1425.7 784.55 1436.06 788.95 1441.56 782.64L1458.13 760.64" stroke="black" stroke-width="18.34" stroke-linecap="round" stroke-linejoin="round"/>
<path d="M1723.7 880.22C1726.27 900.73 1734.93 917.6 1743.95 930.15C1750.48 939.24 1741.6 951.52 1730.91 948.18C1712.28 942.37 1689 932.13 1666.61 914.1C1660.25 908.98 1660.93 899.05 1667.93 894.83L1705.97 871.87C1713.17 867.53 1722.66 871.88 1723.7 880.22Z" fill="#FF0000" stroke="black" stroke-width="18.34" stroke-linecap="round" stroke-linejoin="round"/>
<path d="M1605.62 672.32C1621.46 672.32 1634.29 665.77 1634.29 657.69C1634.29 649.61 1621.46 643.06 1605.62 643.06C1589.79 643.06 1576.95 649.61 1576.95 657.69C1576.95 665.77 1589.79 672.32 1605.62 672.32Z" fill="black"/>
<path d="M1634.29 700.02C1641.74 700.02 1647.78 693.47 1647.78 685.39C1647.78 677.31 1641.74 670.76 1634.29 670.76C1626.84 670.76 1620.8 677.31 1620.8 685.39C1620.8 693.47 1626.84 700.02 1634.29 700.02Z" fill="black"/>
<path d="M1612.83 733.97C1616.42 733.97 1619.32 730.818 1619.32 726.93C1619.32 723.042 1616.42 719.89 1612.83 719.89C1609.25 719.89 1606.34 723.042 1606.34 726.93C1606.34 730.818 1609.25 733.97 1612.83 733.97Z" fill="black"/>
<path d="M1353.66 666.53C1360.03 666.53 1365.19 660.933 1365.19 654.03C1365.19 647.126 1360.03 641.53 1353.66 641.53C1347.29 641.53 1342.13 647.126 1342.13 654.03C1342.13 660.933 1347.29 666.53 1353.66 666.53Z" fill="black"/>
<path d="M1446.6 603.48C1452.97 603.48 1458.13 597.884 1458.13 590.98C1458.13 584.076 1452.97 578.48 1446.6 578.48C1440.23 578.48 1435.07 584.076 1435.07 590.98C1435.07 597.884 1440.23 603.48 1446.6 603.48Z" fill="black"/>
<path d="M1308.62 669.2C1176.25 701.63 1242.41 757.94 1405.27 758.1C1405.27 758.1 1194.36 731.11 1308.62 669.2Z" fill="#FF0000"/>
<path d="M1312.45 714.34C1187.44 746.77 1265.89 813.19 1437.05 812.67C1437.05 812.67 1232.94 777.17 1312.45 714.34Z" fill="#FF0000"/>
<path d="M1689.95 733.54C1777.25 755.78 1714.21 806.85 1578.27 803.68C1578.27 803.68 1745.48 776.62 1689.95 733.54Z" fill="#FF0000"/>
<path d="M1308.62 669.2C1176.25 701.63 1242.41 757.94 1405.27 758.1C1405.27 758.1 1194.36 731.11 1308.62 669.2Z" fill="#FF0000"/>
<path d="M1312.45 714.34C1187.44 746.77 1265.89 813.19 1437.05 812.67C1437.05 812.67 1232.94 777.17 1312.45 714.34Z" fill="#FF0000"/>
<path d="M1689.95 733.54C1777.25 755.78 1714.21 806.85 1578.27 803.68C1578.27 803.68 1745.48 776.62 1689.95 733.54Z" fill="#FF0000"/>
</g>
</g>
<defs>
<clipPath id="clip0_41_36">
<rect width="2000" height="2000" fill="white"/>
</clipPath>
</defs>
</svg>
