<svg width="2000" height="2000" viewBox="0 0 2000 2000" fill="none" xmlns="http://www.w3.org/2000/svg">
<g clip-path="url(#clip0_643_328)">
<mask id="mask0_643_328" style="mask-type:luminance" maskUnits="userSpaceOnUse" x="0" y="0" width="2000" height="2000">
<path d="M2000 0H0V2000H2000V0Z" fill="white"/>
</mask>
<g mask="url(#mask0_643_328)">
<path d="M1707.19 607.4C1723.59 599.4 1740.19 591.2 1751.69 581.4C1783.39 554.6 1805.69 525.1 1786.99 508.6C1776.09 499 1751.09 511.5 1722.39 543.9M1708.19 481.7C1733.19 459.4 1773.99 444.5 1798.99 443.7C1851.89 442.1 1867.49 492.3 1861.59 525C1853.69 568.4 1815.59 595.4 1792.19 607.4C1741.29 633.4 1713.99 645.5 1722.99 655.9C1733.69 668.4 1784.59 693.9 1763.39 717.7C1744.09 739.4 1681.49 700.3 1675.59 681.7" fill="url(#paint0_linear_643_328)"/>
<path d="M1707.19 607.4C1723.59 599.4 1740.19 591.2 1751.69 581.4C1783.39 554.6 1805.69 525.1 1786.99 508.6C1776.09 499 1751.09 511.5 1722.39 543.9M1708.19 481.7C1733.19 459.4 1773.99 444.5 1798.99 443.7C1851.89 442.1 1867.49 492.3 1861.59 525C1853.69 568.4 1815.59 595.4 1792.19 607.4C1741.29 633.4 1713.99 645.5 1722.99 655.9C1733.69 668.4 1784.59 693.9 1763.39 717.7C1744.09 739.4 1681.49 700.3 1675.59 681.7" stroke="black" stroke-width="5" stroke-linecap="round" stroke-linejoin="round"/>
<path d="M1737.4 633.1C1734.5 621.6 1733.2 607.1 1733 591C1725.1 595.5 1716.5 599.7 1708 603.8L1723.2 540.3C1727.7 535.2 1732.1 530.7 1736.4 526.6C1739.2 499.4 1743.1 473.4 1746.2 454.7C1732.6 460.9 1719.4 468.9 1709 478.2L1676.3 678.3C1682.2 696.9 1744.8 736.1 1764.1 714.3C1785.3 690.5 1734.4 664.9 1723.7 652.5C1719 647 1724.2 641.1 1737.4 633.1Z" fill="url(#paint1_linear_643_328)"/>
<path d="M1707.19 607.4C1723.59 599.4 1740.19 591.2 1751.69 581.4C1783.39 554.6 1805.69 525.1 1786.99 508.6C1776.09 499 1751.09 511.5 1722.39 543.9M1708.19 481.7C1733.19 459.4 1773.99 444.5 1798.99 443.7C1851.89 442.1 1867.49 492.3 1861.59 525C1853.69 568.4 1815.59 595.4 1792.19 607.4C1741.29 633.4 1713.99 645.5 1722.99 655.9C1733.69 668.4 1784.59 693.9 1763.39 717.7C1744.09 739.4 1681.49 700.3 1675.59 681.7" stroke="black" stroke-width="18.34" stroke-linecap="round" stroke-linejoin="round"/>
<path d="M1265.8 536.6C1237.1 504.2 1212 491.7 1201.2 501.3C1182.5 517.8 1204.8 547.3 1236.5 574.1C1248.1 583.9 1264.6 592.1 1281 600.1M1312.7 674.5C1306.8 693.1 1244.2 732.3 1224.9 710.5C1203.7 686.7 1254.6 661.1 1265.3 648.7C1274.2 638.3 1247 626.2 1196.1 600.2C1172.7 588.2 1134.6 561.2 1126.7 517.8C1120.8 485.1 1136.3 434.9 1189.3 436.5C1214.4 437.3 1255.1 452.2 1280.1 474.5" fill="url(#paint2_linear_643_328)"/>
<path d="M1265.8 536.6C1237.1 504.2 1212 491.7 1201.2 501.3C1182.5 517.8 1204.8 547.3 1236.5 574.1C1248.1 583.9 1264.6 592.1 1281 600.1M1312.7 674.5C1306.8 693.1 1244.2 732.3 1224.9 710.5C1203.7 686.7 1254.6 661.1 1265.3 648.7C1274.2 638.3 1247 626.2 1196.1 600.2C1172.7 588.2 1134.6 561.2 1126.7 517.8C1120.8 485.1 1136.3 434.9 1189.3 436.5C1214.4 437.3 1255.1 452.2 1280.1 474.5" stroke="black" stroke-width="5" stroke-linecap="round" stroke-linejoin="round"/>
<path d="M1251.59 629.4C1254.49 617.9 1255.79 603.4 1255.99 587.3C1263.89 591.8 1272.49 596 1280.99 600.1L1265.79 536.6C1261.29 531.5 1256.89 527 1252.59 522.9C1249.79 495.7 1245.89 469.7 1242.79 451C1256.39 457.2 1269.59 465.2 1279.99 474.5L1312.69 674.6C1306.79 693.2 1244.19 732.4 1224.89 710.6C1203.69 686.8 1254.59 661.2 1265.29 648.8C1269.89 643.3 1264.79 637.5 1251.59 629.4Z" fill="url(#paint3_linear_643_328)"/>
<path d="M1265.9 536.7C1237.2 504.3 1212.1 491.8 1201.3 501.4C1182.6 517.9 1204.9 547.4 1236.6 574.2C1248.2 584 1264.7 592.2 1281.1 600.2M1312.8 674.6C1306.9 693.2 1244.3 732.4 1225 710.6C1203.8 686.8 1254.7 661.2 1265.4 648.8C1274.3 638.4 1247.1 626.3 1196.2 600.3C1172.8 588.3 1134.7 561.3 1126.8 517.9C1120.9 485.2 1136.4 435 1189.4 436.6C1214.5 437.4 1255.2 452.3 1280.2 474.6" stroke="black" stroke-width="18.34" stroke-linecap="round" stroke-linejoin="round"/>
<path d="M1654.9 887.2C1667.8 887.2 1678.1 901.7 1677.9 919.3L1676.9 990.2C1676.7 1007.4 1666.4 1021.1 1653.9 1021.1H1325.6C1312.7 1021.1 1302.4 1006.6 1302.6 989L1303.6 918.1C1303.8 900.9 1314.1 887.2 1326.6 887.2" fill="url(#paint4_linear_643_328)"/>
<path d="M1654.9 887.2C1667.8 887.2 1678.1 901.7 1677.9 919.3L1676.9 990.2C1676.7 1007.4 1666.4 1021.1 1653.9 1021.1H1325.6C1312.7 1021.1 1302.4 1006.6 1302.6 989L1303.6 918.1C1303.8 900.9 1314.1 887.2 1326.6 887.2" stroke="black" stroke-width="18.34" stroke-linecap="round" stroke-linejoin="round"/>
<path d="M1384.9 802.3C1426.3 803.1 1555.8 802.2 1595.2 801.9C1602.4 801.9 1609.2 805.3 1613.4 811.2L1673.7 895.8C1684.2 910.5 1673.7 931 1655.6 931H1328.5C1310.7 931 1300.2 911.2 1310 896.5L1365.9 812.2C1370.2 805.9 1377.3 802.2 1384.9 802.3Z" fill="url(#paint5_linear_643_328)" stroke="black" stroke-width="18.34" stroke-linecap="round" stroke-linejoin="round"/>
<path d="M1490.9 898.4C1551.43 898.4 1600.5 881.879 1600.5 861.5C1600.5 841.121 1551.43 824.6 1490.9 824.6C1430.37 824.6 1381.3 841.121 1381.3 861.5C1381.3 881.879 1430.37 898.4 1490.9 898.4Z" fill="url(#paint6_linear_643_328)" stroke="black" stroke-width="18.34" stroke-linecap="round" stroke-linejoin="round"/>
<path d="M1490.9 898.4C1551.43 898.4 1600.5 881.879 1600.5 861.5C1600.5 841.121 1551.43 824.6 1490.9 824.6C1430.37 824.6 1381.3 841.121 1381.3 861.5C1381.3 881.879 1430.37 898.4 1490.9 898.4Z" stroke="black" stroke-width="18.34" stroke-linecap="round" stroke-linejoin="round"/>
<path d="M1720 492.7H1264.5C1266.4 512.5 1255.5 717.7 1437.5 752.4C1447 766.6 1455 808.6 1464.6 840.2C1428.2 843 1401.8 851.5 1401.8 861.6C1401.8 874 1441.7 884 1491 884C1540.3 884 1580.2 874 1580.2 861.6C1580.2 851.7 1554.7 843.3 1519.3 840.4C1523.6 820.2 1531.6 772.8 1545.3 753.4C1749.5 720.2 1720 492.7 1720 492.7Z" fill="url(#paint7_linear_643_328)"/>
<path d="M1492.2 539.6C1618.01 539.6 1720 518.557 1720 492.6C1720 466.643 1618.01 445.6 1492.2 445.6C1366.39 445.6 1264.4 466.643 1264.4 492.6C1264.4 518.557 1366.39 539.6 1492.2 539.6Z" fill="url(#paint8_linear_643_328)" stroke="black" stroke-width="5" stroke-linecap="round" stroke-linejoin="round"/>
<path d="M1492.99 512.4C1571.36 512.4 1634.89 503.536 1634.89 492.6C1634.89 481.665 1571.36 472.8 1492.99 472.8C1414.62 472.8 1351.09 481.665 1351.09 492.6C1351.09 503.536 1414.62 512.4 1492.99 512.4Z" fill="url(#paint9_linear_643_328)" stroke="black" stroke-width="18.34" stroke-linecap="round" stroke-linejoin="round"/>
<path d="M1721.3 492.6L1661.2 524.4C1651.5 604.5 1663.3 694.3 1533.5 720.5C1519.2 723.4 1497.8 844.5 1497.8 844.5C1430.7 855.2 1536.9 866.4 1423.5 861.4C1423.5 870.8 1453.7 878.3 1491 878.3C1528.3 878.3 1558.5 870.7 1558.5 861.4C1558.5 854.7 1543.2 849 1520.9 846.2C1525.3 824.3 1533.2 772.2 1546.6 753.2C1750.7 720.2 1721.3 492.6 1721.3 492.6Z" fill="url(#paint10_linear_643_328)"/>
<path d="M1720 492.6C1720 480.9 1648.5 466.8 1614.3 458.5C1726 492.6 1660.1 524.2 1659.9 524.4C1697.2 516.1 1720 504.9 1720 492.6Z" fill="url(#paint11_linear_643_328)"/>
<path d="M1264.5 492.6C1266.4 512.4 1255.5 717.6 1437.5 752.3C1447.4 767.1 1455.7 812 1465.8 843.9" stroke="black" stroke-width="18.34" stroke-linecap="round" stroke-linejoin="round"/>
<path d="M1516.7 843.9C1520.8 826.5 1528.9 773.9 1543.5 753.3C1747.7 720.3 1719.9 488.8 1719.9 488.8" stroke="black" stroke-width="18.34" stroke-linecap="round" stroke-linejoin="round"/>
<path d="M1492.2 539.6C1618.01 539.6 1720 518.557 1720 492.6C1720 466.643 1618.01 445.6 1492.2 445.6C1366.39 445.6 1264.4 466.643 1264.4 492.6C1264.4 518.557 1366.39 539.6 1492.2 539.6Z" stroke="black" stroke-width="18.34" stroke-linecap="round" stroke-linejoin="round"/>
<path d="M1501.39 628.5C1508.19 628.5 1513.09 623.1 1513.09 618.1C1513.09 612.2 1508.69 609.1 1503.59 609.1C1496.39 609.1 1491.49 614.3 1491.49 619.8C1491.49 625.3 1496.09 628.5 1501.39 628.5Z" fill="#9F1FA4"/>
<path d="M1639.89 637.6C1637.59 637.6 1636.59 638.7 1635.39 640.4C1631.79 645 1628.99 646.6 1626.39 646.6C1624.99 646.6 1624.09 646 1623.39 644.8C1635.39 629.1 1643.79 609 1643.79 598.8C1643.79 586.6 1638.49 580.5 1630.89 580.5C1614.19 580.5 1605.89 608.6 1603.19 631.2C1602.09 631 1600.79 630.8 1599.69 630.8C1591.29 630.8 1582.79 636.2 1578.89 645.1C1576.09 649.2 1572.19 653.3 1565.19 653.3C1562.79 653.3 1560.59 652.5 1559.39 650.9C1560.79 651.4 1562.39 651.7 1563.99 651.7C1570.39 651.7 1577.39 647.9 1577.39 640.5C1577.39 633.8 1571.89 629.3 1563.29 629.3C1553.69 629.3 1546.09 635.2 1542.29 643C1540.59 644.8 1538.29 646.6 1535.49 646.6C1533.89 646.6 1532.69 645.6 1532.09 644C1543.59 632.6 1552.89 611.5 1552.89 598.8C1552.89 586.1 1547.59 580.5 1539.99 580.5C1519.79 580.5 1511.99 621.5 1511.19 644.2C1509.99 645.2 1508.59 646 1506.99 646C1504.89 646 1503.89 644.5 1503.89 641.9C1503.89 639.6 1504.69 636.9 1504.69 635.2C1504.69 632.6 1502.69 630.7 1498.29 630.7C1491.79 630.7 1487.59 635.1 1485.39 641.8C1483.49 644.2 1481.39 646 1478.89 646C1476.79 646 1475.79 644.5 1475.79 641.9C1475.79 639.6 1476.59 637.5 1476.59 635.9C1476.59 633.6 1474.69 632.1 1472.09 632.1C1470.49 632.1 1468.49 632.7 1466.99 633.7C1464.49 631.9 1460.99 630.8 1457.19 630.8C1452.79 630.8 1448.29 632.3 1444.49 635C1445.29 633.5 1445.79 631.9 1445.79 630.2C1445.79 626.8 1442.99 623.8 1434.09 623.8C1429.99 623.8 1426.19 624 1422.69 624.3C1423.29 618.3 1424.19 612.1 1425.49 607.4C1429.09 608.4 1432.79 609.3 1437.19 609.3C1449.89 609.3 1455.39 601.8 1455.39 593.5C1455.39 584.3 1448.59 579.3 1437.09 579.3C1428.29 579.3 1421.29 582.3 1415.89 586.5C1407.19 582.9 1397.99 579.3 1386.19 579.3C1363.19 579.3 1351.09 592.3 1351.09 607.8C1351.09 622 1361.39 630 1373.09 630C1381.49 630 1388.99 625.7 1388.99 621.1C1388.99 619 1387.49 619 1387.49 615.1C1387.49 608.1 1392.49 604.3 1402.29 603.7C1397.89 612.7 1395.79 622.3 1393.99 631.8C1389.49 634.6 1387.59 637.5 1387.59 639.6C1387.59 643 1390.09 643.9 1391.99 644C1390.89 650.3 1388.69 657.4 1384.09 657.4C1382.29 657.4 1380.29 655 1380.29 652.3C1380.29 647.1 1385.39 645.5 1385.39 642.6C1385.39 639.1 1382.59 633.4 1372.59 633.4C1359.39 633.4 1350.59 643.2 1350.59 656.5C1350.59 672.3 1363.29 683.5 1383.09 683.5C1406.89 683.5 1418.19 667.2 1421.09 643.5C1425.89 643.4 1430.09 643.1 1433.09 642.7C1435.09 642.5 1437.09 641.8 1438.79 640.8C1435.89 644.9 1434.09 650.1 1434.09 656.1C1434.09 664.9 1439.79 673.5 1449.79 673.5C1454.69 673.5 1459.09 671.9 1462.09 667.7C1464.09 671.3 1467.39 673.1 1471.99 673.1C1477.89 673.1 1482.39 669.4 1485.59 664.5C1487.59 670 1491.59 673.5 1498.09 673.5C1505.29 673.5 1510.39 669.3 1513.99 663.9C1516.69 670.2 1521.39 673.5 1527.69 673.5C1534.39 673.5 1539.19 670.1 1542.79 665.5C1545.79 670.3 1551.09 673.5 1558.69 673.5C1567.09 673.5 1573.69 669.9 1578.59 664.8C1581.09 669.8 1585.69 673.5 1592.29 673.5C1596.79 673.5 1602.49 671.6 1606.59 667.3C1609.49 671.3 1613.39 673.5 1618.49 673.5C1638.09 673.5 1642.49 644.4 1642.49 640.6C1642.39 638.8 1641.19 637.6 1639.89 637.6ZM1458.39 651.2C1455.59 651.2 1454.49 649.2 1454.49 646.9C1454.49 644 1456.39 640.9 1459.49 640.9C1462.99 640.9 1463.49 644 1463.49 645.2C1463.59 648.3 1461.79 651.2 1458.39 651.2ZM1533.99 610.7C1534.99 607.6 1536.09 606.3 1536.99 606.3C1538.09 606.3 1538.59 607.5 1538.59 609.3C1538.59 614.1 1534.69 623.6 1530.89 629.1C1531.29 622.6 1532.29 615.3 1533.99 610.7ZM1563.69 640.9C1564.59 640.9 1565.09 641.4 1565.09 642C1565.09 643.2 1563.49 645.3 1560.49 645.3C1559.99 645.3 1559.49 645.3 1558.99 645.2C1559.69 642.4 1562.49 640.9 1563.69 640.9ZM1602.09 651C1601.69 651.1 1601.29 651.1 1600.99 651.1C1598.19 651.1 1597.09 649.1 1597.09 646.8C1597.09 643.9 1598.99 640.8 1602.19 640.8C1602.09 643.3 1601.99 646 1601.99 648C1601.99 649.3 1601.99 650.4 1602.09 651ZM1624.79 610.7C1625.79 607.6 1626.89 606.3 1627.79 606.3C1628.89 606.3 1629.39 607.5 1629.39 609.3C1629.39 614.1 1625.49 623.6 1621.69 629.1C1622.19 622.6 1623.19 615.3 1624.79 610.7Z" fill="#9F1FA4"/>
</g>
</g>
<defs>
<linearGradient id="paint0_linear_643_328" x1="1721.89" y1="583.965" x2="1762.03" y2="583.965" gradientUnits="userSpaceOnUse">
<stop stop-color="#68EBCB"/>
<stop offset="1" stop-color="#FFCB00"/>
</linearGradient>
<linearGradient id="paint1_linear_643_328" x1="1676.27" y1="587.641" x2="1769.22" y2="587.641" gradientUnits="userSpaceOnUse">
<stop stop-color="#2C1FBD"/>
<stop offset="1" stop-color="#D0FC3D"/>
</linearGradient>
<linearGradient id="paint2_linear_643_328" x1="1226.25" y1="576.723" x2="1266.39" y2="576.723" gradientUnits="userSpaceOnUse">
<stop stop-color="#68EBCB"/>
<stop offset="1" stop-color="#FFCB00"/>
</linearGradient>
<linearGradient id="paint3_linear_643_328" x1="1219.74" y1="583.971" x2="1312.69" y2="583.971" gradientUnits="userSpaceOnUse">
<stop stop-color="#2C1FBD"/>
<stop offset="1" stop-color="#D0FC3D"/>
</linearGradient>
<linearGradient id="paint4_linear_643_328" x1="1302.62" y1="954.2" x2="1677.92" y2="954.2" gradientUnits="userSpaceOnUse">
<stop stop-color="#00D7AD"/>
<stop offset="1" stop-color="#FF0085"/>
</linearGradient>
<linearGradient id="paint5_linear_643_328" x1="1306.3" y1="866.485" x2="1677.93" y2="866.485" gradientUnits="userSpaceOnUse">
<stop stop-color="#00D7AD"/>
<stop offset="1" stop-color="#FF0085"/>
</linearGradient>
<linearGradient id="paint6_linear_643_328" x1="1381.38" y1="861.47" x2="1600.5" y2="861.47" gradientUnits="userSpaceOnUse">
<stop stop-color="#00D7AD"/>
<stop offset="1" stop-color="#FF0085"/>
</linearGradient>
<linearGradient id="paint7_linear_643_328" x1="1264.46" y1="688.255" x2="1721.46" y2="688.255" gradientUnits="userSpaceOnUse">
<stop stop-color="#68EBCB"/>
<stop offset="1" stop-color="#FFCB00"/>
</linearGradient>
<linearGradient id="paint8_linear_643_328" x1="1264.46" y1="492.65" x2="1719.98" y2="492.65" gradientUnits="userSpaceOnUse">
<stop stop-color="#68EBCB"/>
<stop offset="1" stop-color="#FFCB00"/>
</linearGradient>
<linearGradient id="paint9_linear_643_328" x1="1351" y1="492.65" x2="1634.9" y2="492.65" gradientUnits="userSpaceOnUse">
<stop stop-color="#00D7AD"/>
<stop offset="1" stop-color="#FF0085"/>
</linearGradient>
<linearGradient id="paint10_linear_643_328" x1="1423.42" y1="685.533" x2="1722.74" y2="685.533" gradientUnits="userSpaceOnUse">
<stop stop-color="#2C1FBD"/>
<stop offset="1" stop-color="#D0FC3D"/>
</linearGradient>
<linearGradient id="paint11_linear_643_328" x1="1614.25" y1="491.535" x2="1719.99" y2="491.535" gradientUnits="userSpaceOnUse">
<stop stop-color="#2C1FBD"/>
<stop offset="1" stop-color="#D0FC3D"/>
</linearGradient>
<clipPath id="clip0_643_328">
<rect width="2000" height="2000" fill="white"/>
</clipPath>
</defs>
</svg>
