<svg width="2000" height="2000" viewBox="0 0 2000 2000" fill="none" xmlns="http://www.w3.org/2000/svg">
<g clip-path="url(#clip0_2_824)">
<mask id="mask0_2_824" style="mask-type:luminance" maskUnits="userSpaceOnUse" x="0" y="0" width="2000" height="2000">
<path d="M2000 0H0V2000H2000V0Z" fill="white"/>
</mask>
<g mask="url(#mask0_2_824)">
<path d="M1331.96 584.16C1297.35 594.02 1267.56 599.59 1250.79 597.52C1250.79 597.52 1259.57 612.65 1275.1 640.41C1272.45 641.65 1269.7 642.73 1266.91 643.71C1209.85 663.74 1148.18 633.26 1127.79 575.79C1107.31 517.97 1135.54 452.74 1192.25 429.84C1250.4 406.34 1315.64 436.34 1336.49 497.09C1346.68 526.82 1344.13 557.86 1331.95 584.16H1331.96Z" fill="white" stroke="black" stroke-width="18.34" stroke-linecap="round" stroke-linejoin="round"/>
<path d="M1289.9 514.36C1301.38 547.82 1283.75 584.24 1251.33 595.63C1219.71 606.73 1185.53 589.84 1174.23 557.99C1162.86 525.95 1178.52 489.79 1209.95 477.09C1242.19 464.07 1278.35 480.7 1289.9 514.36Z" fill="black"/>
<path d="M1562.48 539.93C1558.62 541.28 1554.78 542.43 1550.94 543.39C1547.89 511.67 1546.04 490.53 1546.04 490.53C1531.59 502.77 1501.84 518.82 1466.28 534.72C1440.15 521.7 1419.3 499.11 1409.29 469.63C1388.34 407.85 1422.12 336.97 1486.35 311.02C1552.31 284.39 1624.46 315.32 1645.69 380.47C1666.77 445.17 1628.73 516.65 1562.49 539.92L1562.48 539.93Z" fill="white" stroke="black" stroke-width="18.34" stroke-linecap="round" stroke-linejoin="round"/>
<path d="M1598.82 397.85C1611.57 436.95 1588.58 480.14 1548.54 494.2C1509.55 507.89 1468.54 488.82 1455.96 451.72C1443.3 414.4 1463.71 371.57 1502.52 355.9C1542.39 339.8 1585.98 358.5 1598.81 397.85H1598.82Z" fill="black"/>
<path d="M1706.02 578.37L1713.3 622.86C1717.38 647.79 1697.86 670.32 1672.6 669.83L1563.97 667.74C1560.86 640.79 1557.96 613.6 1555.46 588.84C1581.86 577.42 1619.89 560.89 1649.97 547.81C1674.15 537.29 1701.76 552.35 1706.02 578.37Z" fill="url(#paint0_linear_2_824)" stroke="black" stroke-width="18.34" stroke-linecap="round" stroke-linejoin="round"/>
<path d="M1332.59 745.38L1254.17 803.97C1233.52 819.4 1203.96 812.62 1192.09 789.74L1177.76 762.11C1165.62 738.71 1177.94 710.06 1203.27 702.75C1233.55 694.02 1271.17 683.39 1295.55 677.29C1306.31 696.85 1318.76 719.66 1332.59 745.38Z" fill="url(#paint1_linear_2_824)" stroke="black" stroke-width="18.34" stroke-linecap="round" stroke-linejoin="round"/>
<path d="M1444.89 816.92C1413.69 820.67 1383.66 769.45 1420.06 722.9C1438.47 699.36 1431.52 669.83 1423.02 649.99C1420.92 645.08 1426.87 640.7 1430.94 644.16C1471.31 678.53 1556.08 758.16 1521.79 794.59C1477.4 841.75 1444.89 816.92 1444.89 816.92Z" fill="#FF5900"/>
<path opacity="0.5" d="M1585.53 811.42C1557.87 830.36 1532.47 843.36 1509.84 852.18C1439.93 879.5 1396.73 867.02 1396.73 867.02C1311.49 702.24 1250.79 597.52 1250.79 597.52C1281.06 601.27 1353.94 580.03 1420.82 553.78C1475.26 532.42 1525.73 507.75 1546.03 490.54C1546.03 490.54 1567.8 740.6 1585.53 811.43V811.42Z" fill="url(#paint2_linear_2_824)"/>
<path d="M1585.53 811.42C1557.87 830.36 1532.48 843.36 1509.85 852.18C1504.86 841.04 1500.02 828.93 1495.24 815.87C1503.42 811.42 1512.34 804.64 1521.79 794.59C1551.61 762.92 1491.4 698.57 1448.65 659.72C1439.95 626.98 1430.79 591.63 1420.82 553.77C1475.26 532.41 1525.73 507.74 1546.04 490.53C1546.04 490.53 1567.8 740.6 1585.53 811.42Z" fill="url(#paint3_linear_2_824)"/>
<path opacity="0.5" d="M1521.79 794.59C1512.34 804.64 1503.42 811.42 1495.24 815.87C1479.76 773.55 1465.01 721.25 1448.65 659.72C1491.4 698.57 1551.61 762.92 1521.79 794.59Z" fill="url(#paint4_linear_2_824)"/>
<path d="M1250.79 597.51C1305.74 604.34 1500.79 528.82 1546.04 490.52C1546.04 490.52 1567.8 740.62 1585.53 811.44C1472.39 888.92 1396.75 867.04 1396.75 867.04C1311.51 702.25 1250.79 597.52 1250.79 597.52V597.51Z" stroke="black" stroke-width="18.34" stroke-linecap="round" stroke-linejoin="round"/>
<path d="M1576.06 505C1473.92 570.66 1355.26 612.97 1228.9 625.85C1227.23 611.89 1225.64 597.93 1224.13 583.96C1344.23 570.84 1456.35 529.66 1552.22 466.76C1560.1 479.55 1568.04 492.29 1576.05 505H1576.06Z" fill="url(#paint5_linear_2_824)"/>
<path d="M1576.06 505C1473.92 570.66 1355.26 612.97 1228.9 625.85C1227.23 611.89 1225.64 597.93 1224.13 583.96C1344.23 570.84 1456.35 529.66 1552.22 466.76C1560.1 479.55 1568.04 492.29 1576.05 505H1576.06Z" stroke="black" stroke-width="18.34" stroke-linecap="round" stroke-linejoin="round"/>
<path d="M1462.36 773.49C1685.16 796.5 1760.95 943.58 1783.05 1025.98C1685.78 1023.94 1537.76 995.97 1462.36 773.49Z" fill="url(#paint6_linear_2_824)"/>
<path d="M1518.05 782.39C1500.59 778.55 1482.06 775.52 1462.36 773.49C1525.4 959.51 1661.92 1024.71 1783.05 1025.98C1584.85 967.49 1655.42 900.26 1518.05 782.39Z" fill="url(#paint7_linear_2_824)"/>
<path d="M1462.36 773.49C1685.16 796.5 1760.95 943.58 1783.05 1025.98C1685.78 1023.94 1537.76 995.97 1462.36 773.49Z" stroke="black" stroke-width="18.34" stroke-linecap="round" stroke-linejoin="round"/>
<path d="M1468.22 790.79C1537.99 985.43 1424.22 1072.93 1354.58 1104.43C1314.89 1028.49 1276.16 902.56 1468.22 790.79Z" fill="url(#paint8_linear_2_824)"/>
<path d="M1468.22 790.79C1452.82 799.75 1449.43 801.42 1436.87 810.53C1432.28 832.04 1514.1 970.35 1368.73 1094.94C1367.93 1095.62 1368.16 1096.96 1367.89 1097.97C1437.53 1061.75 1533.69 973.46 1468.22 790.8V790.79Z" fill="url(#paint9_linear_2_824)"/>
<path d="M1468.22 790.79C1537.99 985.43 1424.22 1072.93 1354.58 1104.43C1314.89 1028.49 1276.16 902.56 1468.22 790.79Z" stroke="black" stroke-width="18.34" stroke-linecap="round" stroke-linejoin="round"/>
<path d="M1449.45 755.73C1634.74 870.99 1630.1 1027.66 1610.27 1105.37C1527.98 1064.93 1412.18 981.21 1449.45 755.73Z" fill="url(#paint10_linear_2_824)" stroke="black" stroke-width="18.34" stroke-linecap="round" stroke-linejoin="round"/>
<path d="M1589.62 605.9L1671.34 586.18" stroke="black" stroke-width="18.34" stroke-linecap="round" stroke-linejoin="round"/>
<path d="M1591.12 633.76L1675.13 630.78" stroke="black" stroke-width="18.34" stroke-linecap="round" stroke-linejoin="round"/>
<path d="M1292.64 732.77L1235.8 781.47" stroke="black" stroke-width="18.34" stroke-linecap="round" stroke-linejoin="round"/>
<path d="M1279.1 708.11L1213 742.51" stroke="black" stroke-width="18.34" stroke-linecap="round" stroke-linejoin="round"/>
<path d="M1470.65 852.65C1470.58 974 1558.97 1040.2 1565.11 1041.62" stroke="black" stroke-width="18.34" stroke-linecap="round" stroke-linejoin="round"/>
<path d="M1632.7 955.94C1672.94 981.22 1735.04 990.99 1735.04 990.99L1632.7 955.94Z" fill="url(#paint11_linear_2_824)"/>
<path d="M1632.7 955.94C1672.94 981.22 1735.04 990.99 1735.04 990.99" stroke="black" stroke-width="18.34" stroke-linecap="round" stroke-linejoin="round"/>
<path d="M1440.48 965.81C1420.94 1036.91 1368.16 1068.42 1368.16 1068.42L1440.48 965.81Z" fill="url(#paint12_linear_2_824)"/>
<path d="M1440.48 965.81C1420.94 1036.91 1368.16 1068.42 1368.16 1068.42" stroke="black" stroke-width="18.34" stroke-linecap="round" stroke-linejoin="round"/>
</g>
</g>
<defs>
<linearGradient id="paint0_linear_2_824" x1="1555.45" y1="607.13" x2="1713.83" y2="607.13" gradientUnits="userSpaceOnUse">
<stop stop-color="#00EEC9"/>
<stop offset="1" stop-color="#FFC700"/>
</linearGradient>
<linearGradient id="paint1_linear_2_824" x1="1173.06" y1="744.79" x2="1332.59" y2="744.79" gradientUnits="userSpaceOnUse">
<stop stop-color="#00EEC9"/>
<stop offset="1" stop-color="#FFC700"/>
</linearGradient>
<linearGradient id="paint2_linear_2_824" x1="1250.79" y1="680.2" x2="1585.53" y2="680.2" gradientUnits="userSpaceOnUse">
<stop stop-color="#00EEC9"/>
<stop offset="1" stop-color="#FFC700"/>
</linearGradient>
<linearGradient id="paint3_linear_2_824" x1="1420.82" y1="671.36" x2="1585.53" y2="671.36" gradientUnits="userSpaceOnUse">
<stop stop-color="#00EEC9"/>
<stop offset="1" stop-color="#FFC700"/>
</linearGradient>
<linearGradient id="paint4_linear_2_824" x1="1448.65" y1="737.8" x2="1529.78" y2="737.8" gradientUnits="userSpaceOnUse">
<stop stop-color="#00EEC9"/>
<stop offset="1" stop-color="#FFC700"/>
</linearGradient>
<linearGradient id="paint5_linear_2_824" x1="1224.13" y1="546.3" x2="1576.06" y2="546.3" gradientUnits="userSpaceOnUse">
<stop stop-color="#00EEC9"/>
<stop offset="1" stop-color="#FFC700"/>
</linearGradient>
<linearGradient id="paint6_linear_2_824" x1="1462.36" y1="899.73" x2="1783.05" y2="899.73" gradientUnits="userSpaceOnUse">
<stop stop-color="#00EEC9"/>
<stop offset="1" stop-color="#FFC700"/>
</linearGradient>
<linearGradient id="paint7_linear_2_824" x1="1749.98" y1="1059.05" x2="1463.39" y2="772.46" gradientUnits="userSpaceOnUse">
<stop stop-color="#00EEC9"/>
<stop offset="1" stop-color="#FFC700"/>
</linearGradient>
<linearGradient id="paint8_linear_2_824" x1="1322.09" y1="947.61" x2="1490.04" y2="947.61" gradientUnits="userSpaceOnUse">
<stop stop-color="#00EEC9"/>
<stop offset="1" stop-color="#FFC700"/>
</linearGradient>
<linearGradient id="paint9_linear_2_824" x1="1367.89" y1="944.37" x2="1490.04" y2="944.37" gradientUnits="userSpaceOnUse">
<stop stop-color="#00EEC9"/>
<stop offset="1" stop-color="#FFC700"/>
</linearGradient>
<linearGradient id="paint10_linear_2_824" x1="1442.26" y1="930.55" x2="1619.58" y2="930.55" gradientUnits="userSpaceOnUse">
<stop stop-color="#00EEC9"/>
<stop offset="1" stop-color="#FFC700"/>
</linearGradient>
<linearGradient id="paint11_linear_2_824" x1="1632.7" y1="973.47" x2="1735.04" y2="973.47" gradientUnits="userSpaceOnUse">
<stop stop-color="#00EEC9"/>
<stop offset="1" stop-color="#FFC700"/>
</linearGradient>
<linearGradient id="paint12_linear_2_824" x1="1368.16" y1="1017.12" x2="1440.48" y2="1017.12" gradientUnits="userSpaceOnUse">
<stop stop-color="#00EEC9"/>
<stop offset="1" stop-color="#FFC700"/>
</linearGradient>
<clipPath id="clip0_2_824">
<rect width="2000" height="2000" fill="white"/>
</clipPath>
</defs>
</svg>
