<svg width="2000" height="2000" viewBox="0 0 2000 2000" fill="none" xmlns="http://www.w3.org/2000/svg">
<g clip-path="url(#clip0_169_224)">
<mask id="mask0_169_224" style="mask-type:luminance" maskUnits="userSpaceOnUse" x="0" y="0" width="2000" height="2000">
<path d="M2000 0H0V2000H2000V0Z" fill="white"/>
</mask>
<g mask="url(#mask0_169_224)">
<path d="M1517.98 841.02L1460.12 936.37L1483.78 1021.13C1487.29 1033.69 1472.3 1043.18 1462.49 1034.58C1440.28 1015.1 1409.05 984.77 1376.77 943.93C1361.73 924.93 1346.43 903.61 1331.75 880.06C1312.23 848.8 1293.7 813.62 1278.08 774.55C1250.97 706.79 1260.73 650.69 1289.31 611.55C1304.87 590.23 1326.03 573.91 1349.84 563.49C1403.48 540.08 1470.62 546.5 1517.98 592.55L1451.46 708.12L1468.26 741.65L1470.13 745.39L1499.41 803.91L1509.65 824.42L1517.98 841.04V841.02Z" fill="#B07400" stroke="black" stroke-width="18.34" stroke-linecap="round" stroke-linejoin="round"/>
<path d="M1809.94 679.23C1809.94 688 1809.39 696.66 1808.36 705.24C1805.09 732.9 1796.69 759.54 1784.81 784.85C1761.95 833.42 1726.18 877.12 1688.69 913.77C1666.27 935.67 1643.23 955.08 1621.95 971.48C1578.62 1004.9 1554.58 1018.92 1546.25 1023.66C1546.25 1023.66 1542.61 1023.98 1542.61 1024.01C1541.47 1024.67 1538.89 1020.67 1538.89 1020.67L1503.67 921.91L1570.11 817.9L1503.67 679.22C1509.43 667.63 1599.02 550.23 1599.02 550.23C1599.02 550.23 1609.44 546.74 1625.62 543.55C1682.3 532.29 1809.94 524.18 1809.94 679.22V679.23Z" fill="#B07400"/>
<g style="mix-blend-mode:multiply">
<path d="M1809.94 679.23C1809.94 688 1809.39 696.66 1808.36 705.24C1805.09 732.9 1796.69 759.54 1784.81 784.85C1761.95 833.42 1726.18 877.12 1688.69 913.77C1666.27 935.67 1643.23 955.08 1621.95 971.48C1592.98 993.83 1567.3 1010.65 1550.98 1020.76C1544.62 1024.7 1536.78 1018.86 1538.58 1011.6C1607.85 732.29 1937.61 724.97 1625.62 543.56C1682.3 532.3 1809.94 524.19 1809.94 679.23Z" fill="#B07400"/>
</g>
<path d="M1809.94 679.23C1809.94 688 1809.39 696.66 1808.36 705.24C1805.09 732.9 1796.69 759.54 1784.81 784.85C1761.95 833.42 1726.18 877.12 1688.69 913.77C1666.27 935.67 1643.23 955.08 1621.95 971.48C1594.91 992.33 1570.74 1008.38 1554.37 1018.64C1543.6 1025.39 1529.39 1019.73 1526.16 1007.44L1503.67 921.91L1570.11 817.9L1503.67 679.22C1509.43 667.63 1599.02 550.23 1599.02 550.23C1599.02 550.23 1809.94 479.9 1809.94 679.22V679.23Z" stroke="black" stroke-width="18.34" stroke-linecap="round" stroke-linejoin="round"/>
<path d="M1640.94 669.47C1665.35 669.47 1685.13 649.685 1685.13 625.28C1685.13 600.874 1665.35 581.09 1640.94 581.09C1616.53 581.09 1596.75 600.874 1596.75 625.28C1596.75 649.685 1616.53 669.47 1640.94 669.47Z" fill="#593A2E" stroke="black" stroke-width="18.34" stroke-miterlimit="10"/>
<path d="M1808.36 705.24C1805.09 732.9 1796.69 759.54 1784.81 784.85C1783.93 784.92 1783.05 784.96 1782.13 784.96C1757.7 784.96 1737.92 765.19 1737.92 740.79C1737.92 716.39 1757.69 696.58 1782.13 696.58C1791.96 696.58 1801.02 699.81 1808.36 705.24Z" fill="#593A2E" stroke="black" stroke-width="18.34" stroke-miterlimit="10"/>
<path d="M1415.29 900.13C1415.29 922.62 1398.49 941.15 1376.77 943.94C1361.73 924.94 1346.43 903.62 1331.75 880.07C1339.05 865.76 1353.91 855.97 1371.12 855.97C1395.52 855.97 1415.29 875.74 1415.29 900.14V900.13Z" fill="#593A2E" stroke="black" stroke-width="18.34" stroke-miterlimit="10"/>
<path d="M1688.68 913.78C1666.26 935.68 1643.22 955.09 1621.94 971.49C1616.07 964.01 1612.58 954.58 1612.58 944.3C1612.58 919.9 1632.39 900.13 1656.79 900.13C1669.34 900.13 1680.64 905.34 1688.67 913.78H1688.68Z" fill="#593A2E" stroke="black" stroke-width="18.34" stroke-miterlimit="10"/>
<path d="M1350.46 570.75C1350.46 595.15 1330.69 614.96 1306.29 614.96C1300.27 614.96 1294.51 613.75 1289.3 611.55C1304.86 590.23 1326.02 573.91 1349.83 563.49C1350.23 565.87 1350.45 568.3 1350.45 570.75H1350.46Z" fill="#593A2E" stroke="black" stroke-width="18.34" stroke-miterlimit="10"/>
<path d="M1509.65 824.4C1503.67 827.44 1496.88 829.13 1489.73 829.13C1465.33 829.13 1445.56 809.36 1445.56 784.96C1445.56 767.61 1455.58 752.56 1470.14 745.37L1499.42 803.89L1509.66 824.4H1509.65Z" fill="#593A2E" stroke="black" stroke-width="18.34" stroke-miterlimit="10"/>
<path d="M1305.38 642.64C1315.9 701.95 1384.29 731.6 1390.03 733.51L1305.38 642.64Z" fill="#B07400"/>
<path d="M1305.38 642.64C1315.9 701.95 1384.29 731.6 1390.03 733.51" stroke="black" stroke-width="18.34" stroke-linecap="round" stroke-linejoin="round"/>
<path d="M1331.75 779.87C1331.75 779.87 1375.46 747.44 1350.46 710.35L1331.75 779.87Z" fill="#B07400"/>
<path d="M1331.75 779.87C1331.75 779.87 1375.46 747.44 1350.46 710.35" stroke="black" stroke-width="18.34" stroke-linecap="round" stroke-linejoin="round"/>
<path d="M1688.68 834.91C1661.6 820.85 1635.98 818.61 1620.69 812.56L1688.68 834.91Z" fill="#B07400"/>
<path d="M1688.68 834.91C1661.6 820.85 1635.98 818.61 1620.69 812.56" stroke="black" stroke-width="18.34" stroke-linecap="round" stroke-linejoin="round"/>
<path d="M1620.03 774.84C1620.03 774.84 1660.91 794.07 1651.95 819.87L1620.03 774.84Z" fill="#B07400"/>
<path d="M1620.03 774.84C1620.03 774.84 1660.91 794.07 1651.95 819.87" stroke="black" stroke-width="18.34" stroke-linecap="round" stroke-linejoin="round"/>
<path d="M1737.92 597.49C1737.22 640.76 1706.02 688.08 1706.02 688.08L1737.92 597.49Z" fill="#B07400"/>
<path d="M1737.92 597.49C1737.22 640.76 1706.02 688.08 1706.02 688.08" stroke="black" stroke-width="18.34" stroke-linecap="round" stroke-linejoin="round"/>
<path d="M1438.21 1012.12C1401.83 973.91 1448.74 905.99 1448.74 905.99L1438.21 1012.12Z" fill="#B07400"/>
<path d="M1438.21 1012.12C1401.83 973.91 1448.74 905.99 1448.74 905.99" stroke="black" stroke-width="18.34" stroke-linecap="round" stroke-linejoin="round"/>
<path d="M1458.42 563.48C1458.42 563.48 1475.53 618.29 1445.55 642.64L1458.42 563.48Z" fill="#B07400"/>
<path d="M1458.42 563.48C1458.42 563.48 1475.53 618.29 1445.55 642.64" stroke="black" stroke-width="18.34" stroke-linecap="round" stroke-linejoin="round"/>
</g>
</g>
<defs>
<clipPath id="clip0_169_224">
<rect width="2000" height="2000" fill="white"/>
</clipPath>
</defs>
</svg>
