<svg width="2000" height="2000" viewBox="0 0 2000 2000" fill="none" xmlns="http://www.w3.org/2000/svg">
<g clip-path="url(#clip0_28_812)">
<mask id="mask0_28_812" style="mask-type:luminance" maskUnits="userSpaceOnUse" x="0" y="0" width="2000" height="2000">
<path d="M2000 0H0V2000H2000V0Z" fill="white"/>
</mask>
<g mask="url(#mask0_28_812)">
<path d="M1705.8 513.5C1744.8 552.5 1769.6 600.3 1780.3 650.5C1787.4 683.8 1788.2 718 1782.9 751.6C1774.1 806.9 1748.4 860 1705.8 902.6C1700.5 907.9 1695 912.9 1689.4 917.7C1664.5 938.9 1636.7 954.9 1607.5 965.9C1568.4 980.5 1526.7 985.8 1485.6 982C1472.5 980.8 1459.6 978.6 1446.8 975.6C1433.6 972.4 1420.5 968.3 1407.7 963.1C1374.6 949.6 1343.5 929.5 1316.7 902.7C1260.4 846.4 1233.6 771.8 1236.3 698C1236.5 692.7 1236.8 687.3 1237.3 682C1243.1 620.5 1269.6 560.7 1316.6 513.6C1378.8 451.4 1463.4 425.2 1544.4 435C1584.7 439.9 1624.2 453.7 1659.6 476.4C1664.7 479.6 1669.7 483.1 1674.5 486.7C1685.4 494.7 1695.9 503.7 1705.8 513.5Z" fill="#FFC400"/>
<path d="M1705.8 513.5C1744.8 552.5 1769.6 600.3 1780.3 650.5C1787.4 683.8 1788.2 718 1782.9 751.6C1774.1 806.9 1748.4 860 1705.8 902.6C1700.5 907.9 1695 912.9 1689.4 917.7C1664.5 938.9 1636.7 954.9 1607.5 965.9C1568.4 980.5 1526.7 985.8 1485.6 982C1846.3 864.3 1764.1 519.2 1544.5 435C1584.8 439.9 1624.3 453.7 1659.7 476.4C1664.8 479.6 1669.8 483.1 1674.6 486.7C1685.4 494.7 1695.9 503.7 1705.8 513.5Z" fill="#DB7700"/>
<path d="M1705.8 513.5C1744.8 552.5 1769.6 600.3 1780.3 650.5C1787.4 683.8 1788.2 718 1782.9 751.6C1774.1 806.9 1748.4 860 1705.8 902.6C1700.5 907.9 1695 912.9 1689.4 917.7C1664.5 938.9 1636.7 954.9 1607.5 965.9C1568.4 980.5 1526.7 985.8 1485.6 982C1472.5 980.8 1459.6 978.6 1446.8 975.6C1433.6 972.4 1420.5 968.3 1407.7 963.1C1374.6 949.6 1343.5 929.5 1316.7 902.7C1260.4 846.4 1233.6 771.8 1236.3 698C1236.5 692.7 1236.8 687.3 1237.3 682C1243.1 620.5 1269.6 560.7 1316.6 513.6C1378.8 451.4 1463.4 425.2 1544.4 435C1584.7 439.9 1624.2 453.7 1659.6 476.4C1664.7 479.6 1669.7 483.1 1674.5 486.7C1685.4 494.7 1695.9 503.7 1705.8 513.5Z" stroke="black" stroke-width="18.34" stroke-miterlimit="10" stroke-linecap="round" stroke-linejoin="round"/>
<path d="M1533.6 324.9C1529.7 326.1 1525.6 327.1 1521.6 327.6C1490.8 331.7 1470.1 309.3 1466.5 335.1C1462.8 361.2 1477.7 428.9 1509.1 425.9C1517 425.2 1525.1 420 1532.8 412.3C1556.5 388.6 1577 340.4 1579.3 319.9C1581.8 296.6 1560 316.6 1533.6 324.9ZM1472.5 937.2C1465.3 924.3 1456.6 915.5 1446.6 914.5C1412.1 911 1371.8 1000.4 1366.6 1036.7C1361.6 1071.9 1391.7 1043.8 1425.2 1046.2C1426.7 1046.3 1428.2 1046.5 1429.7 1046.7C1466 1052.5 1491.9 1096.4 1496.3 1057.3C1499.5 1029.7 1490.8 970.1 1472.5 937.2ZM1945.2 589.5C1898.2 590.7 1780.7 620.7 1778.8 654.5C1777 688.9 1895.1 719.5 1943.5 720.4C1993.6 721.4 1943.9 690.4 1944.3 653.9C1944.8 618 1993.6 588.2 1945.2 589.5ZM1152.4 609.8C1127.4 610.4 1148 630.7 1142.5 656.8C1136.9 683.3 1107 704.4 1132.4 704.9C1158.4 705.4 1234 684.1 1239.2 656.5C1244.3 629.2 1178.1 609.1 1152.4 609.8ZM1836.5 915C1804.2 883.8 1699.7 826.5 1668.8 850.2C1638.2 873.6 1686 971.8 1715.6 1004.1C1746.2 1037.6 1742.3 984.5 1775.5 960C1809.1 935.2 1870 947.4 1836.5 915ZM1311.3 406.8C1295.4 391.4 1293.6 422.5 1271.9 441.7C1250.3 460.8 1218.3 460.1 1233 476.2C1246.8 491.3 1297.7 517.1 1324 506.7C1327.9 503 1331.9 499.5 1336.1 496.1C1349.2 471.9 1326.2 421.1 1311.3 406.8ZM1276.2 822.6C1259.3 799.8 1182.3 834.7 1158.3 854.6C1134.6 874.3 1170.5 873.1 1185.9 896.6C1201.8 920.8 1189.8 961.3 1215 940.8C1240.5 920.4 1293.6 846.1 1276.2 822.6ZM1804.5 388.9C1802.7 387.7 1801.1 386.4 1799.6 385C1778.9 366 1784.1 334 1757 356.6C1728.2 380.6 1673.2 457.5 1697.7 476.6C1701.5 479.6 1706.9 481 1713.6 481.2C1751.5 482.5 1828.5 444.4 1854.8 423.1C1886.1 397.9 1831.9 407.6 1804.5 388.9Z" fill="#FFC400"/>
<path d="M1579.2 319.9C1576.9 340.4 1556.5 388.6 1532.7 412.3C1541.4 380.5 1538.5 348.7 1533.5 324.9C1560 316.6 1581.8 296.6 1579.2 319.9Z" fill="#DB7700"/>
<path d="M1854.8 423.1C1828.4 444.4 1751.5 482.5 1713.6 481.2C1751.2 452.2 1779.2 418.7 1799.6 385C1801.1 386.4 1802.7 387.7 1804.5 388.9C1831.9 407.6 1886.1 397.8 1854.8 423.1Z" fill="#DB7700"/>
<path d="M1496.4 1057.3C1492 1096.4 1466.1 1052.5 1429.8 1046.7C1428.3 1046.4 1426.8 1046.3 1425.3 1046.2C1445.5 1012.6 1460.4 979.4 1472.5 937.2C1490.8 970.1 1499.5 1029.7 1496.4 1057.3Z" fill="#DB7700"/>
<path d="M1944.3 653.8C1943.9 690.3 1993.5 721.3 1943.5 720.3C1895.1 719.4 1777 688.8 1778.8 654.4C1780.6 620.6 1898.2 590.6 1945.2 589.4C1993.6 588.2 1944.8 618 1944.3 653.8Z" fill="#DB7700"/>
<path d="M1836.5 915C1870 947.4 1809.1 935.2 1775.5 959.9C1742.3 984.4 1746.2 1037.5 1715.6 1004C1686.1 971.7 1638.2 873.6 1668.8 850.1C1699.8 826.5 1804.2 883.8 1836.5 915Z" fill="#DB7700"/>
<path d="M1533.6 324.9C1529.7 326.1 1525.6 327.1 1521.6 327.6C1490.8 331.7 1470.1 309.3 1466.5 335.1C1462.8 361.2 1477.7 428.9 1509.1 425.9C1517 425.2 1525.1 420 1532.8 412.3C1556.5 388.6 1577 340.4 1579.3 319.9C1581.8 296.6 1560 316.6 1533.6 324.9ZM1472.5 937.2C1465.3 924.3 1456.6 915.5 1446.6 914.5C1412.1 911 1371.8 1000.4 1366.6 1036.7C1361.6 1071.9 1391.7 1043.8 1425.2 1046.2C1426.7 1046.3 1428.2 1046.5 1429.7 1046.7C1466 1052.5 1491.9 1096.4 1496.3 1057.3C1499.5 1029.7 1490.8 970.1 1472.5 937.2ZM1945.2 589.5C1898.2 590.7 1780.7 620.7 1778.8 654.5C1777 688.9 1895.1 719.5 1943.5 720.4C1993.6 721.4 1943.9 690.4 1944.3 653.9C1944.8 618 1993.6 588.2 1945.2 589.5ZM1152.4 609.8C1127.4 610.4 1148 630.7 1142.5 656.8C1136.9 683.3 1107 704.4 1132.4 704.9C1158.4 705.4 1234 684.1 1239.2 656.5C1244.3 629.2 1178.1 609.1 1152.4 609.8ZM1836.5 915C1804.2 883.8 1699.7 826.5 1668.8 850.2C1638.2 873.6 1686 971.8 1715.6 1004.1C1746.2 1037.6 1742.3 984.5 1775.5 960C1809.1 935.2 1870 947.4 1836.5 915ZM1311.3 406.8C1295.4 391.4 1293.6 422.5 1271.9 441.7C1250.3 460.8 1218.3 460.1 1233 476.2C1246.8 491.3 1297.7 517.1 1324 506.7C1327.9 503 1331.9 499.5 1336.1 496.1C1349.2 471.9 1326.2 421.1 1311.3 406.8ZM1276.2 822.6C1259.3 799.8 1182.3 834.7 1158.3 854.6C1134.6 874.3 1170.5 873.1 1185.9 896.6C1201.8 920.8 1189.8 961.3 1215 940.8C1240.5 920.4 1293.6 846.1 1276.2 822.6ZM1804.5 388.9C1802.7 387.7 1801.1 386.4 1799.6 385C1778.9 366 1784.1 334 1757 356.6C1728.2 380.6 1673.2 457.5 1697.7 476.6C1701.5 479.6 1706.9 481 1713.6 481.2C1751.5 482.5 1828.5 444.4 1854.8 423.1C1886.1 397.9 1831.9 407.6 1804.5 388.9Z" stroke="black" stroke-width="18.34" stroke-miterlimit="10" stroke-linecap="round" stroke-linejoin="round"/>
<path d="M1279.7 436.7L1297.7 505.9C1298 507.2 1298.9 508.2 1300 508.9L1332.8 526.8C1336.1 528.6 1336.1 533.3 1332.8 535.1L1300 553C1298.8 553.6 1298 554.7 1297.7 556L1279.7 626.7C1278.5 631.5 1271.7 631.5 1270.5 626.7L1252.5 556C1252.2 554.7 1251.3 553.6 1250.2 553L1217.5 535.1C1214.2 533.3 1214.2 528.6 1217.5 526.8L1250.3 508.9C1251.5 508.3 1252.3 507.2 1252.6 505.9L1270.6 436.7C1271.8 432 1278.5 432 1279.7 436.7Z" fill="white"/>
<path d="M1780.9 722.7L1792.6 767.7C1792.8 768.5 1793.4 769.2 1794.1 769.6L1815.4 781.3C1817.5 782.5 1817.5 785.5 1815.4 786.7L1794.1 798.4C1793.3 798.8 1792.8 799.5 1792.6 800.4L1780.9 846.4C1780.1 849.5 1775.7 849.5 1774.9 846.4L1763.2 800.4C1763 799.6 1762.4 798.9 1761.7 798.4L1740.4 786.7C1738.3 785.5 1738.3 782.5 1740.4 781.3L1761.7 769.6C1762.5 769.2 1763 768.5 1763.2 767.7L1774.9 722.7C1775.7 719.6 1780.1 719.6 1780.9 722.7Z" fill="white"/>
<path d="M1468.7 1002.2L1480 1045.6C1480.2 1046.4 1480.7 1047.1 1481.4 1047.5L1502 1058.7C1504.1 1059.8 1504.1 1062.8 1502 1063.9L1481.4 1075.1C1480.7 1075.5 1480.2 1076.2 1479.9 1077L1468.6 1121.4C1467.8 1124.4 1463.6 1124.4 1462.8 1121.4L1451.5 1077C1451.3 1076.2 1450.8 1075.5 1450 1075.1L1429.4 1063.9C1427.3 1062.8 1427.3 1059.8 1429.4 1058.7L1450 1047.5C1450.7 1047.1 1451.2 1046.4 1451.4 1045.6L1462.7 1002.2C1463.7 999.3 1468 999.3 1468.7 1002.2Z" fill="white"/>
<path d="M1660.4 354.6L1666.2 376.8C1666.3 377.2 1666.6 377.6 1666.9 377.8L1677.4 383.5C1678.5 384.1 1678.5 385.6 1677.4 386.2L1666.9 391.9C1666.5 392.1 1666.3 392.4 1666.2 392.9L1660.4 415.6C1660 417.1 1657.8 417.1 1657.5 415.6L1651.7 392.9C1651.6 392.5 1651.3 392.1 1651 391.9L1640.5 386.2C1639.4 385.6 1639.4 384.1 1640.5 383.5L1651 377.8C1651.4 377.6 1651.6 377.3 1651.7 376.8L1657.5 354.6C1657.9 353 1660 353 1660.4 354.6Z" fill="white"/>
</g>
</g>
<defs>
<clipPath id="clip0_28_812">
<rect width="2000" height="2000" fill="white"/>
</clipPath>
</defs>
</svg>
