<svg width="2000" height="2000" viewBox="0 0 2000 2000" fill="none" xmlns="http://www.w3.org/2000/svg">
<g clip-path="url(#clip0_186_134)">
<mask id="mask0_186_134" style="mask-type:luminance" maskUnits="userSpaceOnUse" x="0" y="0" width="2000" height="2000">
<path d="M2000 0H0V2000H2000V0Z" fill="white"/>
</mask>
<g mask="url(#mask0_186_134)">
<path d="M1479.76 686.05C1697.41 796.32 1740.39 949.04 1626.11 1013.93C1570.42 1045.56 1541.29 1083.46 1526.06 1114" stroke="black" stroke-width="18.34" stroke-linecap="round" stroke-linejoin="round"/>
<path d="M1881.04 1057.53C1853.01 1009.84 1806.82 966.73 1750.47 928.17C1515.23 767.26 1103.48 686.07 1103.48 686.07C1436.39 506.59 1411.77 325.58 1411.77 325.58C1457.89 373.97 1503.23 408.2 1545.42 432.34C1675.59 506.78 1775.71 484.91 1775.71 484.91C1689.9 680.82 1874 1043.74 1881.04 1057.53Z" fill="url(#paint0_linear_186_134)"/>
<path style="mix-blend-mode:multiply" d="M1881.04 1057.53C1853.01 1009.84 1806.82 966.73 1750.47 928.17C1479.76 699.13 1918.14 659.99 1545.42 432.33C1675.59 506.77 1775.71 484.9 1775.71 484.9C1689.9 680.81 1874 1043.73 1881.04 1057.52V1057.53Z" fill="url(#paint1_linear_186_134)"/>
<path d="M1881.04 1057.53C1853.01 1009.84 1806.82 966.73 1750.47 928.17C1515.23 767.26 1103.48 686.07 1103.48 686.07C1436.39 506.59 1411.77 325.58 1411.77 325.58C1457.89 373.97 1503.23 408.2 1545.42 432.34C1675.59 506.78 1775.71 484.91 1775.71 484.91C1689.9 680.82 1874 1043.74 1881.04 1057.53Z" stroke="black" stroke-width="18.34" stroke-linecap="round" stroke-linejoin="round"/>
<path d="M1103.48 686.05C1103.48 686.05 1600.82 662.6 1775.71 484.9" stroke="black" stroke-width="18.34" stroke-linecap="round" stroke-linejoin="round"/>
<path d="M1411.78 325.58C1411.78 325.58 1765.35 889.29 1881.25 1057.92L1411.78 325.58Z" fill="url(#paint2_linear_186_134)"/>
<path d="M1411.78 325.58C1411.78 325.58 1765.35 889.29 1881.25 1057.92" stroke="black" stroke-width="18.34" stroke-linecap="round" stroke-linejoin="round"/>
<path d="M1526.62 735.26C1514.02 735.26 1503.22 729.33 1496.87 719.64C1495.02 720.69 1494.09 721.55 1493.02 722.56C1491.22 724.24 1488.49 726.79 1484.14 728.72C1482.27 729.55 1480.19 730.18 1477.76 730.65C1477.66 730.67 1477.56 730.69 1477.46 730.71C1475.64 731.03 1473.79 731.19 1471.96 731.19C1455.49 731.19 1442.29 718.47 1440.56 700.94C1439.72 692.37 1441.69 672.84 1464.41 638.28C1465.87 636.05 1467.31 633.94 1468.72 631.92C1467.8 631.97 1466.89 631.99 1465.99 631.99C1445.77 631.99 1431 619.49 1429.23 600.89C1427.02 577.66 1446.2 555.45 1472.9 550.33C1476.38 549.66 1479.77 549.32 1482.98 549.32C1485.45 549.32 1487.75 549.51 1489.89 549.87C1492.74 547.56 1496.12 545.99 1499.8 545.28C1500.89 545.07 1502.01 544.96 1503.14 544.96C1505.65 544.96 1507.68 545.47 1509.22 545.91C1512.81 543.08 1517.05 541.19 1521.92 540.26C1523.98 539.87 1526 539.67 1527.93 539.67C1530.11 539.67 1532.22 539.93 1534.22 540.44C1536.57 538.83 1539.25 537.7 1542.11 537.15C1543.19 536.94 1544.3 536.84 1545.4 536.84C1547.26 536.84 1548.84 537.12 1550.15 537.45C1553.78 534.77 1557.69 533.45 1561 532.81C1562.88 532.45 1564.74 532.27 1566.53 532.27C1570.53 532.27 1574.29 533.18 1577.59 534.85C1581.68 531.7 1586.63 529.46 1592.15 528.38C1594.2 527.98 1596.27 527.78 1598.3 527.78C1599.6 527.78 1600.88 527.86 1602.15 528.02C1604.6 525.98 1607.56 524.56 1610.8 523.94C1611.87 523.74 1612.95 523.63 1614.04 523.63C1615.03 523.63 1615.93 523.71 1616.76 523.84C1619.16 522.29 1621.92 521.18 1624.98 520.6C1626.6 520.29 1628.23 520.13 1629.82 520.13C1634.31 520.13 1638.59 521.37 1642.23 523.63C1642.47 523.57 1642.68 523.52 1642.87 523.48C1644.15 523.22 1645.45 523.08 1646.75 523.08C1653.17 523.08 1659.23 526.35 1662.97 531.83C1663.07 531.98 1670.93 544.24 1670.83 557.69C1676.06 560.28 1680.53 564.01 1683.58 568.56C1685.23 571.02 1685.93 573.27 1687.33 577.76C1687.7 578.96 1688.12 580.3 1688.59 581.74C1696.56 583.86 1702.95 590.47 1705.81 594.66C1713.14 605.4 1713 614.32 1711.6 619.91C1711.55 620.12 1711.49 620.32 1711.44 620.53C1714.08 625.38 1714.73 631.27 1713.19 636.95C1711.14 644.52 1705.51 651.08 1697.73 654.96C1693.88 656.88 1689.45 657.89 1684.9 657.89C1676.76 657.89 1668.84 654.79 1662.51 649.38C1661.58 650.01 1660.52 650.62 1659.31 651.15C1657.47 651.96 1655.48 652.5 1653.21 652.79C1653.1 652.8 1652.98 652.82 1652.87 652.83C1652.26 652.89 1651.64 652.94 1651.02 652.96C1650.54 655.47 1649.91 657.92 1649.14 660.3C1644.54 674.47 1635.04 685.46 1621.69 692.1C1614.03 695.9 1606.11 697.83 1598.15 697.83C1588.64 697.83 1579.83 695.15 1572.18 690.16V690.18C1575.67 702.04 1567.72 719.76 1545.79 730.69C1539.77 733.69 1533.15 735.28 1526.65 735.28L1526.62 735.26Z" fill="url(#paint3_linear_186_134)"/>
<path d="M1629.8 536.62C1632.91 536.62 1634.7 538.38 1635.48 539.59C1636.61 541.34 1636.8 543.21 1637.84 544.83C1638.56 545.94 1639.58 546.73 1640.81 546.73C1641.02 546.73 1641.24 546.71 1641.47 546.66C1643.86 546.13 1644.12 543.49 1644.41 541.98C1644.64 540.85 1644.89 539.91 1646.17 539.65C1646.36 539.61 1646.55 539.59 1646.73 539.59C1647.77 539.59 1648.68 540.2 1649.31 541.13C1650.92 543.49 1660.88 563.72 1647.15 567.47C1645.97 567.79 1644.76 567.95 1643.54 567.95C1638.01 567.95 1632.27 564.73 1628.77 558.85C1627.65 556.96 1626.67 554.76 1626.11 552.9C1625.48 553.14 1624.8 553.3 1624.12 553.45C1623.6 553.57 1623.06 553.63 1622.5 553.63C1621.46 553.63 1620.38 553.43 1619.32 553.05C1625.87 564.47 1621.36 574.52 1608.97 577.9C1606.84 578.48 1604.76 578.75 1602.75 578.75C1598.35 578.75 1594.33 577.45 1590.99 575.26C1589.45 579.98 1586.15 584.13 1579.77 585.87C1578.03 586.35 1576.28 586.58 1574.57 586.58C1567.69 586.58 1561.47 582.78 1558.74 575.78C1557.85 573.49 1557.23 570.82 1557.05 568.55C1556.24 568.84 1555.39 569.04 1554.54 569.23C1555.05 578.41 1552.97 593.18 1537.73 597.34C1535.56 597.93 1533.43 598.22 1531.39 598.22C1523.64 598.22 1517.2 594.05 1515.11 586.32C1514.42 583.77 1514.1 580.79 1514.22 578.26C1513.18 578.62 1512.11 578.86 1511.03 579.11C1510.87 579.15 1510.71 579.17 1510.54 579.2C1509.17 591.51 1499.42 607.8 1477.3 613.84C1473.15 614.97 1469.37 615.49 1465.97 615.49C1453.67 615.49 1446.53 608.64 1445.65 599.33C1444.33 585.46 1457.13 570.16 1475.99 566.54C1478.49 566.06 1480.82 565.83 1482.96 565.83C1490.21 565.83 1495.13 568.5 1496.22 573.2C1497.84 580.19 1489.47 585.96 1480.81 587.96C1478.81 588.42 1476.77 588.68 1474.92 588.68C1474.69 588.68 1474.46 588.68 1474.23 588.67C1475.31 589.44 1476.87 589.77 1478.63 589.77C1479.91 589.77 1481.29 589.59 1482.67 589.27C1492.99 586.86 1497.09 580.84 1499.75 575.83C1498.79 574.71 1498.07 573.37 1497.7 571.8C1496.62 567.24 1498.66 562.31 1502.89 561.5C1502.96 561.49 1503.03 561.48 1503.11 561.48C1504.48 561.48 1507.84 563.24 1513.62 563.24C1514.35 563.24 1515.12 563.21 1515.93 563.15C1517.63 560.11 1519.98 557.45 1525 556.49C1526.09 556.28 1527.06 556.19 1527.92 556.19C1532.14 556.19 1533.78 558.39 1534.3 559.92C1535.08 562.2 1534.46 564.7 1535.18 566.83C1535.66 568.26 1536.72 569.26 1538.4 569.26C1538.74 569.26 1539.11 569.22 1539.51 569.13C1541.52 568.69 1542.91 567.43 1543.94 566.05C1543.05 565.08 1542.33 563.92 1541.86 562.59C1540.39 558.48 1541.59 554.06 1545.21 553.37C1545.26 553.36 1545.32 553.35 1545.39 553.35C1546.6 553.35 1549.84 555.04 1555.09 555.04C1555.65 555.04 1556.24 555.02 1556.85 554.98C1558 552.25 1559.76 549.86 1564.08 549.04C1564.97 548.87 1565.78 548.79 1566.52 548.79C1570.31 548.79 1572.03 550.82 1572.67 552.23C1573.61 554.3 1573.34 556.55 1574.21 558.49C1574.8 559.8 1575.85 560.71 1577.36 560.71C1577.65 560.71 1577.96 560.68 1578.28 560.6C1580.17 560.18 1581.3 558.87 1582.07 557.49C1582.92 551.19 1587.72 546.07 1595.28 544.6C1596.33 544.4 1597.33 544.3 1598.29 544.3C1600.37 544.3 1602.21 544.74 1603.74 545.41C1604 545.26 1604.31 545.2 1604.71 545.12C1605.4 544.98 1606.08 544.92 1606.76 544.92C1608.74 544.92 1610.63 545.47 1612.35 546.36C1611.15 543.4 1611.54 540.61 1613.9 540.16C1613.94 540.16 1613.98 540.15 1614.02 540.15C1614.98 540.15 1618.02 541.7 1622.39 541.7C1622.72 541.7 1623.07 541.7 1623.41 541.67C1623.81 539.41 1624.76 537.45 1628.05 536.82C1628.67 536.7 1629.26 536.65 1629.8 536.65M1602.02 559.58C1602.37 559.58 1602.73 559.54 1603.11 559.45C1606 558.79 1606.34 556.32 1605.11 554.04C1604.73 553.33 1603.43 551.58 1601.13 551.58C1600.81 551.58 1600.46 551.61 1600.1 551.69C1597.44 552.25 1597 554.88 1598.1 557.02C1598.83 558.44 1600.19 559.57 1602.02 559.57M1472.75 583.01C1473.47 582.98 1474.16 582.83 1474.85 582.68C1478.97 581.78 1480.8 579.33 1480.57 578.11C1480.48 577.64 1480 577.33 1479.24 577.33C1479.02 577.33 1478.78 577.36 1478.51 577.41C1476.82 577.77 1473.32 580.04 1472.74 583.02M1653.84 570.22C1659.63 570.22 1666.57 572.86 1669.84 577.75C1670.78 579.16 1673.96 592.57 1679.65 604.36C1680.5 603.52 1681.2 602.62 1681.57 601.72C1682.29 600.08 1682.04 597.97 1682.87 597.65C1683.05 597.58 1683.25 597.55 1683.48 597.55C1685.73 597.55 1690 600.81 1692.14 603.94C1697.8 612.23 1696.61 618.48 1690.73 621.54L1691.88 623.3C1694.05 626.64 1696.02 627.03 1696.76 628.16C1698.69 631.11 1696.78 636.95 1690.33 640.16C1688.74 640.95 1686.86 641.36 1684.87 641.36C1679.21 641.36 1672.57 638.11 1668.53 631.22C1667.97 630.27 1667.42 629.33 1666.97 628.35C1664.54 628.83 1661.99 629.35 1659.78 630.31C1654.06 632.81 1654.9 635.02 1652.6 636.04C1652.18 636.23 1651.58 636.34 1651.09 636.4C1650.81 636.43 1650.52 636.44 1650.23 636.44C1645.72 636.44 1640 632.91 1636.71 626.61C1629.31 612.42 1638.5 573.9 1649.7 570.74C1650.95 570.39 1652.36 570.21 1653.84 570.21M1653.34 616.84C1655.09 615.46 1657.59 614.2 1660.12 613.07C1657.76 605.58 1655.55 596.43 1654.8 589.24C1652 598.4 1651.71 609.41 1653.34 616.84ZM1597.11 586.81C1610.28 586.81 1620.89 595.78 1627.96 609.32C1639.6 631.62 1640.35 664.36 1614.32 677.29C1608.95 679.96 1603.46 681.3 1598.12 681.3C1583.77 681.3 1570.52 671.61 1563.86 651.87C1554.57 624.32 1564.32 594.87 1588.37 588.07C1591.4 587.22 1594.31 586.81 1597.11 586.81ZM1602.36 643.37C1603.39 643.37 1604.4 643.16 1605.4 642.75C1613.19 639.54 1613.85 626.31 1607.94 613.74C1604.52 606.47 1600.76 603.37 1597.11 603.37C1596.41 603.37 1595.71 603.48 1595.03 603.7C1587.68 606.05 1585.43 619.37 1590.64 632.02C1593.86 639.82 1598.16 643.37 1602.37 643.37M1524.17 607.43C1532.75 607.43 1541.15 610.88 1543.27 617.57C1543.92 619.62 1540.99 639.88 1542.99 657.89C1544.86 656.47 1546.51 654.98 1547.63 653.53C1549.74 650.88 1550.59 647.59 1552.09 647.02C1552.48 646.87 1552.9 646.8 1553.33 646.8C1556.86 646.8 1561.55 651.42 1563.09 656.05C1567.3 668.69 1561.79 678.9 1550.5 684.54L1551.3 687.31C1552.82 692.59 1555.78 693.03 1556.31 694.81C1557.69 699.51 1551.05 709.59 1538.4 715.89C1534.64 717.77 1530.56 718.74 1526.62 718.74C1517.86 718.74 1509.85 713.89 1507.78 703.31C1507.48 701.77 1507.18 700.23 1507.07 698.62C1502.68 699.72 1498.04 700.92 1493.67 702.83C1482.23 707.82 1482.1 711.55 1477.45 713.61C1476.6 713.99 1475.5 714.26 1474.61 714.43C1473.72 714.59 1472.83 714.66 1471.96 714.66C1464.63 714.66 1457.97 709.27 1456.99 699.3C1454.71 676.15 1496.21 614.11 1515.94 608.53C1518.57 607.79 1521.38 607.42 1524.18 607.42M1492.02 680.89C1495.86 678.42 1500.85 676.07 1505.78 673.94C1506.8 662 1509.1 647.59 1512.47 636.38C1502.06 651.05 1494.32 668.83 1492.02 680.89ZM1629.8 503.6C1627.17 503.6 1624.5 503.85 1621.87 504.36C1618.75 504.96 1615.78 505.89 1613.01 507.12C1611.22 507.17 1609.44 507.37 1607.7 507.7C1604.12 508.39 1600.72 509.6 1597.6 511.26C1594.73 511.3 1591.84 511.6 1588.99 512.16C1584.18 513.09 1579.66 514.64 1575.52 516.7C1572.63 516.07 1569.61 515.74 1566.52 515.74C1563.68 515.74 1560.78 516.02 1557.89 516.57C1553.84 517.34 1550.05 518.61 1546.57 520.32C1546.18 520.31 1545.79 520.3 1545.39 520.3C1543.24 520.3 1541.08 520.5 1538.98 520.91C1536.31 521.42 1533.73 522.22 1531.28 523.27C1530.17 523.19 1529.05 523.14 1527.92 523.14C1524.95 523.14 1521.89 523.44 1518.81 524.02C1514.88 524.77 1510.35 526.12 1505.75 528.53C1504.91 528.47 1504.04 528.43 1503.12 528.43C1500.95 528.43 1498.79 528.63 1496.68 529.04C1492.82 529.78 1489.16 531.07 1485.78 532.85C1484.85 532.81 1483.91 532.79 1482.97 532.79C1478.72 532.79 1474.28 533.23 1469.78 534.09C1434.82 540.8 1409.79 570.82 1412.79 602.43C1414.06 615.78 1420.29 627.77 1430.34 636.19C1433.84 639.12 1437.71 641.55 1441.87 643.45C1431.4 661.89 1422.29 683.91 1424.13 702.54C1426.71 728.7 1446.82 747.68 1471.96 747.68C1474.74 747.68 1477.55 747.44 1480.31 746.95C1480.51 746.92 1480.71 746.88 1480.91 746.84C1484.57 746.13 1487.81 745.13 1490.83 743.8C1492.4 743.1 1493.84 742.36 1495.14 741.6C1504.1 748.25 1514.98 751.77 1526.63 751.77C1535.68 751.77 1544.84 749.58 1553.14 745.45C1563.33 740.37 1572.12 733.37 1578.56 725.19C1581.63 721.3 1584.07 717.25 1585.86 713.15C1589.86 713.93 1593.96 714.32 1598.13 714.32C1608.67 714.32 1619.06 711.81 1629.02 706.87C1645.14 698.86 1656.95 685.98 1663.38 669.45C1670.08 672.64 1677.41 674.38 1684.89 674.38C1691.97 674.38 1698.96 672.77 1705.08 669.71C1717.07 663.73 1725.83 653.36 1729.11 641.24C1731.16 633.68 1730.92 625.83 1728.56 618.71C1729.61 610.03 1728.3 598.34 1719.44 585.34C1715.65 579.78 1709.59 573.69 1702.04 569.54C1700.86 565.95 1699.59 562.79 1697.28 559.35C1694.37 555.02 1690.72 551.2 1686.51 548.02C1686.03 545.25 1685.34 542.43 1684.45 539.57C1682.49 533.29 1679.48 526.76 1676.6 522.52C1669.79 512.53 1658.63 506.57 1646.74 506.56C1646.19 506.56 1645.64 506.57 1645.1 506.6C1640.34 504.65 1635.17 503.6 1629.82 503.6H1629.8Z" fill="white"/>
</g>
</g>
<defs>
<linearGradient id="paint0_linear_186_134" x1="1103.48" y1="691.55" x2="1881.04" y2="691.55" gradientUnits="userSpaceOnUse">
<stop stop-color="#A3E8CF"/>
<stop offset="1" stop-color="#331DD1"/>
</linearGradient>
<linearGradient id="paint1_linear_186_134" x1="1479.42" y1="677.12" x2="1949.44" y2="803.86" gradientUnits="userSpaceOnUse">
<stop stop-color="#A3E8CF"/>
<stop offset="1" stop-color="#331DD1"/>
</linearGradient>
<linearGradient id="paint2_linear_186_134" x1="1335.67" y1="607.919" x2="1957.4" y2="775.56" gradientUnits="userSpaceOnUse">
<stop stop-color="#FFC800"/>
<stop offset="1" stop-color="#A3E8CF"/>
</linearGradient>
<linearGradient id="paint3_linear_186_134" x1="1429.05" y1="627.68" x2="1713.98" y2="627.68" gradientUnits="userSpaceOnUse">
<stop stop-color="#FFC800"/>
<stop offset="1" stop-color="#A3E8CF"/>
</linearGradient>
<clipPath id="clip0_186_134">
<rect width="2000" height="2000" fill="white"/>
</clipPath>
</defs>
</svg>
