<svg width="2000" height="2000" viewBox="0 0 2000 2000" fill="none" xmlns="http://www.w3.org/2000/svg">
<g clip-path="url(#clip0_356_39)">
<mask id="mask0_356_39" style="mask-type:luminance" maskUnits="userSpaceOnUse" x="0" y="0" width="2000" height="2000">
<path d="M2000 0H0V2000H2000V0Z" fill="white"/>
</mask>
<g mask="url(#mask0_356_39)">
<path d="M1542.09 827.09C1504.86 839.46 1406.22 763.27 1406.22 763.27L1465.75 776.16C1352.88 722.71 1248.6 616.02 1248.6 616.02L1300.14 610.75C1300.14 610.75 1250.38 594.2 1235.98 584.57C1205.34 564.08 1096.98 443.85 1244.09 437.36C1284.69 435.57 1327.75 456.6 1369.43 489.01L1388.2 537.53L1397.82 512.95C1509.14 613.86 1603.68 779.91 1603.68 779.91" fill="#A4FFDF"/>
<path d="M1470.86 785.54C1470.86 785.54 1511.22 800.74 1583.48 751.2L1592.27 765.63L1505.24 810.09L1470.85 785.54H1470.86Z" fill="#74CBA7"/>
<path d="M1535.35 806.81C1530.87 807.68 1513.64 802.04 1492.54 794.04C1472.49 786.43 1448.95 776.68 1429.51 768.32L1406.23 763.28C1406.23 763.28 1462.43 806.68 1506 822.64L1535.35 806.82V806.81Z" fill="#74CBA7"/>
<path d="M1222.44 441.27C1220.01 442.14 1195.51 446.56 1193.4 447.55L1177.87 458.6C1144.37 495.63 1212.67 568.98 1235.98 584.57C1241.84 588.49 1253.56 593.56 1265.41 598.19L1281.65 595.65C1188 519.81 1199.06 463.37 1222.44 441.26V441.27Z" fill="#74CBA7"/>
<path d="M1406.22 763.27C1406.22 763.27 1406.43 763.43 1406.72 763.66C1410.44 764.37 1414.14 765.08 1417.79 765.78L1406.21 763.27H1406.22Z" fill="#74CBA7"/>
<path d="M1301.62 615.07C1302.14 612.68 1297.26 613.54 1286.09 610.23L1248.59 608.81C1248.59 608.81 1349.97 719.5 1461 773.84C1471.92 775.78 1478.39 776.78 1476.98 776.14C1470.58 773.25 1296.87 636.81 1301.62 615.07Z" fill="#74CBA7"/>
<path d="M1542.09 827.09C1504.86 839.46 1406.22 763.27 1406.22 763.27L1465.75 776.16C1352.88 722.71 1248.6 616.02 1248.6 616.02L1300.14 610.75L1253.52 591.73C1241.16 586.69 1222.47 576.26 1206.84 565.15C1158.91 531.08 1143.53 431.35 1244.09 437.37C1283.03 439.7 1328.38 461.35 1364.9 485.94C1367.86 487.93 1370.12 490.8 1371.41 494.13L1388.2 537.54L1395.45 519.01C1396.59 516.1 1400.31 515.22 1402.6 517.34C1511.83 618.6 1603.68 779.92 1603.68 779.92" stroke="black" stroke-width="18.34" stroke-linecap="round" stroke-linejoin="round"/>
<path d="M1536.73 767.01C1536.73 767.01 1421.14 603.19 1295.13 533.58" stroke="black" stroke-width="18.34" stroke-linecap="round" stroke-linejoin="round"/>
<path d="M1659.34 853.76L1609.27 762.58C1609.27 762.58 1435.87 812.91 1508.74 905.08C1508.74 905.08 1556.58 835.55 1588.64 889.03" fill="#FF8EBE"/>
<path d="M1497.63 889.7C1499.67 892.98 1505.79 900 1508.47 903.4C1508.47 903.4 1549.59 838.9 1581.64 890.72L1596.7 875.33C1555.29 825.37 1512 856.35 1497.63 889.71V889.7Z" fill="#FF76BC"/>
<path d="M1659.34 853.76L1609.27 762.58C1609.27 762.58 1435.87 812.91 1508.74 905.08C1508.74 905.08 1556.58 835.55 1588.64 889.03" stroke="black" stroke-width="18.34" stroke-linecap="round" stroke-linejoin="round"/>
<path d="M1660.55 834.7C1660.55 834.7 1739.39 995.97 1735.5 1026.02C1730.43 1065.15 1667.08 1100.51 1622.8 1076.37C1622.8 1076.37 1674.46 1045.74 1633.02 987.99C1591.58 930.24 1566.35 896.25 1566.35 896.25C1566.35 896.25 1573.07 884.55 1609.24 860.89C1640.41 840.51 1660.55 834.7 1660.55 834.7Z" fill="#FF1A74"/>
<path d="M1622.8 1076.37C1626.33 1078.3 1629.99 1079.8 1633.72 1081C1651.16 1068.61 1663.58 1064.73 1671.61 1041.68C1685.07 1003.03 1615.02 919.41 1587.82 886.52C1580.74 893.07 1566.35 896.25 1566.35 896.25C1566.35 896.25 1591.58 930.25 1633.02 987.99C1674.46 1045.74 1622.8 1076.37 1622.8 1076.37Z" fill="#C10051"/>
<path d="M1723.2 988.23C1723.2 988.23 1691.48 1026.03 1651.78 1025.5L1723.2 988.23Z" fill="#FFC58A"/>
<path d="M1723.2 988.23C1723.2 988.23 1691.48 1026.03 1651.78 1025.5" stroke="black" stroke-width="18.34" stroke-linecap="round" stroke-linejoin="round"/>
<path d="M1660.55 834.7C1660.55 834.7 1739.39 995.97 1735.5 1026.02C1730.43 1065.15 1667.08 1100.51 1622.8 1076.37C1622.8 1076.37 1674.46 1045.74 1633.02 987.99C1591.58 930.24 1566.35 896.25 1566.35 896.25C1566.35 896.25 1573.07 884.55 1609.24 860.89C1640.41 840.51 1660.55 834.7 1660.55 834.7Z" stroke="black" stroke-width="18.34" stroke-linecap="round" stroke-linejoin="round"/>
</g>
</g>
<defs>
<clipPath id="clip0_356_39">
<rect width="2000" height="2000" fill="white"/>
</clipPath>
</defs>
</svg>
