<svg width="2000" height="2000" viewBox="0 0 2000 2000" fill="none" xmlns="http://www.w3.org/2000/svg">
<g clip-path="url(#clip0_25_183)">
<mask id="mask0_25_183" style="mask-type:luminance" maskUnits="userSpaceOnUse" x="0" y="0" width="2000" height="2000">
<path d="M2000 0H0V2000H2000V0Z" fill="white"/>
</mask>
<g mask="url(#mask0_25_183)">
<path d="M1229.83 479.16C1229.83 479.16 1374.42 463.8 1496.79 387.06C1496.79 387.06 1383.77 601.55 1229.83 479.16Z" fill="#066D00" stroke="black" stroke-width="18.34" stroke-linecap="round" stroke-linejoin="round"/>
<path d="M1204.51 480.71L1263.87 554.43C1263.87 554.43 1269.71 531.5 1287.12 532.61L1225.41 450C1225.41 450 1208.04 425.58 1204.51 480.7V480.71Z" fill="#7A4300" stroke="black" stroke-width="18.34" stroke-linecap="round" stroke-linejoin="round"/>
<path d="M1813.21 905.13C1823.37 965.31 1774.6 1019.44 1713.68 1015.78C1626.07 1010.51 1460.83 1002.98 1350.57 911.16C1236.81 816.42 1236.53 678.1 1223.65 596.09C1214.96 540.74 1255.98 490.12 1311.89 486.43C1397.3 480.79 1527.37 492.85 1642.58 588.8C1755.83 683.12 1797.81 813.91 1813.21 905.13Z" fill="#FFC600"/>
<path d="M1216.63 583.19C1216.82 585.86 1217.09 588.54 1217.52 591.24C1230.4 673.25 1230.68 811.57 1344.44 906.31C1454.69 998.13 1619.93 1005.66 1707.55 1010.93C1723.18 1011.87 1738 1008.98 1751.23 1003.19C1468.26 932.25 1290.04 699.31 1216.63 583.19Z" fill="#FDA100"/>
<path d="M1765.69 992.41C1772.98 988.08 1779.64 982.82 1785.5 976.78C1763.82 927.81 1604.42 585.71 1260.28 497.41C1255.22 501.4 1247.11 504.97 1242.97 509.87C1243.69 510.56 1244.54 511.15 1245.63 511.48C1320.31 534.17 1684.76 685.23 1765.69 992.42V992.41Z" fill="#FDA100"/>
<path d="M1258.6 511.23C1258.6 511.23 1697.9 636.04 1776.42 990.66" stroke="black" stroke-width="18.34" stroke-linecap="round" stroke-linejoin="round"/>
<path d="M1553.77 534.29C1369.51 546.08 1272.32 804.86 1272.32 804.86L1243.25 724.55C1243.25 724.55 1303.37 535.14 1486.2 504.91L1553.77 534.29Z" fill="white"/>
<path d="M1242.68 724.31L1271.74 804.62C1271.74 804.62 1285.4 768.23 1312.2 722.13C1297.58 705.06 1282.01 681.9 1270.65 663.99C1250.94 698.28 1242.67 724.32 1242.67 724.32L1242.68 724.31Z" fill="#B8B8B8"/>
<path d="M1245.28 727.47C1245.28 727.47 1303.38 535.15 1486.2 504.91" stroke="black" stroke-width="18.34" stroke-linecap="round" stroke-linejoin="round"/>
<path d="M1274.34 807.78C1274.34 807.78 1382.04 549.55 1566.31 537.77" stroke="black" stroke-width="18.34" stroke-linecap="round" stroke-linejoin="round"/>
<path d="M1765.86 770.7C1607.88 780.68 1504.26 984.75 1504.26 984.75L1446.07 963.53C1446.07 963.53 1558.97 714.02 1748.24 717.95L1765.86 770.7Z" fill="white"/>
<path d="M1447.16 965.63L1505.65 985.99C1505.65 985.99 1519.45 957.8 1544.83 921.68C1522.89 910.52 1504.88 898.11 1491.09 887.14C1462.31 930.8 1447.15 965.63 1447.15 965.63H1447.16Z" fill="#B8B8B8"/>
<path d="M1446.07 963.53C1446.07 963.53 1518.65 749.29 1742.51 709.23" stroke="black" stroke-width="18.34" stroke-linecap="round" stroke-linejoin="round"/>
<path d="M1504.25 984.75C1504.25 984.75 1572.07 817.73 1765.85 770.7" stroke="black" stroke-width="18.34" stroke-linecap="round" stroke-linejoin="round"/>
<path d="M1813.21 905.13C1823.37 965.31 1774.6 1019.44 1713.68 1015.78C1626.07 1010.51 1460.83 1002.98 1350.57 911.16C1236.81 816.42 1236.53 678.1 1223.65 596.09C1214.96 540.74 1255.98 490.12 1311.89 486.43C1397.3 480.79 1527.37 492.85 1642.58 588.8C1755.83 683.12 1797.81 813.91 1813.21 905.13Z" stroke="black" stroke-width="18.34" stroke-miterlimit="10"/>
<path d="M1455.93 630.33C1455.93 630.33 1482.82 604.46 1506.99 601.21L1455.93 630.33Z" fill="#FFC600"/>
<path d="M1455.93 630.33C1455.93 630.33 1482.82 604.46 1506.99 601.21" stroke="black" stroke-width="18.34" stroke-linecap="round" stroke-linejoin="round"/>
<path d="M1497.9 660.8C1497.9 660.8 1524.79 634.93 1548.96 631.68L1497.9 660.8Z" fill="#FFC600"/>
<path d="M1497.9 660.8C1497.9 660.8 1524.79 634.93 1548.96 631.68" stroke="black" stroke-width="18.34" stroke-linecap="round" stroke-linejoin="round"/>
<path d="M1537.08 692.9C1537.08 692.9 1563.97 667.03 1588.14 663.78L1537.08 692.9Z" fill="#FFC600"/>
<path d="M1537.08 692.9C1537.08 692.9 1563.97 667.03 1588.14 663.78" stroke="black" stroke-width="18.34" stroke-linecap="round" stroke-linejoin="round"/>
<path d="M1576.26 724.99C1576.26 724.99 1603.15 699.12 1627.32 695.87L1576.26 724.99Z" fill="#FFC600"/>
<path d="M1576.26 724.99C1576.26 724.99 1603.15 699.12 1627.32 695.87" stroke="black" stroke-width="18.34" stroke-linecap="round" stroke-linejoin="round"/>
</g>
</g>
<defs>
<clipPath id="clip0_25_183">
<rect width="2000" height="2000" fill="white"/>
</clipPath>
</defs>
</svg>
