<svg width="2000" height="2000" viewBox="0 0 2000 2000" fill="none" xmlns="http://www.w3.org/2000/svg">
<g clip-path="url(#clip0_28_374)">
<mask id="mask0_28_374" style="mask-type:luminance" maskUnits="userSpaceOnUse" x="0" y="0" width="2000" height="2000">
<path d="M2000 0H0V2000H2000V0Z" fill="white"/>
</mask>
<g mask="url(#mask0_28_374)">
<path d="M1183.01 654.35C1216.93 690.98 1235.42 799.2 1235.42 799.2C1235.42 947.83 1355.91 1068.32 1504.54 1068.32C1653.17 1068.32 1773.66 947.83 1773.66 799.2C1773.66 799.2 1790.38 690.98 1824.29 654.35L1773.66 660.3V609.38H1235.42V667.36L1183.01 654.36V654.35Z" fill="#FF1B1A"/>
<path d="M1651.83 934.57C1651.83 963.01 1658.72 989.35 1670.43 1011.03C1732.34 962.48 1772.41 887.43 1773.56 802.92C1767.65 801.56 1761.57 800.82 1755.36 800.82C1698.18 800.82 1651.83 860.7 1651.83 934.57Z" fill="white"/>
<path d="M1503.65 945.58C1560.83 945.58 1607.18 905.729 1607.18 856.57C1607.18 807.411 1560.83 767.56 1503.65 767.56C1446.47 767.56 1400.12 807.411 1400.12 856.57C1400.12 905.729 1446.47 945.58 1503.65 945.58Z" fill="white"/>
<path d="M1310.44 678.55C1310.44 650.61 1295.45 625.69 1272.03 609.37H1235.42V667.35L1183.01 654.35C1204.75 677.82 1220.13 730.67 1228.39 765.63C1275.26 757.12 1310.44 721.38 1310.44 678.55Z" fill="white"/>
<path d="M1363.18 937.52C1338.15 886.52 1288.58 857.51 1243.14 863.25C1261.08 936.7 1309.13 998.31 1373.5 1034.27C1381.89 1004.84 1379.1 969.97 1363.18 937.52Z" fill="white"/>
<path d="M1459.9 1071.99C1474.71 1074.51 1489.9 1075.9 1505.42 1075.9C1654.05 1075.9 1774.54 955.41 1774.54 806.78C1774.54 806.78 1791.26 698.56 1825.17 661.93L1774.54 667.88V616.96H1746.31C1725.61 680.22 1705.25 755.74 1691.35 838.87C1672.55 951.29 1564.61 1025.56 1459.89 1072.01L1459.9 1071.99Z" fill="#E41516"/>
<path d="M1746.07 800.29C1727.05 800.29 1709.25 806.94 1693.93 818.5C1689.11 843.19 1674.1 856.63 1661.64 877.69C1655.15 894.03 1652.58 918.81 1642.55 933.32C1642.55 933.56 1642.54 933.8 1642.54 934.04C1642.54 960.07 1648.37 984.31 1658.33 1004.85C1679.19 990.92 1697.96 974.14 1714.15 955.09C1738.49 921.1 1755.1 881.21 1761.42 837.96C1762.21 829.55 1762.66 821.03 1762.66 812.42C1762.66 812.42 1763.2 808.97 1764.25 803.16C1764.25 802.9 1764.27 802.64 1764.27 802.39C1758.36 801.03 1752.28 800.29 1746.07 800.29Z" fill="#C7C7C7"/>
<path d="M1183.01 654.35C1216.93 690.98 1235.42 799.2 1235.42 799.2C1235.42 947.83 1355.91 1068.32 1504.54 1068.32C1653.17 1068.32 1773.66 947.83 1773.66 799.2C1773.66 799.2 1790.38 690.98 1824.29 654.35L1773.66 660.3V609.38H1235.42V667.36L1183.01 654.36V654.35Z" stroke="black" stroke-width="18.34" stroke-miterlimit="10"/>
<path d="M1651.83 934.57C1651.83 963.01 1658.72 989.35 1670.43 1011.03C1732.34 962.48 1772.41 887.43 1773.56 802.92C1767.65 801.56 1761.57 800.82 1755.36 800.82C1698.18 800.82 1651.83 860.7 1651.83 934.57Z" stroke="black" stroke-width="18.34" stroke-linecap="round" stroke-linejoin="round"/>
<path d="M1503.65 945.58C1560.83 945.58 1607.18 905.729 1607.18 856.57C1607.18 807.411 1560.83 767.56 1503.65 767.56C1446.47 767.56 1400.12 807.411 1400.12 856.57C1400.12 905.729 1446.47 945.58 1503.65 945.58Z" stroke="black" stroke-width="18.34" stroke-linecap="round" stroke-linejoin="round"/>
<path d="M1310.44 678.55C1310.44 650.61 1295.45 625.69 1272.03 609.37H1235.42V667.35L1183.01 654.35C1204.75 677.82 1220.13 730.67 1228.39 765.63C1275.26 757.12 1310.44 721.38 1310.44 678.55Z" stroke="black" stroke-width="18.34" stroke-linecap="round" stroke-linejoin="round"/>
<path d="M1363.18 937.52C1338.15 886.52 1288.58 857.51 1243.14 863.25C1261.08 936.7 1309.13 998.31 1373.5 1034.27C1381.89 1004.84 1379.1 969.97 1363.18 937.52Z" stroke="black" stroke-width="18.34" stroke-linecap="round" stroke-linejoin="round"/>
<path d="M1150.18 607.54C1150.18 546.87 1304.14 497.69 1499.85 497.69C1695.56 497.69 1858.9 546.87 1858.9 607.54C1858.9 668.21 1695.55 717.39 1499.85 717.39C1304.15 717.39 1150.18 668.21 1150.18 607.54Z" fill="#E41516" stroke="black" stroke-width="18.34" stroke-miterlimit="10"/>
<path d="M1246.67 595.97C1246.67 567.83 1358.32 545.02 1500.25 545.02C1642.18 545.02 1760.63 567.83 1760.63 595.97C1760.63 624.11 1642.17 646.92 1500.25 646.92C1358.33 646.92 1246.67 624.11 1246.67 595.97Z" fill="#420303" stroke="black" stroke-width="18.34" stroke-miterlimit="10"/>
</g>
</g>
<defs>
<clipPath id="clip0_28_374">
<rect width="2000" height="2000" fill="white"/>
</clipPath>
</defs>
</svg>
