<svg width="2000" height="2000" viewBox="0 0 2000 2000" fill="none" xmlns="http://www.w3.org/2000/svg">
<g clip-path="url(#clip0_1_527)">
<mask id="mask0_1_527" style="mask-type:luminance" maskUnits="userSpaceOnUse" x="0" y="0" width="2000" height="2000">
<path d="M2000 0H0V2000H2000V0Z" fill="white"/>
</mask>
<g mask="url(#mask0_1_527)">
<path d="M1858.31 874.25C1852.11 884.96 1845.28 895.29 1837.84 905.2C1831.22 901.31 1821.52 901.94 1813.36 907.4C1802.74 914.49 1798.76 927.16 1804.43 935.65C1805.41 937.1 1806.6 938.35 1807.96 939.33C1769.98 976.75 1721.73 1004.67 1666.33 1018.2C1551.31 1046.3 1433.83 1003.42 1360.98 918.47C1360.98 918.44 1360.95 918.44 1360.92 918.41C1353.23 909.45 1346.05 899.98 1339.44 890.1C1338.88 889.3 1338.34 888.5 1337.81 887.7C1318.82 858.83 1304.52 826.33 1296.27 791.02C1289.03 759.98 1286.77 728.97 1289 698.79V698.76C1290.42 679.41 1293.69 660.42 1298.67 641.99C1298.67 641.96 1298.7 641.93 1298.7 641.9C1313.63 586.71 1343.83 536.68 1385.56 497.77C1408.41 476.46 1445.47 492.76 1445.5 524C1445.5 546.23 1447.96 568.78 1453.07 591.36C1490.25 755.96 1653.84 859.26 1818.42 822.08C1818.69 822.02 1818.95 821.96 1819.19 821.9C1849.58 814.96 1873.94 847.24 1858.33 874.24L1858.31 874.25Z" fill="#FFBD00"/>
<path d="M1441.44 696.29C1445.72 708.65 1451.19 735.13 1451.19 735.13C1451.19 735.13 1443.56 717.23 1406.72 721.81C1391.96 723.68 1372.51 729.14 1347 740.81C1293.51 727.46 1281.56 711.57 1291.26 661.89C1321.34 574.6 1372.53 516.94 1372.53 516.94C1373.83 515.28 1375.16 513.52 1376.48 511.79C1385.51 500.17 1395.48 489.76 1408.03 511.26C1422.43 535.93 1437.15 683.93 1441.44 696.28V696.29Z" fill="#FAEEBD"/>
<path d="M1441.44 696.29C1445.72 708.65 1451.19 735.13 1451.19 735.13C1451.19 735.13 1443.56 717.23 1406.72 721.81C1405.18 646.35 1400.22 564.99 1376.49 511.79C1385.52 500.17 1395.49 489.76 1408.04 511.26C1422.44 535.93 1437.16 683.93 1441.45 696.28L1441.44 696.29Z" fill="#DDDD92"/>
<path d="M1360.98 918.46C1344.87 876.32 1406.71 721.81 1491.01 776.15C1479.43 752.26 1425.27 741.09 1350.09 843.56C1330.67 886.6 1339.2 889.79 1339.2 889.79L1360.98 918.46Z" fill="#E58800"/>
<path d="M1858.31 874.25C1852.11 884.96 1845.28 895.29 1837.84 905.2C1831.22 901.31 1821.52 901.94 1813.36 907.4C1802.74 914.49 1798.76 927.16 1804.43 935.65C1805.41 937.1 1806.6 938.35 1807.96 939.33C1769.98 976.75 1721.73 1004.67 1666.33 1018.2C1551.31 1046.3 1433.83 1003.42 1360.98 918.47C1360.98 918.44 1360.95 918.44 1360.92 918.41C1353.23 909.45 1346.05 899.98 1339.44 890.1C1338.88 889.3 1338.34 888.5 1337.81 887.7C1318.82 858.83 1304.52 826.33 1296.27 791.02C1289.03 759.98 1286.77 728.97 1289 698.79V698.76C1290.42 679.41 1293.69 660.42 1298.67 641.99C1298.67 641.96 1298.7 641.93 1298.7 641.9C1313.63 586.71 1343.83 536.68 1385.56 497.77C1408.41 476.46 1445.47 492.76 1445.5 524C1445.5 546.23 1447.96 568.78 1453.07 591.36C1490.25 755.96 1653.84 859.26 1818.42 822.08C1818.69 822.02 1818.95 821.96 1819.19 821.9C1849.58 814.96 1873.94 847.24 1858.33 874.24L1858.31 874.25Z" stroke="black" stroke-width="18.34" stroke-linecap="round" stroke-linejoin="round"/>
<path d="M1485.47 767.02C1479.91 757.9 1469.8 755.29 1418.73 774.43C1334.67 806.47 1323.92 911.45 1321.79 990.33C1303.75 1050.81 1233.7 964.78 1208.98 896.2C1185.51 830.95 1216.76 744.13 1264.65 715.48C1267.09 714.02 1269.59 712.69 1272.13 711.54L1282.17 709.27C1292.18 707.01 1304.44 738.77 1355.6 736.43C1452.63 684.66 1491.03 776.14 1485.48 767.02H1485.47Z" fill="#FFBC00"/>
<path d="M1485.47 767.02C1479.91 757.9 1469.8 755.29 1418.73 774.43C1334.67 806.47 1323.92 911.45 1321.79 990.33C1284.82 946.02 1320.2 856.23 1348.46 800.4C1358.54 780.48 1347.49 756.52 1325.83 751.13C1300.43 744.82 1291.26 738.77 1272.13 711.54L1282.17 709.27C1292.18 707.01 1304.44 738.77 1355.6 736.43C1452.63 684.66 1491.03 776.14 1485.48 767.02H1485.47Z" fill="#E58800"/>
<path d="M1485.47 767.02C1396.88 734.75 1306.48 877.09 1321.98 967.12C1337.48 1057.15 1192.08 974.77 1202.89 828.44C1208.76 748.94 1253.16 715.76 1288.59 705.1C1288.59 705.1 1297.5 749.6 1362.84 733.13" stroke="black" stroke-width="18.34" stroke-linecap="round" stroke-linejoin="round"/>
<path d="M1754.1 860.54C1667.76 886.6 1570.07 871.65 1485.47 767.03C1485.47 767.03 1454.52 689.16 1355.61 736.43C1256.7 783.7 1264.1 886.48 1264.1 886.48" stroke="black" stroke-width="18.34" stroke-linecap="round" stroke-linejoin="round"/>
<path d="M1385.54 497.78C1385.54 497.78 1426.12 494.51 1431.56 632.33C1433.43 679.72 1444.92 717.83 1462.66 737.71" stroke="black" stroke-width="18.34" stroke-linecap="round" stroke-linejoin="round"/>
<path d="M1607.49 994.15C1607.49 994.15 1608.25 1011.54 1623.91 1017.5C1639.57 1023.46 1642.09 1057.25 1645.45 1058.03C1648.81 1058.81 1707.82 1054.99 1710.24 1031.73C1712.66 1008.46 1722.46 986.6 1730.11 982.41C1737.76 978.22 1718.48 944.51 1718.48 944.51L1641.59 954.82L1607.49 994.15Z" fill="#FFBC00"/>
<path d="M1676.92 1056.62C1693.72 1052.57 1705.77 1042.77 1703.83 1034.74C1701.89 1026.7 1686.7 1023.48 1669.9 1027.54C1653.09 1031.59 1641.04 1041.39 1642.98 1049.42C1644.92 1057.46 1660.11 1060.68 1676.92 1056.62Z" fill="#E58800"/>
<path d="M1676.92 1056.62C1693.72 1052.57 1705.77 1042.77 1703.83 1034.74C1701.89 1026.7 1686.7 1023.48 1669.9 1027.54C1653.09 1031.59 1641.04 1041.39 1642.98 1049.42C1644.92 1057.46 1660.11 1060.68 1676.92 1056.62Z" stroke="black" stroke-width="18.34" stroke-miterlimit="10"/>
<path d="M1642.92 1049.58C1642.92 1049.58 1641.19 1012.08 1611.22 1016.66" stroke="black" stroke-width="18.34" stroke-miterlimit="10" stroke-linecap="round"/>
<path d="M1703.79 1034.89C1703.79 1034.89 1703.79 1001.31 1728.84 988.38" stroke="black" stroke-width="18.34" stroke-miterlimit="10" stroke-linecap="round"/>
<path d="M1701.31 891.42C1710.6 880.11 1720.56 854.96 1723.63 828.42C1736.11 808.53 1785.67 802.63 1792.86 828.62C1792.66 854.68 1798.91 858.25 1831.03 857.73C1863.15 857.21 1802.54 898.39 1802.54 898.39C1802.54 898.39 1677.71 924.84 1681.09 922.32C1684.47 919.8 1701.31 891.43 1701.31 891.43V891.42Z" fill="#FFBC00"/>
<path d="M1758.84 844.595C1775.82 841.318 1788.31 832.084 1786.74 823.972C1785.17 815.86 1770.14 811.94 1753.17 815.218C1736.2 818.496 1723.71 827.729 1725.28 835.841C1726.84 843.954 1741.87 847.873 1758.84 844.595Z" fill="#E58800"/>
<path d="M1758.84 844.595C1775.82 841.318 1788.31 832.084 1786.74 823.972C1785.17 815.86 1770.14 811.94 1753.17 815.218C1736.2 818.496 1723.71 827.729 1725.28 835.841C1726.84 843.954 1741.87 847.873 1758.84 844.595Z" stroke="black" stroke-width="18.34" stroke-miterlimit="10"/>
<path d="M1786.77 823.89C1786.77 823.89 1786.77 861.43 1816.93 858.23" stroke="black" stroke-width="18.34" stroke-miterlimit="10" stroke-linecap="round"/>
<path d="M1725.29 835.77C1725.29 835.77 1725.32 861.78 1708.82 872.8" stroke="black" stroke-width="18.34" stroke-miterlimit="10" stroke-linecap="round"/>
<path d="M1770.46 841.11C1772.05 842.79 1772.1 869.01 1789.14 874.05" stroke="black" stroke-width="18.34" stroke-miterlimit="10" stroke-linecap="round"/>
<path d="M1409.88 847.12C1397.87 885.64 1378.08 913.75 1369.59 924.42C1361.1 935.09 1382.76 991.44 1400.52 985.03C1418.28 978.62 1438.69 947.31 1466.4 978.17C1494.11 1009.03 1547.94 929.38 1542.93 923.33C1537.92 917.28 1492.03 882.7 1490.13 881.13C1488.23 879.56 1409.88 847.11 1409.88 847.11V847.12Z" fill="#FFBD00"/>
<path d="M1401.71 935.5C1393.73 921.11 1382.67 914.18 1375.69 918.53C1368.28 923.15 1366.67 939.68 1373.43 957.55C1381.43 978.72 1396.74 991.18 1405.48 982.28C1413.55 974.06 1410.96 952.21 1401.7 935.5H1401.71Z" fill="#E58800"/>
<path d="M1401.71 935.5C1393.73 921.11 1382.67 914.18 1375.69 918.53C1368.28 923.15 1366.67 939.68 1373.43 957.55C1381.43 978.72 1396.74 991.18 1405.48 982.28C1413.55 974.06 1410.96 952.21 1401.7 935.5H1401.71Z" stroke="black" stroke-width="18.34" stroke-miterlimit="10"/>
<path d="M1405.49 982.27C1405.49 982.27 1440.06 940.46 1464.22 970.9" stroke="black" stroke-width="18.34" stroke-miterlimit="10" stroke-linecap="round"/>
<path d="M1375.7 918.52C1375.7 918.52 1394.09 902.71 1392.7 889.1" stroke="black" stroke-width="18.34" stroke-miterlimit="10" stroke-linecap="round"/>
<path d="M1407.02 947.68C1409.38 947.49 1426.31 926.31 1441.34 934.5" stroke="black" stroke-width="18.34" stroke-miterlimit="10" stroke-linecap="round"/>
<path d="M1540.44 932.62C1570.73 950.56 1617.73 944.51 1617.73 944.51" stroke="black" stroke-width="18.34" stroke-linecap="round" stroke-linejoin="round"/>
<path d="M1575.67 910.8C1597.47 918.51 1631.3 915.91 1631.3 915.91" stroke="black" stroke-width="18.34" stroke-linecap="round" stroke-linejoin="round"/>
<path d="M1451.09 784.79C1436.12 784.88 1420.48 797.47 1420.48 797.47" stroke="black" stroke-width="18.34" stroke-linecap="round" stroke-linejoin="round"/>
<path d="M1523.13 839.194C1533.75 832.084 1537.75 819.431 1532.06 810.931C1526.37 802.432 1513.15 801.305 1502.53 808.414C1491.91 815.523 1487.91 828.177 1493.6 836.676C1499.29 845.176 1512.52 846.303 1523.13 839.194Z" fill="#FFBD00" stroke="black" stroke-width="18.34" stroke-linecap="round" stroke-linejoin="round"/>
<path d="M1755.54 945.725C1758.46 935.923 1747.38 923.973 1730.81 919.034C1714.23 914.095 1698.42 918.038 1695.5 927.84C1692.58 937.643 1703.65 949.593 1720.23 954.532C1736.81 959.471 1752.61 955.528 1755.54 945.725Z" fill="#FFBD00" stroke="black" stroke-width="18.34" stroke-linecap="round" stroke-linejoin="round"/>
<path d="M1575.39 803.83C1588.41 815.85 1620.32 832.17 1639.58 834.86" stroke="black" stroke-width="18.34" stroke-linecap="round" stroke-linejoin="round"/>
</g>
</g>
<defs>
<clipPath id="clip0_1_527">
<rect width="2000" height="2000" fill="white"/>
</clipPath>
</defs>
</svg>
