<svg width="2000" height="2000" viewBox="0 0 2000 2000" fill="none" xmlns="http://www.w3.org/2000/svg">
<g clip-path="url(#clip0_409_6)">
<mask id="mask0_409_6" style="mask-type:luminance" maskUnits="userSpaceOnUse" x="0" y="0" width="2000" height="2000">
<path d="M2000 0H0V2000H2000V0Z" fill="white"/>
</mask>
<g mask="url(#mask0_409_6)">
<path d="M1210.18 620.45C1185.38 621.31 1170.78 614.09 1167.55 649.67C1164.32 685.25 1170.01 793.82 1174.41 810.99C1178.82 828.16 1167.71 935.05 1164.13 964.53C1160.55 994.01 1159.91 1062.78 1198.18 1035.89C1341.85 1001.5 1402.27 1015.71 1458.03 1025.01C1513.79 1034.3 1720.12 1062.88 1768.98 1059.13C1817.84 1055.38 1839.1 1065.22 1840.88 1018.84C1835.17 952.32 1811.72 801.03 1821.55 747.12C1831.38 693.21 1846.42 646.63 1847.82 637.5C1849.23 628.37 1862.47 611.7 1824.46 620.38C1786.45 629.06 1675.42 617.68 1557.83 599.48C1445.86 588.77 1210.18 620.45 1210.18 620.45Z" fill="#DA495D"/>
<path d="M1164.12 741.65C1225.78 775.96 1480.24 751.16 1590.49 759.55C1700.74 767.94 1824.8 759.55 1824.8 759.55C1824.8 759.55 1820.95 815.87 1824.1 837.44C1705.03 813.47 1536.93 804.34 1453.05 811.53C1369.16 818.72 1174.41 810.98 1174.41 810.98L1164.12 741.64V741.65Z" fill="#F7E3D6"/>
<path d="M1175.98 879.72C1233.81 849.98 1743.11 901.63 1777.86 895.28C1812.61 888.94 1822.78 894.86 1822.78 894.86L1829.39 940.59C1829.39 940.59 1676 943.31 1590.92 932.43C1505.84 921.56 1208.64 916.12 1170.29 930.62C1176.3 904.39 1175.98 879.72 1175.98 879.72Z" fill="#F7E3D6"/>
<path d="M1165.93 995.89C1242.98 953.41 1487.02 983.2 1572.94 995.89C1651.18 1007.45 1718.42 995.89 1718.42 995.89C1718.42 995.89 1833.46 979.22 1835.36 1005.21C1837.26 1031.21 1862.57 1054.58 1803.31 1056.53C1685.7 1056.52 1531.72 1046.58 1491.08 1033.55C1433.81 1015.19 1335.05 1035.42 1260.4 1041.24C1210.75 1044.06 1158.08 1055.81 1166.61 1015.19C1170.38 999.78 1165.93 995.88 1165.93 995.88V995.89Z" fill="#F7E3D6"/>
<path d="M1831.37 693.2C1812.9 812.6 1837.26 1023.07 1837.26 1023.07C1837.26 1023.07 1848.52 1043.14 1872.8 931.85C1897.08 820.57 1860.71 634.37 1860.71 634.37C1860.71 634.37 1857.81 587.45 1831.37 693.2Z" fill="#B32C43"/>
<path d="M1327.79 642.52C1446.38 634.57 1514.62 630.59 1635.87 642.52C1757.11 654.45 1841.34 652.21 1841.34 652.21C1841.34 652.21 1828.07 699.58 1824.81 723.35C1743.86 708.11 1626.6 692.87 1519.93 695.52C1413.26 698.17 1165.71 706.74 1165.71 706.74L1170.31 644.87C1220.83 646.69 1327.8 642.52 1327.8 642.52H1327.79Z" fill="#F7E3D6"/>
<path d="M1856.36 610.34C1856.36 610.34 1806.72 638.48 1671.41 615.23C1536.1 591.98 1418.77 598.1 1320.99 610.34C1223.21 622.58 1173.43 621.35 1173.43 621.35C1146.51 722.9 1188.11 810.64 1173.43 886.86C1158.75 963.08 1170.14 1043.47 1170.14 1043.47C1294.62 1049.59 1365.53 1014.1 1496.45 1030.01C1627.37 1045.92 1761.96 1067.94 1835.37 1049.59" stroke="black" stroke-width="18.34" stroke-linecap="round" stroke-linejoin="round"/>
<path d="M1856.36 610.34C1784.17 779.44 1848.82 981.07 1835.36 1049.59C1918.56 916.22 1856.36 610.34 1856.36 610.34Z" stroke="black" stroke-width="18.34" stroke-linecap="round" stroke-linejoin="round"/>
<path d="M1265.14 685.61C1207.83 834.63 1268.35 964.53 1268.35 964.53" stroke="black" stroke-width="18.34" stroke-linecap="round" stroke-linejoin="round"/>
<path d="M1762.85 685.61C1713.05 885.63 1766.06 995.17 1766.06 995.17" stroke="black" stroke-width="18.34" stroke-linecap="round" stroke-linejoin="round"/>
</g>
</g>
<defs>
<clipPath id="clip0_409_6">
<rect width="2000" height="2000" fill="white"/>
</clipPath>
</defs>
</svg>
