<svg width="2000" height="2000" viewBox="0 0 2000 2000" fill="none" xmlns="http://www.w3.org/2000/svg">
<g clip-path="url(#clip0_356_99)">
<mask id="mask0_356_99" style="mask-type:luminance" maskUnits="userSpaceOnUse" x="0" y="0" width="2000" height="2000">
<path d="M2000 0H0V2000H2000V0Z" fill="white"/>
</mask>
<g mask="url(#mask0_356_99)">
<path d="M1415.31 864.82C1410.51 870.67 1211.49 766.55 1167.79 862.77C1145.75 911.3 1396.73 974.81 1446.98 1004.64C1481.15 1024.92 1537.05 990.14 1538.85 925.26C1540.65 860.38 1415.3 864.83 1415.3 864.83L1415.31 864.82Z" fill="#1B6337" stroke="black" stroke-width="18.34" stroke-linecap="round" stroke-linejoin="round"/>
<path d="M1512.14 949.546C1520.33 924.577 1517.35 901.18 1505.48 897.286C1493.61 893.393 1477.35 910.477 1469.16 935.446C1460.97 960.415 1463.95 983.813 1475.82 987.706C1487.69 991.6 1503.95 974.515 1512.14 949.546Z" fill="#2D9F59"/>
<path d="M1509.53 881.71C1503.35 881.54 1447.3 914.08 1470.19 967.82" stroke="black" stroke-width="18.34" stroke-linecap="round" stroke-linejoin="round"/>
<path d="M1603.75 752.19C1599.26 756.8 1484.48 757.81 1465.94 770.32C1407.52 809.76 1591.64 866.27 1624.54 887.66C1652.86 906.07 1704.3 869.64 1704.04 812.3C1703.8 759.92 1603.74 752.19 1603.74 752.19H1603.75Z" fill="#1B6337" stroke="black" stroke-width="18.34" stroke-linecap="round" stroke-linejoin="round"/>
<path d="M1678.7 836.748C1686.15 814.041 1682.56 792.477 1670.69 788.584C1658.82 784.69 1643.16 799.941 1635.71 822.648C1628.26 845.355 1631.85 866.92 1643.72 870.813C1655.59 874.707 1671.25 859.456 1678.7 836.748Z" fill="#2D9F59"/>
<path d="M1638.64 852.85C1638.64 852.85 1623.62 802.78 1682.15 783.28" stroke="black" stroke-width="18.34" stroke-linecap="round" stroke-linejoin="round"/>
<path d="M1420 573.86C1420 573.86 1384.53 514.69 1433.8 485.75C1531.03 428.62 1818.3 512.78 1850.37 632.08C1872.46 714.25 1753.75 727.48 1753.75 727.48C1753.75 727.48 1331.48 1088.7 1099.45 902.62C1025.29 843.15 1309.46 818.61 1420.01 573.85L1420 573.86Z" fill="#FF9733"/>
<path d="M1753.75 727.48C1753.75 727.48 1872.46 714.24 1850.37 632.08C1847.11 619.94 1841.16 608.17 1833.08 596.86C1840.52 682.98 1717.96 694.68 1717.96 694.68C1524.81 879.88 1236.59 881.92 1103.93 859.64C1084.98 874.53 1080.51 887.44 1099.45 902.63C1331.48 1088.71 1753.75 727.49 1753.75 727.49V727.48Z" fill="#D86C01"/>
<path d="M1417.58 563.69C1343.84 754.62 1149.78 815.07 1096.21 858.55L1106.64 870.4C1106.64 870.4 1179.18 927.34 1246.24 906.98C1313.3 886.61 1372.62 906.8 1398.98 887.72C1425.34 868.64 1718.86 755.33 1703.56 683.27L1494.78 593.3L1446.45 593.78C1448.67 598.76 1417.59 563.7 1417.59 563.7L1417.58 563.69Z" fill="#FFF700"/>
<path d="M1420 573.86C1420 573.86 1384.53 514.69 1433.8 485.75C1531.03 428.62 1818.3 512.78 1850.37 632.08C1872.46 714.25 1753.75 727.48 1753.75 727.48C1753.75 727.48 1331.48 1088.7 1099.45 902.62C1025.29 843.15 1309.46 818.61 1420.01 573.85L1420 573.86Z" stroke="black" stroke-width="18.34" stroke-linecap="round" stroke-linejoin="round"/>
<path d="M1420 573.86C1426.66 585.32 1453.44 606.23 1486.33 592.09" stroke="black" stroke-width="18.34" stroke-linecap="round" stroke-linejoin="round"/>
<path d="M1489.78 548.78C1489.78 548.78 1470.19 623.03 1584.98 626.53" stroke="black" stroke-width="18.34" stroke-linecap="round" stroke-linejoin="round"/>
<path d="M1584.99 585.34C1584.99 585.34 1538.88 628.82 1676.76 665.22" stroke="black" stroke-width="18.34" stroke-linecap="round" stroke-linejoin="round"/>
<path d="M1728.48 701.62C1663.3 687.16 1678.23 628.82 1678.23 628.82" stroke="black" stroke-width="18.34" stroke-linecap="round" stroke-linejoin="round"/>
<path d="M1706.97 586.14C1709.3 583.67 1751.45 541.29 1792.52 556.14" stroke="black" stroke-width="18.34" stroke-linecap="round" stroke-linejoin="round"/>
<path d="M1584.99 521.63C1587.32 519.16 1621.18 476.52 1662.25 491.38" stroke="black" stroke-width="18.34" stroke-linecap="round" stroke-linejoin="round"/>
<path d="M1757.48 682.28C1749.35 675.25 1794.36 615.39 1810.17 623.84C1838.99 639.23 1790.02 710.43 1757.48 682.28Z" fill="#83480E" stroke="black" stroke-width="18.34" stroke-linecap="round" stroke-linejoin="round"/>
<path d="M1091.91 871.33C1091.91 871.33 1179.18 927.34 1246.24 906.98C1313.3 886.62 1372.62 906.8 1398.98 887.72C1425.34 868.64 1705.62 765.56 1705.98 693.44" stroke="black" stroke-width="18.34" stroke-linecap="round" stroke-linejoin="round"/>
<path d="M1350.17 825.61C1349.96 805.11 1366.41 788.32 1386.91 788.11C1407.41 787.9 1424.2 804.35 1424.41 824.85C1424.62 845.35 1407.96 841.38 1387.46 841.59C1366.96 841.8 1350.38 846.11 1350.17 825.61Z" fill="#F2100F" stroke="black" stroke-width="18.34" stroke-linecap="round" stroke-linejoin="round"/>
<path d="M1489.98 668.62C1493.73 688.78 1480.44 708.16 1460.28 711.91C1440.12 715.66 1420.74 702.37 1416.99 682.21C1413.24 662.05 1430.33 663.08 1450.49 659.33C1470.65 655.58 1486.23 648.46 1489.98 668.62Z" fill="#F2100F" stroke="black" stroke-width="18.34" stroke-linecap="round" stroke-linejoin="round"/>
<path d="M1197.64 800.54C1200.3 789 1267.48 699.45 1327.51 738.52L1314.63 780.75C1314.63 780.75 1269.69 757.18 1207.79 829.66L1197.63 800.54H1197.64Z" fill="#1B6337" stroke="black" stroke-width="18.34" stroke-linecap="round" stroke-linejoin="round"/>
<path d="M1606.7 702.46C1606.22 714.29 1556.83 814.75 1490.59 787.49L1495.41 743.6C1495.41 743.6 1543.95 758.42 1591.32 675.72L1606.7 702.46Z" fill="#1B6337" stroke="black" stroke-width="18.34" stroke-linecap="round" stroke-linejoin="round"/>
</g>
</g>
<defs>
<clipPath id="clip0_356_99">
<rect width="2000" height="2000" fill="white"/>
</clipPath>
</defs>
</svg>
