<svg width="2000" height="2000" viewBox="0 0 2000 2000" fill="none" xmlns="http://www.w3.org/2000/svg">
<g clip-path="url(#clip0_175_236)">
<mask id="mask0_175_236" style="mask-type:luminance" maskUnits="userSpaceOnUse" x="0" y="0" width="2000" height="2000">
<path d="M2000 0H0V2000H2000V0Z" fill="white"/>
</mask>
<g mask="url(#mask0_175_236)">
<path d="M1555.44 830.048L1539.81 836.502C1511.11 848.354 1497.45 881.227 1509.3 909.925L1594.28 1115.68C1606.13 1144.38 1639 1158.03 1667.7 1146.18L1683.33 1139.73C1712.03 1127.88 1725.69 1095 1713.83 1066.3L1628.86 860.55C1617.01 831.852 1584.13 818.195 1555.44 830.048Z" fill="#ED8B69" stroke="black" stroke-width="18.34" stroke-linecap="round" stroke-linejoin="round"/>
<path d="M1563.45 767.624C1552.44 740.982 1521.93 728.304 1495.29 739.305C1468.65 750.307 1455.98 780.822 1466.98 807.463L1595.81 1119.41C1606.81 1146.05 1637.33 1158.73 1663.96 1147.73C1690.6 1136.72 1703.28 1106.21 1692.28 1079.57L1563.45 767.624Z" fill="#ED8B69" stroke="black" stroke-width="18.34" stroke-linecap="round" stroke-linejoin="round"/>
<path d="M1652.71 775.23L1695.74 586.79" stroke="black" stroke-width="18.34" stroke-linecap="round" stroke-linejoin="round"/>
<path d="M1291.74 857.73L1335.27 663.38" stroke="black" stroke-width="18.34" stroke-linecap="round" stroke-linejoin="round"/>
<path d="M1708.86 929.9L1762.69 675.36L1721.03 564.13" stroke="black" stroke-width="18.34" stroke-linecap="round" stroke-linejoin="round"/>
<path d="M1528.37 971.15L1347.88 1012.4L1291.74 857.73L1472.23 816.48L1528.37 971.15Z" fill="#FFC600" stroke="black" stroke-width="18.34" stroke-linecap="round" stroke-linejoin="round"/>
<path d="M1708.86 929.9L1528.37 971.15L1472.23 816.48L1652.71 775.23L1708.86 929.9Z" fill="#00C2ED" stroke="black" stroke-width="18.34" stroke-linecap="round" stroke-linejoin="round"/>
<path d="M1498.34 430.32C1498.34 430.32 1439.4 541.79 1390.87 533.31C1342.33 524.84 1233.18 561.11 1291.74 495.55C1350.29 429.99 1343.16 391.3 1410.06 398.1C1488.58 398.1 1528.5 388.83 1498.35 430.31L1498.34 430.32Z" fill="#FFC600"/>
<path d="M1558.5 566.15C1558.5 566.15 1499.56 677.62 1451.03 669.14C1402.49 660.67 1293.34 696.94 1351.9 631.38C1410.45 565.82 1403.32 527.13 1470.22 533.93C1548.74 533.93 1588.66 524.66 1558.51 566.14L1558.5 566.15Z" fill="#00C2ED"/>
<path d="M1390.87 818.72L1231.69 820.03L1166 671.15L1325.18 669.83L1390.87 818.72Z" fill="#00C2ED" stroke="black" stroke-width="18.34" stroke-linecap="round" stroke-linejoin="round"/>
<path d="M1550.05 817.41L1390.87 818.72L1325.18 669.83L1484.36 668.52L1550.05 817.41Z" fill="#FF0085" stroke="black" stroke-width="18.34" stroke-linecap="round" stroke-linejoin="round"/>
<path d="M1648.34 682.2L1550.05 817.41L1484.36 668.52L1582.65 533.32L1648.34 682.2Z" fill="#FFC600" stroke="black" stroke-width="18.34" stroke-linecap="round" stroke-linejoin="round"/>
<path d="M1746.62 547L1648.34 682.2L1582.65 533.32L1680.94 398.11L1746.62 547Z" fill="#FF0085" stroke="black" stroke-width="18.34" stroke-linecap="round" stroke-linejoin="round"/>
<path d="M1166 668.52L1362.58 398.11H1680.94" stroke="black" stroke-width="18.34" stroke-linecap="round" stroke-linejoin="round"/>
<path d="M1325.18 668.52L1521.76 398.11" stroke="black" stroke-width="18.34" stroke-linecap="round" stroke-linejoin="round"/>
<path d="M1582.65 533.32H1264.29" stroke="black" stroke-width="18.34" stroke-linecap="round" stroke-linejoin="round"/>
<path d="M1680.94 651.63L1735.77 802.63" stroke="black" stroke-width="18.34" stroke-linecap="round" stroke-linejoin="round"/>
</g>
</g>
<defs>
<clipPath id="clip0_175_236">
<rect width="2000" height="2000" fill="white"/>
</clipPath>
</defs>
</svg>
