<svg width="2000" height="2000" viewBox="0 0 2000 2000" fill="none" xmlns="http://www.w3.org/2000/svg">
<g clip-path="url(#clip0_437_75)">
<mask id="mask0_437_75" style="mask-type:luminance" maskUnits="userSpaceOnUse" x="0" y="0" width="2000" height="2000">
<path d="M2000 0H0V2000H2000V0Z" fill="white"/>
</mask>
<g mask="url(#mask0_437_75)">
<path d="M1289.23 800.44V904.6C1289.23 941.96 1379.62 972.26 1491.12 972.26C1602.62 972.26 1693.01 941.97 1693.01 904.6V720.11" fill="url(#paint0_linear_437_75)"/>
<path d="M1683.77 721.95L1656.01 727.47C1656.01 727.47 1674.08 865.84 1650.05 905.39C1622.29 951.08 1539.75 972.97 1450.25 970.86C1463.45 971.77 1477.12 972.25 1491.13 972.25C1602.63 972.25 1693.02 941.96 1693.02 904.59V722.56L1683.78 721.95H1683.77Z" fill="url(#paint1_linear_437_75)"/>
<path d="M1550.35 741.03C1479.17 724.35 1401.63 714.62 1340.81 674.96C1308.75 686.94 1289.23 702.76 1289.23 720.12C1289.23 757.49 1379.62 787.78 1491.12 787.78C1551.11 787.78 1604.96 779 1641.94 765.08C1628.42 762.89 1615.03 760.17 1602.03 757.67C1583.79 754.35 1568.59 744.37 1550.35 741.05V741.03Z" fill="#0B1F74"/>
<path d="M1693 720.11C1693 682.74 1602.61 652.45 1491.11 652.45C1431.4 652.45 1377.76 661.14 1340.8 674.95C1401.63 714.61 1479.17 724.34 1550.34 741.02C1568.58 744.34 1583.78 754.32 1602.02 757.64C1615.02 760.15 1628.4 762.87 1641.93 765.05C1673.68 753.1 1693 737.36 1693 720.09V720.11Z" fill="url(#paint2_linear_437_75)"/>
<path d="M1334.01 907.74C1312.21 902.07 1303.57 885.78 1306.74 871.98C1309.29 860.86 1318.58 854.43 1327.9 856.86C1335.95 858.95 1339.17 865.34 1338.58 867.9C1338.11 869.93 1335.18 870.42 1334.42 873.74C1333.71 876.84 1335.55 879.24 1338.6 880.03C1342.52 881.05 1344.49 878.39 1345.03 876.03C1347.33 865.98 1326.52 854.68 1330.65 836.72C1333.37 824.85 1345.26 816.61 1362.64 821.13C1378.15 825.16 1385.91 836.24 1383.45 846.93C1381.59 855.06 1375.3 860.22 1366.85 858.03C1358.7 855.92 1356.86 849.43 1357.4 847.07C1357.94 844.72 1359.98 844.46 1360.67 841.46C1361.23 839 1359.98 837.2 1358.02 836.69C1355.47 836.03 1353.33 838.08 1352.59 841.28C1349.48 854.87 1379.4 864.57 1373.88 888.63C1369.87 906.06 1353.05 912.68 1334.01 907.73V907.74Z" fill="#FF00FF"/>
<path d="M1460.2 891.39C1461.43 889.98 1462.61 889.11 1463.92 889.25C1464.92 889.36 1465.74 890.55 1465.61 892.2C1464.7 903.62 1455.1 920.08 1439.33 918.37C1429.29 917.28 1424.78 909.03 1425.48 900.03C1426.36 888.83 1435.02 879.36 1446.16 880.57C1452.99 881.31 1456.49 885.79 1456.08 890.95C1455.76 895.01 1452.48 898.09 1448.36 897.64C1446.45 897.43 1445.1 896.52 1445.24 894.87C1445.33 893.77 1445.76 893.37 1445.82 892.61C1445.93 891.28 1445.34 891 1444.84 890.95C1443.74 890.83 1441.9 892.29 1441.68 895.03C1441.48 897.67 1442.8 900.13 1446.02 900.48C1453.85 901.33 1457.19 894.93 1460.21 891.39H1460.2Z" fill="#FF00FF"/>
<path d="M1482.77 887.03C1485.7 884.94 1489.55 883.65 1492.77 883.77C1497.41 883.94 1500.39 887.15 1500.36 891.57C1500.3 897.42 1495.44 900.22 1493.52 900.7L1493.63 901.04C1498.77 901.23 1502.83 896.97 1505.79 893.11C1506.81 891.82 1507.72 890.75 1509.24 890.81C1510.76 890.87 1511.45 892 1511.43 893.55C1511.4 896.86 1507.44 922.34 1492.23 921.76C1486.09 921.52 1480.59 916.46 1478.23 910.51L1478.19 914.26C1478.15 918.57 1475.51 921.12 1470.57 920.93C1462.31 920.62 1458.85 913.08 1458.99 897.84C1459.17 878.85 1465.58 838.77 1482.7 839.43C1488.84 839.66 1493.03 845.23 1492.93 855.95C1492.84 865.11 1489.71 877.48 1482.78 887.04L1482.77 887.03ZM1475.06 881.99C1478.13 877.25 1481.32 868.97 1481.37 864.77C1481.38 863.22 1480.99 862.1 1480.09 862.08C1479.39 862.05 1478.47 863.12 1477.63 865.85C1476.28 869.88 1475.42 876.26 1475.06 881.99ZM1478.98 903.57C1482.22 902.37 1484.45 900.13 1484.48 898.37C1484.48 897.27 1483.89 896.58 1483.08 896.55C1481.07 896.47 1479.83 899.19 1478.98 903.57Z" fill="#FF00FF"/>
<path d="M1552.01 889.63C1552.88 888.24 1553.68 887.07 1555.18 886.97C1556.68 886.87 1557.49 887.92 1557.64 889.47C1557.96 892.77 1556.67 918.6 1541.52 919.63C1534.9 920.08 1530.14 915.63 1529.51 909.02C1529.04 904.06 1529.95 902 1529.83 900.68C1529.78 900.13 1529.46 899.93 1529.16 899.95C1527.96 900.03 1525.99 904.93 1526.82 913.64C1527.22 917.94 1524.86 920.76 1519.95 921.09C1511.72 921.65 1507.9 914.25 1506.92 904C1505.86 892.76 1508.91 884.46 1516.64 883.93C1520.14 883.69 1522.08 886 1522.38 889.09C1522.49 890.41 1522.47 892.19 1522.16 894.21C1524.86 888.7 1529.81 882.26 1537.03 881.77C1541.44 881.47 1544.37 884.6 1544.75 888.68C1544.89 890.23 1544.75 891.9 1544.86 893C1545 894.43 1545.54 894.96 1546.44 894.89C1549.16 894.7 1550.87 891.49 1552.01 889.63Z" fill="#FF00FF"/>
<path d="M1583.34 883.04C1583.98 881.23 1584.98 880.15 1586.27 879.9C1587.25 879.72 1588.36 880.65 1588.71 882.27C1591.07 893.58 1586.59 912.24 1571.12 915.1C1561.27 916.93 1554.65 910.25 1552.78 901.33C1550.47 890.24 1555.89 878.06 1566.83 876.04C1573.53 874.8 1578.69 877.91 1579.89 883.67C1581.23 890.08 1576.39 894.37 1571.37 895.3C1570.09 895.54 1568.76 895.56 1567.59 895.32C1568.77 896.57 1570.69 896.89 1572.56 896.55C1580.24 895.13 1581.75 887.62 1583.34 883.04ZM1566.27 890.48C1566.69 890.52 1567.08 890.45 1567.47 890.38C1569.83 889.94 1570.75 887.97 1570.52 886.88C1570.41 886.34 1569.93 885.97 1569.24 886.1C1568.26 886.28 1566.36 887.99 1566.27 890.49V890.48Z" fill="#FF00FF"/>
<path d="M1594.04 874.15C1601.99 873.72 1611.19 876.51 1614.49 886.66C1617.38 895.56 1614.63 904.29 1603.53 907.66C1596.45 909.81 1587.73 907.22 1584.82 898.22C1582.93 892.39 1584.78 887.07 1588.09 884.67C1585.66 883.66 1583.54 881.98 1582.48 878.7C1580.66 873.08 1584.48 868.67 1587.45 867.77C1589.85 867.05 1592.6 868.41 1593.49 871.17C1593.77 872.02 1593.98 873 1594.03 874.14L1594.04 874.15ZM1592.04 885.8C1592.15 886.47 1592.28 886.89 1592.46 887.42C1593.14 889.54 1594.62 890.84 1596.06 890.4C1597.2 890.05 1597.44 889.16 1597.13 888.21C1596.66 886.73 1594.54 886.33 1592.05 885.8H1592.04Z" fill="#FF00FF"/>
<path d="M1620.33 863.93C1628.13 862.48 1637.58 864.09 1642.11 873.8C1646.07 882.29 1644.46 891.33 1633.91 896.1C1627.19 899.14 1618.25 897.67 1614.23 889.08C1611.64 883.52 1612.79 877.98 1615.77 875.16C1613.24 874.47 1610.94 873.07 1609.48 869.93C1606.98 864.57 1610.2 859.69 1613.03 858.42C1615.3 857.39 1618.2 858.41 1619.42 861.04C1619.8 861.85 1620.13 862.8 1620.33 863.93ZM1619.81 875.79C1620 876.43 1620.18 876.84 1620.43 877.34C1621.37 879.36 1622.99 880.46 1624.36 879.85C1625.45 879.36 1625.57 878.45 1625.14 877.54C1624.48 876.13 1622.34 876 1619.82 875.79H1619.81Z" fill="#FF00FF"/>
<path d="M1289.23 823.78V904.6C1289.23 941.96 1379.62 972.26 1491.12 972.26C1602.62 972.26 1693.01 941.97 1693.01 904.6V720.11" stroke="black" stroke-width="18.34" stroke-linecap="round" stroke-linejoin="round"/>
<path d="M1355.43 672.94C1355.43 672.94 1321.05 684.54 1299.23 710.97C1294.71 716.45 1233.9 838.19 1303.05 858.04C1323.5 863.91 1329.47 769.35 1363.04 787.76C1387.39 801.11 1346.7 920.12 1386.75 923.31C1448.4 928.22 1388.33 784.03 1421.59 787.76C1523.25 799.18 1621.72 769.78 1621.72 769.78" fill="url(#paint3_linear_437_75)"/>
<path opacity="0.98" d="M1622.22 771.57C1665.54 759.16 1693.01 740.71 1693.01 720.12C1693.01 682.75 1602.62 652.46 1491.12 652.46C1379.62 652.46 1297.15 683.6 1289.23 720.12C1279.58 764.6 1266.03 856.72 1303.03 858.06C1330.37 859.05 1320.39 782.98 1355.82 787.96C1405.1 794.89 1353.15 920.14 1393.2 923.33C1454.85 928.24 1394.78 784.05 1428.04 787.78C1529.7 799.2 1628.17 769.8 1628.17 769.8" stroke="black" stroke-width="18.34" stroke-linecap="round" stroke-linejoin="round"/>
<path d="M1437.86 584.83L1460.59 603.05C1460.59 603.05 1474.76 560.59 1522.25 563.12C1552.04 567.64 1578.63 552.1 1581.64 528.41C1584.65 504.71 1562.94 481.84 1533.14 477.31C1505.93 473.18 1481.45 485.81 1475.11 506.07L1475.07 506.02C1475.07 506.02 1475.1 506.1 1475.06 506.23C1468.05 529.92 1484.89 544.89 1452.2 563.31M1525.35 538.62C1514 536.9 1505.73 528.18 1506.88 519.16C1508.03 510.13 1518.15 504.21 1529.5 505.94C1540.85 507.66 1549.12 516.38 1547.97 525.41C1546.82 534.44 1536.69 540.36 1525.35 538.63V538.62Z" fill="url(#paint4_linear_437_75)"/>
<path d="M1437.86 584.83L1460.59 603.05C1460.59 603.05 1474.76 560.59 1522.25 563.12C1552.04 567.64 1578.63 552.1 1581.64 528.41C1584.65 504.71 1562.94 481.84 1533.14 477.31C1505.93 473.18 1481.45 485.81 1475.11 506.07L1475.07 506.02C1475.07 506.02 1475.1 506.1 1475.06 506.23C1468.05 529.92 1484.89 544.89 1452.2 563.31M1525.35 538.62C1514 536.9 1505.73 528.18 1506.88 519.16C1508.03 510.13 1518.15 504.21 1529.5 505.94C1540.85 507.66 1549.12 516.38 1547.97 525.41C1546.82 534.44 1536.69 540.36 1525.35 538.63V538.62Z" stroke="black" stroke-width="18.34" stroke-linecap="round" stroke-linejoin="round"/>
<path d="M1643.24 764.57C1656.78 765.86 1475.05 711.35 1486.91 574.07C1491.76 517.95 1356.35 586.81 1329.54 687.99C1324.29 707.8 1549.08 755.58 1643.24 764.57Z" fill="url(#paint5_linear_437_75)"/>
<path d="M1643.24 764.57C1656.78 765.86 1475.05 711.35 1486.91 574.07C1491.76 517.95 1356.35 586.81 1329.54 687.99C1324.29 707.8 1549.08 755.58 1643.24 764.57Z" stroke="black" stroke-width="18.34" stroke-linecap="round" stroke-linejoin="round"/>
</g>
</g>
<defs>
<linearGradient id="paint0_linear_437_75" x1="1289.23" y1="846.18" x2="1693" y2="846.18" gradientUnits="userSpaceOnUse">
<stop stop-color="#00DAAA"/>
<stop offset="1" stop-color="#FF2C10"/>
</linearGradient>
<linearGradient id="paint1_linear_437_75" x1="1690.57" y1="915.38" x2="1534.35" y2="825.19" gradientUnits="userSpaceOnUse">
<stop stop-color="#00DAAA"/>
<stop offset="1" stop-color="#FF2C10"/>
</linearGradient>
<linearGradient id="paint2_linear_437_75" x1="1340.81" y1="708.76" x2="1693" y2="708.76" gradientUnits="userSpaceOnUse">
<stop stop-color="#BE00AD"/>
<stop offset="1" stop-color="#FF2C10"/>
</linearGradient>
<linearGradient id="paint3_linear_437_75" x1="1270.2" y1="798.19" x2="1621.72" y2="798.19" gradientUnits="userSpaceOnUse">
<stop stop-color="#A3E8CF"/>
<stop offset="1" stop-color="#331DD1"/>
</linearGradient>
<linearGradient id="paint4_linear_437_75" x1="1437.86" y1="539.79" x2="1581.92" y2="539.79" gradientUnits="userSpaceOnUse">
<stop stop-color="#BE00AD"/>
<stop offset="1" stop-color="#FF2C10"/>
</linearGradient>
<linearGradient id="paint5_linear_437_75" x1="1329.45" y1="659.28" x2="1643.97" y2="659.28" gradientUnits="userSpaceOnUse">
<stop stop-color="#BE00AD"/>
<stop offset="1" stop-color="#FF2C10"/>
</linearGradient>
<clipPath id="clip0_437_75">
<rect width="2000" height="2000" fill="white"/>
</clipPath>
</defs>
</svg>
