<svg width="2000" height="2000" viewBox="0 0 2000 2000" fill="none" xmlns="http://www.w3.org/2000/svg">
<g clip-path="url(#clip0_28_98)">
<mask id="mask0_28_98" style="mask-type:luminance" maskUnits="userSpaceOnUse" x="0" y="0" width="2000" height="2000">
<path d="M2000 0H0V2000H2000V0Z" fill="white"/>
</mask>
<g mask="url(#mask0_28_98)">
<path d="M1242.65 510.79C1249.81 502.62 1260.5 497.82 1271.98 498.47L1801.71 559.8C1817.44 560.69 1830.79 571.63 1834.76 586.88L1879.95 980.46C1884.99 999.84 1873.36 1019.62 1853.98 1024.67C1834.6 1029.7 1814.81 1018.08 1809.77 998.7L1771.23 630.7L1298.33 572.58L1200.6 983.82C1196.06 1003.33 1176.57 1015.44 1157.07 1010.9C1137.57 1006.36 1125.45 986.87 1129.99 967.37L1234.64 526.44C1236.03 520.47 1238.84 515.15 1242.66 510.79H1242.65Z" fill="url(#paint0_linear_28_98)"/>
<path d="M1242.65 510.79C1249.81 502.62 1260.5 497.82 1271.98 498.47L1801.71 559.8C1817.44 560.69 1830.79 571.63 1834.76 586.88L1879.95 980.46C1884.99 999.84 1873.36 1019.62 1853.98 1024.67C1834.6 1029.7 1814.81 1018.08 1809.77 998.7L1771.23 630.7L1298.33 572.58L1200.6 983.82C1196.06 1003.33 1176.57 1015.44 1157.07 1010.9C1137.57 1006.36 1125.45 986.87 1129.99 967.37L1234.64 526.44C1236.03 520.47 1238.84 515.15 1242.66 510.79H1242.65Z" stroke="black" stroke-width="18.34" stroke-linecap="round" stroke-linejoin="round"/>
<path d="M1410.8 712.59L1267.48 702.38L1256.31 749.38L1410.8 759.58V712.59Z" fill="url(#paint1_linear_28_98)" stroke="black" stroke-width="18.34" stroke-linecap="round" stroke-linejoin="round"/>
<path d="M1282.26 911.53L1313.92 655.98C1313.92 655.98 1315.69 639.4 1337.8 632.76C1359.91 626.12 1551.99 569.65 1551.99 569.65C1551.99 569.65 1579.03 554.32 1607.87 575.75C1646.86 595.41 1690.68 617.49 1690.68 617.49L1757.47 914.2C1757.47 914.2 1754.96 922.73 1692.74 933.58C1630.06 944.51 1397.95 984.96 1397.95 984.96C1397.95 984.96 1382.91 990.74 1344.25 963.59C1305.59 936.44 1280.86 922.77 1282.25 911.52L1282.26 911.53Z" fill="#0E88EE"/>
<g style="mix-blend-mode:multiply">
<path d="M1390.45 932.71C1383.5 902.62 1376.14 894.03 1398.12 884.96C1420.1 875.89 1449.51 863.92 1472.62 885.75C1495.73 907.59 1498.49 934.76 1575.68 910.67C1643.11 892.84 1668.87 883.66 1700.77 899.95C1732.66 916.24 1772.9 921.57 1702.59 933.93C1702.59 933.93 1454.07 973.11 1435.51 975.72C1416.94 978.33 1404.04 986.93 1390.46 932.7L1390.45 932.71Z" fill="#0E88EE"/>
</g>
<path d="M1367.03 624.02L1327.36 635.03C1327.36 635.03 1316.92 631.74 1313.92 655.97C1310.92 680.2 1277.31 735.64 1347.78 731.38C1396.84 739.5 1395.33 753.45 1425.77 690.25C1456.2 627.04 1485.36 588.68 1442.06 601.92C1398.76 615.16 1367.04 624.02 1367.04 624.02H1367.03Z" fill="#49DB3B"/>
<path d="M1514.02 600.88C1514.02 600.88 1509.51 584.37 1532.32 573.85C1555.13 563.33 1583.44 559.2 1602.59 571.03C1621.74 582.86 1695.97 614.01 1696.04 635.68C1696.11 657.35 1728.52 692.14 1681.11 689.18C1633.7 686.21 1514.3 696.04 1521.62 658.85C1516.2 617.47 1514.02 600.88 1514.02 600.88Z" fill="#49DB3B"/>
<g style="mix-blend-mode:multiply">
<path d="M1579.46 561.43L1571.19 682.3C1571.19 682.3 1706.89 694.78 1704.44 681.05C1701.99 667.31 1697.85 616.57 1682.2 613.22C1666.55 609.87 1579.46 561.43 1579.46 561.43Z" fill="#49DB3B"/>
</g>
<path d="M1493.32 756.27L1599.23 759.66C1599.23 759.66 1630.44 749.73 1640.6 786.83C1650.76 823.93 1667.5 887.57 1667.5 887.57L1599.3 906.03C1599.3 906.03 1516.16 939.96 1495.73 907.58C1466.91 879.35 1454.09 876.87 1464.38 838.14C1474.66 799.4 1482.94 768.24 1482.94 768.24C1482.94 768.24 1484.27 753.96 1493.32 756.27Z" fill="#49DB3B"/>
<g style="mix-blend-mode:multiply">
<path d="M1672.62 891.64L1519.13 923.01C1503.76 913.23 1472.7 889.43 1458.53 878.45C1453.98 874.94 1451.19 872.74 1451.19 872.74L1560.35 840.58L1564.12 766.86C1564.12 766.86 1571.47 763.15 1606.77 761.82C1643.79 758.44 1645.99 806.74 1655.4 841.91C1662 866.58 1667.84 881.14 1670.73 887.61C1671.92 890.35 1672.63 891.66 1672.63 891.66L1672.62 891.64Z" fill="#49DB3B"/>
</g>
<g style="mix-blend-mode:multiply">
<path d="M1672.62 891.64L1519.13 923.01C1503.76 913.23 1472.7 889.43 1458.53 878.45C1458.64 873.57 1458.72 870.52 1458.72 870.52L1560.35 840.58L1670.73 887.6C1671.92 890.34 1672.63 891.65 1672.63 891.65L1672.62 891.64Z" fill="#49DB3B"/>
</g>
<path d="M1302.6 835.6C1302.6 835.6 1372.01 881.98 1381.67 911.21C1391.33 940.43 1426.14 988.92 1398.96 987.96C1371.79 987 1300.07 933.35 1300.07 933.35C1300.07 933.35 1279.12 924.76 1285.07 888.87C1291.02 852.98 1289.08 823.5 1302.6 835.6Z" fill="#49DB3B"/>
<g style="mix-blend-mode:multiply">
<path d="M1281.29 919.38L1374.66 895.29L1410.41 979.96C1410.41 979.96 1373.68 994.1 1356.98 977.45C1340.28 960.8 1281.29 919.37 1281.29 919.37V919.38Z" fill="#49DB3B"/>
</g>
<path d="M1579.46 561.43L1316.02 639.05L1281.29 919.38L1379.31 988.22L1759.74 921.91L1690.68 617.5L1579.46 561.43Z" stroke="black" stroke-width="18.34" stroke-linecap="round" stroke-linejoin="round"/>
<path d="M1455.53 871.47L1374.66 895.29" stroke="black" stroke-width="18.34" stroke-linecap="round" stroke-linejoin="round"/>
<path d="M1571.19 682.31L1565.88 759.81" stroke="black" stroke-width="18.34" stroke-linecap="round" stroke-linejoin="round"/>
<path d="M1672.53 889.44L1759.74 921.91" stroke="black" stroke-width="18.34" stroke-linecap="round" stroke-linejoin="round"/>
<path d="M1305.16 726.65L1405.11 740.66L1464.64 595.39" stroke="black" stroke-width="18.34" stroke-linecap="round" stroke-linejoin="round"/>
<path d="M1511.48 581.47L1524.31 679.37L1707.31 690.83" stroke="black" stroke-width="18.34" stroke-linecap="round" stroke-linejoin="round"/>
<path d="M1455.53 871.47L1486.21 755.93L1632.41 763.05L1676.45 890.9L1514.52 922.67L1455.53 871.47Z" stroke="black" stroke-width="18.34" stroke-linecap="round" stroke-linejoin="round"/>
<path d="M1292.69 827.39L1374.66 895.29L1413.02 982.35" stroke="black" stroke-width="18.34" stroke-linecap="round" stroke-linejoin="round"/>
<path d="M1682.34 775.31L1787.33 784.43L1782.58 739.06L1686.46 729.96C1673.1 728.7 1661.55 739.2 1661.55 752.62C1661.55 764.43 1670.58 774.28 1682.34 775.3V775.31Z" fill="url(#paint2_linear_28_98)" stroke="black" stroke-width="18.34" stroke-linecap="round" stroke-linejoin="round"/>
</g>
</g>
<defs>
<linearGradient id="paint0_linear_28_98" x1="1129.03" y1="762.13" x2="1881.12" y2="762.13" gradientUnits="userSpaceOnUse">
<stop stop-color="#FF4CFF"/>
<stop offset="1" stop-color="#00C7F1"/>
</linearGradient>
<linearGradient id="paint1_linear_28_98" x1="1256.31" y1="730.98" x2="1410.8" y2="730.98" gradientUnits="userSpaceOnUse">
<stop stop-color="#FF4CFF"/>
<stop offset="1" stop-color="#00C7F1"/>
</linearGradient>
<linearGradient id="paint2_linear_28_98" x1="1661.55" y1="757.15" x2="1787.33" y2="757.15" gradientUnits="userSpaceOnUse">
<stop stop-color="#FF4CFF"/>
<stop offset="1" stop-color="#00C7F1"/>
</linearGradient>
<clipPath id="clip0_28_98">
<rect width="2000" height="2000" fill="white"/>
</clipPath>
</defs>
</svg>
