<svg width="2000" height="2000" viewBox="0 0 2000 2000" fill="none" xmlns="http://www.w3.org/2000/svg">
<g clip-path="url(#clip0_28_310)">
<mask id="mask0_28_310" style="mask-type:luminance" maskUnits="userSpaceOnUse" x="0" y="0" width="2000" height="2000">
<path d="M2000 0H0V2000H2000V0Z" fill="white"/>
</mask>
<g mask="url(#mask0_28_310)">
<path d="M1367.72 522.86C1367.72 522.86 1351.09 442.02 1313.33 459.21C1265.99 480.76 1344.61 543.65 1344.61 543.65" fill="#0DC400"/>
<path d="M1367.72 522.86C1367.72 522.86 1351.09 442.02 1313.33 459.21C1265.99 480.76 1344.61 543.65 1344.61 543.65" stroke="black" stroke-width="18.34" stroke-linecap="round" stroke-linejoin="round"/>
<path d="M1481.17 531.29C1536.13 530.57 1585.29 556.14 1616.75 596.31C1587.1 572.32 1549.23 558.15 1508.12 558.69C1414.63 559.92 1339.85 636.7 1341.07 730.18C1341.58 768.71 1354.94 804.04 1376.99 832.2C1339.22 801.64 1314.81 755.15 1314.12 702.77C1312.89 609.28 1387.68 532.5 1481.17 531.27V531.29Z" fill="#008200"/>
<path d="M1507.48 903.12C1600.98 903.12 1676.77 827.326 1676.77 733.83C1676.77 640.334 1600.98 564.54 1507.48 564.54C1413.98 564.54 1338.19 640.334 1338.19 733.83C1338.19 827.326 1413.98 903.12 1507.48 903.12Z" stroke="black" stroke-width="18.34" stroke-linecap="round" stroke-linejoin="round"/>
<path d="M1659.35 602.3C1659.35 602.3 1750.04 576.39 1733.02 538.55C1713.99 496.24 1643.09 575.81 1643.09 575.81" fill="#0DC400"/>
<path d="M1659.35 602.3C1659.35 602.3 1750.04 576.39 1733.02 538.55C1713.99 496.24 1643.09 575.81 1643.09 575.81" stroke="black" stroke-width="18.34" stroke-linecap="round" stroke-linejoin="round"/>
<path d="M1612.4 847.7L1129.97 532.75C1112.5 521.35 1105.69 498.63 1114.95 479.93C1116.52 476.75 1118.38 473.59 1120.55 470.56C1133.44 452.59 1158.62 448.63 1177.08 460.83L1657.9 778.62C1675.83 790.47 1682.33 814.23 1671.88 833.01C1671.71 833.32 1671.53 833.63 1671.35 833.94C1659.41 854.59 1632.38 860.74 1612.4 847.7Z" fill="#0DC400" stroke="black" stroke-width="18.34" stroke-linecap="round" stroke-linejoin="round"/>
<path d="M1612.23 586.44L1305.8 1074.33C1294.7 1092 1272.11 1099.21 1253.25 1090.28C1250.04 1088.76 1246.85 1086.97 1243.78 1084.84C1225.59 1072.26 1221.19 1047.16 1233.06 1028.49L1542.36 542.16C1553.9 524.02 1577.54 517.11 1596.5 527.23C1596.81 527.4 1597.13 527.57 1597.44 527.74C1618.3 539.31 1624.92 566.23 1612.24 586.44H1612.23Z" fill="#0DC400" stroke="black" stroke-width="18.34" stroke-linecap="round" stroke-linejoin="round"/>
<path d="M1221.99 721.21C1223.87 864.08 1341.21 978.38 1484.08 976.5C1626.95 974.62 1741.25 857.28 1739.37 714.41C1737.49 571.54 1620.15 457.24 1477.28 459.12C1334.41 461 1220.11 578.34 1221.99 721.21ZM1311.26 708.65C1310.03 615.16 1384.82 538.38 1478.31 537.15C1571.8 535.92 1648.58 610.71 1649.81 704.2C1651.04 797.69 1576.25 874.47 1482.76 875.7C1389.27 876.93 1312.49 802.14 1311.26 708.65Z" fill="#1BFD00"/>
<path d="M1444.5 974.01C1320.15 956.61 1202.77 831.96 1221.99 721.21C1279.28 391.08 1477.5 475.69 1562.72 471.44C1350.18 508.91 1163.57 721.98 1444.49 974.02L1444.5 974.01Z" fill="#0DC400"/>
<path d="M1480.68 976.52C1623.56 976.52 1739.39 860.691 1739.39 717.81C1739.39 574.928 1623.56 459.1 1480.68 459.1C1337.8 459.1 1221.97 574.928 1221.97 717.81C1221.97 860.691 1337.8 976.52 1480.68 976.52Z" stroke="black" stroke-width="18.34" stroke-linecap="round" stroke-linejoin="round"/>
<path d="M1641.35 892.32C1641.35 892.32 1697.85 956.71 1719.82 921.52C1743.25 883.99 1651.44 862.93 1651.44 862.93" fill="#1BFD00"/>
<path d="M1641.35 892.32C1641.35 892.32 1697.85 956.71 1719.82 921.52C1743.25 883.99 1651.44 862.93 1651.44 862.93" stroke="black" stroke-width="18.34" stroke-linecap="round" stroke-linejoin="round"/>
<path d="M1538.17 492.42C1538.17 492.42 1566.15 414.09 1524.89 409.76C1466.47 403.62 1507.62 498.14 1507.62 498.14" fill="#1BFD00"/>
<path d="M1538.17 492.42C1538.17 492.42 1566.15 414.09 1524.89 409.76C1466.47 403.62 1507.62 498.14 1507.62 498.14" stroke="black" stroke-width="18.34" stroke-linecap="round" stroke-linejoin="round"/>
<path d="M1282.43 813.2C1282.43 813.2 1193.5 835.35 1219.12 867.98C1244.61 900.45 1303.37 836.17 1303.37 836.17" fill="#0DC400"/>
<path d="M1282.43 813.2C1282.43 813.2 1193.5 835.35 1219.12 867.98C1244.61 900.45 1303.37 836.17 1303.37 836.17" stroke="black" stroke-width="18.34" stroke-linecap="round" stroke-linejoin="round"/>
<path d="M1489.3 936.32C1489.3 936.32 1492.03 1022.41 1531.22 1008.79C1568.36 995.88 1515.79 920.07 1515.79 920.07" fill="#1BFD00"/>
<path d="M1489.3 936.32C1489.3 936.32 1492.03 1022.41 1531.22 1008.79C1568.36 995.88 1515.79 920.07 1515.79 920.07" stroke="black" stroke-width="18.34" stroke-linecap="round" stroke-linejoin="round"/>
<path d="M1279.99 666.61C1279.99 666.61 1197.14 620.63 1193.16 663.51C1189.78 699.92 1272.37 698.96 1272.37 698.96" fill="#0DC400"/>
<path d="M1279.99 666.61C1279.99 666.61 1197.14 620.63 1193.16 663.51C1189.78 699.92 1272.37 698.96 1272.37 698.96" stroke="black" stroke-width="18.34" stroke-linecap="round" stroke-linejoin="round"/>
<path d="M1480.53 875.71C1574.03 875.71 1649.82 799.916 1649.82 706.42C1649.82 612.924 1574.03 537.13 1480.53 537.13C1387.03 537.13 1311.24 612.924 1311.24 706.42C1311.24 799.916 1387.03 875.71 1480.53 875.71Z" stroke="black" stroke-width="18.34" stroke-linecap="round" stroke-linejoin="round"/>
<path d="M1699.96 736.23C1699.96 736.23 1783.86 753.54 1780.16 712.21C1776.22 668.15 1690.28 706.69 1690.28 706.69" fill="#1BFD00"/>
<path d="M1699.96 736.23C1699.96 736.23 1783.86 753.54 1780.16 712.21C1776.22 668.15 1690.28 706.69 1690.28 706.69" stroke="black" stroke-width="18.34" stroke-linecap="round" stroke-linejoin="round"/>
<path d="M1671.95 800.29C1678.66 795.29 1687.73 794.8 1694.91 799.09L1831.72 880.7C1848.4 890.65 1856.29 910.9 1850.04 929.28C1849.93 929.6 1849.82 929.92 1849.71 930.24C1840.8 955.52 1810.38 965.62 1787.87 951.07L1651.39 862.82C1643.27 857.57 1639.84 847.39 1643.24 838.34C1647.41 827.21 1655.68 812.41 1671.95 800.29Z" fill="#1BFD00" stroke="black" stroke-width="18.34" stroke-linecap="round" stroke-linejoin="round"/>
<path d="M1567.72 491.3L1653.57 355.3C1664.34 338.24 1686.87 331.28 1707.74 339.43C1708.12 339.58 1708.5 339.73 1708.87 339.88C1737.53 351.5 1749.86 384.86 1734.43 408.02L1645.58 541.35C1639.06 551.14 1626.41 555.35 1613.89 551.92C1600.35 548.21 1583.24 540.27 1570.02 523.32C1562.41 513.56 1561.72 500.81 1567.72 491.31V491.3Z" fill="#1BFD00" stroke="black" stroke-width="18.34" stroke-linecap="round" stroke-linejoin="round"/>
</g>
</g>
<defs>
<clipPath id="clip0_28_310">
<rect width="2000" height="2000" fill="white"/>
</clipPath>
</defs>
</svg>
