<svg width="2000" height="2000" viewBox="0 0 2000 2000" fill="none" xmlns="http://www.w3.org/2000/svg">
<g clip-path="url(#clip0_169_169)">
<mask id="mask0_169_169" style="mask-type:luminance" maskUnits="userSpaceOnUse" x="0" y="0" width="2000" height="2000">
<path d="M2000 0H0V2000H2000V0Z" fill="white"/>
</mask>
<g mask="url(#mask0_169_169)">
<path d="M486.949 560.639C486.949 560.639 429.639 604.109 421.519 634.609C413.399 665.109 422.129 656.639 332.659 699.329C245.889 777.109 177.789 895.059 214.989 1039.94C258.489 1183.01 312.839 1242.15 330.219 1229.68C382.689 1165.91 467.829 1048.48 478.119 943.459C488.409 838.439 472.469 781.869 495.559 792.549C1010.34 890.579 930.089 887.819 1013.53 1000.01C1031.05 1066.66 1034.35 1112.06 1026.45 1138.78C1059.75 1128.88 1061.38 1011.05 1066.93 967.989C1066.93 967.989 1084.9 719.549 860.439 587.059C607.579 457.189 539.889 537.669 486.939 560.649L486.949 560.639Z" fill="#FF0036"/>
<g style="mix-blend-mode:multiply">
<path d="M584.591 514.89C517.421 537.76 512.651 753.39 636.201 785.66C759.751 817.94 875.581 859.02 913.691 889.78C784.941 843.12 639.581 820.56 545.861 807.03C452.141 793.5 347.881 666.01 473.471 564.47C541.181 508.56 584.591 514.89 584.591 514.89Z" fill="#FF0036"/>
</g>
<g style="mix-blend-mode:multiply">
<path d="M345.042 693.45C272.942 736.74 476.572 774.58 485.502 856.95C485.142 787.5 477.722 780.39 441.552 753C407.612 698.9 421.222 657.59 383.132 675.52L345.042 693.45Z" fill="#FF0036"/>
</g>
<g style="mix-blend-mode:multiply">
<path d="M211.58 889.779C196.14 959.339 199.97 1068.07 280.98 1181.78C327.11 1272.36 363.13 1184.5 363.13 1184.5C363.13 1184.5 260.42 1190.87 211.58 889.779Z" fill="#FF0036"/>
</g>
<path d="M464.191 774.9C593.101 867.38 1114.63 785.67 1020.24 1168.31C1020.24 1168.31 1218.56 746.11 803.301 562.86C537.511 445.57 422.271 586.13 412.921 664.33C407.741 707.6 434.621 753.68 464.201 774.9H464.191Z" stroke="black" stroke-width="18.34" stroke-linecap="round" stroke-linejoin="round"/>
<path d="M412.912 664.33C267.182 682.94 75.622 962.56 325.932 1237.72C361.652 1146.74 493.232 1153.34 485.152 787.5" stroke="black" stroke-width="18.34" stroke-linecap="round" stroke-linejoin="round"/>
</g>
</g>
<defs>
<clipPath id="clip0_169_169">
<rect width="2000" height="2000" fill="white"/>
</clipPath>
</defs>
</svg>
