<svg width="2000" height="2000" viewBox="0 0 2000 2000" fill="none" xmlns="http://www.w3.org/2000/svg">
<g clip-path="url(#clip0_28_574)">
<mask id="mask0_28_574" style="mask-type:luminance" maskUnits="userSpaceOnUse" x="0" y="0" width="2000" height="2000">
<path d="M2000 0H0V2000H2000V0Z" fill="white"/>
</mask>
<g mask="url(#mask0_28_574)">
<path d="M847.239 753.06C771.519 752.07 763.409 727.82 714.249 723.75C665.049 719.68 653.019 766.97 599.819 775.15C546.659 783.37 542.659 829.85 497.459 849.08C452.259 868.3 476.399 866.32 427.239 928.51C378.039 990.7 381.749 1021.62 411.169 1110.63C440.589 1199.64 402.139 1303.87 356.359 1307.06C354.449 1307.21 352.539 1307.32 350.709 1307.43C230.189 1314 192.069 1257.06 244.459 1155.18C297.659 1051.72 250.989 1003.88 230.449 1091.6C209.939 1179.32 86.2691 1188.31 94.8191 1139C103.399 1089.69 265.889 1007.22 229.869 961.61C193.839 916.01 150.509 1068.96 93.3191 1048.52C36.1191 1028.12 82.0891 853.67 197.729 821.02C313.369 788.33 260.939 734.33 184.339 789.58C13.6691 912.63 17.0791 710.55 140.239 715.87C263.439 721.15 331.859 705.52 331.859 705.52C98.049 667.03 254.739 562.55 317.259 597.99C379.779 633.47 494.539 619.45 494.539 619.45C412.429 618.53 379.779 599.86 356.369 581.18C332.999 562.54 370.419 502.81 440.419 527.07C502.459 548.57 519.739 557.59 609.329 562.07C620.809 562.66 633.469 563.17 647.559 563.61C771.679 567.5 856.419 632.69 847.249 753.07L847.239 753.06Z" fill="#EE1515"/>
<path d="M609.319 562.06C603.009 579.49 581.109 585.76 549.589 581.32C469.679 570.13 560.819 605.17 551.019 626.19C541.189 647.25 420.589 659.87 384.129 652.86C347.659 645.85 414.989 701.91 384.129 720.15C353.279 738.38 280.379 734.16 294.389 756.62C308.399 779.07 276.159 842.18 206.049 875.82C135.939 909.46 256.529 878.61 266.329 922.08C276.159 965.56 246.699 1020.26 294.399 1010.42C342.059 1000.62 292.019 1190.48 333.659 1236.2C348.889 1252.89 352.959 1279.9 350.719 1307.41C230.199 1313.98 192.079 1257.04 244.469 1155.16C297.669 1051.7 250.999 1003.86 230.459 1091.58C209.949 1179.3 86.2788 1188.29 94.8288 1138.98C103.409 1089.67 265.899 1007.2 229.879 961.59C193.849 915.99 150.519 1068.94 93.3288 1048.5C36.1288 1028.1 82.0988 853.65 197.739 821C313.379 788.31 260.949 734.31 184.349 789.56C13.6788 912.61 17.0888 710.53 140.249 715.85C263.449 721.13 331.869 705.5 331.869 705.5C98.0588 667.01 254.749 562.53 317.269 597.97C379.789 633.45 494.549 619.43 494.549 619.43C412.439 618.51 379.789 599.84 356.379 581.16C333.009 562.52 370.429 502.79 440.429 527.05C502.469 548.55 519.749 557.57 609.339 562.05L609.319 562.06Z" fill="#D30909"/>
<path d="M847.259 753.07C856.429 632.69 771.649 567.47 647.549 563.6C523.449 559.72 510.389 551.33 440.399 527.07C370.419 502.81 332.979 562.53 356.369 581.19C379.749 599.85 412.409 618.51 494.519 619.45C494.519 619.45 379.749 633.45 317.229 597.99C254.709 562.53 103.239 664.85 331.859 705.52C331.859 705.52 263.399 721.16 140.239 715.86C17.0692 710.56 13.6692 912.63 184.319 789.56C260.939 734.31 313.339 788.34 197.719 821C82.0892 853.66 36.1192 1028.12 93.3092 1048.53C150.509 1068.94 193.819 915.99 229.849 961.59C265.879 1007.19 103.389 1089.67 94.8192 1138.98C86.2492 1188.28 209.919 1179.31 230.449 1091.6C250.979 1003.89 297.629 1051.72 244.449 1155.17C191.259 1258.62 231.389 1315.76 356.369 1307.05C402.129 1303.86 440.579 1199.63 411.159 1110.62C381.739 1021.62 378.039 990.69 427.219 928.5C476.389 866.31 452.269 868.31 497.469 849.08C542.669 829.85 546.639 783.38 599.829 775.17C653.019 766.96 665.059 719.67 714.229 723.74C763.399 727.82 776.369 754.33 847.249 753.08L847.259 753.07Z" stroke="black" stroke-width="18.34" stroke-linecap="round" stroke-linejoin="round"/>
<path d="M516.089 810.739C439.959 834.509 471.279 906.559 468.759 979.779C467.869 1005.56 430.009 1007.26 427.409 981.589C425.899 966.689 422.859 950.579 417.729 933.429C382.389 815.349 439.279 810.739 439.279 810.739" fill="#EE1515"/>
<path d="M516.089 810.739C439.959 834.509 471.279 906.559 468.759 979.779C467.869 1005.56 430.009 1007.26 427.409 981.589C425.899 966.689 422.859 950.579 417.729 933.429C382.389 815.349 439.279 810.739 439.279 810.739" stroke="black" stroke-width="18.34" stroke-linecap="round" stroke-linejoin="round"/>
</g>
</g>
<defs>
<clipPath id="clip0_28_574">
<rect width="2000" height="2000" fill="white"/>
</clipPath>
</defs>
</svg>
