<svg width="2000" height="2000" viewBox="0 0 2000 2000" fill="none" xmlns="http://www.w3.org/2000/svg">
<g clip-path="url(#clip0_154_2)">
<mask id="mask0_154_2" style="mask-type:luminance" maskUnits="userSpaceOnUse" x="0" y="0" width="2000" height="2000">
<path d="M2000 0H0V2000H2000V0Z" fill="white"/>
</mask>
<g mask="url(#mask0_154_2)">
<path d="M847.245 753.06C771.525 752.07 763.415 727.82 714.255 723.75C665.055 719.68 653.025 766.97 599.825 775.15C546.665 783.37 542.665 829.85 497.465 849.08C452.265 868.3 476.405 866.32 427.245 928.51C378.045 990.7 381.755 1021.62 411.175 1110.63C440.595 1199.64 402.145 1303.87 356.365 1307.06C354.455 1307.21 352.545 1307.32 350.715 1307.43C230.195 1314 192.075 1257.06 244.465 1155.18C297.665 1051.72 250.995 1003.88 230.455 1091.6C209.945 1179.32 86.2749 1188.31 94.8249 1139C103.405 1089.69 265.895 1007.22 229.875 961.61C193.845 916.01 150.515 1068.96 93.3249 1048.52C36.1249 1028.12 82.0949 853.67 197.735 821.02C313.375 788.33 260.945 734.33 184.345 789.58C13.6749 912.63 17.0849 710.55 140.245 715.87C263.445 721.15 331.865 705.52 331.865 705.52C98.0549 667.03 254.745 562.55 317.265 597.99C379.785 633.47 494.545 619.45 494.545 619.45C412.435 618.53 379.785 599.86 356.375 581.18C333.005 562.54 370.425 502.81 440.425 527.07C502.465 548.57 519.745 557.59 609.335 562.07C620.815 562.66 633.475 563.17 647.565 563.61C771.685 567.5 856.425 632.69 847.255 753.07L847.245 753.06Z" fill="#A3E8CF"/>
<path d="M609.323 562.06C603.013 579.49 581.113 585.76 549.593 581.32C469.683 570.13 560.823 605.17 551.023 626.19C541.193 647.25 420.593 659.87 384.133 652.86C347.663 645.85 414.993 701.91 384.133 720.15C353.283 738.38 280.383 734.16 294.393 756.62C308.403 779.07 276.163 842.18 206.053 875.82C135.943 909.46 256.533 878.61 266.333 922.08C276.163 965.56 246.703 1020.26 294.403 1010.42C342.063 1000.62 292.023 1190.48 333.663 1236.2C348.893 1252.89 352.963 1279.9 350.723 1307.41C230.203 1313.98 192.083 1257.04 244.473 1155.16C297.673 1051.7 251.003 1003.86 230.463 1091.58C209.953 1179.3 86.2827 1188.29 94.8327 1138.98C103.413 1089.67 265.903 1007.2 229.883 961.59C193.853 915.99 150.523 1068.94 93.3327 1048.5C36.1327 1028.1 82.1027 853.65 197.743 821C313.383 788.31 260.953 734.31 184.353 789.56C13.6827 912.61 17.0927 710.53 140.253 715.85C263.453 721.13 331.873 705.5 331.873 705.5C98.0627 667.01 254.753 562.53 317.273 597.97C379.793 633.45 494.553 619.43 494.553 619.43C412.443 618.51 379.793 599.84 356.383 581.16C333.013 562.52 370.433 502.79 440.433 527.05C502.473 548.55 519.753 557.57 609.343 562.05L609.323 562.06Z" fill="#00CEB4"/>
<path d="M847.263 753.07C856.433 632.69 771.653 567.47 647.553 563.6C523.453 559.72 510.393 551.33 440.403 527.07C370.423 502.81 332.983 562.53 356.373 581.19C379.753 599.85 412.413 618.51 494.523 619.45C494.523 619.45 379.753 633.45 317.233 597.99C254.713 562.53 103.243 664.85 331.863 705.52C331.863 705.52 263.403 721.16 140.243 715.86C17.0731 710.56 13.6731 912.63 184.323 789.56C260.943 734.31 313.343 788.34 197.723 821C82.0931 853.66 36.1231 1028.12 93.3131 1048.53C150.513 1068.94 193.823 915.99 229.853 961.59C265.883 1007.19 103.393 1089.67 94.8231 1138.98C86.2531 1188.28 209.923 1179.31 230.453 1091.6C250.983 1003.89 297.633 1051.72 244.453 1155.17C191.263 1258.62 231.393 1315.76 356.373 1307.05C402.133 1303.86 440.583 1199.63 411.163 1110.62C381.743 1021.62 378.043 990.69 427.223 928.5C476.393 866.31 452.273 868.31 497.473 849.08C542.673 829.85 546.643 783.38 599.833 775.17C653.023 766.96 665.063 719.67 714.233 723.74C763.403 727.82 776.373 754.33 847.253 753.08L847.263 753.07Z" stroke="black" stroke-width="18.34" stroke-linecap="round" stroke-linejoin="round"/>
<path d="M516.095 810.739C439.965 834.509 471.284 906.559 468.764 979.779C467.874 1005.56 430.014 1007.26 427.414 981.589C425.904 966.689 422.864 950.579 417.734 933.429C382.394 815.349 439.284 810.739 439.284 810.739" fill="#A3E8CF"/>
<path d="M516.095 810.739C439.965 834.509 471.284 906.559 468.764 979.779C467.874 1005.56 430.014 1007.26 427.414 981.589C425.904 966.689 422.864 950.579 417.734 933.429C382.394 815.349 439.284 810.739 439.284 810.739" stroke="black" stroke-width="18.34" stroke-linecap="round" stroke-linejoin="round"/>
</g>
</g>
<defs>
<clipPath id="clip0_154_2">
<rect width="2000" height="2000" fill="white"/>
</clipPath>
</defs>
</svg>
