<svg width="2000" height="2000" viewBox="0 0 2000 2000" fill="none" xmlns="http://www.w3.org/2000/svg">
<g clip-path="url(#clip0_655_49)">
<mask id="mask0_655_49" style="mask-type:luminance" maskUnits="userSpaceOnUse" x="0" y="0" width="2000" height="2000">
<path d="M2000 0H0V2000H2000V0Z" fill="white"/>
</mask>
<g mask="url(#mask0_655_49)">
<path d="M1024.02 1012.49C1023.29 989.96 1020.86 967.95 1016.9 946.56C1013.74 967.03 1016.31 991.76 1001.23 1010.98C986.74 1029.43 955.59 1034.39 934.05 1051.15C915.23 1065.79 902.68 1096.09 879.24 1108.35C858.22 1119.39 830.37 1110.66 806.16 1118.99C782.24 1127.17 760.59 1152.85 738.36 1156.74C713.78 1161 692.61 1142.4 671.04 1141.77C646.64 1141.07 617.77 1157.36 598.47 1151.02C575.98 1143.57 570.07 1114.96 556.65 1100.72C541.57 1084.76 514.75 1074.6 514.02 1051.48C513.4 1031.82 537.83 1012.44 547.88 992.08C556.94 973.92 553.9 946.4 569.89 929.05C584.05 913.64 612.67 912.87 631.23 899.08C648.22 886.5 658.31 857.99 678.12 847.5C696.76 837.59 721.85 847.21 742.32 839.8C763.56 832.06 782.71 806.52 803.66 802.3C825.53 797.9 845.7 815.65 866.14 815.07C888.12 814.41 914.05 795.66 933.02 799.4C954.26 803.55 963.18 829.52 978.81 839.06C979.95 839.72 981.12 840.38 982.3 841C912.74 697.26 764.3 604.22 595.61 616.14C504.26 622.6 420.72 658.84 353.84 715.05C252.95 799.76 189.81 929.78 194.32 1071.11C201.8 1306.21 393.61 1483.66 622.72 1467.49C634.28 1466.68 645.69 1465.4 656.95 1463.6C869.45 1430.69 1031.13 1235.77 1024.01 1012.49H1024.02ZM469.92 1373.35C422.81 1396.94 350.98 1351.81 309.48 1272.53C267.95 1193.21 272.54 1109.71 319.68 1086.12C324.74 1083.59 330.06 1081.83 335.6 1080.87C381.83 1072.58 443.1 1116.16 480.11 1186.97C512.95 1249.78 516.94 1315.16 493.76 1351.37C487.67 1360.91 479.71 1368.43 469.91 1373.35H469.92Z" fill="#FF0085"/>
<g style="mix-blend-mode:multiply">
<path d="M643.481 1463.6C632.221 1465.4 620.811 1466.68 609.251 1467.49C380.131 1483.67 201.811 1306.21 194.321 1071.11C189.811 929.79 246.261 805.51 347.151 720.79C319.301 835.55 309.931 953.06 337.041 1076.47C331.501 1077.42 311.261 1083.58 306.201 1086.11C274.521 1112.86 264.781 1213.82 296.001 1272.52C337.491 1351.8 409.331 1396.93 456.441 1373.34C466.241 1368.42 480.401 1370.35 486.491 1360.81C530.221 1400.98 577.801 1429.25 643.471 1463.59L643.481 1463.6Z" fill="#FF0085"/>
</g>
<path d="M1024.02 1012.49C1023.29 989.96 1020.86 967.95 1016.9 946.56C1013.74 967.03 1016.31 991.76 1001.23 1010.98C986.74 1029.43 955.59 1034.39 934.05 1051.15C915.23 1065.79 902.68 1096.09 879.24 1108.35C858.22 1119.39 830.37 1110.66 806.16 1118.99C782.24 1127.17 760.59 1152.85 738.36 1156.74C713.78 1161 692.61 1142.4 671.04 1141.77C646.64 1141.07 617.77 1157.36 598.47 1151.02C575.98 1143.57 570.07 1114.96 556.65 1100.72C541.57 1084.76 514.75 1074.6 514.02 1051.48C513.4 1031.82 537.83 1012.44 547.88 992.08C556.94 973.92 553.9 946.4 569.89 929.05C584.05 913.64 612.67 912.87 631.23 899.08C648.22 886.5 658.31 857.99 678.12 847.5C696.76 837.59 721.85 847.21 742.32 839.8C763.56 832.06 782.71 806.52 803.66 802.3C825.53 797.9 845.7 815.65 866.14 815.07C888.12 814.41 914.05 795.66 933.02 799.4C954.26 803.55 963.18 829.52 978.81 839.06C979.95 839.72 981.12 840.38 982.3 841C912.74 697.26 764.3 604.22 595.61 616.14C504.26 622.6 420.72 658.84 353.84 715.05C252.95 799.76 189.81 929.78 194.32 1071.11C201.8 1306.21 393.61 1483.66 622.72 1467.49C634.28 1466.68 645.69 1465.4 656.95 1463.6C869.45 1430.69 1031.13 1235.77 1024.01 1012.49H1024.02ZM469.92 1373.35C422.81 1396.94 350.98 1351.81 309.48 1272.53C267.95 1193.21 272.54 1109.71 319.68 1086.12C324.74 1083.59 330.06 1081.83 335.6 1080.87C381.83 1072.58 443.1 1116.16 480.11 1186.97C512.95 1249.78 516.94 1315.16 493.76 1351.37C487.67 1360.91 479.71 1368.43 469.91 1373.35H469.92Z" stroke="black" stroke-width="18.34" stroke-linecap="round" stroke-linejoin="round"/>
<path d="M776.602 1544.75L699.592 1564.45L661.842 1574.1C642.982 1578.91 625.852 1561.77 630.692 1542.92L682.752 1480.79L688.152 1422.44L749.012 1422.46L793.082 1508.26C800.562 1522.9 792.572 1540.69 776.612 1544.76L776.602 1544.75Z" fill="#FF0085"/>
<g style="mix-blend-mode:multiply">
<path d="M699.592 1564.46L661.842 1574.11C642.982 1578.92 625.852 1561.78 630.692 1542.93L691.082 1452.57C658.742 1559.87 662.062 1566.31 699.592 1564.46Z" fill="#FF0085"/>
</g>
<path d="M755.663 1435.44L793.063 1508.25C800.573 1522.88 792.553 1540.7 776.623 1544.77L661.863 1574.1C661.073 1574.3 660.293 1574.46 659.513 1574.59C637.483 1578.16 623.873 1550.79 639.023 1534.4C653.273 1518.99 681.403 1484.75 687.413 1448.89C695.543 1400.4 640.743 1403.69 640.743 1403.69" stroke="black" stroke-width="18.34" stroke-linecap="round" stroke-linejoin="round"/>
<path d="M1016.9 946.559C1013.74 967.029 1016.31 991.759 1001.23 1010.98C999.21 1013.55 996.9 1015.82 994.3 1017.95C980.91 959.579 940.66 917.539 931.67 884.109C920.41 842.029 915.93 820.489 905.84 803.729C915.6 800.279 924.95 797.819 933.03 799.399C954.27 803.549 963.19 829.519 978.82 839.059C979.96 839.719 981.13 840.379 982.31 840.999C998.2 873.759 1009.94 909.169 1016.91 946.549L1016.9 946.559Z" fill="#FF0085"/>
<g style="mix-blend-mode:multiply">
<path d="M1016.9 946.559C1013.74 967.029 1016.31 991.759 1001.23 1010.98C999.21 1013.55 996.9 1015.82 994.3 1017.95C980.91 959.579 940.66 917.539 931.67 884.109C920.41 842.029 915.93 820.489 905.84 803.729C915.6 800.279 924.95 797.819 933.03 799.399C954.27 803.549 963.19 829.519 978.82 839.059C979.96 839.719 981.13 840.379 982.31 840.999C998.2 873.759 1009.94 909.169 1016.91 946.549L1016.9 946.559Z" fill="#FF0085"/>
</g>
<path d="M1016.9 946.559C1013.74 967.029 1016.31 991.759 1001.23 1010.98C999.21 1013.55 996.9 1015.82 994.3 1017.95C980.91 959.579 940.66 917.539 931.67 884.109C920.41 842.029 915.93 820.489 905.84 803.729C915.6 800.279 924.95 797.819 933.03 799.399C954.27 803.549 963.19 829.519 978.82 839.059C979.96 839.719 981.13 840.379 982.31 840.999C998.2 873.759 1009.94 909.169 1016.91 946.549L1016.9 946.559Z" stroke="black" stroke-width="18.34" stroke-linecap="round" stroke-linejoin="round"/>
</g>
</g>
<defs>
<clipPath id="clip0_655_49">
<rect width="2000" height="2000" fill="white"/>
</clipPath>
</defs>
</svg>
