<svg width="2000" height="2000" viewBox="0 0 2000 2000" fill="none" xmlns="http://www.w3.org/2000/svg">
<g clip-path="url(#clip0_175_194)">
<mask id="mask0_175_194" style="mask-type:luminance" maskUnits="userSpaceOnUse" x="0" y="0" width="2000" height="2000">
<path d="M2000 0H0V2000H2000V0Z" fill="white"/>
</mask>
<g mask="url(#mask0_175_194)">
<path d="M519.483 984.5C478.903 1081.12 314.613 1276.32 308.563 1475.97C308.563 1475.97 262.383 1362.4 308.563 1236.5C308.563 1236.5 252.093 1312.16 238.913 1404.3C238.913 1404.3 218.383 1211.59 320.413 1128.52" fill="#FF2C10"/>
<g style="mix-blend-mode:multiply">
<path d="M519.483 984.5C478.903 1081.12 314.613 1276.32 308.563 1475.97C308.563 1475.97 262.383 1362.4 308.563 1236.5C308.563 1236.5 252.093 1312.16 238.913 1404.3C238.913 1404.3 218.383 1211.59 320.413 1128.52" fill="#FF2C10"/>
</g>
<path d="M519.483 984.5C478.903 1081.12 314.613 1276.32 308.563 1475.97C308.563 1475.97 262.383 1362.4 308.563 1236.5C308.563 1236.5 252.093 1312.16 238.913 1404.3C238.913 1404.3 218.383 1211.59 320.413 1128.52" stroke="black" stroke-width="18.34" stroke-linecap="round" stroke-linejoin="round"/>
<path d="M791.633 848.57C930.883 815.16 977.713 891.63 991.693 924.98C991.653 864.7 989.063 780.42 906.523 804.97C837.953 796.58 807.003 775.62 807.003 775.62L791.633 848.57Z" fill="#FF2C10" stroke="black" stroke-width="18.34" stroke-linecap="round" stroke-linejoin="round"/>
<path d="M671.192 871.131C788.152 820.241 867.712 873.551 887.852 894.371C894.392 830.241 797.862 791.451 744.242 805.151C690.632 818.851 661.422 812.211 661.422 812.211L671.182 871.131H671.192Z" fill="#FF2C10" stroke="black" stroke-width="18.34" stroke-linecap="round" stroke-linejoin="round"/>
<path d="M135.693 1086.59C129.213 1091.3 118.963 1079.93 123.233 1072.52C193.103 951.46 254.983 944.85 260.163 1012.88C263.033 1050.62 238.443 1075.41 218.333 1089.08C207.643 1096.34 193.263 1092.15 184.663 1080.5C177.653 1071.01 163.013 1066.75 135.703 1086.6L135.693 1086.59Z" fill="#A3E8CF"/>
<g style="mix-blend-mode:multiply">
<path d="M135.693 1086.59C129.213 1091.3 118.963 1079.93 123.233 1072.52C193.103 951.46 254.983 944.85 260.163 1012.88C263.033 1050.62 238.443 1075.41 218.333 1089.08C207.643 1096.34 193.263 1092.15 184.663 1080.5C177.653 1071.01 163.013 1066.75 135.703 1086.6L135.693 1086.59Z" fill="#A3E8CF"/>
</g>
<path d="M135.693 1086.59C129.213 1091.3 118.963 1079.93 123.233 1072.52C193.103 951.46 254.983 944.85 260.163 1012.88C263.033 1050.62 238.443 1075.41 218.333 1089.08C207.643 1096.34 193.263 1092.15 184.663 1080.5C177.653 1071.01 163.013 1066.75 135.703 1086.6L135.693 1086.59Z" stroke="black" stroke-width="18.34" stroke-linecap="round" stroke-linejoin="round"/>
<path d="M906.521 804.97C778.661 843.15 374.171 1033.58 303.291 1155.16C258.991 1231.15 183.401 1092.91 244.171 984.5C152.191 1000 196.221 825.54 322.511 725.72C677.171 445.39 973.311 785.02 906.521 804.97Z" fill="#A3E8CF"/>
<path d="M906.511 804.97C813.321 832.82 573.161 941.52 422.341 1045.5C366.241 1084.17 322.511 1122.21 303.291 1155.16C259.011 1231.14 183.391 1092.9 244.191 984.49C152.211 1000.01 196.241 825.56 322.521 725.73C346.001 707.17 369.221 691.35 392.081 677.96C714.791 488.94 968.891 786.34 906.521 804.97H906.511Z" fill="#A3E8CF"/>
<g style="mix-blend-mode:multiply">
<path d="M422.341 1045.5C366.241 1084.17 322.511 1122.21 303.291 1155.16C259.011 1231.14 183.391 1092.9 244.191 984.49C152.211 1000.01 196.241 825.56 322.521 725.73C224.911 841.99 239.671 908.711 256.921 926.141C283.411 952.921 354.681 951.581 393.061 929.901C279.631 970.041 246.061 1159.36 422.361 1045.5H422.341Z" fill="#A3E8CF"/>
</g>
<path d="M906.521 804.97C778.661 843.15 374.171 1033.58 303.291 1155.16C258.991 1231.15 183.401 1092.91 244.171 984.5C152.191 1000 196.221 825.54 322.511 725.72C677.171 445.39 973.311 785.02 906.521 804.97Z" stroke="black" stroke-width="18.34" stroke-linecap="round" stroke-linejoin="round"/>
<path d="M70.6315 904.551C63.0815 898.391 71.6215 878.001 81.3915 879.851C231.331 908.191 247.201 978.671 180.961 1015.4C145.351 1035.14 115.201 1020.82 95.9915 1005.55C85.4615 997.181 84.9715 978.871 93.9915 963.081C101.521 949.911 101.281 929.571 70.6215 904.551H70.6315Z" fill="#A3E8CF"/>
<g style="mix-blend-mode:multiply">
<path d="M70.6315 904.551C63.0815 898.391 71.6215 878.001 81.3915 879.851C231.331 908.191 247.201 978.671 180.961 1015.4C145.351 1035.14 115.201 1020.82 95.9915 1005.55C85.4615 997.181 84.9715 978.871 93.9915 963.081C101.521 949.911 101.281 929.571 70.6215 904.551H70.6315Z" fill="#A3E8CF"/>
</g>
<path d="M70.6315 904.551C63.0815 898.391 71.6215 878.001 81.3915 879.851C231.331 908.191 247.201 978.671 180.961 1015.4C145.351 1035.14 115.201 1020.82 95.9915 1005.55C85.4615 997.181 84.9715 978.871 93.9915 963.081C101.521 949.911 101.281 929.571 70.6215 904.551H70.6315Z" stroke="black" stroke-width="18.34" stroke-linecap="round" stroke-linejoin="round"/>
<path d="M244.18 984.5C244.18 984.5 319.5 975.73 436.69 905.41L244.18 984.5Z" fill="#A3E8CF"/>
<path d="M244.18 984.5C244.18 984.5 319.5 975.73 436.69 905.41" stroke="black" stroke-width="18.34" stroke-linecap="round" stroke-linejoin="round"/>
</g>
</g>
<defs>
<clipPath id="clip0_175_194">
<rect width="2000" height="2000" fill="white"/>
</clipPath>
</defs>
</svg>
