<svg width="2000" height="2000" viewBox="0 0 2000 2000" fill="none" xmlns="http://www.w3.org/2000/svg">
<g clip-path="url(#clip0_25_159)">
<mask id="mask0_25_159" style="mask-type:luminance" maskUnits="userSpaceOnUse" x="0" y="0" width="2000" height="2000">
<path d="M2000 0H0V2000H2000V0Z" fill="white"/>
</mask>
<g mask="url(#mask0_25_159)">
<path d="M885.019 768.67C876.399 761.92 865.759 754.51 852.399 745.48C831.009 731.06 808.339 719.1 784.779 709.78C791.129 708.86 797.249 708.31 803.089 708.17C834.089 707.36 856.579 716.61 870.849 736.31C871.329 737.37 871.989 738.36 872.829 739.21C878.189 747.39 882.219 757.19 885.009 768.67H885.019Z" fill="#31AEFF"/>
<path d="M664.929 1157.19C664.929 1157.19 452.879 1193.33 409.579 1069.73C396.999 1033.85 387.419 1063.6 381.989 1106.6C380.229 1120.54 378.909 1135.88 378.069 1150.81C374.029 1221.98 280.409 1042.8 280.409 1042.8C280.409 1042.8 327.809 972.51 368.199 912.67C396.119 871.32 420.739 834.93 424.039 830.23C432.079 818.75 717.029 642.94 717.029 642.94L772.139 682.31C670.029 744.46 613.899 684.33 577.609 744.46C502.019 869.72 539.299 990.66 664.939 1157.2L664.929 1157.19Z" fill="#FF5A5A"/>
<g style="mix-blend-mode:multiply">
<path d="M381.989 1106.6C380.229 1120.54 378.909 1135.88 378.069 1150.81C374.029 1221.98 280.409 1042.8 280.409 1042.8C280.409 1042.8 327.809 972.51 368.199 912.67C354.739 982.89 355.289 1052.45 381.989 1106.6Z" fill="#E85942"/>
</g>
<path d="M772.129 682.32C561.819 706.2 423.649 834.63 664.929 1157.19C664.929 1157.19 452.859 1193.34 409.569 1069.72C392.939 1022.24 381.529 1089.83 378.069 1150.81C374.019 1221.97 280.399 1042.8 280.399 1042.8C280.399 1042.8 415.989 841.72 424.029 830.23C432.069 818.74 717.029 642.94 717.029 642.94L772.129 682.33V682.32Z" stroke="black" stroke-width="18.34" stroke-linecap="round" stroke-linejoin="round"/>
<path d="M844.3 700.5C835.2 696.46 778.78 701.93 712.96 727.65C593.94 756.01 463.23 881.01 384.64 990.96C359.91 1025.59 340.36 1058.72 327.96 1086.86C322.68 1185.88 208.84 1061.99 232.9 977.24C157.36 878.07 251.06 680.8 306.42 615.06C307.74 613.63 309.02 612.2 310.27 610.84C394.43 519.71 420.08 546.71 588.4 595.61C699.93 615.05 803.43 604.27 844.22 643.12C886.48 694.26 887.14 735.46 844.29 700.5H844.3Z" fill="#31AEFF"/>
<path d="M384.63 990.96C359.9 1025.59 340.35 1058.72 327.95 1086.86C322.67 1185.88 208.83 1061.99 232.89 977.24C157.35 878.07 251.05 680.8 306.41 615.06C307.73 613.63 309.01 612.2 310.26 610.84C257.69 736.83 244.85 903.83 384.63 990.96Z" fill="#2060BC"/>
<path d="M258.51 985.121C247.73 947.041 250.32 933.191 272.93 900.491C295.53 867.781 347.6 777.041 360.71 827.111C373.82 877.181 443.57 911.161 437.01 923.681C429.86 936.201 351.82 1015.84 336 1066.62C316.46 1063.33 283.28 1053.72 258.51 985.121Z" fill="#00D7AD"/>
<path d="M898.08 793.15C875.24 511.87 325.91 931.31 320.41 1128.52C320.41 1128.52 213.98 1095.41 235.85 983.33C257.72 871.24 471 642.22 677.07 613.68C897.28 583.18 879.28 732.66 879.28 732.66" stroke="black" stroke-width="18.34" stroke-linecap="round" stroke-linejoin="round"/>
<path d="M235.85 983.32C182.21 886.75 194.56 759.28 315.17 612.3C422.28 481.76 464.64 601.27 705.96 610.58" stroke="black" stroke-width="18.34" stroke-linecap="round" stroke-linejoin="round"/>
<path d="M352.06 806.051C356.76 849.251 401.91 901.141 442.75 914.661" stroke="black" stroke-width="18.34" stroke-linecap="round" stroke-linejoin="round"/>
<path d="M512.26 680.16C536.73 709.43 571.05 752.69 571.07 799.1" stroke="black" stroke-width="18.34" stroke-linecap="round" stroke-linejoin="round"/>
<path d="M665.79 615.061C695.5 645.631 710.94 670.071 710.35 722.111" stroke="black" stroke-width="18.34" stroke-linecap="round" stroke-linejoin="round"/>
<path d="M250.39 940.841C254.08 996.271 279.47 1046.86 332.97 1072.61" stroke="black" stroke-width="18.34" stroke-linecap="round" stroke-linejoin="round"/>
</g>
</g>
<defs>
<clipPath id="clip0_25_159">
<rect width="2000" height="2000" fill="white"/>
</clipPath>
</defs>
</svg>
