<svg width="2000" height="2000" viewBox="0 0 2000 2000" fill="none" xmlns="http://www.w3.org/2000/svg">
<g clip-path="url(#clip0_186_50)">
<mask id="mask0_186_50" style="mask-type:luminance" maskUnits="userSpaceOnUse" x="0" y="0" width="2000" height="2000">
<path d="M2000 0H0V2000H2000V0Z" fill="white"/>
</mask>
<g mask="url(#mask0_186_50)">
<path d="M667.326 744.28C731.766 767.26 900.146 776.17 912.606 817.62C938.886 739.64 828.416 692.46 828.416 692.46L667.316 744.28H667.326Z" fill="#331DD1" stroke="black" stroke-width="18.34" stroke-linecap="round" stroke-linejoin="round"/>
<path d="M325.017 1450.17C291.957 1466.13 264.887 1502.67 246.647 1533.6C230.397 1561.26 221.227 1584.45 221.227 1584.45C146.857 1512.65 197.487 1364.29 256.377 1271.32C280.557 1233.05 306.167 1204.18 325.017 1193.87C325.017 1193.87 448.547 1390.55 325.017 1450.17Z" fill="#331DD1"/>
<g style="mix-blend-mode:multiply">
<path d="M280.237 1486.32C263.987 1513.98 221.227 1584.45 221.227 1584.45C146.857 1512.65 199.097 1394.46 244.687 1292.58C177.007 1536.78 221.407 1527.88 280.237 1486.32Z" fill="#331DD1"/>
</g>
<path d="M325.028 1193.87C260.308 1229.27 116.288 1483.13 221.248 1584.44C221.248 1584.44 262.388 1480.41 325.028 1450.18C448.558 1390.56 325.028 1193.87 325.028 1193.87Z" stroke="black" stroke-width="18.34" stroke-linecap="round" stroke-linejoin="round"/>
<path d="M436.229 1142.33C403.649 1213.36 337.029 1261.71 282.399 1254.19C226.959 1246.56 183.889 1181.36 201.209 1023.86C237.019 985.45 267.979 957.2 294.689 937.35C489.799 792.29 458.239 1094.41 436.229 1142.32V1142.33Z" fill="#331DD1"/>
<g style="mix-blend-mode:multiply">
<path d="M282.387 1254.19C226.947 1246.56 183.877 1181.36 201.197 1023.86C237.007 985.45 267.967 957.2 294.677 937.35C231.977 1057.06 239.207 1177.55 282.387 1254.19Z" fill="#331DD1"/>
</g>
<path d="M201.219 1023.85C166.799 1336.58 370.539 1285.4 436.229 1142.34C461.259 1087.83 498.629 704.79 201.219 1023.85Z" stroke="black" stroke-width="18.34" stroke-linecap="round" stroke-linejoin="round"/>
<path d="M321.929 779.85C260.489 773.07 256.229 695.06 286.639 642.28C294.669 628.35 315.259 632.63 318.249 648.61C322.989 673.93 338.569 710.28 379.789 757.64C467.209 858.08 353.789 816.03 353.789 816.03L321.919 779.83L321.929 779.85Z" fill="#FF4CFF"/>
<g style="mix-blend-mode:multiply">
<path d="M321.929 779.85C260.489 773.07 256.229 695.06 286.639 642.28C294.669 628.35 315.259 632.63 318.249 648.61C322.989 673.93 338.569 710.28 379.789 757.64C467.209 858.08 353.789 816.03 353.789 816.03L321.919 779.83L321.929 779.85Z" fill="#FF4CFF"/>
</g>
<path d="M321.929 779.85C260.489 773.07 256.229 695.06 286.639 642.28C294.669 628.35 315.259 632.63 318.249 648.61C322.989 673.93 338.569 710.28 379.789 757.64C467.209 858.08 353.789 816.03 353.789 816.03L321.919 779.83L321.929 779.85Z" stroke="black" stroke-width="18.34" stroke-linecap="round" stroke-linejoin="round"/>
<path d="M844.298 701.25C740.178 773.67 682.538 704.33 506.738 888.65C444.738 953.66 390.618 999.04 344.098 1029.13C138.758 1161.94 80.6083 996.99 141.618 902.67C204.798 805.01 241.668 879.59 448.478 668.46C448.478 668.42 448.518 668.39 448.518 668.39C481.388 634.86 518.518 594.13 560.708 544.35C816.058 243.07 945.008 631.23 844.308 701.26L844.298 701.25Z" fill="#FF4CFF"/>
<g style="mix-blend-mode:multiply">
<path d="M344.098 1029.13C138.758 1161.94 80.6083 996.99 141.618 902.67C204.798 805.01 241.668 879.59 448.478 668.46C412.708 731.56 365.308 791.84 308.408 836.38C191.708 927.7 209.278 1020.81 344.108 1029.14L344.098 1029.13Z" fill="#FF4CFF"/>
</g>
<path d="M844.298 701.25C740.178 773.67 682.538 704.33 506.738 888.65C444.738 953.66 390.618 999.04 344.098 1029.13C138.758 1161.94 80.6083 996.99 141.618 902.67C204.798 805.01 241.668 879.59 448.478 668.46C448.478 668.42 448.518 668.39 448.518 668.39C481.388 634.86 518.518 594.13 560.708 544.35C816.058 243.07 945.008 631.23 844.308 701.26L844.298 701.25Z" stroke="black" stroke-width="18.34" stroke-linecap="round" stroke-linejoin="round"/>
<path d="M758.159 607.69C777.179 607.69 792.599 585.345 792.599 557.78C792.599 530.216 777.179 507.87 758.159 507.87C739.138 507.87 723.719 530.216 723.719 557.78C723.719 585.345 739.138 607.69 758.159 607.69Z" fill="#FFC800" stroke="black" stroke-width="18.34" stroke-miterlimit="10"/>
<path d="M828.53 652.23C839.454 652.23 848.31 639.394 848.31 623.56C848.31 607.726 839.454 594.89 828.53 594.89C817.606 594.89 808.75 607.726 808.75 623.56C808.75 639.394 817.606 652.23 828.53 652.23Z" fill="#00D4B0" stroke="black" stroke-width="18.34" stroke-miterlimit="10"/>
</g>
</g>
<defs>
<clipPath id="clip0_186_50">
<rect width="2000" height="2000" fill="white"/>
</clipPath>
</defs>
</svg>
