<svg width="2000" height="2000" viewBox="0 0 2000 2000" fill="none" xmlns="http://www.w3.org/2000/svg">
<g clip-path="url(#clip0_1_431)">
<mask id="mask0_1_431" style="mask-type:luminance" maskUnits="userSpaceOnUse" x="0" y="0" width="2000" height="2000">
<path d="M2000 0H0V2000H2000V0Z" fill="white"/>
</mask>
<g mask="url(#mask0_1_431)">
<path d="M996.7 880.49C915.14 963.04 947.32 877.3 947.32 877.3C972.74 844.54 984.78 796.4 967.13 740.01C919.66 666.01 904.58 679.92 817.37 684.83C591.7 718.14 416.37 827 315.15 905.32C268.96 941.02 238.18 970.37 225.12 983.28C189.09 1001.33 203.77 1061.32 224.57 1077.79C245.41 1094.26 245.7 1106.59 225.34 1135.72C211.62 1205.68 263.39 1178.31 294.94 1187.19C335.3 1220.32 279.93 1221.38 197.24 1186.38C92.4996 1132.6 158.5 956.42 204.69 893.65C250.84 830.88 237.08 807.47 236.61 706.98C223.11 596.62 336.25 545.77 475.23 489.42C476.37 488.83 477.54 488.25 478.75 487.66C519.99 467.81 595.71 458.35 625.28 462.46C655.69 466.64 797.16 581.88 825.6 603.89C852.6 612.77 899.6 597.91 978.29 666.37C1063.81 731.42 1042.82 797.97 996.71 880.48L996.7 880.49Z" fill="#FF7EFF"/>
<path d="M304.69 720.87C358.49 912.8 315.56 856.94 315.15 905.33C268.96 941.03 238.18 970.38 225.12 983.29C210.89 990.41 204.57 1004.06 203.44 1019.02C183.63 1034.58 166.02 1059.23 143.97 1111.44C130.25 1037.26 172.33 937.65 204.69 893.66C250.84 830.89 237.08 807.48 236.61 706.99C223.11 596.63 336.25 545.78 475.23 489.43C476.37 488.84 477.54 488.26 478.75 487.67C346.93 537.14 282.66 642.26 304.7 720.87H304.69Z" fill="#F25FE4"/>
<path d="M547.93 886.03C556.4 918.61 548.44 953.76 548.44 953.76C523.38 1021.34 459.21 1010.52 459.21 1010.52C462.07 1036.05 474.69 1088.37 462.26 1127.63C451.84 1160.5 418.93 1163.11 393.36 1174.48C388.37 1176.68 383.67 1179.25 379.46 1182.4C354.84 1229.29 328.13 1229.07 309.57 1208.19C291.01 1187.35 290.82 1179.43 275.45 1180.34C222.07 1205.58 212.31 1145.3 245.59 1096.51C231.76 1092.88 212.31 1075.96 203.18 1021.63C225.34 941.72 460.84 804.549 581.17 751.859C595.77 745.479 608.69 740.299 619.33 736.669C619.33 736.669 677.18 717.11 692.48 712.27C707.12 824.57 596.4 878.36 547.94 886.03H547.93Z" fill="#00FFA9"/>
<path d="M340.129 1004.75C317.049 1105.05 380.669 1052.59 380.049 1117.49C379.829 1141.52 386.099 1159.68 393.369 1174.47C388.379 1176.67 383.679 1179.24 379.469 1182.39C354.849 1229.28 328.139 1229.06 309.579 1208.18C291.019 1187.34 290.829 1179.42 275.459 1180.33C222.079 1205.57 212.319 1145.29 245.599 1096.5C231.769 1092.87 212.319 1075.95 203.189 1021.62C225.349 941.71 460.849 804.54 581.179 751.85C464.179 833.55 357.569 928.94 340.139 1004.74L340.129 1004.75Z" fill="#00C9A7"/>
<path d="M947.319 877.3C939.319 893 929.779 893.3 920.569 886.66C906.039 876.2 887.989 835.58 882.379 824.06C873.239 805.24 885.65 797.19 844.59 803.1C796.05 807.47 727.439 765.92 692.469 712.29C693.499 711.52 681.909 714.61 685.799 713.1C702.789 706.61 747.359 694.17 821.619 686.02C821.619 686.02 866.199 680.22 904.569 679.93C1020.61 721.97 967.889 836.84 947.309 877.31L947.319 877.3Z" fill="#00FFA9"/>
<path d="M947.319 877.3C939.319 893 929.779 893.3 920.569 886.66C936.089 856.8 968.629 817.28 915.209 777.88C897.929 765.15 935.239 740.02 918.769 728.46C883.589 703.81 784.419 700.72 685.799 713.09C702.789 706.6 747.359 694.16 821.619 686.01C821.619 686.01 866.199 680.21 904.569 679.92C1020.61 721.96 967.889 836.83 947.309 877.3H947.319Z" fill="#00C9A7"/>
<path d="M309.57 1208.2C330.7 1230.95 350.11 1220.49 364.09 1204.64C377.7 1189.27 386.18 1168.8 386.18 1168.8C386.18 1168.8 492.13 1188.61 459.23 1010.53C555.9 1017.98 562.73 915.619 547.94 886.049C703.75 857.619 692.48 712.279 692.48 712.279C709.8 746.799 818.35 825.959 872.94 796.759C886.59 851.349 935.47 894.859 935.47 894.859C1017.61 780.909 967.17 715.639 904.58 679.939" stroke="black" stroke-width="18.34" stroke-linecap="round" stroke-linejoin="round"/>
<path d="M309.569 1208.2C302.559 1200.72 295.409 1189.56 288.139 1173.75C215.869 1216.34 207.279 1141.02 245.579 1096.52C219.419 1082.32 205.439 1047.8 201.959 1010.67C235.599 967.27 286.079 921.26 348.889 877.35" stroke="black" stroke-width="18.34" stroke-linecap="round" stroke-linejoin="round"/>
<g style="mix-blend-mode:multiply">
<path d="M309.57 1208.2C234.8 1208.93 180.8 1190.11 162.05 1150.6C144.44 1113.58 160.51 1064.09 201.97 1010.67C205.46 1047.8 219.43 1082.32 245.59 1096.52C207.29 1141.02 215.87 1216.34 288.15 1173.75C295.41 1189.56 302.57 1200.72 309.58 1208.2H309.57Z" fill="#FF7EFF"/>
</g>
<g style="mix-blend-mode:multiply">
<path d="M930.27 679.63C973.17 686.44 1032.89 708.01 1041.66 750.91C1050.43 793.81 985.37 907.7 953.91 915.1C944.02 900.93 932.4 897.38 956.81 867.75C980.51 837.18 982.43 737.3 952.07 712.99C921.71 688.67 916.05 680.88 917.94 679.63C919.84 678.38 930.26 679.63 930.26 679.63H930.27Z" fill="#FF7EFF"/>
</g>
<path d="M309.57 1208.2C234.8 1208.93 180.8 1190.11 162.05 1150.6C144.44 1113.58 160.51 1064.09 201.97 1010.67C205.46 1047.8 219.43 1082.32 245.59 1096.52C207.29 1141.02 215.87 1216.34 288.15 1173.75C295.41 1189.56 302.57 1200.72 309.58 1208.2H309.57Z" stroke="black" stroke-width="18.34" stroke-linecap="round" stroke-linejoin="round"/>
<path d="M935.46 894.86C939.23 903.82 944.61 913.41 950.7 923.73C1021.76 853.11 1054.78 784.87 1032.15 737.25C1015.09 701.33 968.94 682.51 904.59 679.94C855.28 677.96 795.26 685.48 729.41 702.17" stroke="black" stroke-width="18.34" stroke-linecap="round" stroke-linejoin="round"/>
<path d="M1032.14 737.24C1004.39 661.96 919.18 613.15 842.06 607.27C827.2 606.14 813.19 600.02 801.85 590.35C769.73 562.95 703.41 507.44 653.25 472.44C636.23 460.56 615.4 455.38 594.84 458.27C521.51 468.55 366.72 516.43 262.38 609.13C248.91 621.09 240.8 637.96 239.36 655.91C234.23 719.76 235.99 786.11 237.77 823.86C238.66 842.75 231.9 861.06 219.41 875.25C162.23 940.21 114.97 1065.02 162.05 1150.59" stroke="black" stroke-width="18.34" stroke-linecap="round" stroke-linejoin="round"/>
<path d="M348.939 877.32C398.619 842.54 455.989 809.12 518.839 779.22C591.629 744.66 663.429 718.83 729.389 702.18" stroke="black" stroke-width="18.34" stroke-linecap="round" stroke-linejoin="round"/>
<path d="M294.15 824.82C461.04 679.94 683.59 619.42 762.82 613.35" stroke="black" stroke-width="18.34" stroke-linecap="round" stroke-linejoin="round"/>
<path d="M592.831 599.49C621.052 599.49 643.93 576.612 643.93 548.39C643.93 520.168 621.052 497.29 592.831 497.29C564.609 497.29 541.73 520.168 541.73 548.39C541.73 576.612 564.609 599.49 592.831 599.49Z" fill="#00C9A7" stroke="black" stroke-width="18.34" stroke-linecap="round" stroke-linejoin="round"/>
</g>
</g>
<defs>
<clipPath id="clip0_1_431">
<rect width="2000" height="2000" fill="white"/>
</clipPath>
</defs>
</svg>
