<svg width="2000" height="2000" viewBox="0 0 2000 2000" fill="none" xmlns="http://www.w3.org/2000/svg">
<g clip-path="url(#clip0_7_1337)">
<mask id="mask0_7_1337" style="mask-type:luminance" maskUnits="userSpaceOnUse" x="0" y="0" width="2000" height="2000">
<path d="M2000 0H0V2000H2000V0Z" fill="white"/>
</mask>
<g mask="url(#mask0_7_1337)">
<path d="M898.91 904.38L881.6 910.07C887.51 908.79 893.3 906.85 898.91 904.38Z" fill="#F607A9"/>
<path d="M964.61 689.65C977.42 660.69 972.48 625.63 949.32 601.24C930.91 581.84 905.16 573.6 880.51 576.71C879.99 576.38 879.47 576.05 878.95 575.72C875.26 565.93 869.59 556.7 861.94 548.63C832.8 517.93 785.31 515.16 752.86 541.14C724.91 535.17 694.59 542.62 672.3 563.79C652.23 582.84 642.92 608.97 644.55 634.58C640.01 637.53 635.65 640.92 631.58 644.78C616.27 659.31 607.26 677.96 604.55 697.35C833.48 670.32 906.54 795.48 906.54 795.48C920.47 810.79 924.8 836.54 929.71 861.12C945.45 838.46 956.75 822.21 949.31 796.44C950.57 795.38 951.81 794.29 953.02 793.14C981.99 765.64 986.09 721.78 964.62 689.66L964.61 689.65Z" fill="#F607A9"/>
<path d="M395.79 959.821C395.79 959.821 386.87 1036.65 487.25 1179.45C487.25 1179.45 383 1142 305.23 1110.15L300.81 987.181L395.79 959.811V959.821Z" fill="#EE0F46"/>
<path d="M385.24 952.28C385.24 952.28 386.87 1036.64 487.25 1179.45C487.25 1179.45 391.08 1149.45 303.83 1115.72L290.27 979.65L385.25 952.28H385.24Z" stroke="black" stroke-width="18.34" stroke-linecap="round" stroke-linejoin="round"/>
<path d="M524.6 718.42C524.6 718.42 630.02 720.05 719.04 798.89C719.04 798.89 563.27 812.53 442.84 971.84C442.84 971.84 378.43 822.52 337.55 808.3L524.6 718.42Z" fill="#F607A9"/>
<path d="M603.03 687.26C603.03 687.26 694.36 723.15 774.15 772.68C774.15 772.68 828.46 765.78 904.36 795.47C904.36 795.47 844.61 636.88 603.03 687.26Z" fill="#F607A9"/>
<path d="M674.2 647.35C704.45 563.66 762.94 572.73 762.94 572.73C788.65 541.51 830.33 542.26 859.12 547.66C858.88 547.4 858.68 547.13 858.44 546.87C829.3 516.17 781.81 513.4 749.36 539.38C721.41 533.41 691.09 540.86 668.8 562.03C648.73 581.08 639.42 607.21 641.05 632.82C636.51 635.77 632.15 639.16 628.08 643.02C616.26 654.24 608.47 675.89 604.16 690.47L628.83 685.67C638.91 662.48 674.21 647.35 674.21 647.35H674.2Z" fill="#EE0F46"/>
<path d="M930.15 871.61C945.89 848.95 956.74 822.19 949.3 796.42C950.56 795.36 951.8 794.27 953.01 793.12C981.98 765.62 986.08 721.76 964.61 689.64C977.42 660.68 972.48 625.62 949.32 601.23C930.91 581.83 905.16 573.59 880.51 576.7C879.99 576.37 879.47 576.04 878.95 575.71C875.26 565.92 869.59 556.69 861.94 548.62C832.8 517.92 785.31 515.15 752.86 541.13C724.91 535.16 694.59 542.61 672.3 563.78C652.23 582.83 642.92 608.96 644.55 634.57C640.01 637.52 635.65 640.91 631.58 644.77C616.27 659.3 609.67 672.69 606.96 692.09" stroke="black" stroke-width="18.34" stroke-linecap="round" stroke-linejoin="round"/>
<path d="M604.53 697.351C604.53 697.351 685.53 717.441 769.73 776.691C845.27 767.831 906.53 795.471 906.53 795.471" stroke="black" stroke-width="18.34" stroke-linecap="round" stroke-linejoin="round"/>
<path d="M679.83 682.29C752.05 675.72 822.74 699.11 873.16 746.41" stroke="black" stroke-width="18.34" stroke-linecap="round" stroke-linejoin="round"/>
<path d="M538.28 713.811C538.28 713.811 632.19 726.741 719.04 798.891C719.04 798.891 579.94 830.701 494.02 900.391" stroke="black" stroke-width="18.34" stroke-linecap="round" stroke-linejoin="round"/>
<path d="M320.41 1128.52C271.06 944.33 380.36 755 564.56 705.65C577.92 702.07 591.3 699.33 604.65 697.38" stroke="black" stroke-width="18.34" stroke-linecap="round" stroke-linejoin="round"/>
<path d="M83.2 781.89C74.8 824.42 89.79 865.7 118.76 890.45C118.25 892.43 87.6 901.05 87.2 903.08C77.61 951.63 102.15 998.36 143.28 1014.74C149.92 1052.96 207.5 1077.69 245.22 1085.14C275.21 1091.06 304.91 1080.52 326.22 1059.45C326.93 1059.4 327.63 1059.35 328.34 1059.3C338.18 1066.37 349.52 1071.45 361.99 1073.91C409.45 1083.29 456.18 1051.43 470.05 1001.86C500.36 987.44 524.22 957.9 531.6 920.54C538.24 886.91 530.12 854.06 511.99 829.7C514.38 823.44 516.3 816.89 517.65 810.07C529.07 752.27 496.91 696.81 445.18 682.75C434.6 655.77 412.18 635.03 383.26 629.32C356.18 623.97 329.36 632.99 309.6 651.34C302.19 647.11 294.04 644.01 285.3 642.28C247.49 634.81 210.18 655.31 191.91 690.19C141.15 688.01 94.18 726.39 83.22 781.89H83.2Z" fill="#F607A9"/>
<path d="M327.24 1003.82C190.56 1071.01 197.6 982.64 183.5 971.36C138.98 935.74 148.25 936.11 148.25 936.11C148.25 936.11 180 920.59 176.45 910.73C122.38 760.78 239.89 735.91 239.89 735.91C241.43 718.16 238.48 679.52 296.28 648.5C261.03 637.22 210.52 664.37 195.25 693.54C144.49 691.36 97.52 729.74 86.56 785.23C78.16 827.76 93.15 869.04 122.12 893.79C121.61 895.77 90.96 904.39 90.56 906.42C80.97 954.97 105.51 1001.7 146.64 1018.08C153.28 1056.3 210.86 1081.03 248.58 1088.48C278.57 1094.4 308.27 1083.86 329.58 1062.79C330.29 1062.74 330.99 1062.69 331.7 1062.64C341.54 1069.71 352.88 1074.79 365.35 1077.25C368.68 1077.91 372 1078.34 375.31 1078.6L445.68 1052.21C447.22 1050.72 448.7 1049.15 450.15 1047.55C361.01 1053.87 356.67 989.34 327.25 1003.8L327.24 1003.82Z" fill="#EE0F46"/>
<path d="M83.2 781.89C74.8 824.42 89.79 865.7 118.76 890.45C118.25 892.43 87.6 901.05 87.2 903.08C77.61 951.63 102.15 998.36 143.28 1014.74C149.92 1052.96 207.5 1077.69 245.22 1085.14C275.21 1091.06 304.91 1080.52 326.22 1059.45C326.93 1059.4 327.63 1059.35 328.34 1059.3C338.18 1066.37 349.52 1071.45 361.99 1073.91C409.45 1083.29 456.18 1051.43 470.05 1001.86C500.36 987.44 524.22 957.9 531.6 920.54C538.24 886.91 530.12 854.06 511.99 829.7C514.38 823.44 516.3 816.89 517.65 810.07C529.07 752.27 496.91 696.81 445.18 682.75C434.6 655.77 412.18 635.03 383.26 629.32C356.18 623.97 329.36 632.99 309.6 651.34C302.19 647.11 294.04 644.01 285.3 642.28C247.49 634.81 210.18 655.31 191.91 690.19C141.15 688.01 94.18 726.39 83.22 781.89H83.2Z" stroke="black" stroke-width="18.34" stroke-linecap="round" stroke-linejoin="round"/>
</g>
</g>
<defs>
<clipPath id="clip0_7_1337">
<rect width="2000" height="2000" fill="white"/>
</clipPath>
</defs>
</svg>
