<svg width="2000" height="2000" viewBox="0 0 2000 2000" fill="none" xmlns="http://www.w3.org/2000/svg">
<g clip-path="url(#clip0_2_994)">
<mask id="mask0_2_994" style="mask-type:luminance" maskUnits="userSpaceOnUse" x="0" y="0" width="2000" height="2000">
<path d="M2000 0H0V2000H2000V0Z" fill="white"/>
</mask>
<g mask="url(#mask0_2_994)">
<path d="M779.11 843.36L802.06 739.93C823.61 738.99 867.06 872.71 867.06 872.71L865.08 746.03L971.95 825.3C971.95 825.3 768.74 306.73 340.03 603.79C-47.6998 872.38 274.51 1250.21 274.51 1250.21L498.25 1141.95C498.25 1141.95 451.15 1132.25 431.84 1060.04C414.55 995.38 559.92 1047.44 524.33 1032.33C491 1018.18 465.26 944.9 465.26 944.9C501.09 964.74 585.9 991.04 585.9 991.04C556.28 971.62 533.6 867.09 533.6 867.09C559.96 937.52 658.53 955.75 658.53 955.75C623.4 946.18 582.79 837.07 582.79 837.07C609.46 876.78 739.8 906.87 739.8 906.87C739.8 906.87 538.77 779.19 681.98 768.35C676.6 714.67 757.71 654.07 779.13 843.37L779.11 843.36Z" fill="#E9008A"/>
<path d="M282.33 645.23C-6.71967 909.75 274.5 1250.21 274.5 1250.21L357.19 1219.92C299.82 1172.58 202.68 1080.16 193.33 918C186.79 804.55 200.53 768.2 282.33 645.24V645.23Z" fill="#C40047"/>
<path d="M779.11 843.36L802.06 739.93C858.66 799.49 867.06 872.711 867.06 872.711L865.08 746.031L971.95 825.31C971.95 825.31 797.16 321.88 352.09 595.74C-49.3896 842.79 274.5 1250.21 274.5 1250.21L498.24 1141.95C498.24 1141.95 451.14 1132.25 431.83 1060.04C414.54 995.381 559.91 1047.44 524.32 1032.33C490.99 1018.18 465.25 944.901 465.25 944.901C498.93 959.361 585.89 991.04 585.89 991.04C556.27 971.62 533.59 867.091 533.59 867.091C556.99 944.961 658.52 955.75 658.52 955.75C623.39 946.18 582.78 837.07 582.78 837.07C609.45 876.78 739.79 906.87 739.79 906.87C728.91 910.36 528.29 758.32 681.97 768.35C678.12 699.35 757.7 660.82 779.12 843.37L779.11 843.36Z" stroke="black" stroke-width="18.34" stroke-linecap="round" stroke-linejoin="round"/>
</g>
</g>
<defs>
<clipPath id="clip0_2_994">
<rect width="2000" height="2000" fill="white"/>
</clipPath>
</defs>
</svg>
