<svg width="2000" height="2000" viewBox="0 0 2000 2000" fill="none" xmlns="http://www.w3.org/2000/svg">
<g clip-path="url(#clip0_17_95)">
<mask id="mask0_17_95" style="mask-type:luminance" maskUnits="userSpaceOnUse" x="0" y="0" width="2000" height="2000">
<path d="M2000 0H0V2000H2000V0Z" fill="white"/>
</mask>
<g mask="url(#mask0_17_95)">
<path d="M865.95 770.25C844.34 710.12 579.26 739.79 456.81 845.52C334.36 951.24 309.84 1132.17 309.84 1132.17C309.84 1132.17 218.6 1074.36 220.61 1060.98C222.62 1047.6 194.51 893.7 201.2 884.33C207.89 874.96 263.43 844.85 265.44 844.18C267.45 843.51 437.41 670.87 442.76 672.88C448.11 674.89 705.06 702.32 743.2 678.9C781.34 655.48 840.89 664.85 840.89 664.85C840.89 664.85 960.71 767.13 865.95 770.25Z" fill="#01589B"/>
<path d="M865.95 770.25C805.1 718.91 579.26 739.79 456.81 845.52C334.36 951.24 312.09 1120.58 312.09 1120.58C312.09 1120.58 218.59 1074.36 220.6 1060.98C222.61 1047.6 194.5 893.7 201.19 884.33C207.88 874.96 263.42 844.85 265.43 844.18C267.44 843.51 437.4 670.87 442.75 672.88C448.1 674.89 705.05 702.32 743.19 678.9C781.33 655.48 840.88 664.85 840.88 664.85C840.88 664.85 960.7 767.13 865.94 770.25H865.95Z" stroke="black" stroke-width="18.34" stroke-linecap="round" stroke-linejoin="round"/>
<path d="M757.01 803.69C509.83 691.58 348.58 798.15 549.6 944.69C549.6 944.69 357.45 999.99 293.46 958.84C293.46 958.84 293.92 1066.73 381.4 1152.24C381.4 1152.24 166.41 1135.7 138.49 988.78C110.57 841.86 202.7 602.66 630.27 650.81C630.27 650.81 769.48 500.34 889.35 645.56C960.01 731.16 873 794.63 873 794.63C873 794.63 859.65 625.25 757.02 803.68L757.01 803.69Z" fill="#00C2ED"/>
<path d="M872.98 794.64C872.98 794.64 860.8 614.15 757.01 803.7C509.84 691.58 348.6 798.16 549.61 944.69C549.61 944.69 357.44 999.98 293.46 958.85C293.46 958.85 293.53 973.49 298.01 996.31C305.64 1035.35 326.19 1098.27 381.4 1152.23C381.4 1152.23 166.41 1135.68 138.49 988.79C122.79 906.2 145.02 794.45 243.45 721C320.13 663.73 443.03 629.72 630.29 650.82C630.29 650.82 769.48 500.33 889.34 645.57C960 731.16 872.98 794.63 872.98 794.63V794.64Z" fill="#00C2ED"/>
<path d="M381.4 1152.24C381.4 1152.24 166.41 1135.69 138.49 988.8C122.79 906.21 124.78 751.98 351.29 667.74C116.66 926.93 230.76 916.05 298.01 996.32C305.64 1035.36 326.19 1098.28 381.4 1152.24Z" fill="#01589B"/>
<path d="M757.01 803.69C509.83 691.58 348.58 798.15 549.6 944.69C549.6 944.69 357.45 999.99 293.46 958.84C293.46 958.84 293.92 1066.73 381.4 1152.24C381.4 1152.24 166.41 1135.7 138.49 988.78C110.57 841.86 202.7 602.66 630.27 650.81C630.27 650.81 769.48 500.34 889.35 645.56C960.01 731.16 873 794.63 873 794.63C873 794.63 856.97 617.59 757.02 803.68L757.01 803.69Z" stroke="black" stroke-width="18.34" stroke-linecap="round" stroke-linejoin="round"/>
<path d="M630.27 650.82C669.08 667.84 711.88 692.85 739.8 752.76" stroke="black" stroke-width="18.34" stroke-linecap="round" stroke-linejoin="round"/>
</g>
</g>
<defs>
<clipPath id="clip0_17_95">
<rect width="2000" height="2000" fill="white"/>
</clipPath>
</defs>
</svg>
