<svg width="2000" height="2000" viewBox="0 0 2000 2000" fill="none" xmlns="http://www.w3.org/2000/svg">
<g clip-path="url(#clip0_28_335)">
<mask id="mask0_28_335" style="mask-type:luminance" maskUnits="userSpaceOnUse" x="0" y="0" width="2000" height="2000">
<path d="M2000 0H0V2000H2000V0Z" fill="white"/>
</mask>
<g mask="url(#mask0_28_335)">
<path d="M517.321 618.34C266.341 700.7 44.4212 833.77 145.231 1066C194.221 1178.87 269.081 1295.19 263.661 1227.61C257.561 1151.6 294.831 1147.04 376.281 1137.45C432.311 1130.85 469.781 982.43 487.721 890.43C492.861 864.09 523.661 851.53 545.301 867.42C565.081 881.94 590.201 892.62 618.361 886.83C686.441 872.81 709.851 808.74 779.231 830.77C848.611 852.79 876.421 785.24 895.651 798.73C905.581 805.7 950.401 830.83 931.721 766.25C922.731 735.17 764.711 537.17 517.321 618.35V618.34Z" fill="#D1FDEE" stroke="black" stroke-width="18.34" stroke-linecap="round" stroke-linejoin="round"/>
<path d="M931.72 766.231C922.73 735.151 764.71 537.151 517.32 618.331C347.11 674.191 190.31 753.381 138.43 870.991C127.61 915.391 125.73 965.661 134.05 1023.08C135.29 1031.66 136.67 1040.08 138.16 1048.33C140.33 1054.16 142.65 1060.03 145.23 1065.99C169.44 1121.77 199.97 1178.38 224.01 1213.24C234.12 1204.72 242.18 1181.32 246.22 1139.09C253.48 1063.18 288.55 1123.97 365.09 1094.54C394.9 1083.08 428.37 1049.65 426.32 982.411C425.36 950.881 445.25 954.181 471.24 964.421C477.87 938.321 483.37 912.721 487.71 890.421C492.85 864.081 523.65 851.521 545.29 867.411C555.86 875.171 567.96 881.801 581.23 885.441C571.84 853.901 565.16 831.131 607.16 843.911C673.65 864.141 698.65 765.821 768.03 787.851C837.41 809.871 846.28 737.261 884.45 755.811C895.36 761.111 919.66 784.051 935.75 785.101C935.13 779.881 933.86 773.681 931.71 766.231H931.72Z" fill="#74F7CD"/>
<path d="M517.321 618.34C266.341 700.7 44.4212 833.77 145.231 1066C194.221 1178.87 269.081 1295.19 263.661 1227.61C257.561 1151.6 294.831 1147.04 376.281 1137.45C432.311 1130.85 469.781 982.43 487.721 890.43C492.861 864.09 523.661 851.53 545.301 867.42C565.081 881.94 590.201 892.62 618.361 886.83C686.441 872.81 709.851 808.74 779.231 830.77C848.611 852.79 876.421 785.24 895.651 798.73C905.581 805.7 950.401 830.83 931.721 766.25C922.731 735.17 764.711 537.17 517.321 618.35V618.34Z" stroke="black" stroke-width="18.34" stroke-linecap="round" stroke-linejoin="round"/>
<path d="M592.931 816.701C659.431 836.931 684.421 738.611 753.801 760.641C823.181 782.661 832.051 710.061 870.221 728.601C885.421 735.991 926.651 777.671 935.411 746.521C958.771 663.391 739.291 467.041 491.901 548.221C240.921 630.581 83.5008 745.331 119.811 995.881C143.881 1161.95 216.691 1271.72 231.981 1111.88C239.241 1035.97 274.311 1096.76 350.851 1067.33C380.661 1055.87 414.131 1022.44 412.081 955.201C410.031 887.961 502.841 979.161 547.401 958.161C630.451 919.031 504.981 789.951 592.921 816.711L592.931 816.701Z" fill="#F0FFFA" stroke="black" stroke-width="18.34" stroke-linecap="round" stroke-linejoin="round"/>
<path d="M119.801 995.88C143.871 1161.95 216.101 1277.37 231.391 1117.53C234.081 1089.47 233.041 1078.15 244.011 1075.99C222.951 1054.61 196.811 1051.05 178.891 912.98C176.371 893.53 175.611 773.71 370.071 721.51C453.741 699.05 241.361 708.64 287.941 637.54C153.741 724.33 97.9212 844.97 119.791 995.88H119.801Z" fill="#74F7CD"/>
<path d="M592.931 816.701C659.431 836.931 684.421 738.611 753.801 760.641C823.181 782.661 832.051 710.061 870.221 728.601C885.421 735.991 926.651 777.671 935.411 746.521C958.771 663.391 739.291 467.041 491.901 548.221C240.921 630.581 83.5008 745.331 119.811 995.881C143.881 1161.95 216.691 1271.72 231.981 1111.88C239.241 1035.97 274.311 1096.76 350.851 1067.33C380.661 1055.87 414.131 1022.44 412.081 955.201C410.031 887.961 502.841 979.161 547.401 958.161C630.451 919.031 504.981 789.951 592.921 816.711L592.931 816.701Z" stroke="black" stroke-width="18.34" stroke-linecap="round" stroke-linejoin="round"/>
<path d="M671.381 537.51C704.111 611.63 654.331 759.92 464.061 723.99C303.281 693.63 201.651 808.69 147.471 780.81C77.3709 744.73 244.891 555.72 390.661 505.78C530.271 457.95 640.631 467.9 671.371 537.52L671.381 537.51Z" fill="url(#paint0_linear_28_335)"/>
<path style="mix-blend-mode:multiply" d="M237.822 762.82C199.302 779.47 169.142 791.96 147.472 780.8C100.272 756.52 163.242 659.77 252.802 586.34C148.182 723.36 415.962 620.48 237.822 762.82Z" fill="url(#paint1_linear_28_335)"/>
<path d="M671.381 537.51C704.111 611.63 654.331 759.92 464.061 723.99C303.281 693.63 201.651 808.69 147.471 780.81C77.3709 744.73 244.891 555.72 390.661 505.78C530.271 457.95 640.631 467.9 671.371 537.52L671.381 537.51Z" stroke="black" stroke-width="18.34" stroke-miterlimit="10"/>
</g>
</g>
<defs>
<linearGradient id="paint0_linear_28_335" x1="131.011" y1="630.71" x2="680.701" y2="630.71" gradientUnits="userSpaceOnUse">
<stop stop-color="#FF0029"/>
<stop offset="1" stop-color="#FDA900"/>
</linearGradient>
<linearGradient id="paint1_linear_28_335" x1="281.782" y1="730.73" x2="169.652" y2="665.99" gradientUnits="userSpaceOnUse">
<stop stop-color="#FF0029"/>
<stop offset="1" stop-color="#FDA900"/>
</linearGradient>
<clipPath id="clip0_28_335">
<rect width="2000" height="2000" fill="white"/>
</clipPath>
</defs>
</svg>
