<svg width="2000" height="2000" viewBox="0 0 2000 2000" fill="none" xmlns="http://www.w3.org/2000/svg">
<g clip-path="url(#clip0_356_208)">
<mask id="mask0_356_208" style="mask-type:luminance" maskUnits="userSpaceOnUse" x="0" y="0" width="2000" height="2000">
<path d="M2000 0H0V2000H2000V0Z" fill="white"/>
</mask>
<g mask="url(#mask0_356_208)">
<path d="M653.64 698.99C653.64 698.99 545.02 793.13 605.41 809.66C645.94 816.01 659.9 741.66 659.9 741.66C659.9 741.66 710.93 836.36 633.38 865.6C542.74 882.59 517.68 812.84 517.68 812.84C517.68 812.84 356.21 1019.09 420.2 1156.16L343.6 1219.31C343.6 1219.31 -34.3603 658.23 180.44 693.22C435.35 734.74 634.49 639.45 696.79 512.1C729.56 445.13 898.77 738.1 895.38 793.14L819.74 739.1C819.74 739.1 823.36 772.12 776.14 785.18C700.41 787.19 686.89 731.15 686.89 731.15C686.89 731.15 760.09 749.04 771.29 728.12C785.31 703.5 698.24 698.15 653.64 698.99Z" fill="#FF0404"/>
<path d="M118.369 718.84C79.2194 822.31 343.599 1219.32 343.599 1219.32L420.209 1156.17C395.019 1102.21 399.449 1021.54 458.399 906.3C344.959 906.55 189.379 830.31 118.379 718.85L118.369 718.84Z" fill="#B20404"/>
<path d="M650.76 701.3C650.76 701.3 546.46 786.45 602.11 803.23C643.48 815.71 659.9 741.66 659.9 741.66C659.9 741.66 721.88 851.71 615.9 866.03C535.93 876.84 517.68 812.85 517.68 812.85C517.68 812.85 356.21 1019.1 420.2 1156.17L343.6 1219.32C343.6 1219.32 -34.3603 658.23 180.44 693.22C435.35 734.74 618.03 629.98 696.79 512.1C752.63 428.53 956.83 860.12 895.38 793.14C870.26 765.76 819.74 739.1 819.74 739.1C819.74 739.1 823.88 772.12 776.14 785.18C702.26 805.39 682.78 729.86 682.78 729.86C682.78 729.86 752.68 753.13 767.79 734.82C793 704.27 695.37 700.46 650.76 701.3Z" stroke="black" stroke-width="18.34" stroke-linecap="round" stroke-linejoin="round"/>
</g>
</g>
<defs>
<clipPath id="clip0_356_208">
<rect width="2000" height="2000" fill="white"/>
</clipPath>
</defs>
</svg>
