<svg width="2000" height="2000" viewBox="0 0 2000 2000" fill="none" xmlns="http://www.w3.org/2000/svg">
<g clip-path="url(#clip0_2_723)">
<mask id="mask0_2_723" style="mask-type:luminance" maskUnits="userSpaceOnUse" x="0" y="0" width="2000" height="2000">
<path d="M2000 0H0V2000H2000V0Z" fill="white"/>
</mask>
<g mask="url(#mask0_2_723)">
<path d="M868.601 751.09C914.661 761.93 1009.5 842.25 930.921 914.54C979.371 975.52 910.181 1238.43 884.851 1329.84C859.511 1421.25 860.331 1559.61 715.041 1520.26C635.311 1534.28 350.461 1848.74 249.831 1805.26C200.681 1802.43 247.031 1780.66 278.731 1717.71C318.561 1646.63 306.711 1349.19 308.571 1248.62C310.431 1148.06 800.871 852.71 800.871 852.71L868.611 751.1L868.601 751.09Z" fill="#9300E9"/>
<path d="M868.6 751.09C914.66 761.93 1009.5 842.25 930.92 914.54C979.37 975.52 910.18 1238.43 884.85 1329.84C859.51 1421.25 858.82 1559.61 715.04 1520.26C635.31 1534.28 350.46 1848.74 249.83 1805.26C390.23 1726.59 388.37 1354.98 390.23 1254.41C392.09 1153.85 800.87 852.7 800.87 852.7L868.61 751.09H868.6Z" fill="#880093"/>
<path d="M295.75 1281.9C324.18 1367.61 331.84 1729.46 227.58 1787.73C227.58 1787.73 212.25 1827.59 345.64 1787.73C479.03 1747.87 656 1491.5 758.52 1526.92C834.35 1553.12 909.88 1374.7 888.42 1237.76C866.95 1100.83 295.75 1281.9 295.75 1281.9Z" stroke="black" stroke-width="18.34" stroke-linecap="round" stroke-linejoin="round"/>
</g>
</g>
<defs>
<clipPath id="clip0_2_723">
<rect width="2000" height="2000" fill="white"/>
</clipPath>
</defs>
</svg>
