<svg width="2000" height="2000" viewBox="0 0 2000 2000" fill="none" xmlns="http://www.w3.org/2000/svg">
<g clip-path="url(#clip0_2_701)">
<mask id="mask0_2_701" style="mask-type:luminance" maskUnits="userSpaceOnUse" x="0" y="0" width="2000" height="2000">
<path d="M2000 0H0V2000H2000V0Z" fill="white"/>
</mask>
<g mask="url(#mask0_2_701)">
<path d="M954.86 839.85C946.13 827.93 923.75 806.35 906.21 804.41C869.89 800.37 756.71 763.98 719.43 751.54C682.19 739.1 668.07 710.63 662.78 763.79C657.5 816.99 581.33 958.93 532.17 995.44C483.01 1031.94 499.11 1029.82 505.2 1073.7C499.62 1118.83 526.77 1138.6 525.85 1195.98C523.06 1253.36 555.93 1225.15 549.55 1262.75C543.2 1300.36 552.15 1307.22 559.9 1323.32C566.39 1336.82 561.48 1348.74 556.96 1370.57C556.08 1374.79 555.2 1379.41 554.43 1384.51C549.7 1415.69 574.06 1437.52 546.65 1426.26C535.46 1398.85 475.04 1392.54 478.41 1350.21C481.05 1347.35 483.77 1344.3 486.44 1341.11C499.5 1325.55 511.57 1306.81 510.91 1290.04C527.02 1268.39 492.46 1259.77 494.69 1228.73C506.83 1172.12 476.27 1159.13 435.37 1152.27C410.86 1148.16 385.29 1195.34 368.71 1233.94C357.56 1259.88 350.48 1281.89 350.48 1281.89C350.48 1281.89 298.16 1269.6 267.79 1161.19C260.27 1134.33 254.07 1101.57 250.36 1061.62C231.69 860.5 317.02 698.41 453.13 636.74C499.54 617.44 542.68 605.92 582.6 600.64C833.58 567.11 956.01 778.54 954.84 839.84L954.86 839.85Z" fill="#9300E9"/>
<path d="M582.62 600.641C266.42 751.091 353.22 1258.45 267.8 1161.19C260.28 1134.33 254.08 1101.57 250.37 1061.62C231.7 860.501 317.03 698.411 453.14 636.741C499.55 617.441 542.69 605.921 582.61 600.641H582.62Z" fill="#880093"/>
<path d="M660.011 651.23C703.201 799.8 563.481 1004.87 465.021 1039.15" stroke="black" stroke-width="18.34" stroke-linecap="round" stroke-linejoin="round"/>
<path d="M413.881 1146.15C485.301 1163.02 519.751 1203.75 519.751 1203.75" stroke="black" stroke-width="18.34" stroke-linecap="round" stroke-linejoin="round"/>
<path d="M466.811 1165.31C526.481 1133.9 499.131 1029.81 499.131 1029.81" stroke="black" stroke-width="18.34" stroke-linecap="round" stroke-linejoin="round"/>
<path d="M505.391 1110.6C505.391 1110.6 547.821 1190.06 511.881 1258.45" stroke="black" stroke-width="18.34" stroke-linecap="round" stroke-linejoin="round"/>
<path d="M496.22 1183.14C496.22 1183.14 482.87 1262.55 536.07 1274.3" stroke="black" stroke-width="18.34" stroke-linecap="round" stroke-linejoin="round"/>
<path d="M526.33 1228.72C579 1251.38 525.87 1323.33 525.87 1323.33" stroke="black" stroke-width="18.34" stroke-linecap="round" stroke-linejoin="round"/>
<path d="M517.77 1267.23C517.77 1267.23 486.1 1327.56 558.89 1338.25" stroke="black" stroke-width="18.34" stroke-linecap="round" stroke-linejoin="round"/>
<path d="M543.031 1298.93C543.031 1298.93 571.581 1316.05 559.151 1353.34C546.721 1390.63 560.931 1416.92 574.071 1437.52C574.071 1437.52 537.491 1430.42 532.161 1407.33C532.161 1407.33 438.401 1379.32 511.761 1310.26" stroke="black" stroke-width="18.34" stroke-linecap="round" stroke-linejoin="round"/>
<path d="M668.08 733.68C668.08 733.68 823.85 789.43 869.33 795.58C958.07 807.6 983.53 862.81 936.39 897.01" stroke="black" stroke-width="18.34" stroke-linecap="round" stroke-linejoin="round"/>
<path d="M954.841 839.84C956.181 729.45 732.021 507.46 462.641 632.18C227.761 740.93 220.201 1076.08 284.191 1233.85" stroke="black" stroke-width="18.34" stroke-linecap="round" stroke-linejoin="round"/>
<path d="M550.18 1288.95C550.18 1305.15 540.6 1322.28 523.04 1322.28C511 1322.28 501.92 1314.22 501.92 1299.47C501.92 1282.59 513.62 1265.8 530.67 1265.8C543.98 1265.8 550.18 1275.89 550.18 1288.95Z" fill="#FFEE00" stroke="black" stroke-width="18.34" stroke-miterlimit="10"/>
</g>
</g>
<defs>
<clipPath id="clip0_2_701">
<rect width="2000" height="2000" fill="white"/>
</clipPath>
</defs>
</svg>
