<svg width="2000" height="2000" viewBox="0 0 2000 2000" fill="none" xmlns="http://www.w3.org/2000/svg">
<g clip-path="url(#clip0_437_130)">
<mask id="mask0_437_130" style="mask-type:luminance" maskUnits="userSpaceOnUse" x="0" y="0" width="2000" height="2000">
<path d="M2000 0H0V2000H2000V0Z" fill="white"/>
</mask>
<g mask="url(#mask0_437_130)">
<path d="M621.671 592.04L719.041 660.82C663.951 610.8 574.051 583.64 504.001 636.93C480.661 654.69 467.201 684.98 462.311 718.69L460.151 716.43C452.421 721.34 442.561 733.63 434.311 750.47L433.341 748.91C413.181 755.39 343.501 800.91 346.141 863.26C297.991 892.56 240.051 1061.18 300.611 1119.17C499.371 1309.49 503.661 972.04 504.001 971.57C533.711 961.55 553.341 942.57 553.341 942.57L550.661 938.25C593.981 926.24 628.911 893.29 628.911 893.29C635.811 889.76 642.451 885.46 648.671 880.32C652.961 876.77 653.981 871.28 652.921 864.42C665.301 849.04 672.861 828.58 672.861 806.11C672.861 769.92 653.271 738.95 625.471 726.06C641.061 708.87 675.891 698.23 744.001 700.55C744.001 700.55 810.021 788.33 912.631 782.09L924.931 814.29C924.931 814.29 1007.53 640.87 621.681 592.05L621.671 592.04Z" fill="#FF2929"/>
<path d="M561.87 823.461C553.89 813.811 555.25 799.52 564.9 791.55C576.96 781.58 594.82 783.281 604.79 795.341C617.25 810.421 615.13 832.741 600.05 845.201C581.2 860.781 553.3 858.131 537.72 839.281C518.25 815.721 521.56 780.84 545.12 761.37C574.57 737.031 618.17 741.171 642.51 770.62C672.93 807.43 667.76 861.93 630.95 892.36C584.94 930.39 516.81 923.92 478.78 877.91C431.24 820.4 426.7 707.85 486.08 662.68C576.93 593.57 701.28 630.781 739.64 706.711C739.64 706.711 647.2 662.851 571.79 719.651" fill="#E20100"/>
<path d="M783.03 700.54C754.28 648.98 691.74 614.51 645.76 595.37C637.92 594.21 614.19 597.28 605.93 596.23L676.91 631.05C658.23 620.97 637.87 613.58 616.94 610.1L689.05 702.01C704.35 700.36 722.52 699.8 744 700.54C744 700.54 801.43 784.75 907.72 786.5L924.92 814.29C924.92 814.29 934.77 793.6 931.77 764.51C895.7 767.08 818.59 764.35 783.02 700.55L783.03 700.54Z" fill="#E20100"/>
<path d="M424.433 751.58C395.893 760.76 259.963 877.7 379.883 966.56C446.033 1015.58 503.463 971.56 503.463 971.56" fill="#E20100"/>
<path d="M430.431 744C401.881 753.18 273.951 840.67 392.921 943.39C473.021 1012.54 550.431 937.66 550.431 937.66" fill="#FF2929"/>
<path d="M482.701 1068.41C326.471 1097.06 303.661 988.81 313.361 886.33C283.801 950.14 257.161 1080.71 300.591 1119.16C443.481 1245.65 470.041 1153.72 482.691 1068.41H482.701Z" fill="#E20100"/>
<path d="M603.781 900.64C603.781 900.64 501.141 997.51 429.491 919.63C357.851 841.76 428.921 732.07 455.171 715.42" fill="#E20100"/>
<path d="M620.43 890.64C620.43 890.64 517.79 987.51 446.14 909.63C374.5 831.76 445.57 722.07 471.82 705.42" fill="#FF2929"/>
<path d="M754.611 705.01C754.611 705.01 799.431 786.46 895.371 786.46C913.521 786.46 917.821 818.4 924.931 814.29C992.181 775.34 827.281 542.4 550.441 607.72" stroke="black" stroke-width="18.34" stroke-linecap="round" stroke-linejoin="round"/>
<path d="M430.431 744C401.881 753.18 273.951 840.67 392.921 943.39C473.021 1012.54 554.101 933.99 554.101 933.99" stroke="black" stroke-width="18.34" stroke-linecap="round" stroke-linejoin="round"/>
<path d="M343.231 858.36C299.461 876.69 230.371 1027.66 300.611 1119.16C472.941 1339.89 501.111 966.65 501.111 966.65" stroke="black" stroke-width="18.34" stroke-linecap="round" stroke-linejoin="round"/>
<path d="M754.61 705.01C754.61 705.01 580.23 682.43 640.12 738.74" stroke="black" stroke-width="18.34" stroke-linecap="round" stroke-linejoin="round"/>
<path d="M561.742 823.461C553.762 813.811 555.122 799.521 564.772 791.551C576.832 781.581 594.692 783.281 604.662 795.341C617.122 810.421 615.002 832.741 599.922 845.201C581.072 860.781 553.172 858.131 537.592 839.281C518.122 815.721 521.432 780.841 544.992 761.371C574.442 737.031 618.042 741.171 642.382 770.621C672.802 807.431 667.632 861.931 630.822 892.361C584.812 930.391 516.682 923.921 478.652 877.91C431.112 820.4 429.902 700.54 486.152 648.98C570.302 571.85 701.302 613.001 739.662 688.931C739.662 688.931 626.002 652.93 570.642 728.48" fill="#E20100"/>
<path d="M576.682 806.52C568.702 796.87 570.062 782.58 579.712 774.61C591.772 764.64 609.632 766.34 619.602 778.4C632.062 793.48 629.942 815.8 614.862 828.26C596.012 843.84 568.112 841.19 552.532 822.34C533.062 798.78 536.372 763.9 559.932 744.43C589.382 720.09 632.982 724.23 657.322 753.68C687.742 790.49 682.572 844.99 645.762 875.42C599.752 913.45 531.622 906.98 493.592 860.97C446.052 803.46 441.712 677.22 501.092 632.04C591.942 562.93 705.642 624.62 744.002 700.55C744.002 700.55 669.682 671.99 605.922 711.54" fill="#FF2929"/>
<path d="M626.012 888.38C626.012 888.38 523.372 985.25 451.722 907.37C380.082 829.5 430.992 728.18 457.242 711.53" stroke="black" stroke-width="18.34" stroke-linecap="round" stroke-linejoin="round"/>
<path d="M576.682 806.52C568.702 796.87 570.062 782.58 579.712 774.61C591.772 764.64 609.632 766.34 619.602 778.4C632.062 793.48 629.942 815.8 614.862 828.26C596.012 843.84 568.112 841.19 552.532 822.34C533.062 798.78 536.372 763.9 559.932 744.43C589.382 720.09 632.982 724.23 657.322 753.68C687.742 790.49 682.572 844.99 645.762 875.42C599.752 913.45 531.622 906.98 493.592 860.97C446.052 803.46 441.712 677.22 501.092 632.04C591.942 562.93 716.242 629.09 754.602 705.02" stroke="black" stroke-width="18.34" stroke-linecap="round" stroke-linejoin="round"/>
</g>
</g>
<defs>
<clipPath id="clip0_437_130">
<rect width="2000" height="2000" fill="white"/>
</clipPath>
</defs>
</svg>
