<svg width="2000" height="2000" viewBox="0 0 2000 2000" fill="none" xmlns="http://www.w3.org/2000/svg">
<g clip-path="url(#clip0_2_615)">
<mask id="mask0_2_615" style="mask-type:luminance" maskUnits="userSpaceOnUse" x="0" y="0" width="2000" height="2000">
<path d="M2000 0H0V2000H2000V0Z" fill="white"/>
</mask>
<g mask="url(#mask0_2_615)">
<path d="M406.799 1165.2C372.309 1172.9 351.689 1176.06 371.429 1206.66C368.309 1256.26 380.709 1167.48 291.559 1215.72C127.309 1010.93 239.869 869.57 292.439 820.52C305.869 808.01 315.369 801.52 315.369 801.52L501.449 707.82L573.839 893.17C575.749 1122.54 468.839 1151.27 406.799 1165.21V1165.2Z" fill="#FF482E"/>
<path d="M371.428 1206.66C368.308 1256.26 380.708 1167.48 291.558 1215.72C164.208 1060.18 203.288 910.561 255.858 861.511C228.778 981.481 273.578 1192.31 406.788 1165.2C372.298 1172.9 351.678 1176.06 371.418 1206.66H371.428Z" fill="#DB1616"/>
<path d="M573.839 893.16C564.929 1233.17 328.569 1138.21 396.389 1241.74C393.259 1291.34 380.709 1167.49 291.549 1215.74C85.3694 958.7 315.389 801.52 315.389 801.52L501.449 707.82L573.849 893.16H573.839Z" stroke="black" stroke-width="18.34" stroke-linecap="round" stroke-linejoin="round"/>
<path d="M795.049 774.39C855.929 780.48 889.749 803.99 920.939 843.56C939.199 811.6 933.719 772.74 933.719 772.74C933.719 772.74 835.379 679.27 765.369 722.64C695.359 766.01 795.049 774.38 795.049 774.38V774.39Z" fill="#FF482E"/>
<path d="M795.049 774.39C855.929 780.48 889.749 803.99 920.939 843.56C939.199 811.6 933.719 772.74 933.719 772.74C933.719 772.74 835.379 679.27 765.369 722.64C695.359 766.01 795.049 774.38 795.049 774.38V774.39Z" fill="#DB1616"/>
<path d="M795.049 774.39C855.929 780.48 889.749 803.99 920.939 843.56C939.199 811.6 933.719 772.74 933.719 772.74C933.719 772.74 835.379 679.27 765.369 722.64C695.359 766.01 795.049 774.38 795.049 774.38V774.39Z" stroke="black" stroke-width="18.34" stroke-linecap="round" stroke-linejoin="round"/>
<path d="M1126.1 1311.59C1119.39 1334.67 1119.83 1345.75 1136.96 1357.52C1130.06 1357.52 1110.18 1354.29 1096.82 1341.82C1087.91 1333.57 1081.92 1321.24 1084.57 1303.04C1090.04 1276.33 1070.63 1281.17 1011.19 1261.18C964.668 1245.51 944.008 1219.47 944.308 1187.8C944.378 1178.99 946.108 1169.75 949.338 1160.17C950.548 1158.23 951.758 1156.32 952.968 1154.45C973.328 1122.64 993.578 1096.15 1010.28 1074.62C1047.3 1026.82 1066.78 1003.12 1031.34 998.6C972.898 990.68 932.118 971.29 947.378 930.82C962.638 890.35 1035.81 756.38 847.898 758.55C847.898 758.55 738.968 771.87 672.788 872.28C658.958 884.61 646.188 892.31 633.828 896.13C600.768 906.4 570.948 889.01 533.928 859.22C457.988 801.84 378.738 782.8 347.078 792.15C315.378 801.51 313.438 797.43 325.178 776.34C327.878 720.68 367.748 640.78 447.298 604.04C544.858 552 602.608 560.89 699.498 585.28C699.538 585.28 706.728 588.2 706.728 588.2C707.758 588.46 711.248 592.18 712.268 592.44C726.758 596.22 730.898 601.62 746.278 607.49C748.918 608.52 748.638 614.87 750.868 615.75C779.778 634.13 795.038 644.48 808.798 648.77C825.308 653.98 839.578 650.46 872.558 641.8C876.048 640.85 879.568 640.04 883.088 639.38C972.058 622.8 1076.84 696.5 1066.53 772.92C1059.56 781.73 1053.21 790.86 1047.6 800.18C1020.63 844.79 1010.29 892.89 1026.36 922.02C1062.39 896.23 1113.38 878.25 1136.86 892.49C1138.36 893.41 1139.8 894.47 1141.04 895.68C1146.98 901.22 1150.17 909.77 1149.51 922.02C1147.35 961.83 1137.7 1006.22 1101.01 1072.88C1098.59 1077.28 1096.02 1081.76 1093.38 1086.34V1086.38C1079.77 1109.9 1062.89 1136.09 1042.05 1165.63C1013.62 1213.21 1054.05 1222.2 1113.3 1236.22C1140.27 1243.89 1150.61 1249.57 1149.62 1260.51C1148.89 1268.69 1141.84 1279.84 1130.69 1296.94C1128.93 1302.33 1127.39 1307.18 1126.1 1311.58V1311.59Z" fill="#FF482E"/>
<path d="M633.818 896.14C600.758 906.41 570.938 889.02 533.918 859.23C457.978 801.85 378.728 782.81 347.068 792.16C315.368 801.52 313.428 797.44 325.168 776.35C342.048 742.41 349.638 663.83 424.038 619.21C214.358 754.15 508.128 782.03 564.268 822.02C595.268 844.11 617.688 869.9 633.828 896.13L633.818 896.14Z" fill="#DB1616"/>
<g style="mix-blend-mode:multiply">
<path d="M808.779 648.79C794.729 663.21 774.889 662.54 764.289 669.65C792.749 651.03 760.779 627.53 679.219 584.71C696.019 589.08 732.869 608.54 750.849 615.77C779.759 634.15 795.019 644.5 808.779 648.79Z" fill="#FF482E"/>
</g>
<path d="M1066.52 772.94C1059.55 781.75 1053.2 790.88 1047.59 800.2C1046.45 731.23 1005.51 670.58 883.078 639.4C972.048 622.82 1076.83 696.52 1066.52 772.94Z" fill="#DB1616"/>
<path d="M713.489 711.95C943.809 539.71 1081.72 704.9 1066.51 772.95C1020.53 813.29 1016.36 877.48 1017.28 908.07C1017.45 913.75 1024.11 916.57 1028.4 912.84C1040.47 902.32 1066.62 888.44 1121.88 884.8C1214.01 878.74 1089.4 1099.32 1036.07 1174.19C982.729 1249.06 1194.1 1217.88 1143.45 1273.03C1092.8 1328.18 1136.96 1357.54 1136.96 1357.54C1052.71 1347.69 1120.98 1293.25 1059.84 1277.3C802.269 1210.12 1072.59 1034.09 1051.07 1009.89C1029.55 985.68 927.619 1000.32 946.219 944.06C964.819 887.8 1018.9 819.82 933.709 772.76C848.529 725.7 717.279 794.53 680.529 860.43C643.779 926.33 573.839 893.17 573.839 893.17C510.399 827.5 373.209 767.45 315.379 801.52C315.379 801.52 320.329 670.28 461.359 596.21C648.919 497.7 812.499 654.57 812.499 654.57" stroke="black" stroke-width="18.34" stroke-linecap="round" stroke-linejoin="round"/>
</g>
</g>
<defs>
<clipPath id="clip0_2_615">
<rect width="2000" height="2000" fill="white"/>
</clipPath>
</defs>
</svg>
