<svg width="2000" height="2000" viewBox="0 0 2000 2000" fill="none" xmlns="http://www.w3.org/2000/svg">
<g clip-path="url(#clip0_655_70)">
<mask id="mask0_655_70" style="mask-type:luminance" maskUnits="userSpaceOnUse" x="0" y="0" width="2000" height="2000">
<path d="M2000 0H0V2000H2000V0Z" fill="white"/>
</mask>
<g mask="url(#mask0_655_70)">
<path d="M796.031 742.53C730.291 797.97 603.721 758.23 592.641 754.38C592.051 754.2 591.321 753.98 590.401 753.83C573.601 750.53 501.171 751.48 440.381 782.12C378.671 819.21 432.791 680.24 482.721 653.68C511.121 631.23 542.891 619.19 575.391 615.23C611.931 610.76 649.351 616.37 683.881 628.62C759.241 649.38 734.801 559.68 728.531 530.7C722.261 501.75 723.251 483.04 775.051 530.7C838.481 591.86 861.811 687.06 796.031 742.53Z" fill="#1B16F1"/>
<g style="mix-blend-mode:multiply">
<path d="M590.401 753.831C573.601 750.531 501.171 751.48 440.381 782.12C378.671 819.21 432.791 680.24 482.721 653.68C511.121 631.23 542.891 619.19 575.391 615.23C520.371 640.66 483.161 694.11 525.791 704.75C572.601 716.49 615.681 726.691 590.401 753.841V753.831Z" fill="#1B16F1"/>
</g>
<path d="M737.671 660.94C694.671 606.85 432.981 550.37 411.031 793.7C411.031 793.7 490.531 736.75 595.461 760.55C869.181 822.63 908.441 580.47 716.171 490.79C716.171 490.79 773.911 613.65 705.901 637.87" stroke="black" stroke-width="18.34" stroke-linecap="round" stroke-linejoin="round"/>
</g>
</g>
<defs>
<clipPath id="clip0_655_70">
<rect width="2000" height="2000" fill="white"/>
</clipPath>
</defs>
</svg>
