<svg width="2000" height="2000" viewBox="0 0 2000 2000" fill="none" xmlns="http://www.w3.org/2000/svg">
<g clip-path="url(#clip0_2_966)">
<mask id="mask0_2_966" style="mask-type:luminance" maskUnits="userSpaceOnUse" x="0" y="0" width="2000" height="2000">
<path d="M2000 0H0V2000H2000V0Z" fill="white"/>
</mask>
<g mask="url(#mask0_2_966)">
<path d="M920.92 780.811C888.19 780.811 845.98 743.561 719.43 805.761C704.94 812.881 681.46 811.411 672.1 798.281L662.64 774.101C677.9 821.681 653.43 818.601 631.93 826.311C610.47 833.981 599.72 806.351 599.72 806.351V818.351C599.72 829.801 593.19 840.221 582.92 845.211L559.95 856.401C550.52 860.991 539.15 857.101 534.49 847.741L527.56 833.871C488.52 955.311 525.95 1041.74 525.95 1041.74C495.24 1037.81 436.47 902.111 436.47 902.111C434.01 992.951 534.5 1179.18 534.5 1179.18C429.94 1141.02 410.31 1013.39 410.31 1013.39C410.31 1013.39 417.06 1088.09 417.21 1154.93C417.32 1206.7 413.47 1253.73 399.38 1257.77C367.17 1266.98 347.98 1319.04 347.98 1319.04C317.97 1316.99 300.4 1320.98 290.12 1326.08C277.94 1332.1 265.43 1337.34 252.26 1340.68C250.87 1341.05 249.47 1341.41 248.11 1341.82C236 1345.34 223.42 1338.08 220.37 1325.86C203.13 1256.89 159.69 1050.96 203.71 872.361C268.17 610.671 550.89 558.971 716.79 597.131C721.63 598.231 726.33 599.441 730.95 600.691C894.43 645.191 920.92 780.831 920.92 780.831V780.811Z" fill="#00C7F1"/>
<path d="M399 732.24C333.22 832.25 332.7 1036.68 417.2 1154.92C417.31 1206.69 413.46 1253.72 399.37 1257.76C367.16 1266.97 347.97 1319.03 347.97 1319.03C317.96 1316.98 300.39 1320.97 290.11 1326.07C277.93 1332.09 265.42 1337.33 252.25 1340.67C250.86 1341.04 249.46 1341.4 248.1 1341.81C235.99 1345.33 223.41 1338.07 220.36 1325.85C203.12 1256.88 159.68 1050.95 203.7 872.35C268.16 610.66 516.78 558.81 682.68 596.97C702.25 630.77 624.36 702.19 398.99 732.24H399Z" fill="#009ECE"/>
<path d="M559.95 856.38L582.91 845.211C593.19 840.211 599.71 829.78 599.71 818.35V806.331C599.71 806.331 610.45 833.961 631.94 826.281C653.43 818.611 677.9 821.661 662.64 774.091L672.11 798.251C681.46 811.391 705.14 813.22 719.41 805.73C856.69 733.66 888.18 780.79 920.92 780.79C920.92 780.79 894.41 645.161 730.94 600.651C567.47 556.141 270.05 603.04 203.69 872.331C159.68 1050.93 203.11 1256.87 220.35 1325.82C223.41 1338.05 235.98 1345.32 248.08 1341.79C249.45 1341.39 250.84 1341.01 252.24 1340.66C265.4 1337.34 277.94 1332.09 290.1 1326.06C300.37 1320.96 317.96 1316.95 347.98 1318.99C347.98 1318.99 367.14 1266.96 399.38 1257.75C431.61 1248.54 410.29 1013.38 410.29 1013.38C410.29 1013.38 429.93 1141.02 534.48 1179.17C534.48 1179.17 434.02 992.93 436.47 902.1C436.47 902.1 495.23 1037.79 525.93 1041.74C525.93 1041.74 488.53 955.3 527.57 833.86L534.47 847.711C539.15 857.101 550.52 860.96 559.95 856.38Z" stroke="black" stroke-width="18.34" stroke-linecap="round" stroke-linejoin="round"/>
<path d="M599.71 806.34C599.6 763.77 554.14 739 554.14 739" stroke="black" stroke-width="18.34" stroke-linecap="round" stroke-linejoin="round"/>
<path d="M662.64 774.11C662.64 774.11 657.24 758.97 641.11 745.53" stroke="black" stroke-width="18.34" stroke-linecap="round" stroke-linejoin="round"/>
<path d="M665.131 621.3C603.051 647.42 490.901 687.19 411.841 699C357.211 707.14 318.321 701.97 322.651 669.72C326.281 608.16 303.351 559 362.091 537.09C372.031 532.21 385.091 527.04 400.061 521.9C478.831 494.86 611.011 469.47 626.501 501.83C644.921 540.35 696.431 603.9 665.131 621.29V621.3Z" fill="#00D7AD"/>
<path d="M547.031 616.66C519.371 620.87 360.661 660.55 327.891 648.82C321.281 679.18 301.031 706.59 386.151 699.8C471.271 693.01 639.911 649.63 673.731 613.15C687.411 587.19 652.241 563.45 639.911 574.87C583.701 600.42 547.031 616.65 547.031 616.65V616.66Z" fill="#FFCE00"/>
<path d="M411.841 699C357.211 707.14 318.321 701.97 322.651 669.72C326.281 608.16 303.351 559 362.091 537.09C372.031 532.21 385.091 527.04 400.061 521.9C399.941 529.29 615.901 475.11 615.901 482.45C619.351 502.6 560.181 539.76 412.661 565C385.071 634.76 397.271 676.15 411.841 699Z" fill="#009B97"/>
<path d="M621.72 491.84C627.65 504.24 562.811 531.37 476.691 551.96C390.571 572.55 320.481 577.68 320.151 563.94C319.841 550.69 384.941 524.67 465.551 505.39C546.161 486.12 616.001 479.88 621.711 491.83L621.72 491.84Z" stroke="black" stroke-width="18.34" stroke-linecap="round" stroke-linejoin="round"/>
<path d="M654.93 561.34C661.18 573.66 590.21 606.09 494.17 629.06C398.13 652.02 321.99 654.99 321.99 641.17" stroke="black" stroke-width="18.34" stroke-linecap="round" stroke-linejoin="round"/>
<path d="M621.72 491.84L675.54 604.46C683.66 621.45 608.46 655.46 507.23 679.66C406 703.86 323.55 707.55 323.11 688.73L320.16 563.95C320.48 577.69 390.58 572.56 476.7 551.97C562.82 531.38 627.65 504.25 621.73 491.85L621.72 491.84Z" stroke="black" stroke-width="18.34" stroke-linecap="round" stroke-linejoin="round"/>
<path d="M431.711 363.84L404.381 481.99C397.911 509.98 423.121 535.01 451.071 528.33L488.851 519.3C516.791 512.62 527.961 478.89 509.521 456.85L431.701 363.84H431.711Z" fill="url(#paint0_linear_2_966)"/>
<path d="M431.711 363.84L404.381 481.99C397.911 509.98 423.121 535.01 451.071 528.33L488.851 519.3C516.791 512.62 527.961 478.89 509.521 456.85L431.701 363.84H431.711Z" stroke="black" stroke-width="18.34" stroke-linecap="round" stroke-linejoin="round"/>
</g>
</g>
<defs>
<linearGradient id="paint0_linear_2_966" x1="403.361" y1="446.64" x2="518.571" y2="446.64" gradientUnits="userSpaceOnUse">
<stop stop-color="#FF00FF"/>
<stop offset="1" stop-color="#8CE9CD"/>
</linearGradient>
<clipPath id="clip0_2_966">
<rect width="2000" height="2000" fill="white"/>
</clipPath>
</defs>
</svg>
