<svg width="2000" height="2000" viewBox="0 0 2000 2000" fill="none" xmlns="http://www.w3.org/2000/svg">
<g clip-path="url(#clip0_7_1472)">
<mask id="mask0_7_1472" style="mask-type:luminance" maskUnits="userSpaceOnUse" x="0" y="0" width="2000" height="2000">
<path d="M2000 0H0V2000H2000V0Z" fill="white"/>
</mask>
<g mask="url(#mask0_7_1472)">
<path d="M431.43 1173.41C530.83 1140.79 433.06 698.25 420.02 734.14C407.01 769.93 332.46 779.65 292.84 782.3C291.97 770.92 291.21 761.45 290.65 754.56C246.71 782.15 204.51 823.6 168.79 884.78C168.79 884.78 248.58 858.95 270.76 864.18C270.76 864.18 126.93 928.81 154.56 1080.17C154.56 1080.17 204.56 1034.71 235.87 1048.92C235.87 1048.92 245.8 1081.18 211.02 1135.43C211.02 1135.43 224.08 1159.66 321.69 1142.83C424.99 1125.02 375.46 1127.33 431.43 1173.42V1173.41Z" fill="#1BFD00"/>
<path d="M472.66 984.271C451.25 811.771 454.41 793.661 428.53 759.481C427.33 754.281 426.17 749.641 425.07 745.641L411.65 738.851C390.85 767.711 325.33 776.091 289.06 778.511C288.19 767.131 287.43 757.661 286.87 750.771C242.93 778.361 200.73 819.811 165.02 880.991C165.02 880.991 244.81 855.161 266.99 860.391C266.99 860.391 123.16 925.021 150.79 1076.38C150.79 1076.38 200.79 1030.92 232.1 1045.13C232.1 1045.13 242.03 1077.39 207.25 1131.64C207.25 1131.64 220.31 1155.87 317.92 1139.03C386.74 1127.17 387.73 1124.23 397.27 1137.22L406.78 1130.97C476.51 1259.57 472.67 984.271 472.67 984.271H472.66Z" fill="#00A400"/>
<path d="M431.43 1173.41C528.19 1129.1 433.06 698.251 420.02 734.141C407.01 769.931 332.46 779.651 292.84 782.301C291.97 770.921 291.21 761.451 290.65 754.561C246.71 782.151 204.51 823.601 168.79 884.781C168.79 884.781 248.58 858.951 270.76 864.181C270.76 864.181 126.93 928.811 154.56 1080.17C154.56 1080.17 204.56 1034.71 235.87 1048.92C235.87 1048.92 245.8 1081.18 211.02 1135.43C211.02 1135.43 224.08 1159.66 321.69 1142.83C424.99 1125.02 365.5 1203.62 431.43 1173.42V1173.41Z" stroke="black" stroke-width="18.34" stroke-linecap="round" stroke-linejoin="round"/>
<path d="M825.73 712.53C825.73 712.53 861.22 681.22 856.41 617.06C856.41 617.06 780.11 668.7 753.81 654.46C753.81 654.46 756.08 583.04 656.7 543.74L654.05 616.48C654.05 616.48 604.04 559.01 456.16 574.93C456.16 574.93 478.27 594.43 497.46 621.82C497.46 621.82 354.88 650.93 217.73 764.92C250.94 791.35 299.8 839.57 438.53 838.03C548.31 836.81 693.15 833.68 739.73 809.62C706.13 799.69 697.92 790.76 674.44 775.64C828.31 772.59 895.69 716.8 906.61 683.65C906.61 683.65 877.2 728.59 825.73 712.51V712.53Z" fill="#1BFD00"/>
<path d="M825.73 712.53C825.73 712.53 868.9 688.2 856.41 617.06C856.41 617.06 780.11 668.7 753.81 654.46C753.81 654.46 755.51 576.81 656.7 543.74L654.05 616.48C654.05 616.48 620.72 563.56 456.16 574.93C456.16 574.93 478.27 594.43 497.46 621.82C497.46 621.82 354.88 650.93 217.73 764.92C282.19 821.03 339.01 825.06 364.68 828.18C612.77 858.29 761.58 807.46 761.58 807.46C761.58 807.46 658.77 795.39 667.56 771.71C813.66 776.44 896.68 722.78 910.58 680.62C910.58 680.62 870.22 714.01 825.73 712.51V712.53Z" stroke="black" stroke-width="18.34" stroke-linecap="round" stroke-linejoin="round"/>
<path d="M723.25 666.451C757.34 662.51 776.68 643.64 781.77 630.73C781.77 630.73 802.11 679.71 766.47 701.76" fill="#1BFD00"/>
<path d="M723.25 666.451C757.34 662.511 776.68 643.64 781.77 630.73C781.77 630.73 802.11 679.71 766.47 701.76" stroke="black" stroke-width="18.34" stroke-linecap="round" stroke-linejoin="round"/>
<path d="M259.82 1039.87C225.73 1043.81 206.39 1062.68 201.3 1075.59C201.3 1075.59 180.96 1026.61 216.6 1004.56" fill="#00A400"/>
<path d="M259.82 1039.87C225.73 1043.81 206.39 1062.68 201.3 1075.59C201.3 1075.59 180.96 1026.61 216.6 1004.56" stroke="black" stroke-width="18.34" stroke-linecap="round" stroke-linejoin="round"/>
<path d="M367.25 894.641C333.16 900.941 313.82 931.081 308.73 951.711C308.73 951.711 288.39 873.451 324.03 838.221" fill="#00A400"/>
<path d="M367.25 894.641C333.16 900.941 313.82 931.081 308.73 951.711C308.73 951.711 288.39 873.451 324.03 838.221" stroke="black" stroke-width="18.34" stroke-linecap="round" stroke-linejoin="round"/>
</g>
</g>
<defs>
<clipPath id="clip0_7_1472">
<rect width="2000" height="2000" fill="white"/>
</clipPath>
</defs>
</svg>
