<svg width="2000" height="2000" viewBox="0 0 2000 2000" fill="none" xmlns="http://www.w3.org/2000/svg">
<g clip-path="url(#clip0_7_1487)">
<mask id="mask0_7_1487" style="mask-type:luminance" maskUnits="userSpaceOnUse" x="0" y="0" width="2000" height="2000">
<path d="M2000 0H0V2000H2000V0Z" fill="white"/>
</mask>
<g mask="url(#mask0_7_1487)">
<path d="M392.9 1281.21C392.9 1281.21 436.42 1453.69 397.43 1516.28C397.43 1516.28 471.12 1502.61 476.74 1456.62C476.74 1456.62 452.51 1600.37 384.68 1626.09C384.68 1626.09 507.77 1601.12 538.43 1497.5C538.43 1497.5 529.03 1541.7 556.87 1575.78C556.87 1575.78 586.65 1390.61 595.22 1382.37C589.88 1389.01 477.33 1329.25 450.94 1267.5L392.89 1281.21H392.9Z" fill="#00A400"/>
<path d="M392.9 1281.21C392.9 1281.21 436.42 1453.69 397.43 1516.28C397.43 1516.28 471.12 1502.61 476.74 1456.62C476.74 1456.62 452.51 1600.37 384.68 1626.09C384.68 1626.09 507.77 1601.12 538.43 1497.5C538.43 1497.5 529.03 1541.7 556.87 1575.78C556.87 1575.78 586.65 1390.61 595.22 1382.37C589.88 1389.01 477.33 1329.25 450.94 1267.5L392.89 1281.21H392.9Z" stroke="black" stroke-width="18.34" stroke-linecap="round" stroke-linejoin="round"/>
</g>
</g>
<defs>
<clipPath id="clip0_7_1487">
<rect width="2000" height="2000" fill="white"/>
</clipPath>
</defs>
</svg>
