<svg width="2000" height="2000" viewBox="0 0 2000 2000" fill="none" xmlns="http://www.w3.org/2000/svg">
<g clip-path="url(#clip0_356_218)">
<mask id="mask0_356_218" style="mask-type:luminance" maskUnits="userSpaceOnUse" x="0" y="0" width="2000" height="2000">
<path d="M2000 0H0V2000H2000V0Z" fill="white"/>
</mask>
<g mask="url(#mask0_356_218)">
<path d="M381.78 744.87C381.78 744.87 225.87 603.92 163.42 794.07C135.31 879.66 178.83 1027.74 178.83 1027.74C178.83 1027.74 275.58 807.35 402.93 778.64" fill="#D615BD"/>
<path d="M381.78 744.869C381.78 744.869 367.61 732.07 346.12 719.39C214.31 712.58 176.52 788.169 176.52 1008.25C183.48 1065.42 178.83 1027.74 178.83 1027.74C178.83 1027.74 275.58 807.35 402.93 778.64L381.78 744.869Z" fill="#BF077B"/>
<path d="M381.78 744.87C381.78 744.87 225.87 603.92 163.42 794.07C135.31 879.66 178.83 1027.74 178.83 1027.74C178.83 1027.74 275.58 807.35 402.93 778.64" stroke="black" stroke-width="18.34" stroke-linecap="round" stroke-linejoin="round"/>
<path d="M498.352 880.01C498.352 880.01 430.572 1040.24 441.462 1181.26L376.212 1296.14C376.212 1296.14 116.212 1107.89 329.412 762.04" fill="#D615BD"/>
<path d="M249.479 968.47C212.719 1180.6 376.199 1296.15 376.199 1296.15L439.219 1190.3C437.009 1161.63 433.319 1184.89 436.519 1155.55C332.289 1144.65 265.459 1046.16 249.479 968.48V968.47Z" fill="#BF077B"/>
<path d="M309.131 805.68C309.131 805.68 327.841 982.87 464.531 982.88L456.521 916.18L329.501 747.1L309.121 805.68H309.131Z" fill="#BF077B"/>
<path d="M498.35 880.01C498.35 880.01 424.92 1034.54 435.81 1175.57L376.2 1296.15C376.2 1296.15 116.2 1107.9 329.4 762.05" stroke="black" stroke-width="18.34" stroke-linecap="round" stroke-linejoin="round"/>
<path d="M709.551 738.63C709.551 738.63 771.571 722.45 820.731 730.6C840.571 733.89 722.131 538.04 365.871 709.84" fill="#D615BD"/>
<path d="M709.551 738.63C709.551 738.63 771.571 722.45 820.731 730.6C840.571 733.89 722.131 538.04 365.871 709.84" stroke="black" stroke-width="18.34" stroke-linecap="round" stroke-linejoin="round"/>
<path d="M329.402 762.039C329.402 762.039 343.672 1183.71 674.792 826.359C845.232 642.419 544.752 644.329 353.032 724.349" fill="#D615BD"/>
<path d="M329.402 762.039C329.402 762.039 343.672 1183.71 674.792 826.359C845.232 642.419 544.752 644.329 353.032 724.349" stroke="black" stroke-width="18.34" stroke-linecap="round" stroke-linejoin="round"/>
<path d="M354.031 766.67C354.031 766.67 372.431 1000 571.901 921.12" stroke="black" stroke-width="18.34" stroke-linecap="round" stroke-linejoin="round"/>
<path d="M359.8 712.13C370.47 736 352.93 778.19 338.33 788.12C272.8 832.69 278.79 733.8 312.3 703.05C334.62 682.58 356.5 704.76 359.8 712.13Z" fill="#0D22FF" stroke="black" stroke-width="18.34" stroke-linecap="round" stroke-linejoin="round"/>
</g>
</g>
<defs>
<clipPath id="clip0_356_218">
<rect width="2000" height="2000" fill="white"/>
</clipPath>
</defs>
</svg>
