<svg width="2000" height="2000" viewBox="0 0 2000 2000" fill="none" xmlns="http://www.w3.org/2000/svg">
<g clip-path="url(#clip0_42_406)">
<mask id="mask0_42_406" style="mask-type:luminance" maskUnits="userSpaceOnUse" x="0" y="0" width="2000" height="2000">
<path d="M2000 0H0V2000H2000V0Z" fill="white"/>
</mask>
<g mask="url(#mask0_42_406)">
<path d="M969.15 934.45C953.45 967.91 916.39 840.9 913.02 818.59C889.65 897.43 884.51 847.39 876.11 820.13C867.71 792.87 847.27 753.06 834.03 790.49C811.58 861.22 822.99 803.27 784.21 767.94C745.39 732.61 723.95 715.4 733.62 777.34C745.54 795.5 700.69 759.02 668.55 740.01C606.44 717.41 603.89 744.22 613.21 759.96C622.53 775.7 554.29 757.76 501.28 818.18C448.27 878.57 480.81 850.54 536.68 841.18C592.52 831.82 621.94 862.13 582.54 866.93C543.14 871.74 471.56 929.48 471.56 929.48C471.56 929.48 395.76 995.52 470.39 975.85C545.01 956.22 483.49 999.95 483.49 999.95C441.12 1029.04 406.08 1111.88 424.68 1177.85C443.28 1243.81 444.82 1252.25 414.77 1240.37C371.96 1216.96 335.82 1188.93 305.59 1159.69C231.08 1087.71 192.26 1008.43 176.63 972.58C154.65 922.21 170.39 925.88 192.04 949.87C231.74 976.87 236.62 980.25 230.12 957.65C223.59 935.05 216.73 812.66 230.12 700.51C261.49 604.28 250.44 644.96 270.66 678.06C290.91 711.19 300.23 738.74 311.93 673.77C323.63 608.8 384.32 505.3 436.15 474.08C444.18 469.53 451.63 465.39 458.49 461.64C567.09 402.21 534.36 438.2 524.34 461.93C513.74 487.21 522.29 549.8 529.29 524.96C536.33 500.12 614.48 398.61 679.93 367.86C745.38 337.12 738.37 332.93 711.85 414.34C685.29 495.71 741.75 417.27 817.33 344.01C933.85 297.53 871.15 326.29 842.61 438.96C816.71 541.28 823.68 502.76 868.33 464.09C872.84 460.16 877.76 456.28 883.04 452.5C940.68 411.48 877.06 506.28 867.78 565.46C858.5 624.64 908.8 551.41 919.51 538.57C930.22 525.73 922.41 603.1 922.41 603.1C921.86 642.47 953.19 755.17 966.4 784.45C976.31 805.88 982.25 824.11 985.37 840C993.96 883.99 980.67 909.85 969.15 934.43V934.45Z" fill="#AE00A8"/>
<path d="M985.371 840.02C972.131 841.78 961.121 839.69 953.821 832.17C910.641 787.74 893.321 678.08 894.421 629.03C895.521 579.94 848.851 658.03 848.851 658.03C822.181 626.81 845.411 494.5 845.411 494.5L868.341 464.12C872.851 460.19 877.771 456.31 883.051 452.53C940.691 411.51 877.071 506.31 867.791 565.49C858.511 624.67 908.811 551.44 919.521 538.6C930.231 525.76 922.421 603.13 922.421 603.13C921.871 642.5 953.201 755.2 966.411 784.48C976.321 805.91 982.261 824.14 985.381 840.03L985.371 840.02Z" fill="#72005D"/>
<path d="M396.15 753.12C396.15 753.12 348.16 739.69 344.31 682.09C344.31 682.09 287.81 841.06 321.27 975.81C321.27 975.81 269.58 973.9 259.89 924.19C260.55 929.95 329.14 1118.13 360.4 1230.54C285.89 1158.56 192.24 1008.46 176.61 972.62C154.63 922.25 170.37 925.92 192.02 949.91C231.72 976.91 236.6 980.29 230.1 957.69C223.57 935.09 216.71 812.7 230.1 700.54C261.47 604.31 250.43 644.99 270.64 678.09C290.89 711.22 300.21 738.77 311.91 673.8C323.61 608.83 384.3 505.33 436.13 474.11C444.16 469.56 451.61 465.41 458.47 461.67C418.37 542.42 380.03 651.46 396.14 753.12H396.15Z" fill="#72005D"/>
<path d="M961.382 941.79C948.502 919.78 936.182 900.85 931.702 884.12C920.112 840.79 915.702 819.26 904.922 802.31C906.832 803.96 1034.74 852.59 961.382 941.8V941.79Z" stroke="black" stroke-width="18.34" stroke-linecap="round" stroke-linejoin="round"/>
<path d="M832.501 743.64C850.951 777.69 811.841 843.83 811.841 843.83C806.671 767.89 767.911 736.55 716.221 730.46C716.221 730.46 749.061 758.66 728.191 788.1C728.191 788.1 657.281 693.75 591.891 753.28" stroke="black" stroke-width="18.34" stroke-linecap="round" stroke-linejoin="round"/>
<path d="M832.461 743.61C832.461 743.61 832.461 743.65 832.501 743.65C832.501 743.65 832.514 743.664 832.541 743.69C834.521 746.22 885.771 811.78 887.831 871.95C887.831 871.95 907.601 842.82 904.891 802.28L904.931 802.32" stroke="black" stroke-width="18.34" stroke-linecap="round" stroke-linejoin="round"/>
<path d="M982.26 903.02C993.3 861.53 989.59 815.74 953.19 755.2C909.42 682.45 925.05 531.95 925.05 531.95L871.71 595.97C849.18 543.43 925.05 415.65 925.05 415.65C885.39 441.37 822.98 522.08 822.98 522.08C817.33 462.06 908.17 304.96 908.17 304.96" stroke="black" stroke-width="18.34" stroke-linecap="round" stroke-linejoin="round"/>
<path d="M350.711 1204.48C231.991 1122.37 174.941 987.99 157.221 909C157.221 909 202.821 972.8 236.611 980.28C236.611 980.28 178.461 760.81 260.971 625.77C272.231 736.42 308.551 708.28 308.551 708.28C308.551 708.28 305.981 496.3 544.231 421.27C544.231 421.27 501.861 479.42 525.851 531.96C525.851 531.96 591.301 387.52 743.191 340.63C743.191 340.63 705.551 404.39 701.811 468.16C701.811 468.16 773.091 351.86 908.181 304.97C781.311 387.63 680.971 584.86 680.971 584.86C734.091 567.95 770.641 607.53 770.641 607.53C704.821 632.92 647.591 668.21 606.901 697.08C566.401 725.73 542.291 748.11 542.291 748.11C559.311 746.53 577.001 749.39 591.891 753.28C613.101 758.78 628.651 766.41 628.651 766.41C499.221 773.93 463.551 871.48 463.551 871.48C583.631 803.94 606.121 860.22 606.121 860.22C450.451 899.62 424.191 999.96 424.191 999.96C489.821 955.9 525.851 970.9 525.851 970.9C441.721 1015.88 421.441 1086.1 422.171 1145.13C422.901 1204.34 444.811 1252.26 444.811 1252.26C409.881 1240.15 378.591 1223.75 350.741 1204.46H350.701" stroke="black" stroke-width="18.34" stroke-linecap="round" stroke-linejoin="round"/>
</g>
</g>
<defs>
<clipPath id="clip0_42_406">
<rect width="2000" height="2000" fill="white"/>
</clipPath>
</defs>
</svg>
