<svg width="2000" height="2000" viewBox="0 0 2000 2000" fill="none" xmlns="http://www.w3.org/2000/svg">
<g clip-path="url(#clip0_25_111)">
<mask id="mask0_25_111" style="mask-type:luminance" maskUnits="userSpaceOnUse" x="0" y="0" width="2000" height="2000">
<path d="M2000 0H0V2000H2000V0Z" fill="white"/>
</mask>
<g mask="url(#mask0_25_111)">
<path d="M181.36 1018.77C96.4895 929.76 131.24 863.45 152.16 777.58C173.08 691.71 151.55 665.84 133.74 648.25C115.93 630.66 101.7 619.16 171.03 619.21C240.36 619.26 277.58 686.36 265.85 638.64C254.12 590.92 221.54 503.2 326.17 412.19C373.87 346.02 358.14 284.52 358.14 284.52C358.14 284.52 332.4 241.38 400.21 265.2C468.02 289.02 530.31 310.62 540.07 405.95C549.83 501.28 644.97 552.43 627.41 502.53C635.729 425.72 735.25 336.62 726.37 395.66C739.74 478.9 755.79 572.24 825.14 631.46C894.49 690.68 366.63 975.31 366.63 975.31L181.36 1018.78V1018.77Z" fill="#F0B700"/>
<path d="M210.09 996.16C135.85 914.9 227.03 732.95 196.8 686.85C270.66 702.14 276.67 706.54 287.7 757.13C354.45 702.89 315.63 661.7 315.63 575.1C315.63 503 432.05 453.04 438.12 327.41C515.52 384.75 424.46 469.71 514.98 529.05C549.01 551.36 597.05 551.4 635.93 596.99C705.78 529.74 657.38 481.34 698.52 437.2C699.43 518.86 712.58 569.41 791.3 604.02" fill="#FD8900"/>
<path d="M167.73 1004.42C55.7597 836.47 242.13 739.43 115.93 630.65C115.93 630.65 205.06 584.99 280.96 675.89C280.96 675.89 202.42 524.98 300.37 439.38C391.88 359.41 351.55 258.47 351.55 258.47C351.55 258.47 536.67 265.03 539.65 397.15C542.16 508.75 639.92 531.42 639.92 531.42C639.92 531.42 604.8 440.83 724.85 367.01C724.85 367.01 726.2 570.14 831.42 618.16" stroke="black" stroke-width="18.34" stroke-linecap="round" stroke-linejoin="round"/>
<path d="M451.22 808.99C398.75 615.89 526.46 572.15 551.14 454.19C551.14 454.19 739.75 520.49 678.88 694.71" fill="#F0B700"/>
<path d="M451.22 808.99C398.75 615.89 526.46 572.15 551.14 454.19C551.14 454.19 739.75 520.49 678.88 694.71" stroke="black" stroke-width="18.34" stroke-linecap="round" stroke-linejoin="round"/>
<path d="M489.68 777.58C457.21 675.76 539.96 644.49 583.2 517.77C583.2 517.77 659.47 589.039 643.33 664.349C627.2 739.659 523.56 847.28 522.56 842.299C521.56 837.319 489.67 777.58 489.67 777.58H489.68Z" fill="#FD8900"/>
<path d="M145.72 1002.6C145.72 1002.6 451.19 732.63 790.57 596.64C800.75 592.56 812.36 595.33 819.48 603.66C839.85 627.52 927.09 734.84 907.65 802.71C900.11 829.03 786.48 799.62 300.21 1206.8C300.21 1206.8 168.07 1142.07 145.71 1002.6H145.72Z" fill="#311DCB"/>
<path d="M295.51 1206.8C320.92 1185.53 362.57 1155.3 385.98 1136.34C304.26 1144.34 220.71 1080.19 201.92 955.73C169.2 978.45 175.32 982.661 145.72 1002.59C177.58 1126.62 295.51 1206.79 295.51 1206.79V1206.8Z" fill="#0B00A4"/>
<path d="M551.81 770.41C581.36 748.47 647.95 702.61 715.72 680.46C721.69 678.51 728.23 680.4 732.19 685.28C746.07 702.37 777.39 743.94 782.27 776.58C783.26 783.23 779.02 788.53 773.59 792.48C743.29 814.51 663.58 860.73 629.34 882.26C622.22 886.74 612.83 884.41 608.5 877.2C598.26 860.12 575.83 814.95 550.96 793.86C543.62 787.64 544.08 776.15 551.81 770.41Z" fill="#7D00DA" stroke="black" stroke-width="18.34" stroke-linecap="round" stroke-linejoin="round"/>
<path d="M145.72 1002.6C145.72 1002.6 451.19 732.63 790.57 596.64C847.59 583.55 927.09 734.84 907.65 802.72C876.29 822.87 786.48 799.63 300.21 1206.81C300.21 1206.81 168.07 1142.08 145.71 1002.61L145.72 1002.6Z" stroke="black" stroke-width="18.34" stroke-linecap="round" stroke-linejoin="round"/>
<path d="M631.65 831.72C646.158 831.72 657.92 819.958 657.92 805.45C657.92 790.941 646.158 779.18 631.65 779.18C617.141 779.18 605.38 790.941 605.38 805.45C605.38 819.958 617.141 831.72 631.65 831.72Z" fill="url(#paint0_linear_25_111)" stroke="black" stroke-width="18.34" stroke-linecap="round" stroke-linejoin="round"/>
<path d="M718.829 779.17C732.598 779.17 743.759 768.008 743.759 754.24C743.759 740.471 732.598 729.31 718.829 729.31C705.061 729.31 693.899 740.471 693.899 754.24C693.899 768.008 705.061 779.17 718.829 779.17Z" fill="url(#paint1_linear_25_111)" stroke="black" stroke-width="18.34" stroke-linecap="round" stroke-linejoin="round"/>
</g>
</g>
<defs>
<linearGradient id="paint0_linear_25_111" x1="605.38" y1="805.45" x2="657.92" y2="805.45" gradientUnits="userSpaceOnUse">
<stop offset="0.01" stop-color="white"/>
<stop offset="1" stop-color="#00CFAF"/>
</linearGradient>
<linearGradient id="paint1_linear_25_111" x1="693.899" y1="754.24" x2="743.769" y2="754.24" gradientUnits="userSpaceOnUse">
<stop offset="0.01" stop-color="white"/>
<stop offset="1" stop-color="#00CFAF"/>
</linearGradient>
<clipPath id="clip0_25_111">
<rect width="2000" height="2000" fill="white"/>
</clipPath>
</defs>
</svg>
