<svg width="2000" height="2000" viewBox="0 0 2000 2000" fill="none" xmlns="http://www.w3.org/2000/svg">
<g clip-path="url(#clip0_643_433)">
<mask id="mask0_643_433" style="mask-type:luminance" maskUnits="userSpaceOnUse" x="0" y="0" width="2000" height="2000">
<path d="M2000 0H0V2000H2000V0Z" fill="white"/>
</mask>
<g mask="url(#mask0_643_433)">
<path d="M950 884.2C948.9 896.9 947.4 909.8 945.8 923.1C944.7 921.2 943.6 919.4 942.5 917.5C939.9 899.2 932.8 883.3 923.1 868.8C885.7 813.2 808.8 780.2 791.6 724.4C790.8 722 790.2 719.6 789.7 717.1C789.5 716.7 789.5 716.3 789.4 715.9C788.7 718.2 788 720.4 787.4 722.6C742.7 865 670.2 896.8 629.7 892C577 980.9 509.5 979.2 509.5 979.2C484.2 1063.7 433.3 1086.4 405.6 1080.2C407.5 1081.7 412 1090.5 422 1125.7C424 1132.8 426.3 1141 428.9 1150.4C440 1191.6 403 1217.6 355.5 1220.3C304.5 1223.3 266.2 1209.2 213.3 1138.9C160.4 1068.5 132.2 852.4 231.5 693.6C271.1 630.3 345.4 577.4 429.6 546.9C556.4 501 705.5 505.7 791.9 601.7C934.7 599.4 965.3 716.6 950 884.2Z" fill="#FF33FF" stroke="black" stroke-width="18.34" stroke-linecap="round" stroke-linejoin="round"/>
<path d="M428.8 1150.5C439.9 1191.7 402.9 1217.7 355.4 1220.4C304.4 1223.4 266.1 1209.3 213.2 1139C160.3 1068.6 132.1 852.5 231.4 693.7C271 630.4 345.3 577.5 429.5 547C309.5 655.9 308.8 770.4 362 813.5C444.9 880.7 256.4 937.2 310.8 1033.1C338.6 1082.2 381.8 1104.9 421.9 1125.9C424 1132.9 426.3 1141.1 428.8 1150.5Z" fill="#E80FC9"/>
<path d="M949.999 884.2C948.899 896.9 947.399 909.8 945.799 923.1C944.699 921.2 943.599 919.4 942.499 917.5C939.899 899.2 932.799 883.3 923.099 868.8C885.699 813.2 808.799 780.2 791.599 724.4C790.799 722 790.199 719.6 789.699 717.1C795.799 685.2 810.999 681.7 844.299 732.3C895.399 809.8 925.699 857.8 949.999 884.2Z" fill="#FF33FF"/>
<path d="M405.5 1080.3C433.3 1086.5 484.2 1063.7 509.4 979.299C509.4 979.299 526.2 938.299 515.7 883.899" stroke="black" stroke-width="18.34" stroke-linecap="round" stroke-linejoin="round"/>
<path d="M791.699 601.899C811.699 629.199 798.399 659.199 798.399 659.199" stroke="black" stroke-width="18.34" stroke-linecap="round" stroke-linejoin="round"/>
<path d="M945.7 923.1C944.6 921.2 943.5 919.4 942.4 917.5C939.8 899.2 932.7 883.3 923 868.8C885.6 813.2 808.7 780.2 791.5 724.4C790.6 721.6 789.9 718.7 789.3 715.8C788.6 718.1 787.9 720.3 787.3 722.5C742.6 865 670.2 896.8 629.6 892C576.9 980.9 509.4 979.2 509.4 979.2C484.1 1063.7 433.3 1086.5 405.5 1080.2C407.8 1082 413.7 1094.3 428.8 1150.4C439.9 1191.6 402.9 1217.6 355.4 1220.3C304.4 1223.3 266.1 1209.2 213.2 1138.9C160.3 1068.5 132.1 852.4 231.4 693.6C330.7 534.8 648 442.1 791.7 601.9C945.5 599.2 969.3 735.1 945.7 923.1Z" stroke="black" stroke-width="18.34" stroke-linecap="round" stroke-linejoin="round"/>
<path d="M796.4 691.2C855.1 840.8 670.2 896.9 629.6 892C666.4 823.5 651 784.5 638.1 767" fill="#FF33FF"/>
<path d="M796.4 691.2C855.1 840.8 670.2 896.9 629.6 892C666.4 823.5 651 784.5 638.1 767" stroke="black" stroke-width="18.34" stroke-linecap="round" stroke-linejoin="round"/>
</g>
</g>
<defs>
<clipPath id="clip0_643_433">
<rect width="2000" height="2000" fill="white"/>
</clipPath>
</defs>
</svg>
