<svg width="2000" height="2000" viewBox="0 0 2000 2000" fill="none" xmlns="http://www.w3.org/2000/svg">
<g clip-path="url(#clip0_643_280)">
<mask id="mask0_643_280" style="mask-type:luminance" maskUnits="userSpaceOnUse" x="0" y="0" width="2000" height="2000">
<path d="M2000 0H0V2000H2000V0Z" fill="white"/>
</mask>
<g mask="url(#mask0_643_280)">
<path d="M875.9 761.7C869.2 756.8 861.5 751.5 852.5 745.5C834.4 733.3 815.4 722.9 795.7 714.3L843.3 667.7C843.3 667.7 841.8 694.4 860.3 733.4C866.7 746.7 871.9 755.7 875.9 761.7Z" fill="#0076C6"/>
<path d="M843.3 510.5C843.3 510.5 855.3 526.7 813.1 568.5C674.9 619.7 646.2 569.6 487.5 586.4C178.4 619.2 -5.19995 988.7 250.6 1242C263.8 1251.3 264.1 1255 271.3 1261.4L305 1192.1C305 1192.1 285.5 1167.4 339.5 1132.9C393.5 1098.4 467.8 1166.9 467.8 1166.9C426.8 1087.2 411.1 990.4 423 941.5L424.6 920.5C547.2 801.6 528.5 765.3 731.6 741.3C897.2 721.8 843.3 510.5 843.3 510.5ZM754.5 600.7L801.4 563.8C791.9 576.5 766.4 589.1 754.5 600.7Z" fill="#00C2ED"/>
<path d="M424.7 920.501C424.7 920.501 416.5 1068.3 454.3 1134.2C492.1 1200.1 454.1 1155.9 454.1 1155.9L375.2 1123.3L335.4 1094C335.4 1093.9 402 919.101 424.7 920.501Z" fill="#0076C6"/>
<path d="M331.7 1108.2C331.7 1108.2 451.8 756 656.4 754.6C930.7 752.7 837.6 497.4 837.6 497.4C837.6 497.4 843.4 667.7 627.9 653.5" stroke="black" stroke-width="18.34" stroke-linecap="round" stroke-linejoin="round"/>
<path d="M424.7 920.5C424.7 920.5 408.2 1050.8 467.8 1166.9C467.8 1166.9 393.5 1098.4 339.5 1132.9C285.5 1167.4 320.6 1268 320.6 1268" stroke="black" stroke-width="18.34" stroke-linecap="round" stroke-linejoin="round"/>
<path d="M893.3 787.801C840.8 731.401 843.4 651.101 843.4 651.101" stroke="black" stroke-width="18.34" stroke-linecap="round" stroke-linejoin="round"/>
<path d="M279 670.301C100.9 803.701 53.4999 1033 239.3 1232.6C239.3 1232.6 253.7 1209.5 279 1186.8C256.1 1149.9 225.2 1097.3 215.1 1050.9C180.9 893.901 230.7 757.501 279 670.301Z" fill="#0076C6"/>
<path d="M293.3 1273.8L256.7 1245.8C241.9 1234.5 228.2 1221.8 215.9 1207.8C-24.5 935.601 243.6 578.101 527.9 586.301C619.3 588.901 757.5 619.301 825.9 556.101" stroke="black" stroke-width="18.34" stroke-linecap="round" stroke-linejoin="round"/>
<path d="M338.9 1015.3L399.5 980.5L384.9 1049.1C384.9 1049.1 364.2 1050.3 349.6 1038.5C335 1026.7 338.9 1015.3 338.9 1015.3Z" fill="url(#paint0_linear_643_280)" stroke="black" stroke-width="18.34" stroke-linecap="round" stroke-linejoin="round"/>
<path d="M172.3 1329L384.5 1049.1C384.5 1049.1 363.6 1047.8 353.2 1038.6C344.2 1030.7 338.9 1015.3 338.9 1015.3L135.5 1298.5C135.5 1298.5 133.1 1309.1 147.2 1320.2C163.5 1333.1 172.4 1329 172.3 1329Z" fill="url(#paint1_linear_643_280)" stroke="black" stroke-width="18.34" stroke-linecap="round" stroke-linejoin="round"/>
</g>
</g>
<defs>
<linearGradient id="paint0_linear_643_280" x1="338.395" y1="1014.82" x2="399.468" y2="1014.82" gradientUnits="userSpaceOnUse">
<stop stop-color="white"/>
<stop offset="1" stop-color="#FF0078"/>
</linearGradient>
<linearGradient id="paint1_linear_643_280" x1="117.609" y1="1195.17" x2="400.921" y2="1148.07" gradientUnits="userSpaceOnUse">
<stop stop-color="#FF0029"/>
<stop offset="1" stop-color="#FDA900"/>
</linearGradient>
<clipPath id="clip0_643_280">
<rect width="2000" height="2000" fill="white"/>
</clipPath>
</defs>
</svg>
