<svg width="2000" height="2000" viewBox="0 0 2000 2000" fill="none" xmlns="http://www.w3.org/2000/svg">
<g clip-path="url(#clip0_636_164)">
<mask id="mask0_636_164" style="mask-type:luminance" maskUnits="userSpaceOnUse" x="0" y="0" width="2000" height="2000">
<path d="M2000 0H0V2000H2000V0Z" fill="white"/>
</mask>
<g mask="url(#mask0_636_164)">
<path d="M432.003 981.4C432.003 981.4 399.003 1157.6 423.603 1209.7C359.603 1149.4 313.103 1167.7 310.303 1084.5C307.503 1001.3 328.603 917.3 328.603 917.3L436.403 945.6L432.003 981.4Z" fill="#FF5A3F" stroke="black" stroke-width="18.34" stroke-linecap="round" stroke-linejoin="round"/>
<path d="M1120.9 540.9C999.702 734.8 946.602 834.4 910.202 803C815.302 775.6 623.202 728.9 456.802 947.4C440.102 971.8 425.902 994.4 413.802 1015.1C358.902 1109.5 348.002 1166.2 345.902 1186.1C345.302 1191.5 345.402 1194.2 345.402 1194.2L300.902 1143.4C261.802 1066 237.302 954.8 298.702 839.2C312.602 813.1 329.302 793.5 340.502 776C379.102 715.9 415.302 708 442.502 694.5C460.802 690.4 474.202 682.7 491.202 663.7C504.702 648.5 520.402 626.1 542.602 592.7C592.502 517.3 720.002 398.1 868.602 362.4C1017.3 326.6 1212.9 309.7 1120.9 540.9Z" fill="#FF0085"/>
<path d="M345.902 1186.2C345.302 1191.6 345.402 1194.3 345.402 1194.3L300.902 1143.5C261.802 1066.1 237.302 954.9 298.702 839.3C312.602 813.2 340.302 780.9 351.502 763.3C321.502 898.6 309.702 1067.1 340.602 1166.3C342.702 1173.3 344.502 1179.9 345.902 1186.2Z" fill="#FF0085"/>
<path d="M1120.9 540.9C999.7 734.8 946.6 834.4 910.2 803C815.3 775.6 623.2 728.9 456.8 947.4C440.1 971.8 425.9 994.4 413.8 1015.1C394.1 974.3 418.2 905.7 453.7 753.3C470.5 720 482.8 690.1 491.2 663.6C504.7 648.4 520.4 626 542.6 592.6C592.5 517.2 720 398 868.6 362.3C1017.4 326.6 1212.9 309.7 1120.9 540.9Z" fill="#FF0085"/>
<path d="M362 1110.6C424.9 961.9 601.9 679.9 936 812.5C936 812.5 1386 311.3 970.8 344.9C555.6 378.5 379.5 822.6 412 1012.6" stroke="black" stroke-width="18.34" stroke-linecap="round" stroke-linejoin="round"/>
<path d="M491.801 672.699C346.501 710.699 195.201 917.399 289.701 1124.1" stroke="black" stroke-width="18.34" stroke-linecap="round" stroke-linejoin="round"/>
<path d="M1073.8 494.5L1034.9 495.7L1006.3 532.7L1001.5 491L965.402 479.1L1002.3 451.1L1009.3 403.6L1037.2 431.2L1078 414.6L1057.1 459.4L1073.8 494.5Z" fill="#FFF100" stroke="black" stroke-width="18.34" stroke-linecap="round" stroke-linejoin="round"/>
<path d="M847.099 589.8L747.699 486.3L896.499 431L847.099 589.8Z" fill="#FF00DF" stroke="black" stroke-width="18.34" stroke-linecap="round" stroke-linejoin="round"/>
<path d="M1047.5 621.8C1039.3 643.3 1017.3 657.8 998.001 654.4C978.501 651 968.601 630.6 976.301 608.6C984.101 586.2 1006.9 570.9 1026.9 574.8C1046.7 578.7 1055.8 599.9 1047.5 621.8Z" fill="#FF8000" stroke="black" stroke-width="18.34" stroke-linecap="round" stroke-linejoin="round"/>
<path d="M735.501 748.2L601.601 728.3C577.801 724.8 562.201 702.6 567.001 678.4L575.201 637.4C580.301 611.8 605.001 594.3 630.001 598.8L770.401 624C793.501 628.2 806.201 651.2 799.001 675.1L787.601 713.4C780.801 736.1 757.701 751.5 735.501 748.2Z" fill="#ABFFC1" stroke="black" stroke-width="18.34" stroke-linecap="round" stroke-linejoin="round"/>
<path d="M778.902 662.099C775.202 662.299 772.602 664.599 770.802 666.999C770.902 666.599 770.902 666.299 770.902 666.099C771.002 664.399 769.902 663.199 767.802 663.299C765.402 663.399 762.702 665.599 761.402 668.399C761.002 668.899 760.602 669.399 760.102 669.799C761.302 666.799 762.102 663.599 762.402 660.499C763.202 651.399 759.402 644.599 749.902 645.099C737.802 645.799 728.602 657.999 727.602 669.799C727.602 670.399 727.502 670.999 727.502 671.499C726.802 672.099 726.102 672.599 725.302 672.599C724.802 672.599 724.502 672.399 724.502 671.599C724.502 670.999 724.802 670.099 724.902 669.299C725.102 667.099 723.702 665.399 721.002 665.599C719.102 665.699 717.302 666.499 715.602 667.699C720.102 662.199 722.402 655.499 722.802 650.599C723.302 644.799 721.002 642.099 717.302 642.299C707.502 642.899 702.202 662.899 701.002 673.599C699.502 675.499 697.602 677.299 694.302 677.499C692.402 677.599 691.602 676.399 691.702 674.999C691.802 673.499 692.902 672.599 693.602 672.499C693.902 672.499 694.302 672.599 694.202 673.299C694.202 673.699 693.902 673.999 693.902 674.599C693.802 675.499 694.602 675.899 695.802 675.799C698.302 675.699 700.202 673.699 700.402 671.499C700.602 668.699 698.502 666.599 694.502 666.899C690.002 667.199 686.302 669.899 684.102 673.399C683.902 669.999 682.002 667.599 678.102 667.799C674.402 667.999 671.802 670.299 670.002 672.699C670.102 672.299 670.102 671.999 670.102 671.799C670.202 670.099 669.102 668.899 667.002 668.999C664.602 669.099 661.902 671.299 660.602 674.099C660.202 674.599 659.802 675.099 659.302 675.499C660.502 672.499 661.302 669.299 661.602 666.199C662.402 657.099 658.602 650.299 649.102 650.799C637.002 651.499 627.802 663.699 626.802 675.499C626.802 676.099 626.702 676.699 626.702 677.199C626.002 677.799 625.302 678.299 624.502 678.299C624.002 678.299 623.702 678.099 623.702 677.299C623.702 676.699 624.002 675.799 624.102 674.999C624.302 672.799 622.902 671.099 620.202 671.299C618.302 671.399 616.502 672.199 614.802 673.399C619.302 667.899 621.602 661.199 622.002 656.299C622.502 650.499 620.202 647.799 616.502 647.999C606.702 648.599 601.402 668.599 600.202 679.299C598.702 681.199 596.802 682.999 593.502 683.199C591.602 683.299 590.802 682.099 590.902 680.699C591.002 679.199 592.102 678.299 592.802 678.199C593.102 678.199 593.502 678.299 593.402 678.999C593.402 679.399 593.102 679.699 593.102 680.299C593.002 681.199 593.802 681.599 595.002 681.499C597.502 681.399 599.402 679.399 599.602 677.199C599.802 674.399 597.702 672.299 593.702 672.599C587.002 672.999 581.902 678.799 581.402 684.899C581.002 689.799 583.702 693.699 589.702 693.399C594.202 693.099 597.802 690.799 600.502 687.799C601.202 691.099 603.102 692.699 606.302 692.499C609.202 692.299 610.902 690.799 611.102 688.499C611.502 683.799 613.102 681.199 613.902 681.099C614.102 681.099 614.302 681.199 614.202 681.499C614.102 682.199 613.402 683.299 613.202 685.999C612.902 689.599 615.302 691.999 619.202 691.699C623.402 691.499 626.402 688.299 628.402 684.799C630.702 688.999 635.002 690.999 640.402 690.699C646.302 690.399 651.202 687.399 654.802 683.099C655.502 682.999 656.202 682.899 656.602 682.799C657.202 682.699 657.902 682.399 658.402 682.199C657.602 686.499 656.902 691.299 656.702 694.299C656.202 699.899 658.502 701.799 661.802 701.599C665.702 701.399 669.002 699.199 669.202 696.799C669.302 696.099 668.202 693.799 668.702 687.699C669.602 688.199 670.902 688.499 672.302 688.399C676.402 688.199 680.102 685.199 682.202 681.299C682.602 685.199 685.402 687.999 690.502 687.699C695.002 687.399 698.602 685.099 701.302 682.099C702.002 685.399 703.902 686.999 707.102 686.799C710.002 686.599 711.702 685.099 711.902 682.799C712.302 678.099 713.902 675.499 714.702 675.399C714.902 675.399 715.102 675.499 715.002 675.799C714.902 676.499 714.202 677.599 714.002 680.299C713.702 683.899 716.102 686.299 720.002 685.999C724.202 685.799 727.202 682.599 729.202 679.099C731.502 683.299 735.802 685.299 741.202 684.999C747.102 684.699 752.002 681.699 755.602 677.399C756.302 677.299 757.002 677.199 757.402 677.099C758.002 676.999 758.702 676.699 759.202 676.499C758.402 680.799 757.702 685.599 757.502 688.599C757.002 694.199 759.302 696.099 762.602 695.899C766.502 695.699 769.802 693.499 770.002 691.099C770.102 690.399 769.002 688.099 769.502 681.999C770.402 682.499 771.702 682.799 773.102 682.699C779.202 682.399 784.302 675.899 784.802 669.499C785.202 665.199 783.402 661.799 778.902 662.099ZM610.402 671.299C610.802 668.199 611.602 664.699 612.602 662.499C613.202 660.999 613.802 660.399 614.202 660.299C614.702 660.299 614.902 660.799 614.902 661.699C614.702 663.999 612.402 668.599 610.402 671.299ZM643.802 677.399C641.402 677.499 639.802 675.599 640.202 671.299C640.702 665.399 644.502 659.699 648.202 659.499C650.402 659.399 651.802 661.199 651.402 665.799C650.902 671.899 647.602 677.199 643.802 677.399ZM672.802 678.199C672.102 678.199 671.402 677.899 671.002 677.399C671.902 675.399 673.202 673.999 674.402 673.999C675.302 673.899 675.702 674.599 675.602 675.399C675.402 676.699 674.002 678.099 672.802 678.199ZM711.202 665.599C711.602 662.499 712.402 658.999 713.402 656.799C714.002 655.299 714.602 654.699 715.002 654.599C715.502 654.599 715.702 655.099 715.702 655.999C715.502 658.299 713.202 662.899 711.202 665.599ZM744.602 671.699C742.202 671.799 740.602 669.899 741.002 665.599C741.502 659.699 745.302 653.999 749.002 653.799C751.202 653.699 752.602 655.499 752.202 660.099C751.702 666.199 748.402 671.399 744.602 671.699ZM773.602 672.399C772.902 672.399 772.202 672.099 771.802 671.599C772.702 669.599 774.002 668.199 775.202 668.199C776.102 668.099 776.502 668.799 776.402 669.599C776.302 670.999 774.802 672.399 773.602 672.399Z" fill="black"/>
</g>
</g>
<defs>
<clipPath id="clip0_636_164">
<rect width="2000" height="2000" fill="white"/>
</clipPath>
</defs>
</svg>
