<svg width="2000" height="2000" viewBox="0 0 2000 2000" fill="none" xmlns="http://www.w3.org/2000/svg">
<g clip-path="url(#clip0_28_416)">
<mask id="mask0_28_416" style="mask-type:luminance" maskUnits="userSpaceOnUse" x="0" y="0" width="2000" height="2000">
<path d="M2000 0H0V2000H2000V0Z" fill="white"/>
</mask>
<g mask="url(#mask0_28_416)">
<path d="M439.74 595.9C439.74 595.9 428.91 491.62 679.86 441.66C679.86 441.66 681.02 702.84 439.74 595.9Z" fill="#2FB600"/>
<path d="M530.2 930.86C530.2 930.86 651.16 965.4 700.3 836.14C744.79 869.35 857.96 892.96 862.31 745.13C917.52 767.83 910.47 700.4 845.29 669.33C756.27 626.9 542.35 552.77 353.73 716.34C165.1 879.91 184.78 1069.36 292.8 1132.76C292.8 1132.76 382.18 1110.76 418.53 1170.11C418.53 1170.11 564.36 1041.03 530.21 930.85L530.2 930.86Z" fill="#FF0085"/>
<path d="M461.371 551.63C444.401 577.1 446.341 595.91 446.341 595.91C595.201 661.89 651.761 587.75 673.261 521.27C602.741 514.57 525.061 530.84 461.371 551.64V551.63Z" fill="#027500"/>
<path d="M321.3 934.92C316.1 941.17 322.48 950.36 330.22 947.85C388.91 928.83 537.42 878.21 571.01 759.81C573.09 752.49 579.61 747.49 587.22 747.27C666.38 745.01 723.67 685.21 757.4 636.43C651.15 605.09 495.02 596.93 354.13 719.1C281.84 781.79 240.18 848.27 222.32 910C264.7 909.66 312 903.92 353.06 885.98C347.58 899 331.48 922.67 321.31 934.9L321.3 934.92ZM454.28 711.99L447.63 713.25C447.22 710.36 446.81 707.48 446.31 704.52C448.96 707.13 451.62 709.6 454.28 711.99Z" fill="#D20247"/>
<path d="M530.2 930.86C530.2 930.86 651.16 965.4 700.3 836.14C744.79 869.35 857.96 892.96 862.31 745.13C917.52 767.83 903.96 706.04 845.29 669.33C761.68 617.03 542.35 552.77 353.73 716.34C165.1 879.91 184.78 1069.36 292.8 1132.76C292.8 1132.76 382.18 1110.76 418.53 1170.11C418.53 1170.11 561.78 1050.05 530.21 930.85L530.2 930.86Z" stroke="black" stroke-width="18.34" stroke-linecap="round" stroke-linejoin="round"/>
<path d="M362.781 697.24C362.781 697.24 388.071 874.93 334.711 922.41C334.711 922.41 571.111 863.16 561.231 659.57" fill="#027500"/>
<path d="M362.781 697.24C362.781 697.24 388.071 874.93 334.711 922.41C334.711 922.41 571.111 863.16 561.231 659.57" stroke="black" stroke-width="18.34" stroke-linecap="round" stroke-linejoin="round"/>
<path d="M410.969 613.13C410.969 613.13 288.459 685.55 142.189 735.46C142.189 735.46 253.849 834.14 449.079 671.38" fill="#2FB600"/>
<path d="M410.969 613.13C410.969 613.13 288.459 685.55 142.189 735.46C142.189 735.46 253.849 834.14 449.079 671.38" stroke="black" stroke-width="18.34" stroke-linecap="round" stroke-linejoin="round"/>
<path d="M439.74 595.9C439.74 595.9 428.91 491.62 679.86 441.66C679.86 441.66 681.02 702.84 439.74 595.9Z" stroke="black" stroke-width="18.34" stroke-linecap="round" stroke-linejoin="round"/>
<path d="M420.301 653.71L345.331 446.99C341.581 436.65 343.271 424.78 350.711 416.67C357.001 409.81 367.671 404.99 385.701 409.78C395.241 412.32 402.801 419.61 406.171 428.89L479.871 632.11" fill="#104400"/>
<path d="M420.301 653.71L345.331 446.99C341.581 436.65 343.271 424.78 350.711 416.67C357.001 409.81 367.671 404.99 385.701 409.78C395.241 412.32 402.801 419.61 406.171 428.89L479.871 632.11" stroke="black" stroke-width="18.34" stroke-linecap="round" stroke-linejoin="round"/>
<path d="M408.891 592.73C408.891 592.73 488.091 524.29 634.301 574.8C677.021 589.56 804.751 554.66 804.751 554.66C804.751 554.66 589.781 866.68 423.771 634.36" fill="#2FB600"/>
<path d="M786.791 578.29C512.461 765.09 451.661 621.79 445.561 629.58C442.971 639.21 442.101 648.71 442.451 658.01C508.641 734.01 580.851 731.47 643.321 701.56L771.281 598.1L786.791 578.3V578.29Z" fill="#027500"/>
<path d="M408.891 592.73C408.891 592.73 488.091 524.29 634.301 574.8C677.021 589.56 804.751 554.66 804.751 554.66C804.751 554.66 589.781 866.68 423.771 634.36" stroke="black" stroke-width="18.34" stroke-linecap="round" stroke-linejoin="round"/>
<path d="M417.79 586.18C417.79 586.18 261.9 561.16 229.97 735.32C213.74 823.82 129.4 877.81 129.4 877.81C129.4 877.81 538.51 942.03 444.98 628.86" fill="#2FB600"/>
<mask id="mask1_28_416" style="mask-type:luminance" maskUnits="userSpaceOnUse" x="129" y="584" width="330" height="300">
<path d="M417.79 586.18C417.79 586.18 261.9 561.16 229.97 735.32C213.74 823.82 129.4 877.81 129.4 877.81C129.4 877.81 538.51 942.03 444.98 628.86" fill="white"/>
</mask>
<g mask="url(#mask1_28_416)">
<path d="M444.99 628.86C444.99 628.86 408.9 838.34 129.41 877.81C129.41 877.81 575.68 921.62 439.75 595.91" fill="#027500"/>
</g>
<path d="M417.79 586.18C417.79 586.18 261.9 561.16 229.97 735.32C213.74 823.82 129.4 877.81 129.4 877.81C129.4 877.81 538.51 942.03 444.98 628.86" stroke="black" stroke-width="18.34" stroke-linecap="round" stroke-linejoin="round"/>
</g>
</g>
<defs>
<clipPath id="clip0_28_416">
<rect width="2000" height="2000" fill="white"/>
</clipPath>
</defs>
</svg>
