<svg width="2000" height="2000" viewBox="0 0 2000 2000" fill="none" xmlns="http://www.w3.org/2000/svg">
<g clip-path="url(#clip0_102_2)">
<mask id="mask0_102_2" style="mask-type:luminance" maskUnits="userSpaceOnUse" x="0" y="0" width="2000" height="2000">
<path d="M2000 0H0V2000H2000V0Z" fill="white"/>
</mask>
<g mask="url(#mask0_102_2)">
<path d="M931.712 884.121C909.292 800.471 913.772 797.981 847.252 753.071C807.222 726.031 761.692 707.431 713.602 698.991C721.932 678.041 733.232 650.891 743.172 646.781C758.362 640.581 855.072 702.111 855.072 702.111C930.352 798.861 925.582 846.001 931.712 884.121Z" fill="#2D1FC3" stroke="black" stroke-width="18.34" stroke-linecap="round" stroke-linejoin="round"/>
<path d="M861.041 709.891C848.751 718.441 835.031 727.241 819.661 736.271C807.411 743.531 794.051 750.911 779.631 758.431C664.721 818.301 580.121 847.581 520.831 861.451C442.611 879.761 408.461 871.251 406.951 870.881C408.491 873.851 491.741 1035.02 375.331 1157.93C375.331 1157.93 333.471 1219.16 287.431 1157.93C206.281 1047.35 126.111 915.241 185.031 788.561C244.211 661.401 332.511 616.091 411.541 584.911C434.981 575.661 457.661 567.631 478.461 559.121C569.451 521.851 587.681 437.721 637.131 387.421C713.441 309.751 735.781 401.911 680.531 486.481C687.461 477.011 799.841 324.831 880.551 326.301C963.871 327.801 961.521 442.201 912.031 515.651C912.031 515.651 1034.79 588.511 861.031 709.911L861.041 709.891Z" fill="#2D1FC3" stroke="black" stroke-width="18.34" stroke-linecap="round" stroke-linejoin="round"/>
<path d="M406.959 870.88C408.499 873.85 491.749 1035.02 375.339 1157.93C375.339 1157.93 333.479 1219.16 287.439 1157.93C206.289 1047.35 126.119 915.24 185.039 788.56C244.219 661.4 332.519 616.09 411.549 584.91C332.929 662.76 479.479 693.67 398.399 772.82C346.359 823.62 408.469 871.25 406.969 870.89L406.959 870.88Z" fill="#3C1482"/>
<path d="M593.521 593.41C654.261 577.5 706.391 538.49 739.541 485.16C767.901 439.55 799.401 388.75 817.181 370.51C848.101 338.77 880.561 326.28 880.561 326.28C880.561 326.28 818.811 328.2 748.021 417.71C748.021 417.71 605.461 576.65 581.921 592.59C575.061 597.24 581.271 596.62 593.521 593.41Z" fill="#3C1482"/>
<path d="M934.075 538.41C934.075 538.41 908.045 606.451 793.875 598.761C838.835 581.601 909.825 533.69 914.555 524.22C919.285 514.75 934.075 538.41 934.075 538.41Z" fill="#3C1482"/>
<path d="M779.641 595.571C779.641 595.571 858.111 588.461 912.041 515.641" stroke="black" stroke-width="18.34" stroke-linecap="round" stroke-linejoin="round"/>
<path d="M576.625 589.89C616.435 572.28 651.435 531.96 680.225 486.94" stroke="black" stroke-width="18.34" stroke-linecap="round" stroke-linejoin="round"/>
<path d="M861.041 709.891C848.751 718.441 835.031 727.241 819.661 736.271C807.411 743.531 794.051 750.911 779.631 758.431C664.721 818.301 580.121 847.581 520.831 861.451C442.611 879.761 408.461 871.251 406.951 870.881C408.491 873.851 491.741 1035.02 375.331 1157.93C375.331 1157.93 333.471 1219.16 287.431 1157.93C206.281 1047.35 126.111 915.241 185.031 788.561C244.211 661.401 332.511 616.091 411.541 584.911C434.981 575.661 457.661 567.631 478.461 559.121C569.451 521.851 587.681 437.721 637.131 387.421C713.441 309.751 735.781 401.911 680.531 486.481C687.461 477.011 799.841 324.831 880.551 326.301C963.871 327.801 961.521 442.201 912.031 515.651C912.031 515.651 1034.79 588.511 861.031 709.911L861.041 709.891Z" stroke="black" stroke-width="18.34" stroke-linecap="round" stroke-linejoin="round"/>
</g>
</g>
<defs>
<clipPath id="clip0_102_2">
<rect width="2000" height="2000" fill="white"/>
</clipPath>
</defs>
</svg>
