<svg width="2000" height="2000" viewBox="0 0 2000 2000" fill="none" xmlns="http://www.w3.org/2000/svg">
<g clip-path="url(#clip0_42_157)">
<mask id="mask0_42_157" style="mask-type:luminance" maskUnits="userSpaceOnUse" x="0" y="0" width="2000" height="2000">
<path d="M2000 0H0V2000H2000V0Z" fill="white"/>
</mask>
<g mask="url(#mask0_42_157)">
<path d="M656.67 491.479C691.96 464.089 715.64 449.769 748.31 457.979C679.32 529.399 698.28 598.929 698.28 598.929C698.28 598.929 660.88 563.639 660.88 565.219C660.88 566.799 656.67 491.479 656.67 491.479Z" fill="#00D58F"/>
<path d="M656.67 491.479C691.96 464.089 715.64 449.769 748.31 457.979C679.32 529.399 698.28 598.929 698.28 598.929C698.28 598.929 660.88 563.639 660.88 565.219C660.88 566.799 656.67 491.479 656.67 491.479Z" fill="#00909B"/>
<path d="M732.94 719.52C647.75 747.04 638.84 723.34 579.55 745.64C439.66 805.95 380.59 866.64 343.61 921.45C333.23 936.86 324.61 951.83 316.39 966.17C292.73 837.62 218.07 790.22 218.07 790.22C256.08 715.67 297.94 623.62 365.08 553.25C374.29 543.6 383.97 534.36 394.17 525.62C473.42 468.09 541.99 425.43 610.3 429.46C652.75 425.94 680.63 429.46 680.63 429.46C680.63 429.46 667.75 580.39 732.95 719.51L732.94 719.52Z" fill="#00D58F"/>
<path d="M436.421 818.55C367.161 881.19 324.601 951.83 316.381 966.17C292.721 837.62 218.061 790.22 218.061 790.22C256.071 715.67 297.931 623.62 365.071 553.25C265.771 737.5 412.811 719.53 436.421 818.55Z" fill="#00909B"/>
<path d="M732.95 719.54C709.65 653.15 669.55 554.35 680.61 429.48C680.61 429.48 624.65 416.66 562.48 436.72C342.98 501.99 270.67 673.72 218.08 790.23C272.48 825.87 314.24 919.07 316.39 966.19C369.02 878.68 434.39 776.29 626.91 733.12C671.43 737.52 702.73 733.12 732.95 719.55V719.54Z" stroke="black" stroke-width="18.34" stroke-linecap="round" stroke-linejoin="round"/>
<path d="M562.48 436.71C562.48 436.71 566.41 632.33 626.91 733.1" stroke="black" stroke-width="18.34" stroke-linecap="round" stroke-linejoin="round"/>
<path d="M732.95 719.54C652.78 476.14 748.3 457.99 748.3 457.99C748.3 457.99 716.65 448.36 678.74 477.11" stroke="black" stroke-width="18.34" stroke-linecap="round" stroke-linejoin="round"/>
<path d="M612.249 773.22C612.249 773.22 431.229 809.94 350.439 972.74" stroke="black" stroke-width="18.34" stroke-linecap="round" stroke-linejoin="round"/>
<path d="M609.84 426.83C609.84 426.83 593.14 567.39 665.49 734.63" stroke="black" stroke-width="18.34" stroke-linecap="round" stroke-linejoin="round"/>
<path d="M647.35 425.67C647.35 425.67 622.76 551.03 703.57 729.67" stroke="black" stroke-width="18.34" stroke-linecap="round" stroke-linejoin="round"/>
</g>
</g>
<defs>
<clipPath id="clip0_42_157">
<rect width="2000" height="2000" fill="white"/>
</clipPath>
</defs>
</svg>
