<svg width="2000" height="2000" viewBox="0 0 2000 2000" fill="none" xmlns="http://www.w3.org/2000/svg">
<g clip-path="url(#clip0_356_236)">
<mask id="mask0_356_236" style="mask-type:luminance" maskUnits="userSpaceOnUse" x="0" y="0" width="2000" height="2000">
<path d="M2000 0H0V2000H2000V0Z" fill="white"/>
</mask>
<g mask="url(#mask0_356_236)">
<path d="M442.142 1005.28C430.902 890.85 489.522 811.65 613.552 831.33C797.802 860.56 746.582 747.01 802.822 769.13C859.062 791.26 897.662 780.27 896.422 744.37C895.482 717.12 756.632 455.15 420.042 710.58C207.662 871.75 189.052 1037.84 280.862 1152.77C383.952 1281.85 429.602 1192.34 459.342 1160.67C493.892 1123.88 445.802 1042.43 442.142 1005.27V1005.28Z" fill="#3B7FFF"/>
<path d="M467.779 1093.84C266.409 1080.26 287.419 1050.48 228.629 1015.6C230.119 1065.99 248.699 1112.53 280.849 1152.78C383.939 1281.85 429.589 1192.35 459.329 1160.68C474.519 1144.51 473.729 1119.71 467.779 1093.84Z" fill="#0B59C6"/>
<path d="M669.209 738.49C645.579 728.36 610.859 720.8 562.279 726.24C550.879 727.52 542.919 715.09 548.779 705.23C559.339 687.45 576.029 663.04 598.469 641.44C609.249 631.07 598.389 613.23 584.249 618.12C540.789 633.15 492.359 658.3 438.709 696.82C437.409 697.75 436.249 698.9 435.329 700.21C429.189 708.94 423.759 718.38 419.219 728.62C417.339 732.86 413.379 735.78 408.819 736.6C399.509 738.28 390.689 740.34 382.309 742.73C380.309 743.3 378.469 744.33 376.909 745.69C323.069 792.65 286.159 834.33 262.939 875.81C254.749 890.44 274.629 904.35 285.749 891.8C324.279 848.3 356.839 824.56 356.839 824.56C253.199 905.49 323.519 985.78 366.259 1021.54C375.729 1029.47 389.949 1022.21 389.239 1009.88C386.309 958.86 395.279 919 405.879 890.77C410.599 878.2 429.059 878.97 432.399 891.97C432.469 892.24 432.539 892.5 432.609 892.76C435.929 905.17 452.839 906.45 458.679 895C468.899 874.97 483.469 858.72 502.349 847.28C506.789 844.59 509.469 839.76 509.199 834.58C508.899 828.95 509.069 822.73 509.319 817.82C509.599 812.37 512.969 807.59 518.019 805.53C541.119 796.12 609.379 769.95 664.929 765.24C679.319 764.02 682.489 744.17 669.209 738.48V738.49Z" fill="#0B59C6"/>
<path d="M442.142 1005.28C430.902 890.85 489.522 811.65 613.552 831.33C797.802 860.56 746.582 747.01 802.822 769.13C859.062 791.26 897.662 780.27 896.422 744.37C895.482 717.12 756.632 455.15 420.042 710.58C207.662 871.75 189.052 1037.84 280.862 1152.77C383.952 1281.85 429.602 1192.34 459.342 1160.67C493.892 1123.88 445.802 1042.43 442.142 1005.27V1005.28Z" stroke="black" stroke-width="18.34" stroke-linecap="round" stroke-linejoin="round"/>
<path d="M509.931 674.56C509.931 674.56 522.481 609.7 631.991 563.41C631.991 563.41 443.411 545.65 390.971 679.52C184.601 711.3 203.521 922.77 203.521 922.77C255.881 816.01 356.951 779.27 356.951 779.27C222.841 901.97 366.921 1015.6 366.921 1015.6C348.011 883.9 416.061 803.58 416.061 803.58C433.321 982.35 593.111 958.86 593.111 958.86C502.861 892.37 483.071 769.28 483.071 769.28C483.071 769.28 597.771 706.31 692.801 739.01C692.801 739.01 640.501 649.38 509.931 674.55V674.56Z" fill="#FFFF00" stroke="black" stroke-width="18.34" stroke-linecap="round" stroke-linejoin="round"/>
<path d="M426.509 697.55C410.429 701.93 255.619 746.37 227.349 839.43C226.539 842.09 229.799 844.13 231.839 842.26C255.599 820.53 335.749 751.38 383.999 760.7C386.059 761.1 386.999 763.5 385.689 765.13C370.219 784.34 295.719 882.39 334.689 943.29C336.029 945.38 339.269 944.77 339.729 942.32C345.249 913.21 371.089 794.43 427.889 777.37C429.409 776.91 431.009 777.93 431.329 779.49C435.319 799.1 461.099 912.51 526.549 932.01C529.019 932.75 531.089 929.96 529.629 927.83C513.089 903.54 452.699 810.24 463.789 758.58C463.919 757.97 464.229 757.45 464.699 757.05C471.279 751.44 523.249 709.33 596.939 711.71C600.249 711.82 600.959 707.12 597.749 706.32C567.689 698.86 523.489 691.22 493.389 700.67C491.659 701.21 489.909 700.08 489.809 698.28C489.049 684.39 488.349 632.86 516.729 603.55C518.889 601.32 516.359 597.79 513.589 599.18C488.939 611.53 448.049 639.59 428.329 695.83C428.029 696.67 427.369 697.32 426.509 697.55Z" fill="#FFE000"/>
</g>
</g>
<defs>
<clipPath id="clip0_356_236">
<rect width="2000" height="2000" fill="white"/>
</clipPath>
</defs>
</svg>
