<svg width="2000" height="2000" viewBox="0 0 2000 2000" fill="none" xmlns="http://www.w3.org/2000/svg">
<g clip-path="url(#clip0_425_23)">
<mask id="mask0_425_23" style="mask-type:luminance" maskUnits="userSpaceOnUse" x="0" y="0" width="2000" height="2000">
<path d="M2000 0H0V2000H2000V0Z" fill="white"/>
</mask>
<g mask="url(#mask0_425_23)">
<path d="M579.018 1411.07C509.088 1544.91 408.418 1428.53 398.768 1382.53C389.118 1336.52 310.718 1307.39 282.868 1307.39C255.018 1307.35 188.988 1274.22 220.058 1213.32C251.098 1152.42 213.128 1140.42 153.398 1090.53C112.418 1011.17 205.788 932.48 230.918 912.7C266.208 886.95 277.768 897 294.568 900.01C298.488 900.71 310.088 902.29 326.078 904.3C418.338 913.4 477.108 921.37 541.948 923.87C541.948 980.71 510.928 1092.15 452.018 1144.37C396.728 1184.68 344.278 1217.41 371.088 1252.82C422.478 1320.67 496.888 1367.79 579.558 1385.65C580.368 1392.51 578.128 1400.69 579.008 1411.08L579.018 1411.07Z" fill="#00FD00"/>
<g style="mix-blend-mode:multiply">
<path d="M533.56 968.7C355.05 1028.5 407.82 1065.37 308.56 1072.36C133.91 1084.66 423.35 1322.46 442.24 1384.51C461.13 1446.56 520.97 1459.16 538.28 1459.16C450.89 1481.99 419.48 1439.35 401.73 1392.18C383.98 1345.01 360.46 1306.78 282.87 1307.4C205.27 1308.01 203.45 1243.4 227.59 1197.77C243.07 1143.48 188.33 1152.38 144.06 1061.73C129.71 1024.61 178.34 948.95 217.43 923.88C256.52 898.82 227.13 890.15 326.09 904.31C425.06 918.47 550.43 914.4 541.96 945.09L533.56 968.71V968.7Z" fill="#00FD00"/>
</g>
<path d="M493.24 399.8C429.54 410.02 340.1 486.43 345.58 605.64C351.06 724.85 363.49 768.56 363.49 768.56C363.49 768.56 402.51 818.76 308.55 811.94C151.27 821.17 34.9896 909.28 61.0196 944.15C87.0496 979.03 145.51 1014.01 177.13 971.89C208.76 929.78 218.66 881.22 341.49 907.83C458.07 926.41 751.74 951.95 992.42 813.43C1184.05 716.82 1178.7 685.1 1178.7 666.62C1178.7 648.14 1139.23 610.63 959.7 664.2C835.04 713.35 835.09 727.87 801.26 678.55C767.43 629.24 707.93 521.62 762.71 489.9C812.14 475.12 788.22 416.6 719.91 402.61C651.6 388.62 621.13 345.88 493.22 399.8H493.24Z" fill="#FF04FB"/>
<g style="mix-blend-mode:multiply">
<path d="M157.411 877.67C101.791 873.56 45.3612 894.67 67.3312 952.82C87.1412 989.74 163.761 1005.93 182.311 964.73C200.861 923.53 262.501 899.61 247.831 891.54C233.161 883.47 157.411 877.67 157.411 877.67Z" fill="#FF04FB"/>
</g>
<g style="mix-blend-mode:multiply">
<path d="M549.919 381.68C448.919 415.81 258.529 728.521 568.829 796.151C568.829 796.151 292.409 859.191 401.969 916.031C401.969 916.031 183.069 881.55 157.409 877.66C131.749 873.77 110.259 865.181 188.489 836.701C266.719 808.22 332.809 808.22 345.249 806.92C357.689 805.62 377.929 814.97 361.439 758.43C344.949 701.89 315.639 541.59 401.089 459.5C486.539 377.41 549.919 381.68 549.919 381.68Z" fill="#FF04FB"/>
</g>
<path d="M378.616 836.701C330.736 631.271 300.966 453.651 533.296 386.061C627.176 358.751 693.186 382.121 779.216 435.821C799.036 448.191 795.956 478.371 773.796 485.741C715.576 505.101 682.966 556.911 635.316 524.251" stroke="black" stroke-width="18.34" stroke-linecap="round" stroke-linejoin="round"/>
<path d="M843.149 751.681C837.129 692.941 726.559 637.131 739.229 501.671" stroke="black" stroke-width="18.34" stroke-linecap="round" stroke-linejoin="round"/>
<path d="M835.058 713.361C1102.98 586.731 1288.72 631.311 1105.5 748.871C598.298 1074.29 207.138 837.381 100.088 882.801C33.1779 911.191 43.2679 979.941 155.918 989.741" stroke="black" stroke-width="18.34" stroke-linecap="round" stroke-linejoin="round"/>
<path d="M100.078 882.8C206.948 814.02 371.238 804.521 371.238 804.521" stroke="black" stroke-width="18.34" stroke-linecap="round" stroke-linejoin="round"/>
<path d="M452.027 804.521C600.207 800.551 704.117 774.961 762.727 745.621" stroke="black" stroke-width="18.34" stroke-linecap="round" stroke-linejoin="round"/>
<path d="M541.961 923.87C541.961 923.87 531.441 1075.1 430.711 1165.89" stroke="black" stroke-width="18.34" stroke-linecap="round" stroke-linejoin="round"/>
<path d="M266.81 895.01C180.84 921.88 72.9702 1076.66 207.86 1137.56C230.74 1147.89 239.75 1175.79 227.59 1197.76C198.83 1249.7 204.44 1299.71 319.28 1317.23C359.33 1323.34 391.78 1352.9 401.74 1392.17C424.03 1480.09 538.98 1527.16 584.46 1377.44" stroke="black" stroke-width="18.34" stroke-linecap="round" stroke-linejoin="round"/>
</g>
</g>
<defs>
<clipPath id="clip0_425_23">
<rect width="2000" height="2000" fill="white"/>
</clipPath>
</defs>
</svg>
