<svg width="2000" height="2000" viewBox="0 0 2000 2000" fill="none" xmlns="http://www.w3.org/2000/svg">
<g clip-path="url(#clip0_28_718)">
<mask id="mask0_28_718" style="mask-type:luminance" maskUnits="userSpaceOnUse" x="0" y="0" width="2000" height="2000">
<path d="M2000 0H0V2000H2000V0Z" fill="white"/>
</mask>
<g mask="url(#mask0_28_718)">
<path d="M922.639 1646.71C922.639 1646.71 912.039 1674.89 902.649 1700.42C894.649 1713.85 884.929 1723.46 874.139 1730.06C808.979 1769.9 705.119 1700.42 705.119 1700.42C705.119 1700.42 726.179 1649.83 732.449 1623.71C738.719 1597.63 742.909 1500.51 685.819 1468.15C663.109 1460.7 647.189 1452.34 636.699 1443.31C622.909 1431.42 618.539 1418.36 620.559 1404.82C622.759 1389.56 632.999 1373.64 646.829 1357.97C670.239 1350.89 692.579 1375.98 723.209 1408.86C744.529 1431.72 776.449 1452.28 808.919 1474.51C930.979 1520.3 928.779 1592.41 922.649 1646.71H922.639Z" fill="#A97400"/>
<path d="M723.2 1408.86C681.78 1408.2 647.26 1408.86 620.55 1404.82C622.75 1389.56 632.99 1373.64 646.82 1357.97C670.23 1350.89 692.57 1375.98 723.2 1408.86Z" fill="#703500"/>
<path d="M874.139 1730.06C808.979 1769.9 705.119 1700.42 705.119 1700.42C705.119 1700.42 726.179 1649.83 732.449 1623.71C738.719 1597.63 742.909 1500.51 685.819 1468.15C663.109 1460.7 647.189 1452.34 636.699 1443.31C692.579 1462.72 757.259 1504.43 759.049 1559.46C763.779 1640.43 752.299 1742.75 872.379 1730.2C872.969 1730.13 873.549 1730.09 874.139 1730.05V1730.06Z" fill="#703500"/>
<path d="M577.74 1715.39C577.7 1715.54 577.63 1715.65 577.59 1715.79C576.75 1718.76 575.87 1721.62 574.91 1724.48C574.18 1726.75 573.41 1728.99 572.6 1731.19C572.16 1732.14 571.72 1733.06 571.24 1733.98C559.65 1757.86 546.73 1776.68 532.79 1791.21C478.75 1847.64 410 1838.79 347.85 1808.6C281.52 1776.35 222.67 1719.78 197.21 1692.23C197.21 1692.23 197.14 1692.19 197.14 1692.16C193.95 1690.11 191.42 1687.76 189.51 1685.12C187.46 1682.33 186.1 1679.21 185.47 1675.87C185.21 1674.62 185.07 1673.38 185.03 1672.05C184.99 1671.87 184.99 1671.72 184.99 1671.54C184.59 1653.75 200.58 1629.83 227.25 1604.14C265.99 1566.9 327.3 1526.03 393.56 1495.18C439.35 1473.79 487.48 1457.24 532.13 1449.94H532.24C541.7 1452.95 550.03 1459 557.22 1467.44C557.4 1467.7 557.62 1467.92 557.84 1468.17C559.67 1470.41 561.47 1472.79 563.16 1475.36L563.2 1475.4C567.46 1481.82 571.27 1489.16 574.61 1497.3C577.18 1503.54 579.45 1510.25 581.47 1517.33V1517.4C597.43 1573.97 595.6 1654.21 577.73 1715.37L577.74 1715.39Z" fill="#FFA500"/>
<path d="M559.13 1464.19C558.76 1464.89 558.36 1465.55 557.96 1466.24C557.74 1466.64 557.48 1467.05 557.23 1467.45C549.82 1479.81 540.24 1492.14 529.24 1504.17C483.34 1554.4 413.05 1599.67 375.3 1621.79C375.12 1621.9 374.93 1622.01 374.71 1622.12C366.6 1626.89 355.08 1632.94 340.44 1639.58C340.18 1639.69 339.93 1639.8 339.71 1639.95C314.1 1651.47 279.14 1664.6 236.07 1675.28C232.58 1676.12 229.03 1676.97 225.43 1677.81C220.33 1679.02 215.08 1680.16 209.76 1681.26C204.07 1682.43 198.24 1683.53 192.3 1684.6C191.38 1684.78 190.47 1684.93 189.51 1685.11C187.46 1682.32 186.1 1679.2 185.47 1675.86C185.21 1674.61 185.07 1673.37 185.03 1672.04C184.52 1671.16 184.15 1670.17 183.89 1669.18C180.22 1655.46 196.88 1631.69 227.26 1604.13C266 1566.89 327.31 1526.02 393.57 1495.17C451.68 1466.48 502.94 1449.93 532.14 1449.93H532.25C542.41 1449.97 549.93 1452.02 554.12 1456.2C554.93 1457.01 555.62 1457.92 556.17 1458.88C556.5 1459.47 556.76 1460.02 557.01 1460.64C557.74 1461.78 558.48 1462.95 559.14 1464.16L559.13 1464.19Z" fill="#E26600"/>
<path d="M532.79 1791.22C478.75 1847.65 410 1838.8 347.85 1808.61C286.36 1784.69 229.06 1739.78 197.21 1692.24C197.21 1692.24 197.14 1692.2 197.14 1692.17C193.95 1690.12 191.42 1687.77 189.51 1685.13C187.46 1682.34 186.1 1679.22 185.47 1675.88C186.13 1676.03 186.83 1676.14 187.49 1676.21C187.93 1676.32 188.41 1676.39 188.85 1676.43C200.55 1678.19 212.73 1678.74 225.43 1677.82C234.97 1677.16 244.8 1675.69 254.96 1673.31C356.36 1767.85 456.37 1803.69 532.8 1791.23L532.79 1791.22Z" fill="#E26600"/>
<path d="M529.23 1504.18C483.33 1554.41 413.04 1599.68 375.29 1621.8C375.14 1621.87 375 1621.98 374.81 1622.09C374.74 1622.13 374.7 1622.13 374.7 1622.13C366.59 1626.9 355.07 1632.95 340.43 1639.59C340.17 1639.7 339.92 1639.81 339.7 1639.96C314.09 1651.48 279.13 1664.61 236.06 1675.29C273.22 1637.54 321.21 1600.78 372.17 1570.58C424.27 1539.65 479.45 1515.55 529.23 1504.18Z" fill="url(#paint0_linear_28_718)"/>
<path d="M568.269 1744.3C570.179 1737.15 572.269 1730.51 574.319 1724.6C580.519 1706.95 586.459 1695.8 586.459 1695.8C586.459 1695.8 681.039 1686 692.339 1626.02C703.639 1566 639.659 1509.72 582.389 1518.45C578.319 1514.01 574.429 1506.27 571.089 1498.09C564.999 1483.23 560.779 1466.98 560.779 1466.98C607.009 1467.16 698.689 1449.55 740.329 1544.83C754.449 1632.37 698.289 1748.23 568.259 1744.3H568.269Z" fill="#FFA500"/>
<path d="M574.32 1724.6C580.52 1706.95 586.46 1695.8 586.46 1695.8C586.46 1695.8 681.04 1686 692.34 1626.02C703.64 1566 639.66 1509.72 582.39 1518.45C578.32 1514.01 574.43 1506.27 571.09 1498.09C617.06 1486.97 688.16 1498.31 704.45 1550.26C723.82 1612.15 698.54 1699.95 574.32 1724.6Z" fill="#E26600"/>
<path d="M586.469 1695.8L586.429 1695.84C586.429 1695.88 586.429 1695.91 586.389 1695.95C586.239 1696.65 586.059 1697.31 585.879 1697.97C585.479 1699.62 584.999 1701.27 584.519 1702.89C583.929 1704.98 583.309 1707.07 582.649 1709.16C581.069 1714.19 579.349 1719.14 577.399 1723.98C577.399 1724.09 577.359 1724.16 577.289 1724.27C576.999 1725.15 576.629 1726.03 576.259 1726.91C573.869 1732.85 571.199 1738.65 568.299 1744.23C568.299 1744.27 568.259 1744.27 568.259 1744.3C558.979 1762.35 547.199 1778.35 532.779 1791.22C525.809 1797.57 518.219 1803.11 509.999 1807.84C463.189 1834.77 403.789 1830.4 347.839 1808.61C286.349 1784.69 229.049 1739.78 197.199 1692.24C197.199 1692.24 197.129 1692.2 197.129 1692.17C195.439 1689.68 193.829 1687.14 192.289 1684.61C191.449 1683.22 190.599 1681.78 189.799 1680.39C188.989 1679 188.189 1677.6 187.489 1676.21C187.049 1675.44 186.649 1674.67 186.279 1673.94C185.839 1673.13 185.439 1672.33 184.999 1671.56C184.629 1670.75 184.269 1669.98 183.899 1669.21C180.229 1655.49 196.889 1631.72 227.269 1604.16C256.069 1578.11 297.199 1548.65 345.069 1521.13C361.539 1511.66 377.829 1502.97 393.569 1495.19C451.679 1466.5 502.939 1449.95 532.139 1449.95H532.249C542.409 1449.99 549.929 1452.04 554.119 1456.22C555.069 1457.65 556.059 1459.16 557.019 1460.66C557.749 1461.8 558.489 1462.97 559.149 1464.18C559.739 1465.1 560.289 1466.01 560.799 1466.97C562.189 1469.36 563.519 1471.81 564.839 1474.34C565.539 1475.7 566.229 1477.05 566.889 1478.41C567.549 1479.73 568.169 1481.05 568.799 1482.41C569.419 1483.69 570.009 1485.01 570.599 1486.34C571.259 1487.81 571.919 1489.28 572.539 1490.74C572.909 1491.62 573.269 1492.5 573.639 1493.42C574.149 1494.67 574.629 1495.91 575.109 1497.2C575.509 1498.23 575.919 1499.25 576.319 1500.32C576.719 1501.35 577.089 1502.41 577.459 1503.48C578.049 1505.09 578.629 1506.67 579.189 1508.32C579.559 1509.42 579.919 1510.52 580.289 1511.62C580.879 1513.45 581.459 1515.33 582.049 1517.2C582.119 1517.6 582.269 1518.01 582.379 1518.41C598.559 1572.71 601.239 1638.82 586.489 1695.8H586.469Z" stroke="black" stroke-width="18.34" stroke-miterlimit="10"/>
<path d="M241.659 1639.82C269.799 1611.06 293.729 1590.57 362.319 1551.12" stroke="black" stroke-width="18.34" stroke-linecap="round" stroke-linejoin="round"/>
<path d="M499.659 1491.41C460.649 1501.28 430.909 1511.66 362.319 1551.12" stroke="black" stroke-width="18.34" stroke-linecap="round" stroke-linejoin="round"/>
<path d="M1047.23 1163.02C1264.73 1426.79 358.93 1360.47 529.23 1504.18C483.33 1554.41 413.04 1599.68 375.29 1621.8C375.11 1621.91 374.92 1622.02 374.7 1622.13C366.59 1626.9 355.07 1632.95 340.43 1639.59C340.17 1639.7 339.92 1639.81 339.7 1639.96C314.09 1651.48 279.13 1664.61 236.06 1675.29C345.06 1521.13 156.35 1620.66 271.52 1382.97C387.32 1143.99 522.54 941.88 522.54 941.88C522.54 941.88 965.16 1063.49 1047.23 1163.02Z" fill="url(#paint1_linear_28_718)"/>
<path d="M554.109 1456.22C554.919 1457.03 555.609 1457.94 556.159 1458.9C556.489 1459.49 556.749 1460.04 556.999 1460.66C557.659 1462.35 557.949 1464.22 557.949 1466.24C557.949 1466.86 557.909 1467.52 557.839 1468.18C554.679 1497.82 487.799 1557.44 396.269 1610.12C389.229 1614.16 382.219 1618.08 375.279 1621.79C375.099 1621.9 374.909 1622.01 374.689 1622.12C363.059 1628.39 351.609 1634.23 340.419 1639.58C340.159 1639.69 339.909 1639.8 339.689 1639.95C285.279 1666.03 237.699 1681.08 209.739 1681.26C198.399 1681.33 190.299 1678.95 186.259 1673.92C185.819 1673.41 185.449 1672.89 185.119 1672.31C185.079 1672.24 185.009 1672.16 185.009 1672.05C184.499 1671.17 184.129 1670.18 183.869 1669.19" stroke="black" stroke-width="18.34" stroke-miterlimit="10"/>
<path d="M728.13 1528.76C764.79 1592.49 734.61 1678.62 660.71 1721.13C630.96 1738.25 598.67 1745.67 568.28 1744.28C576.03 1729.34 582.05 1712.96 586.47 1695.79C603.47 1695.11 621.08 1690.18 637.48 1680.74C685.53 1653.1 705.13 1597.12 681.3 1555.7C662.47 1522.97 622.16 1509.14 582.38 1518.44C577.68 1502.56 571.79 1487.69 564.83 1474.35C629.5 1454.64 697.42 1475.37 728.13 1528.76Z" stroke="black" stroke-width="18.34" stroke-linecap="round" stroke-linejoin="round"/>
<path d="M919.109 1656.11C938.319 1578.59 889.93 1497.74 839.51 1482.32C731.45 1449.28 748.36 1416.43 690.81 1371.59C622.58 1318.44 574.36 1436.23 674.56 1463.25C674.56 1463.25 751.689 1491.86 757.159 1545.72C764.559 1618.5 811.49 1677.34 858.76 1648.74" stroke="black" stroke-width="18.34" stroke-linecap="round" stroke-linejoin="round"/>
<path d="M695.569 1692.16C747.619 1739.88 824.749 1764.31 885.759 1718.99" stroke="black" stroke-width="18.34" stroke-linecap="round" stroke-linejoin="round"/>
<path d="M714.58 1678.7C713.66 1700.6 690.29 1717.37 662.41 1716.19C634.53 1715.02 612.66 1696.31 613.58 1674.44C613.91 1666.63 617.14 1659.47 622.38 1653.53C631.81 1642.85 647.84 1636.18 665.75 1636.95C685.19 1637.76 701.74 1647.11 709.63 1660.14C713.04 1665.75 714.88 1672.1 714.58 1678.7Z" fill="#A97400"/>
<path d="M709.63 1660.14C678.52 1682.12 647.77 1674.26 622.39 1653.54C631.82 1642.86 647.85 1636.19 665.76 1636.96C685.2 1637.77 701.75 1647.12 709.64 1660.15L709.63 1660.14Z" fill="#703500"/>
<path d="M714.58 1678.7C713.66 1700.6 690.29 1717.37 662.41 1716.19C634.53 1715.02 612.66 1696.31 613.58 1674.44C613.91 1666.63 617.14 1659.47 622.38 1653.53C631.81 1642.85 647.84 1636.18 665.75 1636.95C685.19 1637.76 701.74 1647.11 709.63 1660.14C713.04 1665.75 714.88 1672.1 714.58 1678.7Z" stroke="black" stroke-width="18.34" stroke-miterlimit="10"/>
<path d="M720.229 1615.52C719.279 1637.42 695.939 1654.19 668.059 1653.02C640.179 1651.85 618.309 1633.17 619.229 1611.27C619.519 1603.97 622.349 1597.22 627.009 1591.5C636.289 1580.16 652.839 1573.01 671.399 1573.78C692.939 1574.7 710.879 1586.07 717.519 1601.26C719.459 1605.74 720.449 1610.54 720.229 1615.53V1615.52Z" fill="#A97400"/>
<path d="M717.519 1601.25C691.949 1616.59 655.299 1612.15 627.009 1591.49C636.289 1580.15 652.839 1573 671.399 1573.77C692.939 1574.69 710.879 1586.06 717.519 1601.25Z" fill="#703500"/>
<path d="M720.229 1615.52C719.279 1637.42 695.939 1654.19 668.059 1653.02C640.179 1651.85 618.309 1633.17 619.229 1611.27C619.519 1603.97 622.349 1597.22 627.009 1591.5C636.289 1580.16 652.839 1573.01 671.399 1573.78C692.939 1574.7 710.879 1586.07 717.519 1601.26C719.459 1605.74 720.449 1610.54 720.229 1615.53V1615.52Z" stroke="black" stroke-width="18.34" stroke-miterlimit="10"/>
<path d="M725.859 1552.39C726.784 1530.52 704.93 1511.82 677.048 1510.65C649.166 1509.47 625.814 1526.25 624.889 1548.13C623.964 1570.01 645.818 1588.7 673.7 1589.87C701.582 1591.05 724.934 1574.27 725.859 1552.39Z" fill="#A97400" stroke="black" stroke-width="18.34" stroke-miterlimit="10"/>
</g>
</g>
<defs>
<linearGradient id="paint0_linear_28_718" x1="236.06" y1="1589.73" x2="529.23" y2="1589.73" gradientUnits="userSpaceOnUse">
<stop stop-color="#FF00A6"/>
<stop offset="1" stop-color="#FF4200"/>
</linearGradient>
<linearGradient id="paint1_linear_28_718" x1="233.14" y1="1672.36" x2="895.2" y2="1010.3" gradientUnits="userSpaceOnUse">
<stop stop-color="white"/>
<stop offset="0.04" stop-color="white" stop-opacity="0.88"/>
<stop offset="0.1" stop-color="white" stop-opacity="0.7"/>
<stop offset="0.17" stop-color="white" stop-opacity="0.53"/>
<stop offset="0.24" stop-color="white" stop-opacity="0.39"/>
<stop offset="0.32" stop-color="white" stop-opacity="0.27"/>
<stop offset="0.4" stop-color="white" stop-opacity="0.17"/>
<stop offset="0.5" stop-color="white" stop-opacity="0.09"/>
<stop offset="0.61" stop-color="white" stop-opacity="0.04"/>
<stop offset="0.75" stop-color="white" stop-opacity="0"/>
<stop offset="1" stop-color="white" stop-opacity="0"/>
</linearGradient>
<clipPath id="clip0_28_718">
<rect width="2000" height="2000" fill="white"/>
</clipPath>
</defs>
</svg>
