<svg width="2000" height="2000" viewBox="0 0 2000 2000" fill="none" xmlns="http://www.w3.org/2000/svg">
<g clip-path="url(#clip0_1_367)">
<mask id="mask0_1_367" style="mask-type:luminance" maskUnits="userSpaceOnUse" x="0" y="0" width="2000" height="2000">
<path d="M2000 0H0V2000H2000V0Z" fill="white"/>
</mask>
<g mask="url(#mask0_1_367)">
<path d="M791.29 1390.36C790.18 1408.65 789.07 1426.93 787.97 1445.22C786.87 1463.51 785.83 1480.58 784.76 1498.26C784.17 1507.95 783.59 1517.63 783 1527.32C782.9 1529.85 783.43 1532.2 784.58 1534.39C785.32 1536.66 786.58 1538.63 788.37 1540.29C790.03 1542.08 792 1543.34 794.27 1544.08C796.46 1545.23 798.81 1545.76 801.34 1545.66C806.08 1545.45 811 1543.89 814.31 1540.29L817.18 1536.58C818.84 1533.72 819.67 1530.63 819.68 1527.32C820.73 1509.97 821.78 1492.62 822.83 1475.28C823.92 1457.34 825 1439.39 826.09 1421.45C826.72 1411.09 827.35 1400.73 827.97 1390.37C828.07 1387.84 827.54 1385.49 826.39 1383.3C825.65 1381.03 824.39 1379.06 822.6 1377.4C820.94 1375.61 818.97 1374.35 816.7 1373.61C814.51 1372.46 812.16 1371.93 809.63 1372.03C804.89 1372.24 799.97 1373.8 796.66 1377.4L793.79 1381.11C792.13 1383.97 791.3 1387.06 791.29 1390.37V1390.36Z" fill="white"/>
<path d="M934.561 1256.51C931.951 1278.5 929.331 1300.5 926.721 1322.49C924.111 1344.48 921.681 1364.87 919.161 1386.06C916.641 1407.25 914.291 1427.06 911.851 1447.57C909.411 1468.08 907.181 1486.86 904.841 1506.51C902.591 1525.42 900.341 1544.33 898.101 1563.24L897.281 1570.18C897.181 1572.71 897.711 1575.06 898.861 1577.25C899.601 1579.52 900.861 1581.49 902.651 1583.15C905.831 1586.33 911.051 1588.73 915.621 1588.52C920.191 1588.31 925.281 1586.75 928.591 1583.15L931.461 1579.44C933.121 1576.58 933.951 1573.49 933.961 1570.18C936.201 1551.36 938.431 1532.54 940.671 1513.73C942.991 1494.18 945.321 1474.62 947.641 1455.07C950.071 1434.66 952.491 1414.26 954.921 1393.85C957.431 1372.76 959.931 1351.67 962.441 1330.57C965.041 1308.68 967.641 1286.79 970.251 1264.89L971.251 1256.51C971.351 1253.98 970.821 1251.63 969.671 1249.44C968.931 1247.17 967.671 1245.2 965.881 1243.54C962.701 1240.36 957.481 1237.96 952.911 1238.17C948.341 1238.38 943.251 1239.94 939.941 1243.54L937.071 1247.25C935.411 1250.11 934.581 1253.2 934.571 1256.51H934.561Z" fill="white"/>
<path d="M388.961 1213.2C391.621 1236.43 394.271 1259.67 396.931 1282.9C399.471 1305.16 402.021 1327.41 404.561 1349.67C407.021 1371.18 409.481 1392.68 411.931 1414.19C414.281 1434.77 416.631 1455.36 418.991 1475.94C421.261 1495.82 423.531 1515.69 425.801 1535.57L426.631 1542.82C426.531 1545.35 427.061 1547.7 428.211 1549.89C428.951 1552.16 430.211 1554.13 432.001 1555.79C435.181 1558.97 440.401 1561.37 444.971 1561.16C449.541 1560.95 454.631 1559.39 457.941 1555.79C461.011 1552.44 463.851 1547.55 463.311 1542.82C461.051 1523.04 458.791 1503.27 456.531 1483.49C454.271 1463.71 451.851 1442.53 449.511 1422.04C447.061 1400.64 444.621 1379.24 442.171 1357.84C439.721 1336.44 437.111 1313.54 434.581 1291.4C431.941 1268.28 429.291 1245.15 426.651 1222.03L425.641 1213.21C425.741 1210.68 425.211 1208.33 424.061 1206.14C423.321 1203.87 422.061 1201.9 420.271 1200.24C417.091 1197.06 411.871 1194.66 407.301 1194.87C402.731 1195.08 397.641 1196.64 394.331 1200.24C391.261 1203.59 388.421 1208.48 388.961 1213.21V1213.2Z" fill="white"/>
<path d="M543.22 1509.15C544.06 1524.16 544.9 1539.17 545.74 1554.18C546.71 1571.5 547.68 1588.81 548.65 1606.13C549.62 1623.45 550.51 1639.36 551.44 1655.98C552.17 1669.06 552.9 1682.13 553.64 1695.21C554.01 1701.86 554.39 1708.51 554.76 1715.17L554.8 1715.85C555.07 1720.71 556.66 1725.31 560.17 1728.82C561.83 1730.61 563.8 1731.87 566.07 1732.61C568.26 1733.76 570.61 1734.29 573.14 1734.19C577.88 1733.98 582.8 1732.42 586.11 1728.82C589.42 1725.22 591.76 1720.71 591.48 1715.85C591.16 1710.21 590.85 1704.56 590.53 1698.92C589.83 1686.44 589.13 1673.96 588.43 1661.48C587.51 1645.14 586.6 1628.8 585.68 1612.46C584.71 1595.12 583.74 1577.78 582.77 1560.44C581.9 1544.95 581.04 1529.46 580.17 1513.97L579.9 1509.17C579.63 1504.31 578.04 1499.71 574.53 1496.2C572.87 1494.41 570.9 1493.15 568.63 1492.41C566.44 1491.26 564.09 1490.73 561.56 1490.83C556.82 1491.04 551.9 1492.6 548.59 1496.2C545.28 1499.8 542.94 1504.31 543.22 1509.17V1509.15Z" fill="white"/>
<path d="M664.091 1319.34C663.991 1365.1 663.881 1410.86 663.781 1456.62C663.681 1498.78 663.591 1540.94 663.491 1583.1C663.401 1622.05 663.311 1660.99 663.221 1699.94C663.141 1735.86 663.061 1771.77 662.971 1807.69C662.891 1840.76 662.821 1873.84 662.741 1906.91L662.711 1918.89C662.691 1928.49 671.161 1937.68 681.051 1937.23C691.011 1936.78 699.371 1929.17 699.391 1918.89C699.471 1886.02 699.541 1853.15 699.621 1820.28C699.701 1784.72 699.781 1749.16 699.861 1713.6C699.951 1675.04 700.041 1636.47 700.131 1597.91C700.231 1556.15 700.321 1514.4 700.421 1472.64C700.521 1427.51 700.631 1382.37 700.731 1337.24C700.741 1331.28 700.761 1325.31 700.771 1319.35C700.791 1309.75 692.321 1300.56 682.431 1301.01C672.471 1301.46 664.111 1309.07 664.091 1319.35V1319.34Z" fill="white"/>
</g>
</g>
<defs>
<clipPath id="clip0_1_367">
<rect width="2000" height="2000" fill="white"/>
</clipPath>
</defs>
</svg>
