<svg width="2000" height="2000" viewBox="0 0 2000 2000" fill="none" xmlns="http://www.w3.org/2000/svg">
<g clip-path="url(#clip0_1_341)">
<mask id="mask0_1_341" style="mask-type:luminance" maskUnits="userSpaceOnUse" x="0" y="0" width="2000" height="2000">
<path d="M2000 0H0V2000H2000V0Z" fill="white"/>
</mask>
<g mask="url(#mask0_1_341)">
<path d="M907.16 1629.1H753.06C730.88 1629.1 717.6 1653.76 729.81 1672.27L770.81 1734.47C783.15 1753.18 789.72 1775.11 789.72 1797.52V2297.67H870.52V1797.53C870.52 1775.12 877.09 1753.19 889.43 1734.48L930.43 1672.29C942.63 1653.77 929.35 1629.11 907.18 1629.11L907.16 1629.1Z" fill="#FFCB00"/>
<path d="M907.16 1629.1H753.06C730.88 1629.1 717.6 1653.76 729.81 1672.27L770.81 1734.47C783.15 1753.18 789.72 1775.11 789.72 1797.52V2297.67H870.52V1797.53C870.52 1775.12 877.09 1753.19 889.43 1734.48L930.43 1672.29C942.63 1653.77 929.35 1629.11 907.18 1629.11L907.16 1629.1Z" stroke="black" stroke-width="18.34" stroke-linecap="round" stroke-linejoin="round"/>
<path d="M727.71 1566.06C702.94 1582.19 628.89 1640.6 649.8 1726.28C674.93 1770.47 688.63 1760.78 711.4 1773.75C727.34 1781.13 747.43 1790.83 767.59 1774.34C793.39 1782.66 835.77 1787.89 830 1748.96C825.49 1711.29 788.17 1696.73 795.29 1674.98C783.96 1660.95 785.55 1643.83 826.75 1643.34C862.59 1641.57 903.46 1645.23 900.34 1677.32C897.22 1709.41 918 1770.09 945.67 1769C973.34 1767.92 999.77 1715.77 959.5 1666.34C946.92 1599.3 887.27 1512.66 727.71 1566.05V1566.06Z" fill="#A97400"/>
<path d="M796.02 1656.26C809.62 1629.67 886.31 1607.68 908.07 1647.78C895.71 1653.8 844.24 1625.78 796.02 1656.26Z" fill="#703500"/>
<path d="M900.33 1656.26C874.74 1642.17 837.39 1628.33 788.16 1652.37" stroke="black" stroke-width="18.34" stroke-linecap="round" stroke-linejoin="round"/>
<path d="M723.56 1687.4C732.08 1728.79 728.52 1757.65 704.9 1765.17C671.11 1775.94 607.37 1708.86 675.84 1610.82C730.44 1532.64 875.83 1512.51 950.7 1624.55C973.16 1658.17 954.28 1668.26 973.19 1699.13C998.34 1740.19 954.96 1797.73 914.71 1752.49C898.75 1734.55 891.13 1663.83 908.37 1627.67" stroke="black" stroke-width="18.34" stroke-linecap="round" stroke-linejoin="round"/>
<path d="M705.981 1645.31C701.901 1645.6 648.871 1710.68 673.891 1757.58C701.051 1777.93 694.031 1740.89 694.031 1740.89C694.031 1740.89 677.511 1679.71 705.981 1645.31Z" fill="#703500"/>
<path d="M723.56 1687.4C732.08 1728.79 728.52 1757.65 704.9 1765.17C671.11 1775.94 607.37 1708.86 675.84 1610.82C730.44 1532.64 875.83 1512.51 950.7 1624.55C973.16 1658.17 954.28 1668.26 973.19 1699.13C998.34 1740.19 954.96 1797.73 914.71 1752.49C898.75 1734.55 891.13 1663.83 908.37 1627.67" stroke="black" stroke-width="18.34" stroke-linecap="round" stroke-linejoin="round"/>
<path d="M769.791 1678.61C781.471 1722.53 770.341 1771.79 745.031 1783.45C721.071 1794.48 696.691 1765.58 690.051 1723.41C684.021 1685.07 698.031 1653.69 714.001 1634.07" fill="#A97400"/>
<path d="M769.791 1678.61C781.471 1722.53 770.341 1771.79 745.031 1783.45C721.071 1794.48 696.691 1765.58 690.051 1723.41C684.021 1685.07 698.031 1653.69 714.001 1634.07" stroke="black" stroke-width="18.34" stroke-linecap="round" stroke-linejoin="round"/>
<path d="M752.421 1629.11C728.141 1638.74 701.421 1677.47 718.851 1736.73C737.051 1789.02 767.581 1774.35 767.581 1774.35C767.581 1774.35 696.141 1720.18 752.421 1629.11Z" fill="#703500"/>
<path d="M769.791 1678.61C781.471 1722.53 770.341 1771.79 745.031 1783.45C721.071 1794.48 696.691 1765.58 690.051 1723.41C684.021 1685.07 698.031 1653.69 714.001 1634.07" stroke="black" stroke-width="18.34" stroke-linecap="round" stroke-linejoin="round"/>
<path d="M810.311 1623.15C776.661 1667.5 794.811 1698.62 808.211 1712.96C818.571 1724.05 824.731 1738.61 824.831 1753.79C824.931 1767.62 820.181 1781.05 801.981 1782.57C769.841 1785.26 742.251 1762.09 732.851 1717.26C724.361 1676.77 739.121 1635.89 760.891 1621.95" fill="#A97400"/>
<path d="M810.311 1623.15C776.661 1667.5 794.811 1698.62 808.211 1712.96C818.571 1724.05 824.731 1738.61 824.831 1753.79C824.931 1767.62 820.181 1781.05 801.981 1782.57C769.841 1785.26 742.251 1762.09 732.851 1717.26C724.361 1676.77 739.121 1635.89 760.891 1621.95" stroke="black" stroke-width="18.34" stroke-linecap="round" stroke-linejoin="round"/>
<path d="M844.24 1845.44V1955.56" stroke="black" stroke-width="18.34" stroke-linecap="round" stroke-linejoin="round"/>
<path d="M618.689 1722.84C621.349 1776.24 667.209 1801.73 667.209 1801.73" stroke="black" stroke-width="18.34" stroke-linecap="round" stroke-linejoin="round"/>
<path d="M982.92 1616.52C977.6 1599.99 965.4 1583.02 965.4 1583.02" stroke="black" stroke-width="18.34" stroke-linecap="round" stroke-linejoin="round"/>
<path d="M900.33 1943.09V2053.21" stroke="black" stroke-width="18.34" stroke-linecap="round" stroke-linejoin="round"/>
<path d="M762.43 1805.4V1860.46" stroke="black" stroke-width="18.34" stroke-linecap="round" stroke-linejoin="round"/>
</g>
</g>
<defs>
<clipPath id="clip0_1_341">
<rect width="2000" height="2000" fill="white"/>
</clipPath>
</defs>
</svg>
