<svg width="2000" height="2000" viewBox="0 0 2000 2000" fill="none" xmlns="http://www.w3.org/2000/svg">
<g clip-path="url(#clip0_28_877)">
<mask id="mask0_28_877" style="mask-type:luminance" maskUnits="userSpaceOnUse" x="0" y="0" width="2000" height="2000">
<path d="M2000 0H0V2000H2000V0Z" fill="white"/>
</mask>
<g mask="url(#mask0_28_877)">
<path d="M931.3 1659.3C869.4 1777.3 799.3 1709.8 799.3 1709.8L931.3 1659.3Z" fill="#A97400"/>
<path d="M931.3 1659.3C869.4 1777.3 799.3 1709.8 799.3 1709.8" stroke="black" stroke-width="18.34" stroke-linecap="round" stroke-linejoin="round"/>
<path d="M952.399 1364.1L1025 1553.6C1035.3 1580.7 1000.5 1619.5 942.599 1652.9C884.699 1686.3 833.699 1697.1 815.399 1674.6L687.499 1517L952.399 1364.1Z" fill="#331DD1" stroke="black" stroke-width="18.34" stroke-miterlimit="10" stroke-linecap="round" stroke-linejoin="round"/>
<path d="M952.399 1364.1L960.999 1384.3C938.499 1408.8 886.999 1462.9 761.599 1514.1L875.799 1682C847.799 1689.5 825.999 1687.8 815.199 1674.6L687.399 1517L952.399 1364.1Z" fill="#331DD1"/>
<path d="M952.399 1364.1L1025 1553.6C1035.3 1580.7 1000.5 1619.5 942.599 1652.9C884.699 1686.3 833.699 1697.1 815.399 1674.6L687.499 1517L952.399 1364.1Z" stroke="black" stroke-width="18.34" stroke-miterlimit="10" stroke-linecap="round" stroke-linejoin="round"/>
<path d="M610 1448.2L653.7 1510.1C666.1 1531.5 745.4 1508.9 830.8 1459.6C916.3 1410.3 975.5 1352.9 963.1 1331.5L931.4 1262.7L610 1448.2Z" fill="#331DD1" stroke="black" stroke-width="18.34" stroke-miterlimit="10" stroke-linecap="round" stroke-linejoin="round"/>
<path d="M715.2 1511.2C683 1520.4 660 1520.8 653.7 1510L610 1448.2L656.9 1421.1L715.2 1511.2Z" fill="#331DD1"/>
<path d="M610 1448.2L653.7 1510.1C666.1 1531.5 745.4 1508.9 830.8 1459.6C916.3 1410.3 975.5 1352.9 963.1 1331.5L931.4 1262.7L610 1448.2Z" stroke="black" stroke-width="18.34" stroke-linecap="round" stroke-linejoin="round"/>
<path d="M793.104 1394.17C881.872 1342.92 943.805 1284 931.433 1262.58C919.062 1241.15 837.072 1265.33 748.304 1316.58C659.535 1367.83 597.603 1426.75 609.974 1448.18C622.345 1469.6 704.335 1445.43 793.104 1394.17Z" fill="#331DD1" stroke="black" stroke-width="18.34" stroke-miterlimit="10" stroke-linecap="round" stroke-linejoin="round"/>
<path d="M914 1303C890.4 1329.6 846.7 1363.2 793.1 1394.2C739.6 1425.1 688.5 1446.2 653.7 1453.3C677.3 1426.7 721.1 1393 774.6 1362.1C828.2 1331.2 879.2 1310.1 914 1303Z" fill="#FF4CFF"/>
<path d="M793.104 1394.17C881.872 1342.92 943.805 1284 931.433 1262.58C919.062 1241.15 837.072 1265.33 748.304 1316.58C659.535 1367.83 597.603 1426.75 609.974 1448.18C622.345 1469.6 704.335 1445.43 793.104 1394.17Z" stroke="black" stroke-width="18.34" stroke-miterlimit="10" stroke-linecap="round" stroke-linejoin="round"/>
<path d="M790.246 1610.96C815.044 1586.16 822.895 1553.8 807.782 1538.69C792.669 1523.58 760.314 1531.43 735.516 1556.23C710.718 1581.03 702.867 1613.38 717.98 1628.49C733.093 1643.61 765.448 1635.76 790.246 1610.96Z" fill="#A97400" stroke="black" stroke-width="18.34" stroke-linecap="round" stroke-linejoin="round"/>
<path d="M830.962 1651.61C855.76 1626.81 863.612 1594.46 848.499 1579.35C833.385 1564.23 801.031 1572.09 776.233 1596.88C751.435 1621.68 743.584 1654.04 758.697 1669.15C773.81 1684.26 806.164 1676.41 830.962 1651.61Z" fill="#A97400" stroke="black" stroke-width="18.34" stroke-linecap="round" stroke-linejoin="round"/>
<path d="M865.1 1698.7C886.4 1677.4 891.4 1648 876.3 1632.9C861.2 1617.8 831.7 1622.8 810.5 1644.1C789.2 1665.4 784.2 1694.8 799.3 1709.9" fill="#A97400"/>
<path d="M865.1 1698.7C886.4 1677.4 891.4 1648 876.3 1632.9C861.2 1617.8 831.7 1622.8 810.5 1644.1C789.2 1665.4 784.2 1694.8 799.3 1709.9" stroke="black" stroke-width="18.34" stroke-linecap="round" stroke-linejoin="round"/>
<path d="M892.2 1711.3C843.2 1752.1 799.3 1709.8 799.3 1709.8L892.2 1711.3Z" fill="#A97400"/>
<path d="M892.2 1711.3C843.2 1752.1 799.3 1709.8 799.3 1709.8" stroke="black" stroke-width="18.34" stroke-linecap="round" stroke-linejoin="round"/>
<path d="M1034.2 1478.2C1032.5 1480 1008.6 1507 1018.8 1537.4L998.1 1483.4C986.1 1479.7 973.2 1471.9 961.9 1460.6C937.1 1435.8 929.2 1403.4 944.3 1388.3C959.4 1373.2 991.8 1381.1 1016.5 1405.9C1041.4 1430.7 1049.2 1463.1 1034.2 1478.2Z" fill="#A97400" stroke="black" stroke-width="18.34" stroke-linecap="round" stroke-linejoin="round"/>
<path d="M944.3 1388.3C929.2 1403.4 937.1 1435.7 961.9 1460.6C975.7 1474.4 991.9 1483 1006.2 1485.3" fill="#A97400"/>
<path d="M944.3 1388.3C929.2 1403.4 937.1 1435.7 961.9 1460.6C975.7 1474.4 991.9 1483 1006.2 1485.3" stroke="black" stroke-width="18.34" stroke-linecap="round" stroke-linejoin="round"/>
</g>
</g>
<defs>
<clipPath id="clip0_28_877">
<rect width="2000" height="2000" fill="white"/>
</clipPath>
</defs>
</svg>
