<svg width="2000" height="2000" viewBox="0 0 2000 2000" fill="none" xmlns="http://www.w3.org/2000/svg">
<g clip-path="url(#clip0_655_14)">
<mask id="mask0_655_14" style="mask-type:luminance" maskUnits="userSpaceOnUse" x="0" y="0" width="2000" height="2000">
<path d="M2000 0H0V2000H2000V0Z" fill="white"/>
</mask>
<g mask="url(#mask0_655_14)">
<path d="M868.318 1617.83C855.368 1620.57 841.848 1619.15 829.758 1613.74C689.778 1551.17 633.978 1560.54 569.788 1561.51C502.868 1562.52 446.078 1494.59 548.498 1472.28C650.908 1449.97 764.478 1556.19 773.608 1547.19C739.128 1481.4 648.888 1440.84 581.958 1386.09C515.038 1331.33 557.618 1245.14 662.068 1307C766.508 1368.85 808.088 1526.02 830.388 1530.08C848.638 1519.94 859.118 1407.02 859.798 1368.85C861.828 1254.27 950.048 1228.92 941.928 1343.5C933.818 1458.08 871.398 1530.85 889.198 1540.97C907.008 1551.09 940.488 1420.5 995.668 1490.53C1041.77 1549.04 954.618 1518.8 917.788 1568.82C902.968 1588.95 893.678 1612.47 869.228 1617.63L868.318 1617.82V1617.83ZM527.728 1438.18C480.018 1398.54 396.938 1380.35 404.098 1416.02C409.688 1443.81 482.768 1417.51 527.728 1438.18ZM1096.31 1304.13C1075.73 1250.48 980.238 1344.96 950.098 1438.18C992.618 1372.61 1112.35 1345.93 1096.31 1304.13ZM796.528 1641.01C752.588 1604.35 654.458 1615.1 648.438 1664.19C643.738 1702.44 748.038 1630.95 796.528 1641.01Z" fill="url(#paint0_linear_655_14)" stroke="black" stroke-width="18.34" stroke-linecap="round" stroke-linejoin="round"/>
<path d="M803.977 1571.49C817.927 1539.5 857.907 1585.97 881.447 1567.63" stroke="black" stroke-width="18.34" stroke-linecap="round" stroke-linejoin="round"/>
</g>
</g>
<defs>
<linearGradient id="paint0_linear_655_14" x1="905" y1="1269" x2="877.5" y2="1676" gradientUnits="userSpaceOnUse">
<stop stop-color="#FFD13D"/>
<stop offset="1" stop-color="#FF2C10"/>
</linearGradient>
<clipPath id="clip0_655_14">
<rect width="2000" height="2000" fill="white"/>
</clipPath>
</defs>
</svg>
