<svg width="2000" height="2000" viewBox="0 0 2000 2000" fill="none" xmlns="http://www.w3.org/2000/svg">
<g clip-path="url(#clip0_258_388)">
<mask id="mask0_258_388" style="mask-type:luminance" maskUnits="userSpaceOnUse" x="0" y="0" width="2000" height="2000">
<path d="M2000 0H0V2000H2000V0Z" fill="white"/>
</mask>
<g mask="url(#mask0_258_388)">
<path d="M970.4 1096.3C977.1 1114.1 933.4 1111.5 876.4 1134.8C801.6 1165.5 732.3 1227.8 721.3 1198.4C710.3 1169 784.3 1119 861.4 1094.6C920.1 1076.2 963.7 1078.5 970.4 1096.3Z" fill="#FF0085" stroke="black" stroke-width="18.34" stroke-linecap="round" stroke-linejoin="round"/>
<path d="M1010.8 877.599L965.999 949.699C951.599 924.199 936.799 902.799 931.699 884.099C930.599 880.099 929.599 876.299 928.699 872.599L962.499 754.199L991.899 823.599L1010.8 877.599Z" fill="#FF0085"/>
<path d="M1010.8 877.599L965.999 949.699C951.599 924.199 936.799 902.799 931.699 884.099C930.599 880.099 929.599 876.299 928.699 872.599L962.499 754.199L991.899 823.599L1010.8 877.599Z" fill="#FF0085"/>
<path d="M1010.8 877.599L965.999 949.699C951.599 924.199 936.799 902.799 931.699 884.099C930.599 880.099 929.599 876.299 928.699 872.599L962.499 754.199L991.899 823.599L1010.8 877.599Z" stroke="black" stroke-width="18.34" stroke-linecap="round" stroke-linejoin="round"/>
<path d="M446.1 874.4L378.4 1111.6L350.1 1230.2L497.7 1000L506.5 916.1L446.1 874.4Z" fill="#FF0085"/>
<path d="M446.1 874.4L378.4 1111.6L350.1 1230.2L497.7 1000L506.5 916.1L446.1 874.4Z" fill="#FF0085"/>
<path d="M446.1 874.4L378.4 1111.6L350.1 1230.2L497.7 1000L506.5 916.1L446.1 874.4Z" stroke="black" stroke-width="18.34" stroke-linecap="round" stroke-linejoin="round"/>
<path d="M976.099 901.7L553.299 1009.4C543.399 1011.9 533.199 1012 523.299 1010C495.899 1004.5 470.299 983.2 458.799 953.5L448.899 927.8C432.499 885.1 451.099 841.6 490.099 831.8L581.799 808.8L912.899 725.7C948.899 716.7 989.499 740.1 1005.8 779.2L1016 803.7C1033.8 846.7 1015.6 891.6 976.099 901.7Z" fill="#FF0085"/>
<path d="M523.199 1010C495.799 1004.5 470.199 983.199 458.699 953.499L448.799 927.799C432.399 885.099 450.999 841.599 489.999 831.799L581.699 808.799C536.499 871.599 515.499 946.299 523.199 1010Z" fill="#FF0085"/>
<path d="M976.099 901.7L553.299 1009.4C516.299 1018.8 474.399 994.1 458.799 953.5L448.899 927.8C432.399 885.1 451.099 841.6 490.099 831.8L912.899 725.7C948.899 716.7 989.499 740.1 1005.8 779.2L1016 803.7C1033.8 846.7 1015.6 891.6 976.099 901.7Z" stroke="black" stroke-width="18.34" stroke-linecap="round" stroke-linejoin="round"/>
<path d="M951.999 798.199C943.699 800.299 940.399 806.599 939.399 813.099C939.099 812.199 938.799 811.599 938.599 810.999C936.799 807.099 932.599 804.799 927.799 805.999C922.299 807.399 918.899 813.499 919.199 820.399C918.999 821.699 918.599 822.999 917.899 824.199C916.899 816.799 914.599 809.199 911.099 801.999C900.999 780.699 883.099 766.799 861.599 772.099C834.099 778.899 828.199 810.999 841.299 838.499C841.999 839.899 842.699 841.199 843.399 842.499C842.599 844.099 841.399 845.499 839.699 845.999C838.499 846.299 837.499 845.799 836.599 843.999C835.899 842.599 835.399 840.399 834.399 838.499C831.999 833.399 826.399 830.099 820.399 831.599C816.199 832.699 812.799 835.299 810.499 838.899C813.799 824.299 810.599 807.899 805.099 796.499C798.699 783.099 789.699 777.699 781.299 779.799C758.999 785.299 772.499 833.699 783.699 858.699C782.599 863.599 780.499 868.799 772.899 870.699C768.499 871.799 765.099 869.399 763.499 866.099C761.799 862.599 763.199 859.999 764.699 859.599C765.399 859.399 766.299 859.499 767.099 861.199C767.599 862.199 767.299 862.899 767.899 864.199C768.899 866.299 771.299 866.799 773.899 866.099C779.499 864.699 781.599 859.399 779.099 854.299C775.999 847.799 768.299 843.999 758.999 846.299C748.799 848.799 743.399 856.699 742.999 865.899C737.999 858.199 730.399 853.399 721.499 855.699C713.099 857.799 709.899 864.199 708.799 870.599C708.499 869.699 708.199 868.999 707.999 868.499C706.199 864.599 701.999 862.299 697.099 863.499C691.599 864.899 688.199 871.099 688.499 877.999C688.299 879.299 687.899 880.599 687.199 881.799C686.199 874.399 683.899 866.699 680.399 859.499C670.199 838.199 652.299 824.199 630.699 829.599C602.999 836.499 597.199 868.599 610.299 896.199C610.999 897.599 611.699 898.899 612.399 900.199C611.599 901.799 610.399 903.299 608.699 903.699C607.499 903.999 606.399 903.499 605.599 901.699C604.899 900.299 604.399 898.099 603.399 896.199C600.899 891.099 595.399 887.799 589.299 889.299C584.999 890.399 581.699 893.099 579.399 896.599C582.699 881.999 579.499 865.599 573.999 854.099C567.599 840.699 558.499 835.299 550.099 837.399C527.699 842.999 541.299 891.399 552.499 916.499C551.399 921.399 549.299 926.599 541.699 928.499C537.299 929.599 533.799 927.199 532.199 923.899C530.499 920.399 531.899 917.799 533.399 917.399C534.099 917.199 535.099 917.299 535.899 918.999C536.399 919.999 536.099 920.699 536.699 921.999C537.699 924.099 540.099 924.599 542.699 923.899C548.399 922.499 550.399 917.199 547.999 911.999C544.899 905.499 537.199 901.699 527.799 903.999C512.499 907.799 507.999 923.499 514.699 937.699C520.099 949.099 531.799 956.999 545.599 953.599C555.899 950.999 561.499 943.999 563.799 935.899C569.899 943.199 576.399 945.899 583.699 944.099C590.499 942.399 592.399 938.199 589.899 932.799C584.699 921.899 585.099 915.099 586.799 914.699C587.199 914.599 587.799 914.799 588.099 915.499C588.899 917.199 588.599 919.999 591.599 926.299C595.599 934.599 604.399 939.099 613.399 936.799C623.099 934.399 626.099 925.699 626.199 916.799C636.999 925.399 649.999 928.099 662.399 924.999C675.999 921.599 683.599 912.599 686.399 901.199C687.999 900.699 689.399 899.999 690.199 899.699C691.499 899.099 692.699 898.299 693.699 897.399C697.299 907.599 702.099 918.799 705.499 925.899C711.699 938.899 719.499 942.199 727.199 940.299C736.099 938.099 741.099 931.699 738.399 926.099C737.699 924.599 732.099 919.599 725.299 905.499C728.199 906.299 731.599 906.399 734.899 905.599C744.299 903.299 748.999 894.799 748.899 884.899C754.999 893.599 765.199 898.899 776.899 895.999C787.199 893.399 792.699 886.499 794.999 878.299C801.099 885.599 807.499 888.299 814.799 886.499C821.499 884.799 823.499 880.599 820.899 875.199C815.699 864.299 816.099 857.499 817.799 857.099C818.199 856.999 818.799 857.199 819.099 857.899C819.899 859.599 819.599 862.399 822.499 868.599C826.499 876.899 835.199 881.399 844.199 879.099C853.899 876.699 856.799 868.099 856.999 859.199C867.799 867.799 880.699 870.499 893.099 867.399C906.599 863.999 914.199 854.999 916.999 843.699C918.499 843.199 919.999 842.499 920.699 842.199C921.999 841.599 923.199 840.799 924.199 839.899C927.799 849.999 932.599 861.299 935.999 868.299C942.199 881.299 949.899 884.599 957.499 882.699C966.399 880.499 971.299 874.199 968.599 868.499C967.899 866.999 962.299 861.999 955.599 847.999C958.399 848.799 961.799 848.899 965.099 848.099C978.999 844.599 982.599 827.699 975.499 812.799C970.899 802.499 962.299 795.699 951.999 798.199ZM566.099 893.499C563.099 886.199 560.299 877.899 559.699 872.299C559.099 868.599 559.699 866.899 560.699 866.599C561.899 866.299 563.199 867.499 564.099 869.499C566.599 874.799 567.299 886.299 566.099 893.499ZM653.099 892.699C647.599 894.099 641.399 890.399 636.499 880.299C629.899 866.499 631.399 851.699 639.999 849.499C645.099 848.199 650.699 851.899 655.699 862.499C662.699 876.999 661.799 890.499 653.099 892.699ZM722.699 881.699C721.199 882.099 718.999 881.699 717.199 880.599C716.699 875.599 717.999 871.899 720.799 871.199C722.899 870.699 724.599 872.099 725.499 873.899C727.099 877.199 725.599 880.999 722.699 881.699ZM797.099 835.899C794.099 828.599 791.299 820.299 790.699 814.799C790.199 811.099 790.699 809.399 791.699 809.099C792.899 808.799 794.099 809.999 795.099 811.999C797.599 817.199 798.299 828.799 797.099 835.899ZM883.699 835.199C878.199 836.599 871.999 832.899 867.199 822.799C860.599 808.999 862.199 794.199 870.599 792.099C875.699 790.799 881.299 794.499 886.299 804.999C893.199 819.499 892.299 832.999 883.699 835.199ZM952.999 824.199C951.499 824.599 949.299 824.199 947.599 823.099C947.099 818.099 948.399 814.399 951.199 813.699C953.199 813.199 954.999 814.599 955.899 816.399C957.399 819.699 955.799 823.499 952.999 824.199Z" fill="white"/>
</g>
</g>
<defs>
<clipPath id="clip0_258_388">
<rect width="2000" height="2000" fill="white"/>
</clipPath>
</defs>
</svg>
