<svg width="2000" height="2000" viewBox="0 0 2000 2000" fill="none" xmlns="http://www.w3.org/2000/svg">
<mask id="mask0_595_443" style="mask-type:luminance" maskUnits="userSpaceOnUse" x="0" y="0" width="2000" height="2000">
<path d="M2000 0H0V2000H2000V0Z" fill="white"/>
</mask>
<g mask="url(#mask0_595_443)">
<path d="M970.402 1096.3C977.102 1114.1 933.402 1111.5 876.402 1134.8C801.602 1165.5 732.302 1227.8 721.302 1198.4C710.302 1169 784.302 1119 861.402 1094.6C920.102 1076.2 963.702 1078.5 970.402 1096.3Z" fill="#311DCB" stroke="black" stroke-width="18.34" stroke-linecap="round" stroke-linejoin="round"/>
<path d="M1010.8 877.599L966.003 949.699C951.603 924.199 936.803 902.799 931.703 884.099C930.603 880.099 929.603 876.299 928.703 872.599L962.503 754.199L991.903 823.599L1010.8 877.599Z" fill="#311DCB"/>
<path d="M1010.8 877.599L966.003 949.699C951.603 924.199 936.803 902.799 931.703 884.099C930.603 880.099 929.603 876.299 928.703 872.599L962.503 754.199L991.903 823.599L1010.8 877.599Z" fill="#311DCB"/>
<path d="M1010.8 877.599L966.003 949.699C951.603 924.199 936.803 902.799 931.703 884.099C930.603 880.099 929.603 876.299 928.703 872.599L962.503 754.199L991.903 823.599L1010.8 877.599Z" stroke="black" stroke-width="18.34" stroke-linecap="round" stroke-linejoin="round"/>
<path d="M446.102 874.4L378.402 1111.6L350.102 1230.2L497.702 1000L506.502 916.1L446.102 874.4Z" fill="#311DCB"/>
<path d="M446.102 874.4L378.402 1111.6L350.102 1230.2L497.702 1000L506.502 916.1L446.102 874.4Z" fill="#311DCB"/>
<path d="M446.102 874.4L378.402 1111.6L350.102 1230.2L497.702 1000L506.502 916.1L446.102 874.4Z" stroke="black" stroke-width="18.34" stroke-linecap="round" stroke-linejoin="round"/>
<path d="M976.104 901.7L553.304 1009.4C543.404 1011.9 533.204 1012 523.304 1010C495.904 1004.5 470.304 983.2 458.804 953.5L448.904 927.8C432.504 885.1 451.104 841.6 490.104 831.8L581.804 808.8L912.904 725.7C948.904 716.7 989.504 740.1 1005.8 779.2L1016 803.7C1033.8 846.7 1015.6 891.6 976.104 901.7Z" fill="#311DCB"/>
<path d="M523.202 1010C495.802 1004.5 470.202 983.199 458.702 953.499L448.802 927.799C432.402 885.099 451.002 841.599 490.002 831.799L581.702 808.799C536.502 871.599 515.502 946.299 523.202 1010Z" fill="#311DCB"/>
<path d="M976.103 901.7L553.303 1009.4C516.303 1018.8 474.403 994.1 458.803 953.5L448.903 927.8C432.403 885.1 451.103 841.6 490.103 831.8L912.903 725.7C948.903 716.7 989.503 740.1 1005.8 779.2L1016 803.7C1033.8 846.7 1015.6 891.6 976.103 901.7Z" stroke="black" stroke-width="18.34" stroke-linecap="round" stroke-linejoin="round"/>
<path d="M952 798.199C943.7 800.299 940.4 806.599 939.4 813.099C939.1 812.199 938.8 811.599 938.6 810.999C936.8 807.099 932.6 804.799 927.8 805.999C922.3 807.399 918.9 813.499 919.2 820.399C919 821.699 918.6 822.999 917.9 824.199C916.9 816.799 914.6 809.199 911.1 801.999C901 780.699 883.1 766.799 861.6 772.099C834.1 778.899 828.2 810.999 841.3 838.499C842 839.899 842.7 841.199 843.4 842.499C842.6 844.099 841.4 845.499 839.7 845.999C838.5 846.299 837.5 845.799 836.6 843.999C835.9 842.599 835.4 840.399 834.4 838.499C832 833.399 826.4 830.099 820.4 831.599C816.2 832.699 812.8 835.299 810.5 838.899C813.8 824.299 810.6 807.899 805.1 796.499C798.7 783.099 789.7 777.699 781.3 779.799C759 785.299 772.5 833.699 783.7 858.699C782.6 863.599 780.5 868.799 772.9 870.699C768.5 871.799 765.1 869.399 763.5 866.099C761.8 862.599 763.2 859.999 764.7 859.599C765.4 859.399 766.3 859.499 767.1 861.199C767.6 862.199 767.3 862.899 767.9 864.199C768.9 866.299 771.3 866.799 773.9 866.099C779.5 864.699 781.6 859.399 779.1 854.299C776 847.799 768.3 843.999 759 846.299C748.8 848.799 743.4 856.699 743 865.899C738 858.199 730.4 853.399 721.5 855.699C713.1 857.799 709.9 864.199 708.8 870.599C708.5 869.699 708.2 868.999 708 868.499C706.2 864.599 702 862.299 697.1 863.499C691.6 864.899 688.2 871.099 688.5 877.999C688.3 879.299 687.9 880.599 687.2 881.799C686.2 874.399 683.9 866.699 680.4 859.499C670.2 838.199 652.3 824.199 630.7 829.599C603 836.499 597.2 868.599 610.3 896.199C611 897.599 611.7 898.899 612.4 900.199C611.6 901.799 610.4 903.299 608.7 903.699C607.5 903.999 606.4 903.499 605.6 901.699C604.9 900.299 604.4 898.099 603.4 896.199C600.9 891.099 595.4 887.799 589.3 889.299C585 890.399 581.7 893.099 579.4 896.599C582.7 881.999 579.5 865.599 574 854.099C567.6 840.699 558.5 835.299 550.1 837.399C527.7 842.999 541.3 891.399 552.5 916.499C551.4 921.399 549.3 926.599 541.7 928.499C537.3 929.599 533.8 927.199 532.2 923.899C530.5 920.399 531.9 917.799 533.4 917.399C534.1 917.199 535.1 917.299 535.9 918.999C536.4 919.999 536.1 920.699 536.7 921.999C537.7 924.099 540.1 924.599 542.7 923.899C548.4 922.499 550.4 917.199 548 911.999C544.9 905.499 537.2 901.699 527.8 903.999C512.5 907.799 508 923.499 514.7 937.699C520.1 949.099 531.8 956.999 545.6 953.599C555.9 950.999 561.5 943.999 563.8 935.899C569.9 943.199 576.4 945.899 583.7 944.099C590.5 942.399 592.4 938.199 589.9 932.799C584.7 921.899 585.1 915.099 586.8 914.699C587.2 914.599 587.8 914.799 588.1 915.499C588.9 917.199 588.6 919.999 591.6 926.299C595.6 934.599 604.4 939.099 613.4 936.799C623.1 934.399 626.1 925.699 626.2 916.799C637 925.399 650 928.099 662.4 924.999C676 921.599 683.6 912.599 686.4 901.199C688 900.699 689.4 899.999 690.2 899.699C691.5 899.099 692.7 898.299 693.7 897.399C697.3 907.599 702.1 918.799 705.5 925.899C711.7 938.899 719.5 942.199 727.2 940.299C736.1 938.099 741.1 931.699 738.4 926.099C737.7 924.599 732.1 919.599 725.3 905.499C728.2 906.299 731.6 906.399 734.9 905.599C744.3 903.299 749 894.799 748.9 884.899C755 893.599 765.2 898.899 776.9 895.999C787.2 893.399 792.7 886.499 795 878.299C801.1 885.599 807.5 888.299 814.8 886.499C821.5 884.799 823.5 880.599 820.9 875.199C815.7 864.299 816.1 857.499 817.8 857.099C818.2 856.999 818.8 857.199 819.1 857.899C819.9 859.599 819.6 862.399 822.5 868.599C826.5 876.899 835.2 881.399 844.2 879.099C853.9 876.699 856.8 868.099 857 859.199C867.8 867.799 880.7 870.499 893.1 867.399C906.6 863.999 914.2 854.999 917 843.699C918.5 843.199 920 842.499 920.7 842.199C922 841.599 923.2 840.799 924.2 839.899C927.8 849.999 932.6 861.299 936 868.299C942.2 881.299 949.9 884.599 957.5 882.699C966.4 880.499 971.3 874.199 968.6 868.499C967.9 866.999 962.3 861.999 955.6 847.999C958.4 848.799 961.8 848.899 965.1 848.099C979 844.599 982.6 827.699 975.5 812.799C970.9 802.499 962.3 795.699 952 798.199ZM566.1 893.499C563.1 886.199 560.3 877.899 559.7 872.299C559.1 868.599 559.7 866.899 560.7 866.599C561.9 866.299 563.2 867.499 564.1 869.499C566.6 874.799 567.3 886.299 566.1 893.499ZM653.1 892.699C647.6 894.099 641.4 890.399 636.5 880.299C629.9 866.499 631.4 851.699 640 849.499C645.1 848.199 650.7 851.899 655.7 862.499C662.7 876.999 661.8 890.499 653.1 892.699ZM722.7 881.699C721.2 882.099 719 881.699 717.2 880.599C716.7 875.599 718 871.899 720.8 871.199C722.9 870.699 724.6 872.099 725.5 873.899C727.1 877.199 725.6 880.999 722.7 881.699ZM797.1 835.899C794.1 828.599 791.3 820.299 790.7 814.799C790.2 811.099 790.7 809.399 791.7 809.099C792.9 808.799 794.1 809.999 795.1 811.999C797.6 817.199 798.3 828.799 797.1 835.899ZM883.7 835.199C878.2 836.599 872 832.899 867.2 822.799C860.6 808.999 862.2 794.199 870.6 792.099C875.7 790.799 881.3 794.499 886.3 804.999C893.2 819.499 892.3 832.999 883.7 835.199ZM953 824.199C951.5 824.599 949.3 824.199 947.6 823.099C947.1 818.099 948.4 814.399 951.2 813.699C953.2 813.199 955 814.599 955.9 816.399C957.4 819.699 955.8 823.499 953 824.199Z" fill="white"/>
</g>
</svg>
