<svg width="2000" height="2000" viewBox="0 0 2000 2000" fill="none" xmlns="http://www.w3.org/2000/svg">
<path d="M653.301 1101.3C641.501 1097.7 629.501 1097.1 618.101 1100.2C606.601 1103.3 596.601 1109.7 588.101 1118.8C583.301 1123.9 577.801 1127.5 571.901 1129.7C550.001 1137.7 523.601 1126.3 516.801 1101.3C516.701 1100.9 516.601 1100.6 516.501 1100.2C500.201 1039.1 526.301 977.8 548.101 942.3C558.201 925.8 551.301 917 567.901 912.6C620.301 898.6 682.201 959.8 706.201 1049.4C706.301 1049.8 706.401 1050.1 706.501 1050.5C714.801 1082.3 684.701 1111 653.301 1101.3Z" fill="#0554FF"/>
<path d="M937.899 925.1C923.399 933.4 913.299 947.4 907.699 965.1C899.499 990.7 861.499 992.6 848.099 969.3C847.899 969 847.699 968.6 847.499 968.3C801.299 887.8 804.999 827.6 843.299 782.4C878.199 741.1 952.399 916.8 937.899 925.1Z" fill="#0554FF"/>
</svg>
