<svg width="2000" height="2000" viewBox="0 0 2000 2000" fill="none" xmlns="http://www.w3.org/2000/svg">
<g clip-path="url(#clip0_41_99)">
<mask id="mask0_41_99" style="mask-type:luminance" maskUnits="userSpaceOnUse" x="0" y="0" width="2000" height="2000">
<path d="M2000 0H0V2000H2000V0Z" fill="white"/>
</mask>
<g mask="url(#mask0_41_99)">
<path d="M485.25 903.46C509.2 926.26 479.98 932.71 473.49 968.78C466.99 1004.86 487.08 1023.6 461.73 1034.1C434.5 1045.38 414.48 995.4 420.98 959.32C427.48 923.24 463.92 883.13 485.26 903.45L485.25 903.46Z" fill="#331DD1" stroke="black" stroke-width="18.34" stroke-linecap="round" stroke-linejoin="round"/>
<path d="M435.64 924.51C430.04 988.39 446.91 1000.37 474.86 1013.22C475.48 1022.56 473.52 1029.23 461.73 1034.11C434.49 1045.39 414.47 995.39 420.96 959.31C423.1 947.36 428.55 934.97 435.64 924.51Z" fill="#3D11B7"/>
<path d="M485.25 903.46C509.2 926.26 479.98 932.71 473.49 968.78C466.99 1004.86 487.08 1023.6 461.73 1034.1C434.5 1045.38 414.48 995.4 420.98 959.32C427.48 923.24 463.92 883.13 485.26 903.45L485.25 903.46Z" stroke="black" stroke-width="18.34" stroke-miterlimit="10"/>
<path d="M1056.74 799.7C1030.51 807.73 1034.07 780.48 1006.07 756.78C1005.78 756.52 1005.45 756.27 1005.15 756.05C977.52 733.41 951.51 746.36 955.44 713.9C957.09 700.11 969.89 694.53 985.93 695.04C1003.87 695.52 1025.81 703.59 1040.56 716.1C1068.55 739.76 1084.92 791.05 1056.74 799.71V799.7Z" fill="#009FCB" stroke="black" stroke-width="18.34" stroke-linecap="round" stroke-linejoin="round"/>
<path d="M1056.74 799.7C1030.51 807.73 1034.07 780.48 1006.07 756.78C1005.78 756.52 1005.45 756.27 1005.15 756.05C977.52 733.41 951.51 746.36 955.44 713.9C957.09 700.11 969.89 694.53 985.93 695.04C1003.87 695.52 1025.81 703.59 1040.56 716.1C1068.55 739.76 1084.92 791.05 1056.74 799.71V799.7Z" fill="#331DD1" stroke="black" stroke-width="18.34" stroke-linecap="round" stroke-linejoin="round"/>
<path d="M1005.15 756.04C977.52 733.4 951.51 746.35 955.44 713.89C957.09 700.1 976.68 690.94 1002.73 697.41C971.97 709.78 980.1 735.3 1005.15 756.05V756.04Z" fill="#3D11B7"/>
<path d="M1056.74 799.7C1030.51 807.73 1034.07 780.48 1006.07 756.78C1005.78 756.52 1005.45 756.27 1005.15 756.05C977.52 733.41 951.51 746.36 955.44 713.9C957.09 700.11 969.89 694.53 985.93 695.04C1003.87 695.52 1025.81 703.59 1040.56 716.1C1068.55 739.76 1084.92 791.05 1056.74 799.71V799.7Z" stroke="black" stroke-width="18.34" stroke-linecap="round" stroke-linejoin="round"/>
<path d="M1056.74 799.7C1030.51 807.73 1034.07 780.48 1006.07 756.78C1005.78 756.52 1005.45 756.27 1005.15 756.05C977.52 733.41 951.51 746.36 955.44 713.9C957.09 700.11 969.89 694.53 985.93 695.04C1003.87 695.52 1025.81 703.59 1040.56 716.1C1068.55 739.76 1084.92 791.05 1056.74 799.71V799.7Z" stroke="black" stroke-width="18.34" stroke-linecap="round" stroke-linejoin="round"/>
<path d="M667.95 1083.01C656.1 1079.38 644.18 1078.86 632.73 1081.91C621.28 1084.99 611.23 1091.38 602.76 1100.47C597.99 1105.57 592.41 1109.17 586.51 1111.33C564.64 1119.33 538.16 1107.92 531.37 1082.97C531.26 1082.6 531.19 1082.27 531.08 1081.91C514.75 1020.79 520.26 962.31 542.05 926.83C552.18 910.28 565.86 898.76 582.52 894.29C634.91 880.28 696.8 941.54 720.8 1031.14C720.91 1031.51 720.98 1031.84 721.09 1032.2C729.45 1063.94 699.37 1092.62 667.97 1083.01H667.95Z" fill="#EBF6F7" stroke="black" stroke-width="18.34" stroke-miterlimit="10"/>
<path d="M586.51 1111.33C564.64 1119.33 538.16 1107.92 531.37 1082.97C531.26 1082.6 531.19 1082.27 531.08 1081.91C514.75 1020.79 520.26 962.31 542.05 926.83C536.76 1044.01 554.06 1082.44 586.52 1111.33H586.51Z" fill="#BAB9B9"/>
<path d="M667.95 1083.01C656.1 1079.38 644.18 1078.86 632.73 1081.91C621.28 1084.99 611.23 1091.38 602.76 1100.47C597.99 1105.57 592.41 1109.17 586.51 1111.33C564.64 1119.33 538.16 1107.92 531.37 1082.97C531.26 1082.6 531.19 1082.27 531.08 1081.91C514.75 1020.79 520.26 962.31 542.05 926.83C552.18 910.28 565.86 898.76 582.52 894.29C634.91 880.28 696.8 941.54 720.8 1031.14C720.91 1031.51 720.98 1031.84 721.09 1032.2C729.45 1063.94 699.37 1092.62 667.97 1083.01H667.95Z" stroke="black" stroke-width="18.34" stroke-miterlimit="10"/>
<path d="M998.72 900.89C980.56 896.85 963.35 898.51 948.9 906.8C935.66 914.36 926.12 926.72 920.25 942.31C919.66 943.81 919.15 945.32 918.64 946.86C910.46 972.43 872.49 974.3 859.02 951.08C858.84 950.75 858.65 950.42 858.47 950.09C821.2 885.15 810.67 821.54 832.75 785.21C838 776.52 845.11 769.4 854.21 764.19C901.24 737.19 976.78 780.55 1022.9 860.97C1023.12 861.34 1023.3 861.67 1023.49 862C1036.77 885.37 1024.96 906.76 998.73 900.89H998.72Z" fill="#EBF6F7" stroke="black" stroke-width="18.34" stroke-miterlimit="10"/>
<path d="M920.25 942.309C919.66 943.809 919.15 945.319 918.64 946.859C910.46 972.429 872.49 974.299 859.02 951.079C858.84 950.749 858.65 950.419 858.47 950.089C821.2 885.149 810.67 821.539 832.75 785.209C836.6 858.399 855.02 934.019 920.25 942.309Z" fill="#BAB9B9"/>
<path d="M998.72 900.89C980.56 896.85 963.35 898.51 948.9 906.8C935.66 914.36 926.12 926.72 920.25 942.31C919.66 943.81 919.15 945.32 918.64 946.86C910.46 972.43 872.49 974.3 859.02 951.08C858.84 950.75 858.65 950.42 858.47 950.09C821.2 885.15 810.67 821.54 832.75 785.21C838 776.52 845.11 769.4 854.21 764.19C901.24 737.19 976.78 780.55 1022.9 860.97C1023.12 861.34 1023.3 861.67 1023.49 862C1036.77 885.37 1024.96 906.76 998.73 900.89H998.72Z" stroke="black" stroke-width="18.34" stroke-miterlimit="10"/>
<path d="M919.57 1041.81C919.72 1081.47 906.33 1114.12 881.19 1126.52C844.25 1144.79 801.61 1112.87 772.92 1054.24C770.06 1048.44 767.34 1042.39 764.81 1036.08C764.7 1035.79 764.59 1035.49 764.48 1035.2C756.34 1014.91 776.44 989.339 796.84 995.689C810.97 1000.09 824.94 999.689 837.42 993.489C849.93 987.329 859.51 976.139 866 961.569C875.32 940.579 894.84 942.419 903.13 962.669C903.24 962.959 903.35 963.259 903.46 963.549C914.28 990.219 919.49 1017.37 919.57 1041.8V1041.81Z" fill="#FF007A" stroke="black" stroke-width="18.34" stroke-linecap="round" stroke-linejoin="round"/>
<path d="M919.57 1041.81C919.72 1081.47 906.33 1114.12 881.19 1126.52C844.25 1144.79 801.61 1112.87 772.92 1054.24C795.59 1032.34 823.48 1019.46 853.63 1019.46C877.51 1019.46 900 1027.57 919.56 1041.8L919.57 1041.81Z" fill="#FF0000" stroke="black" stroke-width="18.34" stroke-linecap="round" stroke-linejoin="round"/>
</g>
</g>
<defs>
<clipPath id="clip0_41_99">
<rect width="2000" height="2000" fill="white"/>
</clipPath>
</defs>
</svg>
