<svg width="2000" height="2000" viewBox="0 0 2000 2000" fill="none" xmlns="http://www.w3.org/2000/svg">
<mask id="mask0_595_319" style="mask-type:luminance" maskUnits="userSpaceOnUse" x="0" y="0" width="2000" height="2000">
<path d="M2000 0H0V2000H2000V0Z" fill="white"/>
</mask>
<g mask="url(#mask0_595_319)">
<path d="M650.002 1110.7C646.402 1112.8 642.602 1114.4 638.702 1115.5C589.402 1128.7 531.602 1073.1 509.602 991.099C494.802 935.999 500.002 882.999 520.102 850.299L554.802 872.199L696.702 961.699C704.302 1023.4 685.202 1090.4 650.002 1110.7Z" fill="#EEF7F8" stroke="black" stroke-width="18.34" stroke-miterlimit="10" stroke-linecap="round" stroke-linejoin="round"/>
<path d="M650.002 1110.7C646.402 1112.8 642.602 1114.4 638.702 1115.5C589.402 1128.7 531.602 1073.1 509.602 991.099C494.802 935.999 500.002 882.999 520.102 850.299C520.102 850.299 504.802 1075.4 650.002 1110.7Z" fill="#BBBABA"/>
<path d="M650.002 1110.7C646.402 1112.8 642.602 1114.4 638.702 1115.5C589.402 1128.7 531.602 1073.1 509.602 991.099C494.802 935.999 500.002 882.999 520.102 850.299L696.802 961.799C704.302 1023.4 685.202 1090.4 650.002 1110.7Z" stroke="black" stroke-width="18.34" stroke-miterlimit="10" stroke-linecap="round" stroke-linejoin="round"/>
<path d="M1013.6 983.1C1009.2 987.2 1004.4 990.6 999.003 993.1C955.403 1014 911.603 971.1 875.203 901.8L897.403 842.1L941.903 722.5C971.103 739.6 999.403 771.8 1018.5 813.6C1049.8 881.7 1046.6 952.3 1013.6 983.1Z" fill="#EEF7F8" stroke="black" stroke-width="18.34" stroke-miterlimit="10" stroke-linecap="round" stroke-linejoin="round"/>
<path d="M1013.6 983.101C1009.2 987.201 1004.4 990.601 999.003 993.101C955.403 1014 911.603 971.101 875.203 901.801L889.203 864.301C908.403 938.001 961.103 987.401 1013.6 983.101Z" fill="#BBBABA"/>
<path d="M1013.6 983.1C1009.2 987.2 1004.4 990.6 999.003 993.1C955.403 1014 911.603 971.1 875.203 901.8L897.403 842.1L941.903 722.5C971.103 739.6 999.403 771.8 1018.5 813.6C1049.8 881.7 1046.6 952.3 1013.6 983.1Z" stroke="black" stroke-width="18.34" stroke-miterlimit="10" stroke-linecap="round" stroke-linejoin="round"/>
<path d="M653.803 848.6C647.103 859.9 638.003 867.8 618.903 862.8C611.303 860.8 602.203 856.8 590.903 850.1C551.503 826.7 501.503 779.7 510.903 763.9C515.603 756.1 534.003 757.3 556.303 763.5C578.803 769.7 605.203 781 625.003 792.8C664.403 816.2 663.203 832.8 653.803 848.6Z" fill="url(#paint0_linear_595_319)" stroke="black" stroke-width="18.34" stroke-linecap="round" stroke-linejoin="round"/>
<path d="M618.903 862.8C611.303 860.8 602.203 856.8 590.903 850.1C551.503 826.7 501.503 779.7 510.903 763.9C515.603 756.1 534.003 757.3 556.303 763.5C548.203 794.1 563.003 813.2 618.903 862.8Z" fill="url(#paint1_linear_595_319)"/>
<path d="M653.803 848.6C647.103 859.9 638.003 867.8 618.903 862.8C611.303 860.8 602.203 856.8 590.903 850.1C551.503 826.7 501.503 779.7 510.903 763.9C515.603 756.1 534.003 757.3 556.303 763.5C578.803 769.7 605.203 781 625.003 792.8C664.403 816.2 663.203 832.8 653.803 848.6Z" stroke="black" stroke-width="18.34" stroke-miterlimit="10" stroke-linecap="round" stroke-linejoin="round"/>
<path d="M899.201 738.7C882.701 766.6 869.501 774.1 857.601 772.9C852.701 772.4 848.001 770.3 843.301 767.5C827.501 758.1 818.401 744.1 841.801 704.7C852.001 687.5 866.801 668.2 881.501 652.7C900.401 632.9 919.201 619.3 928.101 624.6C943.901 634 922.601 699.2 899.201 738.7Z" fill="url(#paint2_linear_595_319)" stroke="black" stroke-width="18.34" stroke-linecap="round" stroke-linejoin="round"/>
<path d="M857.601 772.8C852.701 772.3 848.001 770.2 843.301 767.4C827.501 758 818.401 744 841.801 704.6C852.001 687.4 866.801 668.1 881.501 652.6C859.701 693.6 843.401 739.7 857.601 772.8Z" fill="url(#paint3_linear_595_319)"/>
<path d="M899.201 738.7C882.701 766.6 869.501 774.1 857.601 772.9C852.701 772.4 848.001 770.3 843.301 767.5C827.501 758.1 818.401 744.1 841.801 704.7C852.001 687.5 866.801 668.2 881.501 652.7C900.401 632.9 919.201 619.3 928.101 624.6C943.901 634 922.601 699.2 899.201 738.7Z" stroke="black" stroke-width="18.34" stroke-miterlimit="10" stroke-linecap="round" stroke-linejoin="round"/>
<path d="M927.703 1164.9C920.803 1174.1 912.103 1182.6 901.403 1190C897.403 1192.8 893.403 1195.3 889.303 1197.4C888.603 1197.8 887.803 1198.2 887.103 1198.5C885.903 1199.2 884.603 1199.8 883.403 1200.3C882.503 1200.7 881.703 1201.1 880.803 1201.5C880.303 1201.8 879.703 1202 879.103 1202.2C878.203 1202.6 877.303 1203 876.403 1203.3C874.703 1204 872.903 1204.6 871.203 1205.2C870.503 1205.5 869.703 1205.7 869.003 1205.9C868.303 1206.1 867.703 1206.3 867.003 1206.5C865.803 1206.9 864.503 1207.2 863.203 1207.5C862.503 1207.7 861.703 1207.9 861.003 1208C860.203 1208.2 859.303 1208.4 858.503 1208.6C858.303 1208.6 858.203 1208.6 858.103 1208.7C857.003 1208.9 856.003 1209.1 854.903 1209.3C854.003 1209.5 853.103 1209.6 852.203 1209.7C851.303 1209.9 850.403 1210 849.503 1210C849.203 1210 849.003 1210 848.703 1210.1C847.703 1210.2 846.703 1210.3 845.703 1210.4C804.803 1213.3 767.003 1190.7 746.603 1156.7C738.103 1142.7 732.603 1126.8 731.003 1109.9C730.203 1100.8 733.303 1091.9 739.403 1085.2C749.903 1073.5 769.203 1053.7 793.603 1036.2C799.703 1031.8 806.103 1027.5 812.803 1023.5C827.303 1014.9 843.003 1007.7 859.403 1003.7C874.603 999.899 890.203 998.699 906.003 1001.5C914.403 1003 922.903 1005.6 931.303 1009.5C940.803 1014 947.703 1022.7 949.703 1033C955.303 1060.7 961.503 1120.4 927.703 1164.9Z" fill="#F04A7C" stroke="black" stroke-width="18.34" stroke-miterlimit="10" stroke-linecap="round" stroke-linejoin="round"/>
<path d="M869.105 1206C868.405 1206.2 867.805 1206.4 867.105 1206.6C865.905 1207 864.605 1207.3 863.305 1207.6C862.605 1207.8 861.805 1208 861.105 1208.1C860.305 1208.3 859.405 1208.5 858.605 1208.7C858.405 1208.7 858.305 1208.7 858.205 1208.8C857.105 1209 856.105 1209.2 855.005 1209.4C854.105 1209.6 853.205 1209.7 852.305 1209.8C851.405 1210 850.505 1210.1 849.605 1210.1C849.305 1210.1 849.105 1210.1 848.805 1210.2C847.805 1210.3 846.805 1210.4 845.805 1210.5C804.905 1213.4 767.105 1190.8 746.705 1156.8C738.205 1142.8 732.705 1126.9 731.105 1110C730.305 1100.9 733.405 1092 739.505 1085.3C743.205 1081.2 753.705 1070.4 753.705 1070.4L758.205 1084.8C771.405 1127 797.805 1164.2 834.505 1189C845.705 1196.3 857.505 1202.6 869.105 1206Z" fill="#D8364E"/>
<path d="M927.702 1164.9C920.802 1174.1 912.102 1182.6 901.402 1190C897.402 1192.8 893.402 1195.3 889.302 1197.4C888.602 1197.8 887.802 1198.2 887.102 1198.5C885.902 1199.2 884.602 1199.8 883.402 1200.3C882.502 1200.7 881.702 1201.1 880.802 1201.5C880.302 1201.8 879.702 1202 879.102 1202.2C878.202 1202.6 877.302 1203 876.402 1203.3C874.702 1204 872.902 1204.6 871.202 1205.2C870.502 1205.5 869.702 1205.7 869.002 1205.9C868.302 1206.1 867.702 1206.3 867.002 1206.5C865.802 1206.9 864.502 1207.2 863.202 1207.5C862.502 1207.7 861.702 1207.9 861.002 1208C860.202 1208.2 859.302 1208.4 858.502 1208.6C858.302 1208.6 858.202 1208.6 858.102 1208.7C857.002 1208.9 856.002 1209.1 854.902 1209.3C854.002 1209.5 853.102 1209.6 852.202 1209.7C851.302 1209.9 850.402 1210 849.502 1210C849.202 1210 849.002 1210 848.702 1210.1C847.702 1210.2 846.702 1210.3 845.702 1210.4C804.802 1213.3 767.002 1190.7 746.602 1156.7C763.902 1139.9 778.302 1127.2 790.402 1117.8C793.202 1115.6 795.902 1113.6 798.502 1111.8C887.202 1049.4 836.602 1191.8 927.702 1164.9Z" fill="#FF002F" stroke="black" stroke-width="18.34" stroke-linecap="round" stroke-linejoin="round"/>
<path d="M927.702 1164.9C920.802 1174.1 912.102 1182.6 901.402 1190C897.402 1192.8 893.402 1195.3 889.302 1197.4C888.602 1197.8 887.802 1198.2 887.102 1198.5C885.902 1199.2 884.602 1199.8 883.402 1200.3C882.502 1200.7 881.702 1201.1 880.802 1201.5C880.302 1201.8 879.702 1202 879.102 1202.2C878.202 1202.6 877.302 1203 876.402 1203.3C874.702 1204 872.902 1204.6 871.202 1205.2C870.502 1205.5 869.702 1205.7 869.002 1205.9C868.302 1206.1 867.702 1206.3 867.002 1206.5C865.802 1206.9 864.502 1207.2 863.202 1207.5C862.502 1207.7 861.702 1207.9 861.002 1208C860.202 1208.2 859.302 1208.4 858.502 1208.6C858.302 1208.6 858.202 1208.6 858.102 1208.7C857.002 1208.9 856.002 1209.1 854.902 1209.3C854.002 1209.5 853.102 1209.6 852.202 1209.7C851.302 1209.9 850.402 1210 849.502 1210C849.202 1210 849.002 1210 848.702 1210.1C847.702 1210.2 846.702 1210.3 845.702 1210.4C804.802 1213.3 767.002 1190.7 746.602 1156.7C763.902 1139.9 778.302 1127.2 790.402 1117.8C793.202 1115.6 795.902 1113.6 798.502 1111.8C887.202 1049.4 836.602 1191.8 927.702 1164.9Z" stroke="black" stroke-width="18.34" stroke-linecap="round" stroke-linejoin="round"/>
<path d="M859.604 1007V1046.9C859.604 1059.7 849.204 1070.2 836.304 1070.2C823.404 1070.2 813.004 1059.7 813.004 1046.9V1026.9C827.504 1018.3 843.204 1011.1 859.604 1007Z" fill="white" stroke="black" stroke-width="18.34" stroke-miterlimit="10" stroke-linecap="round" stroke-linejoin="round"/>
<path d="M906.202 1003.9V1030.5C906.202 1043.3 895.802 1053.8 882.902 1053.8C870.002 1053.8 859.602 1043.3 859.602 1030.5V1006.1C874.702 1002.3 890.402 1001.1 906.202 1003.9Z" fill="white" stroke="black" stroke-width="18.34" stroke-miterlimit="10" stroke-linecap="round" stroke-linejoin="round"/>
<path d="M927.703 1164.9C920.803 1174.1 912.103 1182.6 901.403 1190C897.403 1192.8 893.403 1195.3 889.303 1197.4C888.603 1197.8 887.803 1198.2 887.103 1198.5C885.903 1199.2 884.603 1199.8 883.403 1200.3C882.503 1200.7 881.703 1201.1 880.803 1201.5C880.303 1201.8 879.703 1202 879.103 1202.2C878.203 1202.6 877.303 1203 876.403 1203.3C874.703 1204 872.903 1204.6 871.203 1205.2C870.503 1205.5 869.703 1205.7 869.003 1205.9C868.303 1206.1 867.703 1206.3 867.003 1206.5C865.803 1206.9 864.503 1207.2 863.203 1207.5C862.503 1207.7 861.703 1207.9 861.003 1208C860.203 1208.2 859.303 1208.4 858.503 1208.6C858.303 1208.6 858.203 1208.6 858.103 1208.7C857.003 1208.9 856.003 1209.1 854.903 1209.3C854.003 1209.5 853.103 1209.6 852.203 1209.7C851.303 1209.9 850.403 1210 849.503 1210C849.203 1210 849.003 1210 848.703 1210.1C847.703 1210.2 846.703 1210.3 845.703 1210.4C804.803 1213.3 767.003 1190.7 746.603 1156.7C738.103 1142.7 732.603 1126.8 731.003 1109.9C730.203 1100.8 733.303 1091.9 739.403 1085.2C749.903 1073.5 769.203 1053.7 793.603 1036.2C799.703 1031.8 806.103 1027.5 812.803 1023.5C827.303 1014.9 843.003 1007.7 859.403 1003.7C874.603 999.899 890.203 998.699 906.003 1001.5C914.403 1003 922.903 1005.6 931.303 1009.5C940.803 1014 947.703 1022.7 949.703 1033C955.303 1060.7 961.503 1120.4 927.703 1164.9Z" stroke="black" stroke-width="18.34" stroke-miterlimit="10" stroke-linecap="round" stroke-linejoin="round"/>
</g>
<defs>
<linearGradient id="paint0_linear_595_319" x1="509.762" y1="811.387" x2="659.259" y2="811.387" gradientUnits="userSpaceOnUse">
<stop stop-color="#00C1E9"/>
<stop offset="1" stop-color="#AE00A8"/>
</linearGradient>
<linearGradient id="paint1_linear_595_319" x1="631.809" y1="840.438" x2="507.994" y2="768.955" gradientUnits="userSpaceOnUse">
<stop stop-color="#AE00A8"/>
<stop offset="1" stop-color="#00C2ED"/>
</linearGradient>
<linearGradient id="paint2_linear_595_319" x1="827.616" y1="698.2" x2="933.539" y2="698.2" gradientUnits="userSpaceOnUse">
<stop stop-color="#00C2ED"/>
<stop offset="1" stop-color="#AE00A8"/>
</linearGradient>
<linearGradient id="paint3_linear_595_319" x1="885.968" y1="723.679" x2="844.602" y2="699.796" gradientUnits="userSpaceOnUse">
<stop stop-color="#AE00A8"/>
<stop offset="1" stop-color="#00C2ED"/>
</linearGradient>
</defs>
</svg>
