<svg width="2000" height="2000" viewBox="0 0 2000 2000" fill="none" xmlns="http://www.w3.org/2000/svg">
<g clip-path="url(#clip0_258_239)">
<mask id="mask0_258_239" style="mask-type:luminance" maskUnits="userSpaceOnUse" x="0" y="0" width="2000" height="2000">
<path d="M2000 0H0V2000H2000V0Z" fill="white"/>
</mask>
<g mask="url(#mask0_258_239)">
<path d="M650 1110.7C646.4 1112.8 642.6 1114.4 638.7 1115.5C589.4 1128.7 531.6 1073.1 509.6 991.099C494.8 935.999 500 882.999 520.1 850.299L554.8 872.199L696.7 961.699C704.3 1023.4 685.2 1090.4 650 1110.7Z" fill="#EEF7F8" stroke="black" stroke-width="18.34" stroke-miterlimit="10" stroke-linecap="round" stroke-linejoin="round"/>
<path d="M650 1110.7C646.4 1112.8 642.6 1114.4 638.7 1115.5C589.4 1128.7 531.6 1073.1 509.6 991.099C494.8 935.999 500 882.999 520.1 850.299C520.1 850.299 504.8 1075.4 650 1110.7Z" fill="#BBBABA"/>
<path d="M650 1110.7C646.4 1112.8 642.6 1114.4 638.7 1115.5C589.4 1128.7 531.6 1073.1 509.6 991.099C494.8 935.999 500 882.999 520.1 850.299L696.8 961.799C704.3 1023.4 685.2 1090.4 650 1110.7Z" stroke="black" stroke-width="18.34" stroke-miterlimit="10" stroke-linecap="round" stroke-linejoin="round"/>
<path d="M1013.6 983.1C1009.2 987.2 1004.4 990.6 999 993.1C955.4 1014 911.6 971.1 875.2 901.8L897.4 842.1L941.9 722.5C971.1 739.6 999.4 771.8 1018.5 813.6C1049.8 881.7 1046.6 952.3 1013.6 983.1Z" fill="#EEF7F8" stroke="black" stroke-width="18.34" stroke-miterlimit="10" stroke-linecap="round" stroke-linejoin="round"/>
<path d="M1013.6 983.101C1009.2 987.201 1004.4 990.601 999 993.101C955.4 1014 911.6 971.101 875.2 901.801L889.2 864.301C908.4 938.001 961.1 987.401 1013.6 983.101Z" fill="#BBBABA"/>
<path d="M1013.6 983.1C1009.2 987.2 1004.4 990.6 999 993.1C955.4 1014 911.6 971.1 875.2 901.8L897.4 842.1L941.9 722.5C971.1 739.6 999.4 771.8 1018.5 813.6C1049.8 881.7 1046.6 952.3 1013.6 983.1Z" stroke="black" stroke-width="18.34" stroke-miterlimit="10" stroke-linecap="round" stroke-linejoin="round"/>
<path d="M653.8 848.6C647.1 859.9 638 867.8 618.9 862.8C611.3 860.8 602.2 856.8 590.9 850.1C551.5 826.7 501.5 779.7 510.9 763.9C515.6 756.1 534 757.3 556.3 763.5C578.8 769.7 605.2 781 625 792.8C664.4 816.2 663.2 832.8 653.8 848.6Z" fill="url(#paint0_linear_258_239)" stroke="black" stroke-width="18.34" stroke-linecap="round" stroke-linejoin="round"/>
<path d="M618.9 862.8C611.3 860.8 602.2 856.8 590.9 850.1C551.5 826.7 501.5 779.7 510.9 763.9C515.6 756.1 534 757.3 556.3 763.5C548.2 794.1 563 813.2 618.9 862.8Z" fill="url(#paint1_linear_258_239)"/>
<path d="M653.8 848.6C647.1 859.9 638 867.8 618.9 862.8C611.3 860.8 602.2 856.8 590.9 850.1C551.5 826.7 501.5 779.7 510.9 763.9C515.6 756.1 534 757.3 556.3 763.5C578.8 769.7 605.2 781 625 792.8C664.4 816.2 663.2 832.8 653.8 848.6Z" stroke="black" stroke-width="18.34" stroke-miterlimit="10" stroke-linecap="round" stroke-linejoin="round"/>
<path d="M899.2 738.7C882.7 766.6 869.5 774.1 857.6 772.9C852.7 772.4 848 770.3 843.3 767.5C827.5 758.1 818.4 744.1 841.8 704.7C852 687.5 866.8 668.2 881.5 652.7C900.4 632.9 919.2 619.3 928.1 624.6C943.9 634 922.6 699.2 899.2 738.7Z" fill="url(#paint2_linear_258_239)" stroke="black" stroke-width="18.34" stroke-linecap="round" stroke-linejoin="round"/>
<path d="M857.6 772.8C852.7 772.3 848 770.2 843.3 767.4C827.5 758 818.4 744 841.8 704.6C852 687.4 866.8 668.1 881.5 652.6C859.7 693.6 843.4 739.7 857.6 772.8Z" fill="url(#paint3_linear_258_239)"/>
<path d="M899.2 738.7C882.7 766.6 869.5 774.1 857.6 772.9C852.7 772.4 848 770.3 843.3 767.5C827.5 758.1 818.4 744.1 841.8 704.7C852 687.5 866.8 668.2 881.5 652.7C900.4 632.9 919.2 619.3 928.1 624.6C943.9 634 922.6 699.2 899.2 738.7Z" stroke="black" stroke-width="18.34" stroke-miterlimit="10" stroke-linecap="round" stroke-linejoin="round"/>
<path d="M927.7 1164.9C920.8 1174.1 912.1 1182.6 901.4 1190C897.4 1192.8 893.4 1195.3 889.3 1197.4C888.6 1197.8 887.8 1198.2 887.1 1198.5C885.9 1199.2 884.6 1199.8 883.4 1200.3C882.5 1200.7 881.7 1201.1 880.8 1201.5C880.3 1201.8 879.7 1202 879.1 1202.2C878.2 1202.6 877.3 1203 876.4 1203.3C874.7 1204 872.9 1204.6 871.2 1205.2C870.5 1205.5 869.7 1205.7 869 1205.9C868.3 1206.1 867.7 1206.3 867 1206.5C865.8 1206.9 864.5 1207.2 863.2 1207.5C862.5 1207.7 861.7 1207.9 861 1208C860.2 1208.2 859.3 1208.4 858.5 1208.6C858.3 1208.6 858.2 1208.6 858.1 1208.7C857 1208.9 856 1209.1 854.9 1209.3C854 1209.5 853.1 1209.6 852.2 1209.7C851.3 1209.9 850.4 1210 849.5 1210C849.2 1210 849 1210 848.7 1210.1C847.7 1210.2 846.7 1210.3 845.7 1210.4C804.8 1213.3 767 1190.7 746.6 1156.7C738.1 1142.7 732.6 1126.8 731 1109.9C730.2 1100.8 733.3 1091.9 739.4 1085.2C749.9 1073.5 769.2 1053.7 793.6 1036.2C799.7 1031.8 806.1 1027.5 812.8 1023.5C827.3 1014.9 843 1007.7 859.4 1003.7C874.6 999.899 890.2 998.699 906 1001.5C914.4 1003 922.9 1005.6 931.3 1009.5C940.8 1014 947.7 1022.7 949.7 1033C955.3 1060.7 961.5 1120.4 927.7 1164.9Z" fill="#F04A7C" stroke="black" stroke-width="18.34" stroke-miterlimit="10" stroke-linecap="round" stroke-linejoin="round"/>
<path d="M869.1 1206C868.4 1206.2 867.8 1206.4 867.1 1206.6C865.9 1207 864.6 1207.3 863.3 1207.6C862.6 1207.8 861.8 1208 861.1 1208.1C860.3 1208.3 859.4 1208.5 858.6 1208.7C858.4 1208.7 858.3 1208.7 858.2 1208.8C857.1 1209 856.1 1209.2 855 1209.4C854.1 1209.6 853.2 1209.7 852.3 1209.8C851.4 1210 850.5 1210.1 849.6 1210.1C849.3 1210.1 849.1 1210.1 848.8 1210.2C847.8 1210.3 846.8 1210.4 845.8 1210.5C804.9 1213.4 767.1 1190.8 746.7 1156.8C738.2 1142.8 732.7 1126.9 731.1 1110C730.3 1100.9 733.4 1092 739.5 1085.3C743.2 1081.2 753.7 1070.4 753.7 1070.4L758.2 1084.8C771.4 1127 797.8 1164.2 834.5 1189C845.7 1196.3 857.5 1202.6 869.1 1206Z" fill="#D8364E"/>
<path d="M927.7 1164.9C920.8 1174.1 912.1 1182.6 901.4 1190C897.4 1192.8 893.4 1195.3 889.3 1197.4C888.6 1197.8 887.8 1198.2 887.1 1198.5C885.9 1199.2 884.6 1199.8 883.4 1200.3C882.5 1200.7 881.7 1201.1 880.8 1201.5C880.3 1201.8 879.7 1202 879.1 1202.2C878.2 1202.6 877.3 1203 876.4 1203.3C874.7 1204 872.9 1204.6 871.2 1205.2C870.5 1205.5 869.7 1205.7 869 1205.9C868.3 1206.1 867.7 1206.3 867 1206.5C865.8 1206.9 864.5 1207.2 863.2 1207.5C862.5 1207.7 861.7 1207.9 861 1208C860.2 1208.2 859.3 1208.4 858.5 1208.6C858.3 1208.6 858.2 1208.6 858.1 1208.7C857 1208.9 856 1209.1 854.9 1209.3C854 1209.5 853.1 1209.6 852.2 1209.7C851.3 1209.9 850.4 1210 849.5 1210C849.2 1210 849 1210 848.7 1210.1C847.7 1210.2 846.7 1210.3 845.7 1210.4C804.8 1213.3 767 1190.7 746.6 1156.7C763.9 1139.9 778.3 1127.2 790.4 1117.8C793.2 1115.6 795.9 1113.6 798.5 1111.8C887.2 1049.4 836.6 1191.8 927.7 1164.9Z" fill="#FF002F" stroke="black" stroke-width="18.34" stroke-linecap="round" stroke-linejoin="round"/>
<path d="M927.7 1164.9C920.8 1174.1 912.1 1182.6 901.4 1190C897.4 1192.8 893.4 1195.3 889.3 1197.4C888.6 1197.8 887.8 1198.2 887.1 1198.5C885.9 1199.2 884.6 1199.8 883.4 1200.3C882.5 1200.7 881.7 1201.1 880.8 1201.5C880.3 1201.8 879.7 1202 879.1 1202.2C878.2 1202.6 877.3 1203 876.4 1203.3C874.7 1204 872.9 1204.6 871.2 1205.2C870.5 1205.5 869.7 1205.7 869 1205.9C868.3 1206.1 867.7 1206.3 867 1206.5C865.8 1206.9 864.5 1207.2 863.2 1207.5C862.5 1207.7 861.7 1207.9 861 1208C860.2 1208.2 859.3 1208.4 858.5 1208.6C858.3 1208.6 858.2 1208.6 858.1 1208.7C857 1208.9 856 1209.1 854.9 1209.3C854 1209.5 853.1 1209.6 852.2 1209.7C851.3 1209.9 850.4 1210 849.5 1210C849.2 1210 849 1210 848.7 1210.1C847.7 1210.2 846.7 1210.3 845.7 1210.4C804.8 1213.3 767 1190.7 746.6 1156.7C763.9 1139.9 778.3 1127.2 790.4 1117.8C793.2 1115.6 795.9 1113.6 798.5 1111.8C887.2 1049.4 836.6 1191.8 927.7 1164.9Z" stroke="black" stroke-width="18.34" stroke-linecap="round" stroke-linejoin="round"/>
<path d="M859.6 1007V1046.9C859.6 1059.7 849.2 1070.2 836.3 1070.2C823.4 1070.2 813 1059.7 813 1046.9V1026.9C827.5 1018.3 843.2 1011.1 859.6 1007Z" fill="white" stroke="black" stroke-width="18.34" stroke-miterlimit="10" stroke-linecap="round" stroke-linejoin="round"/>
<path d="M906.2 1003.9V1030.5C906.2 1043.3 895.8 1053.8 882.9 1053.8C870 1053.8 859.6 1043.3 859.6 1030.5V1006.1C874.7 1002.3 890.4 1001.1 906.2 1003.9Z" fill="white" stroke="black" stroke-width="18.34" stroke-miterlimit="10" stroke-linecap="round" stroke-linejoin="round"/>
<path d="M927.7 1164.9C920.8 1174.1 912.1 1182.6 901.4 1190C897.4 1192.8 893.4 1195.3 889.3 1197.4C888.6 1197.8 887.8 1198.2 887.1 1198.5C885.9 1199.2 884.6 1199.8 883.4 1200.3C882.5 1200.7 881.7 1201.1 880.8 1201.5C880.3 1201.8 879.7 1202 879.1 1202.2C878.2 1202.6 877.3 1203 876.4 1203.3C874.7 1204 872.9 1204.6 871.2 1205.2C870.5 1205.5 869.7 1205.7 869 1205.9C868.3 1206.1 867.7 1206.3 867 1206.5C865.8 1206.9 864.5 1207.2 863.2 1207.5C862.5 1207.7 861.7 1207.9 861 1208C860.2 1208.2 859.3 1208.4 858.5 1208.6C858.3 1208.6 858.2 1208.6 858.1 1208.7C857 1208.9 856 1209.1 854.9 1209.3C854 1209.5 853.1 1209.6 852.2 1209.7C851.3 1209.9 850.4 1210 849.5 1210C849.2 1210 849 1210 848.7 1210.1C847.7 1210.2 846.7 1210.3 845.7 1210.4C804.8 1213.3 767 1190.7 746.6 1156.7C738.1 1142.7 732.6 1126.8 731 1109.9C730.2 1100.8 733.3 1091.9 739.4 1085.2C749.9 1073.5 769.2 1053.7 793.6 1036.2C799.7 1031.8 806.1 1027.5 812.8 1023.5C827.3 1014.9 843 1007.7 859.4 1003.7C874.6 999.899 890.2 998.699 906 1001.5C914.4 1003 922.9 1005.6 931.3 1009.5C940.8 1014 947.7 1022.7 949.7 1033C955.3 1060.7 961.5 1120.4 927.7 1164.9Z" stroke="black" stroke-width="18.34" stroke-miterlimit="10" stroke-linecap="round" stroke-linejoin="round"/>
</g>
</g>
<defs>
<linearGradient id="paint0_linear_258_239" x1="509.759" y1="811.387" x2="659.256" y2="811.387" gradientUnits="userSpaceOnUse">
<stop stop-color="#FF0036"/>
<stop offset="1" stop-color="#FFB000"/>
</linearGradient>
<linearGradient id="paint1_linear_258_239" x1="631.806" y1="840.438" x2="507.991" y2="768.955" gradientUnits="userSpaceOnUse">
<stop stop-color="#FF0036"/>
<stop offset="1" stop-color="#FF2100"/>
</linearGradient>
<linearGradient id="paint2_linear_258_239" x1="827.615" y1="698.2" x2="933.537" y2="698.2" gradientUnits="userSpaceOnUse">
<stop stop-color="#FF0036"/>
<stop offset="1" stop-color="#FFB000"/>
</linearGradient>
<linearGradient id="paint3_linear_258_239" x1="885.967" y1="723.679" x2="844.601" y2="699.796" gradientUnits="userSpaceOnUse">
<stop stop-color="#FF0036"/>
<stop offset="1" stop-color="#FF2100"/>
</linearGradient>
<clipPath id="clip0_258_239">
<rect width="2000" height="2000" fill="white"/>
</clipPath>
</defs>
</svg>
