<svg width="2000" height="2000" viewBox="0 0 2000 2000" fill="none" xmlns="http://www.w3.org/2000/svg">
<g clip-path="url(#clip0_258_276)">
<mask id="mask0_258_276" style="mask-type:luminance" maskUnits="userSpaceOnUse" x="0" y="0" width="2000" height="2000">
<path d="M2000 0H0V2000H2000V0Z" fill="white"/>
</mask>
<g mask="url(#mask0_258_276)">
<path d="M660.7 1012.3C660.7 1012.4 660.7 1012.5 660.7 1012.6C656.3 1029 649.5 1045 640.2 1059.8C640.2 1059.9 640.1 1059.9 640 1060C622.8 1075.7 606.9 1083.3 592.3 1085.1C591.8 1085.2 591.2 1085.3 590.7 1085.3C565.4 1087.7 544.1 1072.7 527 1052.2C503.5 1023.8 488.1 984.899 482 966.699C479.6 959.599 477.4 950.299 475.6 939.699C487.7 931.499 501 923.699 515 916.699C555.2 896.599 601.8 882.699 647.2 884.299C650.6 892.899 653.5 901.899 656 911.199C665.9 947.499 666.9 982.999 660.7 1012.3Z" fill="#EEF7F8"/>
<path d="M592.4 1085.1C591.9 1085.2 591.3 1085.3 590.8 1085.3C565.5 1087.7 544.2 1072.7 527.1 1052.2C503.6 1023.8 488.2 984.899 482.1 966.699C479.7 959.599 477.5 950.299 475.7 939.699C487.8 931.499 501.1 923.699 515.1 916.699C519 976.999 536.3 1042.5 592.4 1085.1Z" fill="#BBBABA"/>
<path d="M660.7 1012.3C660.7 1012.4 660.7 1012.5 660.7 1012.6C656.7 1031.3 649.8 1047.5 640.2 1059.8C640.2 1059.9 640.1 1059.9 640 1060C631 1071.6 619.8 1079.7 606.5 1083.3C601.3 1084.7 596 1085.3 590.7 1085.2C569 1084.9 546.6 1072.7 527 1052.1C505.6 1029.6 487.6 997.1 477.4 958.9C475.8 953 474.4 947 473.3 941.1C474.1 940.6 474.8 940 475.6 939.5C522.6 907.9 586 882 647.2 884.1C650.6 892.7 653.5 901.7 656 911C665.9 947.5 666.9 983 660.7 1012.3Z" stroke="black" stroke-width="18.34" stroke-linecap="round" stroke-linejoin="round"/>
<path d="M966.9 960.901C952.4 967.901 935.9 968.201 919 963.101C882.2 951.901 843.6 914.401 819.4 861.701C814.7 851.501 810.8 841.201 807.6 831.001C819.7 819.701 834.6 807.801 851.2 797.801C890.3 774.201 939.5 760.301 987.7 784.601C1021.5 860.601 1012.4 939.101 966.9 960.901Z" fill="#EEF7F8"/>
<path d="M919 963.101C882.2 951.901 843.6 914.401 819.4 861.701C814.7 851.501 810.8 841.201 807.6 831.001C819.7 819.701 834.6 807.801 851.2 797.801C852.2 852.801 871 916.501 919 963.101Z" fill="#BBBABA"/>
<path d="M966.9 960.9C920.8 983.1 854.7 938.6 819.4 861.7C814.7 851.5 810.8 841.2 807.6 831C848.2 793.1 918.9 750 987.8 784.6C1021.5 860.6 1012.4 939.1 966.9 960.9Z" stroke="black" stroke-width="18.34" stroke-linecap="round" stroke-linejoin="round"/>
<path d="M1016.8 1057.2C1030.7 1240.5 1000 1312 879.8 1357.9C869.9 1362.7 859.5 1367.3 848.6 1371.6C765.5 1404.6 617.9 1351.3 588.4 1266.9C582.9 1251.1 578.8 1236.8 576 1225.8C572.5 1212.3 578.3 1199.1 588.5 1189.6C602.5 1176.4 615.9 1164 628.7 1152.5C798.9 999.701 868.5 995.401 1003.6 1040.6C1011.4 1043.2 1016.9 1049 1016.8 1057.2Z" fill="#FF5A3F"/>
<path d="M879.8 1357.8C869.9 1362.6 859.5 1367.2 848.6 1371.5C765.5 1404.5 617.9 1351.2 588.4 1266.8C582.9 1251 578.8 1236.7 576 1225.7C572.5 1212.2 578.3 1199 588.5 1189.5C602.5 1176.3 615.9 1163.9 628.7 1152.4C624.3 1261.1 702.2 1365.8 861.6 1358.2C868.1 1358 874.1 1357.9 879.8 1357.8Z" fill="#FF5A3F"/>
<path d="M588.5 1189.6C788.8 1000.6 858.4 992.001 1003.7 1040.6C1011.5 1043.2 1016.9 1049 1016.9 1057.3C1022.2 1219.1 1024.8 1308.7 848.7 1371.6C765.6 1404.6 618 1351.3 588.5 1266.9C583 1251.1 578.9 1236.8 576.1 1225.8C572.5 1212.3 578.3 1199.1 588.5 1189.6Z" stroke="black" stroke-width="18.34" stroke-linecap="round" stroke-linejoin="round"/>
<path d="M575.2 1213.9L430.7 1165.9" stroke="black" stroke-width="18.34" stroke-linecap="round" stroke-linejoin="round"/>
<path d="M644 1334.4L562.5 1372.2" stroke="black" stroke-width="18.34" stroke-linecap="round" stroke-linejoin="round"/>
<path d="M452.2 924.5L426.5 953.2C420.5 959.9 409.9 959.1 404.9 951.7L397.9 941.3C393.4 934.6 395.6 925.5 402.6 921.6L435.3 903.3C448.8 895.8 462.6 913 452.2 924.5Z" fill="#FF0085" stroke="black" stroke-width="18.34" stroke-linecap="round" stroke-linejoin="round"/>
<path d="M1000.8 731.9L1031.4 730.9C1038.5 730.7 1044.2 738.3 1042.9 746.3L1041.1 757.6C1039.9 764.8 1033.7 769.2 1027.5 767L998.7 756.7C986.7 752.4 988.4 732.3 1000.8 731.9Z" fill="#FF0085" stroke="black" stroke-width="18.34" stroke-linecap="round" stroke-linejoin="round"/>
</g>
</g>
<defs>
<clipPath id="clip0_258_276">
<rect width="2000" height="2000" fill="white"/>
</clipPath>
</defs>
</svg>
