<svg width="2000" height="2000" viewBox="0 0 2000 2000" fill="none" xmlns="http://www.w3.org/2000/svg">
<mask id="mask0_595_350" style="mask-type:luminance" maskUnits="userSpaceOnUse" x="0" y="0" width="2000" height="2000">
<path d="M2000 0H0V2000H2000V0Z" fill="white"/>
</mask>
<g mask="url(#mask0_595_350)">
<path d="M660.702 1012.3C660.702 1012.4 660.702 1012.5 660.702 1012.6C656.302 1029 649.502 1045 640.202 1059.8C640.202 1059.9 640.102 1059.9 640.002 1060C622.802 1075.7 606.902 1083.3 592.302 1085.1C591.802 1085.2 591.202 1085.3 590.702 1085.3C565.402 1087.7 544.102 1072.7 527.002 1052.2C503.502 1023.8 488.102 984.899 482.002 966.699C479.602 959.599 477.402 950.299 475.602 939.699C487.702 931.499 501.002 923.699 515.002 916.699C555.202 896.599 601.802 882.699 647.202 884.299C650.602 892.899 653.502 901.899 656.002 911.199C665.902 947.499 666.902 982.999 660.702 1012.3Z" fill="#EEF7F8"/>
<path d="M592.399 1085.1C591.899 1085.2 591.299 1085.3 590.799 1085.3C565.499 1087.7 544.199 1072.7 527.099 1052.2C503.599 1023.8 488.199 984.899 482.099 966.699C479.699 959.599 477.499 950.299 475.699 939.699C487.799 931.499 501.099 923.699 515.099 916.699C518.999 976.999 536.299 1042.5 592.399 1085.1Z" fill="#BBBABA"/>
<path d="M660.701 1012.3C660.701 1012.4 660.701 1012.5 660.701 1012.6C656.701 1031.3 649.801 1047.5 640.201 1059.8C640.201 1059.9 640.101 1059.9 640.001 1060C631.001 1071.6 619.801 1079.7 606.501 1083.3C601.301 1084.7 596.001 1085.3 590.701 1085.2C569.001 1084.9 546.601 1072.7 527.001 1052.1C505.601 1029.6 487.601 997.1 477.401 958.9C475.801 953 474.401 947 473.301 941.1C474.101 940.6 474.801 940 475.601 939.5C522.601 907.9 586.001 882 647.201 884.1C650.601 892.7 653.501 901.7 656.001 911C665.901 947.5 666.901 983 660.701 1012.3Z" stroke="black" stroke-width="18.34" stroke-linecap="round" stroke-linejoin="round"/>
<path d="M966.898 960.901C952.398 967.901 935.898 968.201 918.998 963.101C882.198 951.901 843.598 914.401 819.398 861.701C814.698 851.501 810.798 841.201 807.598 831.001C819.698 819.701 834.598 807.801 851.198 797.801C890.298 774.201 939.498 760.301 987.698 784.601C1021.5 860.601 1012.4 939.101 966.898 960.901Z" fill="#EEF7F8"/>
<path d="M918.998 963.101C882.198 951.901 843.598 914.401 819.398 861.701C814.698 851.501 810.798 841.201 807.598 831.001C819.698 819.701 834.598 807.801 851.198 797.801C852.198 852.801 870.998 916.501 918.998 963.101Z" fill="#BBBABA"/>
<path d="M966.898 960.9C920.798 983.1 854.698 938.6 819.398 861.7C814.698 851.5 810.798 841.2 807.598 831C848.198 793.1 918.898 750 987.798 784.6C1021.5 860.6 1012.4 939.1 966.898 960.9Z" stroke="black" stroke-width="18.34" stroke-linecap="round" stroke-linejoin="round"/>
<path d="M1016.8 1057.2C1030.7 1240.5 1000 1312 879.8 1357.9C869.9 1362.7 859.5 1367.3 848.6 1371.6C765.5 1404.6 617.9 1351.3 588.4 1266.9C582.9 1251.1 578.8 1236.8 576 1225.8C572.5 1212.3 578.3 1199.1 588.5 1189.6C602.5 1176.4 615.9 1164 628.7 1152.5C798.9 999.701 868.5 995.401 1003.6 1040.6C1011.4 1043.2 1016.9 1049 1016.8 1057.2Z" fill="#331DD1"/>
<path d="M879.8 1357.8C869.9 1362.6 859.5 1367.2 848.6 1371.5C765.5 1404.5 617.9 1351.2 588.4 1266.8C582.9 1251 578.8 1236.7 576 1225.7C572.5 1212.2 578.3 1199 588.5 1189.5C602.5 1176.3 615.9 1163.9 628.7 1152.4C624.3 1261.1 702.2 1365.8 861.6 1358.2C868.1 1358 874.1 1357.9 879.8 1357.8Z" fill="#331DD1"/>
<path d="M588.5 1189.6C788.8 1000.6 858.4 992.001 1003.7 1040.6C1011.5 1043.2 1016.9 1049 1016.9 1057.3C1022.2 1219.1 1024.8 1308.7 848.7 1371.6C765.6 1404.6 618 1351.3 588.5 1266.9C583 1251.1 578.899 1236.8 576.099 1225.8C572.499 1212.3 578.3 1199.1 588.5 1189.6Z" stroke="black" stroke-width="18.34" stroke-linecap="round" stroke-linejoin="round"/>
<path d="M575.199 1213.9L430.699 1165.9" stroke="black" stroke-width="18.34" stroke-linecap="round" stroke-linejoin="round"/>
<path d="M644 1334.4L562.5 1372.2" stroke="black" stroke-width="18.34" stroke-linecap="round" stroke-linejoin="round"/>
<path d="M452.199 924.5L426.499 953.2C420.499 959.9 409.899 959.1 404.899 951.7L397.899 941.3C393.399 934.6 395.599 925.5 402.599 921.6L435.299 903.3C448.799 895.8 462.599 913 452.199 924.5Z" fill="#FF2C10" stroke="black" stroke-width="18.34" stroke-linecap="round" stroke-linejoin="round"/>
<path d="M1000.8 731.9L1031.4 730.9C1038.5 730.7 1044.2 738.3 1042.9 746.3L1041.1 757.6C1039.9 764.8 1033.7 769.2 1027.5 767L998.698 756.7C986.698 752.4 988.398 732.3 1000.8 731.9Z" fill="#FF2C10" stroke="black" stroke-width="18.34" stroke-linecap="round" stroke-linejoin="round"/>
</g>
</svg>
