<svg width="2000" height="2000" viewBox="0 0 2000 2000" fill="none" xmlns="http://www.w3.org/2000/svg">
<path d="M951.099 923.8C945.699 925.6 939.899 926.6 933.899 926.6C905.599 926.6 882.699 905.1 882.699 878.5C882.699 851.9 905.599 830.4 933.899 830.4" fill="#FF04FB"/>
<path d="M616.9 1094C688.09 1094 745.8 1031.72 745.8 954.9C745.8 878.077 688.09 815.8 616.9 815.8C545.711 815.8 488 878.077 488 954.9C488 1031.72 545.711 1094 616.9 1094Z" fill="#FF04FB"/>
<path d="M587.899 1119.3C606.235 1119.3 621.099 1104.44 621.099 1086.1C621.099 1067.76 606.235 1052.9 587.899 1052.9C569.563 1052.9 554.699 1067.76 554.699 1086.1C554.699 1104.44 569.563 1119.3 587.899 1119.3Z" fill="#FF04FB"/>
<path d="M931.199 882.5C938.699 910.4 967.999 944.3 985.199 988.7" stroke="black" stroke-width="18.34" stroke-miterlimit="10" stroke-linecap="round" stroke-linejoin="round"/>
</svg>
