<svg width="2000" height="2000" viewBox="0 0 2000 2000" fill="none" xmlns="http://www.w3.org/2000/svg">
<path d="M951.103 923.8C945.703 925.6 939.903 926.6 933.903 926.6C905.603 926.6 882.703 905.1 882.703 878.5C882.703 851.9 905.603 830.4 933.903 830.4" fill="#2FB600"/>
<path d="M616.9 1094C688.09 1094 745.8 1031.72 745.8 954.9C745.8 878.077 688.09 815.8 616.9 815.8C545.711 815.8 488 878.077 488 954.9C488 1031.72 545.711 1094 616.9 1094Z" fill="#2FB600"/>
<path d="M587.903 1119.3C606.239 1119.3 621.103 1104.44 621.103 1086.1C621.103 1067.76 606.239 1052.9 587.903 1052.9C569.567 1052.9 554.703 1067.76 554.703 1086.1C554.703 1104.44 569.567 1119.3 587.903 1119.3Z" fill="#2FB600"/>
<path d="M931.203 882.5C938.703 910.4 968.003 944.3 985.203 988.7" stroke="black" stroke-width="18.34" stroke-miterlimit="10" stroke-linecap="round" stroke-linejoin="round"/>
</svg>
