<svg width="2000" height="2000" viewBox="0 0 2000 2000" fill="none" xmlns="http://www.w3.org/2000/svg">
<mask id="mask0_595_206" style="mask-type:luminance" maskUnits="userSpaceOnUse" x="0" y="0" width="2000" height="2000">
<path d="M2000 0H0V2000H2000V0Z" fill="white"/>
</mask>
<g mask="url(#mask0_595_206)">
<path d="M539.6 1230.6C535.1 1203.1 560.4 1179.9 587.6 1186.2C612.2 1191.9 645.6 1199.3 660.8 1200.9C677.6 1202.7 714.201 1202.7 741.401 1202.4C767.301 1202.1 786.9 1226.6 780.1 1251.5C780 1251.9 779.9 1252.3 779.8 1252.7C775 1269.3 759.8 1280.8 742.5 1281C715.1 1281.4 594.2 1268.5 569.5 1262.6C554.4 1259 542.6 1247 539.8 1231.8C539.7 1231.4 539.7 1231 539.6 1230.6Z" fill="#00C1EA" stroke="black" stroke-width="18.34" stroke-linecap="round" stroke-linejoin="round"/>
<path d="M609.402 1073.6C690.477 1073.6 756.202 1007.88 756.202 926.8C756.202 845.725 690.477 780 609.402 780C528.326 780 462.602 845.725 462.602 926.8C462.602 1007.88 528.326 1073.6 609.402 1073.6Z" fill="white" stroke="black" stroke-width="18.34" stroke-linecap="round" stroke-linejoin="round"/>
<path d="M723.003 1019.9C527.403 1061.9 464.103 947.7 497.403 832C475.703 857.6 462.703 890.7 462.703 926.8C462.703 1007.9 528.403 1073.6 609.503 1073.6C655.203 1073.6 696.003 1052.7 723.003 1019.9Z" fill="#B9B8B8"/>
<path d="M976.5 740.301C989.479 740.301 1000 729.779 1000 716.801C1000 703.822 989.479 693.301 976.5 693.301C963.521 693.301 953 703.822 953 716.801C953 729.779 963.521 740.301 976.5 740.301Z" fill="white" stroke="black" stroke-width="18.34" stroke-linecap="round" stroke-linejoin="round"/>
<path d="M928.6 901.1C962.345 901.1 989.7 873.745 989.7 840C989.7 806.256 962.345 778.9 928.6 778.9C894.855 778.9 867.5 806.256 867.5 840C867.5 873.745 894.855 901.1 928.6 901.1Z" fill="white" stroke="black" stroke-width="18.34" stroke-linecap="round" stroke-linejoin="round"/>
<path d="M756.305 1106.4C756.305 1106.4 830.605 951 960.505 995.8C979.605 1002.3 873.505 1008.8 756.305 1106.4Z" fill="#E41516" stroke="black" stroke-width="17.93" stroke-linecap="round" stroke-linejoin="round"/>
<path d="M609.402 1073.6C690.477 1073.6 756.202 1007.88 756.202 926.8C756.202 845.725 690.477 780 609.402 780C528.326 780 462.602 845.725 462.602 926.8C462.602 1007.88 528.326 1073.6 609.402 1073.6Z" stroke="black" stroke-width="18.34" stroke-linecap="round" stroke-linejoin="round"/>
<path d="M827.102 765.1C827.102 765.1 852.202 726.3 893.802 697.1C935.402 667.9 934.002 815 827.102 765.1Z" fill="#00C1EA" stroke="black" stroke-width="18.34" stroke-linecap="round" stroke-linejoin="round"/>
<path d="M756.302 786.899C756.302 786.899 715.702 757.099 662.002 743.599C608.302 730.099 666.702 879.099 756.302 786.899Z" fill="#00C1EA" stroke="black" stroke-width="18.34" stroke-linecap="round" stroke-linejoin="round"/>
<path d="M881.8 800.801C879.6 807.101 867.5 833.001 867.5 840.101C867.5 873.901 894.9 901.201 928.6 901.201C937.7 901.201 946.4 899.101 954.2 895.501L969.5 885.401C969.6 885.301 976.8 877.601 976.9 877.601C915.6 888.601 881.8 864.601 881.8 800.801Z" fill="#B9B8B8"/>
<path d="M586 1094C598.979 1094 609.5 1083.48 609.5 1070.5C609.5 1057.52 598.979 1047 586 1047C573.021 1047 562.5 1057.52 562.5 1070.5C562.5 1083.48 573.021 1094 586 1094Z" fill="#B8B8B8" stroke="black" stroke-width="18.34" stroke-linecap="round" stroke-linejoin="round"/>
<path d="M928.6 901.1C962.345 901.1 989.7 873.745 989.7 840C989.7 806.256 962.345 778.9 928.6 778.9C894.855 778.9 867.5 806.256 867.5 840C867.5 873.745 894.855 901.1 928.6 901.1Z" stroke="black" stroke-width="18.34" stroke-linecap="round" stroke-linejoin="round"/>
<path d="M829.305 770.6C848.605 766.9 855.405 778 867.205 775.5C951.605 757.9 844.705 777.1 854.405 731.5C840.705 751 829.205 738.1 829.305 770.6Z" fill="#008BA7"/>
<path d="M743.902 798.3C684.402 806 655.502 769.6 644.002 748.6C629.602 771.9 676.002 853.7 743.902 798.3Z" fill="#008BA7"/>
<path d="M827.102 765.1C827.102 765.1 852.202 726.3 893.802 697.1C935.402 667.9 934.002 815 827.102 765.1Z" stroke="black" stroke-width="18.34" stroke-linecap="round" stroke-linejoin="round"/>
<path d="M660.8 1263C653.1 1262.8 588.9 1248.2 570.8 1242.2C561.6 1239.1 549.3 1224.7 539.5 1211.4C537.4 1224.1 540.1 1236.1 543.3 1244.7C546.3 1252.8 553.1 1258.8 561.5 1260.8C584.2 1266.2 633.5 1277.7 653 1279.7C674 1281.9 726.1 1281.3 751.8 1280.9C761.6 1280.7 770.5 1275.1 774.6 1266.2C775.6 1264 776.5 1248.5 777.3 1246.4C753.8 1274.1 673.5 1263.4 660.8 1263Z" fill="#008BA7"/>
<path d="M756.302 786.899C756.302 786.899 715.702 757.099 662.002 743.599C608.302 730.099 666.702 879.099 756.302 786.899Z" stroke="black" stroke-width="18.34" stroke-linecap="round" stroke-linejoin="round"/>
<path d="M539.6 1230.6C535.1 1203.1 560.4 1179.9 587.6 1186.2C612.2 1191.9 645.6 1199.3 660.8 1200.9C677.6 1202.7 714.201 1202.7 741.401 1202.4C767.301 1202.1 786.9 1226.6 780.1 1251.5C780 1251.9 779.9 1252.3 779.8 1252.7C775 1269.3 759.8 1280.8 742.5 1281C715.1 1281.4 594.2 1268.5 569.5 1262.6C554.4 1259 542.6 1247 539.8 1231.8C539.7 1231.4 539.7 1231 539.6 1230.6Z" stroke="black" stroke-width="18.34" stroke-linecap="round" stroke-linejoin="round"/>
<path d="M639.102 1222.3C648.702 1224.4 662.503 1226.7 678.903 1226.9C686.503 1227 692.702 1233.2 692.602 1240.8C692.502 1248.4 686.303 1254.5 678.703 1254.5C672.803 1254.5 664.602 1254.1 653.602 1252.7C645.802 1251.7 638.803 1250.5 633.203 1249.3C626.003 1247.8 621.203 1240.9 622.403 1233.6C623.803 1225.7 631.402 1220.6 639.102 1222.3Z" fill="#AE00A8" stroke="black" stroke-width="13.99" stroke-linecap="round" stroke-linejoin="round"/>
</g>
</svg>
