<svg width="2000" height="2000" viewBox="0 0 2000 2000" fill="none" xmlns="http://www.w3.org/2000/svg">
<mask id="mask0_595_376" style="mask-type:luminance" maskUnits="userSpaceOnUse" x="0" y="0" width="2000" height="2000">
<path d="M2000 0H0V2000H2000V0Z" fill="white"/>
</mask>
<g mask="url(#mask0_595_376)">
<path d="M633.517 1163.95C682.861 1150.73 705.065 1073.59 683.111 991.652C661.157 909.714 603.358 854.008 554.014 867.229C504.669 880.45 482.465 957.592 504.42 1039.53C526.374 1121.47 584.173 1177.17 633.517 1163.95Z" fill="#EBF6F7" stroke="black" stroke-width="18.34" stroke-miterlimit="10"/>
<path d="M690.103 1078.7C682.003 1147.2 641.303 1161.9 633.603 1163.9C584.203 1177.1 526.403 1121.4 504.503 1039.5C493.803 999.502 493.603 960.502 502.103 929.602C504.503 1039.6 591.203 1205.3 690.103 1078.7Z" fill="#BAB9B9"/>
<path d="M633.517 1163.95C682.861 1150.73 705.065 1073.59 683.111 991.652C661.157 909.714 603.358 854.008 554.014 867.229C504.669 880.45 482.465 957.592 504.42 1039.53C526.374 1121.47 584.173 1177.17 633.517 1163.95Z" stroke="black" stroke-width="18.34" stroke-miterlimit="10"/>
<path d="M992.558 1042.27C1039.24 1021.37 1049.01 941.746 1014.39 864.421C979.778 787.097 913.877 741.353 867.2 762.25C820.523 783.146 810.746 862.77 845.363 940.094C879.98 1017.42 945.881 1063.16 992.558 1042.27Z" fill="#EBF6F7" stroke="black" stroke-width="18.34" stroke-miterlimit="10"/>
<path d="M1035.1 950.602C1036.2 993.202 1022 1028.1 993.998 1041.6C947.898 1063.7 881.798 1019.3 846.498 942.302C825.798 897.302 820.198 851.102 828.398 816.102C841.398 874.602 828.198 890.902 898.398 973.702C968.598 1056.5 1026.6 970.002 1035.1 950.602Z" fill="#BAB9B9"/>
<path d="M992.558 1042.27C1039.24 1021.37 1049.01 941.746 1014.39 864.421C979.778 787.097 913.877 741.353 867.2 762.25C820.523 783.146 810.746 862.77 845.363 940.094C879.98 1017.42 945.881 1063.16 992.558 1042.27Z" stroke="black" stroke-width="18.34" stroke-miterlimit="10"/>
<path d="M495.802 823.501C510.602 853.101 480.902 849.201 462.602 881.001C444.302 912.701 456.802 937.201 429.402 938.501C400.002 939.901 398.102 886.101 416.402 854.301C434.802 822.601 482.702 797.201 495.802 823.501Z" fill="url(#paint0_linear_595_376)" stroke="black" stroke-width="18.34" stroke-linecap="round" stroke-linejoin="round"/>
<path d="M442.001 826.502C415.101 884.702 426.901 901.702 448.801 923.302C446.201 932.302 442.101 937.902 429.401 938.502C399.901 939.902 398.101 886.102 416.401 854.302C422.501 843.802 431.801 834.002 442.001 826.502Z" fill="url(#paint1_linear_595_376)"/>
<path d="M495.802 823.501C510.602 853.101 480.902 849.201 462.602 881.001C444.302 912.701 456.802 937.201 429.402 938.501C400.002 939.901 398.102 886.101 416.402 854.301C434.802 822.601 482.702 797.201 495.802 823.501Z" stroke="black" stroke-width="18.34" stroke-miterlimit="10"/>
<path d="M907.401 705.901C917.301 736.701 933.501 712.201 965.601 720.001C997.701 727.801 1005.7 753.401 1023.8 734.101C1043.2 713.301 1009.5 675.801 977.301 668.001C945.301 660.201 898.601 678.501 907.401 705.901Z" fill="url(#paint2_linear_595_376)" stroke="black" stroke-width="18.34" stroke-linecap="round" stroke-linejoin="round"/>
<path d="M962.199 666.201C929.199 683.901 925.699 700.701 933.499 720.601C921.299 723.001 913.299 724.001 907.499 705.901C899.999 682.601 932.499 665.901 962.199 666.201Z" fill="url(#paint3_linear_595_376)"/>
<path d="M907.401 705.901C917.301 736.701 933.501 712.201 965.601 720.001C997.701 727.801 1005.7 753.401 1023.8 734.101C1043.2 713.301 1009.5 675.801 977.301 668.001C945.301 660.201 898.601 678.501 907.401 705.901Z" stroke="black" stroke-width="18.34" stroke-miterlimit="10"/>
<path d="M502 929.7C530.7 898.8 496.7 842.9 467 841.6" stroke="black" stroke-width="18.34" stroke-linecap="round" stroke-linejoin="round"/>
<path d="M524.701 885.601C566.101 879.301 557.601 775.701 480.801 773.801" stroke="black" stroke-width="18.34" stroke-linecap="round" stroke-linejoin="round"/>
<path d="M575.102 865.8C613.802 890.3 638.302 765.8 582.002 755.5" stroke="black" stroke-width="18.34" stroke-linecap="round" stroke-linejoin="round"/>
<path d="M833.902 798.599C874.402 783.499 828.002 697.9 794.602 700.3" stroke="black" stroke-width="18.34" stroke-linecap="round" stroke-linejoin="round"/>
<path d="M865.898 762.9C886.598 742.8 900.698 673.8 849.398 643.9" stroke="black" stroke-width="18.34" stroke-linecap="round" stroke-linejoin="round"/>
<path d="M884.602 757.6C936.602 773.8 956.402 700.8 908.402 643.9" stroke="black" stroke-width="18.34" stroke-linecap="round" stroke-linejoin="round"/>
<path d="M801.301 1086.2C801.301 1086.2 815.601 1109 831.701 1120.8C848.001 1132.9 885.801 1114.2 872.401 1096.9C859.001 1079.6 840.901 1082.4 840.901 1082.4" fill="#A97400"/>
<path d="M801.301 1086.2C801.301 1086.2 815.601 1109 831.701 1120.8C848.001 1132.9 885.801 1114.2 872.401 1096.9C859.001 1079.6 840.901 1082.4 840.901 1082.4" stroke="black" stroke-width="18.34" stroke-linecap="round" stroke-linejoin="round"/>
<path d="M801.301 1086.2C818.601 1070.7 805.901 1027 831.401 1027C856.901 1027 876.101 1060.7 848.701 1078C821.301 1095.3 801.301 1086.2 801.301 1086.2Z" fill="#A97400" stroke="black" stroke-width="18.34" stroke-linecap="round" stroke-linejoin="round"/>
</g>
<defs>
<linearGradient id="paint0_linear_595_376" x1="452.188" y1="812.557" x2="452.188" y2="938.528" gradientUnits="userSpaceOnUse">
<stop stop-color="#00D7AD"/>
<stop offset="1" stop-color="#FF2C10"/>
</linearGradient>
<linearGradient id="paint1_linear_595_376" x1="426.672" y1="826.502" x2="426.672" y2="938.529" gradientUnits="userSpaceOnUse">
<stop stop-color="#00D7AD"/>
<stop offset="1" stop-color="#FF2C10"/>
</linearGradient>
<linearGradient id="paint2_linear_595_376" x1="967.912" y1="666.191" x2="967.912" y2="741.152" gradientUnits="userSpaceOnUse">
<stop stop-color="#00D7AD"/>
<stop offset="1" stop-color="#FF2C10"/>
</linearGradient>
<linearGradient id="paint3_linear_595_376" x1="934.303" y1="666.197" x2="934.303" y2="721.905" gradientUnits="userSpaceOnUse">
<stop stop-color="#00D7AD"/>
<stop offset="1" stop-color="#FF2C10"/>
</linearGradient>
</defs>
</svg>
