<svg width="2000" height="2000" viewBox="0 0 2000 2000" fill="none" xmlns="http://www.w3.org/2000/svg">
<g clip-path="url(#clip0_258_309)">
<mask id="mask0_258_309" style="mask-type:luminance" maskUnits="userSpaceOnUse" x="0" y="0" width="2000" height="2000">
<path d="M2000 0H0V2000H2000V0Z" fill="white"/>
</mask>
<g mask="url(#mask0_258_309)">
<path d="M633.515 1163.95C682.859 1150.73 705.063 1073.59 683.109 991.652C661.154 909.714 603.356 854.008 554.011 867.229C504.667 880.45 482.463 957.592 504.417 1039.53C526.371 1121.47 584.17 1177.17 633.515 1163.95Z" fill="#EBF6F7" stroke="black" stroke-width="18.34" stroke-miterlimit="10"/>
<path d="M690.1 1078.7C682 1147.2 641.3 1161.9 633.6 1163.9C584.2 1177.1 526.4 1121.4 504.5 1039.5C493.8 999.502 493.6 960.502 502.1 929.602C504.5 1039.6 591.2 1205.3 690.1 1078.7Z" fill="#BAB9B9"/>
<path d="M633.515 1163.95C682.859 1150.73 705.063 1073.59 683.109 991.652C661.154 909.714 603.356 854.008 554.011 867.229C504.667 880.45 482.463 957.592 504.417 1039.53C526.371 1121.47 584.17 1177.17 633.515 1163.95Z" stroke="black" stroke-width="18.34" stroke-miterlimit="10"/>
<path d="M992.559 1042.27C1039.24 1021.37 1049.01 941.746 1014.4 864.421C979.779 787.097 913.878 741.353 867.201 762.25C820.524 783.146 810.747 862.77 845.364 940.094C879.981 1017.42 945.882 1063.16 992.559 1042.27Z" fill="#EBF6F7" stroke="black" stroke-width="18.34" stroke-miterlimit="10"/>
<path d="M1035.1 950.602C1036.2 993.202 1022 1028.1 994 1041.6C947.9 1063.7 881.8 1019.3 846.5 942.302C825.8 897.302 820.2 851.102 828.4 816.102C841.4 874.602 828.2 890.902 898.4 973.702C968.6 1056.5 1026.6 970.002 1035.1 950.602Z" fill="#BAB9B9"/>
<path d="M992.559 1042.27C1039.24 1021.37 1049.01 941.746 1014.4 864.421C979.779 787.097 913.878 741.353 867.201 762.25C820.524 783.146 810.747 862.77 845.364 940.094C879.981 1017.42 945.882 1063.16 992.559 1042.27Z" stroke="black" stroke-width="18.34" stroke-miterlimit="10"/>
<path d="M495.8 823.501C510.6 853.101 480.9 849.201 462.6 881.001C444.3 912.701 456.8 937.201 429.4 938.501C400 939.901 398.1 886.101 416.4 854.301C434.8 822.601 482.7 797.201 495.8 823.501Z" fill="#FFD13D" stroke="black" stroke-width="18.34" stroke-linecap="round" stroke-linejoin="round"/>
<path d="M442 826.502C415.1 884.702 426.9 901.702 448.8 923.302C446.2 932.302 442.1 937.902 429.4 938.502C399.9 939.902 398.1 886.102 416.4 854.302C422.5 843.802 431.8 834.002 442 826.502Z" fill="#FFD13D"/>
<path d="M495.8 823.501C510.6 853.101 480.9 849.201 462.6 881.001C444.3 912.701 456.8 937.201 429.4 938.501C400 939.901 398.1 886.101 416.4 854.301C434.8 822.601 482.7 797.201 495.8 823.501Z" stroke="black" stroke-width="18.34" stroke-miterlimit="10"/>
<path d="M907.4 705.901C917.3 736.701 933.5 712.201 965.6 720.001C997.7 727.801 1005.7 753.401 1023.8 734.101C1043.2 713.301 1009.5 675.801 977.3 668.001C945.3 660.201 898.6 678.501 907.4 705.901Z" fill="#FFD13D" stroke="black" stroke-width="18.34" stroke-linecap="round" stroke-linejoin="round"/>
<path d="M962.2 666.201C929.2 683.901 925.7 700.701 933.5 720.601C921.3 723.001 913.3 724.001 907.5 705.901C900 682.601 932.5 665.901 962.2 666.201Z" fill="#FFD13D"/>
<path d="M907.4 705.901C917.3 736.701 933.5 712.201 965.6 720.001C997.7 727.801 1005.7 753.401 1023.8 734.101C1043.2 713.301 1009.5 675.801 977.3 668.001C945.3 660.201 898.6 678.501 907.4 705.901Z" stroke="black" stroke-width="18.34" stroke-miterlimit="10"/>
<path d="M502 929.7C530.7 898.8 496.7 842.9 467 841.6" stroke="black" stroke-width="18.34" stroke-linecap="round" stroke-linejoin="round"/>
<path d="M524.7 885.601C566.1 879.301 557.6 775.701 480.8 773.801" stroke="black" stroke-width="18.34" stroke-linecap="round" stroke-linejoin="round"/>
<path d="M575.1 865.8C613.8 890.3 638.3 765.8 582 755.5" stroke="black" stroke-width="18.34" stroke-linecap="round" stroke-linejoin="round"/>
<path d="M833.9 798.599C874.4 783.499 828 697.9 794.6 700.3" stroke="black" stroke-width="18.34" stroke-linecap="round" stroke-linejoin="round"/>
<path d="M865.9 762.9C886.6 742.8 900.7 673.8 849.4 643.9" stroke="black" stroke-width="18.34" stroke-linecap="round" stroke-linejoin="round"/>
<path d="M884.6 757.6C936.6 773.8 956.4 700.8 908.4 643.9" stroke="black" stroke-width="18.34" stroke-linecap="round" stroke-linejoin="round"/>
<path d="M801.3 1086.2C801.3 1086.2 815.6 1109 831.7 1120.8C848 1132.9 885.8 1114.2 872.4 1096.9C859 1079.6 840.9 1082.4 840.9 1082.4" fill="#FF0085"/>
<path d="M801.3 1086.2C801.3 1086.2 815.6 1109 831.7 1120.8C848 1132.9 885.8 1114.2 872.4 1096.9C859 1079.6 840.9 1082.4 840.9 1082.4" stroke="black" stroke-width="18.34" stroke-linecap="round" stroke-linejoin="round"/>
<path d="M801.3 1086.2C818.6 1070.7 805.9 1027 831.4 1027C856.9 1027 876.1 1060.7 848.7 1078C821.3 1095.3 801.3 1086.2 801.3 1086.2Z" fill="#FF0085" stroke="black" stroke-width="18.34" stroke-linecap="round" stroke-linejoin="round"/>
</g>
</g>
<defs>
<clipPath id="clip0_258_309">
<rect width="2000" height="2000" fill="white"/>
</clipPath>
</defs>
</svg>
