<svg width="2000" height="2000" viewBox="0 0 2000 2000" fill="none" xmlns="http://www.w3.org/2000/svg">
<path d="M998.7 1057.3C992.3 1062.4 985.3 1066 977.5 1068.1C928.1 1081.3 870.4 1025.6 848.4 943.7C828.9 871 844.2 802.1 882.3 778.2C913.1 803.1 914.3 819.2 931.7 884.1C942.5 924.6 999.3 977.8 998.7 1057.3Z" fill="#2D1FC3"/>
<path d="M931.7 884.101C943.7 928.801 1011.5 988.801 996.6 1082.5" stroke="black" stroke-width="18.34" stroke-miterlimit="10" stroke-linecap="round"/>
<path d="M633.516 1190.85C682.86 1177.63 705.064 1100.49 683.11 1018.55C661.155 936.612 603.357 880.906 554.012 894.127C504.668 907.349 482.464 984.49 504.418 1066.43C526.372 1148.37 584.171 1204.07 633.516 1190.85Z" fill="#2D1FC3"/>
</svg>
