<svg width="2000" height="2000" viewBox="0 0 2000 2000" fill="none" xmlns="http://www.w3.org/2000/svg">
<mask id="mask0_595_284" style="mask-type:luminance" maskUnits="userSpaceOnUse" x="0" y="0" width="2000" height="2000">
<path d="M2000 0H0V2000H2000V0Z" fill="white"/>
</mask>
<g mask="url(#mask0_595_284)">
<path d="M489.398 984.501C489.398 984.501 590.898 782.601 625.598 843.501C660.298 904.301 489.398 984.501 489.398 984.501Z" fill="#FF0000"/>
<path d="M489.398 984.502C489.398 984.502 577.198 943.302 614.198 897.602C585.498 907.602 551.898 916.802 523.298 923.902C503.598 956.102 489.398 984.502 489.398 984.502Z" fill="#E25100"/>
<path d="M730.597 965.7C755.997 1020.8 743.997 1080.9 703.797 1100C663.597 1119.1 519.997 1115.2 520.297 1058.5C520.397 1034.3 601.297 960.1 641.497 941C681.697 921.9 705.197 910.7 730.597 965.7Z" fill="#ECF5F6" stroke="black" stroke-width="14.1" stroke-miterlimit="10"/>
<path d="M799.898 1010.4C799.898 1010.4 864.098 1020.8 889.798 968" stroke="black" stroke-width="16.03" stroke-linecap="round" stroke-linejoin="round"/>
<path d="M670.5 995.401L677.9 973.701" stroke="black" stroke-width="18.34" stroke-linecap="round" stroke-linejoin="round"/>
<path d="M654.199 1048.3L661.499 1026.6" stroke="black" stroke-width="18.34" stroke-linecap="round" stroke-linejoin="round"/>
<path d="M655.5 998.602L641.5 980.502" stroke="black" stroke-width="18.34" stroke-linecap="round" stroke-linejoin="round"/>
<path d="M692.1 1038.9L678 1020.8" stroke="black" stroke-width="18.34" stroke-linecap="round" stroke-linejoin="round"/>
<path d="M650.599 1014.3L627.699 1015.4" stroke="black" stroke-width="18.34" stroke-linecap="round" stroke-linejoin="round"/>
<path d="M704.599 1004.8L681.699 1005.9" stroke="black" stroke-width="18.34" stroke-linecap="round" stroke-linejoin="round"/>
<path d="M489.398 984.501C489.398 984.501 590.898 782.601 625.598 843.501C660.298 904.301 489.398 984.501 489.398 984.501Z" stroke="black" stroke-width="18.34" stroke-linecap="round" stroke-linejoin="round"/>
<path d="M524.498 1037.4C526.698 1047.2 528.698 1045.1 523.898 1054.6C497.298 1106.5 604.798 1114.8 639.198 1111C656.998 1109.1 714.698 1096.7 721.098 1078.8C631.898 1110.3 536.698 1089.3 524.498 1037.4Z" fill="#B9B8B8"/>
<path d="M730.599 965.7C755.999 1020.8 743.999 1080.9 703.799 1100C663.599 1119.1 510.899 1118.4 520.299 1058.5C525.399 1025.9 602.099 961.8 641.499 941C668.099 927 705.199 910.7 730.599 965.7Z" stroke="black" stroke-width="14.48" stroke-miterlimit="10"/>
<path d="M1003.1 815.9C1026.5 866.6 1015.4 921.9 978.397 939.5C941.397 957.1 826.697 950.6 809.497 901.3C792.197 851.9 884.097 810.7 921.097 793.1C958.097 775.5 979.697 765.2 1003.1 815.9Z" fill="#ECF5F6" stroke="black" stroke-width="12.98" stroke-miterlimit="10"/>
<path d="M947.898 843.201L954.698 823.201" stroke="black" stroke-width="16.89" stroke-linecap="round" stroke-linejoin="round"/>
<path d="M932.801 891.9L939.601 871.9" stroke="black" stroke-width="16.89" stroke-linecap="round" stroke-linejoin="round"/>
<path d="M934.002 846.202L921.102 829.502" stroke="black" stroke-width="16.89" stroke-linecap="round" stroke-linejoin="round"/>
<path d="M967.701 883.202L954.801 866.602" stroke="black" stroke-width="16.89" stroke-linecap="round" stroke-linejoin="round"/>
<path d="M929.5 860.602L908.5 861.602" stroke="black" stroke-width="16.89" stroke-linecap="round" stroke-linejoin="round"/>
<path d="M979.202 851.801L958.102 852.801" stroke="black" stroke-width="16.89" stroke-linecap="round" stroke-linejoin="round"/>
<path d="M810.999 882C812.999 891 814.998 878.8 810.498 887.5C785.998 935.3 887.298 953.1 918.898 949.7C935.298 947.9 988.398 936.5 994.298 920C912.298 949 822.199 929.7 810.999 882Z" fill="#B9B8B8"/>
<path d="M1003.1 815.9C1026.5 866.6 1015.4 921.9 978.399 939.5C941.399 957.1 828.499 953.8 809.499 901.3C792.199 853.7 884.799 812.3 921.099 793.1C945.599 780.2 979.699 765.2 1003.1 815.9Z" stroke="black" stroke-width="13.33" stroke-miterlimit="10"/>
<path d="M953.799 721.801C953.799 721.801 770.599 678.001 795.199 764.801C808.599 812.001 953.799 721.801 953.799 721.801Z" fill="#FF0000"/>
<path d="M880.097 758.8C880.097 758.8 859.597 768.5 817.197 778.5C787.697 768.9 786.797 750.2 799.897 734.4C817.197 778.5 880.097 758.8 880.097 758.8Z" fill="#E25100"/>
<path d="M953.8 721.8C953.8 721.8 760.9 699.9 795.2 764.8C818.5 808.9 953.8 721.8 953.8 721.8Z" stroke="black" stroke-width="18.34" stroke-linecap="round" stroke-linejoin="round"/>
</g>
</svg>
