<svg width="2000" height="2000" viewBox="0 0 2000 2000" fill="none" xmlns="http://www.w3.org/2000/svg">
<mask id="mask0_595_600" style="mask-type:luminance" maskUnits="userSpaceOnUse" x="0" y="0" width="2000" height="2000">
<path d="M2000 0H0V2000H2000V0Z" fill="white"/>
</mask>
<g mask="url(#mask0_595_600)">
<path d="M633.529 1163.93C682.873 1150.71 705.077 1073.56 683.123 991.627C661.169 909.689 603.37 853.982 554.025 867.204C504.681 880.425 482.477 957.567 504.431 1039.5C526.386 1121.44 584.184 1177.15 633.529 1163.93Z" fill="#EBF6F7" stroke="black" stroke-width="18.3395" stroke-miterlimit="9.9997"/>
<path d="M690.099 1078.7C681.999 1147.2 641.299 1161.9 633.599 1163.9C584.199 1177.1 526.399 1121.4 504.499 1039.5C493.799 999.5 493.599 960.5 502.099 929.6C504.499 1039.6 591.199 1205.3 690.099 1078.7Z" fill="#BAB9B9"/>
<path d="M633.529 1163.93C682.873 1150.71 705.077 1073.56 683.123 991.627C661.169 909.689 603.37 853.982 554.025 867.204C504.681 880.425 482.477 957.567 504.431 1039.5C526.386 1121.44 584.184 1177.15 633.529 1163.93Z" stroke="black" stroke-width="18.3395" stroke-miterlimit="9.9997"/>
<path d="M734.427 855.34C783.772 842.119 805.976 764.977 784.021 683.039C762.067 601.101 704.268 545.395 654.924 558.616C605.58 571.837 583.376 648.979 605.33 730.917C627.284 812.855 685.083 868.561 734.427 855.34Z" fill="#EBF6F7" stroke="black" stroke-width="18.3395" stroke-miterlimit="9.9997"/>
<path d="M791 770.1C782.9 838.6 742.2 853.3 734.5 855.3C685.1 868.5 627.3 812.8 605.4 730.9C594.7 690.9 594.5 651.9 603 621C605.4 730.9 692.1 896.7 791 770.1Z" fill="#BAB9B9"/>
<path d="M734.427 855.34C783.772 842.119 805.976 764.977 784.021 683.039C762.067 601.101 704.268 545.395 654.924 558.616C605.58 571.837 583.376 648.979 605.33 730.917C627.284 812.855 685.083 868.561 734.427 855.34Z" stroke="black" stroke-width="18.3395" stroke-miterlimit="9.9997"/>
<path d="M992.582 1042.29C1039.26 1021.39 1049.04 941.767 1014.42 864.443C979.802 787.118 913.9 741.375 867.223 762.271C820.546 783.167 810.769 862.791 845.386 940.116C880.003 1017.44 945.905 1063.18 992.582 1042.29Z" fill="#EBF6F7" stroke="black" stroke-width="18.3398" stroke-miterlimit="9.9999"/>
<path d="M1035.1 950.6C1036.2 993.2 1022 1028.1 994 1041.6C947.9 1063.7 881.8 1019.3 846.5 942.3C825.8 897.3 820.2 851.1 828.4 816.1C841.4 874.6 828.2 890.9 898.4 973.7C968.6 1056.5 1026.6 970 1035.1 950.6Z" fill="#BAB9B9"/>
<path d="M992.582 1042.29C1039.26 1021.39 1049.04 941.767 1014.42 864.443C979.802 787.118 913.9 741.375 867.223 762.271C820.546 783.167 810.769 862.791 845.386 940.116C880.003 1017.44 945.905 1063.18 992.582 1042.29Z" stroke="black" stroke-width="18.3398" stroke-miterlimit="9.9999"/>
<path d="M940.5 799.8C958.67 799.8 973.4 785.07 973.4 766.9C973.4 748.73 958.67 734 940.5 734C922.329 734 907.6 748.73 907.6 766.9C907.6 785.07 922.329 799.8 940.5 799.8Z" fill="#FF00A6" stroke="black" stroke-width="18.34" stroke-miterlimit="10"/>
<path d="M521.916 938.305C538.703 931.352 546.675 912.106 539.721 895.318C532.768 878.531 513.522 870.559 496.734 877.513C479.947 884.466 471.975 903.712 478.929 920.5C485.882 937.287 505.128 945.259 521.916 938.305Z" fill="#FF00A6" stroke="black" stroke-width="18.34" stroke-miterlimit="10"/>
</g>
<path d="M933.803 1165.2C933.703 1165.4 933.603 1165.6 933.403 1165.9C927.903 1175.4 914.103 1173.9 894.303 1159.2C886.903 1153.7 880.403 1151.1 874.803 1150.2C856.903 1147.4 848.303 1162.7 848.303 1162.7C838.303 1176.9 827.703 1188.3 817.303 1195.7C796.903 1210.2 777.103 1209.1 763.603 1182.3C759.703 1174.6 756.303 1164.9 753.503 1152.7C745.203 1115.9 746.903 1074 758.603 1044.2C761.203 1037.5 764.403 1031.5 768.003 1026.2C771.703 1020.7 776.003 1016.1 780.903 1012.6C793.603 1003.3 809.903 1001.4 830.003 1010.7C843.103 1016.8 854.803 1024.1 865.103 1032.2C890.303 1051.8 907.803 1075.7 919.003 1097.6C927.103 1113.3 932.103 1128 934.403 1139.3C936.903 1151 936.603 1159.7 933.803 1165.2Z" fill="#FF007A" stroke="black" stroke-width="18.3439" stroke-miterlimit="10"/>
<path d="M817.304 1195.7C796.904 1210.2 777.104 1209.1 763.604 1182.3C759.704 1174.6 756.304 1164.9 753.504 1152.7C741.404 1099.1 750.604 1034.7 780.904 1012.6C775.504 1053.7 777.304 1114.2 795.604 1159.4C801.204 1173.3 808.304 1185.7 817.304 1195.7Z" fill="#D10041"/>
<path d="M919.004 1097.6C910.404 1100.4 899.304 1101 887.504 1099.9C865.304 1097.9 858.104 1125.5 874.804 1150.2C856.904 1147.4 848.304 1162.7 848.304 1162.7C838.304 1176.9 827.704 1188.3 817.304 1195.7C796.904 1210.2 777.104 1209.1 763.604 1182.3C775.504 1178.4 786.604 1171.1 795.604 1159.4C804.804 1147.4 811.904 1131 815.404 1109C821.104 1072.9 842.004 1044.3 865.104 1032.2C885.504 1021.5 926.704 1010.2 941.504 1031.6C962.904 1062.6 937.004 1091.7 919.004 1097.6Z" fill="#FF0000" stroke="black" stroke-width="18.3439" stroke-miterlimit="10" stroke-linecap="round" stroke-linejoin="round"/>
<path d="M919.004 1097.6C927.104 1113.3 932.104 1128 934.404 1139.3C941.504 1172.9 925.304 1182.2 894.304 1159.2C886.904 1153.7 880.404 1151.1 874.804 1150.2C856.904 1147.4 848.304 1162.7 848.304 1162.7C838.304 1176.9 827.704 1188.3 817.304 1195.7C796.904 1210.2 777.104 1209.1 763.604 1182.3C759.704 1174.6 756.304 1164.9 753.504 1152.7C741.404 1099.1 750.604 1034.7 780.904 1012.6C793.604 1003.3 809.904 1001.4 830.004 1010.7C843.104 1016.8 854.804 1024.1 865.104 1032.2" stroke="black" stroke-width="18.3439" stroke-miterlimit="10"/>
<path d="M1105.5 937.999C1003.9 979.199 1036.4 1143.5 924.703 1162.3C922.803 1162.6 915.503 1163.5 899.903 1151.9C891.903 1146 883.903 1142.4 876.303 1141.2C857.603 1138.3 845.203 1150.1 840.603 1157.9C831.103 1171.3 821.203 1181.8 812.003 1188.4C805.903 1192.7 796.903 1197.5 788.803 1195.5C782.403 1193.9 776.703 1188.2 771.703 1178.4C768.103 1171.3 764.903 1162.1 762.403 1151C750.303 1097.5 761.003 1038.8 786.303 1020.2C797.203 1012.2 869.603 1012 875.003 943.499C891.303 736.999 1333.2 845.799 1105.5 937.999Z" fill="url(#paint0_linear_595_600)"/>
<defs>
<linearGradient id="paint0_linear_595_600" x1="757.467" y1="1010.64" x2="1170.55" y2="1010.64" gradientUnits="userSpaceOnUse">
<stop stop-color="white"/>
<stop offset="0.1442" stop-color="white" stop-opacity="0.8558"/>
<stop offset="1" stop-color="white" stop-opacity="0"/>
</linearGradient>
</defs>
</svg>
