<svg width="2000" height="2000" viewBox="0 0 2000 2000" fill="none" xmlns="http://www.w3.org/2000/svg">
<g clip-path="url(#clip0_276_3)">
<mask id="mask0_276_3" style="mask-type:luminance" maskUnits="userSpaceOnUse" x="0" y="0" width="2000" height="2000">
<path d="M2000 0H0V2000H2000V0Z" fill="white"/>
</mask>
<g mask="url(#mask0_276_3)">
<path d="M633.529 1163.93C682.873 1150.71 705.077 1073.56 683.123 991.627C661.169 909.689 603.37 853.982 554.025 867.204C504.681 880.425 482.477 957.567 504.431 1039.5C526.386 1121.44 584.184 1177.15 633.529 1163.93Z" fill="#EBF6F7" stroke="black" stroke-width="18.3395" stroke-miterlimit="9.9997"/>
<path d="M690.099 1078.7C681.999 1147.2 641.299 1161.9 633.599 1163.9C584.199 1177.1 526.399 1121.4 504.499 1039.5C493.799 999.5 493.599 960.5 502.099 929.6C504.499 1039.6 591.199 1205.3 690.099 1078.7Z" fill="#BAB9B9"/>
<path d="M633.529 1163.93C682.873 1150.71 705.077 1073.56 683.123 991.627C661.169 909.689 603.37 853.982 554.025 867.204C504.681 880.425 482.477 957.567 504.431 1039.5C526.386 1121.44 584.184 1177.15 633.529 1163.93Z" stroke="black" stroke-width="18.3395" stroke-miterlimit="9.9997"/>
<path d="M734.427 855.34C783.772 842.119 805.976 764.977 784.021 683.039C762.067 601.101 704.268 545.395 654.924 558.616C605.58 571.837 583.376 648.979 605.33 730.917C627.284 812.855 685.083 868.561 734.427 855.34Z" fill="#EBF6F7" stroke="black" stroke-width="18.3395" stroke-miterlimit="9.9997"/>
<path d="M791 770.1C782.9 838.6 742.2 853.3 734.5 855.3C685.1 868.5 627.3 812.8 605.4 730.9C594.7 690.9 594.5 651.9 603 621C605.4 730.9 692.1 896.7 791 770.1Z" fill="#BAB9B9"/>
<path d="M734.427 855.34C783.772 842.119 805.976 764.977 784.021 683.039C762.067 601.101 704.268 545.395 654.924 558.616C605.58 571.837 583.376 648.979 605.33 730.917C627.284 812.855 685.083 868.561 734.427 855.34Z" stroke="black" stroke-width="18.3395" stroke-miterlimit="9.9997"/>
<path d="M992.582 1042.29C1039.26 1021.39 1049.04 941.767 1014.42 864.443C979.802 787.118 913.9 741.375 867.223 762.271C820.546 783.167 810.769 862.791 845.386 940.116C880.003 1017.44 945.905 1063.18 992.582 1042.29Z" fill="#EBF6F7" stroke="black" stroke-width="18.3398" stroke-miterlimit="9.9999"/>
<path d="M1035.1 950.6C1036.2 993.2 1022 1028.1 994 1041.6C947.9 1063.7 881.8 1019.3 846.5 942.3C825.8 897.3 820.2 851.1 828.4 816.1C841.4 874.6 828.2 890.9 898.4 973.7C968.6 1056.5 1026.6 970 1035.1 950.6Z" fill="#BAB9B9"/>
<path d="M992.582 1042.29C1039.26 1021.39 1049.04 941.767 1014.42 864.443C979.802 787.118 913.9 741.375 867.223 762.271C820.546 783.167 810.769 862.791 845.386 940.116C880.003 1017.44 945.905 1063.18 992.582 1042.29Z" stroke="black" stroke-width="18.3398" stroke-miterlimit="9.9999"/>
<path d="M940.5 799.8C958.67 799.8 973.4 785.07 973.4 766.9C973.4 748.73 958.67 734 940.5 734C922.329 734 907.6 748.73 907.6 766.9C907.6 785.07 922.329 799.8 940.5 799.8Z" fill="#68EBCB" stroke="black" stroke-width="18.34" stroke-miterlimit="10"/>
<path d="M521.916 938.305C538.703 931.352 546.675 912.106 539.721 895.318C532.768 878.531 513.522 870.559 496.734 877.513C479.947 884.466 471.975 903.712 478.929 920.5C485.882 937.287 505.128 945.259 521.916 938.305Z" fill="#68EBCB" stroke="black" stroke-width="18.34" stroke-miterlimit="10"/>
</g>
<path d="M933.801 1165.2C933.701 1165.4 933.601 1165.6 933.401 1165.9C927.901 1175.4 914.101 1173.9 894.301 1159.2C886.901 1153.7 880.401 1151.1 874.801 1150.2C856.901 1147.4 848.301 1162.7 848.301 1162.7C838.301 1176.9 827.701 1188.3 817.301 1195.7C796.901 1210.2 777.101 1209.1 763.601 1182.3C759.701 1174.6 756.301 1164.9 753.501 1152.7C745.201 1115.9 746.901 1074 758.601 1044.2C761.201 1037.5 764.401 1031.5 768.001 1026.2C771.701 1020.7 776.001 1016.1 780.901 1012.6C793.601 1003.3 809.901 1001.4 830.001 1010.7C843.101 1016.8 854.801 1024.1 865.101 1032.2C890.301 1051.8 907.801 1075.7 919.001 1097.6C927.101 1113.3 932.101 1128 934.401 1139.3C936.901 1151 936.601 1159.7 933.801 1165.2Z" fill="#FF007A" stroke="black" stroke-width="18.3439" stroke-miterlimit="10"/>
<path d="M817.302 1195.7C796.902 1210.2 777.102 1209.1 763.602 1182.3C759.702 1174.6 756.302 1164.9 753.502 1152.7C741.402 1099.1 750.602 1034.7 780.902 1012.6C775.502 1053.7 777.302 1114.2 795.602 1159.4C801.202 1173.3 808.302 1185.7 817.302 1195.7Z" fill="#D10041"/>
<path d="M919.002 1097.6C910.402 1100.4 899.302 1101 887.502 1099.9C865.302 1097.9 858.102 1125.5 874.802 1150.2C856.902 1147.4 848.302 1162.7 848.302 1162.7C838.302 1176.9 827.702 1188.3 817.302 1195.7C796.902 1210.2 777.102 1209.1 763.602 1182.3C775.502 1178.4 786.602 1171.1 795.602 1159.4C804.802 1147.4 811.902 1131 815.402 1109C821.102 1072.9 842.002 1044.3 865.102 1032.2C885.502 1021.5 926.702 1010.2 941.502 1031.6C962.902 1062.6 937.002 1091.7 919.002 1097.6Z" fill="#FF0000" stroke="black" stroke-width="18.3439" stroke-miterlimit="10" stroke-linecap="round" stroke-linejoin="round"/>
<path d="M919.002 1097.6C927.102 1113.3 932.102 1128 934.402 1139.3C941.502 1172.9 925.302 1182.2 894.302 1159.2C886.902 1153.7 880.402 1151.1 874.802 1150.2C856.902 1147.4 848.302 1162.7 848.302 1162.7C838.302 1176.9 827.702 1188.3 817.302 1195.7C796.902 1210.2 777.102 1209.1 763.602 1182.3C759.702 1174.6 756.302 1164.9 753.502 1152.7C741.402 1099.1 750.602 1034.7 780.902 1012.6C793.602 1003.3 809.902 1001.4 830.002 1010.7C843.102 1016.8 854.802 1024.1 865.102 1032.2" stroke="black" stroke-width="18.3439" stroke-miterlimit="10"/>
<path d="M1105.5 937.999C1003.9 979.199 1036.4 1143.5 924.701 1162.3C922.801 1162.6 915.501 1163.5 899.901 1151.9C891.901 1146 883.901 1142.4 876.301 1141.2C857.601 1138.3 845.201 1150.1 840.601 1157.9C831.101 1171.3 821.201 1181.8 812.001 1188.4C805.901 1192.7 796.901 1197.5 788.801 1195.5C782.401 1193.9 776.701 1188.2 771.701 1178.4C768.101 1171.3 764.901 1162.1 762.401 1151C750.301 1097.5 761.001 1038.8 786.301 1020.2C797.201 1012.2 869.601 1012 875.001 943.499C891.301 736.999 1333.2 845.799 1105.5 937.999Z" fill="url(#paint0_linear_276_3)"/>
</g>
<defs>
<linearGradient id="paint0_linear_276_3" x1="757.465" y1="1010.64" x2="1170.55" y2="1010.64" gradientUnits="userSpaceOnUse">
<stop stop-color="white"/>
<stop offset="0.1442" stop-color="white" stop-opacity="0.8558"/>
<stop offset="1" stop-color="white" stop-opacity="0"/>
</linearGradient>
<clipPath id="clip0_276_3">
<rect width="2000" height="2000" fill="white"/>
</clipPath>
</defs>
</svg>
