<svg width="2000" height="2000" viewBox="0 0 2000 2000" fill="none" xmlns="http://www.w3.org/2000/svg">
<g clip-path="url(#clip0_258_447)">
<mask id="mask0_258_447" style="mask-type:luminance" maskUnits="userSpaceOnUse" x="0" y="0" width="2000" height="2000">
<path d="M2000 0H0V2000H2000V0Z" fill="white"/>
</mask>
<g mask="url(#mask0_258_447)">
<path d="M872.499 702.601C886.399 696.101 878.099 674.901 863.299 679.301C824.799 690.701 731.599 693.101 749.899 718.801C770.399 747.601 820.099 719.001 860.799 707.001C865.299 705.601 869.199 704.101 872.499 702.601Z" fill="#FFC600"/>
<path d="M748 713.6C748.4 714.8 749 716 749.9 717.3C766.9 741.1 803.8 725.6 839.1 712.8C846.3 707.3 850.9 703.5 850.9 703.5C844.6 708 782.6 710.9 748 713.6Z" fill="#FDA100"/>
<path d="M489.7 991.601C482.1 1005 461.7 995.001 467.2 980.601C481.5 943.101 491 850.301 515.3 870.601C542.5 893.301 510.1 940.601 495 980.301C493.2 984.701 491.5 988.501 489.7 991.601Z" fill="#FFC600"/>
<path d="M471.6 959.201C469.3 968.401 466.9 976.701 464.4 983.401C458.9 997.801 479.3 1007.8 486.9 994.401C488.7 991.201 490.4 987.501 492.1 983.101C496.8 970.601 503.3 957.401 509.1 944.401C509.5 935.001 509.5 928.701 509.5 928.701C492.7 957.401 480.3 963.401 471.6 959.201Z" fill="#FDA100"/>
<path d="M758.8 854.902C749.5 857.802 741.8 847.202 747.6 839.302C769.7 809.302 817.2 762.902 894.8 775.502C1007.5 793.802 925.299 823.902 883.1 819.502C827.2 813.602 799.3 842.102 758.8 854.902Z" fill="white"/>
<path d="M680.5 903.2C687.1 894 678.1 881.7 667.4 885.2C626.3 898.6 558.1 934.1 543.9 1024.1C523.2 1154.8 586.1 1075.2 596.5 1027.2C610.3 963.6 651.8 943.2 680.5 903.2Z" fill="white"/>
<path d="M583.1 1008.1C557.3 1076.9 544.1 1078.7 537.4 1061.6L541.5 1096.3C553.8 1113.4 586.3 1064.9 593.5 1031.6C607.3 968 648.7 947.6 677.5 907.6C677.9 907.1 678.2 906.6 678.5 906C643.5 918.5 606.1 946.8 583.1 1008.1Z" fill="#B9B8B8"/>
<path d="M680.5 903.2C687.1 894 678.1 881.7 667.4 885.2C626.3 898.6 558.1 934.1 543.9 1024.1C523.2 1154.8 586.1 1075.2 596.5 1027.2C610.3 963.6 651.8 943.2 680.5 903.2Z" stroke="black" stroke-width="18.34" stroke-linecap="round" stroke-linejoin="round"/>
<path d="M489.7 991.601C482.1 1005 461.7 995.001 467.2 980.601C481.5 943.101 491 850.301 515.3 870.601C542.5 893.301 510.1 940.601 495 980.301C493.2 984.701 491.5 988.501 489.7 991.601Z" stroke="black" stroke-width="18.34" stroke-miterlimit="10" stroke-linejoin="round"/>
<path d="M872.499 702.601C886.399 696.101 878.099 674.901 863.299 679.301C824.799 690.701 731.599 693.101 749.899 718.801C770.399 747.601 820.099 719.001 860.799 707.001C865.299 705.601 869.199 704.101 872.499 702.601Z" stroke="black" stroke-width="18.34" stroke-miterlimit="10" stroke-linejoin="round"/>
<path d="M740.1 1141.6C740.1 1141.6 798.5 968.201 932.4 981.401C934.5 986.5 843.8 1060.5 740.1 1141.6Z" fill="#FF0402" stroke="black" stroke-width="18.34" stroke-linecap="round" stroke-linejoin="round"/>
<path d="M744.299 852.202C746.599 855.802 750.999 858.102 755.899 856.502C796.499 843.702 824.399 815.202 880.299 821.102C912.399 824.502 967.899 807.802 942.499 791.602C932.199 801.202 897.199 804.102 853.999 805.702C826.399 806.702 773.499 833.802 744.299 852.202Z" fill="#B9B8B8"/>
<path d="M758.8 854.902C749.5 857.802 741.8 847.202 747.6 839.302C769.7 809.302 817.2 762.902 894.8 775.502C1007.5 793.802 925.3 823.902 883.1 819.502C827.2 813.602 799.3 842.102 758.8 854.902Z" stroke="black" stroke-width="18.34" stroke-linecap="round" stroke-linejoin="round"/>
</g>
</g>
<defs>
<clipPath id="clip0_258_447">
<rect width="2000" height="2000" fill="white"/>
</clipPath>
</defs>
</svg>
