<svg width="2000" height="2000" viewBox="0 0 2000 2000" fill="none" xmlns="http://www.w3.org/2000/svg">
<path d="M553.703 1101.4C553.703 1101.4 630.303 1127.6 681.303 1044C744.103 941 678.203 890.4 678.203 890.4L553.703 1101.4Z" fill="#31AEFF"/>
<path d="M929.002 865.8C918.002 836.9 913.502 821.8 903.902 810.1L746.602 848.3C746.602 848.3 774.302 892.7 883.002 878C902.202 875.4 910.902 869.3 923.002 864.1C921.602 861.8 929.902 868.1 929.002 865.8Z" fill="#31AEFF"/>
<path d="M911.5 814.8C918.7 830.5 923.3 851.3 932.7 886.4C934.6 893.4 937.8 900.7 941.9 908.5" stroke="black" stroke-width="18.34" stroke-miterlimit="10" stroke-linecap="round" stroke-linejoin="round"/>
</svg>
