<svg width="2000" height="2000" viewBox="0 0 2000 2000" fill="none" xmlns="http://www.w3.org/2000/svg">
<g clip-path="url(#clip0_258_416)">
<mask id="mask0_258_416" style="mask-type:luminance" maskUnits="userSpaceOnUse" x="0" y="0" width="2000" height="2000">
<path d="M2000 0H0V2000H2000V0Z" fill="white"/>
</mask>
<g mask="url(#mask0_258_416)">
<path d="M633.515 1163.95C682.859 1150.73 705.063 1073.59 683.109 991.65C661.155 909.712 603.356 854.006 554.012 867.227C504.667 880.448 482.463 957.59 504.418 1039.53C526.372 1121.47 584.171 1177.17 633.515 1163.95Z" fill="#EBF6F7" stroke="black" stroke-width="18.34" stroke-miterlimit="10"/>
<path d="M618.038 1106.19C648.178 1098.12 661.743 1051.01 648.336 1000.97C634.929 950.931 599.627 916.914 569.487 924.989C539.347 933.065 525.783 980.175 539.189 1030.21C552.596 1080.25 587.898 1114.27 618.038 1106.19Z" fill="#EBF6F7" stroke="black" stroke-width="18.34" stroke-miterlimit="10"/>
<path d="M604.529 1055.77C617.919 1052.18 623.953 1031.29 618.007 1009.09C612.061 986.902 596.387 971.821 582.997 975.408C569.607 978.996 563.573 999.894 569.519 1022.09C575.465 1044.28 591.14 1059.36 604.529 1055.77Z" fill="#EBF6F7" stroke="black" stroke-width="18.34" stroke-miterlimit="10"/>
<path d="M992.559 1042.27C1039.24 1021.37 1049.01 941.746 1014.4 864.421C979.779 787.097 913.878 741.353 867.201 762.25C820.524 783.146 810.747 862.77 845.364 940.094C879.981 1017.42 945.882 1063.16 992.559 1042.27Z" fill="#EBF6F7" stroke="black" stroke-width="18.34" stroke-miterlimit="10"/>
<path d="M971.032 998.598C1003.19 984.887 1010.86 930.61 988.159 877.366C965.458 824.123 920.986 792.076 888.826 805.787C856.667 819.498 848.999 873.775 871.699 927.019C894.4 980.262 938.872 1012.31 971.032 998.598Z" fill="#EBF6F7" stroke="black" stroke-width="18.34" stroke-miterlimit="10"/>
<path d="M950.558 950.579C966.714 943.691 970.575 916.443 959.181 889.72C947.788 862.997 925.455 846.917 909.299 853.805C893.143 860.693 889.282 887.941 900.676 914.664C912.069 941.387 934.402 957.467 950.558 950.579Z" fill="#EBF6F7" stroke="black" stroke-width="18.34" stroke-miterlimit="10"/>
<path d="M511.7 930.999C503.4 955.199 509.1 972.999 504.3 983.799C502.2 988.499 498.1 991.799 490.1 993.699C461.5 1000.7 449.3 948.199 461.3 913.599C464.7 903.799 470.4 894.099 477.4 885.699C495.1 864.299 520.4 851.499 533.3 868.199C553.5 894.399 523.6 896.299 511.7 930.999Z" fill="#331DD1"/>
<path d="M504.3 983.799C502.2 988.499 498.1 991.799 490.1 993.699C461.5 1000.7 449.3 948.199 461.3 913.599C464.7 903.799 470.4 894.099 477.4 885.699C465.8 955.499 493 957.099 504.3 983.799Z" fill="#331DD1"/>
<path d="M533.3 868.2C553.5 894.4 523.6 896.3 511.7 931C499.8 965.7 516.7 987.3 490.1 993.8C461.5 1000.8 449.3 948.3 461.3 913.7C473.2 879 515.3 844.9 533.3 868.2Z" stroke="black" stroke-width="18.34" stroke-linecap="round" stroke-linejoin="round"/>
<path d="M994.1 804.9C971 819.7 967.1 792.5 933.8 777.3C921.2 771.5 910.2 770.8 901.1 770.5C886.3 769.9 876.6 770 873.5 749.7C869.1 721.3 920.1 713.9 953.6 727.8C954.4 728.1 955.3 728.5 956.1 728.8C989.2 744 1018.9 788.9 994.1 804.9Z" fill="#331DD1"/>
<path d="M953.501 727.7C918.101 730.2 901.301 740.6 901.001 770.4C886.201 769.8 876.501 769.9 873.401 749.6C869.001 721.2 920.001 713.8 953.501 727.7Z" fill="#331DD1"/>
<path d="M873.4 749.6C878.5 782.3 900.4 762 933.8 777.2C967.1 792.4 971.1 819.6 994.2 804.8C1019 788.9 989.4 743.9 956 728.7C922.6 713.5 868.9 720.5 873.4 749.6Z" stroke="black" stroke-width="18.34" stroke-linecap="round" stroke-linejoin="round"/>
<path d="M848.201 1190.1C845.301 1191.1 842.301 1192.1 839.401 1193C797.101 1205.6 757.101 1200.1 740.301 1180.4C737.601 1177.2 735.501 1173.6 734.101 1169.6C723.501 1139.7 757.501 1100.5 810.001 1081.9C862.501 1063.3 913.601 1072.5 924.101 1102.4C934.701 1132.3 900.701 1171.6 848.201 1190.1Z" fill="#FF0085" stroke="black" stroke-width="18.34" stroke-linecap="round" stroke-linejoin="round"/>
<path d="M839.401 1193C818.001 1199.3 797.101 1201.1 779.601 1198.7C764.401 1196.6 751.601 1191.5 743.201 1183.4C742.201 1182.5 741.201 1181.5 740.301 1180.4C743.101 1162.4 769.601 1140.4 806.001 1127.5C848.601 1112.4 888.701 1115.6 895.401 1134.7C901.701 1152.3 877.001 1177.4 839.401 1193Z" fill="#FF002F" stroke="black" stroke-width="18.34" stroke-linecap="round" stroke-linejoin="round"/>
<path d="M789.901 1196.3C786.401 1197.3 783.001 1198.1 779.701 1198.6C764.501 1196.5 751.701 1191.4 743.301 1183.3C748.301 1176 759.301 1168.4 773.201 1163.5C794.501 1155.9 814.501 1157.6 817.901 1167.1C821.001 1176 808.701 1188.6 789.901 1196.3Z" fill="#FF002F" stroke="black" stroke-width="18.34" stroke-linecap="round" stroke-linejoin="round"/>
</g>
</g>
<defs>
<clipPath id="clip0_258_416">
<rect width="2000" height="2000" fill="white"/>
</clipPath>
</defs>
</svg>
