<svg width="2000" height="2000" viewBox="0 0 2000 2000" fill="none" xmlns="http://www.w3.org/2000/svg">
<path d="M991.901 1057.9C953.401 1091.5 856.901 1036.3 848.401 947.6C841.201 872.7 844.201 806 882.301 782.1C913.101 807 914.301 823.1 931.701 888C942.601 928.6 1036.5 1018.9 991.901 1057.9Z" fill="#AE00A8"/>
<path d="M633.529 1190.83C682.873 1177.61 705.077 1100.46 683.123 1018.53C661.169 936.588 603.37 880.882 554.025 894.103C504.681 907.324 482.477 984.466 504.431 1066.4C526.386 1148.34 584.184 1204.05 633.529 1190.83Z" fill="#AE00A8"/>
<path d="M869.102 768.2C913.102 799.9 912.102 811 931.702 884.1C942.502 924.6 999.302 977.7 998.702 1057.2" stroke="black" stroke-width="18.34" stroke-miterlimit="10" stroke-linecap="round" stroke-linejoin="round"/>
</svg>
