<svg width="2000" height="2000" viewBox="0 0 2000 2000" fill="none" xmlns="http://www.w3.org/2000/svg">
<mask id="mask0_595_412" style="mask-type:luminance" maskUnits="userSpaceOnUse" x="0" y="0" width="2000" height="2000">
<path d="M2000 0H0V2000H2000V0Z" fill="white"/>
</mask>
<g mask="url(#mask0_595_412)">
<path d="M679.205 1120C662.505 1127 642.905 1136.6 622.905 1148.6C615.305 1153.1 607.705 1157.9 600.105 1163.1C582.205 1157.7 564.405 1145 548.805 1126.9C561.905 1115.2 574.405 1102.8 586.205 1090.2C624.105 1049.7 654.505 1006.1 675.705 968.301C678.505 975.801 681.005 983.701 683.205 991.701C696.205 1040.2 693.605 1087.1 679.205 1120Z" fill="white"/>
<path d="M622.803 1148.6C615.203 1153.1 607.603 1157.9 600.003 1163.1C582.103 1157.7 564.303 1145 548.703 1126.9C561.803 1115.2 562.603 1115.5 574.303 1102.8C573.303 1126.8 596.403 1142.6 622.803 1148.6Z" fill="#BBBBBB"/>
<path d="M679.205 1120C656.105 1129.7 627.705 1144.2 600.105 1163.1C582.205 1157.7 564.405 1145 548.805 1126.9C604.205 1077.4 648.005 1017.9 675.705 968.301C678.505 975.801 681.005 983.701 683.205 991.701C696.205 1040.2 693.605 1087.1 679.205 1120Z" stroke="black" stroke-width="18.34" stroke-linecap="round" stroke-linejoin="round"/>
<path d="M1034.6 968.9C1031.9 1001.1 1019.4 1027.1 997.902 1039.5C996.602 1040.3 995.302 1041 993.902 1041.6C992.902 1042 992.002 1042.5 991.002 1042.9C989.202 1042.6 987.402 1042.4 985.602 1042.2C968.802 1040.1 953.402 1040.2 939.802 1041.7C905.002 1028.4 869.202 992.2 846.402 942.4C842.702 934.3 839.402 926.1 836.602 917.9C874.602 941.1 925.102 955.1 972.902 962.6C984.502 964.4 996.002 965.8 1007.1 966.9C1016.6 967.8 1025.8 968.5 1034.6 968.9Z" fill="white"/>
<path d="M850.203 933.201C855.203 980.401 887.703 1016.4 917.403 1036.6C919.603 1038.1 922.203 1038.8 924.703 1039.7C926.503 1040.4 928.203 1041 930.003 1041.6C933.303 1041.2 942.403 1039.4 945.603 1039.1C910.803 1012.5 880.103 976.801 888.003 941.701C870.703 943.101 866.303 932.601 850.203 933.201Z" fill="#BBBBBB"/>
<path d="M1034.6 968.9C1031.9 1001.1 1019.4 1027.1 997.902 1039.5C996.602 1040.3 995.302 1041 993.902 1041.6C992.902 1042 992.002 1042.5 991.002 1042.9C972.202 1040.1 954.902 1040 939.802 1041.7C905.002 1028.4 869.202 992.2 846.402 942.4C842.702 934.3 839.402 926.1 836.602 917.9C874.602 941.1 925.102 955.1 972.902 962.6C994.502 966 1015.5 968 1034.6 968.9Z" stroke="black" stroke-width="18.34" stroke-linecap="round" stroke-linejoin="round"/>
<path d="M548.801 1126.8C539.801 1134.9 530.401 1142.7 520.801 1150.2" stroke="black" stroke-width="18.34" stroke-linecap="round" stroke-linejoin="round"/>
<path d="M1034.6 968.9C1041.8 969.2 1048.7 969.4 1055.3 969.5" stroke="black" stroke-width="18.34" stroke-linecap="round" stroke-linejoin="round"/>
<path d="M532.102 1063.9C532.102 1073.6 528.302 1082.4 522.002 1088.8C515.502 1095.4 506.502 1099.4 496.602 1099.4C477.002 1099.4 461.102 1083.5 461.102 1063.9C461.102 1053.7 465.402 1044.5 472.402 1038C478.802 1032.1 487.302 1028.5 496.602 1028.5C516.202 1028.4 532.102 1044.3 532.102 1063.9Z" fill="url(#paint0_linear_595_412)"/>
<path d="M522.002 1088.8C515.502 1095.4 506.502 1099.4 496.602 1099.4C477.002 1099.4 461.102 1083.5 461.102 1063.9C461.102 1053.7 465.402 1044.5 472.402 1038C480.502 1062.3 497.702 1081.4 522.002 1088.8Z" fill="#FF0085"/>
<path d="M496.602 1099.4C516.208 1099.4 532.102 1083.51 532.102 1063.9C532.102 1044.29 516.208 1028.4 496.602 1028.4C476.995 1028.4 461.102 1044.29 461.102 1063.9C461.102 1083.51 476.995 1099.4 496.602 1099.4Z" stroke="black" stroke-width="18.34" stroke-linecap="round" stroke-linejoin="round"/>
<path d="M1066.9 901.001C1066.9 910.401 1062.1 918.701 1054.9 923.501C1050.6 926.401 1045.4 928.101 1039.7 928.101C1024.7 928.101 1012.5 916.001 1012.5 900.901C1012.5 890.301 1018.5 881.201 1027.3 876.701C1031 874.801 1035.2 873.701 1039.7 873.701C1054.8 873.801 1066.9 886.001 1066.9 901.001Z" fill="url(#paint1_linear_595_412)"/>
<path d="M1054.9 923.501C1050.6 926.401 1045.4 928.101 1039.7 928.101C1024.7 928.101 1012.5 916.001 1012.5 900.901C1012.5 890.301 1018.5 881.201 1027.3 876.701C1034 894.301 1043.2 910.501 1054.9 923.501Z" fill="#FF0085"/>
<path d="M1066.64 905.313C1069.04 890.485 1058.97 876.513 1044.15 874.106C1029.32 871.7 1015.35 881.77 1012.94 896.598C1010.53 911.426 1020.6 925.398 1035.43 927.805C1050.26 930.211 1064.23 920.141 1066.64 905.313Z" stroke="black" stroke-width="18.34" stroke-linecap="round" stroke-linejoin="round"/>
<path d="M875 1111.1C826.1 1044.3 777.2 1130.7 758.5 1186.3C758.5 1186.3 822.6 1071.3 875 1111.1Z" fill="#A3E8CF"/>
<path d="M753.5 1190.7C773.9 1130.1 827 1036.3 880.1 1108.9" stroke="black" stroke-width="18.34" stroke-linecap="round" stroke-linejoin="round"/>
</g>
<defs>
<linearGradient id="paint0_linear_595_412" x1="461.132" y1="1063.92" x2="532.122" y2="1063.92" gradientUnits="userSpaceOnUse">
<stop stop-color="#FF0036"/>
<stop offset="1" stop-color="#F269FF"/>
</linearGradient>
<linearGradient id="paint1_linear_595_412" x1="1012.57" y1="900.996" x2="1066.91" y2="900.996" gradientUnits="userSpaceOnUse">
<stop stop-color="#FF0036"/>
<stop offset="1" stop-color="#F269FF"/>
</linearGradient>
</defs>
</svg>
