<svg width="2000" height="2000" viewBox="0 0 2000 2000" fill="none" xmlns="http://www.w3.org/2000/svg">
<g clip-path="url(#clip0_429_138)">
<mask id="mask0_429_138" style="mask-type:luminance" maskUnits="userSpaceOnUse" x="0" y="0" width="2000" height="2000">
<path d="M2000 0H0V2000H2000V0Z" fill="white"/>
</mask>
<g mask="url(#mask0_429_138)">
<path d="M527.699 955.331C527.699 955.331 684.579 1026.96 749.109 919.291" stroke="black" stroke-width="18.34" stroke-linecap="round" stroke-linejoin="round"/>
<path d="M838.059 867.771C838.059 867.771 907.039 880.161 915.269 824.791" stroke="black" stroke-width="18.34" stroke-linecap="round" stroke-linejoin="round"/>
<path d="M762.899 1030.17C762.899 1030.17 829.489 1054.63 854.629 1025.41C879.769 996.19 890.639 975.9 890.639 975.9L910.179 1019.65C910.179 1019.65 873.649 1072.87 828.129 1076.99C782.609 1081.11 749.109 1066.96 749.109 1066.96L762.899 1030.15V1030.17Z" fill="#EE1515"/>
<path d="M753.09 1030.44C753.09 1030.44 867.25 1082.81 897.17 966.92" stroke="black" stroke-width="18.34" stroke-linecap="round" stroke-linejoin="round"/>
<path d="M723.27 1006.35C723.27 1006.35 777.48 998.65 739.71 1095.63" stroke="black" stroke-width="18.34" stroke-linecap="round" stroke-linejoin="round"/>
<path d="M907.639 932.15C907.639 932.15 873.549 972.2 927.919 1019.66" stroke="black" stroke-width="18.34" stroke-linecap="round" stroke-linejoin="round"/>
<path d="M757.689 1067.7C757.689 1067.7 877.289 1110.73 910.179 1011.76" stroke="black" stroke-width="18.34" stroke-linecap="round" stroke-linejoin="round"/>
<path d="M607.829 881.6C667.919 863.93 707.919 831.69 717.579 855.09C739.249 907.52 612.119 958.1 590.589 900.91C583.409 881.83 602.489 883.18 607.829 881.61V881.6Z" fill="#49DB3B" stroke="black" stroke-width="18.34" stroke-linecap="round" stroke-linejoin="round"/>
<path d="M688.149 910.479C648.789 912.739 621.549 897.299 604.599 882.189C597.319 883.229 584.479 884.689 590.589 900.899C603.469 935.119 654.149 930.739 688.149 910.479Z" fill="#038C00"/>
<path d="M607.829 881.6C667.919 863.93 707.919 831.69 717.579 855.09C739.249 907.52 612.119 958.1 590.589 900.91C583.409 881.83 602.489 883.18 607.829 881.61V881.6Z" stroke="black" stroke-width="18.34" stroke-linecap="round" stroke-linejoin="round"/>
<path d="M886.19 772.21C843.22 793.41 802.5 795.17 811.12 814.42C830.44 857.57 929.16 820.68 906.95 774.72C899.54 759.39 890.01 770.32 886.19 772.21Z" fill="#49DB3B" stroke="black" stroke-width="18.34" stroke-linecap="round" stroke-linejoin="round"/>
<path d="M859.84 832.251C822.19 834.661 812.78 820.981 813 802.861C817.55 799.621 819.89 779.361 834.91 811.091C847.98 838.691 890.23 826.451 859.84 832.251Z" fill="#038C00"/>
<path d="M886.19 772.21C843.22 793.41 802.5 795.17 811.12 814.42C830.44 857.57 929.16 820.68 906.95 774.72C899.54 759.39 890.01 770.32 886.19 772.21Z" stroke="black" stroke-width="18.34" stroke-linecap="round" stroke-linejoin="round"/>
</g>
</g>
<defs>
<clipPath id="clip0_429_138">
<rect width="2000" height="2000" fill="white"/>
</clipPath>
</defs>
</svg>
