<svg width="2000" height="2000" viewBox="0 0 2000 2000" fill="none" xmlns="http://www.w3.org/2000/svg">
<mask id="mask0_595_513" style="mask-type:luminance" maskUnits="userSpaceOnUse" x="0" y="0" width="2000" height="2000">
<path d="M2000 0H0V2000H2000V0Z" fill="white"/>
</mask>
<g mask="url(#mask0_595_513)">
<path d="M771.198 1016.2L654.798 1081.9C633.598 1094.1 606.998 1087.8 595.398 1067.7L527.898 950.701C516.298 930.601 524.098 904.401 545.298 892.201L661.698 826.501C682.898 814.301 709.498 820.601 721.098 840.701L788.598 957.701C800.198 977.801 792.398 1004 771.198 1016.2Z" fill="white"/>
<path d="M773.001 998.001L656.601 1063.7C635.401 1075.9 608.801 1069.6 597.201 1049.5L529.701 932.501C526.801 927.501 525.201 922.201 524.601 916.801C519.101 928.801 519.001 942.901 525.901 954.801L593.401 1071.8C605.001 1091.9 631.601 1098.2 652.801 1086L769.201 1020.3C785.201 1011.1 793.501 993.901 791.701 977.501C787.901 985.701 781.601 993.001 773.001 998.001Z" fill="#B8B7B7"/>
<path d="M992.901 884.6L916.301 926C895.201 938.2 868.001 930.7 855.601 909.2L799.401 812C787.001 790.5 794.101 763.2 815.201 751L891.801 709.6C912.901 697.4 940.101 704.9 952.501 726.4L1008.7 823.7C1021.1 845.1 1014 872.4 992.901 884.6Z" fill="white"/>
<path d="M1005.2 871.3L928.599 912.7C907.499 924.9 880.299 917.4 867.899 895.9L811.699 798.6C807.399 791.1 805.499 782.9 805.699 774.9C798.099 788.2 797.599 805.3 805.899 819.7L862.099 917C874.499 938.5 901.699 946 922.799 933.8L999.399 892.4C1013.2 884.4 1020.9 870.1 1021.3 855.1C1017.5 861.7 1012.2 867.4 1005.2 871.3Z" fill="#B8B7B7"/>
<path d="M813.201 674.701C764.601 674.701 759.501 621.801 808.001 619.901C870.001 617.501 932.601 620.201 921.201 642.101C910.701 662.501 862.501 674.701 813.201 674.701Z" fill="#FF00AD"/>
<path d="M844.3 669.1C832.5 663.3 796.5 657 808.9 620.2C808.9 620.1 808.9 620 808.9 619.9C808.6 619.9 808.3 619.9 808 619.9C759.6 621.8 764.6 674.6 813.2 674.7C826.2 674.7 839.2 673.9 851.4 672.2C849 671.3 846.6 670.2 844.3 669.1Z" fill="#E4006D"/>
<path d="M813.201 674.701C764.601 674.701 759.501 621.801 808.001 619.901C870.001 617.501 932.601 620.201 921.201 642.101C910.701 662.501 862.501 674.701 813.201 674.701Z" stroke="black" stroke-width="18.34" stroke-linecap="round" stroke-linejoin="round"/>
<path d="M572 813C609.9 770.6 571 727.1 531.6 767.9C481.2 820.2 434.6 876.7 461.2 883C486 888.8 533.6 856 572 813Z" fill="#FF00AD"/>
<path d="M527.599 848C477.799 869.1 477.399 832.2 476.299 830.5C445.299 866.9 441.999 878.5 461.299 883.1C477.999 887 504.999 873.4 532.699 850.9C530.999 849.9 529.399 847.2 527.599 848Z" fill="#E4006D"/>
<path d="M572 813C609.9 770.6 571 727.1 531.6 767.9C481.2 820.2 434.6 876.7 461.2 883C486 888.8 533.6 856 572 813Z" stroke="black" stroke-width="18.34" stroke-linecap="round" stroke-linejoin="round"/>
<path d="M787.298 1038.9C816.098 1031.2 895.498 1007.8 926.898 975.601C928.998 973.401 931.898 975.701 930.998 978.901C922.898 1008.3 891.698 1082.4 786.798 1045.4C784.198 1044.6 784.498 1039.7 787.298 1038.9Z" fill="#FF0402" stroke="black" stroke-width="18.34" stroke-linecap="round" stroke-linejoin="round"/>
<path d="M998.898 892.5L922.298 933.9C901.198 946.1 873.998 938.6 861.598 917.1L799.498 812C787.098 790.5 794.198 763.2 815.298 751L891.898 709.6C912.998 697.4 940.198 704.9 952.598 726.4L1014.7 831.5C1027.1 853 1020 880.3 998.898 892.5Z" stroke="black" stroke-width="18.34" stroke-miterlimit="10"/>
<path d="M763.897 1020.3L647.497 1086C626.297 1098.2 599.697 1091.9 588.097 1071.8L520.597 954.801C508.997 934.701 516.797 908.501 537.997 896.301L654.397 830.601C675.597 818.401 702.197 824.701 713.797 844.801L781.297 961.801C792.897 981.901 785.097 1008.1 763.897 1020.3Z" stroke="black" stroke-width="18.34" stroke-miterlimit="10"/>
<path d="M741.098 906.2C741.098 906.2 770.898 858.1 836.398 861.2" stroke="black" stroke-width="18.34" stroke-linecap="round" stroke-linejoin="round"/>
<path d="M552.899 1028.2L368.899 1113.4L337.199 1097.5L525.799 979.4L552.899 1028.2Z" fill="url(#paint0_linear_595_513)"/>
<path d="M529.699 970.4L321.699 1107.4" stroke="black" stroke-width="18.34" stroke-linecap="round" stroke-linejoin="round"/>
<path d="M559.098 1024.5L368.898 1113.4" stroke="black" stroke-width="18.34" stroke-linecap="round" stroke-linejoin="round"/>
</g>
<defs>
<linearGradient id="paint0_linear_595_513" x1="337.229" y1="1046.42" x2="552.909" y2="1046.42" gradientUnits="userSpaceOnUse">
<stop stop-color="#D500C8"/>
<stop offset="1" stop-color="#FFC400"/>
</linearGradient>
</defs>
</svg>
