<svg width="2000" height="2000" viewBox="0 0 2000 2000" fill="none" xmlns="http://www.w3.org/2000/svg">
<path d="M769 1042.2C769 1042.2 686.5 1096.1 655.4 1111.2C629 1123.9 599.4 1116.4 586.3 1098.3C568.5 1073.8 530.1 999.7 530.1 999.7C519.7 981.7 529.7 956.4 552.4 943.3L677.1 872.7C699.8 859.6 726.7 863.5 737.1 881.6L791.4 985.9C801.8 1003.8 791.8 1029 769 1042.2Z" fill="#E9008A"/>
<path d="M877.3 758.5L823.6 788.7C807.1 798.2 802.5 821 813.2 839.6L872.5 938.6C884.4 955.1 915.5 960.1 932.7 952.8L959.9 939.3C946.3 915.7 943.6 891.5 938.9 873.8C919.6 801.1 920.4 789.6 877.3 758.5Z" fill="#E9008A"/>
<path d="M839.3 737.2C905.8 782.1 901.3 784.6 923.7 868.2C930.6 893.9 956 924.7 973.4 964.1" stroke="black" stroke-width="18.34" stroke-linecap="round" stroke-linejoin="round"/>
</svg>
