<svg width="2000" height="2000" viewBox="0 0 2000 2000" fill="none" xmlns="http://www.w3.org/2000/svg">
<path d="M768.999 1042.2C768.999 1042.2 686.499 1096.1 655.399 1111.2C628.999 1123.9 599.399 1116.4 586.299 1098.3C568.499 1073.8 530.099 999.7 530.099 999.7C519.699 981.7 529.699 956.4 552.399 943.3L677.099 872.7C699.799 859.6 726.699 863.5 737.099 881.6L791.399 985.9C801.799 1003.8 791.799 1029 768.999 1042.2Z" fill="#FFC800"/>
<path d="M877.3 758.5L823.6 788.7C807.1 798.2 802.5 821 813.2 839.6L872.5 938.6C884.4 955.1 915.5 960.1 932.7 952.8L959.9 939.3C946.3 915.7 943.6 891.5 938.9 873.8C919.6 801.1 920.4 789.6 877.3 758.5Z" fill="#FFC800"/>
<path d="M839.301 737.2C905.801 782.1 901.301 784.6 923.701 868.2C930.601 893.9 956.001 924.7 973.401 964.1" stroke="black" stroke-width="18.34" stroke-linecap="round" stroke-linejoin="round"/>
</svg>
