<svg width="2000" height="2000" viewBox="0 0 2000 2000" fill="none" xmlns="http://www.w3.org/2000/svg">
<g clip-path="url(#clip0_258_473)">
<mask id="mask0_258_473" style="mask-type:luminance" maskUnits="userSpaceOnUse" x="0" y="0" width="2000" height="2000">
<path d="M2000 0H0V2000H2000V0Z" fill="white"/>
</mask>
<g mask="url(#mask0_258_473)">
<path d="M771.2 1016.2L654.8 1081.9C633.6 1094.1 607 1087.8 595.4 1067.7L527.9 950.701C516.3 930.601 524.1 904.401 545.3 892.201L661.7 826.501C682.9 814.301 709.5 820.601 721.1 840.701L788.6 957.701C800.2 977.801 792.4 1004 771.2 1016.2Z" fill="white"/>
<path d="M773 998.001L656.6 1063.7C635.4 1075.9 608.8 1069.6 597.2 1049.5L529.7 932.501C526.8 927.501 525.2 922.201 524.6 916.801C519.1 928.801 519 942.901 525.9 954.801L593.4 1071.8C605 1091.9 631.6 1098.2 652.8 1086L769.2 1020.3C785.2 1011.1 793.5 993.901 791.7 977.501C787.9 985.701 781.6 993.001 773 998.001Z" fill="#B8B7B7"/>
<path d="M992.901 884.6L916.301 926C895.201 938.2 868.001 930.7 855.601 909.2L799.401 812C787.001 790.5 794.101 763.2 815.201 751L891.801 709.6C912.901 697.4 940.101 704.9 952.501 726.4L1008.7 823.7C1021.1 845.1 1014 872.4 992.901 884.6Z" fill="white"/>
<path d="M1005.2 871.3L928.6 912.7C907.5 924.9 880.3 917.4 867.9 895.9L811.7 798.6C807.4 791.1 805.5 782.9 805.7 774.9C798.1 788.2 797.6 805.3 805.9 819.7L862.1 917C874.5 938.5 901.7 946 922.8 933.8L999.4 892.4C1013.2 884.4 1020.9 870.1 1021.3 855.1C1017.5 861.7 1012.2 867.4 1005.2 871.3Z" fill="#B8B7B7"/>
<path d="M813.201 674.701C764.601 674.701 759.501 621.801 808.001 619.901C870.001 617.501 932.601 620.201 921.201 642.101C910.701 662.501 862.501 674.701 813.201 674.701Z" fill="#DDFD00"/>
<path d="M844.3 669.1C832.5 663.3 796.5 657 808.9 620.2C808.9 620.1 808.9 620 808.9 619.9C808.6 619.9 808.3 619.9 808 619.9C759.6 621.8 764.6 674.6 813.2 674.7C826.2 674.7 839.2 673.9 851.4 672.2C849 671.3 846.6 670.2 844.3 669.1Z" fill="#83D600"/>
<path d="M813.201 674.701C764.601 674.701 759.501 621.801 808.001 619.901C870.001 617.501 932.601 620.201 921.201 642.101C910.701 662.501 862.501 674.701 813.201 674.701Z" stroke="black" stroke-width="18.34" stroke-linecap="round" stroke-linejoin="round"/>
<path d="M572 813C609.9 770.6 571 727.1 531.6 767.9C481.2 820.2 434.6 876.7 461.2 883C486 888.8 533.6 856 572 813Z" fill="#DDFD00"/>
<path d="M527.6 848C477.8 869.1 477.4 832.2 476.3 830.5C445.3 866.9 442 878.5 461.3 883.1C478 887 505 873.4 532.7 850.9C531 849.9 529.4 847.2 527.6 848Z" fill="#83D600"/>
<path d="M572 813C609.9 770.6 571 727.1 531.6 767.9C481.2 820.2 434.6 876.7 461.2 883C486 888.8 533.6 856 572 813Z" stroke="black" stroke-width="18.34" stroke-linecap="round" stroke-linejoin="round"/>
<path d="M787.3 1038.9C816.1 1031.2 895.5 1007.8 926.9 975.601C929 973.401 931.9 975.701 931 978.901C922.9 1008.3 891.7 1082.4 786.8 1045.4C784.2 1044.6 784.5 1039.7 787.3 1038.9Z" fill="#FF0402" stroke="black" stroke-width="18.34" stroke-linecap="round" stroke-linejoin="round"/>
<path d="M998.9 892.5L922.3 933.9C901.2 946.1 874 938.6 861.6 917.1L799.5 812C787.1 790.5 794.2 763.2 815.3 751L891.9 709.6C913 697.4 940.2 704.9 952.6 726.4L1014.7 831.5C1027.1 853 1020 880.3 998.9 892.5Z" stroke="black" stroke-width="18.34" stroke-miterlimit="10"/>
<path d="M763.9 1020.3L647.5 1086C626.3 1098.2 599.7 1091.9 588.1 1071.8L520.6 954.801C509 934.701 516.8 908.501 538 896.301L654.4 830.601C675.6 818.401 702.2 824.701 713.8 844.801L781.3 961.801C792.9 981.901 785.1 1008.1 763.9 1020.3Z" stroke="black" stroke-width="18.34" stroke-miterlimit="10"/>
<path d="M741.101 906.2C741.101 906.2 770.901 858.1 836.401 861.2" stroke="black" stroke-width="18.34" stroke-linecap="round" stroke-linejoin="round"/>
<path d="M552.9 1028.2L368.9 1113.4L337.2 1097.5L525.8 979.4L552.9 1028.2Z" fill="url(#paint0_linear_258_473)"/>
<path d="M529.7 970.4L321.7 1107.4" stroke="black" stroke-width="18.34" stroke-linecap="round" stroke-linejoin="round"/>
<path d="M559.1 1024.5L368.9 1113.4" stroke="black" stroke-width="18.34" stroke-linecap="round" stroke-linejoin="round"/>
</g>
</g>
<defs>
<linearGradient id="paint0_linear_258_473" x1="337.23" y1="1046.42" x2="552.91" y2="1046.42" gradientUnits="userSpaceOnUse">
<stop stop-color="#311DCB"/>
<stop offset="1" stop-color="#FF482D"/>
</linearGradient>
<clipPath id="clip0_258_473">
<rect width="2000" height="2000" fill="white"/>
</clipPath>
</defs>
</svg>
