<svg width="2000" height="2000" viewBox="0 0 2000 2000" fill="none" xmlns="http://www.w3.org/2000/svg">
<g clip-path="url(#clip0_643_384)">
<mask id="mask0_643_384" style="mask-type:luminance" maskUnits="userSpaceOnUse" x="0" y="0" width="2000" height="2000">
<path d="M2000 0H0V2000H2000V0Z" fill="white"/>
</mask>
<g mask="url(#mask0_643_384)">
<path d="M575.409 882.26C531.049 906.82 518.609 1015.3 562.629 1089.22C606.649 1163.13 706.039 1137.79 708.879 1076.55C711.719 1015.31 660.599 835.1 575.409 882.26Z" stroke="black" stroke-width="18.34" stroke-linecap="round" stroke-linejoin="round"/>
<path d="M549.56 1100.25C533.89 1059.86 537.27 1016.27 550.66 982.521C543.21 1018.69 542.04 1062.02 549.56 1100.25Z" stroke="black" stroke-width="18.34" stroke-linecap="round" stroke-linejoin="round"/>
<path d="M732.229 1115.88C732.079 1118.89 731.639 1121.79 730.909 1124.57C717.299 1178.79 602.209 1192.85 560.379 1122.55C556.049 1115.29 552.459 1107.8 549.559 1100.24C542.039 1062.01 543.209 1018.68 550.659 982.51C560.349 958.15 575.239 938.85 592.009 929.57C624.879 911.37 653.679 925.83 676.539 954C676.539 954 676.552 954.024 676.579 954.07C712.859 998.9 733.959 1078.29 732.239 1115.86L732.229 1115.88Z" stroke="black" stroke-width="18.34" stroke-linecap="round" stroke-linejoin="round"/>
<path d="M550.66 982.52C558.07 946.53 571.68 917.66 589.11 908.01C622.94 889.3 652.87 913.81 676.54 954.02C653.68 925.84 624.88 911.39 592.01 929.59C575.24 938.87 560.35 958.17 550.66 982.53V982.52Z" stroke="black" stroke-width="18.34" stroke-linecap="round" stroke-linejoin="round"/>
<path d="M961.12 989.56C962.26 1036.04 894.49 1052.52 864.08 995.391C857.55 983.061 852.93 969.781 850.07 956.461C847.69 945.311 846.51 934.15 846.4 923.48C847.43 928.25 848.71 933.021 850.18 937.711C852.82 945.961 856.16 954.041 860.27 961.781C887.86 1013.58 946.12 1004.85 955.92 968.13C958.01 975.32 959.74 982.331 961.09 988.901C961.13 989.121 961.13 989.34 961.13 989.56H961.12Z" stroke="black" stroke-width="18.34" stroke-linecap="round" stroke-linejoin="round"/>
<path d="M961.08 988.9C959.72 982.33 958 975.33 955.91 968.13C956.53 965.78 956.94 963.32 957.16 960.76C959.47 971.55 960.87 981.27 961.09 988.9H961.08Z" stroke="black" stroke-width="18.34" stroke-linecap="round" stroke-linejoin="round"/>
<path d="M957.31 955.96C957.35 957.61 957.31 959.23 957.16 960.77C956.94 963.34 956.54 965.8 955.91 968.14C946.11 1004.86 887.85 1013.6 860.26 961.79C856.15 954.05 852.81 945.98 850.17 937.72C848.7 933.02 847.42 928.25 846.39 923.49C836.7 879.5 846.1 834.93 866.5 823.26C916.95 794.39 956.2 911.86 957.3 955.96H957.31Z" stroke="black" stroke-width="18.34" stroke-linecap="round" stroke-linejoin="round"/>
<path d="M964.61 1015.57C965.78 1062.05 898.02 1078.53 867.57 1021.4C856.71 1001 851.21 977.93 850.07 956.46C852.93 969.78 857.55 983.06 864.08 995.39C894.49 1052.51 962.26 1036.04 961.12 989.56C961.12 989.34 961.12 989.12 961.08 988.9C963.21 999.14 964.42 1008.34 964.6 1015.57H964.61Z" stroke="black" stroke-width="18.34" stroke-linecap="round" stroke-linejoin="round"/>
<path d="M540.85 1141.12C560.35 1179.64 593.72 1206.03 656.59 1198.27" stroke="black" stroke-width="18.34" stroke-linecap="round" stroke-linejoin="round"/>
</g>
</g>
<defs>
<clipPath id="clip0_643_384">
<rect width="2000" height="2000" fill="white"/>
</clipPath>
</defs>
</svg>
