<svg width="2000" height="2000" viewBox="0 0 2000 2000" fill="none" xmlns="http://www.w3.org/2000/svg">
<path d="M835.101 859.9C829.101 866.8 820.101 862.6 817.901 866.1C816.601 868.2 816.501 870.9 817.801 873L840.501 925.4C843.001 929.6 848.901 929.9 851.701 925.9C860.901 912.8 886.201 884.7 923.701 868.7C911.101 821 907.201 801.7 890.301 783.3" fill="#331DD1"/>
<path d="M879.301 772.9C907.101 796.5 908.801 813.6 925.601 876.3C933.101 904.2 962.401 938.1 979.601 982.5" stroke="black" stroke-width="18.34" stroke-miterlimit="10" stroke-linecap="round" stroke-linejoin="round"/>
<path d="M734.8 948.9L706.2 923.8C705 921.9 703.2 920.6 701.2 920.3C696 919.7 691 919.4 686.2 919.3C680.5 919.2 677.2 911.3 680.3 905.3C684.4 897.4 687.1 890.7 688.7 886.4C689.9 883.3 689.5 879.7 687.8 877L667.6 844.9C664.4 839.8 658 840.4 655.6 846.1C647.9 863.9 632.1 894.4 600.6 912.5V984.5H572C572.9 987.1 572.8 990.2 571.4 992.9C567.3 1000.8 564.6 1007.5 563 1011.8C561.8 1014.9 562.2 1018.5 563.9 1021.2L587 1060.5C590.2 1065.6 596.6 1065 599 1059.3C610.7 1032.3 644.7 952.8 728.9 963.6C735 964.3 738.5 954.9 734.8 948.9Z" fill="#331DD1"/>
</svg>
