<svg width="2000" height="2000" viewBox="0 0 2000 2000" fill="none" xmlns="http://www.w3.org/2000/svg">
<path d="M835.1 859.9C829.1 866.8 820.1 862.6 817.9 866.1C816.6 868.2 816.5 870.9 817.8 873L840.5 925.4C843 929.6 848.9 929.9 851.7 925.9C860.9 912.8 886.2 884.7 923.7 868.7C911.1 821 907.2 801.7 890.3 783.3" fill="#FF5DFF"/>
<path d="M879.3 772.9C907.1 796.5 908.8 813.6 925.6 876.3C933.1 904.2 962.4 938.1 979.6 982.5" stroke="black" stroke-width="18.34" stroke-miterlimit="10" stroke-linecap="round" stroke-linejoin="round"/>
<path d="M734.8 948.9L706.2 923.8C705 921.9 703.2 920.6 701.2 920.3C696 919.7 691 919.4 686.2 919.3C680.5 919.2 677.2 911.3 680.3 905.3C684.4 897.4 687.1 890.7 688.7 886.4C689.9 883.3 689.5 879.7 687.8 877L667.6 844.9C664.4 839.8 658 840.4 655.6 846.1C647.9 863.9 632.1 894.4 600.6 912.5V984.5H572C572.9 987.1 572.8 990.2 571.4 992.9C567.3 1000.8 564.6 1007.5 563 1011.8C561.8 1014.9 562.2 1018.5 563.9 1021.2L587 1060.5C590.2 1065.6 596.6 1065 599 1059.3C610.7 1032.3 644.7 952.8 728.9 963.6C735 964.3 738.5 954.9 734.8 948.9Z" fill="#FF5DFF"/>
</svg>
