<svg width="2000" height="2000" viewBox="0 0 2000 2000" fill="none" xmlns="http://www.w3.org/2000/svg">
<g clip-path="url(#clip0_258_165)">
<mask id="mask0_258_165" style="mask-type:luminance" maskUnits="userSpaceOnUse" x="0" y="0" width="2000" height="2000">
<path d="M2000 0H0V2000H2000V0Z" fill="white"/>
</mask>
<g mask="url(#mask0_258_165)">
<path d="M930.3 693.4C951.9 660.6 915 644.4 898.3 658.1C874.8 677.3 864.4 696.3 826.1 703.1C788.6 709.7 800.1 755.6 866 731.7C903.3 718.2 920.8 707.8 930.3 693.4Z" fill="#FDBC00"/>
<path d="M622.5 819.7C636.3 803.1 614.3 780.7 597.3 794.1C573.5 812.9 547.4 807.5 508.5 807.1C468.2 806.7 472.9 874.5 557.6 856.9C596.5 848.9 611.6 833 622.5 819.7Z" fill="#FDBC00"/>
<path d="M928.199 696.501C940.899 677.201 925.199 660.401 913.399 655.301C919.399 676.401 921.599 684.001 898.399 713.501C909.999 706.901 922.999 704.301 928.199 696.501Z" fill="#FF8E00"/>
<path d="M490.5 813.6C473 829.9 489.3 871.3 557.6 857.1C557.6 857.1 575 849.6 575.1 849.6C513 850.1 506.5 831 490.5 813.6Z" fill="#FF8E00"/>
<path d="M812.4 832.501C812.9 832.601 813.5 832.701 814 832.801C825.1 835.101 830.1 847.901 823.5 857.101C823.4 857.201 823.3 857.301 823.2 857.501C819.7 862.501 819.5 869.001 822.6 874.301L833.7 893.201C839.2 902.501 852.1 903.601 859.1 895.301C878.3 872.401 919.4 837.301 987.6 843.301C1000.1 844.401 1008.6 830.701 1002.2 819.901L994.4 806.701C992.2 802.901 988.4 800.201 984.1 799.301C983.6 799.201 983 799.101 982.5 799.001C971.4 796.701 966.4 783.901 973 774.701C973.1 774.601 973.2 774.501 973.3 774.301C976.8 769.301 977 762.801 973.9 757.501L962.8 738.601C957.3 729.301 944.4 728.201 937.4 736.501C918.2 759.401 877.1 794.501 808.9 788.501C796.4 787.401 787.9 801.101 794.3 811.901L802.1 825.101C804.3 828.901 808.1 831.501 812.4 832.501Z" fill="white"/>
<path d="M723.2 887.1C723.1 887.1 722.9 887.1 722.8 887.1C709.8 886.1 702.2 872.1 708.3 860.7C708.6 860.2 708.8 859.7 709.1 859.2C712.4 853 711.6 845.4 707.3 839.9L693.6 822.4C686 812.7 671.1 813.3 664.5 823.7C646.8 851.2 607.7 894.2 534.4 898.1C520 898.9 512.6 915.7 521.5 927.1L530.6 938.8C533.7 942.8 538.4 945.3 543.4 945.6C543.5 945.6 543.7 945.6 543.8 945.6C556.8 946.6 564.4 960.6 558.3 972C558 972.5 557.8 973 557.5 973.5C554.3 979.7 555 987.3 559.3 992.8L573 1010.3C580.6 1020 595.5 1019.4 602.1 1009C619.8 981.5 658.9 938.5 732.2 934.6C746.6 933.8 754 917 745.1 905.6L736 893.9C732.9 890 728.3 887.5 723.2 887.1Z" fill="white"/>
<path d="M836.2 865.5C832.3 863.2 827.9 860.7 823.5 858.4C820.3 863.1 818.7 866.1 818.7 866.1L847.8 900.8C847.8 900.8 890.1 829.9 993.6 843.5C1003.9 844.9 1011.3 833.7 1006 824.7C941.5 808.8 885.1 844.9 861.2 863.7C853.9 869.4 844.1 870.1 836.2 865.5Z" fill="#B9B8B8"/>
<path d="M862.9 965.5L1097.8 912.6C1097.8 912.6 1143.4 936.1 1112.4 977.6L867 1032.8C867 1032.8 842.1 1002.8 862.9 965.5Z" fill="white"/>
<path d="M569.8 980.5L554.8 969.7C550.2 978.1 548.1 983.6 548.1 983.6L569.2 1010.6C576.6 1020 590.9 1019.2 597.3 1009.1C615.6 980.3 657.5 934.1 738 933.9C748.2 933.9 753.8 922.1 747.6 914.1C654 918.6 613.2 954.8 596.8 976.6C590.5 985 578.5 986.8 569.8 980.5Z" fill="#B9B8B8"/>
<mask id="mask1_258_165" style="mask-type:luminance" maskUnits="userSpaceOnUse" x="854" y="912" width="263" height="121">
<path d="M862.9 965.5L1097.8 912.6C1097.8 912.6 1128.3 941 1112.4 977.6L867 1032.8C867 1032.8 842.1 1002.8 862.9 965.5Z" fill="white"/>
</mask>
<g mask="url(#mask1_258_165)">
<path d="M956.9 923.1C955.9 926.2 886.1 972.7 954.8 1026L849.6 1056.4L836.3 953.3L956.9 923.1Z" fill="#FDBC59"/>
</g>
<path d="M862.899 965.5L1097.8 912.6C1097.8 912.6 1143.4 931.3 1112.4 977.6L875.399 1030.9C875.499 1030.9 842.099 1002.8 862.899 965.5Z" stroke="black" stroke-width="18.34" stroke-linecap="round" stroke-linejoin="round"/>
<path d="M723.2 887.1C723.1 887.1 722.9 887.1 722.8 887.1C709.8 886.1 702.2 872.1 708.3 860.7C708.6 860.2 708.8 859.7 709.1 859.2C712.4 853 711.6 845.4 707.3 839.9L693.6 822.4C686 812.7 671.1 813.3 664.5 823.7C646.8 851.2 607.7 894.2 534.4 898.1C520 898.9 512.6 915.7 521.5 927.1L530.6 938.8C533.7 942.8 538.4 945.3 543.4 945.6C543.5 945.6 543.7 945.6 543.8 945.6C556.8 946.6 564.4 960.6 558.3 972C558 972.5 557.8 973 557.5 973.5C554.3 979.7 555 987.3 559.3 992.8L573 1010.3C580.6 1020 595.5 1019.4 602.1 1009C619.8 981.5 658.9 938.5 732.2 934.6C746.6 933.8 754 917 745.1 905.6L736 893.9C732.9 890 728.3 887.5 723.2 887.1Z" stroke="black" stroke-width="18.34" stroke-linecap="round" stroke-linejoin="round"/>
<path d="M812.4 832.501C812.9 832.601 813.5 832.701 814 832.801C825.1 835.101 830.1 847.901 823.5 857.101C823.4 857.201 823.3 857.301 823.2 857.501C819.7 862.501 819.5 869.001 822.6 874.301L833.7 893.201C839.2 902.501 852.1 903.601 859.1 895.301C878.3 872.401 919.4 837.301 987.6 843.301C1000.1 844.401 1008.6 830.701 1002.2 819.901L994.4 806.701C992.2 802.901 988.4 800.201 984.1 799.301C983.6 799.201 983 799.101 982.5 799.001C971.4 796.701 966.4 783.901 973 774.701C973.1 774.601 973.2 774.501 973.3 774.301C976.8 769.301 977 762.801 973.9 757.501L962.8 738.601C957.3 729.301 944.4 728.201 937.4 736.501C918.2 759.401 877.1 794.501 808.9 788.501C796.4 787.401 787.9 801.101 794.3 811.901L802.1 825.101C804.3 828.901 808.1 831.501 812.4 832.501Z" stroke="black" stroke-width="18.34" stroke-linecap="round" stroke-linejoin="round"/>
<path d="M622.5 819.7C636.3 803.1 614.3 780.7 597.3 794.1C573.5 812.9 547.4 807.5 508.5 807.1C468.2 806.7 472.9 874.5 557.6 856.9C596.5 848.9 611.6 833 622.5 819.7Z" stroke="black" stroke-width="18.34" stroke-miterlimit="10" stroke-linecap="round" stroke-linejoin="round"/>
<path d="M930.3 693.4C951.9 660.6 915 644.4 898.3 658.1C874.8 677.3 864.4 696.3 826.1 703.1C788.6 709.7 800.1 755.6 866 731.7C903.3 718.2 920.8 707.8 930.3 693.4Z" stroke="black" stroke-width="18.34" stroke-miterlimit="10" stroke-linecap="round" stroke-linejoin="round"/>
<path d="M777.399 975.1C777.399 975.1 845.999 999.2 835.199 1059.5" stroke="black" stroke-width="18.34" stroke-linecap="round" stroke-linejoin="round"/>
<path d="M922.5 952.701C922.5 952.701 909.4 977.501 935.9 1017.3" stroke="black" stroke-width="18.34" stroke-linecap="round" stroke-linejoin="round"/>
</g>
</g>
<defs>
<clipPath id="clip0_258_165">
<rect width="2000" height="2000" fill="white"/>
</clipPath>
</defs>
</svg>
