<svg width="2000" height="2000" viewBox="0 0 2000 2000" fill="none" xmlns="http://www.w3.org/2000/svg">
<g clip-path="url(#clip0_429_130)">
<mask id="mask0_429_130" style="mask-type:luminance" maskUnits="userSpaceOnUse" x="0" y="0" width="2000" height="2000">
<path d="M2000 0H0V2000H2000V0Z" fill="white"/>
</mask>
<g mask="url(#mask0_429_130)">
<path d="M567.61 1040.63C555.65 1037.66 554.57 1021.08 566.02 1016.54C588.53 1007.62 614.89 996.52 614.89 993.46V927.95C614.89 916.56 628.73 910.95 636.67 919.13C648.63 931.46 662.61 946.33 670.57 956.36C673.63 960.23 678.7 961.86 683.49 960.7C695.77 957.74 707.72 956.18 717.35 955.35C727.07 954.52 734.04 964.48 729.92 973.32C723.2 987.76 714.35 1006.95 709.8 1017.6C708.14 1021.48 708.54 1025.9 710.82 1029.44C717.31 1039.48 731.32 1061.55 742.16 1081.28C747.94 1091.8 737.14 1103.69 726.09 1099.01C713.59 1093.71 699.78 1088.38 690.1 1086.16C684.85 1084.95 679.45 1087.17 676.57 1091.72C669.93 1102.21 656.14 1123.44 642.43 1140.98C634.58 1151.03 618.46 1144.46 619.85 1131.79C622.43 1108.15 625.29 1078.64 625.52 1062.09C625.61 1055.74 620.91 1050.35 614.62 1049.47C603.45 1047.89 584.84 1044.93 567.61 1040.65V1040.63Z" fill="#301ECA"/>
<path d="M953.039 976.99C947.079 968.19 939.939 958.99 933.059 953.54C928.449 949.88 921.589 952.18 920.009 957.86C918.819 962.13 917.239 967.61 915.389 973.7C912.189 984.19 908.129 996.5 903.709 1007.6C900.369 1015.98 887.939 1013.73 887.759 1004.71C887.269 979.17 885.959 945.5 882.539 933.32C881.869 930.93 880.209 928.98 877.949 927.97C872.019 925.33 857.459 918.67 845.879 912.03C840.079 908.71 840.309 900.29 846.329 897.38L874.109 883.95C877.499 882.31 879.359 878.6 878.619 874.91C877.739 870.49 876.429 863.95 874.849 855.96C873.139 847.46 871.129 837.32 868.979 826.35C867.509 818.88 876.069 813.55 882.109 818.17C899.689 831.6 913.279 852.23 920.669 863.64C922.899 867.09 927.309 868.39 931.049 866.67C934.509 865.07 938.939 862.96 943.279 860.69C949.079 857.66 955.929 862.24 955.339 868.76C954.099 882.36 952.019 901.17 949.219 911.65C948.589 914.01 949.089 916.51 950.459 918.53C955.289 925.67 965.999 944.28 968.109 971.61C968.759 980.07 957.809 984.02 953.049 976.99H953.039Z" fill="#301ECA"/>
</g>
</g>
<defs>
<clipPath id="clip0_429_130">
<rect width="2000" height="2000" fill="white"/>
</clipPath>
</defs>
</svg>
