<svg width="2000" height="2000" viewBox="0 0 2000 2000" fill="none" xmlns="http://www.w3.org/2000/svg">
<g clip-path="url(#clip0_595_764)">
<mask id="mask0_595_764" style="mask-type:luminance" maskUnits="userSpaceOnUse" x="0" y="0" width="2000" height="2000">
<path d="M2000 0H0V2000H2000V0Z" fill="white"/>
</mask>
<g mask="url(#mask0_595_764)">
<path d="M567.61 1040.63C555.65 1037.66 554.57 1021.08 566.02 1016.54C588.53 1007.62 614.89 996.52 614.89 993.46V927.95C614.89 916.56 628.73 910.95 636.67 919.13C648.63 931.46 662.61 946.33 670.57 956.36C673.63 960.23 678.7 961.86 683.49 960.7C695.77 957.74 707.72 956.18 717.35 955.35C727.07 954.52 734.04 964.48 729.92 973.32C723.2 987.76 714.35 1006.95 709.8 1017.6C708.14 1021.48 708.54 1025.9 710.82 1029.44C717.31 1039.48 731.32 1061.55 742.16 1081.28C747.94 1091.8 737.14 1103.69 726.09 1099.01C713.59 1093.71 699.78 1088.38 690.1 1086.16C684.85 1084.95 679.45 1087.17 676.57 1091.72C669.93 1102.21 656.14 1123.44 642.43 1140.98C634.58 1151.03 618.46 1144.46 619.85 1131.79C622.43 1108.15 625.29 1078.64 625.52 1062.09C625.61 1055.74 620.91 1050.35 614.62 1049.47C603.45 1047.89 584.84 1044.93 567.61 1040.65V1040.63Z" fill="#9300E9"/>
<path d="M953.043 976.99C947.083 968.19 939.943 958.99 933.063 953.54C928.453 949.88 921.593 952.18 920.013 957.86C918.823 962.13 917.243 967.61 915.393 973.7C912.193 984.19 908.133 996.5 903.713 1007.6C900.373 1015.98 887.943 1013.73 887.763 1004.71C887.273 979.17 885.963 945.5 882.543 933.32C881.873 930.93 880.213 928.98 877.953 927.97C872.023 925.33 857.463 918.67 845.883 912.03C840.083 908.71 840.313 900.29 846.333 897.38L874.113 883.95C877.503 882.31 879.363 878.6 878.623 874.91C877.743 870.49 876.433 863.95 874.853 855.96C873.143 847.46 871.133 837.32 868.983 826.35C867.513 818.88 876.073 813.55 882.113 818.17C899.693 831.6 913.283 852.23 920.673 863.64C922.903 867.09 927.313 868.39 931.053 866.67C934.513 865.07 938.943 862.96 943.283 860.69C949.083 857.66 955.933 862.24 955.343 868.76C954.103 882.36 952.023 901.17 949.223 911.65C948.593 914.01 949.093 916.51 950.463 918.53C955.293 925.67 966.003 944.28 968.113 971.61C968.763 980.07 957.813 984.02 953.053 976.99H953.043Z" fill="#9300E9"/>
</g>
</g>
<defs>
<clipPath id="clip0_595_764">
<rect width="2000" height="2000" fill="white"/>
</clipPath>
</defs>
</svg>
