<svg width="2000" height="2000" viewBox="0 0 2000 2000" fill="none" xmlns="http://www.w3.org/2000/svg">
<mask id="mask0_595_645" style="mask-type:luminance" maskUnits="userSpaceOnUse" x="0" y="0" width="2000" height="2000">
<path d="M2000 0H0V2000H2000V0Z" fill="white"/>
</mask>
<g mask="url(#mask0_595_645)">
<path d="M552.955 1002.93C552.955 1002.93 633.225 973.11 633.225 967.76V871.43C633.225 871.43 683.685 921.12 693.615 937.18C724.955 928.01 757.065 928.77 757.065 928.77C757.065 928.77 729.375 987.53 725.555 998.23C725.555 998.23 770.065 1065.61 774.645 1087.02C774.645 1087.02 713.485 1057.2 698.965 1059.5C698.965 1059.5 654.625 1132.13 633.985 1142.06C633.985 1142.06 646.985 1038.85 643.155 1025.09C643.155 1025.09 576.315 1017.45 552.945 1002.92L552.955 1002.93Z" fill="#A3E8CF"/>
<g style="mix-blend-mode:multiply">
<path d="M679.605 1067.84L696.355 1063.72C681.715 1085.26 645.955 1136.33 633.995 1142.06C633.995 1142.06 646.985 1038.86 643.165 1025.1C643.165 1025.1 576.315 1017.47 552.945 1002.94C552.945 1002.94 633.215 973.111 633.215 967.761V902.311C643.975 922.441 654.725 942.461 660.145 952.571C662.335 956.661 661.815 961.661 658.825 965.211L642.845 984.191C638.285 989.611 639.755 997.831 645.915 1001.33L661.845 1010.37C665.585 1012.49 667.795 1016.55 667.565 1020.84L665.595 1056.23C665.175 1063.83 672.215 1069.67 679.595 1067.85L679.605 1067.84Z" fill="#A3E8CF"/>
</g>
<path d="M552.955 1002.93C552.955 1002.93 633.225 973.11 633.225 967.76V871.43C633.225 871.43 683.685 921.12 693.615 937.18C724.955 928.01 757.065 928.77 757.065 928.77C757.065 928.77 729.375 987.53 725.555 998.23C725.555 998.23 770.065 1065.61 774.645 1087.02C774.645 1087.02 713.485 1057.2 698.965 1059.5C698.965 1059.5 654.625 1132.13 633.985 1142.06C633.985 1142.06 646.985 1038.85 643.155 1025.09C643.155 1025.09 576.315 1017.45 552.945 1002.92L552.955 1002.93Z" stroke="black" stroke-width="18.34" stroke-linecap="round" stroke-linejoin="round"/>
<path d="M981.729 981.839C981.729 981.839 955.019 931.059 937.189 930.289C937.189 930.289 934.399 941.149 930.069 955.349C923.249 977.689 912.529 1008.33 902.739 1017.87C902.739 1017.87 903.069 918.559 895.329 910.809C895.329 910.809 859.669 895.399 848.039 885.309L894.559 862.819C894.559 862.819 892.539 852.839 889.529 837.619C886.929 824.669 883.619 807.899 880.169 790.219C910.029 801.889 932.269 841.139 939.239 851.229C939.239 851.229 962.759 841.139 971.309 834.169C971.309 834.169 968.189 882.229 962.759 896.939C962.759 896.939 989.509 929.149 981.729 981.839Z" fill="#A3E8CF"/>
<g style="mix-blend-mode:multiply">
<path d="M902.739 1017.87C902.739 1017.87 903.069 918.559 895.329 910.809C895.329 910.809 859.669 895.399 848.039 885.309L894.559 862.819C894.559 862.819 892.539 852.839 889.529 837.619L911.689 867.699C914.849 871.989 913.499 878.089 908.819 880.649C902.859 883.909 902.679 892.409 908.499 895.909L918.519 901.949C920.749 903.289 922.269 905.549 922.669 908.129L930.069 955.359C923.249 977.699 912.529 1008.34 902.739 1017.88V1017.87Z" fill="#A3E8CF"/>
</g>
<path d="M981.729 981.839C981.729 981.839 955.019 931.059 937.189 930.289C937.189 930.289 934.399 941.149 930.069 955.349C923.249 977.689 912.529 1008.33 902.739 1017.87C902.739 1017.87 903.069 918.559 895.329 910.809C895.329 910.809 859.669 895.399 848.039 885.309L894.559 862.819C894.559 862.819 892.539 852.839 889.529 837.619C886.929 824.669 883.619 807.899 880.169 790.219C910.029 801.889 932.269 841.139 939.239 851.229C939.239 851.229 962.759 841.139 971.309 834.169C971.309 834.169 968.189 882.229 962.759 896.939C962.759 896.939 989.509 929.149 981.729 981.839Z" stroke="black" stroke-width="18.34" stroke-linecap="round" stroke-linejoin="round"/>
<path d="M600.283 956.008L579.553 958.608L520.123 966.128C515.423 966.718 513.223 960.548 517.223 958.018L550.353 937.108L553.693 898.548L555.713 875.468C556.113 870.918 562.313 869.888 564.153 874.078L600.293 955.998L600.283 956.008Z" fill="#A3E8CF"/>
<g style="mix-blend-mode:multiply">
<path d="M579.553 958.619L520.123 966.139C515.423 966.729 513.223 960.559 517.223 958.029L550.353 937.119L553.693 898.559C564.553 924.089 576.033 950.509 579.553 958.619Z" fill="#A3E8CF"/>
</g>
<path d="M564.153 874.078L600.273 956.018L520.113 966.138C515.433 966.728 513.213 960.548 517.203 958.028L550.343 937.118L555.713 875.478C556.113 870.928 562.303 869.908 564.143 874.078H564.153Z" stroke="black" stroke-width="18.34" stroke-linecap="round" stroke-linejoin="round"/>
<path d="M984.842 764.719L952.852 791.389L940.272 801.879L918.112 743.989C915.692 737.679 924.352 735.179 930.362 740.099L950.282 756.389L952.812 758.439L982.422 759.719C984.992 759.829 986.642 763.239 984.842 764.709V764.719Z" fill="#A3E8CF"/>
<g style="mix-blend-mode:multiply">
<path d="M952.852 791.389L940.272 801.879L918.112 743.989C915.692 737.679 924.352 735.179 930.362 740.099L950.282 756.389C951.092 767.869 952.002 780.129 952.852 791.389Z" fill="#A3E8CF"/>
</g>
<path d="M984.842 764.719L952.852 791.389L940.272 801.879L918.112 743.989C915.692 737.679 924.352 735.179 930.362 740.099L950.282 756.389L952.812 758.439L982.422 759.719C984.992 759.829 986.642 763.239 984.842 764.709V764.719Z" stroke="black" stroke-width="18.34" stroke-linecap="round" stroke-linejoin="round"/>
<path d="M806.742 1087.64L914.502 1044.41C914.502 1044.41 935.862 1149.78 881.512 1168.41C827.162 1187.04 806.742 1087.65 806.742 1087.65V1087.64Z" fill="#EBF6F7" stroke="black" stroke-width="18.34" stroke-linecap="round" stroke-linejoin="round"/>
<path d="M823.93 1135.35L918.63 1090.05" stroke="black" stroke-width="18.34" stroke-linecap="round" stroke-linejoin="round"/>
<path d="M884.492 1056.44L894.792 1101.45" stroke="black" stroke-width="18.34" stroke-linecap="round" stroke-linejoin="round"/>
<path d="M854.562 1068.45L862.682 1116.81" stroke="black" stroke-width="18.34" stroke-linecap="round" stroke-linejoin="round"/>
<path d="M877.922 1109.53L898.972 1157.25" stroke="black" stroke-width="18.34" stroke-linecap="round" stroke-linejoin="round"/>
<path d="M848.969 1123.37L867.109 1170.71" stroke="black" stroke-width="18.34" stroke-linecap="round" stroke-linejoin="round"/>
</g>
</svg>
