<svg width="2000" height="2000" viewBox="0 0 2000 2000" fill="none" xmlns="http://www.w3.org/2000/svg">
<g clip-path="url(#clip0_28_772)">
<mask id="mask0_28_772" style="mask-type:luminance" maskUnits="userSpaceOnUse" x="0" y="0" width="2000" height="2000">
<path d="M2000 0H0V2000H2000V0Z" fill="white"/>
</mask>
<g mask="url(#mask0_28_772)">
<path d="M559.3 987.2C559.3 987.2 538.4 985.3 503.8 1032.4C465.9 1056.8 327.3 1115.2 327.3 1115.2C327.3 1115.2 328.7 1138.6 390.2 1111.8C451.7 1085 494.4 1061 595.1 1078.3C695.7 1095.6 626.4 1018.5 624.7 1018.5C623 1018.5 559.3 987.2 559.3 987.2Z" fill="#FFA500"/>
<path d="M346.9 1106.6L470.9 1054.7C485.7 1048.5 498.8 1038.9 509.1 1026.7L529.9 1002" stroke="black" stroke-width="18.34" stroke-linecap="round" stroke-linejoin="round"/>
<path d="M557.3 1068.5L528.2 1066C512.2 1064.8 496.2 1067.4 481.5 1073.5L383.2 1114.7" stroke="black" stroke-width="18.34" stroke-linecap="round" stroke-linejoin="round"/>
<path d="M794.4 932.2C782.4 901.8 765.6 875.4 745.9 854.3C709.9 815.7 664.6 794.9 622.6 800C614.1 801 605.8 803.1 597.7 806.3C527.4 834.1 501.6 935.4 540 1032.6C559.5 1082.1 592 1121 628.4 1143.7C663.5 1165.5 702.3 1172.1 736.8 1158.5C748 1154.1 758.1 1147.7 767 1139.8C813.6 1098.5 826.7 1013.9 794.4 932.2ZM1030.8 847.7C1026.6 837.2 1021.9 827.3 1016.7 817.9C988.9 768.4 947.3 736.1 908.4 732.8C897.3 731.8 886.4 733.2 876.1 737.3C823 758.3 806.2 841.7 838.5 923.6C856.9 970.1 887.2 1006.2 919.7 1024.7C944.4 1038.9 970.3 1043 993.2 1033.9C1009.7 1027.4 1022.7 1014.9 1031.8 998.2C1052 961.4 1053 904.2 1030.8 847.7Z" fill="url(#paint0_linear_28_772)" stroke="black" stroke-width="18.34" stroke-linecap="round" stroke-linejoin="round"/>
<path d="M1016.1 1019.2C1007 1035.9 1009.7 1027.5 993.2 1034C970.3 1043.1 944.3 1039 919.7 1024.8L908.4 732.9C947.3 736.2 973.2 744.3 1001 793.7L1016.1 1019.2Z" fill="url(#paint1_linear_28_772)"/>
<path d="M766.9 1139.8C758 1147.7 747.9 1154 736.7 1158.5C702.2 1172.2 663.4 1165.5 628.3 1143.7L622.5 799.999C664.5 794.899 709.9 815.699 745.8 854.299C752.2 946.199 760 1055 766.9 1139.8Z" fill="url(#paint2_linear_28_772)"/>
<path d="M794.4 932.2C782.4 901.8 765.6 875.4 745.9 854.3C709.9 815.7 664.6 794.9 622.6 800C614.1 801 605.8 803.1 597.7 806.3C527.4 834.1 501.6 935.4 540 1032.6C559.5 1082.1 592 1121 628.4 1143.7C663.5 1165.5 702.3 1172.1 736.8 1158.5C748 1154.1 758.1 1147.7 767 1139.8C813.6 1098.5 826.7 1013.9 794.4 932.2ZM1030.8 847.7C998.4 765.8 929.2 716.4 876.1 737.3C823 758.3 806.2 841.7 838.5 923.6C870.9 1005.5 940.1 1054.9 993.2 1034C1046.3 1013 1063.1 929.6 1030.8 847.7Z" stroke="black" stroke-width="18.34" stroke-linecap="round" stroke-linejoin="round"/>
<path d="M759.8 893.001L836.7 864.801" stroke="black" stroke-width="18.34" stroke-linecap="round" stroke-linejoin="round"/>
<path d="M927.6 1186.6C927 1186.8 926.4 1187 925.8 1187.3C888.5 1202.1 851.3 1235 826.9 1246.1C814.5 1251.7 805.4 1251.8 801.2 1241C794.6 1224.2 801.1 1184.5 817 1147.3C831.3 1113.7 853.3 1082.1 880 1071.5C883 1070.3 886.1 1069.4 889.1 1068.8C942.1 1057.8 992.7 1130.3 1004.6 1160.6C1017.1 1192.2 982.7 1165.7 927.6 1186.6Z" fill="#FF007A"/>
<path d="M927.6 1186.6C927 1186.8 926.4 1187 925.8 1187.3C869.6 1209.5 813.9 1273 801.2 1241C794.6 1224.2 801.1 1184.5 817 1147.3C882.9 1121.7 918.5 1130.6 927.6 1186.6Z" fill="#FF0000"/>
<path d="M927.6 1186.6C927 1186.8 926.4 1187 925.8 1187.3C869.6 1209.5 813.9 1273 801.2 1241C794.6 1224.2 801.1 1184.5 817 1147.3C882.9 1121.7 918.5 1130.6 927.6 1186.6Z" fill="#FF0000" stroke="black" stroke-width="18.34" stroke-linecap="round" stroke-linejoin="round"/>
<path d="M927.6 1186.6C927 1186.8 926.4 1187 925.8 1187.3C869.6 1209.5 813.9 1273 801.2 1241C794.6 1224.2 801.1 1184.5 817 1147.3C831.3 1113.7 853.3 1082.1 880 1071.5C936.2 1049.3 992 1128.6 1004.6 1160.6C1017.1 1192.2 982.7 1165.7 927.6 1186.6Z" stroke="black" stroke-width="18.34" stroke-linecap="round" stroke-linejoin="round"/>
<path d="M484.5 820.799C478.9 826.399 474.8 831.799 471.6 836.799C461.5 852.499 460.8 862.899 453.4 855.499C443.6 845.699 425.9 808.799 449.2 785.499C453 781.699 457.6 778.599 462.7 775.899C489.2 762.299 529.3 763.199 537.5 771.399C547.2 781.099 507.7 797.599 484.5 820.799Z" fill="#0027F2" stroke="black" stroke-width="18.34" stroke-linecap="round" stroke-linejoin="round"/>
<path d="M471.6 836.798C461.5 852.498 460.8 862.898 453.4 855.498C443.6 845.698 425.9 808.798 449.2 785.498C453 781.698 457.6 778.598 462.7 775.898C462.6 798.798 466.1 820.998 471.6 836.798Z" fill="#000ACC"/>
<path d="M484.5 820.799C478.9 826.399 474.8 831.799 471.6 836.799C461.5 852.499 460.8 862.899 453.4 855.499C443.6 845.699 425.9 808.799 449.2 785.499C453 781.699 457.6 778.599 462.7 775.899C489.2 762.299 529.3 763.199 537.5 771.399C547.2 781.099 507.7 797.599 484.5 820.799Z" stroke="black" stroke-width="18.34" stroke-linecap="round" stroke-linejoin="round"/>
<path d="M1009.7 674.999C1009.7 688.099 1001.8 682.399 973.2 681.799C971.5 681.799 969.9 681.699 968.1 681.699C935.2 681.699 890.8 688.799 890.8 674.999C890.8 661.999 930.5 634.899 962.6 631.999C964.5 631.799 966.3 631.699 968.1 631.699C1000.9 631.699 1009.7 661.199 1009.7 674.999Z" fill="#0027F2" stroke="black" stroke-width="18.34" stroke-linecap="round" stroke-linejoin="round"/>
<path d="M925.2 679.499C925.2 692.599 1001.8 682.399 973.2 681.799C862.7 691.999 907.2 672.099 900.2 656.999C902.1 656.799 966.2 631.799 968 631.799C906.8 665.699 925.2 679.499 925.2 679.499Z" fill="#000ACC"/>
<path d="M1009.7 674.999C1009.7 688.099 1001.8 682.399 973.2 681.799C971.5 681.799 969.9 681.699 968.1 681.699C935.2 681.699 890.8 688.799 890.8 674.999C890.8 661.999 930.5 634.899 962.6 631.999C964.5 631.799 966.3 631.699 968.1 631.699C1000.9 631.699 1009.7 661.199 1009.7 674.999Z" stroke="black" stroke-width="18.34" stroke-linecap="round" stroke-linejoin="round"/>
</g>
</g>
<defs>
<linearGradient id="paint0_linear_28_772" x1="522.153" y1="949.077" x2="1047.2" y2="949.077" gradientUnits="userSpaceOnUse">
<stop stop-color="#FF000C"/>
<stop offset="1" stop-color="#FFA500"/>
</linearGradient>
<linearGradient id="paint1_linear_28_772" x1="908.39" y1="885.81" x2="1016.09" y2="885.81" gradientUnits="userSpaceOnUse">
<stop stop-color="#FF000C"/>
<stop offset="1" stop-color="#FFA500"/>
</linearGradient>
<linearGradient id="paint2_linear_28_772" x1="622.55" y1="982.462" x2="766.92" y2="982.462" gradientUnits="userSpaceOnUse">
<stop stop-color="#FF000C"/>
<stop offset="1" stop-color="#FFA500"/>
</linearGradient>
<clipPath id="clip0_28_772">
<rect width="2000" height="2000" fill="white"/>
</clipPath>
</defs>
</svg>
