<svg width="2000" height="2000" viewBox="0 0 2000 2000" fill="none" xmlns="http://www.w3.org/2000/svg">
<path d="M968.099 946.6C966.099 943 964.099 939.4 961.799 936C961.199 935.1 960.599 934.3 960.099 933.5C959.999 933.4 959.999 933.3 959.899 933.2C958.399 931.5 956.999 929.9 955.399 928.3C955.299 928.2 955.299 928.2 955.299 928.1H913.599C919.199 952.4 914.299 983.4 902.099 1025.3C898.899 1036.3 911.999 1043.7 919.899 1037C920.499 1036.5 921.099 1035.9 921.699 1035.2C932.699 1020.9 943.199 998.8 948.299 970.4C948.499 969.4 948.699 968.4 949.099 967.6C951.299 962.1 956.199 961.5 961.099 966.5C968.799 972.5 974.599 979 978.999 985.8C980.299 987.8 981.499 989.8 982.599 991.9V984C976.099 972.4 971.999 959.4 968.099 946.6Z" fill="#FF0085"/>
<path d="M931.699 884.1C939.199 912 968.499 945.9 985.699 990.3C990.099 1001.5 993.699 1013.5 995.999 1026.1" stroke="black" stroke-width="18.34" stroke-linecap="round" stroke-linejoin="round"/>
<path d="M632.999 1013.8C636.299 1017.7 638.299 1020 638.299 1020C638.299 1020 596.199 1146.6 613.899 1145.7C621.299 1145.3 634.699 1127.6 647.499 1107.5C664.699 1080.6 680.999 1049.3 680.999 1049.3C680.999 1049.3 758.699 1105.5 771.699 1097.5C781.599 1091.4 735.499 1038.1 713.699 1013.8H632.999Z" fill="#FF0085"/>
</svg>
