<svg width="2000" height="2000" viewBox="0 0 2000 2000" fill="none" xmlns="http://www.w3.org/2000/svg">
<mask id="mask0_595_569" style="mask-type:luminance" maskUnits="userSpaceOnUse" x="0" y="0" width="2000" height="2000">
<path d="M2000 0H0V2000H2000V0Z" fill="white"/>
</mask>
<g mask="url(#mask0_595_569)">
<path d="M960.5 1075.1C928 1063.5 772.2 1133.7 681 1196.3" stroke="black" stroke-width="18.34" stroke-miterlimit="10" stroke-linecap="round" stroke-linejoin="round"/>
<path d="M731.6 1138L786.9 1160" stroke="black" stroke-width="18.34" stroke-miterlimit="10" stroke-linecap="round" stroke-linejoin="round"/>
<path d="M770.201 1121.4L748.301 1176.6" stroke="black" stroke-width="18.34" stroke-miterlimit="10" stroke-linecap="round" stroke-linejoin="round"/>
<path d="M804.1 1095.8L856.9 1123.2" stroke="black" stroke-width="18.34" stroke-miterlimit="10" stroke-linecap="round" stroke-linejoin="round"/>
<path d="M844.201 1083.1L816.801 1135.9" stroke="black" stroke-width="18.34" stroke-miterlimit="10" stroke-linecap="round" stroke-linejoin="round"/>
<path d="M889.1 1059.6L935.6 1096.7" stroke="black" stroke-width="18.34" stroke-miterlimit="10" stroke-linecap="round" stroke-linejoin="round"/>
<path d="M930.901 1054.9L893.801 1101.4" stroke="black" stroke-width="18.34" stroke-miterlimit="10" stroke-linecap="round" stroke-linejoin="round"/>
<path d="M524.3 883.8C522.1 889.8 511.2 891.9 497 889.8C495.4 897.6 493 904.1 490 908.3C487.6 911.6 485 913.5 482.1 913.5C474.3 913.5 467.7 899.3 465.8 880.2C448.4 872 437.3 861 439.9 853.7C442.1 847.6 453 845.6 467.3 847.7C469.8 835.2 474.4 826.3 479.9 824.4C480.6 824.1 481.4 824 482.1 824C489.9 824 496.5 838.2 498.4 857.3C515.8 865.5 527 876.4 524.3 883.8Z" fill="#00D7AD" stroke="black" stroke-width="18.34" stroke-linecap="round" stroke-linejoin="round"/>
<path d="M490 908.3C487.6 911.6 485 913.5 482.1 913.5C474.3 913.5 467.7 899.3 465.8 880.2C448.4 872 437.3 861 439.9 853.7C442.1 847.6 453 845.6 467.3 847.7C469.8 835.2 474.4 826.3 479.9 824.4C474.4 850.5 476.3 879.2 490 908.3Z" fill="#008FAE"/>
<path d="M524.3 883.8C522.1 889.8 511.2 891.9 497 889.8C495.4 897.6 493 904.1 490 908.3C487.6 911.6 485 913.5 482.1 913.5C474.3 913.5 467.7 899.3 465.8 880.2C448.4 872 437.3 861 439.9 853.7C442.1 847.6 453 845.6 467.3 847.7C469.8 835.2 474.4 826.3 479.9 824.4C480.6 824.1 481.4 824 482.1 824C489.9 824 496.5 838.2 498.4 857.3C515.8 865.5 527 876.4 524.3 883.8Z" stroke="black" stroke-width="18.34" stroke-miterlimit="10" stroke-linecap="round" stroke-linejoin="round"/>
<path d="M988.401 693.999C996.501 711.499 998.201 726.999 991.401 730.999C986.301 733.999 977.601 729.599 968.701 720.499C968.001 719.799 967.201 718.999 966.501 718.199C955.301 727.299 944.801 731.099 939.901 726.999C933.901 721.999 937.901 706.899 948.701 690.899C940.601 673.399 939.001 657.899 945.701 653.899C950.001 651.299 956.801 653.999 964.101 660.299C966.301 662.099 968.401 664.299 970.601 666.699C981.801 657.699 992.301 653.799 997.201 657.899C1003.2 662.999 999.201 678.099 988.401 693.999Z" fill="#00D7AD" stroke="black" stroke-width="18.34" stroke-linecap="round" stroke-linejoin="round"/>
<path d="M968.8 720.499C968.1 719.799 967.3 718.999 966.6 718.199C955.4 727.299 944.9 731.099 940 726.999C934 721.999 938 706.899 948.8 690.899C940.7 673.399 939.1 657.899 945.8 653.899C950.1 651.299 956.9 653.999 964.2 660.299C962 678.499 962.8 698.499 968.8 720.499Z" fill="#008FAE"/>
<path d="M988.401 693.999C996.501 711.499 998.201 726.999 991.401 730.999C986.301 733.999 977.601 729.599 968.701 720.499C968.001 719.799 967.201 718.999 966.501 718.199C955.301 727.299 944.801 731.099 939.901 726.999C933.901 721.999 937.901 706.899 948.701 690.899C940.601 673.399 939.001 657.899 945.701 653.899C950.001 651.299 956.801 653.999 964.101 660.299C966.301 662.099 968.401 664.299 970.601 666.699C981.801 657.699 992.301 653.799 997.201 657.899C1003.2 662.999 999.201 678.099 988.401 693.999Z" stroke="black" stroke-width="18.34" stroke-miterlimit="10" stroke-linecap="round" stroke-linejoin="round"/>
<path d="M767.9 1077.5C754.9 1085.5 677.2 1029.3 677.2 1029.3C677.2 1029.3 660.9 1060.6 643.7 1087.5C630.8 1107.6 617.5 1125.4 610.1 1125.7C592.4 1126.6 634.5 1000 634.5 1000C634.5 1000 543.1 894.5 559.4 887.5C567 884.2 589.5 895.1 611.2 907.5C635.3 921.2 658.2 936.8 658.2 936.8C658.2 936.8 706.2 859.6 721.2 861.1C736 862.5 699 981.7 699 981.7C699 981.7 780.8 1069.6 767.9 1077.5Z" fill="#E3F5F5" stroke="black" stroke-width="18.34" stroke-linecap="round" stroke-linejoin="round"/>
<path d="M656.5 1009.5L647.7 1063.4C644.7 1082 637 1099.6 624.9 1114C619 1121 613.8 1125.5 610.1 1125.7C592.4 1126.6 634.5 999.999 634.5 999.999C634.5 999.999 543.1 894.499 559.4 887.499C567 884.199 589.5 895.099 611.2 907.499C603.5 910.399 601 920.199 606.4 926.399L645.7 971.899C654.8 982.199 658.7 995.999 656.5 1009.5Z" fill="#B8B7B7"/>
<path d="M767.9 1077.5C754.9 1085.5 677.2 1029.3 677.2 1029.3C677.2 1029.3 660.9 1060.6 643.7 1087.5C630.8 1107.6 617.5 1125.4 610.1 1125.7C592.4 1126.6 634.5 1000 634.5 1000C634.5 1000 543.1 894.5 559.4 887.5C567 884.2 589.5 895.1 611.2 907.5C635.3 921.2 658.2 936.8 658.2 936.8C658.2 936.8 706.2 859.6 721.2 861.1C736 862.5 699 981.7 699 981.7C699 981.7 780.8 1069.6 767.9 1077.5Z" stroke="black" stroke-width="18.34" stroke-linecap="round" stroke-linejoin="round"/>
<path d="M1014.4 988.899C1010.3 1001.2 992.9 1000.6 988.799 988.299C986.499 981.199 983.4 974.099 978.9 967.299C974.5 960.499 968.7 953.999 961 947.999C956.1 942.999 951.2 943.599 949 949.099C948.7 949.899 948.4 950.899 948.2 951.899C943.1 980.299 932.499 1002.4 921.599 1016.7C921.099 1017.4 920.499 1018 919.799 1018.5C911.899 1025.3 898.8 1017.8 902 1006.8C920 944.699 922.299 906.499 897.5 878.699C892.4 872.999 877.3 851.099 836.5 829.999C828.1 825.699 831.699 812.799 841.099 813.699C852.799 814.899 865.599 818.199 875.799 821.499C885.099 824.399 893.8 828.899 902.2 833.999C907.1 836.899 913.3 838.999 915.4 835.199C915.4 835.199 915.4 835.099 915.5 834.999C916.1 833.899 916.599 832.699 917.099 831.699C925.299 813.799 923.4 802.099 910.4 780.599C906.1 773.499 913.699 765.199 921.299 768.799C949.599 781.999 967.8 815.399 960.4 857.999C958.1 871.499 964.7 889.499 975.2 898.399C1017.7 934.799 1022.3 964.799 1014.4 988.899Z" fill="#E3F5F5" stroke="black" stroke-width="18.34" stroke-linecap="round" stroke-linejoin="round"/>
<path d="M919.899 1018.6C911.999 1025.4 898.899 1017.9 902.099 1006.9C920.099 944.799 922.399 906.599 897.599 878.799C892.499 873.099 877.399 851.199 836.599 830.099C828.199 825.799 831.799 812.899 841.199 813.799C852.899 814.999 866.199 817.099 875.899 821.599C862.699 836.599 975.599 886.599 919.899 1018.6Z" fill="#B8B7B7"/>
<path d="M1014.4 988.898C1010.3 1001.2 992.899 1000.6 988.799 988.298C986.499 981.198 983.4 974.098 978.9 967.298C974.5 960.498 968.7 953.998 961 947.998C956.1 942.998 951.2 943.598 949 949.098C948.7 949.898 948.4 950.898 948.2 951.898C943.1 980.298 932.499 1002.4 921.599 1016.7C914.099 1026.5 898.6 1018.7 902 1006.9C920 944.798 922.3 906.598 897.5 878.798C892.4 873.098 877.3 851.198 836.5 830.098C828.1 825.798 831.699 812.898 841.099 813.798C852.799 814.998 865.599 818.298 875.799 821.598C885.099 824.498 893.8 828.998 902.2 834.098C907.2 837.098 913.5 839.198 915.5 835.198C916.1 834.098 916.599 832.898 917.099 831.898C925.299 813.998 923.4 802.298 910.4 780.798C906.1 773.698 913.699 765.398 921.299 768.998C949.599 782.198 967.8 815.598 960.4 858.198C958.1 871.698 964.7 889.698 975.2 898.598C1017.7 934.798 1022.4 964.798 1014.4 988.898Z" stroke="black" stroke-width="18.34" stroke-linecap="round" stroke-linejoin="round"/>
</g>
</svg>
