<svg width="378" height="130" viewBox="0 0 378 130" fill="none" xmlns="http://www.w3.org/2000/svg">
<mask id="path-1-outside-1_2801_7979" maskUnits="userSpaceOnUse" x="0" y="0.193359" width="378" height="129" fill="black">
<rect fill="white" y="0.193359" width="378" height="129"/>
<path d="M359.18 33.7682C352.627 34.6877 348.217 39.1762 345.318 43.8895C345.427 43.2288 345.427 42.6907 345.427 42.2616C345.427 39.2511 343.277 37.1874 339.514 37.7118C335.22 38.3112 330.749 42.6498 328.667 47.7786C328.061 48.7185 327.394 49.6925 326.462 50.5098C328.238 44.9247 329.15 39.0877 329.15 33.4617C329.15 16.8973 321.304 5.19589 304.428 7.55932C282.822 10.5834 267.995 33.9658 267.995 55.3729C267.995 56.4558 268.035 57.5047 268.11 58.5264C266.994 59.6775 265.708 60.6446 264.34 60.8353C263.374 60.9715 262.836 60.5084 262.836 59.1121C262.836 58.036 263.156 56.3809 263.156 54.8689C263.156 50.8912 260.359 48.051 255.63 48.7185C252.296 49.1884 249.077 50.9253 246.28 53.3636C253.48 42.7793 256.705 30.39 256.705 21.4607C256.705 11.0261 252.194 6.38782 245.634 7.30732C228.145 9.75929 221.49 46.6547 220.952 66.039C218.543 69.608 215.304 73.2996 209.418 74.1237C205.982 74.6073 204.369 72.5708 204.369 69.9894C204.369 67.408 206.193 65.4328 207.377 65.2625C207.914 65.1876 208.561 65.3102 208.561 66.6043C208.561 67.3603 208.132 67.8507 208.132 68.9269C208.132 70.5411 209.636 71.086 211.677 70.7999C216.087 70.1801 219.306 66.3932 219.306 62.4155C219.306 57.3617 215.223 53.9494 207.914 54.9778C199.918 56.0948 193.522 61.5369 190.167 68.3002C189.255 62.2044 185.506 58.1109 178.572 59.0849C172.018 60.0044 167.609 64.4929 164.71 69.2061C164.819 68.5454 164.819 68.0074 164.819 67.5783C164.819 64.5678 162.669 62.504 158.905 63.0285C154.612 63.6279 150.141 67.9665 148.058 73.0952C147.453 74.0351 146.786 75.0091 145.854 75.8264C147.63 70.2414 148.542 64.4043 148.542 58.7784C148.542 42.2139 140.696 30.5126 123.819 32.876C102.214 35.9001 87.3861 59.2824 87.3861 80.6895C87.3861 81.7725 87.4269 82.8214 87.5018 83.843C86.3858 84.9941 85.0996 85.9613 83.7319 86.152C82.7656 86.2882 82.228 85.8251 82.228 84.4288C82.228 83.3527 82.5478 81.6976 82.5478 80.1855C82.5478 76.2079 79.751 73.3677 75.0216 74.0351C71.6872 74.5051 68.4685 76.2419 65.6717 78.6803C72.8713 68.0959 76.0968 55.7066 76.0968 46.7773C76.0968 36.3428 71.5851 31.7045 65.0252 32.624C47.5367 35.076 40.8815 71.9714 40.3439 91.3556C37.935 94.9246 34.6959 98.6162 28.8097 99.4404C25.3732 99.9239 23.7604 97.8874 23.7604 95.306C23.7604 92.7247 25.5841 90.7495 26.7682 90.5792C27.3058 90.5043 27.9522 90.6269 27.9522 91.921C27.9522 92.677 27.5235 93.1674 27.5235 94.2435C27.5235 95.8577 29.0274 96.4026 31.0689 96.1166C35.4784 95.4967 38.6972 91.7098 38.6972 87.7322C38.6972 82.6784 34.6142 79.266 27.3058 80.2945C15.3836 81.9291 7 93.215 7 104.188C7 113.008 12.4779 119.771 23.2296 118.266C31.2798 117.135 37.4927 112.395 41.7934 106.524C43.6171 112.395 47.2033 114.908 52.8921 114.105C58.1591 113.369 60.9559 110.393 60.9559 106.197C60.9559 97.6967 63.535 92.711 64.8279 92.5339C65.1477 92.4863 65.4744 92.6565 65.4744 93.1946C65.4744 94.4887 64.2903 96.5865 64.2903 101.429C64.2903 107.886 68.9108 111.864 76.0083 110.869C83.6162 109.807 88.5293 103.629 91.6051 97.0429C96.2801 104.215 104.46 107.205 114.163 105.85C124.786 104.358 133.108 98.2348 138.899 90.007C140.165 89.7278 141.41 89.3464 142.043 89.1421C143.179 88.7879 144.248 88.3043 145.248 87.7185C144.391 95.5308 143.976 104.256 143.976 109.739C143.976 119.853 148.276 122.904 154.292 122.06C161.28 121.079 166.867 116.747 166.867 112.34C166.867 111.155 164.608 107.062 164.608 96.0893C166.33 96.9271 168.691 97.2404 171.27 96.8794C178.646 95.8441 184.757 89.9185 187.962 82.6171C189.33 89.5167 194.665 94.2503 203.831 92.963C211.881 91.8324 218.094 87.0919 222.395 81.2208C224.219 87.0919 227.805 89.6052 233.494 88.8015C238.761 88.0659 241.558 85.0895 241.558 80.8939C241.558 72.3937 244.137 67.408 245.429 67.2309C245.749 67.1832 246.076 67.3535 246.076 67.8916C246.076 69.1857 244.892 71.2835 244.892 76.1261C244.892 82.583 249.512 86.5607 256.61 85.5662C264.218 84.5037 269.131 78.3261 272.207 71.7398C276.882 78.9119 285.061 81.9019 294.765 80.5465C305.387 79.0549 313.71 72.9318 319.501 64.704C320.766 64.4248 322.012 64.0433 322.645 63.839C323.781 63.4848 324.849 63.0013 325.85 62.4155C324.992 70.2278 324.577 78.9527 324.577 84.4356C324.577 94.55 328.878 97.6014 334.893 96.7568C341.882 95.776 347.469 91.4442 347.469 87.0374C347.469 85.8523 345.21 81.7589 345.21 70.7863C346.931 71.624 349.292 71.9374 351.871 71.5764C362.834 70.0439 371 57.7091 371 46.0894C371 38.3453 367.237 32.6308 359.18 33.7614V33.7682ZM57.3017 75.411C57.6215 69.7714 58.4857 63.4099 59.8807 59.2347C60.7382 56.4218 61.7113 55.2162 62.4598 55.1072C63.4261 54.971 63.8548 55.9859 63.8548 57.4911C63.8548 61.5777 60.5204 70.221 57.3017 75.4042V75.411ZM118.239 81.3979C113.939 81.9973 110.822 78.7824 110.822 70.9293C110.822 60.1747 116.838 49.3247 123.506 48.3915C127.48 47.833 130.168 51.007 130.168 59.1871C130.168 70.4798 125.01 80.458 118.239 81.4047V81.3979ZM170.515 78.4828C169.33 78.6462 167.936 78.1967 167.078 77.2431C168.371 73.5107 170.515 70.8476 172.774 70.5275C174.387 70.3027 175.135 71.4878 175.135 72.8841C175.135 75.4655 172.774 78.1626 170.515 78.4828ZM237.903 50.1079C238.223 44.4684 239.087 38.1069 240.482 33.9317C241.34 31.1187 242.313 29.9132 243.061 29.8042C244.028 29.668 244.456 30.6828 244.456 32.1881C244.456 36.2747 241.122 44.9179 237.903 50.1011V50.1079ZM298.841 56.0948C294.54 56.6942 291.424 53.4794 291.424 45.6263C291.424 34.8716 297.439 24.0216 304.108 23.0885C308.082 22.53 310.77 25.704 310.77 33.884C310.77 45.1767 305.612 55.1549 298.841 56.1017V56.0948ZM351.116 53.1797C349.932 53.3432 348.537 52.8937 347.68 51.9401C348.973 48.2077 351.116 45.5445 353.375 45.2244C354.988 44.9996 355.737 46.1848 355.737 47.581C355.737 50.1624 353.375 52.8596 351.116 53.1797Z"/>
</mask>
<path d="M359.18 33.7682C352.627 34.6877 348.217 39.1762 345.318 43.8895C345.427 43.2288 345.427 42.6907 345.427 42.2616C345.427 39.2511 343.277 37.1874 339.514 37.7118C335.22 38.3112 330.749 42.6498 328.667 47.7786C328.061 48.7185 327.394 49.6925 326.462 50.5098C328.238 44.9247 329.15 39.0877 329.15 33.4617C329.15 16.8973 321.304 5.19589 304.428 7.55932C282.822 10.5834 267.995 33.9658 267.995 55.3729C267.995 56.4558 268.035 57.5047 268.11 58.5264C266.994 59.6775 265.708 60.6446 264.34 60.8353C263.374 60.9715 262.836 60.5084 262.836 59.1121C262.836 58.036 263.156 56.3809 263.156 54.8689C263.156 50.8912 260.359 48.051 255.63 48.7185C252.296 49.1884 249.077 50.9253 246.28 53.3636C253.48 42.7793 256.705 30.39 256.705 21.4607C256.705 11.0261 252.194 6.38782 245.634 7.30732C228.145 9.75929 221.49 46.6547 220.952 66.039C218.543 69.608 215.304 73.2996 209.418 74.1237C205.982 74.6073 204.369 72.5708 204.369 69.9894C204.369 67.408 206.193 65.4328 207.377 65.2625C207.914 65.1876 208.561 65.3102 208.561 66.6043C208.561 67.3603 208.132 67.8507 208.132 68.9269C208.132 70.5411 209.636 71.086 211.677 70.7999C216.087 70.1801 219.306 66.3932 219.306 62.4155C219.306 57.3617 215.223 53.9494 207.914 54.9778C199.918 56.0948 193.522 61.5369 190.167 68.3002C189.255 62.2044 185.506 58.1109 178.572 59.0849C172.018 60.0044 167.609 64.4929 164.71 69.2061C164.819 68.5454 164.819 68.0074 164.819 67.5783C164.819 64.5678 162.669 62.504 158.905 63.0285C154.612 63.6279 150.141 67.9665 148.058 73.0952C147.453 74.0351 146.786 75.0091 145.854 75.8264C147.63 70.2414 148.542 64.4043 148.542 58.7784C148.542 42.2139 140.696 30.5126 123.819 32.876C102.214 35.9001 87.3861 59.2824 87.3861 80.6895C87.3861 81.7725 87.4269 82.8214 87.5018 83.843C86.3858 84.9941 85.0996 85.9613 83.7319 86.152C82.7656 86.2882 82.228 85.8251 82.228 84.4288C82.228 83.3527 82.5478 81.6976 82.5478 80.1855C82.5478 76.2079 79.751 73.3677 75.0216 74.0351C71.6872 74.5051 68.4685 76.2419 65.6717 78.6803C72.8713 68.0959 76.0968 55.7066 76.0968 46.7773C76.0968 36.3428 71.5851 31.7045 65.0252 32.624C47.5367 35.076 40.8815 71.9714 40.3439 91.3556C37.935 94.9246 34.6959 98.6162 28.8097 99.4404C25.3732 99.9239 23.7604 97.8874 23.7604 95.306C23.7604 92.7247 25.5841 90.7495 26.7682 90.5792C27.3058 90.5043 27.9522 90.6269 27.9522 91.921C27.9522 92.677 27.5235 93.1674 27.5235 94.2435C27.5235 95.8577 29.0274 96.4026 31.0689 96.1166C35.4784 95.4967 38.6972 91.7098 38.6972 87.7322C38.6972 82.6784 34.6142 79.266 27.3058 80.2945C15.3836 81.9291 7 93.215 7 104.188C7 113.008 12.4779 119.771 23.2296 118.266C31.2798 117.135 37.4927 112.395 41.7934 106.524C43.6171 112.395 47.2033 114.908 52.8921 114.105C58.1591 113.369 60.9559 110.393 60.9559 106.197C60.9559 97.6967 63.535 92.711 64.8279 92.5339C65.1477 92.4863 65.4744 92.6565 65.4744 93.1946C65.4744 94.4887 64.2903 96.5865 64.2903 101.429C64.2903 107.886 68.9108 111.864 76.0083 110.869C83.6162 109.807 88.5293 103.629 91.6051 97.0429C96.2801 104.215 104.46 107.205 114.163 105.85C124.786 104.358 133.108 98.2348 138.899 90.007C140.165 89.7278 141.41 89.3464 142.043 89.1421C143.179 88.7879 144.248 88.3043 145.248 87.7185C144.391 95.5308 143.976 104.256 143.976 109.739C143.976 119.853 148.276 122.904 154.292 122.06C161.28 121.079 166.867 116.747 166.867 112.34C166.867 111.155 164.608 107.062 164.608 96.0893C166.33 96.9271 168.691 97.2404 171.27 96.8794C178.646 95.8441 184.757 89.9185 187.962 82.6171C189.33 89.5167 194.665 94.2503 203.831 92.963C211.881 91.8324 218.094 87.0919 222.395 81.2208C224.219 87.0919 227.805 89.6052 233.494 88.8015C238.761 88.0659 241.558 85.0895 241.558 80.8939C241.558 72.3937 244.137 67.408 245.429 67.2309C245.749 67.1832 246.076 67.3535 246.076 67.8916C246.076 69.1857 244.892 71.2835 244.892 76.1261C244.892 82.583 249.512 86.5607 256.61 85.5662C264.218 84.5037 269.131 78.3261 272.207 71.7398C276.882 78.9119 285.061 81.9019 294.765 80.5465C305.387 79.0549 313.71 72.9318 319.501 64.704C320.766 64.4248 322.012 64.0433 322.645 63.839C323.781 63.4848 324.849 63.0013 325.85 62.4155C324.992 70.2278 324.577 78.9527 324.577 84.4356C324.577 94.55 328.878 97.6014 334.893 96.7568C341.882 95.776 347.469 91.4442 347.469 87.0374C347.469 85.8523 345.21 81.7589 345.21 70.7863C346.931 71.624 349.292 71.9374 351.871 71.5764C362.834 70.0439 371 57.7091 371 46.0894C371 38.3453 367.237 32.6308 359.18 33.7614V33.7682ZM57.3017 75.411C57.6215 69.7714 58.4857 63.4099 59.8807 59.2347C60.7382 56.4218 61.7113 55.2162 62.4598 55.1072C63.4261 54.971 63.8548 55.9859 63.8548 57.4911C63.8548 61.5777 60.5204 70.221 57.3017 75.4042V75.411ZM118.239 81.3979C113.939 81.9973 110.822 78.7824 110.822 70.9293C110.822 60.1747 116.838 49.3247 123.506 48.3915C127.48 47.833 130.168 51.007 130.168 59.1871C130.168 70.4798 125.01 80.458 118.239 81.4047V81.3979ZM170.515 78.4828C169.33 78.6462 167.936 78.1967 167.078 77.2431C168.371 73.5107 170.515 70.8476 172.774 70.5275C174.387 70.3027 175.135 71.4878 175.135 72.8841C175.135 75.4655 172.774 78.1626 170.515 78.4828ZM237.903 50.1079C238.223 44.4684 239.087 38.1069 240.482 33.9317C241.34 31.1187 242.313 29.9132 243.061 29.8042C244.028 29.668 244.456 30.6828 244.456 32.1881C244.456 36.2747 241.122 44.9179 237.903 50.1011V50.1079ZM298.841 56.0948C294.54 56.6942 291.424 53.4794 291.424 45.6263C291.424 34.8716 297.439 24.0216 304.108 23.0885C308.082 22.53 310.77 25.704 310.77 33.884C310.77 45.1767 305.612 55.1549 298.841 56.1017V56.0948ZM351.116 53.1797C349.932 53.3432 348.537 52.8937 347.68 51.9401C348.973 48.2077 351.116 45.5445 353.375 45.2244C354.988 44.9996 355.737 46.1848 355.737 47.581C355.737 50.1624 353.375 52.8596 351.116 53.1797Z" fill="url(#paint0_linear_2801_7979)"/>
<path d="M359.18 33.7682C352.627 34.6877 348.217 39.1762 345.318 43.8895C345.427 43.2288 345.427 42.6907 345.427 42.2616C345.427 39.2511 343.277 37.1874 339.514 37.7118C335.22 38.3112 330.749 42.6498 328.667 47.7786C328.061 48.7185 327.394 49.6925 326.462 50.5098C328.238 44.9247 329.15 39.0877 329.15 33.4617C329.15 16.8973 321.304 5.19589 304.428 7.55932C282.822 10.5834 267.995 33.9658 267.995 55.3729C267.995 56.4558 268.035 57.5047 268.11 58.5264C266.994 59.6775 265.708 60.6446 264.34 60.8353C263.374 60.9715 262.836 60.5084 262.836 59.1121C262.836 58.036 263.156 56.3809 263.156 54.8689C263.156 50.8912 260.359 48.051 255.63 48.7185C252.296 49.1884 249.077 50.9253 246.28 53.3636C253.48 42.7793 256.705 30.39 256.705 21.4607C256.705 11.0261 252.194 6.38782 245.634 7.30732C228.145 9.75929 221.49 46.6547 220.952 66.039C218.543 69.608 215.304 73.2996 209.418 74.1237C205.982 74.6073 204.369 72.5708 204.369 69.9894C204.369 67.408 206.193 65.4328 207.377 65.2625C207.914 65.1876 208.561 65.3102 208.561 66.6043C208.561 67.3603 208.132 67.8507 208.132 68.9269C208.132 70.5411 209.636 71.086 211.677 70.7999C216.087 70.1801 219.306 66.3932 219.306 62.4155C219.306 57.3617 215.223 53.9494 207.914 54.9778C199.918 56.0948 193.522 61.5369 190.167 68.3002C189.255 62.2044 185.506 58.1109 178.572 59.0849C172.018 60.0044 167.609 64.4929 164.71 69.2061C164.819 68.5454 164.819 68.0074 164.819 67.5783C164.819 64.5678 162.669 62.504 158.905 63.0285C154.612 63.6279 150.141 67.9665 148.058 73.0952C147.453 74.0351 146.786 75.0091 145.854 75.8264C147.63 70.2414 148.542 64.4043 148.542 58.7784C148.542 42.2139 140.696 30.5126 123.819 32.876C102.214 35.9001 87.3861 59.2824 87.3861 80.6895C87.3861 81.7725 87.4269 82.8214 87.5018 83.843C86.3858 84.9941 85.0996 85.9613 83.7319 86.152C82.7656 86.2882 82.228 85.8251 82.228 84.4288C82.228 83.3527 82.5478 81.6976 82.5478 80.1855C82.5478 76.2079 79.751 73.3677 75.0216 74.0351C71.6872 74.5051 68.4685 76.2419 65.6717 78.6803C72.8713 68.0959 76.0968 55.7066 76.0968 46.7773C76.0968 36.3428 71.5851 31.7045 65.0252 32.624C47.5367 35.076 40.8815 71.9714 40.3439 91.3556C37.935 94.9246 34.6959 98.6162 28.8097 99.4404C25.3732 99.9239 23.7604 97.8874 23.7604 95.306C23.7604 92.7247 25.5841 90.7495 26.7682 90.5792C27.3058 90.5043 27.9522 90.6269 27.9522 91.921C27.9522 92.677 27.5235 93.1674 27.5235 94.2435C27.5235 95.8577 29.0274 96.4026 31.0689 96.1166C35.4784 95.4967 38.6972 91.7098 38.6972 87.7322C38.6972 82.6784 34.6142 79.266 27.3058 80.2945C15.3836 81.9291 7 93.215 7 104.188C7 113.008 12.4779 119.771 23.2296 118.266C31.2798 117.135 37.4927 112.395 41.7934 106.524C43.6171 112.395 47.2033 114.908 52.8921 114.105C58.1591 113.369 60.9559 110.393 60.9559 106.197C60.9559 97.6967 63.535 92.711 64.8279 92.5339C65.1477 92.4863 65.4744 92.6565 65.4744 93.1946C65.4744 94.4887 64.2903 96.5865 64.2903 101.429C64.2903 107.886 68.9108 111.864 76.0083 110.869C83.6162 109.807 88.5293 103.629 91.6051 97.0429C96.2801 104.215 104.46 107.205 114.163 105.85C124.786 104.358 133.108 98.2348 138.899 90.007C140.165 89.7278 141.41 89.3464 142.043 89.1421C143.179 88.7879 144.248 88.3043 145.248 87.7185C144.391 95.5308 143.976 104.256 143.976 109.739C143.976 119.853 148.276 122.904 154.292 122.06C161.28 121.079 166.867 116.747 166.867 112.34C166.867 111.155 164.608 107.062 164.608 96.0893C166.33 96.9271 168.691 97.2404 171.27 96.8794C178.646 95.8441 184.757 89.9185 187.962 82.6171C189.33 89.5167 194.665 94.2503 203.831 92.963C211.881 91.8324 218.094 87.0919 222.395 81.2208C224.219 87.0919 227.805 89.6052 233.494 88.8015C238.761 88.0659 241.558 85.0895 241.558 80.8939C241.558 72.3937 244.137 67.408 245.429 67.2309C245.749 67.1832 246.076 67.3535 246.076 67.8916C246.076 69.1857 244.892 71.2835 244.892 76.1261C244.892 82.583 249.512 86.5607 256.61 85.5662C264.218 84.5037 269.131 78.3261 272.207 71.7398C276.882 78.9119 285.061 81.9019 294.765 80.5465C305.387 79.0549 313.71 72.9318 319.501 64.704C320.766 64.4248 322.012 64.0433 322.645 63.839C323.781 63.4848 324.849 63.0013 325.85 62.4155C324.992 70.2278 324.577 78.9527 324.577 84.4356C324.577 94.55 328.878 97.6014 334.893 96.7568C341.882 95.776 347.469 91.4442 347.469 87.0374C347.469 85.8523 345.21 81.7589 345.21 70.7863C346.931 71.624 349.292 71.9374 351.871 71.5764C362.834 70.0439 371 57.7091 371 46.0894C371 38.3453 367.237 32.6308 359.18 33.7614V33.7682ZM57.3017 75.411C57.6215 69.7714 58.4857 63.4099 59.8807 59.2347C60.7382 56.4218 61.7113 55.2162 62.4598 55.1072C63.4261 54.971 63.8548 55.9859 63.8548 57.4911C63.8548 61.5777 60.5204 70.221 57.3017 75.4042V75.411ZM118.239 81.3979C113.939 81.9973 110.822 78.7824 110.822 70.9293C110.822 60.1747 116.838 49.3247 123.506 48.3915C127.48 47.833 130.168 51.007 130.168 59.1871C130.168 70.4798 125.01 80.458 118.239 81.4047V81.3979ZM170.515 78.4828C169.33 78.6462 167.936 78.1967 167.078 77.2431C168.371 73.5107 170.515 70.8476 172.774 70.5275C174.387 70.3027 175.135 71.4878 175.135 72.8841C175.135 75.4655 172.774 78.1626 170.515 78.4828ZM237.903 50.1079C238.223 44.4684 239.087 38.1069 240.482 33.9317C241.34 31.1187 242.313 29.9132 243.061 29.8042C244.028 29.668 244.456 30.6828 244.456 32.1881C244.456 36.2747 241.122 44.9179 237.903 50.1011V50.1079ZM298.841 56.0948C294.54 56.6942 291.424 53.4794 291.424 45.6263C291.424 34.8716 297.439 24.0216 304.108 23.0885C308.082 22.53 310.77 25.704 310.77 33.884C310.77 45.1767 305.612 55.1549 298.841 56.1017V56.0948ZM351.116 53.1797C349.932 53.3432 348.537 52.8937 347.68 51.9401C348.973 48.2077 351.116 45.5445 353.375 45.2244C354.988 44.9996 355.737 46.1848 355.737 47.581C355.737 50.1624 353.375 52.8596 351.116 53.1797Z" stroke="black" stroke-width="14" mask="url(#path-1-outside-1_2801_7979)"/>
<defs>
<linearGradient id="paint0_linear_2801_7979" x1="60.3063" y1="105.352" x2="107.025" y2="-42.5228" gradientUnits="userSpaceOnUse">
<stop stop-color="#FFB000"/>
<stop offset="1" stop-color="#AE00A8"/>
</linearGradient>
</defs>
</svg>
