<svg viewBox="0 0 268 85" width="100%" height="100%" fill="none" xmlns="http://www.w3.org/2000/svg">
  <path
    fill="#fff"
    d="M258.443 19.9392c-4.808.6742-8.044 3.965-10.172 7.4207.08-.4844.08-.8789.08-1.1935 0-2.2073-1.578-3.7204-4.339-3.3358-3.151.4394-6.432 3.6204-7.96 7.3807-.445.6891-.934 1.4032-1.618 2.0024 1.303-4.0948 1.972-8.3744 1.972-12.4992 0-12.14472-5.757-20.72392-18.142-18.991104C202.409 2.9406 191.528 20.084 191.528 35.7793c0 .794.03 1.563.085 2.312-.819.844-1.763 1.5531-2.767 1.6929-.709.0999-1.103-.2397-1.103-1.2634 0-.789.234-2.0025.234-3.1111 0-2.9163-2.052-4.9987-5.523-4.5093-2.446.3446-4.808 1.618-6.861 3.4057 5.283-7.7602 7.65-16.8438 7.65-23.3905 0-7.6504-3.31-11.051122-8.124-10.376971C162.285 2.33637 157.401 29.3873 157.007 43.5994c-1.768 2.6167-4.145 5.3233-8.465 5.9275-2.521.3546-3.705-1.1385-3.705-3.0311 0-1.8927 1.338-3.3408 2.207-3.4657.395-.0549.869.035.869.9838 0 .5543-.314.9138-.314 1.7028 0 1.1836 1.103 1.5831 2.601 1.3733 3.236-.4544 5.598-3.2309 5.598-6.1472 0-3.7054-2.996-6.2072-8.359-5.4532-5.868.819-10.562 4.809-13.024 9.7677-.669-4.4694-3.421-7.4706-8.509-6.7565-4.809.6742-8.045 3.965-10.172 7.4207.08-.4844.08-.8789.08-1.1935 0-2.2072-1.578-3.7203-4.34-3.3358-3.151.4394-6.432 3.6204-7.96 7.3807-.444.6891-.934 1.4032-1.618 2.0025 1.304-4.0949 1.973-8.3745 1.973-12.4993 0-12.1447-5.758-20.7239-18.1423-18.9911-15.855 2.2172-26.7362 19.3606-26.7362 35.0559 0 .794.0299 1.563.0849 2.3121-.819.8439-1.7628 1.553-2.7665 1.6928-.7091.0999-1.1037-.2397-1.1037-1.2634 0-.789.2347-2.0024.2347-3.111 0-2.9164-2.0524-4.9988-5.523-4.5094-2.4469.3446-4.8089 1.618-6.8613 3.4057 5.2833-7.7602 7.6503-16.8438 7.6503-23.3905 0-7.6504-3.3108-11.0511-8.1247-10.3769C29.7474 20.898 24.8636 47.9489 24.4691 62.161c-1.7678 2.6167-4.1448 5.3233-8.4643 5.9276-2.5218.3545-3.7053-1.1386-3.7053-3.0312s1.3383-3.3408 2.2072-3.4656c.3945-.055.8689.0349.8689.9837 0 .5543-.3146.9139-.3146 1.7029 0 1.1835 1.1036 1.583 2.6017 1.3732 3.2359-.4544 5.5979-3.2309 5.5979-6.1472 0-3.7054-2.9962-6.2072-8.3594-5.4532C6.15223 55.2497 0 63.5243 0 71.5692c0 6.4668 4.01992 11.4256 11.91 10.322 5.9075-.829 10.4667-4.3046 13.6227-8.6092 1.3383 4.3046 3.97 6.1473 8.1448 5.558 3.8651-.5393 5.9175-2.7215 5.9175-5.7977 0-6.2321 1.8926-9.8875 2.8414-10.0174.2347-.0349.4744.0899.4744.4844 0 .9488-.8689 2.4869-.8689 6.0374 0 4.7341 3.3907 7.6504 8.5991 6.9213 5.583-.779 9.1884-5.3083 11.4456-10.1372 3.4306 5.2584 9.433 7.4506 16.554 6.4569 7.7952-1.0937 13.9025-5.583 18.1521-11.6154.9288-.2048 1.8427-.4844 2.3071-.6342.8339-.2597 1.6182-.6142 2.3522-1.0437-.629 5.7278-.934 12.1247-.934 16.1447 0 7.4156 3.156 9.6528 7.57 9.0336 5.129-.7191 9.229-3.8951 9.229-7.126 0-.8689-1.658-3.8702-1.658-11.915 1.263.6142 2.996.8439 4.889.5792 5.413-.759 9.897-5.1035 12.249-10.4568 1.004 5.0586 4.919 8.5293 11.646 7.5855 5.907-.829 10.466-4.3046 13.622-8.6092 1.339 4.3046 3.97 6.1473 8.145 5.558 3.865-.5393 5.918-2.7216 5.918-5.7977 0-6.2322 1.892-9.8876 2.841-10.0174.235-.0349.474.0899.474.4844 0 .9488-.869 2.4869-.869 6.0374 0 4.734 3.391 7.6504 8.6 6.9213 5.583-.779 9.188-5.3083 11.445-10.1373 3.431 5.2584 9.433 7.4507 16.554 6.4569 7.795-1.0936 13.903-5.583 18.152-11.6154.929-.2047 1.843-.4843 2.307-.6342.834-.2596 1.618-.6142 2.352-1.0436-.629 5.7277-.933 12.1247-.933 16.1446 0 7.4157 3.156 9.6529 7.57 9.0337 5.128-.7191 9.228-3.8951 9.228-7.1261 0-.8689-1.658-3.8701-1.658-11.915 1.264.6143 2.997.844 4.889.5793 8.045-1.1236 14.037-10.1672 14.037-18.6865 0-5.6778-2.761-9.8676-8.674-9.0386v.005ZM36.9134 50.4708c.2347-4.1348.8689-8.799 1.8926-11.8601.6292-2.0624 1.3433-2.9463 1.8926-3.0262.7091-.0999 1.0237.6442 1.0237 1.7478 0 2.9962-2.4469 9.3332-4.8089 13.1335v.005Zm44.7185 4.3894c-3.1561.4395-5.4432-1.9176-5.4432-7.6753 0-7.8851 4.4145-15.8401 9.3083-16.5242 2.9163-.4095 4.8888 1.9176 4.8888 7.915 0 8.2796-3.7852 15.5954-8.7539 16.2895v-.005Zm38.3611-2.1373c-.869.1199-1.892-.2097-2.521-.9088.948-2.7366 2.521-4.6891 4.179-4.9238 1.184-.1648 1.733.7041 1.733 1.7278 0 1.8926-1.733 3.8701-3.391 4.1048Zm49.453-20.8038c.235-4.1348.869-8.7989 1.893-11.8601.629-2.0624 1.343-2.9462 1.892-3.0261.709-.0999 1.024.6441 1.024 1.7478 0 2.9962-2.447 9.3332-4.809 13.1334v.005Zm44.718 4.3895c-3.156.4394-5.443-1.9176-5.443-7.6753 0-7.8851 4.415-15.8401 9.309-16.5242 2.916-.4095 4.888 1.9175 4.888 7.915 0 8.2796-3.785 15.5954-8.754 16.2895v-.005Zm38.362-2.1373c-.869.1198-1.893-.2098-2.522-.9089.949-2.7365 2.522-4.6891 4.18-4.9238 1.183-.1648 1.733.7041 1.733 1.7278 0 1.8927-1.733 3.8702-3.391 4.1049Z"
  />
</svg>
