<svg width="268" height="85" viewBox="0 0 268 85" fill="none" xmlns="http://www.w3.org/2000/svg">
<path d="M258.443 19.9392C253.635 20.6134 250.399 23.9042 248.271 27.3599C248.351 26.8755 248.351 26.481 248.351 26.1664C248.351 23.9591 246.773 22.446 244.012 22.8306C240.861 23.27 237.58 26.451 236.052 30.2113C235.607 30.9004 235.118 31.6145 234.434 32.2137C235.737 28.1189 236.406 23.8393 236.406 19.7145C236.406 7.56978 230.649 -1.00942 218.264 0.723396C202.409 2.9406 191.528 20.084 191.528 35.7793C191.528 36.5733 191.558 37.3423 191.613 38.0913C190.794 38.9353 189.85 39.6444 188.846 39.7842C188.137 39.8841 187.743 39.5445 187.743 38.5208C187.743 37.7318 187.977 36.5183 187.977 35.4097C187.977 32.4934 185.925 30.411 182.454 30.9004C180.008 31.245 177.646 32.5184 175.593 34.3061C180.876 26.5459 183.243 17.4623 183.243 10.9156C183.243 3.2652 179.933 -0.135522 175.119 0.538629C162.285 2.33637 157.401 29.3873 157.007 43.5994C155.239 46.2161 152.862 48.9227 148.542 49.5269C146.021 49.8815 144.837 48.3884 144.837 46.4958C144.837 44.6031 146.175 43.155 147.044 43.0301C147.439 42.9752 147.913 43.0651 147.913 44.0139C147.913 44.5682 147.599 44.9277 147.599 45.7167C147.599 46.9003 148.702 47.2998 150.2 47.09C153.436 46.6356 155.798 43.8591 155.798 40.9428C155.798 37.2374 152.802 34.7356 147.439 35.4896C141.571 36.3086 136.877 40.2986 134.415 45.2573C133.746 40.7879 130.994 37.7867 125.906 38.5008C121.097 39.175 117.861 42.4658 115.734 45.9215C115.814 45.4371 115.814 45.0426 115.814 44.728C115.814 42.5208 114.236 41.0077 111.474 41.3922C108.323 41.8316 105.042 45.0126 103.514 48.7729C103.07 49.462 102.58 50.1761 101.896 50.7754C103.2 46.6805 103.869 42.4009 103.869 38.2761C103.869 26.1314 98.111 17.5522 85.7267 19.285C69.8717 21.5022 58.9905 38.6456 58.9905 54.3409C58.9905 55.1349 59.0204 55.9039 59.0754 56.653C58.2564 57.4969 57.3126 58.206 56.3089 58.3458C55.5998 58.4457 55.2052 58.1061 55.2052 57.0824C55.2052 56.2934 55.4399 55.08 55.4399 53.9714C55.4399 51.055 53.3875 48.9726 49.9169 49.462C47.47 49.8066 45.108 51.08 43.0556 52.8677C48.3389 45.1075 50.7059 36.0239 50.7059 29.4772C50.7059 21.8268 47.3951 18.4261 42.5812 19.1003C29.7474 20.898 24.8636 47.9489 24.4691 62.161C22.7013 64.7777 20.3243 67.4843 16.0048 68.0886C13.483 68.4431 12.2995 66.95 12.2995 65.0574C12.2995 63.1648 13.6378 61.7166 14.5067 61.5918C14.9012 61.5368 15.3756 61.6267 15.3756 62.5755C15.3756 63.1298 15.061 63.4894 15.061 64.2784C15.061 65.4619 16.1646 65.8614 17.6627 65.6516C20.8986 65.1972 23.2606 62.4207 23.2606 59.5044C23.2606 55.799 20.2644 53.2972 14.9012 54.0512C6.15223 55.2497 0 63.5243 0 71.5692C0 78.036 4.01992 82.9948 11.91 81.8912C17.8175 81.0622 22.3767 77.5866 25.5327 73.282C26.871 77.5866 29.5027 79.4293 33.6775 78.84C37.5426 78.3007 39.595 76.1185 39.595 73.0423C39.595 66.8102 41.4876 63.1548 42.4364 63.0249C42.6711 62.99 42.9108 63.1148 42.9108 63.5093C42.9108 64.4581 42.0419 65.9962 42.0419 69.5467C42.0419 74.2808 45.4326 77.1971 50.641 76.468C56.224 75.689 59.8294 71.1597 62.0866 66.3308C65.5172 71.5892 71.5196 73.7814 78.6406 72.7877C86.4358 71.694 92.5431 67.2047 96.7927 61.1723C97.7215 60.9675 98.6354 60.6879 99.0998 60.5381C99.9337 60.2784 100.718 59.9239 101.452 59.4944C100.823 65.2222 100.518 71.6191 100.518 75.6391C100.518 83.0547 103.674 85.2919 108.088 84.6727C113.217 83.9536 117.317 80.7776 117.317 77.5467C117.317 76.6778 115.659 73.6765 115.659 65.6317C116.922 66.2459 118.655 66.4756 120.548 66.2109C125.961 65.4519 130.445 61.1074 132.797 55.7541C133.801 60.8127 137.716 64.2834 144.443 63.3396C150.35 62.5106 154.909 59.035 158.065 54.7304C159.404 59.035 162.035 60.8777 166.21 60.2884C170.075 59.7491 172.128 57.5668 172.128 54.4907C172.128 48.2585 174.02 44.6031 174.969 44.4733C175.204 44.4384 175.443 44.5632 175.443 44.9577C175.443 45.9065 174.574 47.4446 174.574 50.9951C174.574 55.7291 177.965 58.6455 183.174 57.9164C188.757 57.1374 192.362 52.6081 194.619 47.7791C198.05 53.0375 204.052 55.2298 211.173 54.236C218.968 53.1424 225.076 48.653 229.325 42.6206C230.254 42.4159 231.168 42.1363 231.632 41.9864C232.466 41.7268 233.25 41.3722 233.984 40.9428C233.355 46.6705 233.051 53.0675 233.051 57.0874C233.051 64.5031 236.207 66.7403 240.621 66.1211C245.749 65.402 249.849 62.226 249.849 58.995C249.849 58.1261 248.191 55.1249 248.191 47.08C249.455 47.6943 251.188 47.924 253.08 47.6593C261.125 46.5357 267.117 37.4921 267.117 28.9728C267.117 23.295 264.356 19.1052 258.443 19.9342V19.9392ZM36.9134 50.4708C37.1481 46.336 37.7823 41.6718 38.806 38.6107C39.4352 36.5483 40.1493 35.6644 40.6986 35.5845C41.4077 35.4846 41.7223 36.2287 41.7223 37.3323C41.7223 40.3285 39.2754 46.6655 36.9134 50.4658V50.4708ZM81.6319 54.8602C78.4758 55.2997 76.1887 52.9426 76.1887 47.1849C76.1887 39.2998 80.6032 31.3448 85.497 30.6607C88.4133 30.2512 90.3858 32.5783 90.3858 38.5757C90.3858 46.8553 86.6006 54.1711 81.6319 54.8652V54.8602ZM119.993 52.7229C119.124 52.8428 118.101 52.5132 117.472 51.8141C118.42 49.0775 119.993 47.125 121.651 46.8903C122.835 46.7255 123.384 47.5944 123.384 48.6181C123.384 50.5107 121.651 52.4882 119.993 52.7229ZM169.446 31.9191C169.681 27.7843 170.315 23.1202 171.339 20.059C171.968 17.9966 172.682 17.1128 173.231 17.0329C173.94 16.933 174.255 17.677 174.255 18.7807C174.255 21.7769 171.808 28.1139 169.446 31.9141V31.9191ZM214.164 36.3086C211.008 36.748 208.721 34.391 208.721 28.6333C208.721 20.7482 213.136 12.7932 218.03 12.1091C220.946 11.6996 222.918 14.0266 222.918 20.0241C222.918 28.3037 219.133 35.6195 214.164 36.3136V36.3086ZM252.526 34.1713C251.657 34.2911 250.633 33.9615 250.004 33.2624C250.953 30.5259 252.526 28.5733 254.184 28.3386C255.367 28.1738 255.917 29.0427 255.917 30.0664C255.917 31.9591 254.184 33.9366 252.526 34.1713Z" fill="white"/>
</svg>
