<svg width="2000" height="2000" viewBox="0 0 2000 2000" fill="none" xmlns="http://www.w3.org/2000/svg">
<g clip-path="url(#clip0_429_85)">
<mask id="mask0_429_85" style="mask-type:luminance" maskUnits="userSpaceOnUse" x="0" y="0" width="2000" height="2000">
<path d="M2000 0H0V2000H2000V0Z" fill="white"/>
</mask>
<g mask="url(#mask0_429_85)">
<path d="M589.94 857.42C586.85 848.32 576 844.51 567.3 848.62C536.67 863.09 488.47 916.06 495.68 1014.3C504.01 1127.75 575.42 1214.66 679.91 1202.7C786.52 1190.49 785.72 1040.36 772.21 983.35C754.53 908.68 667.49 849.48 607.05 896.69C530.98 956.11 558.02 1078.74 626.71 1108.92C695.41 1139.1 732.38 1061.83 704.36 1003.64C672.42 937.31 602.22 980.24 642.53 1000C713.38 1034.73 677.22 1114.01 627.04 1061.19C592.56 1024.88 579.86 960.97 618.4 925.73C656.94 890.49 735.75 933.99 743.17 1039.16C749.33 1126.55 697.14 1173.54 633.9 1157.92C570.66 1142.31 513.03 1031.35 534.89 955.37C552.92 892.68 596.25 876.04 589.93 857.43L589.94 857.42Z" fill="#3C1482" stroke="black" stroke-width="18.34" stroke-linecap="round" stroke-linejoin="round"/>
<path d="M873.749 972.699C864.749 964.759 851.929 976.339 858.859 986.139C902.269 1047.59 952.679 1058.69 1004.68 1039.15C1070.92 1014.27 1058.87 911.039 1031.35 856.849C1003.82 802.659 951.349 736.419 889.409 757.919C827.469 779.429 825.749 896.419 882.529 949.749C939.299 1003.08 991.059 977.749 996.589 931.299C1002.12 884.849 959.629 798.959 922.639 822.599C885.649 846.239 905.249 912.209 936.379 899.779C967.509 887.359 925.189 844.859 943.249 850.879C961.309 856.899 997.039 924.389 934.759 930.889C889.569 935.609 841.079 869.889 885.459 806.629C920.619 756.519 1015.86 817.259 1024.46 926.509C1033.06 1035.76 943.599 1012.38 912.629 999.979C901.679 995.599 887.499 984.799 873.739 972.679L873.749 972.699Z" fill="#3C1482" stroke="black" stroke-width="18.34" stroke-linecap="round" stroke-linejoin="round"/>
<path d="M437.55 1014.27C476.71 1025.39 436.76 960.38 503.11 824.75C450.11 861.23 370.84 995.34 437.55 1014.27Z" fill="#FFC800" stroke="black" stroke-width="18.34" stroke-linecap="round" stroke-linejoin="round"/>
<path d="M948.079 682.179C893.449 684.199 914.059 728.569 961.219 727.789C1008.38 727.019 1023.07 776.489 1038.53 787.319C1038.53 787.319 1018.29 679.579 948.079 682.179Z" fill="#FFC800" stroke="black" stroke-width="18.34" stroke-linecap="round" stroke-linejoin="round"/>
<path d="M812.439 1150.17L835.749 1022.64L920.019 1086.41" stroke="black" stroke-width="18.34" stroke-linecap="round" stroke-linejoin="round"/>
</g>
</g>
<defs>
<clipPath id="clip0_429_85">
<rect width="2000" height="2000" fill="white"/>
</clipPath>
</defs>
</svg>
