<svg width="2000" height="2000" viewBox="0 0 2000 2000" fill="none" xmlns="http://www.w3.org/2000/svg">
<mask id="mask0_595_634" style="mask-type:luminance" maskUnits="userSpaceOnUse" x="0" y="0" width="2000" height="2000">
<path d="M2000 0H0V2000H2000V0Z" fill="white"/>
</mask>
<g mask="url(#mask0_595_634)">
<path d="M589.938 857.42C586.848 848.32 575.998 844.51 567.298 848.62C536.668 863.09 488.468 916.06 495.678 1014.3C504.008 1127.75 575.418 1214.66 679.908 1202.7C786.518 1190.49 785.718 1040.36 772.208 983.35C754.528 908.68 667.488 849.48 607.048 896.69C530.978 956.11 558.018 1078.74 626.708 1108.92C695.408 1139.1 732.378 1061.83 704.358 1003.64C672.418 937.31 602.218 980.24 642.528 1000C713.378 1034.73 677.218 1114.01 627.038 1061.19C592.558 1024.88 579.858 960.97 618.398 925.73C656.938 890.49 735.748 933.99 743.168 1039.16C749.328 1126.55 697.138 1173.54 633.898 1157.92C570.658 1142.31 513.028 1031.35 534.888 955.37C552.918 892.68 596.248 876.04 589.928 857.43L589.938 857.42Z" fill="#00C1E9" stroke="black" stroke-width="18.34" stroke-linecap="round" stroke-linejoin="round"/>
<path d="M873.749 972.699C864.749 964.759 851.929 976.339 858.859 986.139C902.269 1047.59 952.679 1058.69 1004.68 1039.15C1070.92 1014.27 1058.87 911.039 1031.35 856.849C1003.82 802.659 951.349 736.419 889.409 757.919C827.469 779.429 825.749 896.419 882.529 949.749C939.299 1003.08 991.059 977.749 996.589 931.299C1002.12 884.849 959.629 798.959 922.639 822.599C885.649 846.239 905.249 912.209 936.379 899.779C967.509 887.359 925.189 844.859 943.249 850.879C961.309 856.899 997.039 924.389 934.759 930.889C889.569 935.609 841.079 869.889 885.459 806.629C920.619 756.519 1015.86 817.259 1024.46 926.509C1033.06 1035.76 943.599 1012.38 912.629 999.979C901.679 995.599 887.499 984.799 873.739 972.679L873.749 972.699Z" fill="#00C1E9" stroke="black" stroke-width="18.34" stroke-linecap="round" stroke-linejoin="round"/>
<path d="M437.548 1014.27C476.708 1025.39 436.758 960.38 503.108 824.75C450.108 861.23 370.838 995.34 437.548 1014.27Z" fill="#FF33FF" stroke="black" stroke-width="18.34" stroke-linecap="round" stroke-linejoin="round"/>
<path d="M948.077 682.179C893.447 684.199 914.057 728.569 961.217 727.789C1008.38 727.019 1023.07 776.489 1038.53 787.319C1038.53 787.319 1018.29 679.579 948.077 682.179Z" fill="#FF33FF" stroke="black" stroke-width="18.34" stroke-linecap="round" stroke-linejoin="round"/>
<path d="M812.438 1150.17L835.747 1022.64L920.018 1086.41" stroke="black" stroke-width="18.34" stroke-linecap="round" stroke-linejoin="round"/>
</g>
</svg>
