<svg width="2000" height="2000" viewBox="0 0 2000 2000" fill="none" xmlns="http://www.w3.org/2000/svg">
<mask id="mask0_595_111" style="mask-type:luminance" maskUnits="userSpaceOnUse" x="0" y="0" width="2000" height="2000">
<path d="M2000 0H0V2000H2000V0Z" fill="white"/>
</mask>
<g mask="url(#mask0_595_111)">
<path d="M485.249 903.46C509.199 926.26 479.979 932.71 473.489 968.78C466.989 1004.86 487.079 1023.6 461.729 1034.1C434.499 1045.38 414.479 995.4 420.979 959.32C427.479 923.24 463.919 883.13 485.259 903.45L485.249 903.46Z" fill="#A3E8CF" stroke="black" stroke-width="18.34" stroke-linecap="round" stroke-linejoin="round"/>
<path d="M435.64 924.51C430.04 988.39 446.91 1000.37 474.86 1013.22C475.48 1022.56 473.52 1029.23 461.73 1034.11C434.49 1045.39 414.47 995.39 420.96 959.31C423.1 947.36 428.55 934.97 435.64 924.51Z" fill="#00EEC9"/>
<path d="M485.249 903.46C509.199 926.26 479.979 932.71 473.489 968.78C466.989 1004.86 487.079 1023.6 461.729 1034.1C434.499 1045.38 414.479 995.4 420.979 959.32C427.479 923.24 463.919 883.13 485.259 903.45L485.249 903.46Z" stroke="black" stroke-width="18.34" stroke-miterlimit="10"/>
<path d="M1056.74 799.7C1030.51 807.73 1034.07 780.48 1006.07 756.78C1005.78 756.52 1005.45 756.27 1005.15 756.05C977.518 733.41 951.508 746.36 955.438 713.9C957.088 700.11 969.888 694.53 985.928 695.04C1003.87 695.52 1025.81 703.59 1040.56 716.1C1068.55 739.76 1084.92 791.05 1056.74 799.71V799.7Z" fill="#009FCB" stroke="black" stroke-width="18.34" stroke-linecap="round" stroke-linejoin="round"/>
<path d="M1056.74 799.7C1030.51 807.73 1034.07 780.48 1006.07 756.78C1005.78 756.52 1005.45 756.27 1005.15 756.05C977.518 733.41 951.508 746.36 955.438 713.9C957.088 700.11 969.888 694.53 985.928 695.04C1003.87 695.52 1025.81 703.59 1040.56 716.1C1068.55 739.76 1084.92 791.05 1056.74 799.71V799.7Z" fill="#A3E8CF" stroke="black" stroke-width="18.34" stroke-linecap="round" stroke-linejoin="round"/>
<path d="M1005.15 756.04C977.518 733.4 951.508 746.35 955.438 713.89C957.088 700.1 976.678 690.94 1002.73 697.41C971.968 709.78 980.098 735.3 1005.15 756.05V756.04Z" fill="#00EEC9"/>
<path d="M1056.74 799.7C1030.51 807.73 1034.07 780.48 1006.07 756.78C1005.78 756.52 1005.45 756.27 1005.15 756.05C977.518 733.41 951.508 746.36 955.438 713.9C957.088 700.11 969.888 694.53 985.928 695.04C1003.87 695.52 1025.81 703.59 1040.56 716.1C1068.55 739.76 1084.92 791.05 1056.74 799.71V799.7Z" stroke="black" stroke-width="18.34" stroke-linecap="round" stroke-linejoin="round"/>
<path d="M1056.74 799.7C1030.51 807.73 1034.07 780.48 1006.07 756.78C1005.78 756.52 1005.45 756.27 1005.15 756.05C977.518 733.41 951.508 746.36 955.438 713.9C957.088 700.11 969.888 694.53 985.928 695.04C1003.87 695.52 1025.81 703.59 1040.56 716.1C1068.55 739.76 1084.92 791.05 1056.74 799.71V799.7Z" stroke="black" stroke-width="18.34" stroke-linecap="round" stroke-linejoin="round"/>
<path d="M667.95 1083.01C656.1 1079.38 644.18 1078.86 632.73 1081.91C621.28 1084.99 611.23 1091.38 602.76 1100.47C597.99 1105.57 592.41 1109.17 586.51 1111.33C564.64 1119.33 538.16 1107.92 531.37 1082.97C531.26 1082.6 531.19 1082.27 531.08 1081.91C514.75 1020.79 520.26 962.31 542.05 926.83C552.18 910.28 565.86 898.76 582.52 894.29C634.91 880.28 696.8 941.54 720.8 1031.14C720.91 1031.51 720.98 1031.84 721.09 1032.2C729.45 1063.94 699.37 1092.62 667.97 1083.01H667.95Z" fill="#EBF6F7" stroke="black" stroke-width="18.34" stroke-miterlimit="10"/>
<path d="M586.51 1111.33C564.64 1119.33 538.16 1107.92 531.37 1082.97C531.26 1082.6 531.19 1082.27 531.08 1081.91C514.75 1020.79 520.26 962.31 542.05 926.83C536.76 1044.01 554.06 1082.44 586.52 1111.33H586.51Z" fill="#BAB9B9"/>
<path d="M667.95 1083.01C656.1 1079.38 644.18 1078.86 632.73 1081.91C621.28 1084.99 611.23 1091.38 602.76 1100.47C597.99 1105.57 592.41 1109.17 586.51 1111.33C564.64 1119.33 538.16 1107.92 531.37 1082.97C531.26 1082.6 531.19 1082.27 531.08 1081.91C514.75 1020.79 520.26 962.31 542.05 926.83C552.18 910.28 565.86 898.76 582.52 894.29C634.91 880.28 696.8 941.54 720.8 1031.14C720.91 1031.51 720.98 1031.84 721.09 1032.2C729.45 1063.94 699.37 1092.62 667.97 1083.01H667.95Z" stroke="black" stroke-width="18.34" stroke-miterlimit="10"/>
<path d="M998.718 900.89C980.558 896.85 963.348 898.51 948.898 906.8C935.658 914.36 926.118 926.72 920.248 942.31C919.658 943.81 919.148 945.32 918.638 946.86C910.458 972.43 872.488 974.3 859.018 951.08C858.838 950.75 858.648 950.42 858.468 950.09C821.198 885.15 810.668 821.54 832.748 785.21C837.998 776.52 845.108 769.4 854.208 764.19C901.238 737.19 976.778 780.55 1022.9 860.97C1023.12 861.34 1023.3 861.67 1023.49 862C1036.77 885.37 1024.96 906.76 998.728 900.89H998.718Z" fill="#EBF6F7" stroke="black" stroke-width="18.34" stroke-miterlimit="10"/>
<path d="M920.248 942.309C919.658 943.809 919.148 945.319 918.638 946.859C910.458 972.429 872.488 974.299 859.018 951.079C858.838 950.749 858.648 950.419 858.468 950.089C821.198 885.149 810.668 821.539 832.748 785.209C836.598 858.399 855.018 934.019 920.248 942.309Z" fill="#BAB9B9"/>
<path d="M998.718 900.89C980.558 896.85 963.348 898.51 948.898 906.8C935.658 914.36 926.118 926.72 920.248 942.31C919.658 943.81 919.148 945.32 918.638 946.86C910.458 972.43 872.488 974.3 859.018 951.08C858.838 950.75 858.648 950.42 858.468 950.09C821.198 885.15 810.668 821.54 832.748 785.21C837.998 776.52 845.108 769.4 854.208 764.19C901.238 737.19 976.778 780.55 1022.9 860.97C1023.12 861.34 1023.3 861.67 1023.49 862C1036.77 885.37 1024.96 906.76 998.728 900.89H998.718Z" stroke="black" stroke-width="18.34" stroke-miterlimit="10"/>
<path d="M919.569 1041.81C919.719 1081.47 906.329 1114.12 881.189 1126.52C844.249 1144.79 801.609 1112.87 772.919 1054.24C770.059 1048.44 767.339 1042.39 764.809 1036.08C764.699 1035.79 764.589 1035.49 764.479 1035.2C756.339 1014.91 776.439 989.339 796.839 995.689C810.969 1000.09 824.939 999.689 837.419 993.489C849.929 987.329 859.509 976.139 865.999 961.569C875.319 940.579 894.839 942.419 903.129 962.669C903.239 962.959 903.349 963.259 903.459 963.549C914.279 990.219 919.489 1017.37 919.569 1041.8V1041.81Z" fill="#FF007A" stroke="black" stroke-width="18.34" stroke-linecap="round" stroke-linejoin="round"/>
<path d="M919.568 1041.81C919.718 1081.47 906.328 1114.12 881.188 1126.52C844.248 1144.79 801.608 1112.87 772.918 1054.24C795.588 1032.34 823.478 1019.46 853.628 1019.46C877.508 1019.46 899.998 1027.57 919.558 1041.8L919.568 1041.81Z" fill="#FF0000" stroke="black" stroke-width="18.34" stroke-linecap="round" stroke-linejoin="round"/>
</g>
</svg>
