<svg width="2000" height="2000" viewBox="0 0 2000 2000" fill="none" xmlns="http://www.w3.org/2000/svg">
<path d="M653.3 1101.3C641.5 1097.7 629.5 1097.1 618.1 1100.2C606.6 1103.3 596.6 1109.7 588.1 1118.8C583.3 1123.9 577.8 1127.5 571.9 1129.7C550 1137.7 523.6 1126.3 516.8 1101.3C516.7 1100.9 516.6 1100.6 516.5 1100.2C500.2 1039.1 526.3 977.8 548.1 942.3C558.2 925.8 551.3 917 567.9 912.6C620.3 898.6 682.2 959.8 706.2 1049.4C706.3 1049.8 706.4 1050.1 706.5 1050.5C714.8 1082.3 684.7 1111 653.3 1101.3Z" fill="#CF00B2"/>
<path d="M937.9 925.1C923.4 933.4 913.3 947.4 907.7 965.1C899.5 990.7 861.5 992.6 848.1 969.3C847.9 969 847.7 968.6 847.5 968.3C801.3 887.8 805 827.6 843.3 782.4C878.2 741.1 952.4 916.8 937.9 925.1Z" fill="#CF00B2"/>
</svg>
