<svg width="2000" height="2000" viewBox="0 0 2000 2000" fill="none" xmlns="http://www.w3.org/2000/svg">
<path d="M998.698 1057.3C992.298 1062.4 985.298 1066 977.498 1068.1C928.098 1081.3 870.398 1025.6 848.398 943.7C828.898 871 844.198 802.1 882.298 778.2C913.098 803.1 914.298 819.2 931.698 884.1C942.498 924.6 999.298 977.8 998.698 1057.3Z" fill="#FF2929"/>
<path d="M931.699 884.101C943.699 928.801 1011.5 988.801 996.599 1082.5" stroke="black" stroke-width="18.34" stroke-miterlimit="10" stroke-linecap="round"/>
<path d="M633.517 1190.85C682.861 1177.63 705.065 1100.49 683.111 1018.55C661.157 936.612 603.358 880.906 554.014 894.127C504.669 907.349 482.465 984.49 504.42 1066.43C526.374 1148.37 584.173 1204.07 633.517 1190.85Z" fill="#FF2929"/>
</svg>
