<svg width="2000" height="2000" viewBox="0 0 2000 2000" fill="none" xmlns="http://www.w3.org/2000/svg">
<g clip-path="url(#clip0_258_200)">
<mask id="mask0_258_200" style="mask-type:luminance" maskUnits="userSpaceOnUse" x="0" y="0" width="2000" height="2000">
<path d="M2000 0H0V2000H2000V0Z" fill="white"/>
</mask>
<g mask="url(#mask0_258_200)">
<path d="M489.4 984.501C489.4 984.501 590.9 782.601 625.6 843.501C660.3 904.301 489.4 984.501 489.4 984.501Z" fill="#1BFD00"/>
<path d="M489.4 984.502C489.4 984.502 577.2 943.302 614.2 897.602C585.5 907.602 551.9 916.802 523.3 923.902C503.6 956.102 489.4 984.502 489.4 984.502Z" fill="#169E00"/>
<path d="M730.6 965.7C756 1020.8 744 1080.9 703.8 1100C663.6 1119.1 520 1115.2 520.3 1058.5C520.4 1034.3 601.3 960.1 641.5 941C681.7 921.9 705.2 910.7 730.6 965.7Z" fill="#ECF5F6" stroke="black" stroke-width="14.1" stroke-miterlimit="10"/>
<path d="M799.9 1010.4C799.9 1010.4 864.1 1020.8 889.8 968" stroke="black" stroke-width="16.03" stroke-linecap="round" stroke-linejoin="round"/>
<path d="M670.5 995.401L677.9 973.701" stroke="black" stroke-width="18.34" stroke-linecap="round" stroke-linejoin="round"/>
<path d="M654.2 1048.3L661.5 1026.6" stroke="black" stroke-width="18.34" stroke-linecap="round" stroke-linejoin="round"/>
<path d="M655.5 998.602L641.5 980.502" stroke="black" stroke-width="18.34" stroke-linecap="round" stroke-linejoin="round"/>
<path d="M692.099 1038.9L678 1020.8" stroke="black" stroke-width="18.34" stroke-linecap="round" stroke-linejoin="round"/>
<path d="M650.6 1014.3L627.7 1015.4" stroke="black" stroke-width="18.34" stroke-linecap="round" stroke-linejoin="round"/>
<path d="M704.6 1004.8L681.7 1005.9" stroke="black" stroke-width="18.34" stroke-linecap="round" stroke-linejoin="round"/>
<path d="M489.4 984.501C489.4 984.501 590.9 782.601 625.6 843.501C660.3 904.301 489.4 984.501 489.4 984.501Z" stroke="black" stroke-width="18.34" stroke-linecap="round" stroke-linejoin="round"/>
<path d="M524.5 1037.4C526.7 1047.2 528.7 1045.1 523.9 1054.6C497.3 1106.5 604.8 1114.8 639.2 1111C657 1109.1 714.7 1096.7 721.1 1078.8C631.9 1110.3 536.7 1089.3 524.5 1037.4Z" fill="#B9B8B8"/>
<path d="M730.6 965.7C756 1020.8 744 1080.9 703.8 1100C663.6 1119.1 510.9 1118.4 520.3 1058.5C525.4 1025.9 602.1 961.8 641.5 941C668.1 927 705.2 910.7 730.6 965.7Z" stroke="black" stroke-width="14.48" stroke-miterlimit="10"/>
<path d="M1003.1 815.9C1026.5 866.6 1015.4 921.9 978.4 939.5C941.4 957.1 826.7 950.6 809.5 901.3C792.2 851.9 884.1 810.7 921.1 793.1C958.1 775.5 979.7 765.2 1003.1 815.9Z" fill="#ECF5F6" stroke="black" stroke-width="12.98" stroke-miterlimit="10"/>
<path d="M947.9 843.201L954.7 823.201" stroke="black" stroke-width="16.89" stroke-linecap="round" stroke-linejoin="round"/>
<path d="M932.8 891.9L939.6 871.9" stroke="black" stroke-width="16.89" stroke-linecap="round" stroke-linejoin="round"/>
<path d="M934 846.202L921.1 829.502" stroke="black" stroke-width="16.89" stroke-linecap="round" stroke-linejoin="round"/>
<path d="M967.7 883.202L954.8 866.602" stroke="black" stroke-width="16.89" stroke-linecap="round" stroke-linejoin="round"/>
<path d="M929.5 860.602L908.5 861.602" stroke="black" stroke-width="16.89" stroke-linecap="round" stroke-linejoin="round"/>
<path d="M979.2 851.801L958.1 852.801" stroke="black" stroke-width="16.89" stroke-linecap="round" stroke-linejoin="round"/>
<path d="M811 882C813 891 815 878.8 810.5 887.5C786 935.3 887.299 953.1 918.899 949.7C935.299 947.9 988.399 936.5 994.299 920C912.299 949 822.2 929.7 811 882Z" fill="#B9B8B8"/>
<path d="M1003.1 815.9C1026.5 866.6 1015.4 921.9 978.4 939.5C941.4 957.1 828.5 953.8 809.5 901.3C792.2 853.7 884.8 812.3 921.1 793.1C945.6 780.2 979.7 765.2 1003.1 815.9Z" stroke="black" stroke-width="13.33" stroke-miterlimit="10"/>
<path d="M953.8 721.801C953.8 721.801 770.6 678.001 795.2 764.801C808.6 812.001 953.8 721.801 953.8 721.801Z" fill="#1BFD00"/>
<path d="M880.1 758.8C880.1 758.8 859.6 768.5 817.2 778.5C787.7 768.9 786.8 750.2 799.9 734.4C817.2 778.5 880.1 758.8 880.1 758.8Z" fill="#169E00"/>
<path d="M953.8 721.8C953.8 721.8 760.9 699.9 795.2 764.8C818.5 808.9 953.8 721.8 953.8 721.8Z" stroke="black" stroke-width="18.34" stroke-linecap="round" stroke-linejoin="round"/>
</g>
</g>
<defs>
<clipPath id="clip0_258_200">
<rect width="2000" height="2000" fill="white"/>
</clipPath>
</defs>
</svg>
