<svg width="2000" height="2000" viewBox="0 0 2000 2000" fill="none" xmlns="http://www.w3.org/2000/svg">
<g clip-path="url(#clip0_258_29)">
<mask id="mask0_258_29" style="mask-type:luminance" maskUnits="userSpaceOnUse" x="0" y="0" width="2000" height="2000">
<path d="M2000 0H0V2000H2000V0Z" fill="white"/>
</mask>
<g mask="url(#mask0_258_29)">
<path d="M845.8 1037.3C801.7 1042.1 785.6 1003.3 785.6 1003.3C800.2 1008 858.1 964.201 858.1 964.201C858.1 964.201 842.6 1023.5 845.8 1037.3Z" fill="#DC1E1C"/>
<path d="M964 705.701C958.2 697.901 773.9 815.401 829.2 907.201C901.4 1027.2 1112 902.301 964 705.701Z" fill="#ECF5F6"/>
<path d="M902.1 923.3L882.7 959C847.5 926.7 794.4 907.6 844.2 804.5C823.2 867.5 838.9 922 902.1 923.3Z" fill="#B9B8B8"/>
<path d="M964 705.701C958.2 697.901 773.9 815.401 829.2 907.201C901.4 1027.2 1112 902.301 964 705.701Z" stroke="black" stroke-width="18.34" stroke-miterlimit="10"/>
<path d="M873.1 742.9C873.1 742.9 864 773.2 855.8 791" stroke="#FF5DFF" stroke-width="18.34" stroke-linecap="round" stroke-linejoin="round"/>
<path d="M914.4 701.201C914.4 701.201 905.3 731.501 897.1 749.301" stroke="#FF5DFF" stroke-width="18.34" stroke-linecap="round" stroke-linejoin="round"/>
<path d="M954.2 669.9C954.2 669.9 945.1 700.2 936.9 718" stroke="#FF5DFF" stroke-width="18.34" stroke-linecap="round" stroke-linejoin="round"/>
<path d="M606.499 802.501C587.299 829.501 576.799 801.501 540.199 800.201C503.599 798.901 487.899 821.501 473.899 797.901C458.899 772.601 505.499 745.601 542.099 746.901C578.599 748.101 623.499 778.501 606.499 802.501Z" fill="#FF5DFF" stroke="black" stroke-width="18.34" stroke-linecap="round" stroke-linejoin="round"/>
<path d="M578.5 756.401C514.5 760.001 505 778.401 496.3 807.901C487.1 809.801 480.3 808.901 473.8 797.901C458.8 772.501 505.4 745.601 542 746.901C554.1 747.201 567.2 750.901 578.5 756.401Z" fill="#EA47C0"/>
<path d="M606.499 802.501C587.299 829.501 576.799 801.501 540.199 800.201C503.599 798.901 487.899 821.501 473.899 797.901C458.899 772.601 505.499 745.601 542.099 746.901C578.599 748.101 623.499 778.501 606.499 802.501Z" stroke="black" stroke-width="18.34" stroke-miterlimit="10"/>
<path d="M472.1 922.501C470.3 914.001 714.9 865.301 745 960.901C789.1 1100.3 521.8 1158.4 472.1 922.501Z" fill="#ECF5F6"/>
<path d="M476.4 919.701C473.5 920.801 472 921.801 472.1 922.501C508.6 1096 662.8 1110.4 724.4 1050.5L724.6 1049.7C572.3 1087.4 504.5 988.901 476.4 919.701Z" fill="#B9B8B8"/>
<path d="M827.4 705.201C860.3 708.501 846.2 682.201 869.3 653.701C892.4 625.201 919.8 628.301 911.2 602.201C902 574.201 851.1 591.6 827.9 620C804.7 648.4 798 702.301 827.4 705.201Z" fill="#FF5DFF" stroke="black" stroke-width="18.34" stroke-linecap="round" stroke-linejoin="round"/>
<path d="M818.7 634.4C818.3 674.4 831.8 685.1 853.8 685.8C849.8 698.8 846.8 707.2 827.4 705.2C802.5 702.7 803.6 663.5 818.7 634.4Z" fill="#EA47C0"/>
<path d="M827.4 705.201C860.3 708.501 846.2 682.201 869.3 653.701C892.4 625.201 919.8 628.301 911.2 602.201C902 574.201 851.1 591.6 827.9 620C804.7 648.4 798 702.301 827.4 705.201Z" stroke="black" stroke-width="18.34" stroke-miterlimit="10"/>
<path d="M472.1 922.501C470.3 914.001 714.9 865.301 745 960.901C789.1 1100.3 521.8 1158.4 472.1 922.501Z" stroke="black" stroke-width="18.34" stroke-miterlimit="10"/>
<path d="M838.5 996.501L860.2 1046.5C887.6 1117.7 951.5 1152.6 1000.3 1155.5C1072.3 1159.7 1122.3 1080.6 1113 1009.1C1103.7 937.501 1049.8 888.801 977.7 892.101C889.1 896.101 859.4 983.301 838.5 996.501C853 972.501 838.6 996.601 838.5 996.501Z" fill="url(#paint0_linear_258_29)"/>
<path d="M838.1 1006.2C868.6 1033.6 889.2 1158.6 1000.4 1149.9C1072.3 1144.2 1122.4 1075 1113.1 1003.5C1103.8 931.9 1049.9 883.2 977.8 886.5C889.1 890.5 858.9 992.9 838.1 1006.2Z" stroke="black" stroke-width="18.34" stroke-linecap="round" stroke-linejoin="round"/>
<path d="M968.7 931.801C988.6 928.301 1010.9 932.401 1026.9 945.401C1033.2 950.501 1039.5 956.501 1043.2 963.901C1047.8 973.701 1048.5 985.001 1045.9 995.401C1045.2 998.001 1044.2 1000.5 1043 1002.9C1042.7 1003.6 1041.5 1003.7 1041.2 1002.9C1037.4 996.501 1034.8 990.001 1031.5 983.501C1029 978.301 1026.3 973.301 1024 968.001C1015.6 946.801 990.6 936.101 968.8 933.501C968.3 933.501 967.8 933.001 967.9 932.501C968 932.201 968.4 931.901 968.7 931.801Z" fill="white"/>
<path d="M858.7 1040.1C800.3 1043.2 764.3 1003 799.7 995.601C835.2 988.201 846.2 965.401 846.2 965.401C846.2 965.401 859.4 971.001 868 959.301" stroke="black" stroke-width="18.34" stroke-linecap="round" stroke-linejoin="round"/>
<path d="M562.2 862.4C562.2 862.4 582.7 888.1 597 902.8" stroke="#FF5DFF" stroke-width="18.34" stroke-linecap="round" stroke-linejoin="round"/>
<path d="M510.5 862.801C510.5 862.801 531.4 888.001 545.9 902.301" stroke="#FF5DFF" stroke-width="18.34" stroke-linecap="round" stroke-linejoin="round"/>
<path d="M463 869.4C463 869.4 484.1 893.8 498.6 907.7" stroke="#FF5DFF" stroke-width="18.34" stroke-linecap="round" stroke-linejoin="round"/>
</g>
</g>
<defs>
<linearGradient id="paint0_linear_258_29" x1="844.621" y1="1043.19" x2="1113" y2="1008.26" gradientUnits="userSpaceOnUse">
<stop stop-color="#FF5DFF"/>
<stop offset="1" stop-color="#00C2ED"/>
</linearGradient>
<clipPath id="clip0_258_29">
<rect width="2000" height="2000" fill="white"/>
</clipPath>
</defs>
</svg>
