<svg width="2000" height="2000" viewBox="0 0 2000 2000" fill="none" xmlns="http://www.w3.org/2000/svg">
<mask id="mask0_595_142" style="mask-type:luminance" maskUnits="userSpaceOnUse" x="0" y="0" width="2000" height="2000">
<path d="M2000 0H0V2000H2000V0Z" fill="white"/>
</mask>
<g mask="url(#mask0_595_142)">
<path d="M845.802 1037.3C801.702 1042.1 785.602 1003.3 785.602 1003.3C800.202 1008 858.102 964.201 858.102 964.201C858.102 964.201 842.602 1023.5 845.802 1037.3Z" fill="#DC1E1C"/>
<path d="M963.997 705.701C958.197 697.901 773.897 815.401 829.197 907.201C901.397 1027.2 1112 902.301 963.997 705.701Z" fill="#ECF5F6"/>
<path d="M902.102 923.3L882.702 959C847.502 926.7 794.402 907.6 844.202 804.5C823.202 867.5 838.902 922 902.102 923.3Z" fill="#B9B8B8"/>
<path d="M963.997 705.701C958.197 697.901 773.897 815.401 829.197 907.201C901.397 1027.2 1112 902.301 963.997 705.701Z" stroke="black" stroke-width="18.34" stroke-miterlimit="10"/>
<path d="M873.097 742.9C873.097 742.9 863.997 773.2 855.797 791" stroke="#FF000C" stroke-width="18.34" stroke-linecap="round" stroke-linejoin="round"/>
<path d="M914.402 701.201C914.402 701.201 905.302 731.501 897.102 749.301" stroke="#FF000C" stroke-width="18.34" stroke-linecap="round" stroke-linejoin="round"/>
<path d="M954.198 669.9C954.198 669.9 945.098 700.2 936.898 718" stroke="#FF000C" stroke-width="18.34" stroke-linecap="round" stroke-linejoin="round"/>
<path d="M606.5 802.501C587.3 829.501 576.8 801.501 540.2 800.201C503.6 798.901 487.9 821.501 473.9 797.901C458.9 772.601 505.5 745.601 542.1 746.901C578.6 748.101 623.5 778.501 606.5 802.501Z" fill="#FF000C" stroke="black" stroke-width="18.34" stroke-linecap="round" stroke-linejoin="round"/>
<path d="M578.499 756.401C514.499 760.001 504.999 778.401 496.299 807.901C487.099 809.801 480.299 808.901 473.799 797.901C458.799 772.501 505.399 745.601 541.999 746.901C554.099 747.201 567.199 750.901 578.499 756.401Z" fill="#EA47C0"/>
<path d="M606.5 802.501C587.3 829.501 576.8 801.501 540.2 800.201C503.6 798.901 487.9 821.501 473.9 797.901C458.9 772.601 505.5 745.601 542.1 746.901C578.6 748.101 623.5 778.501 606.5 802.501Z" stroke="black" stroke-width="18.34" stroke-miterlimit="10"/>
<path d="M472.104 922.501C470.304 914.001 714.904 865.301 745.004 960.901C789.104 1100.3 521.804 1158.4 472.104 922.501Z" fill="#ECF5F6"/>
<path d="M476.398 919.701C473.498 920.801 471.998 921.801 472.098 922.501C508.598 1096 662.798 1110.4 724.398 1050.5L724.598 1049.7C572.298 1087.4 504.498 988.901 476.398 919.701Z" fill="#B9B8B8"/>
<path d="M827.403 705.201C860.303 708.501 846.203 682.201 869.303 653.701C892.403 625.201 919.803 628.301 911.203 602.201C902.003 574.201 851.103 591.6 827.903 620C804.703 648.4 798.003 702.301 827.403 705.201Z" fill="#FF000C" stroke="black" stroke-width="18.34" stroke-linecap="round" stroke-linejoin="round"/>
<path d="M818.701 634.4C818.301 674.4 831.801 685.1 853.801 685.8C849.801 698.8 846.801 707.2 827.401 705.2C802.501 702.7 803.601 663.5 818.701 634.4Z" fill="#EA47C0"/>
<path d="M827.403 705.201C860.303 708.501 846.203 682.201 869.303 653.701C892.403 625.201 919.803 628.301 911.203 602.201C902.003 574.201 851.103 591.6 827.903 620C804.703 648.4 798.003 702.301 827.403 705.201Z" stroke="black" stroke-width="18.34" stroke-miterlimit="10"/>
<path d="M472.104 922.501C470.304 914.001 714.904 865.301 745.004 960.901C789.104 1100.3 521.804 1158.4 472.104 922.501Z" stroke="black" stroke-width="18.34" stroke-miterlimit="10"/>
<path d="M838.5 996.501L860.2 1046.5C887.6 1117.7 951.5 1152.6 1000.3 1155.5C1072.3 1159.7 1122.3 1080.6 1113 1009.1C1103.7 937.501 1049.8 888.801 977.7 892.101C889.1 896.101 859.4 983.301 838.5 996.501C853 972.501 838.6 996.601 838.5 996.501Z" fill="url(#paint0_linear_595_142)"/>
<path d="M838.102 1006.2C868.602 1033.6 889.202 1158.6 1000.4 1149.9C1072.3 1144.2 1122.4 1075 1113.1 1003.5C1103.8 931.9 1049.9 883.2 977.802 886.5C889.102 890.5 858.902 992.9 838.102 1006.2Z" stroke="black" stroke-width="18.34" stroke-linecap="round" stroke-linejoin="round"/>
<path d="M968.703 931.801C988.603 928.301 1010.9 932.401 1026.9 945.401C1033.2 950.501 1039.5 956.501 1043.2 963.901C1047.8 973.701 1048.5 985.001 1045.9 995.401C1045.2 998.001 1044.2 1000.5 1043 1002.9C1042.7 1003.6 1041.5 1003.7 1041.2 1002.9C1037.4 996.501 1034.8 990.001 1031.5 983.501C1029 978.301 1026.3 973.301 1024 968.001C1015.6 946.801 990.603 936.101 968.803 933.501C968.303 933.501 967.803 933.001 967.903 932.501C968.003 932.201 968.403 931.901 968.703 931.801Z" fill="white"/>
<path d="M858.697 1040.1C800.297 1043.2 764.297 1003 799.697 995.601C835.197 988.201 846.197 965.401 846.197 965.401C846.197 965.401 859.397 971.001 867.997 959.301" stroke="black" stroke-width="18.34" stroke-linecap="round" stroke-linejoin="round"/>
<path d="M562.203 862.4C562.203 862.4 582.703 888.1 597.003 902.8" stroke="#FF000C" stroke-width="18.34" stroke-linecap="round" stroke-linejoin="round"/>
<path d="M510.5 862.801C510.5 862.801 531.4 888.001 545.9 902.301" stroke="#FF000C" stroke-width="18.34" stroke-linecap="round" stroke-linejoin="round"/>
<path d="M463 869.4C463 869.4 484.1 893.8 498.6 907.7" stroke="#FF000C" stroke-width="18.34" stroke-linecap="round" stroke-linejoin="round"/>
</g>
<defs>
<linearGradient id="paint0_linear_595_142" x1="844.621" y1="1043.19" x2="1113" y2="1008.26" gradientUnits="userSpaceOnUse">
<stop stop-color="#FF0036"/>
<stop offset="1" stop-color="#FFD13D"/>
</linearGradient>
</defs>
</svg>
