<svg width="2000" height="2000" viewBox="0 0 2000 2000" fill="none" xmlns="http://www.w3.org/2000/svg">
<path d="M998.7 1057.3C992.3 1062.4 985.3 1066 977.5 1068.1C928.1 1081.3 870.4 1025.6 848.4 943.7C828.9 871 844.2 802.1 882.3 778.2C913.1 803.1 914.3 819.2 931.7 884.1C942.5 924.6 999.3 977.8 998.7 1057.3Z" fill="#68EBCB"/>
<path d="M985.699 990.3C996.099 1017 1002.1 1047.4 996.499 1082.5" stroke="black" stroke-width="18.34" stroke-linecap="round" stroke-linejoin="round"/>
<path d="M624.414 1190.84C673.758 1177.62 695.962 1100.47 674.008 1018.53C652.053 936.597 594.254 880.891 544.91 894.112C495.566 907.333 473.362 984.475 495.316 1066.41C517.27 1148.35 575.069 1204.06 624.414 1190.84Z" fill="#68EBCB"/>
<path d="M784.601 709.9C806.601 791.8 782.301 862.3 735.901 874.7C689.501 887.1 648.401 855 626.401 773.1C604.401 691.2 614.501 596.5 660.901 584.1C707.301 571.6 762.701 627.9 784.601 709.9Z" fill="#68EBCB"/>
</svg>
