<svg width="2000" height="2000" viewBox="0 0 2000 2000" fill="none" xmlns="http://www.w3.org/2000/svg">
<mask id="mask0_595_493" style="mask-type:luminance" maskUnits="userSpaceOnUse" x="0" y="0" width="2000" height="2000">
<path d="M2000 0H0V2000H2000V0Z" fill="white"/>
</mask>
<g mask="url(#mask0_595_493)">
<path d="M872.501 702.601C886.401 696.101 878.101 674.901 863.301 679.301C824.801 690.701 731.601 693.101 749.901 718.801C770.401 747.601 820.101 719.001 860.801 707.001C865.301 705.601 869.201 704.101 872.501 702.601Z" fill="#FF2C10"/>
<path d="M748 713.6C748.4 714.8 749 716 749.9 717.3C766.9 741.1 803.8 725.6 839.1 712.8C846.3 707.3 850.9 703.5 850.9 703.5C844.6 708 782.6 710.9 748 713.6Z" fill="#FF0036"/>
<path d="M489.695 991.601C482.095 1005 461.695 995.001 467.195 980.601C481.495 943.101 490.994 850.301 515.294 870.601C542.494 893.301 510.094 940.601 494.994 980.301C493.194 984.701 491.495 988.501 489.695 991.601Z" fill="#FF2C10"/>
<path d="M471.598 959.201C469.298 968.401 466.898 976.701 464.398 983.401C458.898 997.801 479.298 1007.8 486.898 994.401C488.698 991.201 490.398 987.501 492.098 983.101C496.798 970.601 503.298 957.401 509.098 944.401C509.498 935.001 509.498 928.701 509.498 928.701C492.698 957.401 480.298 963.401 471.598 959.201Z" fill="#FF0036"/>
<path d="M758.801 854.902C749.501 857.802 741.801 847.202 747.601 839.302C769.701 809.302 817.201 762.902 894.801 775.502C1007.5 793.802 925.301 823.902 883.101 819.502C827.201 813.602 799.301 842.102 758.801 854.902Z" fill="white"/>
<path d="M680.494 903.2C687.094 894 678.094 881.7 667.394 885.2C626.294 898.6 558.094 934.1 543.894 1024.1C523.194 1154.8 586.094 1075.2 596.494 1027.2C610.294 963.6 651.794 943.2 680.494 903.2Z" fill="white"/>
<path d="M583.098 1008.1C557.298 1076.9 544.098 1078.7 537.398 1061.6L541.498 1096.3C553.798 1113.4 586.298 1064.9 593.498 1031.6C607.298 968 648.698 947.6 677.498 907.6C677.898 907.1 678.198 906.6 678.498 906C643.498 918.5 606.098 946.8 583.098 1008.1Z" fill="#B9B8B8"/>
<path d="M680.494 903.2C687.094 894 678.094 881.7 667.394 885.2C626.294 898.6 558.094 934.1 543.894 1024.1C523.194 1154.8 586.094 1075.2 596.494 1027.2C610.294 963.6 651.794 943.2 680.494 903.2Z" stroke="black" stroke-width="18.34" stroke-linecap="round" stroke-linejoin="round"/>
<path d="M489.695 991.601C482.095 1005 461.695 995.001 467.195 980.601C481.495 943.101 490.994 850.301 515.294 870.601C542.494 893.301 510.094 940.601 494.994 980.301C493.194 984.701 491.495 988.501 489.695 991.601Z" stroke="black" stroke-width="18.34" stroke-miterlimit="10" stroke-linejoin="round"/>
<path d="M872.501 702.601C886.401 696.101 878.101 674.901 863.301 679.301C824.801 690.701 731.601 693.101 749.901 718.801C770.401 747.601 820.101 719.001 860.801 707.001C865.301 705.601 869.201 704.101 872.501 702.601Z" stroke="black" stroke-width="18.34" stroke-miterlimit="10" stroke-linejoin="round"/>
<path d="M740.094 1141.6C740.094 1141.6 798.494 968.201 932.394 981.401C934.494 986.5 843.794 1060.5 740.094 1141.6Z" fill="#FF0402" stroke="black" stroke-width="18.34" stroke-linecap="round" stroke-linejoin="round"/>
<path d="M744.297 852.202C746.597 855.802 750.997 858.102 755.897 856.502C796.497 843.702 824.397 815.202 880.297 821.102C912.397 824.502 967.897 807.802 942.497 791.602C932.197 801.202 897.197 804.102 853.997 805.702C826.397 806.702 773.497 833.802 744.297 852.202Z" fill="#B9B8B8"/>
<path d="M758.801 854.902C749.501 857.802 741.801 847.202 747.601 839.302C769.701 809.302 817.201 762.902 894.801 775.502C1007.5 793.802 925.301 823.902 883.101 819.502C827.201 813.602 799.301 842.102 758.801 854.902Z" stroke="black" stroke-width="18.34" stroke-linecap="round" stroke-linejoin="round"/>
</g>
</svg>
