<svg width="2000" height="2000" viewBox="0 0 2000 2000" fill="none" xmlns="http://www.w3.org/2000/svg">
<path d="M553.699 1101.4C553.699 1101.4 630.299 1127.6 681.299 1044C744.099 941 678.199 890.4 678.199 890.4L553.699 1101.4Z" fill="#A88670"/>
<path d="M929 865.8C918 836.9 913.5 821.8 903.9 810.1L746.6 848.3C746.6 848.3 774.3 892.7 883 878C902.2 875.4 910.9 869.3 923 864.1C921.6 861.8 929.9 868.1 929 865.8Z" fill="#A88670"/>
<path d="M911.5 814.8C918.7 830.5 923.3 851.3 932.7 886.4C934.6 893.4 937.8 900.7 941.9 908.5" stroke="black" stroke-width="18.34" stroke-miterlimit="10" stroke-linecap="round" stroke-linejoin="round"/>
</svg>
