<svg width="2000" height="2000" viewBox="0 0 2000 2000" fill="none" xmlns="http://www.w3.org/2000/svg">
<mask id="mask0_595_467" style="mask-type:luminance" maskUnits="userSpaceOnUse" x="0" y="0" width="2000" height="2000">
<path d="M2000 0H0V2000H2000V0Z" fill="white"/>
</mask>
<g mask="url(#mask0_595_467)">
<path d="M633.513 1163.95C682.857 1150.73 705.061 1073.59 683.107 991.65C661.153 909.712 603.354 854.006 554.01 867.227C504.666 880.448 482.461 957.59 504.416 1039.53C526.37 1121.47 584.169 1177.17 633.513 1163.95Z" fill="#EBF6F7" stroke="black" stroke-width="18.34" stroke-miterlimit="10"/>
<path d="M618.038 1106.19C648.178 1098.12 661.743 1051.01 648.336 1000.97C634.929 950.931 599.627 916.914 569.487 924.989C539.347 933.065 525.783 980.175 539.189 1030.21C552.596 1080.25 587.898 1114.27 618.038 1106.19Z" fill="#EBF6F7" stroke="black" stroke-width="18.34" stroke-miterlimit="10"/>
<path d="M604.53 1055.77C617.92 1052.18 623.954 1031.29 618.008 1009.09C612.062 986.902 596.388 971.821 582.998 975.408C569.608 978.996 563.574 999.894 569.52 1022.09C575.466 1044.28 591.14 1059.36 604.53 1055.77Z" fill="#EBF6F7" stroke="black" stroke-width="18.34" stroke-miterlimit="10"/>
<path d="M992.558 1042.27C1039.24 1021.37 1049.01 941.746 1014.39 864.421C979.778 787.097 913.877 741.353 867.2 762.25C820.523 783.146 810.746 862.77 845.363 940.094C879.98 1017.42 945.881 1063.16 992.558 1042.27Z" fill="#EBF6F7" stroke="black" stroke-width="18.34" stroke-miterlimit="10"/>
<path d="M971.032 998.598C1003.19 984.887 1010.86 930.61 988.16 877.366C965.459 824.123 920.987 792.076 888.827 805.787C856.668 819.498 849 873.775 871.7 927.019C894.401 980.262 938.873 1012.31 971.032 998.598Z" fill="#EBF6F7" stroke="black" stroke-width="18.34" stroke-miterlimit="10"/>
<path d="M950.559 950.579C966.715 943.691 970.576 916.443 959.182 889.72C947.789 862.997 925.456 846.917 909.3 853.805C893.144 860.693 889.283 887.941 900.677 914.664C912.07 941.387 934.403 957.467 950.559 950.579Z" fill="#EBF6F7" stroke="black" stroke-width="18.34" stroke-miterlimit="10"/>
<path d="M511.7 930.999C503.4 955.199 509.1 972.999 504.3 983.799C502.2 988.499 498.1 991.799 490.1 993.699C461.5 1000.7 449.3 948.199 461.3 913.599C464.7 903.799 470.4 894.099 477.4 885.699C495.1 864.299 520.4 851.499 533.3 868.199C553.5 894.399 523.6 896.299 511.7 930.999Z" fill="#1BFD00"/>
<path d="M504.3 983.799C502.2 988.499 498.1 991.799 490.1 993.699C461.5 1000.7 449.3 948.199 461.3 913.599C464.7 903.799 470.4 894.099 477.4 885.699C465.8 955.499 493 957.099 504.3 983.799Z" fill="#1BFD00"/>
<path d="M533.3 868.2C553.5 894.4 523.6 896.3 511.7 931C499.8 965.7 516.7 987.3 490.1 993.8C461.5 1000.8 449.3 948.3 461.3 913.7C473.2 879 515.3 844.9 533.3 868.2Z" stroke="black" stroke-width="18.34" stroke-linecap="round" stroke-linejoin="round"/>
<path d="M994.101 804.9C971.001 819.7 967.101 792.5 933.801 777.3C921.201 771.5 910.201 770.8 901.101 770.5C886.301 769.9 876.601 770 873.501 749.7C869.101 721.3 920.101 713.9 953.601 727.8C954.401 728.1 955.301 728.5 956.101 728.8C989.201 744 1018.9 788.9 994.101 804.9Z" fill="#1BFD00"/>
<path d="M953.5 727.7C918.1 730.2 901.3 740.6 901 770.4C886.2 769.8 876.5 769.9 873.4 749.6C869 721.2 920 713.8 953.5 727.7Z" fill="#1BFD00"/>
<path d="M873.398 749.6C878.498 782.3 900.398 762 933.798 777.2C967.098 792.4 971.098 819.6 994.198 804.8C1019 788.9 989.398 743.9 955.998 728.7C922.598 713.5 868.898 720.5 873.398 749.6Z" stroke="black" stroke-width="18.34" stroke-linecap="round" stroke-linejoin="round"/>
<path d="M848.2 1190.1C845.3 1191.1 842.3 1192.1 839.4 1193C797.1 1205.6 757.1 1200.1 740.3 1180.4C737.6 1177.2 735.5 1173.6 734.1 1169.6C723.5 1139.7 757.5 1100.5 810 1081.9C862.5 1063.3 913.6 1072.5 924.1 1102.4C934.7 1132.3 900.7 1171.6 848.2 1190.1Z" fill="#FF0085" stroke="black" stroke-width="18.34" stroke-linecap="round" stroke-linejoin="round"/>
<path d="M839.401 1193C818.001 1199.3 797.101 1201.1 779.601 1198.7C764.401 1196.6 751.601 1191.5 743.201 1183.4C742.201 1182.5 741.201 1181.5 740.301 1180.4C743.101 1162.4 769.601 1140.4 806.001 1127.5C848.601 1112.4 888.701 1115.6 895.401 1134.7C901.701 1152.3 877.001 1177.4 839.401 1193Z" fill="#FF002F" stroke="black" stroke-width="18.34" stroke-linecap="round" stroke-linejoin="round"/>
<path d="M789.901 1196.3C786.401 1197.3 783.001 1198.1 779.701 1198.6C764.501 1196.5 751.701 1191.4 743.301 1183.3C748.301 1176 759.301 1168.4 773.201 1163.5C794.501 1155.9 814.501 1157.6 817.901 1167.1C821.001 1176 808.701 1188.6 789.901 1196.3Z" fill="#FF002F" stroke="black" stroke-width="18.34" stroke-linecap="round" stroke-linejoin="round"/>
</g>
</svg>
