<svg width="2000" height="2000" viewBox="0 0 2000 2000" fill="none" xmlns="http://www.w3.org/2000/svg">
<path d="M991.9 1057.9C953.4 1091.5 856.9 1036.3 848.4 947.6C841.2 872.7 844.2 806 882.3 782.1C913.1 807 914.3 823.1 931.7 888C942.6 928.6 1036.5 1018.9 991.9 1057.9Z" fill="#331DD1"/>
<path d="M633.528 1190.83C682.872 1177.61 705.076 1100.46 683.122 1018.53C661.168 936.588 603.369 880.882 554.024 894.103C504.68 907.324 482.476 984.466 504.43 1066.4C526.385 1148.34 584.184 1204.05 633.528 1190.83Z" fill="#331DD1"/>
<path d="M869.1 768.2C913.1 799.9 912.1 811 931.7 884.1C942.5 924.6 999.3 977.7 998.7 1057.2" stroke="black" stroke-width="18.34" stroke-miterlimit="10" stroke-linecap="round" stroke-linejoin="round"/>
</svg>
