<svg width="2000" height="2000" viewBox="0 0 2000 2000" fill="none" xmlns="http://www.w3.org/2000/svg">
<path d="M1001.6 1047C999 1052.2 993.5 1055 987.9 1054C984.6 1053.4 981.2 1052.7 977.9 1051.9C909.8 1035.7 854.9 980.8 832.4 927C812.2 878.8 823.3 832.9 875.5 843.6C883.8 845.3 893 848.4 903.3 853.1C909.6 856 917.1 853.3 920.1 846.9C939.4 806.1 997.1 761.8 1026.8 849.1C1054.4 929.4 1015.3 1019.4 1001.6 1047Z" fill="#00FFA9"/>
<path d="M931.699 884.1C939.199 912 968.499 945.9 985.699 990.3C996.099 1017 1002.1 1047.4 996.499 1082.5" stroke="black" stroke-width="18.34" stroke-linecap="round" stroke-linejoin="round"/>
<path d="M668.099 1123.5C667.399 1124.3 666.499 1125.1 665.599 1125.7C662.199 1128 657.799 1128.6 653.699 1127C620.499 1114.2 492.699 1058.8 494.599 966.2C495.499 921.3 517.199 905.9 542.899 905.2C570.599 904.5 602.799 920.8 618.399 935.9C623.799 941 633.199 941.7 637.199 935.5C658.899 900.9 706.799 866.3 730.799 912.7C759.499 968.1 696.699 1090.7 668.099 1123.5Z" fill="#00FFA9"/>
</svg>
