<svg width="2000" height="2000" viewBox="0 0 2000 2000" fill="none" xmlns="http://www.w3.org/2000/svg">
<g clip-path="url(#clip0_258_505)">
<mask id="mask0_258_505" style="mask-type:luminance" maskUnits="userSpaceOnUse" x="0" y="0" width="2000" height="2000">
<path d="M2000 0H0V2000H2000V0Z" fill="white"/>
</mask>
<g mask="url(#mask0_258_505)">
<path d="M669.501 1105.6C668.801 1106.4 667.901 1107.2 667.001 1107.8C663.601 1110.1 659.201 1110.7 655.101 1109.1C621.901 1096.3 494.101 1040.9 496.001 948.299C496.901 903.398 518.601 887.998 544.301 887.298C572.001 886.598 604.201 902.899 619.801 917.999C625.201 923.099 634.601 923.798 638.601 917.598C660.301 882.998 708.201 848.398 732.201 894.798C760.901 950.199 698.101 1072.9 669.501 1105.6Z" fill="#FF00A6"/>
<path d="M667.001 1107.8C663.601 1110.1 659.201 1110.7 655.101 1109.1C621.901 1096.3 494.101 1040.9 496.001 948.299C496.901 903.399 518.601 887.999 544.301 887.299C533.401 956.099 550.601 1043.1 667.001 1107.8Z" fill="#D30248"/>
<path d="M669.501 1105.6C668.801 1106.4 667.901 1107.2 667.001 1107.8C663.601 1110.1 659.201 1110.7 655.101 1109.1C621.901 1096.3 494.101 1040.9 496.001 948.299C496.901 903.398 518.601 887.998 544.301 887.298C572.001 886.598 604.201 902.899 619.801 917.999C625.201 923.099 634.601 923.798 638.601 917.598C660.301 882.998 708.201 848.398 732.201 894.798C760.901 950.198 698.101 1072.9 669.501 1105.6Z" stroke="black" stroke-width="18.34" stroke-miterlimit="10"/>
<path d="M1008.7 1028.7C1006 1033.9 1000.3 1036.7 994.501 1035.7C991.001 1035.1 987.501 1034.4 984.101 1033.6C913.301 1017.4 856.201 962.5 832.801 908.7C811.801 860.5 823.301 814.6 877.601 825.3C886.201 827 895.801 830.1 906.601 834.8C913.201 837.7 920.901 835 924.101 828.6C944.201 787.8 1004.1 743.5 1035.1 830.8C1063.6 911 1023 1001.1 1008.7 1028.7Z" fill="#FF00A6"/>
<path d="M984.101 1033.6C913.301 1017.4 856.201 962.499 832.801 908.699C811.801 860.499 823.301 814.599 877.601 825.299C880.101 887.299 907.901 963.499 984.101 1033.6Z" fill="#D30248"/>
<path d="M1008.7 1028.7C1006 1033.9 1000.3 1036.7 994.501 1035.7C991.001 1035.1 987.501 1034.4 984.101 1033.6C913.301 1017.4 856.201 962.5 832.801 908.7C811.801 860.5 823.301 814.6 877.601 825.3C886.201 827 895.801 830.1 906.601 834.8C913.201 837.7 920.901 835 924.101 828.6C944.201 787.8 1004.1 743.5 1035.1 830.8C1063.6 911 1023 1001.1 1008.7 1028.7Z" stroke="black" stroke-width="18.34" stroke-linecap="round" stroke-linejoin="round"/>
<path d="M945.601 1044.3C889.501 1083.3 821.801 1102.8 753.101 1094.9C736.601 1093.1 724.901 1078.2 727.501 1064C729.201 1054.6 729.201 1054.6 727.501 1064C730.101 1049.8 743.901 1041.5 757.701 1043.3C817.001 1051 875.001 1034.7 922.701 1002.1C933.901 994.499 948.001 996.199 955.501 1006.9C963.001 1017.6 959.201 1034.8 945.601 1044.3Z" fill="#FF00AD"/>
<path d="M727.501 1064C724.901 1078.2 736.601 1093.1 753.101 1094.9C821.801 1102.8 889.501 1083.3 945.601 1044.3C959.201 1034.8 963.001 1017.6 955.501 1006.9C948.001 996.199 933.901 994.499 922.701 1002.1C875.001 1034.7 817.001 1051 757.701 1043.3C743.901 1041.5 730.101 1049.8 727.501 1064ZM727.501 1064C729.201 1054.6 729.201 1054.6 727.501 1064Z" stroke="black" stroke-width="18.34" stroke-linecap="round" stroke-linejoin="round"/>
<path d="M762.9 1079.1C751.3 1071.3 735.2 1077.3 732.9 1091.1C729.8 1110 743.5 1128.2 743.5 1152C743.5 1193.2 787.7 1176.1 771.3 1145.5C758.4 1121.5 762.1 1107.5 775 1104.7C787.9 1101.9 813.7 1120.8 817.2 1094.4C802.6 1079.3 776.7 1088.4 762.9 1079.1Z" fill="white" stroke="black" stroke-width="18.34" stroke-linecap="round" stroke-linejoin="round"/>
<path d="M417.2 992.199C416.6 992.299 416 992.399 415.5 992.399C380.6 995.499 387.3 955.099 411.3 937.799C418.2 932.799 425.1 925.499 431.6 917.499C448.3 896.799 461.7 871.699 461.7 871.699C468.7 946.999 453.4 987.599 417.2 992.199Z" fill="#00FFA9"/>
<path d="M431.501 917.398C427.901 943.698 422.701 969.798 415.401 992.398C380.501 995.498 387.201 955.098 411.201 937.798C418.101 932.798 425.101 925.398 431.501 917.398Z" fill="#00C9A7"/>
<path d="M1098.7 795.199C1087.8 801.199 1076.4 802.599 1064.7 799.599C1042.4 793.899 1019.4 772.199 997.301 736.799C998.201 737.099 1013.5 741.399 1030.6 745.499C1046.7 749.299 1064.5 752.899 1073.6 752.699C1106.5 751.599 1130.4 777.599 1098.7 795.199Z" fill="#00FFA9"/>
<path d="M1064.7 799.499C1042.4 793.799 1019.4 772.099 997.301 736.699C998.201 736.999 1013.5 741.299 1030.6 745.399C1040.4 766.499 1052.3 785.499 1064.7 799.499Z" fill="#00C9A7"/>
<path d="M1098.7 795.199C1087.8 801.199 1076.4 802.599 1064.7 799.599C1042.4 793.899 1019.4 772.199 997.301 736.799C998.201 737.099 1013.5 741.399 1030.6 745.499C1046.7 749.299 1064.5 752.899 1073.6 752.699C1106.5 751.599 1130.4 777.599 1098.7 795.199Z" stroke="black" stroke-width="18.34" stroke-linecap="round" stroke-linejoin="round"/>
<path d="M417.2 992.199C416.6 992.299 416 992.399 415.5 992.399C380.6 995.499 387.3 955.099 411.3 937.799C418.2 932.799 425.1 925.499 431.6 917.499C448.3 896.799 461.7 871.699 461.7 871.699C468.7 946.999 453.4 987.599 417.2 992.199Z" stroke="black" stroke-width="18.34" stroke-linecap="round" stroke-linejoin="round"/>
</g>
</g>
<defs>
<clipPath id="clip0_258_505">
<rect width="2000" height="2000" fill="white"/>
</clipPath>
</defs>
</svg>
