<svg width="2000" height="2000" viewBox="0 0 2000 2000" fill="none" xmlns="http://www.w3.org/2000/svg">
<mask id="mask0_595_175" style="mask-type:luminance" maskUnits="userSpaceOnUse" x="0" y="0" width="2000" height="2000">
<path d="M2000 0H0V2000H2000V0Z" fill="white"/>
</mask>
<g mask="url(#mask0_595_175)">
<path d="M992.558 1042.26C1039.24 1021.37 1049.01 941.742 1014.39 864.418C979.778 787.093 913.877 741.349 867.2 762.246C820.523 783.142 810.746 862.766 845.363 940.09C879.98 1017.41 945.881 1063.16 992.558 1042.26Z" fill="#ECF5F6" stroke="black" stroke-width="18.34" stroke-miterlimit="10" stroke-linecap="round" stroke-linejoin="round"/>
<path d="M1035 950.6C1036.1 993.2 1021.9 1028.1 993.897 1041.6C947.797 1063.7 881.697 1019.3 846.397 942.3C825.697 897.3 820.097 851.1 828.297 816.1C841.297 874.6 828.097 890.9 898.297 973.7C968.497 1056.5 1026.6 970 1035 950.6Z" fill="#B9B8B8"/>
<path d="M992.558 1042.26C1039.24 1021.37 1049.01 941.742 1014.39 864.418C979.778 787.093 913.877 741.349 867.2 762.246C820.523 783.142 810.746 862.766 845.363 940.09C879.98 1017.41 945.881 1063.16 992.558 1042.26Z" stroke="black" stroke-width="18.34" stroke-miterlimit="10" stroke-linecap="round" stroke-linejoin="round"/>
<path d="M633.517 1163.95C682.861 1150.73 705.065 1073.59 683.111 991.648C661.157 909.71 603.358 854.004 554.014 867.225C504.669 880.446 482.465 957.588 504.42 1039.53C526.374 1121.46 584.173 1177.17 633.517 1163.95Z" fill="black" stroke="black" stroke-width="18.34" stroke-miterlimit="10" stroke-linecap="round" stroke-linejoin="round"/>
<path d="M690.099 1078.7C681.999 1147.2 641.299 1161.9 633.599 1163.9C584.199 1177.1 526.399 1121.4 504.499 1039.5C493.799 999.5 493.599 960.5 502.099 929.6C504.499 1039.5 591.199 1205.3 690.099 1078.7Z" fill="#2D2D2D"/>
<path d="M633.517 1163.95C682.861 1150.73 705.065 1073.59 683.111 991.648C661.157 909.71 603.358 854.004 554.014 867.225C504.669 880.446 482.465 957.588 504.42 1039.53C526.374 1121.46 584.173 1177.17 633.517 1163.95Z" stroke="black" stroke-width="18.34" stroke-miterlimit="10" stroke-linecap="round" stroke-linejoin="round"/>
<path d="M558.797 939.799C564.897 943.499 673.397 1021.9 682.597 1027.8" stroke="white" stroke-width="18.34" stroke-linecap="round" stroke-linejoin="round"/>
<path d="M612 1067.8C613.2 1059.7 639.3 918.899 638.7 919.799" stroke="white" stroke-width="18.34" stroke-linecap="round" stroke-linejoin="round"/>
<path d="M792.498 749.299C780.298 718.599 809.498 724.899 830.498 694.899C851.498 664.899 841.098 639.399 868.498 640.499C897.998 641.599 895.298 695.399 874.298 725.499C853.198 755.499 803.398 776.699 792.498 749.299Z" fill="#3D11B7"/>
<path d="M793.398 729.5C793.498 732.7 790.498 744.5 792.398 749.3C802.798 775.4 848.597 757.3 870.997 729.5C846.797 738 816.498 748 793.398 729.5Z" fill="#7208A4"/>
<path d="M792.498 749.299C780.298 718.599 809.498 724.899 830.498 694.899C851.498 664.899 841.098 639.399 868.498 640.499C897.998 641.599 895.298 695.399 874.298 725.499C853.198 755.499 803.398 776.699 792.498 749.299Z" stroke="black" stroke-width="18.34" stroke-miterlimit="10" stroke-linecap="round" stroke-linejoin="round"/>
<path d="M919.296 1055.8C919.296 1055.8 935.096 1075.4 965.197 1086.3C1009.7 1072 1027.6 1067.6 1021.4 1053.7C1012 1032.7 929.196 988.299 849.096 1024.1C768.996 1059.9 735.196 1159.4 744.596 1180.4C750.796 1194.3 781.896 1178.8 822.496 1155C837.096 1132.4 843.197 1097.4 841.697 1084.9" fill="#EF4A7E"/>
<path d="M855.498 1028.1L874.198 1069.8C878.198 1078.7 871.798 1090.2 859.998 1095.5C848.198 1100.8 835.298 1097.9 831.298 1089L812.598 1047.3" fill="#ECF5F6"/>
<path d="M855.498 1028.1L874.198 1069.8C878.198 1078.7 871.798 1090.2 859.998 1095.5C848.198 1100.8 835.298 1097.9 831.298 1089L812.598 1047.3" stroke="black" stroke-width="18.34" stroke-linecap="round" stroke-linejoin="round"/>
<path d="M903.697 1013.6L916.797 1049.6C920.797 1058.5 915.097 1069.7 904.097 1074.6C893.097 1079.5 880.997 1076.3 876.997 1067.4L858.297 1025.7" fill="#ECF5F6"/>
<path d="M903.697 1013.6L916.797 1049.6C920.797 1058.5 915.097 1069.7 904.097 1074.6C893.097 1079.5 880.997 1076.3 876.997 1067.4L858.297 1025.7" stroke="black" stroke-width="18.34" stroke-linecap="round" stroke-linejoin="round"/>
<path d="M918.899 1054.3C936.699 1063.1 956.799 1088.2 975.799 1082.5C1007.2 1073.1 1022.6 1067 1021.4 1053C1019.4 1030.1 929.199 987.599 849.099 1023.4C768.999 1059.2 743.799 1156.3 753.199 1177.3C757.799 1187.6 775.999 1181.8 801.599 1168.5C823.199 1157.3 826.099 1126.8 836.599 1104.8C840.399 1096.8 839.099 1101.7 838.399 1096.1" stroke="black" stroke-width="18.34" stroke-linecap="round" stroke-linejoin="round"/>
<path d="M875.699 1126.7V1163" stroke="black" stroke-width="18.34" stroke-linecap="round" stroke-linejoin="round"/>
<path d="M917.098 1108.6L938.198 1131.3" stroke="black" stroke-width="18.34" stroke-linecap="round" stroke-linejoin="round"/>
<path d="M493.2 778.399C512.9 751.799 522.9 779.999 559.5 781.999C596.1 783.999 612.2 761.799 625.8 785.599C640.3 811.199 593.2 837.299 556.6 835.299C520 833.299 475.7 802.099 493.2 778.399Z" fill="#3D11B7"/>
<path d="M511.598 767.198C498.198 760.898 505.298 761.998 493.098 778.498C475.598 802.198 519.898 833.398 556.498 835.398C561.498 835.698 566.698 835.398 571.898 834.698C540.498 819.498 513.498 799.498 511.598 767.198Z" fill="#7208A4"/>
<path d="M493.2 778.399C512.9 751.799 522.9 779.999 559.5 781.999C596.1 783.999 612.2 761.799 625.8 785.599C640.3 811.199 593.2 837.299 556.6 835.299C520 833.299 475.7 802.099 493.2 778.399Z" stroke="black" stroke-width="18.34" stroke-linecap="round" stroke-linejoin="round"/>
<path d="M493.2 778.399C512.9 751.799 522.9 779.999 559.5 781.999C596.1 783.999 612.2 761.799 625.8 785.599C640.3 811.199 593.2 837.299 556.6 835.299C520 833.299 475.7 802.099 493.2 778.399Z" stroke="black" stroke-width="18.34" stroke-miterlimit="10" stroke-linecap="round" stroke-linejoin="round"/>
</g>
</svg>
