<svg width="2000" height="2000" viewBox="0 0 2000 2000" fill="none" xmlns="http://www.w3.org/2000/svg">
<g clip-path="url(#clip0_258_67)">
<mask id="mask0_258_67" style="mask-type:luminance" maskUnits="userSpaceOnUse" x="0" y="0" width="2000" height="2000">
<path d="M2000 0H0V2000H2000V0Z" fill="white"/>
</mask>
<g mask="url(#mask0_258_67)">
<path d="M992.561 1042.26C1039.24 1021.37 1049.01 941.742 1014.4 864.418C979.781 787.093 913.879 741.349 867.203 762.246C820.526 783.142 810.749 862.766 845.366 940.09C879.983 1017.41 945.884 1063.16 992.561 1042.26Z" fill="#ECF5F6" stroke="black" stroke-width="18.34" stroke-miterlimit="10" stroke-linecap="round" stroke-linejoin="round"/>
<path d="M1035 950.6C1036.1 993.2 1021.9 1028.1 993.901 1041.6C947.801 1063.7 881.701 1019.3 846.401 942.3C825.701 897.3 820.101 851.1 828.301 816.1C841.301 874.6 828.101 890.9 898.301 973.7C968.501 1056.5 1026.6 970 1035 950.6Z" fill="#B9B8B8"/>
<path d="M992.561 1042.26C1039.24 1021.37 1049.01 941.742 1014.4 864.418C979.781 787.093 913.879 741.349 867.203 762.246C820.526 783.142 810.749 862.766 845.366 940.09C879.983 1017.41 945.884 1063.16 992.561 1042.26Z" stroke="black" stroke-width="18.34" stroke-miterlimit="10" stroke-linecap="round" stroke-linejoin="round"/>
<path d="M633.519 1163.95C682.863 1150.73 705.067 1073.59 683.113 991.648C661.159 909.71 603.36 854.004 554.016 867.225C504.671 880.446 482.467 957.588 504.422 1039.53C526.376 1121.46 584.175 1177.17 633.519 1163.95Z" fill="black" stroke="black" stroke-width="18.34" stroke-miterlimit="10" stroke-linecap="round" stroke-linejoin="round"/>
<path d="M690.1 1078.7C682 1147.2 641.3 1161.9 633.6 1163.9C584.2 1177.1 526.4 1121.4 504.5 1039.5C493.8 999.5 493.6 960.5 502.1 929.6C504.5 1039.5 591.2 1205.3 690.1 1078.7Z" fill="#2D2D2D"/>
<path d="M633.519 1163.95C682.863 1150.73 705.067 1073.59 683.113 991.648C661.159 909.71 603.36 854.004 554.016 867.225C504.671 880.446 482.467 957.588 504.422 1039.53C526.376 1121.46 584.175 1177.17 633.519 1163.95Z" stroke="black" stroke-width="18.34" stroke-miterlimit="10" stroke-linecap="round" stroke-linejoin="round"/>
<path d="M558.8 939.799C564.9 943.499 673.4 1021.9 682.6 1027.8" stroke="white" stroke-width="18.34" stroke-linecap="round" stroke-linejoin="round"/>
<path d="M612 1067.8C613.2 1059.7 639.3 918.899 638.7 919.799" stroke="white" stroke-width="18.34" stroke-linecap="round" stroke-linejoin="round"/>
<path d="M792.5 749.299C780.3 718.599 809.5 724.899 830.5 694.899C851.5 664.899 841.1 639.399 868.5 640.499C898 641.599 895.3 695.399 874.3 725.499C853.2 755.499 803.4 776.699 792.5 749.299Z" fill="#FF5DFF"/>
<path d="M793.4 729.5C793.5 732.7 790.5 744.5 792.4 749.3C802.8 775.4 848.6 757.3 871 729.5C846.8 738 816.5 748 793.4 729.5Z" fill="#D500C8"/>
<path d="M792.5 749.299C780.3 718.599 809.5 724.899 830.5 694.899C851.5 664.899 841.1 639.399 868.5 640.499C898 641.599 895.3 695.399 874.3 725.499C853.2 755.499 803.4 776.699 792.5 749.299Z" stroke="black" stroke-width="18.34" stroke-miterlimit="10" stroke-linecap="round" stroke-linejoin="round"/>
<path d="M919.3 1055.8C919.3 1055.8 935.1 1075.4 965.2 1086.3C1009.7 1072 1027.6 1067.6 1021.4 1053.7C1012 1032.7 929.2 988.299 849.1 1024.1C769 1059.9 735.2 1159.4 744.6 1180.4C750.8 1194.3 781.9 1178.8 822.5 1155C837.1 1132.4 843.2 1097.4 841.7 1084.9" fill="#EF4A7E"/>
<path d="M855.501 1028.1L874.201 1069.8C878.201 1078.7 871.801 1090.2 860.001 1095.5C848.201 1100.8 835.301 1097.9 831.301 1089L812.601 1047.3" fill="#ECF5F6"/>
<path d="M855.501 1028.1L874.201 1069.8C878.201 1078.7 871.801 1090.2 860.001 1095.5C848.201 1100.8 835.301 1097.9 831.301 1089L812.601 1047.3" stroke="black" stroke-width="18.34" stroke-linecap="round" stroke-linejoin="round"/>
<path d="M903.7 1013.6L916.8 1049.6C920.8 1058.5 915.1 1069.7 904.1 1074.6C893.1 1079.5 881 1076.3 877 1067.4L858.3 1025.7" fill="#ECF5F6"/>
<path d="M903.7 1013.6L916.8 1049.6C920.8 1058.5 915.1 1069.7 904.1 1074.6C893.1 1079.5 881 1076.3 877 1067.4L858.3 1025.7" stroke="black" stroke-width="18.34" stroke-linecap="round" stroke-linejoin="round"/>
<path d="M918.9 1054.3C936.7 1063.1 956.8 1088.2 975.8 1082.5C1007.2 1073.1 1022.6 1067 1021.4 1053C1019.4 1030.1 929.2 987.599 849.1 1023.4C769 1059.2 743.8 1156.3 753.2 1177.3C757.8 1187.6 776 1181.8 801.6 1168.5C823.2 1157.3 826.1 1126.8 836.6 1104.8C840.4 1096.8 839.1 1101.7 838.4 1096.1" stroke="black" stroke-width="18.34" stroke-linecap="round" stroke-linejoin="round"/>
<path d="M875.7 1126.7V1163" stroke="black" stroke-width="18.34" stroke-linecap="round" stroke-linejoin="round"/>
<path d="M917.101 1108.6L938.201 1131.3" stroke="black" stroke-width="18.34" stroke-linecap="round" stroke-linejoin="round"/>
<path d="M493.2 778.399C512.9 751.799 522.9 779.999 559.5 781.999C596.1 783.999 612.2 761.799 625.8 785.599C640.3 811.199 593.2 837.299 556.6 835.299C520 833.299 475.7 802.099 493.2 778.399Z" fill="#FF5DFF"/>
<path d="M511.6 767.198C498.2 760.898 505.3 761.998 493.1 778.498C475.6 802.198 519.9 833.398 556.5 835.398C561.5 835.698 566.7 835.398 571.9 834.698C540.5 819.498 513.5 799.498 511.6 767.198Z" fill="#D500C8"/>
<path d="M493.2 778.399C512.9 751.799 522.9 779.999 559.5 781.999C596.1 783.999 612.2 761.799 625.8 785.599C640.3 811.199 593.2 837.299 556.6 835.299C520 833.299 475.7 802.099 493.2 778.399Z" stroke="black" stroke-width="18.34" stroke-linecap="round" stroke-linejoin="round"/>
<path d="M493.2 778.399C512.9 751.799 522.9 779.999 559.5 781.999C596.1 783.999 612.2 761.799 625.8 785.599C640.3 811.199 593.2 837.299 556.6 835.299C520 833.299 475.7 802.099 493.2 778.399Z" stroke="black" stroke-width="18.34" stroke-miterlimit="10" stroke-linecap="round" stroke-linejoin="round"/>
</g>
</g>
<defs>
<clipPath id="clip0_258_67">
<rect width="2000" height="2000" fill="white"/>
</clipPath>
</defs>
</svg>
