<svg width="2000" height="2000" viewBox="0 0 2000 2000" fill="none" xmlns="http://www.w3.org/2000/svg">
<g clip-path="url(#clip0_258_352)">
<mask id="mask0_258_352" style="mask-type:luminance" maskUnits="userSpaceOnUse" x="0" y="0" width="2000" height="2000">
<path d="M2000 0H0V2000H2000V0Z" fill="white"/>
</mask>
<g mask="url(#mask0_258_352)">
<path d="M679.2 1120C662.5 1127 642.9 1136.6 622.9 1148.6C615.3 1153.1 607.7 1157.9 600.1 1163.1C582.2 1157.7 564.4 1145 548.8 1126.9C561.9 1115.2 574.4 1102.8 586.2 1090.2C624.1 1049.7 654.5 1006.1 675.7 968.301C678.5 975.801 681 983.701 683.2 991.701C696.2 1040.2 693.6 1087.1 679.2 1120Z" fill="white"/>
<path d="M622.8 1148.6C615.2 1153.1 607.6 1157.9 600 1163.1C582.1 1157.7 564.3 1145 548.7 1126.9C561.8 1115.2 562.6 1115.5 574.3 1102.8C573.3 1126.8 596.4 1142.6 622.8 1148.6Z" fill="#BBBBBB"/>
<path d="M679.2 1120C656.1 1129.7 627.7 1144.2 600.1 1163.1C582.2 1157.7 564.4 1145 548.8 1126.9C604.2 1077.4 648 1017.9 675.7 968.301C678.5 975.801 681 983.701 683.2 991.701C696.2 1040.2 693.6 1087.1 679.2 1120Z" stroke="black" stroke-width="18.34" stroke-linecap="round" stroke-linejoin="round"/>
<path d="M1034.6 968.9C1031.9 1001.1 1019.4 1027.1 997.9 1039.5C996.6 1040.3 995.3 1041 993.9 1041.6C992.9 1042 992 1042.5 991 1042.9C989.2 1042.6 987.4 1042.4 985.6 1042.2C968.8 1040.1 953.4 1040.2 939.8 1041.7C905 1028.4 869.2 992.2 846.4 942.4C842.7 934.3 839.4 926.1 836.6 917.9C874.6 941.1 925.1 955.1 972.9 962.6C984.5 964.4 996 965.8 1007.1 966.9C1016.6 967.8 1025.8 968.5 1034.6 968.9Z" fill="white"/>
<path d="M850.2 933.201C855.2 980.401 887.7 1016.4 917.4 1036.6C919.6 1038.1 922.2 1038.8 924.7 1039.7C926.5 1040.4 928.2 1041 930 1041.6C933.3 1041.2 942.4 1039.4 945.6 1039.1C910.8 1012.5 880.1 976.801 888 941.701C870.7 943.101 866.3 932.601 850.2 933.201Z" fill="#BBBBBB"/>
<path d="M1034.6 968.9C1031.9 1001.1 1019.4 1027.1 997.9 1039.5C996.6 1040.3 995.3 1041 993.9 1041.6C992.9 1042 992 1042.5 991 1042.9C972.2 1040.1 954.9 1040 939.8 1041.7C905 1028.4 869.2 992.2 846.4 942.4C842.7 934.3 839.4 926.1 836.6 917.9C874.6 941.1 925.1 955.1 972.9 962.6C994.5 966 1015.5 968 1034.6 968.9Z" stroke="black" stroke-width="18.34" stroke-linecap="round" stroke-linejoin="round"/>
<path d="M548.8 1126.8C539.8 1134.9 530.4 1142.7 520.8 1150.2" stroke="black" stroke-width="18.34" stroke-linecap="round" stroke-linejoin="round"/>
<path d="M1034.6 968.9C1041.8 969.2 1048.7 969.4 1055.3 969.5" stroke="black" stroke-width="18.34" stroke-linecap="round" stroke-linejoin="round"/>
<path d="M532.1 1063.9C532.1 1073.6 528.3 1082.4 522 1088.8C515.5 1095.4 506.5 1099.4 496.6 1099.4C477 1099.4 461.1 1083.5 461.1 1063.9C461.1 1053.7 465.4 1044.5 472.4 1038C478.8 1032.1 487.3 1028.5 496.6 1028.5C516.2 1028.4 532.1 1044.3 532.1 1063.9Z" fill="url(#paint0_linear_258_352)"/>
<path d="M522 1088.8C515.5 1095.4 506.5 1099.4 496.6 1099.4C477 1099.4 461.1 1083.5 461.1 1063.9C461.1 1053.7 465.4 1044.5 472.4 1038C480.5 1062.3 497.7 1081.4 522 1088.8Z" fill="#F269FF"/>
<path d="M496.6 1099.4C516.206 1099.4 532.1 1083.51 532.1 1063.9C532.1 1044.29 516.206 1028.4 496.6 1028.4C476.994 1028.4 461.1 1044.29 461.1 1063.9C461.1 1083.51 476.994 1099.4 496.6 1099.4Z" stroke="black" stroke-width="18.34" stroke-linecap="round" stroke-linejoin="round"/>
<path d="M1066.9 901.001C1066.9 910.401 1062.1 918.701 1054.9 923.501C1050.6 926.401 1045.4 928.101 1039.7 928.101C1024.7 928.101 1012.5 916.001 1012.5 900.901C1012.5 890.301 1018.5 881.201 1027.3 876.701C1031 874.801 1035.2 873.701 1039.7 873.701C1054.8 873.801 1066.9 886.001 1066.9 901.001Z" fill="url(#paint1_linear_258_352)"/>
<path d="M1054.9 923.501C1050.6 926.401 1045.4 928.101 1039.7 928.101C1024.7 928.101 1012.5 916.001 1012.5 900.901C1012.5 890.301 1018.5 881.201 1027.3 876.701C1034 894.301 1043.2 910.501 1054.9 923.501Z" fill="#F269FF"/>
<path d="M1066.64 905.313C1069.04 890.485 1058.97 876.513 1044.15 874.106C1029.32 871.7 1015.35 881.77 1012.94 896.598C1010.53 911.426 1020.6 925.398 1035.43 927.805C1050.26 930.211 1064.23 920.141 1066.64 905.313Z" stroke="black" stroke-width="18.34" stroke-linecap="round" stroke-linejoin="round"/>
<path d="M875 1111.1C826.1 1044.3 777.2 1130.7 758.5 1186.3C758.5 1186.3 822.6 1071.3 875 1111.1Z" fill="#2D1FC3"/>
<path d="M753.5 1190.7C773.9 1130.1 827 1036.3 880.1 1108.9" stroke="black" stroke-width="18.34" stroke-linecap="round" stroke-linejoin="round"/>
</g>
</g>
<defs>
<linearGradient id="paint0_linear_258_352" x1="461.13" y1="1063.92" x2="532.12" y2="1063.92" gradientUnits="userSpaceOnUse">
<stop stop-color="#F269FF"/>
<stop offset="1" stop-color="#F269FF"/>
</linearGradient>
<linearGradient id="paint1_linear_258_352" x1="1012.57" y1="900.996" x2="1066.91" y2="900.996" gradientUnits="userSpaceOnUse">
<stop stop-color="#F269FF"/>
<stop offset="1" stop-color="#F269FF"/>
</linearGradient>
<clipPath id="clip0_258_352">
<rect width="2000" height="2000" fill="white"/>
</clipPath>
</defs>
</svg>
