<svg width="2000" height="2000" viewBox="0 0 2000 2000" fill="none" xmlns="http://www.w3.org/2000/svg">
<mask id="mask0_595_255" style="mask-type:luminance" maskUnits="userSpaceOnUse" x="0" y="0" width="2000" height="2000">
<path d="M2000 0H0V2000H2000V0Z" fill="white"/>
</mask>
<g mask="url(#mask0_595_255)">
<path d="M930.298 693.4C951.898 660.6 914.998 644.4 898.298 658.1C874.798 677.3 864.398 696.3 826.098 703.1C788.598 709.7 800.098 755.6 865.998 731.7C903.298 718.2 920.798 707.8 930.298 693.4Z" fill="#1BFD00"/>
<path d="M622.499 819.7C636.299 803.1 614.299 780.7 597.299 794.1C573.499 812.9 547.399 807.5 508.499 807.1C468.199 806.7 472.899 874.5 557.599 856.9C596.499 848.9 611.599 833 622.499 819.7Z" fill="#1BFD00"/>
<path d="M928.198 696.501C940.898 677.201 925.198 660.401 913.398 655.301C919.398 676.401 921.598 684.001 898.398 713.501C909.998 706.901 922.998 704.301 928.198 696.501Z" fill="#FF8E00"/>
<path d="M490.497 813.6C472.997 829.9 489.297 871.3 557.597 857.1C557.597 857.1 574.997 849.6 575.097 849.6C512.997 850.1 506.497 831 490.497 813.6Z" fill="#FF8E00"/>
<path d="M812.398 832.501C812.898 832.601 813.498 832.701 813.998 832.801C825.098 835.101 830.098 847.901 823.498 857.101C823.398 857.201 823.298 857.301 823.198 857.501C819.698 862.501 819.498 869.001 822.598 874.301L833.698 893.201C839.198 902.501 852.098 903.601 859.098 895.301C878.298 872.401 919.398 837.301 987.598 843.301C1000.1 844.401 1008.6 830.701 1002.2 819.901L994.398 806.701C992.198 802.901 988.398 800.201 984.098 799.301C983.598 799.201 982.998 799.101 982.498 799.001C971.398 796.701 966.398 783.901 972.998 774.701C973.098 774.601 973.198 774.501 973.298 774.301C976.798 769.301 976.998 762.801 973.898 757.501L962.798 738.601C957.298 729.301 944.398 728.201 937.398 736.501C918.198 759.401 877.098 794.501 808.898 788.501C796.398 787.401 787.898 801.101 794.298 811.901L802.098 825.101C804.298 828.901 808.098 831.501 812.398 832.501Z" fill="white"/>
<path d="M723.197 887.1C723.097 887.1 722.897 887.1 722.797 887.1C709.797 886.1 702.197 872.1 708.297 860.7C708.597 860.2 708.797 859.7 709.097 859.2C712.397 853 711.597 845.4 707.297 839.9L693.597 822.4C685.997 812.7 671.097 813.3 664.497 823.7C646.797 851.2 607.697 894.2 534.397 898.1C519.997 898.9 512.597 915.7 521.497 927.1L530.597 938.8C533.697 942.8 538.397 945.3 543.397 945.6C543.497 945.6 543.697 945.6 543.797 945.6C556.797 946.6 564.397 960.6 558.297 972C557.997 972.5 557.797 973 557.497 973.5C554.297 979.7 554.997 987.3 559.297 992.8L572.997 1010.3C580.597 1020 595.497 1019.4 602.097 1009C619.797 981.5 658.897 938.5 732.197 934.6C746.597 933.8 753.997 917 745.097 905.6L735.997 893.9C732.897 890 728.297 887.5 723.197 887.1Z" fill="white"/>
<path d="M836.199 865.5C832.299 863.2 827.899 860.7 823.499 858.4C820.299 863.1 818.699 866.1 818.699 866.1L847.799 900.8C847.799 900.8 890.099 829.9 993.599 843.5C1003.9 844.9 1011.3 833.7 1006 824.7C941.499 808.8 885.099 844.9 861.199 863.7C853.899 869.4 844.099 870.1 836.199 865.5Z" fill="#B9B8B8"/>
<path d="M862.899 965.5L1097.8 912.6C1097.8 912.6 1143.4 936.1 1112.4 977.6L866.999 1032.8C866.999 1032.8 842.099 1002.8 862.899 965.5Z" fill="white"/>
<path d="M569.798 980.5L554.798 969.7C550.198 978.1 548.098 983.6 548.098 983.6L569.198 1010.6C576.598 1020 590.898 1019.2 597.298 1009.1C615.598 980.3 657.498 934.1 737.998 933.9C748.198 933.9 753.798 922.1 747.598 914.1C653.998 918.6 613.198 954.8 596.798 976.6C590.498 985 578.498 986.8 569.798 980.5Z" fill="#B9B8B8"/>
<mask id="mask1_595_255" style="mask-type:luminance" maskUnits="userSpaceOnUse" x="854" y="912" width="263" height="121">
<path d="M862.899 965.5L1097.8 912.6C1097.8 912.6 1128.3 941 1112.4 977.6L866.999 1032.8C866.999 1032.8 842.099 1002.8 862.899 965.5Z" fill="white"/>
</mask>
<g mask="url(#mask1_595_255)">
<path d="M956.897 923.1C955.897 926.2 886.097 972.7 954.797 1026L849.597 1056.4L836.297 953.3L956.897 923.1Z" fill="#FDBC59"/>
</g>
<path d="M862.897 965.5L1097.8 912.6C1097.8 912.6 1143.4 931.3 1112.4 977.6L875.397 1030.9C875.497 1030.9 842.097 1002.8 862.897 965.5Z" stroke="black" stroke-width="18.34" stroke-linecap="round" stroke-linejoin="round"/>
<path d="M723.197 887.1C723.097 887.1 722.897 887.1 722.797 887.1C709.797 886.1 702.197 872.1 708.297 860.7C708.597 860.2 708.797 859.7 709.097 859.2C712.397 853 711.597 845.4 707.297 839.9L693.597 822.4C685.997 812.7 671.097 813.3 664.497 823.7C646.797 851.2 607.697 894.2 534.397 898.1C519.997 898.9 512.597 915.7 521.497 927.1L530.597 938.8C533.697 942.8 538.397 945.3 543.397 945.6C543.497 945.6 543.697 945.6 543.797 945.6C556.797 946.6 564.397 960.6 558.297 972C557.997 972.5 557.797 973 557.497 973.5C554.297 979.7 554.997 987.3 559.297 992.8L572.997 1010.3C580.597 1020 595.497 1019.4 602.097 1009C619.797 981.5 658.897 938.5 732.197 934.6C746.597 933.8 753.997 917 745.097 905.6L735.997 893.9C732.897 890 728.297 887.5 723.197 887.1Z" stroke="black" stroke-width="18.34" stroke-linecap="round" stroke-linejoin="round"/>
<path d="M812.398 832.501C812.898 832.601 813.498 832.701 813.998 832.801C825.098 835.101 830.098 847.901 823.498 857.101C823.398 857.201 823.298 857.301 823.198 857.501C819.698 862.501 819.498 869.001 822.598 874.301L833.698 893.201C839.198 902.501 852.098 903.601 859.098 895.301C878.298 872.401 919.398 837.301 987.598 843.301C1000.1 844.401 1008.6 830.701 1002.2 819.901L994.398 806.701C992.198 802.901 988.398 800.201 984.098 799.301C983.598 799.201 982.998 799.101 982.498 799.001C971.398 796.701 966.398 783.901 972.998 774.701C973.098 774.601 973.198 774.501 973.298 774.301C976.798 769.301 976.998 762.801 973.898 757.501L962.798 738.601C957.298 729.301 944.398 728.201 937.398 736.501C918.198 759.401 877.098 794.501 808.898 788.501C796.398 787.401 787.898 801.101 794.298 811.901L802.098 825.101C804.298 828.901 808.098 831.501 812.398 832.501Z" stroke="black" stroke-width="18.34" stroke-linecap="round" stroke-linejoin="round"/>
<path d="M622.499 819.7C636.299 803.1 614.299 780.7 597.299 794.1C573.499 812.9 547.399 807.5 508.499 807.1C468.199 806.7 472.899 874.5 557.599 856.9C596.499 848.9 611.599 833 622.499 819.7Z" stroke="black" stroke-width="18.34" stroke-miterlimit="10" stroke-linecap="round" stroke-linejoin="round"/>
<path d="M930.298 693.4C951.898 660.6 914.998 644.4 898.298 658.1C874.798 677.3 864.398 696.3 826.098 703.1C788.598 709.7 800.098 755.6 865.998 731.7C903.298 718.2 920.798 707.8 930.298 693.4Z" stroke="black" stroke-width="18.34" stroke-miterlimit="10" stroke-linecap="round" stroke-linejoin="round"/>
<path d="M777.398 975.1C777.398 975.1 845.998 999.2 835.198 1059.5" stroke="black" stroke-width="18.34" stroke-linecap="round" stroke-linejoin="round"/>
<path d="M922.5 952.701C922.5 952.701 909.4 977.501 935.9 1017.3" stroke="black" stroke-width="18.34" stroke-linecap="round" stroke-linejoin="round"/>
</g>
</svg>
