<svg width="2000" height="2000" viewBox="0 0 2000 2000" fill="none" xmlns="http://www.w3.org/2000/svg">
<g clip-path="url(#clip0_429_97)">
<mask id="mask0_429_97" style="mask-type:luminance" maskUnits="userSpaceOnUse" x="0" y="0" width="2000" height="2000">
<path d="M2000 0H0V2000H2000V0Z" fill="white"/>
</mask>
<g mask="url(#mask0_429_97)">
<path d="M552.951 1002.93C552.951 1002.93 633.221 973.11 633.221 967.76V871.43C633.221 871.43 683.681 921.12 693.611 937.18C724.951 928.01 757.061 928.77 757.061 928.77C757.061 928.77 729.371 987.53 725.551 998.23C725.551 998.23 770.061 1065.61 774.641 1087.02C774.641 1087.02 713.481 1057.2 698.961 1059.5C698.961 1059.5 654.621 1132.13 633.981 1142.06C633.981 1142.06 646.981 1038.85 643.151 1025.09C643.151 1025.09 576.311 1017.45 552.941 1002.92L552.951 1002.93Z" fill="#FFC400"/>
<g style="mix-blend-mode:multiply">
<path d="M679.601 1067.84L696.351 1063.72C681.711 1085.26 645.951 1136.33 633.991 1142.06C633.991 1142.06 646.981 1038.86 643.161 1025.1C643.161 1025.1 576.311 1017.47 552.941 1002.94C552.941 1002.94 633.211 973.111 633.211 967.761V902.311C643.971 922.441 654.721 942.461 660.141 952.571C662.331 956.661 661.811 961.661 658.821 965.211L642.841 984.191C638.281 989.611 639.751 997.831 645.911 1001.33L661.841 1010.37C665.581 1012.49 667.791 1016.55 667.561 1020.84L665.591 1056.23C665.171 1063.83 672.211 1069.67 679.591 1067.85L679.601 1067.84Z" fill="#FFC400"/>
</g>
<path d="M552.951 1002.93C552.951 1002.93 633.221 973.11 633.221 967.76V871.43C633.221 871.43 683.681 921.12 693.611 937.18C724.951 928.01 757.061 928.77 757.061 928.77C757.061 928.77 729.371 987.53 725.551 998.23C725.551 998.23 770.061 1065.61 774.641 1087.02C774.641 1087.02 713.481 1057.2 698.961 1059.5C698.961 1059.5 654.621 1132.13 633.981 1142.06C633.981 1142.06 646.981 1038.85 643.151 1025.09C643.151 1025.09 576.311 1017.45 552.941 1002.92L552.951 1002.93Z" stroke="black" stroke-width="18.34" stroke-linecap="round" stroke-linejoin="round"/>
<path d="M981.731 981.839C981.731 981.839 955.021 931.059 937.191 930.289C937.191 930.289 934.401 941.149 930.071 955.349C923.251 977.689 912.531 1008.33 902.741 1017.87C902.741 1017.87 903.071 918.559 895.331 910.809C895.331 910.809 859.671 895.399 848.041 885.309L894.561 862.819C894.561 862.819 892.541 852.839 889.531 837.619C886.931 824.669 883.621 807.899 880.171 790.219C910.031 801.889 932.271 841.139 939.241 851.229C939.241 851.229 962.761 841.139 971.311 834.169C971.311 834.169 968.191 882.229 962.761 896.939C962.761 896.939 989.511 929.149 981.731 981.839Z" fill="#FFC400"/>
<g style="mix-blend-mode:multiply">
<path d="M902.741 1017.87C902.741 1017.87 903.071 918.559 895.331 910.809C895.331 910.809 859.671 895.399 848.041 885.309L894.561 862.819C894.561 862.819 892.541 852.839 889.531 837.619L911.691 867.699C914.851 871.989 913.501 878.089 908.821 880.649C902.861 883.909 902.681 892.409 908.501 895.909L918.521 901.949C920.751 903.289 922.271 905.549 922.671 908.129L930.071 955.359C923.251 977.699 912.531 1008.34 902.741 1017.88V1017.87Z" fill="#FFC400"/>
</g>
<path d="M981.731 981.839C981.731 981.839 955.021 931.059 937.191 930.289C937.191 930.289 934.401 941.149 930.071 955.349C923.251 977.689 912.531 1008.33 902.741 1017.87C902.741 1017.87 903.071 918.559 895.331 910.809C895.331 910.809 859.671 895.399 848.041 885.309L894.561 862.819C894.561 862.819 892.541 852.839 889.531 837.619C886.931 824.669 883.621 807.899 880.171 790.219C910.031 801.889 932.271 841.139 939.241 851.229C939.241 851.229 962.761 841.139 971.311 834.169C971.311 834.169 968.191 882.229 962.761 896.939C962.761 896.939 989.511 929.149 981.731 981.839Z" stroke="black" stroke-width="18.34" stroke-linecap="round" stroke-linejoin="round"/>
<path d="M600.281 956.008L579.551 958.608L520.121 966.128C515.421 966.718 513.221 960.548 517.221 958.018L550.351 937.108L553.691 898.548L555.711 875.468C556.111 870.918 562.311 869.888 564.151 874.078L600.291 955.998L600.281 956.008Z" fill="#FFC400"/>
<g style="mix-blend-mode:multiply">
<path d="M579.551 958.619L520.121 966.139C515.421 966.729 513.221 960.559 517.221 958.029L550.351 937.119L553.691 898.559C564.551 924.089 576.031 950.509 579.551 958.619Z" fill="#FFC400"/>
</g>
<path d="M564.151 874.078L600.271 956.018L520.111 966.138C515.431 966.728 513.211 960.548 517.201 958.028L550.341 937.118L555.711 875.478C556.111 870.928 562.301 869.908 564.141 874.078H564.151Z" stroke="black" stroke-width="18.34" stroke-linecap="round" stroke-linejoin="round"/>
<path d="M984.84 764.719L952.85 791.389L940.27 801.879L918.11 743.989C915.69 737.679 924.35 735.179 930.36 740.099L950.28 756.389L952.81 758.439L982.42 759.719C984.99 759.829 986.64 763.239 984.84 764.709V764.719Z" fill="#FFC400"/>
<g style="mix-blend-mode:multiply">
<path d="M952.85 791.389L940.27 801.879L918.11 743.989C915.69 737.679 924.35 735.179 930.36 740.099L950.28 756.389C951.09 767.869 952 780.129 952.85 791.389Z" fill="#FFC400"/>
</g>
<path d="M984.84 764.719L952.85 791.389L940.27 801.879L918.11 743.989C915.69 737.679 924.35 735.179 930.36 740.099L950.28 756.389L952.81 758.439L982.42 759.719C984.99 759.829 986.64 763.239 984.84 764.709V764.719Z" stroke="black" stroke-width="18.34" stroke-linecap="round" stroke-linejoin="round"/>
<path d="M806.74 1087.64L914.5 1044.41C914.5 1044.41 935.86 1149.78 881.51 1168.41C827.16 1187.04 806.74 1087.65 806.74 1087.65V1087.64Z" fill="#EBF6F7" stroke="black" stroke-width="18.34" stroke-linecap="round" stroke-linejoin="round"/>
<path d="M823.93 1135.35L918.63 1090.05" stroke="black" stroke-width="18.34" stroke-linecap="round" stroke-linejoin="round"/>
<path d="M884.49 1056.44L894.79 1101.45" stroke="black" stroke-width="18.34" stroke-linecap="round" stroke-linejoin="round"/>
<path d="M854.561 1068.45L862.681 1116.81" stroke="black" stroke-width="18.34" stroke-linecap="round" stroke-linejoin="round"/>
<path d="M877.92 1109.53L898.97 1157.25" stroke="black" stroke-width="18.34" stroke-linecap="round" stroke-linejoin="round"/>
<path d="M848.971 1123.37L867.111 1170.71" stroke="black" stroke-width="18.34" stroke-linecap="round" stroke-linejoin="round"/>
</g>
</g>
<defs>
<clipPath id="clip0_429_97">
<rect width="2000" height="2000" fill="white"/>
</clipPath>
</defs>
</svg>
