<svg width="2000" height="2000" viewBox="0 0 2000 2000" fill="none" xmlns="http://www.w3.org/2000/svg">
<mask id="mask0_595_232" style="mask-type:luminance" maskUnits="userSpaceOnUse" x="0" y="0" width="2000" height="2000">
<path d="M2000 0H0V2000H2000V0Z" fill="white"/>
</mask>
<g mask="url(#mask0_595_232)">
<path d="M941.4 793C978.4 840.7 986.8 893.3 948.8 922.7C910.8 952.1 850 937.3 813.1 889.5C776.2 841.7 777 779.3 815 749.8C853 720.4 904.5 745.3 941.4 793Z" fill="#ECF5F6"/>
<path d="M779.501 901.199C798.701 925.999 742.101 939.899 690.201 980.199C638.201 1020.4 610.601 1071.7 591.401 1046.9C556.701 1002.1 568.7 930.599 620.6 890.299C672.5 849.999 752.101 865.799 779.501 901.199Z" fill="#ECF5F6" stroke="black" stroke-width="18.34" stroke-miterlimit="10" stroke-linecap="round" stroke-linejoin="round"/>
<path d="M801.899 637.1C801.899 637.1 744.599 719.1 769.699 734.5C794.999 749.8 854.499 651.8 801.899 637.1Z" fill="#D500C8" stroke="black" stroke-width="18.34" stroke-linecap="round" stroke-linejoin="round"/>
<path d="M916.5 1015.1C916.5 1015.1 884.5 1023.9 839.9 989.3C772.5 937.1 688.8 1054.9 826.1 1068.2C863.1 1071.8 901.7 1051.3 916.5 1015.1Z" fill="#DB0100" stroke="black" stroke-width="18.34" stroke-linecap="round" stroke-linejoin="round"/>
<path d="M789.398 788.699C790.898 811.699 796.598 868.199 813.098 889.499C846.098 932.099 910.998 940.499 948.798 922.699C857.298 909.099 824.498 872.699 789.398 788.699Z" fill="#B9B8B8"/>
<path d="M925.999 973.4C931.999 1009.6 901.699 1039.2 901.699 1039.2" stroke="black" stroke-width="18.34" stroke-linecap="round" stroke-linejoin="round"/>
<path d="M786.799 661C782.199 711.2 786.299 721.7 800.499 715.1C797.799 726.9 734.199 758.8 786.799 661Z" fill="#A90033"/>
<path d="M615.199 1005.8C598.499 1011.7 589.099 968.3 584.399 934.5C565.799 971.9 567.399 1015.8 591.499 1046.9C610.699 1071.7 638.398 1020.4 690.298 980.2C706.998 967.3 724.199 957 739.199 948.3C708.999 932.6 640.799 996.8 615.199 1005.8Z" fill="#B9B8B8"/>
<path d="M946.005 927.656C980.416 901.013 978.354 840.722 941.399 792.992C904.444 745.261 846.59 728.166 812.178 754.809C777.767 781.452 779.829 841.744 816.785 889.474C853.74 937.205 911.594 954.299 946.005 927.656Z" stroke="black" stroke-width="18.34" stroke-miterlimit="10" stroke-linecap="round" stroke-linejoin="round"/>
<path d="M779.501 901.199C798.701 925.999 742.101 939.899 690.201 980.199C638.201 1020.4 610.601 1071.7 591.401 1046.9C556.701 1002.1 568.7 930.599 620.6 890.299C672.5 849.999 752.101 865.799 779.501 901.199Z" stroke="black" stroke-width="18.34" stroke-miterlimit="10" stroke-linecap="round" stroke-linejoin="round"/>
<path d="M801.899 637.1C801.899 637.1 744.599 719.1 769.699 734.5C794.999 749.8 854.499 651.8 801.899 637.1Z" stroke="black" stroke-width="18.34" stroke-linecap="round" stroke-linejoin="round"/>
<path d="M518.2 798.6C518.2 798.6 616.4 779.6 620.2 808.9C624 838.2 510.2 852.6 518.2 798.6Z" fill="#D500C8" stroke="black" stroke-width="18.34" stroke-linecap="round" stroke-linejoin="round"/>
<path d="M518.201 799C541.101 809.4 547.101 817.8 603.501 825.5C572.001 836.4 513.101 836.4 518.201 799Z" fill="#A90033"/>
<path d="M908.199 1016.1C865.199 1058 818.999 1056.4 764.699 1036.6C763.299 1058.2 770.099 1062.8 826.099 1068.3C855.099 1071.1 901.699 1039.2 908.199 1016.1Z" fill="#A90033"/>
<path d="M518.2 798.6C518.2 798.6 616.4 779.6 620.2 808.9C624 838.2 510.2 852.6 518.2 798.6Z" stroke="black" stroke-width="18.34" stroke-linecap="round" stroke-linejoin="round"/>
<path d="M916.5 1015.1C916.5 1015.1 884.5 1023.9 839.9 989.3C772.5 937.1 688.8 1054.9 826.1 1068.2C863.1 1071.8 901.7 1051.3 916.5 1015.1Z" stroke="black" stroke-width="18.34" stroke-linecap="round" stroke-linejoin="round"/>
</g>
</svg>
