<svg viewBox="0 0 862 301" width="862" height="301" fill="none" xmlns="http://www.w3.org/2000/svg">
  <g fill="#fff" clip-path="url(#a)">
    <path d="M185.595 14.216c-5.307.594-9.247 2.12-11.835 4.593-2.589 2.473-3.892 5.411-3.892 8.816 0 1.124.177 2.007.531 2.65h.273c.531-2.827 2.267-4.24 5.21-4.24 1.705 0 3.104.482 4.197 1.461 1.094.964 1.64 2.345 1.64 4.095 0 2.007-.691 3.533-2.074 4.593s-3.28 1.59-5.693 1.59c-3.296 0-5.885-.948-7.766-2.875-1.882-1.91-2.831-4.432-2.831-7.547 0-5.3 1.93-9.732 5.789-13.329 3.86-3.58 9.343-5.765 16.483-6.535V14.2l-.032.016Zm23.767 0c-5.307.594-9.247 2.12-11.836 4.593-2.589 2.473-3.891 5.411-3.891 8.816 0 1.124.177 2.007.531 2.65h.273c.531-2.827 2.267-4.24 5.21-4.24 1.704 0 3.103.482 4.197 1.461 1.093.964 1.64 2.345 1.64 4.095 0 2.007-.691 3.533-2.074 4.593s-3.281 1.59-5.693 1.59c-3.296 0-5.885-.948-7.767-2.875-1.881-1.91-2.83-4.432-2.83-7.547 0-5.3 1.93-9.732 5.789-13.329 3.86-3.58 9.343-5.765 16.483-6.535V14.2l-.032.016ZM255.6 14.748c4.036 4.818 6.046 12.349 6.046 22.594 0 10.245-2.01 17.76-6.046 22.594-4.037 4.817-9.729 7.242-17.094 7.242-7.365 0-13.057-2.425-17.093-7.274-4.037-4.85-6.047-12.365-6.047-22.546 0-10.18 2.01-17.76 6.047-22.594 4.036-4.817 9.728-7.226 17.093-7.226s13.057 2.409 17.094 7.226v-.016Zm-28.012 5.428c-2.38 3.388-3.586 9.105-3.586 17.166 0 4.593.385 8.318 1.141 11.209l24.024-28.584c-2.235-3.228-5.805-4.85-10.693-4.85s-8.523 1.686-10.919 5.075l.033-.016Zm21.821 34.284c2.379-3.404 3.586-9.121 3.586-17.118 0-5.17-.467-9.298-1.416-12.349L227.282 53.93c2.235 3.758 5.982 5.653 11.224 5.653 4.889 0 8.523-1.703 10.919-5.123h-.016ZM267.664 31.08c5.355-.594 9.326-2.103 11.883-4.544 2.557-2.44 3.843-5.396 3.843-8.864 0-1.06-.144-1.943-.434-2.65h-.273c-.29 1.35-.885 2.393-1.769 3.132-.884.738-2.058 1.108-3.538 1.108-1.704 0-3.103-.498-4.197-1.494-1.093-.995-1.64-2.376-1.64-4.143 0-2.007.708-3.517 2.123-4.544 1.415-1.028 3.328-1.542 5.74-1.542 3.297 0 5.886.964 7.767 2.875 1.882 1.91 2.83 4.4 2.83 7.45 0 5.348-1.945 9.828-5.837 13.41-3.891 3.58-9.391 5.764-16.514 6.535v-6.712l.016-.017Zm23.767 0c5.354-.594 9.326-2.103 11.883-4.544 2.557-2.44 3.843-5.396 3.843-8.864 0-1.06-.144-1.943-.434-2.65h-.273c-.29 1.35-.885 2.393-1.769 3.132-.885.738-2.058 1.108-3.538 1.108-1.704 0-3.103-.498-4.197-1.494-1.093-.995-1.64-2.376-1.64-4.143 0-2.007.708-3.517 2.123-4.544 1.415-1.028 3.328-1.542 5.74-1.542 3.297 0 5.886.964 7.767 2.875 1.882 1.91 2.83 4.4 2.83 7.45 0 5.348-1.945 9.828-5.837 13.41-3.891 3.58-9.391 5.764-16.514 6.535v-6.712l.016-.017ZM414.269 27.72c3.216 4.064 4.808 9.443 4.808 16.14 0 4.769-.82 8.912-2.476 12.444-1.657 3.533-3.892 6.215-6.722 8.078-2.83 1.846-6.014 2.778-9.536 2.778-3.296 0-6.11-.61-8.442-1.847-2.332-1.236-3.875-3.436-4.631-6.616h-.531l-1.945 7.756h-5.564V.277h8.651V21.01l-.611 8.912h.354c.949-3.051 2.492-5.203 4.631-6.44 2.155-1.236 4.985-1.846 8.523-1.846 5.772 0 10.259 2.023 13.475 6.086h.016Zm-6.979 27.701c2.091-2.762 3.136-6.584 3.136-11.465 0-4.593-1.029-8.19-3.088-10.807-2.058-2.618-4.888-3.919-8.474-3.919-2.589 0-4.824.546-6.722 1.638-1.881 1.092-3.296 2.666-4.245 4.721v16.492c2.058 4.994 5.741 7.5 11.047 7.5 3.474 0 6.256-1.382 8.346-4.144v-.016ZM475.817 22.335l-15.646 42.266c-1.882 5.299-3.667 9.41-5.339 12.348-1.672 2.939-3.65 5.139-5.918 6.568-2.267 1.445-5.145 2.168-8.619 2.168-2.766 0-5.692-.418-8.747-1.236l-.081-7.676c1.303.417 2.686.738 4.149.963 1.479.241 2.798.353 3.972.353 1.833 0 3.328-.337 4.502-1.011 1.174-.675 2.252-1.847 3.216-3.485.965-1.654 2.043-4.03 3.233-7.146h-4.503L433.14 29.915h-7.767v-7.596h14.231l12.72 36.436h1.061l13.25-36.436h9.182v.016Z"/><path d="M833.151 91.807c-15.485 2.168-25.905 12.751-32.756 23.863.258-1.558.258-2.826.258-3.838 0-7.098-5.082-11.963-13.974-10.727-10.147 1.413-20.712 11.642-25.632 23.734-1.431 2.216-3.007 4.512-5.21 6.439 4.197-13.167 6.351-26.929 6.351-40.193 0-39.054-18.54-66.642-58.42-61.07-51.055 7.13-86.094 62.258-86.094 112.729 0 2.553.096 5.026.273 7.435-2.637 2.714-5.676 4.994-8.909 5.444-2.283.321-3.553-.771-3.553-4.063 0-2.537.755-6.439.755-10.004.001-9.378-6.609-16.075-17.784-14.501-7.88 1.108-15.486 5.203-22.095 10.952 17.013-24.955 24.635-54.165 24.635-75.217 0-24.601-10.661-35.537-26.162-33.369-41.327 5.781-57.054 92.768-58.324 138.47-5.693 8.415-13.347 17.118-27.257 19.061-8.12 1.14-11.931-3.661-11.931-9.747s4.309-10.743 7.107-11.144c1.271-.177 2.798.112 2.798 3.163 0 1.783-1.013 2.939-1.013 5.476 0 3.806 3.554 5.09 8.378 4.416 10.42-1.461 18.026-10.39 18.026-19.768 0-11.915-9.648-19.96-26.918-17.535-18.895 2.633-34.01 15.464-41.938 31.41-2.155-14.373-11.015-24.024-27.401-21.727-15.485 2.168-25.906 12.75-32.756 23.862.257-1.557.257-2.826.257-3.838 0-7.097-5.081-11.963-13.973-10.727-10.147 1.414-20.712 11.643-25.633 23.735-1.431 2.216-3.007 4.512-5.21 6.439 4.197-13.168 6.352-26.93 6.352-40.194 0-39.054-18.54-66.642-58.42-61.07-51.055 7.13-86.095 62.258-86.095 112.729 0 2.554.097 5.027.274 7.435-2.637 2.714-5.677 4.995-8.909 5.444-2.283.321-3.554-.771-3.554-4.063 0-2.537.756-6.439.756-10.004 0-9.378-6.609-16.074-17.785-14.5-7.879 1.108-15.485 5.202-22.094 10.951 17.013-24.954 24.635-54.164 24.635-75.216 0-24.602-10.661-35.537-26.163-33.37-41.326 5.782-57.053 92.769-58.324 138.471-5.692 8.414-13.346 17.118-27.256 19.061-8.12 1.14-11.931-3.661-11.931-9.748 0-6.086 4.31-10.742 7.107-11.144 1.27-.177 2.798.112 2.798 3.164 0 1.782-1.013 2.938-1.013 5.475 0 3.806 3.554 5.091 8.378 4.416 10.42-1.461 18.026-10.389 18.026-19.767 0-11.915-9.648-19.961-26.919-17.536C20.738 205.355.925 231.964.925 257.833c0 20.796 12.945 36.742 38.352 33.193 19.023-2.666 33.705-13.842 43.868-27.685 4.31 13.843 12.784 19.768 26.227 17.873 12.446-1.734 19.055-8.752 19.055-18.643 0-20.041 6.095-31.796 9.15-32.213.756-.113 1.527.289 1.527 1.557 0 3.051-2.798 7.997-2.798 19.415 0 15.223 10.919 24.601 27.691 22.257 17.978-2.506 29.588-17.07 36.856-32.599 11.047 16.91 30.376 23.959 53.307 20.764 25.101-3.517 44.768-17.953 58.452-37.352 2.991-.658 5.934-1.557 7.429-2.039a36.449 36.449 0 0 0 7.574-3.356c-2.026 18.418-3.007 38.989-3.007 51.916 0 23.846 10.163 31.04 24.378 29.049 16.514-2.312 29.716-12.525 29.716-22.915 0-2.794-5.338-12.445-5.338-38.315 4.068 1.975 9.648 2.714 15.743 1.863 17.431-2.441 31.871-16.412 39.445-33.626 3.232 16.267 15.839 27.427 37.499 24.392 19.023-2.665 33.705-13.842 43.868-27.684 4.309 13.842 12.784 19.768 26.227 17.873 12.446-1.734 19.055-8.752 19.055-18.644 0-20.04 6.095-31.795 9.15-32.213.756-.112 1.528.289 1.528 1.558 0 3.051-2.798 7.997-2.798 19.414 0 15.224 10.918 24.602 27.69 22.257 17.978-2.505 29.588-17.07 36.856-32.598 11.048 16.909 30.376 23.959 53.307 20.763 25.101-3.516 44.768-17.953 58.452-37.351 2.991-.659 5.934-1.558 7.429-2.04a36.449 36.449 0 0 0 7.574-3.356c-2.026 18.419-3.007 38.99-3.007 51.917 0 23.846 10.163 31.04 24.378 29.049 16.515-2.313 29.717-12.526 29.717-22.915 0-2.794-5.339-12.445-5.339-38.315 4.068 1.975 9.648 2.714 15.743 1.863 25.905-3.614 45.202-32.695 45.202-60.09 0-18.259-8.893-31.731-27.932-29.066v.016Zm-713.359 98.18c.756-13.296 2.798-28.294 6.094-38.138 2.027-6.632 4.326-9.474 6.095-9.731 2.283-.321 3.296 2.071 3.296 5.62 0 9.635-7.879 30.013-15.485 42.233v.016Zm144 14.116c-10.163 1.413-17.528-6.167-17.528-24.682 0-25.356 14.216-50.937 29.974-53.137 9.391-1.316 15.743 6.167 15.743 25.453 0 26.624-12.189 50.15-28.189 52.382v-.016Zm123.53-6.873c-2.798.385-6.095-.675-8.121-2.923 3.055-8.8 8.121-15.079 13.459-15.833 3.811-.53 5.58 2.264 5.58 5.556 0 6.086-5.58 12.445-10.918 13.2Zm159.244-66.899c.756-13.296 2.798-28.295 6.095-38.138 2.026-6.632 4.325-9.475 6.094-9.732 2.284-.32 3.297 2.072 3.297 5.62 0 9.636-7.88 30.014-15.486 42.234v.016Zm144 14.115c-10.163 1.413-17.527-6.166-17.527-24.681 0-25.356 14.215-50.937 29.974-53.137 9.39-1.317 15.742 6.166 15.742 25.452 0 26.625-12.189 50.15-28.189 52.382v-.016Zm123.53-6.873c-2.798.386-6.095-.674-8.121-2.922 3.056-8.8 8.121-15.079 13.46-15.834 3.811-.53 5.579 2.264 5.579 5.556 0 6.086-5.579 12.446-10.918 13.2Z"/>
  </g>
  <defs><clipPath id="a"><path fill="#fff" d="M.922.297h860.157v300H.92z"/></clipPath></defs>
</svg>
