<svg viewBox="0 0 862 301" width="862" height="301" fill="none" xmlns="http://www.w3.org/2000/svg">
  <g fill="#fff" clip-path="url(#a)">
    <path d="M185.595 14.216c-5.307.594-9.247 2.12-11.835 4.593-2.589 2.473-3.892 5.411-3.892 8.816 0 1.124.177 2.007.531 2.65h.273c.531-2.827 2.267-4.24 5.21-4.24 1.705 0 3.104.482 4.197 1.461 1.094.964 1.64 2.345 1.64 4.095 0 2.007-.691 3.533-2.074 4.593s-3.28 1.59-5.693 1.59c-3.296 0-5.885-.948-7.766-2.875-1.882-1.91-2.831-4.432-2.831-7.547 0-5.3 1.93-9.732 5.789-13.329 3.86-3.58 9.343-5.765 16.483-6.535V14.2l-.032.016Zm23.767 0c-5.307.594-9.247 2.12-11.836 4.593-2.589 2.473-3.891 5.411-3.891 8.816 0 1.124.177 2.007.531 2.65h.273c.531-2.827 2.267-4.24 5.21-4.24 1.704 0 3.103.482 4.197 1.461 1.093.964 1.64 2.345 1.64 4.095 0 2.007-.691 3.533-2.074 4.593s-3.281 1.59-5.693 1.59c-3.296 0-5.885-.948-7.767-2.875-1.881-1.91-2.83-4.432-2.83-7.547 0-5.3 1.93-9.732 5.789-13.329 3.86-3.58 9.343-5.765 16.483-6.535V14.2l-.032.016ZM255.6 14.748c4.036 4.818 6.046 12.349 6.046 22.594 0 10.245-2.01 17.76-6.046 22.594-4.037 4.817-9.729 7.242-17.094 7.242-7.365 0-13.057-2.425-17.093-7.274-4.037-4.85-6.047-12.365-6.047-22.546 0-10.18 2.01-17.76 6.047-22.594 4.036-4.817 9.728-7.226 17.093-7.226s13.057 2.409 17.094 7.226v-.016Zm-28.012 5.428c-2.38 3.388-3.586 9.105-3.586 17.166 0 4.593.385 8.318 1.141 11.209l24.024-28.584c-2.235-3.228-5.805-4.85-10.693-4.85s-8.523 1.686-10.919 5.075l.033-.016Zm21.821 34.284c2.379-3.404 3.586-9.121 3.586-17.118 0-5.17-.467-9.298-1.416-12.349L227.282 53.93c2.235 3.758 5.982 5.653 11.224 5.653 4.889 0 8.523-1.703 10.919-5.123h-.016ZM267.664 31.08c5.355-.594 9.326-2.103 11.883-4.544 2.557-2.44 3.843-5.396 3.843-8.864 0-1.06-.144-1.943-.434-2.65h-.273c-.29 1.35-.885 2.393-1.769 3.132-.884.738-2.058 1.108-3.538 1.108-1.704 0-3.103-.498-4.197-1.494-1.093-.995-1.64-2.376-1.64-4.143 0-2.007.708-3.517 2.123-4.544 1.415-1.028 3.328-1.542 5.74-1.542 3.297 0 5.886.964 7.767 2.875 1.882 1.91 2.83 4.4 2.83 7.45 0 5.348-1.945 9.828-5.837 13.41-3.891 3.58-9.391 5.764-16.514 6.535v-6.712l.016-.017Zm23.767 0c5.354-.594 9.326-2.103 11.883-4.544 2.557-2.44 3.843-5.396 3.843-8.864 0-1.06-.144-1.943-.434-2.65h-.273c-.29 1.35-.885 2.393-1.769 3.132-.885.738-2.058 1.108-3.538 1.108-1.704 0-3.103-.498-4.197-1.494-1.093-.995-1.64-2.376-1.64-4.143 0-2.007.708-3.517 2.123-4.544 1.415-1.028 3.328-1.542 5.74-1.542 3.297 0 5.886.964 7.767 2.875 1.882 1.91 2.83 4.4 2.83 7.45 0 5.348-1.945 9.828-5.837 13.41-3.891 3.58-9.391 5.764-16.514 6.535v-6.712l.016-.017ZM414.269 27.72c3.216 4.064 4.808 9.443 4.808 16.14 0 4.769-.82 8.912-2.476 12.444-1.657 3.533-3.892 6.215-6.722 8.078-2.83 1.846-6.014 2.778-9.536 2.778-3.296 0-6.11-.61-8.442-1.847-2.332-1.236-3.875-3.436-4.631-6.616h-.531l-1.945 7.756h-5.564V.277h8.651V21.01l-.611 8.912h.354c.949-3.051 2.492-5.203 4.631-6.44 2.155-1.236 4.985-1.846 8.523-1.846 5.772 0 10.259 2.023 13.475 6.086h.016Zm-6.979 27.701c2.091-2.762 3.136-6.584 3.136-11.465 0-4.593-1.029-8.19-3.088-10.807-2.058-2.618-4.888-3.919-8.474-3.919-2.589 0-4.824.546-6.722 1.638-1.881 1.092-3.296 2.666-4.245 4.721v16.492c2.058 4.994 5.741 7.5 11.047 7.5 3.474 0 6.256-1.382 8.346-4.144v-.016ZM475.817 22.335l-15.646 42.266c-1.882 5.299-3.667 9.41-5.339 12.348-1.672 2.939-3.65 5.139-5.918 6.568-2.267 1.445-5.145 2.168-8.619 2.168-2.766 0-5.692-.418-8.747-1.236l-.081-7.676c1.303.417 2.686.738 4.149.963 1.479.241 2.798.353 3.972.353 1.833 0 3.328-.337 4.502-1.011 1.174-.675 2.252-1.847 3.216-3.485.965-1.654 2.043-4.03 3.233-7.146h-4.503L433.14 29.915h-7.767v-7.596h14.231l12.72 36.436h1.061l13.25-36.436h9.182v.016Z"/>
  </g>
  <defs><clipPath id="a"><path fill="#fff" d="M.922.297h860.157v300H.92z"/></clipPath></defs>
</svg>
