<svg width="2000" height="2000" viewBox="0 0 2000 2000" fill="none" xmlns="http://www.w3.org/2000/svg">
<mask id="mask0_198_346" style="mask-type:luminance" maskUnits="userSpaceOnUse" x="0" y="0" width="2000" height="2000">
<path d="M2000 0H0V2000H2000V0Z" fill="white"/>
</mask>
<g mask="url(#mask0_198_346)">
<path d="M1720.31 1582.66C1866.72 1538.22 1882.82 1531.43 1889.98 1540.52C1894.29 1545.99 1902.68 1570.65 1889.84 1572.78L1724.96 1613.03" fill="#2D1FC3"/>
<path d="M1720.31 1582.66C1866.72 1538.22 1882.82 1531.43 1889.98 1540.52C1894.29 1545.99 1902.68 1570.65 1889.84 1572.78L1724.96 1613.03" stroke="black" stroke-width="18.34" stroke-linecap="round" stroke-linejoin="round"/>
<path d="M1742.1 2257.24C1749.23 2136.03 1751.57 1976.67 1745.32 1818.41C1744.29 1792.36 1732.38 1604.47 1697.68 1472.23" stroke="black" stroke-width="18.34" stroke-linecap="round" stroke-linejoin="round"/>
<path d="M1437.64 1470.03C1358.26 1463.82 1286.2 1461.59 1280.5 1499.65C1274.57 1538.86 1258.43 1621.25 1193.62 1713.53C1174.96 1826.53 1154.55 1977.5 1157.99 2082.5C1161.43 2187.5 1400.12 2233.17 1400.67 2227.73C1401.21 2222.29 1755.71 2123.34 1754.62 2120.62C1753.53 2117.9 1758.41 1935.71 1758.41 1935.71C1758.41 1935.71 1756.69 1765.59 1747.22 1742.73C1737.76 1719.87 1713.83 1727.6 1701.49 1685.31C1689.15 1643.01 1695.35 1512.67 1437.63 1470.03H1437.64Z" fill="url(#paint0_linear_198_346)"/>
<path d="M1470.16 1483.22C1517.87 1485.26 1643.02 1532.74 1668.12 1583.42C1693.22 1634.1 1696.86 1610.2 1652.43 1615.62C1607.99 1621.05 1577.82 1690.78 1569.25 1626.76C1560.69 1562.74 1526.43 1504.01 1470.16 1483.22Z" fill="#2D1FC3"/>
<path style="mix-blend-mode:multiply" d="M1720.49 1880.78C1716.15 1930.95 1704.9 2118.14 1704.9 2118.14C1704.9 2118.14 1756.61 2054.74 1756.61 2051.39C1756.61 2048.04 1755.41 1834.5 1755.41 1834.5C1755.41 1834.5 1768.84 1752.95 1727.51 1724.97C1687.29 1686.93 1700.3 1608.07 1652.43 1615.64C1712.17 1807.28 1732.44 1742.51 1720.49 1880.79V1880.78Z" fill="url(#paint1_linear_198_346)"/>
<path d="M1157.99 2082.51C1151.59 1962.99 1181.27 1778.52 1190.6 1724.36C1192.28 1714.59 1196.57 1705.51 1202.79 1697.8C1253.37 1635.1 1275.68 1552.68 1280.5 1499.66C1281.54 1488.2 1289.91 1478.79 1301.2 1476.58C1423.52 1452.56 1666.75 1492.4 1687.25 1634.75C1701.36 1697.68 1715.85 1719.74 1727.52 1724.97C1742.92 1731.88 1752.83 1747.18 1753.33 1764.05L1761.11 2026.29L1253 2146.41L1158 2082.51H1157.99Z" stroke="black" stroke-width="18.34" stroke-linecap="round" stroke-linejoin="round"/>
<path d="M1351.09 1211.94C1358.03 1208.32 1366.21 1213.86 1365.39 1221.65C1359.66 1276.02 1344.25 1437.71 1355.48 1507.9C1358.88 1548.72 1316.36 1566.87 1312.96 1483.81C1309.7 1404.14 1322.08 1272.57 1327.6 1228.94C1328 1225.76 1329.95 1222.98 1332.79 1221.49L1351.09 1211.94Z" fill="#FF0036" stroke="black" stroke-width="18.34" stroke-linecap="round" stroke-linejoin="round"/>
<path d="M1340.8 1572.58C1358.5 1572.58 1372.86 1558.23 1372.86 1540.52C1372.86 1522.81 1358.5 1508.46 1340.8 1508.46C1323.09 1508.46 1308.74 1522.81 1308.74 1540.52C1308.74 1558.23 1323.09 1572.58 1340.8 1572.58Z" fill="#2D1FC3" stroke="black" stroke-width="18.34" stroke-linecap="round" stroke-linejoin="round"/>
<path d="M1407.34 1470.96C1552.51 1500.91 1558.05 1577 1569.37 1641.02C1571.2 1651.4 1583.73 1655.79 1591.77 1648.97C1619.54 1625.42 1666.75 1594.48 1687.25 1634.73" stroke="black" stroke-width="18.34" stroke-linecap="round" stroke-linejoin="round"/>
<path d="M1464.55 1257.37C1498.53 1273.3 1504.64 1277.18 1504.64 1277.18L1464.55 1257.37Z" fill="#FF0036"/>
<path d="M1464.55 1257.37C1498.53 1273.3 1504.64 1277.18 1504.64 1277.18" stroke="black" stroke-width="18.34" stroke-linecap="round" stroke-linejoin="round"/>
<path d="M1463.42 1274.45C1498.71 1261.69 1505.78 1260.11 1505.78 1260.11L1463.42 1274.45Z" fill="#FF0036"/>
<path d="M1463.42 1274.45C1498.71 1261.69 1505.78 1260.11 1505.78 1260.11" stroke="black" stroke-width="18.34" stroke-linecap="round" stroke-linejoin="round"/>
<path d="M1207.23 1966C1278.12 1954.61 1301.27 1851.48 1301.27 1851.48" stroke="black" stroke-width="18.34" stroke-linecap="round" stroke-linejoin="round"/>
<path d="M1686.89 1955.88C1636.9 1953.09 1617.15 1868.94 1617.15 1868.94" stroke="black" stroke-width="18.34" stroke-linecap="round" stroke-linejoin="round"/>
</g>
<defs>
<linearGradient id="paint0_linear_198_346" x1="1157.61" y1="1847.33" x2="1758.41" y2="1847.33" gradientUnits="userSpaceOnUse">
<stop stop-color="#2D1FC3"/>
<stop offset="1" stop-color="#FF0036"/>
</linearGradient>
<linearGradient id="paint1_linear_198_346" x1="1704.96" y1="2118.14" x2="1704.96" y2="1615.12" gradientUnits="userSpaceOnUse">
<stop stop-color="#2D1FC3"/>
<stop offset="1" stop-color="#FF0036"/>
</linearGradient>
</defs>
</svg>
