<svg width="2000" height="2000" viewBox="0 0 2000 2000" fill="none" xmlns="http://www.w3.org/2000/svg">
<g clip-path="url(#clip0_2_943)">
<mask id="mask0_2_943" style="mask-type:luminance" maskUnits="userSpaceOnUse" x="0" y="0" width="2000" height="2000">
<path d="M2000 0H0V2000H2000V0Z" fill="white"/>
</mask>
<g mask="url(#mask0_2_943)">
<path d="M1385.84 1442.67C1390.15 1417.69 1392.37 1415.69 1426.78 1414.34C1461.19 1412.99 1566.75 1404.35 1567.71 1442.67C1568.67 1480.99 1578.46 1471.48 1513.66 1465.44C1448.87 1459.41 1378.63 1478.08 1381.58 1463.81C1384.52 1449.53 1385.85 1442.67 1385.85 1442.67H1385.84Z" fill="url(#paint0_linear_2_943)"/>
<path d="M1385.84 1442.67C1390.15 1417.69 1392.37 1415.69 1426.78 1414.34C1461.19 1412.99 1566.75 1404.35 1567.71 1442.67C1568.67 1480.99 1578.46 1471.48 1513.66 1465.44C1448.87 1459.41 1378.63 1478.08 1381.58 1463.81C1384.52 1449.53 1385.85 1442.67 1385.85 1442.67H1385.84Z" fill="url(#paint1_linear_2_943)"/>
<path d="M1190.25 1750.33C1189.08 1743.07 1188.6 1735.14 1188.6 1727.03C1188.56 1690.67 1198.07 1650.68 1198.07 1650.68C1198.07 1650.68 1316.57 1542.16 1323.69 1236.77C1339.72 1223.78 1363.97 1218.5 1381.07 1216.33C1392.85 1214.86 1401.25 1214.86 1401.25 1214.86C1401.25 1214.86 1430.42 1644.47 1190.26 1750.32L1190.25 1750.33Z" fill="url(#paint2_linear_2_943)"/>
<path d="M1190.25 1750.33C1189.08 1743.07 1188.6 1735.14 1188.6 1727.03C1363.01 1588.94 1373.32 1392.58 1381.07 1216.34C1392.85 1214.87 1401.25 1214.87 1401.25 1214.87C1401.25 1214.87 1430.42 1644.48 1190.26 1750.33H1190.25Z" fill="url(#paint3_linear_2_943)"/>
<path d="M1190.25 1750.33C1189.08 1743.07 1188.6 1735.14 1188.6 1727.03C1188.56 1690.67 1198.07 1650.68 1198.07 1650.68C1198.07 1650.68 1316.57 1542.16 1323.69 1236.77C1339.72 1223.78 1363.97 1218.5 1381.07 1216.33C1392.85 1214.86 1401.25 1214.86 1401.25 1214.86C1401.25 1214.86 1430.42 1644.47 1190.26 1750.32L1190.25 1750.33Z" stroke="black" stroke-width="18.34" stroke-linecap="round" stroke-linejoin="round"/>
<path d="M1753.95 1738.44C1551.62 1660.07 1557.01 1413.61 1565.45 1209.07C1565.45 1209.07 1589.48 1213.14 1613.55 1219.82C1627.09 1223.56 1640.66 1228.15 1649.94 1233.28C1649.94 1233.28 1615.53 1501.32 1737.18 1644.77C1741.95 1650.38 1744.88 1657.28 1745.73 1664.58L1746.87 1674.93L1753.95 1738.44Z" fill="url(#paint4_linear_2_943)"/>
<path d="M1746.87 1674.93C1621.69 1594.29 1603.64 1394.67 1613.55 1219.82C1627.09 1223.56 1640.66 1228.15 1649.94 1233.28C1649.94 1233.28 1615.53 1501.32 1737.18 1644.77C1741.95 1650.38 1744.88 1657.28 1745.73 1664.58L1746.87 1674.93Z" fill="url(#paint5_linear_2_943)"/>
<path d="M1753.95 1738.44C1551.62 1660.07 1557.01 1413.61 1565.45 1209.07C1565.45 1209.07 1589.48 1213.14 1613.55 1219.82C1627.09 1223.56 1640.66 1228.15 1649.94 1233.28C1649.94 1233.28 1615.53 1501.32 1737.18 1644.77C1741.95 1650.38 1744.88 1657.28 1745.73 1664.58L1746.87 1674.93L1753.95 1738.44Z" stroke="black" stroke-width="18.34" stroke-linecap="round" stroke-linejoin="round"/>
<path d="M1902.69 1647.31L1902.58 1647.13C1872.13 1543.71 1821.46 1403.74 1756.86 1329.08C1734 1302.66 1707.33 1281.5 1678.24 1265.06C1798.25 1275.37 1893.08 1282.56 1897.41 1414.82C1901.7 1547.12 1902.69 1647.31 1902.69 1647.31Z" fill="url(#paint6_linear_2_943)" stroke="black" stroke-width="18.34" stroke-linecap="round" stroke-linejoin="round"/>
<path d="M1390.16 1417.69C1390.16 1417.69 1498.86 1403.27 1566.01 1424.63" stroke="black" stroke-width="18.34" stroke-linecap="round" stroke-linejoin="round"/>
<path d="M1379.36 1473.76C1449.3 1460.74 1501.71 1460.27 1571.65 1473.76" stroke="black" stroke-width="18.34" stroke-linecap="round" stroke-linejoin="round"/>
<path d="M1751.1 1510.88C1749.75 1510.88 1748.4 1510.58 1747.15 1509.98C1744.14 1508.54 1742.15 1505.59 1741.95 1502.26L1740.75 1482.49L1722.19 1470.49C1719.16 1468.53 1717.56 1464.97 1718.11 1461.39C1718.66 1457.82 1721.26 1454.9 1724.74 1453.94L1744.12 1448.6L1748.82 1430.57C1749.69 1427.23 1752.36 1424.67 1755.73 1423.93C1756.38 1423.79 1757.04 1423.72 1757.7 1423.72C1760.41 1423.72 1763.02 1424.92 1764.79 1427.07L1778.69 1443.99L1800.58 1444.17C1804.03 1444.2 1807.17 1446.16 1808.71 1449.24C1810.25 1452.32 1809.93 1456.01 1807.88 1458.79L1796.81 1473.78L1804.84 1492.21C1806.28 1495.52 1805.65 1499.38 1803.21 1502.05C1801.44 1503.99 1798.97 1505.05 1796.43 1505.05C1795.47 1505.05 1794.51 1504.9 1793.57 1504.59L1772.57 1497.7L1756.43 1509.19C1754.85 1510.32 1752.99 1510.89 1751.11 1510.89L1751.1 1510.88Z" fill="url(#paint7_linear_2_943)"/>
<path d="M1757.69 1432.89L1774.31 1453.12L1800.49 1453.33L1786.28 1472.58L1796.42 1495.86L1771.01 1487.52L1751.09 1501.7L1749.6 1477.3L1727.15 1462.78L1751.64 1456.04L1757.68 1432.89M1757.68 1414.55C1756.37 1414.55 1755.05 1414.69 1753.74 1414.98C1747 1416.46 1741.67 1421.59 1739.93 1428.27L1736.56 1441.18L1722.28 1445.11C1715.31 1447.03 1710.12 1452.86 1709.02 1460C1707.92 1467.14 1711.12 1474.27 1717.19 1478.19L1731.86 1487.68L1732.78 1502.83C1733.19 1509.48 1737.17 1515.39 1743.18 1518.27C1745.69 1519.47 1748.4 1520.06 1751.09 1520.06C1754.84 1520.06 1758.57 1518.91 1761.73 1516.66L1774.09 1507.86L1790.69 1513.31C1792.57 1513.93 1794.5 1514.23 1796.41 1514.23C1801.49 1514.23 1806.44 1512.12 1809.98 1508.23C1814.85 1502.89 1816.12 1495.18 1813.23 1488.56L1807.32 1474.98L1815.25 1464.25C1819.35 1458.7 1819.99 1451.33 1816.9 1445.16C1813.82 1438.99 1807.54 1435.07 1800.64 1435.01L1783.04 1434.87L1771.87 1421.27C1768.34 1416.98 1763.12 1414.57 1757.7 1414.57L1757.68 1414.55Z" fill="black"/>
</g>
</g>
<defs>
<linearGradient id="paint0_linear_2_943" x1="1381.49" y1="1441.83" x2="1568.78" y2="1441.83" gradientUnits="userSpaceOnUse">
<stop stop-color="#8CE9CD"/>
<stop offset="1" stop-color="#00D7AD"/>
</linearGradient>
<linearGradient id="paint1_linear_2_943" x1="1548.93" y1="1405.53" x2="1397.4" y2="1493.02" gradientUnits="userSpaceOnUse">
<stop stop-color="#8CE9CD"/>
<stop offset="1" stop-color="#00D7AD"/>
</linearGradient>
<linearGradient id="paint2_linear_2_943" x1="1188.6" y1="1482.6" x2="1402.35" y2="1482.6" gradientUnits="userSpaceOnUse">
<stop stop-color="#8CE9CD"/>
<stop offset="1" stop-color="#00D7AD"/>
</linearGradient>
<linearGradient id="paint3_linear_2_943" x1="1488.96" y1="1366.81" x2="1098.86" y2="1592.04" gradientUnits="userSpaceOnUse">
<stop stop-color="#8CE9CD"/>
<stop offset="1" stop-color="#00D7AD"/>
</linearGradient>
<linearGradient id="paint4_linear_2_943" x1="1562.38" y1="1473.76" x2="1753.95" y2="1473.76" gradientUnits="userSpaceOnUse">
<stop stop-color="#8CE9CD"/>
<stop offset="1" stop-color="#00D7AD"/>
</linearGradient>
<linearGradient id="paint5_linear_2_943" x1="1750.22" y1="1406.96" x2="1610.27" y2="1487.76" gradientUnits="userSpaceOnUse">
<stop stop-color="#8CE9CD"/>
<stop offset="1" stop-color="#00D7AD"/>
</linearGradient>
<linearGradient id="paint6_linear_2_943" x1="1678.23" y1="1456.18" x2="1902.69" y2="1456.18" gradientUnits="userSpaceOnUse">
<stop stop-color="#F86E00"/>
<stop offset="1" stop-color="#FF00A8"/>
</linearGradient>
<linearGradient id="paint7_linear_2_943" x1="1675.47" y1="1398.44" x2="1663.12" y2="1308.88" gradientUnits="userSpaceOnUse">
<stop stop-color="#00EEC9"/>
<stop offset="1" stop-color="#FFC700"/>
</linearGradient>
<clipPath id="clip0_2_943">
<rect width="2000" height="2000" fill="white"/>
</clipPath>
</defs>
</svg>
