<svg width="2000" height="2000" viewBox="0 0 2000 2000" fill="none" xmlns="http://www.w3.org/2000/svg">
<g clip-path="url(#clip0_510_79)">
<mask id="mask0_510_79" style="mask-type:luminance" maskUnits="userSpaceOnUse" x="0" y="0" width="2000" height="2000">
<path d="M2000 0H0V2000H2000V0Z" fill="white"/>
</mask>
<g mask="url(#mask0_510_79)">
<path d="M1969.35 1710.28C1961.76 1634.52 1937.14 1477.17 1840.21 1368.06C1793.54 1315.63 1757.04 1281.29 1692.5 1248.71C1690.7 1247.79 1674.89 1233.37 1672.84 1232.49C1672.91 1157.46 1486.91 1150.53 1353.91 1193.09C1334.25 1244.71 1303.5 1248.71 1285.67 1261.77C1219.85 1310.05 1168.45 1348.17 1112.58 1446.38C1024.71 1600.95 1033.3 1695.38 1071.2 1706.02L1089.4 1683.27C1089.4 1683.27 1170.04 1721.79 1193.3 1772.09C1166.04 2068.6 1127.81 2353.52 1154.45 2389C1181.67 2425.36 1701.21 2428.37 1742.12 2257.22C1749.86 2125.55 1751.95 1948.9 1743.55 1777.49C1899.66 1736.36 1934.51 1772.46 1934.51 1772.46L1940.05 1808.45C1941.48 1807.97 1942.88 1807.46 1944.23 1806.87C1963.38 1798.87 1976.4 1781.01 1969.36 1710.27L1969.35 1710.28ZM1609.7 1261.89C1569.74 1360.59 1558.83 1286.35 1526.92 1333.9C1494.6 1407.86 1484.06 1508.23 1475.99 1438.52C1467.88 1368.81 1448.42 1347.52 1426 1318.21C1392.42 1315.55 1384.63 1250.11 1411.12 1244.24C1419.3 1241.78 1427.63 1239.69 1427.63 1239.69C1490.26 1223.84 1620.57 1232.24 1609.71 1261.89H1609.7Z" fill="url(#paint0_linear_510_79)"/>
<path style="mix-blend-mode:multiply" d="M1944.22 1806.9C1940.88 1657.95 1929.73 1409.38 1686.71 1246.05C1688.76 1246.93 1690.71 1247.81 1692.51 1248.73C1757.04 1281.31 1793.55 1315.65 1840.22 1368.08C1937.15 1477.19 1961.77 1634.54 1969.36 1710.3C1976.4 1781.03 1963.38 1798.9 1944.23 1806.9H1944.22Z" fill="url(#paint1_linear_510_79)"/>
<path style="mix-blend-mode:multiply" d="M1161.95 1732C1161.95 1732 1209.4 1527 1253.57 1489.92C1197.05 1704.06 1193.29 1772.12 1193.29 1772.12L1161.95 1732Z" fill="url(#paint2_linear_510_79)"/>
<path d="M1304.48 1253.19C1236.02 1297.64 1168.44 1348.19 1112.57 1446.4C1024.7 1600.97 1033.29 1695.4 1071.19 1706.04L1089.39 1683.29C1089.39 1683.29 1170.03 1721.81 1193.29 1772.11C1166.03 2068.62 1127.8 2353.54 1154.44 2389.02C1181.66 2425.38 1701.2 2428.39 1742.11 2257.24C1749.85 2125.57 1751.94 1948.92 1743.54 1777.51C1899.65 1736.38 1934.5 1772.48 1934.5 1772.48L1940.04 1808.47C1961.39 1801.17 1976.91 1786.05 1969.35 1710.29C1961.76 1634.53 1937.13 1477.17 1840.2 1368.06C1799.37 1322.19 1762.01 1287.73 1711.14 1258.62" stroke="black" stroke-width="18.34" stroke-linecap="round" stroke-linejoin="round"/>
<path d="M1479.8 1457.72L1473.29 2083.12" stroke="black" stroke-width="18.34" stroke-linecap="round" stroke-linejoin="round"/>
<path d="M1742.1 2257.24C1749.23 2136.03 1751.57 1976.67 1745.32 1818.41C1744.29 1792.36 1732.38 1604.47 1697.68 1472.23" stroke="black" stroke-width="18.34" stroke-linecap="round" stroke-linejoin="round"/>
<path d="M1264.72 1459.49C1239.03 1518.59 1210.47 1668.62 1210.47 1668.62C1199.5 1734.69 1190.72 1801.14 1184.14 1867.79C1158.52 2127.45 1130.68 2357.39 1154.42 2389.03" stroke="black" stroke-width="18.34" stroke-linecap="round" stroke-linejoin="round"/>
<path d="M1372.46 1353.82C1337.45 1485.6 1307.16 1323.63 1301.52 1290.49C1293.49 1250.92 1355.42 1217.24 1330.84 1205.58C1292.49 1210.12 1182.97 1250.49 1225.87 1303.99C1244.33 1331.48 1256.89 1325.49 1243.4 1394.48C1229.91 1463.46 1138.06 1997.4 1143.61 2057.96C1149.16 2118.52 1265.21 1994.82 1318.25 1958.04C1371.29 1921.26 1400.49 1868.71 1453.98 1897.99C1507.47 1927.26 1678.55 2035.26 1678.55 2035.26C1678.55 2035.26 1767.37 2090.27 1769.39 1981.26C1771.41 1872.25 1749.67 1407.37 1746.91 1372.09C1744.15 1336.81 1747.76 1335.86 1782.29 1304.79C1804.2 1278.77 1765.53 1254.99 1753.1 1247.47C1740.67 1239.95 1683.9 1199.39 1666.07 1216.58C1660.17 1231.94 1720.77 1248.55 1709.81 1266.73C1697.67 1286.86 1664.73 1351.77 1604.06 1415.29C1598.8 1400.05 1584.76 1349.13 1584.76 1349.13C1584.76 1349.13 1517.06 1454.84 1482.23 1495.98C1443.57 1451.58 1372.45 1353.84 1372.45 1353.84L1372.46 1353.82Z" fill="url(#paint3_linear_510_79)"/>
<mask id="mask1_510_79" style="mask-type:luminance" maskUnits="userSpaceOnUse" x="0" y="0" width="2000" height="2000">
<path d="M2000 0H0V2000H2000V0Z" fill="white"/>
</mask>
<g mask="url(#mask1_510_79)">
<path d="M1424.93 1885.05C1424.93 1885.05 1193.32 2038.36 1158.35 2085.31C1105.91 2155.72 1252.58 1342.85 1252.58 1342.85L1217.33 1294.17C1196.72 1231.52 1343.77 1206.72 1343.77 1206.72" stroke="black" stroke-width="18.34" stroke-linecap="round" stroke-linejoin="round"/>
<path d="M1585.97 1351.82L1444.92 1547.83C1440.5 1553.97 1437.98 1561.28 1437.67 1568.84L1424.92 1885.05C1424.92 1885.05 1724.71 2052.18 1751.51 2088.15C1794.25 2145.51 1745.19 1342.99 1745.19 1342.99L1782.73 1304.33C1792.19 1294.59 1792.03 1279.05 1782.35 1269.53C1750.52 1238.2 1662.93 1201.46 1662.93 1201.46" stroke="black" stroke-width="18.34" stroke-linecap="round" stroke-linejoin="round"/>
<path d="M1482.24 1495.96L1372.46 1353.82" stroke="black" stroke-width="18.34" stroke-linecap="round" stroke-linejoin="round"/>
</g>
<path d="M1479.8 1457.72C1514.09 1319.16 1553.46 1292.44 1572.96 1325.98C1599.6 1371.82 1604.08 1415.28 1604.08 1415.28C1604.08 1415.28 1708.56 1304.81 1711.14 1258.63C1693.12 1238.2 1671.1 1254.94 1662.95 1201.48C1659.28 1177.41 1556.1 1168.51 1485.13 1168.51C1414.16 1168.51 1356.53 1182.08 1346.45 1201.12C1334.52 1223.66 1339.32 1242.4 1309.6 1246.68C1292.2 1272.99 1301.92 1385.42 1348.75 1409.64C1348.75 1409.64 1424.83 1166.76 1479.81 1457.72" stroke="black" stroke-width="18.34" stroke-linecap="round" stroke-linejoin="round"/>
<path d="M1374.34 1224.43C1453.44 1179.9 1584.52 1190.27 1639.46 1218.7" stroke="black" stroke-width="18.34" stroke-linecap="round" stroke-linejoin="round"/>
<path d="M1572.95 1325.98C1601.91 1312.92 1620.75 1221.71 1621.85 1211.34" stroke="black" stroke-width="18.34" stroke-linecap="round" stroke-linejoin="round"/>
<path d="M1404.31 1310.37C1404.31 1310.37 1384.29 1248 1403.13 1211.33" stroke="black" stroke-width="18.34" stroke-linecap="round" stroke-linejoin="round"/>
<path d="M1395.05 1250.92C1443.41 1225.67 1548.83 1229.5 1612.62 1245.53" stroke="black" stroke-width="18.34" stroke-linecap="round" stroke-linejoin="round"/>
<path d="M1495.35 1620.64C1494.93 1620.64 1494.51 1620.63 1494.08 1620.61C1487.23 1620.27 1480.91 1617.29 1476.3 1612.21C1471.69 1607.13 1469.34 1600.55 1469.67 1593.7C1470.34 1580 1481.61 1569.26 1495.32 1569.26C1495.74 1569.26 1496.16 1569.27 1496.59 1569.29C1503.44 1569.63 1509.76 1572.61 1514.37 1577.69C1518.98 1582.77 1521.33 1589.35 1521 1596.2C1520.33 1609.9 1509.06 1620.63 1495.35 1620.63V1620.64Z" fill="#FFC600"/>
<path d="M1495.33 1578.43C1495.6 1578.43 1495.88 1578.43 1496.15 1578.45C1505.26 1578.9 1512.29 1586.65 1511.84 1595.76C1511.41 1604.6 1504.11 1611.47 1495.35 1611.47C1495.08 1611.47 1494.8 1611.47 1494.53 1611.45C1485.42 1611 1478.39 1603.25 1478.84 1594.14C1479.27 1585.3 1486.57 1578.43 1495.33 1578.43ZM1495.33 1560.08C1476.72 1560.08 1461.43 1574.64 1460.52 1593.24C1459.58 1612.44 1474.44 1628.83 1493.64 1629.77C1494.21 1629.8 1494.79 1629.81 1495.36 1629.81C1513.97 1629.81 1529.26 1615.25 1530.17 1596.65C1531.11 1577.45 1516.25 1561.06 1497.05 1560.12C1496.48 1560.09 1495.9 1560.08 1495.33 1560.08Z" fill="black"/>
<path d="M1489.81 1733.89C1489.39 1733.89 1488.97 1733.88 1488.54 1733.86C1481.69 1733.52 1475.37 1730.54 1470.76 1725.46C1466.15 1720.38 1463.8 1713.8 1464.13 1706.95C1464.8 1693.25 1476.07 1682.52 1489.78 1682.52C1490.2 1682.52 1490.63 1682.53 1491.05 1682.55C1497.9 1682.89 1504.22 1685.87 1508.83 1690.95C1513.44 1696.03 1515.79 1702.61 1515.46 1709.46C1514.79 1723.16 1503.52 1733.9 1489.81 1733.9V1733.89Z" fill="#FFC600"/>
<path d="M1489.78 1691.67C1490.05 1691.67 1490.33 1691.67 1490.6 1691.69C1499.71 1692.14 1506.74 1699.89 1506.29 1709C1505.86 1717.84 1498.56 1724.71 1489.8 1724.71C1489.53 1724.71 1489.25 1724.71 1488.98 1724.69C1479.87 1724.24 1472.84 1716.49 1473.29 1707.38C1473.72 1698.54 1481.02 1691.67 1489.78 1691.67ZM1489.78 1673.33C1471.17 1673.33 1455.88 1687.9 1454.97 1706.49C1454.03 1725.69 1468.89 1742.08 1488.09 1743.02C1488.66 1743.05 1489.24 1743.06 1489.81 1743.06C1508.42 1743.06 1523.71 1728.5 1524.62 1709.9C1525.56 1690.7 1510.7 1674.31 1491.5 1673.37C1490.93 1673.34 1490.35 1673.33 1489.78 1673.33Z" fill="black"/>
<path d="M1484.26 1847.13C1483.84 1847.13 1483.41 1847.12 1482.99 1847.1C1468.84 1846.41 1457.89 1834.33 1458.59 1820.18C1459.26 1806.48 1470.53 1795.74 1484.24 1795.74C1484.66 1795.74 1485.08 1795.75 1485.51 1795.77C1492.36 1796.11 1498.68 1799.09 1503.29 1804.17C1507.9 1809.25 1510.25 1815.83 1509.92 1822.68C1509.25 1836.38 1497.98 1847.12 1484.27 1847.12L1484.26 1847.13Z" fill="#FFC600"/>
<path d="M1484.23 1804.92C1484.5 1804.92 1484.78 1804.92 1485.05 1804.94C1494.16 1805.39 1501.19 1813.14 1500.74 1822.25C1500.31 1831.09 1493.01 1837.96 1484.25 1837.96C1483.98 1837.96 1483.7 1837.96 1483.43 1837.94C1474.32 1837.49 1467.29 1829.74 1467.74 1820.63C1468.17 1811.79 1475.47 1804.92 1484.23 1804.92ZM1484.23 1786.58C1465.62 1786.58 1450.33 1801.15 1449.42 1819.74C1448.48 1838.94 1463.34 1855.33 1482.54 1856.27C1483.11 1856.3 1483.69 1856.31 1484.26 1856.31C1502.87 1856.31 1518.16 1841.75 1519.07 1823.15C1520.01 1803.95 1505.15 1787.56 1485.95 1786.62C1485.38 1786.59 1484.8 1786.58 1484.23 1786.58Z" fill="black"/>
</g>
</g>
<defs>
<linearGradient id="paint0_linear_510_79" x1="1043.9" y1="1788.02" x2="1971.29" y2="1788.02" gradientUnits="userSpaceOnUse">
<stop stop-color="#E87600"/>
<stop offset="1" stop-color="#FF00A6"/>
</linearGradient>
<linearGradient id="paint1_linear_510_79" x1="1686.71" y1="1526.47" x2="1971.29" y2="1526.47" gradientUnits="userSpaceOnUse">
<stop stop-color="#E87600"/>
<stop offset="1" stop-color="#FF00A6"/>
</linearGradient>
<linearGradient id="paint2_linear_510_79" x1="1161.95" y1="1631.01" x2="1253.57" y2="1631.01" gradientUnits="userSpaceOnUse">
<stop stop-color="#E87600"/>
<stop offset="1" stop-color="#FF00A6"/>
</linearGradient>
<linearGradient id="paint3_linear_510_79" x1="1143.37" y1="1639.99" x2="1788.9" y2="1639.99" gradientUnits="userSpaceOnUse">
<stop stop-color="#4A40FF"/>
<stop offset="1" stop-color="#39FD87"/>
</linearGradient>
<clipPath id="clip0_510_79">
<rect width="2000" height="2000" fill="white"/>
</clipPath>
</defs>
</svg>
