<svg width="2000" height="2000" viewBox="0 0 2000 2000" fill="none" xmlns="http://www.w3.org/2000/svg">
<mask id="mask0_636_115" style="mask-type:luminance" maskUnits="userSpaceOnUse" x="0" y="0" width="2000" height="2000">
<path d="M2000 0H0V2000H2000V0Z" fill="white"/>
</mask>
<g mask="url(#mask0_636_115)">
<path d="M1782.36 1346.16C1782.14 1347.81 1781.88 1349.21 1781.59 1350.38C1779.98 1356.69 1777.22 1356.73 1773.7 1353.68C1773.66 1352.4 1773.59 1351.11 1773.48 1349.83C1773.44 1349.02 1773.41 1348.25 1773.33 1347.44L1773.22 1346.23C1773.18 1345.5 1773.11 1344.76 1773.04 1344.03C1772.86 1342.05 1772.67 1340.1 1772.42 1338.12V1338.08C1769.19 1333.93 1765.93 1329.97 1762.62 1326.16C1757.34 1320.07 1751.83 1314.24 1746.11 1308.62C1745.85 1309.28 1743.69 1309.26 1743.39 1310.03C1743.1 1310.76 1737.38 1321.86 1735.28 1323.73C1733.26 1325.46 1731.32 1328.32 1729.48 1332.5C1712.79 1370.33 1716.05 1485.93 1722.25 1553.32V1553.36C1722.98 1561.47 1723.75 1568.92 1724.56 1575.41C1763.96 1703.63 1760.07 1904.72 1762.13 2030.27C1763.93 2141.69 1277.41 2117.51 1168.19 2110.65C1159.64 2110.14 1153.37 2109.7 1149.88 2109.48C1147.72 2109.3 1146.61 2109.22 1146.61 2109.22C1146.61 2109.22 1152.37 2065.93 1160.19 2005.03C1163.12 1982.25 1166.35 1956.97 1169.65 1930.59C1177.83 1865.4 1186.64 1793.34 1193.17 1734.68C1205.24 1681.12 1220.87 1609.02 1234.08 1542.29C1246.37 1480.4 1256.61 1423.05 1259.98 1389.45C1264.24 1347.81 1261.45 1326.97 1254.44 1321.36C1253.01 1320.22 1247.14 1307.68 1245.71 1304.12C1236.35 1313.33 1227.44 1323.56 1218.93 1334.53V1334.57C1217.72 1338.27 1211.15 1338.89 1210.05 1343.21C1207.45 1344.6 1209.57 1336.51 1214.45 1322.64C1219.77 1307.52 1230.52 1293.36 1246.7 1279.93C1270.51 1260.16 1306.1 1241.92 1353.13 1224.42C1364.39 1220.49 1382.41 1218.7 1390.26 1227.02C1392.94 1229.85 1394.41 1233.88 1394.04 1239.42C1393.78 1241.07 1393.53 1242.98 1393.27 1245.14C1387.88 1290.45 1388.97 1473.36 1425.47 1513.2C1550.83 1627.81 1571.39 1328.75 1577.73 1252.63C1576.34 1247.9 1575.68 1243.79 1575.71 1240.23C1575.82 1231.83 1579.75 1226.51 1586.72 1223.83C1606.68 1216.05 1651.62 1230.07 1702.32 1255.71C1722.1 1265.69 1736.77 1273.28 1747.74 1279.92C1778.92 1298.85 1780.1 1310.04 1782.34 1346.14L1782.36 1346.16Z" fill="#2D1FC3"/>
<g style="mix-blend-mode:multiply">
<path d="M1256.94 1546.14C1236.56 1709.16 1190.71 2081.05 1191.99 2103.97C1193.26 2126.89 1241.66 2095.05 1241.66 2095.05L1288.78 1488.82L1256.94 1546.13V1546.14Z" fill="#2D1FC3"/>
</g>
<path d="M1357.73 1255.65C1358.58 1216.68 1400.74 1205.85 1394.06 1239.43C1387.38 1273.02 1388.17 1460.68 1419.58 1505.16C1465.67 1570.42 1514.05 1529.31 1533.11 1481.86C1552.17 1434.41 1569.12 1311.56 1574.63 1258.61C1580.14 1205.66 1587.76 1218.37 1596.66 1217.52C1605.56 1216.67 1621.65 1209.89 1609.37 1294.2C1597.08 1378.5 1595.03 1593.84 1463.28 1593C1331.53 1592.15 1353.5 1418.75 1353.5 1418.75L1357.74 1255.65H1357.73Z" fill="url(#paint0_linear_636_115)"/>
<path d="M1726.71 1263.89C1702.35 1255.73 1688.88 1255.89 1669.97 1357.73C1651.06 1459.57 1672.15 1521.4 1682.34 1539.59C1692.52 1557.78 1732.53 1609.42 1720.17 1526.5C1717.26 1431.21 1728.17 1322.09 1742.72 1298.82C1755.09 1279.18 1744.17 1274.81 1726.72 1263.9L1726.71 1263.89Z" fill="url(#paint1_linear_636_115)"/>
<path d="M1309.17 1269.71C1316.44 1348.27 1303.35 1527.22 1237.15 1555.59C1256.06 1462.48 1278.5 1355.5 1262.61 1317.72C1246.72 1279.94 1244.04 1279.89 1274.05 1263.16C1298.25 1247.16 1308.11 1255.14 1309.16 1269.71H1309.17Z" fill="url(#paint2_linear_636_115)"/>
<path d="M1749.37 1741.03C1746.38 1701.25 1741.03 1698.38 1783.21 1698.38C1825.39 1698.38 1896.66 1675.69 1907.62 1671.51C1918.11 1662.69 1943 1639.95 1946.84 1684.22C1950.68 1728.49 1964.4 1772.99 1874.01 1789C1802.22 1802.23 1753.08 1803.73 1754.47 1774.06C1748.91 1753.66 1749.37 1741.03 1749.37 1741.03Z" fill="#2D1FC3"/>
<path d="M1921.63 1652.72C1920.38 1655.62 1917.85 1658.33 1914.22 1660.83C1912.24 1654.01 1910.15 1646.96 1907.98 1639.77C1914.25 1641.75 1919.94 1644.5 1921.85 1647.77C1922.22 1648.36 1922.95 1649.64 1921.63 1652.72Z" fill="url(#paint3_linear_636_115)"/>
<path d="M1832.52 1729.63C1795.9 1729.57 1747.17 1730.54 1750.11 1744.83C1753.05 1759.11 1761.09 1768.18 1811.68 1760.62C1862.27 1753.06 1949.56 1729.57 1951.93 1702.99C1950.35 1683.78 1935.98 1697.52 1913.07 1706.79C1890.15 1716.06 1832.51 1729.63 1832.51 1729.63H1832.52Z" fill="url(#paint4_linear_636_115)"/>
<path d="M1239.51 1534.95C1299.53 1228.88 1218.29 1249.08 1201.25 1372.5" stroke="black" stroke-width="18.34" stroke-linecap="round" stroke-linejoin="round"/>
<path d="M1237.11 1288.56C1286.25 1250.86 1323.44 1239.46 1356.29 1227.29C1376.65 1219.74 1396.16 1214.3 1393.56 1235.87C1384.2 1313.72 1378.24 1535.11 1470.64 1540.6C1546.86 1545.13 1572.05 1319.91 1578.23 1230.56C1580.19 1202.14 1625.7 1219.89 1652.35 1229.96C1702.82 1249.03 1730.49 1265.21 1759.8 1288.51" stroke="black" stroke-width="18.34" stroke-linecap="round" stroke-linejoin="round"/>
<path d="M1717.52 1545.51C1717.52 1545.51 1710.01 1270.84 1759.8 1288.5C1784.81 1297.38 1781.5 1358 1781.5 1358" stroke="black" stroke-width="18.34" stroke-linecap="round" stroke-linejoin="round"/>
<path d="M1754.66 2260.34C1761.79 2139.13 1764.13 1979.77 1757.88 1821.51C1757.07 1801.11 1749.13 1682.36 1722.81 1567.53C1719.97 1555.14 1718.57 1556.76 1717.51 1545.52" stroke="black" stroke-width="18.34" stroke-linecap="round" stroke-linejoin="round"/>
<path d="M1239.51 1534.95C1156.64 1751.48 1118.12 2360.48 1141.86 2392.12" stroke="black" stroke-width="18.34" stroke-linecap="round" stroke-linejoin="round"/>
<path d="M1746.38 1701.25C1823.82 1694.95 1917.6 1685.63 1930.08 1656.34C1939.5 1634.23 1898.5 1630 1898.5 1630" stroke="black" stroke-width="18.34" stroke-linecap="round" stroke-linejoin="round"/>
<path d="M1931.04 1646.06C1931.04 1646.06 1947.06 1662.19 1950.89 1713.28C1951.97 1727.7 1949.3 1752.88 1937.31 1760.97C1855.8 1815.94 1755.91 1790.95 1755.91 1790.95" stroke="black" stroke-width="18.34" stroke-linecap="round" stroke-linejoin="round"/>
<path d="M1362.99 1227.29C1348.03 1387.65 1335.03 1602 1468.07 1592.06C1591.08 1582.88 1593.85 1408.11 1615.07 1217.57" stroke="black" stroke-width="18.34" stroke-linecap="round" stroke-linejoin="round"/>
<path d="M1304.82 1252.64C1318.81 1332.6 1313.91 1500 1230.69 1569.35" stroke="black" stroke-width="18.34" stroke-linecap="round" stroke-linejoin="round"/>
<path d="M1702.35 1255.72C1655.33 1332.27 1636.2 1515.05 1725.46 1586.25" stroke="black" stroke-width="18.34" stroke-linecap="round" stroke-linejoin="round"/>
<g style="mix-blend-mode:multiply">
<path d="M1372.25 1534.47C1356.97 1682.21 1337.28 2085.05 1337.28 2085.05L1393.22 2070.86L1395.77 1566.52L1372.26 1534.47H1372.25Z" fill="#2D1FC3"/>
</g>
<g style="mix-blend-mode:multiply">
<path d="M1516.75 1581.8C1519.15 1649.3 1512.93 2134.54 1512.93 2134.54C1512.93 2134.54 1562.14 2135.21 1559.59 2131.39C1557.04 2127.57 1543.49 1549.96 1543.49 1549.96L1516.74 1581.8H1516.75Z" fill="#2D1FC3"/>
</g>
<g style="mix-blend-mode:multiply">
<path d="M1633.92 1223.92C1615.07 1217.57 1653.53 1996.62 1650.04 2087.05C1646.55 2177.48 1698.12 2106.49 1698.12 2106.49C1698.12 2106.49 1643.6 1276.99 1667.45 1240.02C1663.19 1232.35 1652.35 1229.95 1633.93 1223.92H1633.92Z" fill="#2D1FC3"/>
</g>
<path d="M1753.05 1759.11C1811.48 1763.64 1902.27 1756.25 1946.84 1716.34" stroke="black" stroke-width="18.34" stroke-linecap="round" stroke-linejoin="round"/>
<path d="M1753.73 1732.75C1812.16 1737.28 1902.27 1724.93 1946.84 1685.02" stroke="black" stroke-width="18.34" stroke-linecap="round" stroke-linejoin="round"/>
<path d="M1465.98 1636.51C1499.89 1636.51 1525.63 1647.84 1543.19 1670.5C1560.75 1693.16 1569.53 1722.8 1569.53 1759.41C1569.53 1781.32 1566.3 1802.71 1559.85 1823.57C1553.39 1844.43 1544.32 1863.26 1532.61 1880.07C1520.9 1896.88 1505.74 1910.46 1487.14 1920.81C1468.53 1931.16 1447.97 1936.34 1425.46 1936.34C1392.44 1936.34 1365.51 1925.69 1344.65 1904.37C1323.79 1883.06 1313.36 1853.35 1313.36 1815.23C1313.36 1785.22 1319.66 1756.63 1332.27 1729.47C1344.88 1702.31 1363.03 1680.03 1386.75 1662.62C1410.46 1645.22 1436.87 1636.51 1465.99 1636.51H1465.98ZM1442.57 1836.4C1456.67 1836.4 1468.53 1828 1478.13 1811.19C1487.73 1794.39 1492.54 1774.13 1492.54 1750.41C1492.54 1717.7 1483.23 1701.34 1464.63 1701.34C1450.82 1701.34 1438.52 1710.2 1427.71 1727.9C1416.91 1745.61 1411.5 1765.72 1411.5 1788.23C1411.5 1804.14 1414.35 1816.14 1420.05 1824.24C1425.75 1832.34 1433.25 1836.4 1442.56 1836.4H1442.57Z" fill="url(#paint5_linear_636_115)" stroke="black" stroke-width="18.34" stroke-linecap="round" stroke-linejoin="round"/>
</g>
<defs>
<linearGradient id="paint0_linear_636_115" x1="1602.84" y1="1495.96" x2="1351.28" y2="1244.39" gradientUnits="userSpaceOnUse">
<stop stop-color="#AE00A8"/>
<stop offset="1" stop-color="#00C1E9"/>
</linearGradient>
<linearGradient id="paint1_linear_636_115" x1="1795.68" y1="1493.23" x2="1633.92" y2="1331.46" gradientUnits="userSpaceOnUse">
<stop stop-color="#AE00A8"/>
<stop offset="1" stop-color="#00C1E9"/>
</linearGradient>
<linearGradient id="paint2_linear_636_115" x1="1331.27" y1="1466.99" x2="1197.4" y2="1333.11" gradientUnits="userSpaceOnUse">
<stop stop-color="#AE00A8"/>
<stop offset="1" stop-color="#00C1E9"/>
</linearGradient>
<linearGradient id="paint3_linear_636_115" x1="1907.98" y1="1650.3" x2="1922.38" y2="1650.3" gradientUnits="userSpaceOnUse">
<stop stop-color="#2D1FC3"/>
<stop offset="1" stop-color="#FDA900"/>
</linearGradient>
<linearGradient id="paint4_linear_636_115" x1="1749.98" y1="1728.33" x2="1951.94" y2="1728.33" gradientUnits="userSpaceOnUse">
<stop stop-color="#2D1FC3"/>
<stop offset="1" stop-color="#00C1E9"/>
</linearGradient>
<linearGradient id="paint5_linear_636_115" x1="1313.36" y1="1786.42" x2="1569.52" y2="1786.42" gradientUnits="userSpaceOnUse">
<stop stop-color="#AE00A8"/>
<stop offset="1" stop-color="#00C1E9"/>
</linearGradient>
</defs>
</svg>
