<svg width="2000" height="2000" viewBox="0 0 2000 2000" fill="none" xmlns="http://www.w3.org/2000/svg">
<g clip-path="url(#clip0_7_1361)">
<mask id="mask0_7_1361" style="mask-type:luminance" maskUnits="userSpaceOnUse" x="0" y="0" width="2000" height="2000">
<path d="M2000 0H0V2000H2000V0Z" fill="white"/>
</mask>
<g mask="url(#mask0_7_1361)">
<path d="M1765.43 1808.17C1765.43 1808.17 1632.59 1889.63 1463.77 1887.18C1294.95 1884.73 1172.57 1778.98 1172.57 1778.98C1145.67 1905.84 1108.78 2401.3 1108.78 2401.3C1108.78 2401.3 1623.04 2406.2 1768.49 2271.48C1768.49 2271.48 1785.42 1929.89 1765.43 1808.17Z" fill="url(#paint0_linear_7_1361)"/>
<path d="M1499.42 1811.47C1632.59 1807.17 1710.75 1766.35 1752.32 1729.61C1741.15 1593.24 1716.28 1497.52 1716.28 1497.52C1618.05 1496.55 1535.34 1501.18 1510.71 1539.26C1459.54 1618.36 1444 1573.67 1415.28 1534.63C1359.45 1458.72 1247.05 1494.03 1247.05 1494.03C1232.76 1543.85 1203.94 1615.57 1191.75 1688.45C1223.49 1740.97 1324.77 1817.1 1499.42 1811.47Z" fill="url(#paint1_linear_7_1361)"/>
<path d="M1250.56 1540.25C1253.63 1523.67 1256.69 1507.49 1259.57 1492.45C1290.37 1485.84 1370.78 1475.68 1415.28 1536.19C1421.24 1544.3 1426.64 1552.64 1431.9 1560.07C1425.49 1567.29 1418.9 1574.13 1412.57 1580.34C1432.75 1631.89 1309.42 1642.82 1283.9 1611.62C1272.92 1598.19 1274.92 1586.25 1279.49 1577.78C1269.97 1566.77 1259.65 1553.83 1250.56 1540.24V1540.25ZM1546.82 1617.44C1573.73 1649.14 1703.75 1638.03 1682.48 1585.66C1687.94 1580.5 1693.58 1574.91 1699.15 1569.04C1702.78 1565.21 1710.74 1759.05 1714.24 1755.01C1755.76 1745.29 1757.53 1713.49 1721.8 1542.4C1718.47 1514.82 1716.29 1499.09 1716.29 1499.09C1618.06 1498.12 1535.35 1502.75 1510.72 1540.83C1510.41 1541.31 1510.11 1541.73 1509.8 1542.21C1519.81 1557.01 1531.48 1571.15 1542.18 1583.07C1537.37 1591.67 1535.25 1603.81 1546.83 1617.45L1546.82 1617.44ZM1719.09 1834.96C1723.95 1918.89 1723.07 2100.45 1723.07 2100.45L1764.15 2069.97L1770.33 1914.47L1763.37 1809.39L1719.09 1834.96Z" fill="url(#paint2_linear_7_1361)"/>
<path d="M1499.42 1811.47C1632.59 1807.17 1710.75 1766.35 1752.32 1729.61C1741.15 1593.24 1716.28 1497.52 1716.28 1497.52C1618.05 1496.55 1535.34 1501.18 1510.71 1539.26C1459.54 1618.36 1444 1573.67 1415.28 1534.63C1359.45 1458.72 1247.05 1494.03 1247.05 1494.03C1232.76 1543.85 1203.94 1615.57 1191.75 1688.45C1223.49 1740.97 1324.77 1817.1 1499.42 1811.47Z" stroke="black" stroke-width="18.34" stroke-linecap="round" stroke-linejoin="round"/>
<path d="M1401.58 1570.02C1420.64 1615.36 1304.17 1624.98 1280.06 1597.53C1269.69 1585.72 1271.58 1575.22 1275.89 1567.77C1241.55 1530.81 1196.09 1469.16 1247.46 1444.94C1253.17 1442.25 1258.38 1440.52 1263.15 1439.62C1268.57 1427.94 1280 1419.97 1300.29 1418.51C1304.78 1418.19 1308.87 1418.23 1312.61 1418.6C1318.73 1403.63 1330.01 1394.55 1348.85 1395.85C1364.74 1396.94 1373.4 1406.47 1377.19 1420.86C1380.5 1420.92 1384.04 1421.23 1387.86 1421.86C1407.93 1425.16 1418.58 1434.14 1422.93 1446.26C1427.6 1447.59 1432.63 1449.78 1438.07 1452.98C1485.75 1481.01 1438.76 1536.05 1401.59 1570.02H1401.58ZM1710.26 1450.81C1704.49 1447.42 1699.15 1445.09 1694.2 1443.68C1689.59 1430.82 1678.29 1421.3 1657 1417.8C1652.94 1417.13 1649.19 1416.81 1645.68 1416.74C1641.66 1401.48 1632.47 1391.37 1615.61 1390.21C1595.62 1388.84 1583.66 1398.46 1577.17 1414.35C1573.2 1413.96 1568.87 1413.91 1564.1 1414.25C1542.58 1415.8 1530.46 1424.26 1524.7 1436.65C1519.64 1437.6 1514.11 1439.44 1508.06 1442.29C1453.56 1467.98 1501.79 1533.38 1538.22 1572.6C1533.65 1580.5 1531.64 1591.64 1542.64 1604.17C1568.21 1633.28 1691.78 1623.08 1671.56 1574.98C1711 1538.93 1760.85 1480.54 1710.27 1450.81H1710.26Z" fill="url(#paint3_linear_7_1361)"/>
<path d="M1438.07 1452.98C1432.63 1449.78 1427.6 1447.59 1422.93 1446.26C1418.59 1434.14 1407.93 1425.16 1387.86 1421.86C1384.03 1421.23 1380.5 1420.93 1377.19 1420.86C1373.4 1406.48 1364.74 1396.95 1348.85 1395.85C1330.01 1394.55 1318.73 1403.63 1312.61 1418.6C1308.87 1418.23 1304.78 1418.18 1300.29 1418.51C1280.01 1419.97 1268.58 1427.95 1263.15 1439.62C1258.38 1440.52 1253.17 1442.25 1247.46 1444.94C1196.09 1469.16 1241.55 1530.8 1275.89 1567.77C1271.58 1575.22 1269.68 1585.72 1280.06 1597.53C1304.16 1624.97 1420.64 1615.35 1401.58 1570.02C1438.75 1536.04 1485.74 1481 1438.06 1452.98H1438.07Z" stroke="black" stroke-width="18.34" stroke-miterlimit="10" stroke-linejoin="round"/>
<path d="M1710.27 1450.81C1704.5 1447.42 1699.16 1445.09 1694.21 1443.68C1689.6 1430.82 1678.3 1421.3 1657.01 1417.8C1652.95 1417.13 1649.2 1416.81 1645.69 1416.74C1641.67 1401.48 1632.48 1391.37 1615.62 1390.21C1595.63 1388.84 1583.67 1398.46 1577.18 1414.35C1573.21 1413.96 1568.88 1413.91 1564.11 1414.25C1542.59 1415.8 1530.47 1424.26 1524.71 1436.65C1519.65 1437.6 1514.12 1439.44 1508.07 1442.29C1453.57 1467.98 1501.8 1533.38 1538.23 1572.6C1533.66 1580.5 1531.65 1591.64 1542.65 1604.17C1568.22 1633.28 1691.79 1623.08 1671.57 1574.98C1711.01 1538.93 1760.86 1480.54 1710.28 1450.81H1710.27Z" stroke="black" stroke-width="18.34" stroke-miterlimit="10"/>
<path d="M1276.6 1465.45C1276.6 1465.45 1286.02 1493.7 1297.15 1507.4L1276.6 1465.45Z" fill="url(#paint4_linear_7_1361)"/>
<path d="M1276.6 1465.45C1276.6 1465.45 1286.02 1493.7 1297.15 1507.4" stroke="black" stroke-width="18.34" stroke-linecap="round" stroke-linejoin="round"/>
<path d="M1307.56 1569.39C1307.56 1569.39 1340.89 1579.33 1373.63 1570.56L1307.56 1569.39Z" fill="url(#paint5_linear_7_1361)"/>
<path d="M1307.56 1569.39C1307.56 1569.39 1340.89 1579.33 1373.63 1570.56" stroke="black" stroke-width="18.34" stroke-linecap="round" stroke-linejoin="round"/>
<path d="M1341.08 1447.14C1341.08 1447.14 1332.32 1476.41 1339.67 1508.58L1341.08 1447.14Z" fill="url(#paint6_linear_7_1361)"/>
<path d="M1341.08 1447.14C1341.08 1447.14 1332.32 1476.41 1339.67 1508.58" stroke="black" stroke-width="18.34" stroke-linecap="round" stroke-linejoin="round"/>
<path d="M1402.71 1477.06C1402.71 1477.06 1390.36 1487.42 1383.68 1513.93L1402.71 1477.06Z" fill="url(#paint7_linear_7_1361)"/>
<path d="M1402.71 1477.06C1402.71 1477.06 1390.36 1487.42 1383.68 1513.93" stroke="black" stroke-width="18.34" stroke-linecap="round" stroke-linejoin="round"/>
<path d="M1543.18 1466.43C1543.18 1466.43 1552.6 1494.68 1563.73 1508.38L1543.18 1466.43Z" fill="url(#paint8_linear_7_1361)"/>
<path d="M1543.18 1466.43C1543.18 1466.43 1552.6 1494.68 1563.73 1508.38" stroke="black" stroke-width="18.34" stroke-linecap="round" stroke-linejoin="round"/>
<path d="M1574.14 1570.38C1574.14 1570.38 1607.47 1580.32 1640.21 1571.55L1574.14 1570.38Z" fill="url(#paint9_linear_7_1361)"/>
<path d="M1574.14 1570.38C1574.14 1570.38 1607.47 1580.32 1640.21 1571.55" stroke="black" stroke-width="18.34" stroke-linecap="round" stroke-linejoin="round"/>
<path d="M1607.66 1448.13C1607.66 1448.13 1598.9 1477.4 1606.25 1509.57L1607.66 1448.13Z" fill="url(#paint10_linear_7_1361)"/>
<path d="M1607.66 1448.13C1607.66 1448.13 1598.9 1477.4 1606.25 1509.57" stroke="black" stroke-width="18.34" stroke-linecap="round" stroke-linejoin="round"/>
<path d="M1669.29 1478.05C1669.29 1478.05 1656.94 1488.41 1650.26 1514.92L1669.29 1478.05Z" fill="url(#paint11_linear_7_1361)"/>
<path d="M1669.29 1478.05C1669.29 1478.05 1656.94 1488.41 1650.26 1514.92" stroke="black" stroke-width="18.34" stroke-linecap="round" stroke-linejoin="round"/>
<path d="M1765.43 1808.17C1765.43 1808.17 1632.59 1889.63 1463.77 1887.18C1294.95 1884.73 1172.57 1778.98 1172.57 1778.98C1145.67 1905.84 1108.78 2401.3 1108.78 2401.3C1108.78 2401.3 1623.04 2406.2 1768.49 2271.48C1768.49 2271.48 1785.42 1929.89 1765.43 1808.17Z" stroke="black" stroke-width="18.34" stroke-linecap="round" stroke-linejoin="round"/>
<path d="M1350.61 1238.18C1350.61 1238.18 1286.76 1174.33 1327.71 1398.36" stroke="black" stroke-width="18.34" stroke-linecap="round" stroke-linejoin="round"/>
<path d="M1648.32 1250.17C1648.32 1250.17 1724.68 1158.56 1647.54 1410.67" stroke="black" stroke-width="18.34" stroke-linecap="round" stroke-linejoin="round"/>
</g>
</g>
<defs>
<linearGradient id="paint0_linear_7_1361" x1="1108.78" y1="2090.14" x2="1775.19" y2="2090.14" gradientUnits="userSpaceOnUse">
<stop stop-color="#00C2ED"/>
<stop offset="1" stop-color="#311DCB"/>
</linearGradient>
<linearGradient id="paint1_linear_7_1361" x1="1191.75" y1="1648.8" x2="1752.32" y2="1648.8" gradientUnits="userSpaceOnUse">
<stop stop-color="#00C2ED"/>
<stop offset="1" stop-color="#311DCB"/>
</linearGradient>
<linearGradient id="paint2_linear_7_1361" x1="1510.45" y1="1487.39" x2="1510.45" y2="2100.45" gradientUnits="userSpaceOnUse">
<stop stop-color="#00C2ED"/>
<stop offset="1" stop-color="#311DCB"/>
</linearGradient>
<linearGradient id="paint3_linear_7_1361" x1="1224.36" y1="1505.24" x2="1731.67" y2="1505.24" gradientUnits="userSpaceOnUse">
<stop stop-color="#00C2ED"/>
<stop offset="1" stop-color="#311DCB"/>
</linearGradient>
<linearGradient id="paint4_linear_7_1361" x1="1276.6" y1="1486.42" x2="1297.15" y2="1486.42" gradientUnits="userSpaceOnUse">
<stop stop-color="#00C2ED"/>
<stop offset="1" stop-color="#311DCB"/>
</linearGradient>
<linearGradient id="paint5_linear_7_1361" x1="1307.56" y1="1571.78" x2="1373.63" y2="1571.78" gradientUnits="userSpaceOnUse">
<stop stop-color="#00C2ED"/>
<stop offset="1" stop-color="#311DCB"/>
</linearGradient>
<linearGradient id="paint6_linear_7_1361" x1="1336.74" y1="1477.86" x2="1341.08" y2="1477.86" gradientUnits="userSpaceOnUse">
<stop stop-color="#00C2ED"/>
<stop offset="1" stop-color="#311DCB"/>
</linearGradient>
<linearGradient id="paint7_linear_7_1361" x1="1383.68" y1="1495.5" x2="1402.71" y2="1495.5" gradientUnits="userSpaceOnUse">
<stop stop-color="#00C2ED"/>
<stop offset="1" stop-color="#311DCB"/>
</linearGradient>
<linearGradient id="paint8_linear_7_1361" x1="1543.18" y1="1487.41" x2="1563.73" y2="1487.41" gradientUnits="userSpaceOnUse">
<stop stop-color="#00C2ED"/>
<stop offset="1" stop-color="#311DCB"/>
</linearGradient>
<linearGradient id="paint9_linear_7_1361" x1="1574.14" y1="1572.77" x2="1640.21" y2="1572.77" gradientUnits="userSpaceOnUse">
<stop stop-color="#00C2ED"/>
<stop offset="1" stop-color="#311DCB"/>
</linearGradient>
<linearGradient id="paint10_linear_7_1361" x1="1603.32" y1="1478.85" x2="1607.66" y2="1478.85" gradientUnits="userSpaceOnUse">
<stop stop-color="#00C2ED"/>
<stop offset="1" stop-color="#311DCB"/>
</linearGradient>
<linearGradient id="paint11_linear_7_1361" x1="1650.26" y1="1496.49" x2="1669.29" y2="1496.49" gradientUnits="userSpaceOnUse">
<stop stop-color="#00C2ED"/>
<stop offset="1" stop-color="#311DCB"/>
</linearGradient>
<clipPath id="clip0_7_1361">
<rect width="2000" height="2000" fill="white"/>
</clipPath>
</defs>
</svg>
