<svg width="2000" height="2000" viewBox="0 0 2000 2000" fill="none" xmlns="http://www.w3.org/2000/svg">
<g clip-path="url(#clip0_169_2)">
<mask id="mask0_169_2" style="mask-type:luminance" maskUnits="userSpaceOnUse" x="0" y="0" width="2000" height="2000">
<path d="M2000 0H0V2000H2000V0Z" fill="white"/>
</mask>
<g mask="url(#mask0_169_2)">
<path d="M1711.26 1438.22C1694.2 1463.2 1680.81 1506.9 1677.65 1574.19C1677.65 1574.19 1671.41 1568.76 1660.11 1562.85C1652.77 1559.03 1643.34 1555 1632.08 1552.14C1623.57 1549.94 1613.99 1548.43 1603.5 1548.18C1574.19 1547.48 1537.9 1556.73 1497.91 1589.09C1495.97 1582.93 1493.1 1577.09 1489.51 1571.66C1485.11 1565.09 1479.6 1559.08 1473.22 1553.68C1467.68 1548.98 1461.44 1544.77 1454.69 1541.1C1440.49 1533.32 1424.09 1527.89 1407.07 1525.25C1399.07 1523.97 1390.93 1523.34 1382.78 1523.38C1366.71 1523.42 1350.71 1526.06 1336.08 1531.63C1335.05 1532 1334.06 1532.4 1333.04 1532.84C1315.39 1540.1 1299.91 1551.84 1288.98 1568.61C1287.55 1570.77 1286.19 1573.01 1284.94 1575.32C1275.66 1558.48 1264.72 1545.9 1253.1 1537.2C1201.55 1498.46 1136.54 1535.4 1145.24 1609.66C1149.28 1644.04 1158.85 2009.23 1167.33 2114.41C1167.37 2114.59 1167.33 2114.74 1167.33 2114.89C1168.47 2128.46 1169.57 2137.64 1170.63 2141.12C1173.79 2151.39 1184.79 2161.67 1200.27 2170.65C1209.63 2176.04 1220.6 2181 1232.48 2185.21C1240.7 2188.11 1249.36 2190.68 1258.2 2192.8C1266.12 2194.67 1274.2 2196.21 1282.23 2197.35C1293.09 2198.82 1303.91 2199.55 1314.3 2199.37C1318.7 2200.98 1322.96 2202.49 1327.07 2203.88C1338.19 2207.59 1348.42 2210.48 1357.89 2212.57C1370.91 2215.51 1382.51 2217.01 1393.22 2217.34C1407.34 2217.85 1419.89 2216.35 1431.82 2213.52C1448.33 2209.63 1463.7 2203.17 1480.72 2195.87C1485.53 2197.78 1490.26 2199.47 1494.88 2200.93C1507.1 2204.89 1518.73 2207.39 1529.66 2208.74C1539.05 2209.91 1547.97 2210.24 1556.33 2209.99C1593.09 2208.67 1619.58 2195.17 1632.82 2186.58C1639.13 2182.51 1642.43 2179.54 1642.43 2179.54C1642.43 2179.54 1647.42 2179.94 1655.38 2180.2C1662.9 2180.46 1673.14 2180.6 1684.36 2180.13C1717.97 2178.81 1760.49 2172.13 1766.61 2147.7C1776.92 2106.5 1800.18 1623.39 1805.9 1505.44C1809.9 1423.04 1750.76 1380.22 1711.25 1438.19L1711.26 1438.22ZM1769.71 1502.06C1766.59 1529.25 1755.51 1550.34 1744.95 1549.13C1734.38 1547.92 1728.33 1524.88 1731.45 1497.66C1734.53 1470.47 1745.65 1449.42 1756.21 1450.63C1766.78 1451.8 1772.83 1474.84 1769.71 1502.07V1502.06Z" fill="#855B2E"/>
<path d="M1494.88 2200.96C1490.26 2199.49 1485.52 2197.8 1480.72 2195.9C1463.7 2203.2 1448.32 2209.66 1431.82 2213.55C1427.49 2146.48 1428.08 2079.16 1403.9 2172.09C1399.35 2189.52 1395.87 2204.52 1393.22 2217.36C1382.51 2217.03 1370.91 2215.53 1357.89 2212.59C1361.34 2061.07 1349.89 1700.98 1333.05 1532.84C1334.08 1532.4 1335.07 1532 1336.09 1531.63C1370.83 1692.62 1377 1601.85 1382.79 1523.38C1390.94 1523.34 1399.08 1523.97 1407.08 1525.25C1406.09 1558.16 1402.13 1598.22 1393.43 1640.38C1366.21 1772.27 1422.74 1981.61 1475.28 2134.42C1484.23 2160.47 1490.62 2182.44 1494.87 2200.97L1494.88 2200.96Z" fill="#A57C4F"/>
<path d="M1327.07 2203.89C1322.96 2202.5 1318.71 2200.99 1314.3 2199.38C1303.92 2199.56 1293.09 2198.83 1282.23 2197.36C1300.46 2085.06 1304.51 1962.21 1249.96 1907.69C1189.24 1846.97 1318.08 1899.93 1292.95 1788.99C1277.84 1722.25 1262.72 1613.36 1253.11 1537.2C1264.74 1545.9 1275.67 1558.48 1284.95 1575.32C1286.2 1573.01 1287.55 1570.77 1288.99 1568.61C1305.83 1647.78 1315.22 1755.31 1320.17 1876.16C1325.23 1999.58 1327.98 2120.35 1327.07 2203.89Z" fill="#A57C4F"/>
<path d="M1473.23 1553.68C1444.32 1655.38 1431.63 1857.71 1410.9 1803.67C1391.13 1752.05 1418.02 1643.2 1454.71 1541.09C1461.46 1544.76 1467.7 1548.98 1473.24 1553.67L1473.23 1553.68Z" fill="#A57C4F"/>
<path d="M1556.33 2210.02C1547.97 2210.28 1539.05 2209.95 1529.66 2208.77C1498.92 2147.5 1465.09 2057.76 1443.66 1948.1C1399.71 1722.95 1479.25 1922.97 1475.28 1822.88C1472.9 1762.9 1464.13 1651.4 1489.51 1571.64C1493.11 1577.07 1495.97 1582.9 1497.91 1589.07C1537.9 1556.71 1574.18 1547.47 1603.5 1548.16C1577.42 1623.19 1512.99 1737.18 1501.66 1773.5C1484.27 1829.19 1525.32 2025.55 1522.42 2105.08C1521.17 2139.53 1538.01 2177.13 1556.32 2210.01L1556.33 2210.02Z" fill="#A57C4F"/>
<path d="M1655.39 2180.23C1648.93 2208.33 1640.57 2231.34 1630 2247.44C1631.36 2230.71 1632.27 2210.17 1632.83 2186.61C1636.98 2022.14 1625.05 1712.53 1632.1 1552.13C1643.36 1554.99 1652.79 1559.03 1660.13 1562.84C1671.83 1734.28 1690.03 2030.1 1655.4 2180.22L1655.39 2180.23Z" fill="#A57C4F"/>
<path d="M1560.91 1692.7C1521.13 1765.97 1550.44 1906.23 1548.35 1992.06C1546.26 2077.89 1558.82 2236.99 1581.84 2126.04C1604.87 2015.09 1640.46 1692.7 1560.91 1692.7Z" fill="#A57C4F"/>
<path d="M1176.63 1531.03C1199.49 1550.81 1185.32 1856.46 1253.1 1537.2C1241.9 1705.15 1293.1 1840.98 1271.32 1840.98C1237.83 1840.98 1174.1 1713.54 1176.62 1531.03H1176.63Z" fill="#A57C4F"/>
<path d="M1276.54 2032.82C1272.47 2076.69 1265.47 2137.99 1258.21 2192.81C1249.37 2190.68 1240.71 2188.11 1232.49 2185.22C1234.18 2067.05 1236.42 1938.05 1219.54 1999.98C1208.09 2042.13 1206.04 2111.95 1200.28 2170.65C1184.8 2161.66 1173.79 2151.39 1170.64 2141.12C1169.58 2137.63 1168.48 2128.46 1167.34 2114.89C1167.34 2114.74 1167.38 2114.6 1167.34 2114.41C1171.93 1987.47 1176.3 1768.31 1185.18 1771.24C1196.61 1774.96 1201.39 1884.27 1254.33 1955.77C1270.81 1978.02 1279.12 2005.24 1276.56 2032.81L1276.54 2032.82Z" fill="#A57C4F"/>
<path d="M1711.26 1438.22C1720.03 1761.03 1688.42 2083.81 1664.39 2234.27C1698 2232.95 1760.49 2172.16 1766.62 2147.73C1776.93 2106.53 1800.19 1623.42 1805.91 1505.47C1809.91 1423.07 1750.77 1380.25 1711.26 1438.22ZM1769.71 1502.06C1766.59 1529.25 1755.51 1550.34 1744.95 1549.13C1734.38 1547.92 1728.33 1524.88 1731.45 1497.66C1734.53 1470.47 1745.65 1449.42 1756.21 1450.63C1766.78 1451.8 1772.83 1474.84 1769.71 1502.07V1502.06Z" fill="#672407"/>
<path d="M1677.66 1574.18C1677.66 1574.18 1599.81 1506.64 1497.93 1589.08C1475.29 1517.32 1329.72 1492.55 1284.96 1575.32C1234.59 1483.71 1134.58 1518.67 1145.25 1609.66C1149.84 1648.59 1161.47 2111.37 1170.64 2141.12C1179.81 2170.91 1254.77 2200.52 1314.31 2199.38C1397.66 2230.24 1432.66 2216.51 1480.73 2195.89C1580.04 2235.51 1642.45 2179.56 1642.45 2179.56C1642.45 2179.56 1756.33 2188.95 1766.64 2147.72C1776.95 2106.52 1800.21 1623.41 1805.93 1505.46C1811.65 1387.55 1688.13 1350.67 1677.67 1574.18H1677.66ZM1769.71 1502.06C1766.59 1529.25 1755.51 1550.34 1744.95 1549.13C1734.38 1547.92 1728.33 1524.88 1731.45 1497.66C1734.53 1470.47 1745.65 1449.42 1756.21 1450.63C1766.78 1451.8 1772.83 1474.84 1769.71 1502.07V1502.06Z" stroke="black" stroke-width="18.34" stroke-linecap="round" stroke-linejoin="round"/>
<path d="M1286.94 1607.37L1314.3 2156.24" stroke="black" stroke-width="18.34" stroke-linecap="round" stroke-linejoin="round"/>
<path d="M1495.69 1626.47L1483.99 2156.24" stroke="black" stroke-width="18.34" stroke-linecap="round" stroke-linejoin="round"/>
<path d="M1672.18 1607.37L1638.79 2140.69" stroke="black" stroke-width="18.34" stroke-linecap="round" stroke-linejoin="round"/>
<path d="M1255.68 1305.2C1254 1144.71 1684.97 1273.74 1756.2 1450.62" stroke="black" stroke-width="18.34" stroke-linecap="round" stroke-linejoin="round"/>
<path d="M1137.25 1730.28C1127.78 1727.04 1120.06 1718.01 1117.72 1706.23C1113.41 1684.56 1127.1 1683.19 1189.84 1695.61C1585.45 1773.94 1758.03 1679.31 1793.04 1669.9C1803.21 1667.16 1813.88 1673.01 1818.39 1684.6C1824.08 1699.21 1791.66 1788.01 1360.36 1772.03C1259.09 1768.28 1167.77 1740.72 1137.25 1730.29V1730.28Z" fill="#A57C4F" stroke="black" stroke-width="18.34" stroke-linecap="round" stroke-linejoin="round"/>
<path d="M1171.58 1692.15C1171.58 1692.15 1180.74 1742.53 1218.65 1752.85" stroke="black" stroke-width="18.34" stroke-linecap="round" stroke-linejoin="round"/>
<path d="M1282.29 1711.47C1282.29 1711.47 1281.17 1758.55 1322.37 1769.52" stroke="black" stroke-width="18.34" stroke-linecap="round" stroke-linejoin="round"/>
<path d="M1421.64 1725.04C1421.64 1725.04 1410.43 1764.66 1438.98 1773.85" stroke="black" stroke-width="18.34" stroke-linecap="round" stroke-linejoin="round"/>
<path d="M1529.7 1725.04C1529.7 1725.04 1536.28 1769.12 1574.01 1770.47L1529.7 1725.04Z" fill="#A57C4F"/>
<path d="M1529.7 1725.04C1529.7 1725.04 1536.28 1769.12 1574.01 1770.47" stroke="black" stroke-width="18.34" stroke-linecap="round" stroke-linejoin="round"/>
<path d="M1612.61 1717.71C1612.61 1717.71 1652.97 1755.16 1696.97 1755.1L1612.61 1717.71Z" fill="#A57C4F"/>
<path d="M1612.61 1717.71C1612.61 1717.71 1652.97 1755.16 1696.97 1755.1" stroke="black" stroke-width="18.34" stroke-linecap="round" stroke-linejoin="round"/>
<path d="M1730.12 1691.96C1730.12 1691.96 1741.37 1730.51 1772.85 1731.81L1730.12 1691.96Z" fill="#A57C4F"/>
<path d="M1730.12 1691.96C1730.12 1691.96 1741.37 1730.51 1772.85 1731.81" stroke="black" stroke-width="18.34" stroke-linecap="round" stroke-linejoin="round"/>
</g>
</g>
<defs>
<clipPath id="clip0_169_2">
<rect width="2000" height="2000" fill="white"/>
</clipPath>
</defs>
</svg>
