<svg width="2000" height="2000" viewBox="0 0 2000 2000" fill="none" xmlns="http://www.w3.org/2000/svg">
<g clip-path="url(#clip0_655_106)">
<mask id="mask0_655_106" style="mask-type:luminance" maskUnits="userSpaceOnUse" x="0" y="0" width="2000" height="2000">
<path d="M2000 0H0V2000H2000V0Z" fill="white"/>
</mask>
<g mask="url(#mask0_655_106)">
<path d="M1969.35 1710.28C1961.76 1634.52 1937.14 1477.17 1840.21 1368.06C1793.54 1315.63 1757.04 1281.29 1692.5 1248.71C1690.7 1247.79 1674.89 1233.37 1672.84 1232.49C1672.91 1157.46 1486.91 1150.53 1353.91 1193.09C1334.25 1244.71 1303.5 1248.71 1285.67 1261.77C1219.85 1310.05 1168.45 1348.17 1112.58 1446.38C1024.71 1600.95 1033.3 1695.38 1071.2 1706.02L1089.4 1683.27C1089.4 1683.27 1170.04 1721.79 1193.3 1772.09C1166.04 2068.6 1127.81 2353.52 1154.45 2389C1181.67 2425.36 1701.21 2428.37 1742.12 2257.22C1749.86 2125.55 1751.95 1948.9 1743.55 1777.49C1899.66 1736.36 1934.51 1772.46 1934.51 1772.46L1940.05 1808.45C1941.48 1807.97 1942.88 1807.46 1944.23 1806.87C1963.38 1798.87 1976.4 1781.01 1969.36 1710.27L1969.35 1710.28ZM1609.7 1261.89C1569.74 1360.59 1548.92 1302.42 1527.78 1322.79C1472.33 1348.64 1436.56 1329.15 1425.99 1318.21C1392.41 1315.55 1384.62 1250.11 1411.11 1244.24C1419.29 1241.78 1427.62 1239.69 1427.62 1239.69C1490.25 1223.84 1620.56 1232.24 1609.7 1261.89Z" fill="url(#paint0_linear_655_106)"/>
<path style="mix-blend-mode:multiply" d="M1944.22 1806.9C1940.88 1657.95 1929.73 1409.38 1686.71 1246.05C1688.76 1246.93 1690.71 1247.81 1692.51 1248.73C1757.04 1281.31 1793.55 1315.65 1840.22 1368.08C1937.15 1477.19 1961.77 1634.54 1969.36 1710.3C1976.4 1781.03 1963.38 1798.9 1944.23 1806.9H1944.22Z" fill="url(#paint1_linear_655_106)"/>
<path style="mix-blend-mode:multiply" d="M1161.95 1732C1161.95 1732 1209.4 1527 1253.57 1489.92C1197.05 1704.06 1193.29 1772.12 1193.29 1772.12L1161.95 1732Z" fill="url(#paint2_linear_655_106)"/>
<path d="M1304.48 1253.19C1236.02 1297.64 1168.44 1348.19 1112.57 1446.4C1024.7 1600.97 1033.29 1695.4 1071.19 1706.04L1089.39 1683.29C1089.39 1683.29 1170.03 1721.81 1193.29 1772.11C1166.03 2068.62 1127.8 2353.54 1154.44 2389.02C1181.66 2425.38 1701.2 2428.39 1742.11 2257.24C1749.85 2125.57 1751.94 1948.92 1743.54 1777.51C1899.65 1736.38 1934.5 1772.48 1934.5 1772.48L1940.04 1808.47C1961.39 1801.17 1976.91 1786.05 1969.35 1710.29C1961.76 1634.53 1937.13 1477.17 1840.2 1368.06C1799.37 1322.19 1762.01 1287.73 1711.14 1258.62" stroke="black" stroke-width="18.34" stroke-linecap="round" stroke-linejoin="round"/>
<path d="M1432.25 1323.19C1389.09 1280.83 1348.74 1409.64 1348.74 1409.64C1301.9 1385.41 1292.18 1272.99 1309.59 1246.68C1339.31 1242.4 1334.5 1223.66 1346.44 1201.12C1356.52 1182.08 1414.15 1168.51 1485.12 1168.51C1556.09 1168.51 1659.27 1177.41 1662.94 1201.48C1671.09 1254.94 1693.11 1238.2 1711.13 1258.63C1708.56 1304.81 1604.07 1415.28 1604.07 1415.28C1604.07 1415.28 1599.59 1371.82 1572.95 1325.98C1568.06 1317.57 1553.1 1310.76 1544.33 1330.48" stroke="black" stroke-width="18.34" stroke-linecap="round" stroke-linejoin="round"/>
<path d="M1374.34 1224.43C1453.44 1179.9 1584.52 1190.27 1639.46 1218.7" stroke="black" stroke-width="18.34" stroke-linecap="round" stroke-linejoin="round"/>
<path d="M1572.95 1325.98C1601.91 1312.92 1620.75 1221.71 1621.85 1211.34" stroke="black" stroke-width="18.34" stroke-linecap="round" stroke-linejoin="round"/>
<path d="M1404.31 1310.37C1404.31 1310.37 1384.29 1248 1403.13 1211.33" stroke="black" stroke-width="18.34" stroke-linecap="round" stroke-linejoin="round"/>
<path d="M1395.05 1250.92C1443.41 1225.67 1548.83 1229.5 1612.62 1245.53" stroke="black" stroke-width="18.34" stroke-linecap="round" stroke-linejoin="round"/>
<path d="M1742.1 2257.24C1749.23 2136.03 1751.57 1976.67 1745.32 1818.41C1744.29 1792.36 1732.38 1604.47 1697.68 1472.23" stroke="black" stroke-width="18.34" stroke-linecap="round" stroke-linejoin="round"/>
<path d="M1264.72 1459.49C1239.03 1518.59 1210.47 1668.62 1210.47 1668.62C1199.5 1734.69 1190.72 1801.14 1184.14 1867.79C1158.52 2127.45 1130.68 2357.39 1154.42 2389.03" stroke="black" stroke-width="18.34" stroke-linecap="round" stroke-linejoin="round"/>
<path d="M1432.25 1323.19C1449.71 1343.14 1514.46 1343.72 1544.21 1308.83C1544.21 1308.83 1533.76 1630.09 1745.32 1818.42" stroke="black" stroke-width="18.34" stroke-linecap="round" stroke-linejoin="round"/>
<path d="M1432.25 1773.53C1576.56 1889.19 1706.06 1860.52 1706.06 1860.52" stroke="black" stroke-width="18.34" stroke-linecap="round" stroke-linejoin="round"/>
<path d="M1491.04 1444.24C1475.35 1444.24 1462.59 1431.48 1462.59 1415.79C1462.59 1400.1 1475.35 1387.34 1491.04 1387.34C1506.73 1387.34 1519.49 1400.1 1519.49 1415.79C1519.49 1431.48 1506.73 1444.24 1491.04 1444.24Z" fill="#FFC600"/>
<path d="M1491.04 1396.52C1501.69 1396.52 1510.32 1405.15 1510.32 1415.8C1510.32 1426.45 1501.69 1435.08 1491.04 1435.08C1480.39 1435.08 1471.76 1426.45 1471.76 1415.8C1471.76 1405.15 1480.39 1396.52 1491.04 1396.52ZM1491.04 1378.17C1470.3 1378.17 1453.42 1395.05 1453.42 1415.79C1453.42 1436.53 1470.3 1453.41 1491.04 1453.41C1511.78 1453.41 1528.66 1436.53 1528.66 1415.79C1528.66 1395.05 1511.78 1378.17 1491.04 1378.17Z" fill="black"/>
<path d="M1513.98 1572.79C1498.29 1572.79 1485.53 1560.03 1485.53 1544.34C1485.53 1528.65 1498.29 1515.89 1513.98 1515.89C1529.67 1515.89 1542.43 1528.65 1542.43 1544.34C1542.43 1560.03 1529.67 1572.79 1513.98 1572.79Z" fill="#FFC600"/>
<path d="M1513.98 1525.07C1524.63 1525.07 1533.26 1533.7 1533.26 1544.35C1533.26 1555 1524.63 1563.63 1513.98 1563.63C1503.33 1563.63 1494.7 1555 1494.7 1544.35C1494.7 1533.7 1503.33 1525.07 1513.98 1525.07ZM1513.98 1506.72C1493.24 1506.72 1476.36 1523.6 1476.36 1544.34C1476.36 1565.08 1493.24 1581.96 1513.98 1581.96C1534.72 1581.96 1551.6 1565.08 1551.6 1544.34C1551.6 1523.6 1534.72 1506.72 1513.98 1506.72Z" fill="black"/>
<path d="M1562.26 1700.03C1546.57 1700.03 1533.81 1687.27 1533.81 1671.58C1533.81 1655.89 1546.57 1643.13 1562.26 1643.13C1577.95 1643.13 1590.71 1655.89 1590.71 1671.58C1590.71 1687.27 1577.95 1700.03 1562.26 1700.03Z" fill="#FFC600"/>
<path d="M1562.26 1652.3C1572.91 1652.3 1581.54 1660.93 1581.54 1671.58C1581.54 1682.23 1572.91 1690.86 1562.26 1690.86C1551.61 1690.86 1542.98 1682.23 1542.98 1671.58C1542.98 1660.93 1551.61 1652.3 1562.26 1652.3ZM1562.26 1633.96C1541.52 1633.96 1524.64 1650.84 1524.64 1671.58C1524.64 1692.32 1541.52 1709.2 1562.26 1709.2C1583 1709.2 1599.88 1692.32 1599.88 1671.58C1599.88 1650.84 1583 1633.96 1562.26 1633.96Z" fill="black"/>
<path d="M1638.7 1823.75C1623.01 1823.75 1610.25 1810.99 1610.25 1795.3C1610.25 1779.61 1623.01 1766.85 1638.7 1766.85C1654.39 1766.85 1667.15 1779.61 1667.15 1795.3C1667.15 1810.99 1654.39 1823.75 1638.7 1823.75Z" fill="#FFC600"/>
<path d="M1638.7 1776.02C1649.35 1776.02 1657.98 1784.65 1657.98 1795.3C1657.98 1805.95 1649.35 1814.58 1638.7 1814.58C1628.05 1814.58 1619.42 1805.95 1619.42 1795.3C1619.42 1784.65 1628.05 1776.02 1638.7 1776.02ZM1638.7 1757.68C1617.96 1757.68 1601.08 1774.56 1601.08 1795.3C1601.08 1816.04 1617.96 1832.92 1638.7 1832.92C1659.44 1832.92 1676.32 1816.04 1676.32 1795.3C1676.32 1774.56 1659.44 1757.68 1638.7 1757.68Z" fill="black"/>
</g>
</g>
<defs>
<linearGradient id="paint0_linear_655_106" x1="1043.9" y1="1788.02" x2="1971.29" y2="1788.02" gradientUnits="userSpaceOnUse">
<stop stop-color="#301ECA"/>
<stop offset="1" stop-color="#FF00A6"/>
</linearGradient>
<linearGradient id="paint1_linear_655_106" x1="1686.71" y1="1526.47" x2="1971.29" y2="1526.47" gradientUnits="userSpaceOnUse">
<stop stop-color="#301ECA"/>
<stop offset="1" stop-color="#FF00A6"/>
</linearGradient>
<linearGradient id="paint2_linear_655_106" x1="1161.95" y1="1631.01" x2="1253.57" y2="1631.01" gradientUnits="userSpaceOnUse">
<stop stop-color="#301ECA"/>
<stop offset="1" stop-color="#FF00A6"/>
</linearGradient>
<clipPath id="clip0_655_106">
<rect width="2000" height="2000" fill="white"/>
</clipPath>
</defs>
</svg>
