<svg width="2000" height="2000" viewBox="0 0 2000 2000" fill="none" xmlns="http://www.w3.org/2000/svg">
<g clip-path="url(#clip0_28_473)">
<mask id="mask0_28_473" style="mask-type:luminance" maskUnits="userSpaceOnUse" x="0" y="0" width="2000" height="2000">
<path d="M2000 0H0V2000H2000V0Z" fill="white"/>
</mask>
<g mask="url(#mask0_28_473)">
<path d="M1972.5 2021.09L1761.1 2095.05L1157.84 2122.31C1157.84 2122.31 1155.49 1947.23 1152.67 1948.59C1037.18 2003.03 945.241 1962.75 908.441 1904.86C890.871 1877.27 885.841 1845.68 896.771 1818.46C899.781 1820.62 901.281 1824.48 900.261 1828.29C893.551 1853.46 896.921 1873.27 909.801 1884.06C921.251 1893.67 939.481 1895.21 955.181 1887.91C980.931 1875.91 1007.86 1841.13 1022.17 1801.44C1033.98 1768.53 1035.19 1737.93 1025.47 1717.42C1022.75 1711.73 1019.49 1708.47 1015.78 1707.77C1011.63 1707 1006.68 1708.94 1002.65 1711.29C1002.28 1710.59 1001.92 1709.9 1001.51 1709.16C1010.35 1703.14 1019.45 1698.04 1028.11 1693.16C1051.81 1679.92 1072.39 1668.69 1075.99 1647.74C1076.03 1647.59 1076.03 1647.45 1076.03 1647.26C1076.07 1647.11 1076.1 1646.93 1076.14 1646.78C1084.62 1511.22 1147.39 1416.97 1198.57 1361.79C1254.26 1301.69 1308.71 1273.45 1309.26 1273.15C1309.41 1273.08 1309.55 1272.97 1309.66 1272.89C1309.95 1272.71 1310.25 1272.56 1310.5 1272.34C1310.76 1272.19 1310.98 1272.01 1311.2 1271.83L1311.86 1271.17C1312.04 1270.95 1312.23 1270.73 1312.41 1270.51C1312.59 1270.25 1312.78 1270 1312.96 1269.7C1313.07 1269.48 1313.22 1269.26 1313.33 1269C1313.48 1268.71 1313.62 1268.41 1313.73 1268.08C1313.8 1267.86 1313.88 1267.6 1313.95 1267.35C1314.06 1267.02 1314.13 1266.73 1314.17 1266.4C1314.21 1266.11 1314.24 1265.81 1314.24 1265.52C1314.28 1265.34 1314.31 1265.15 1314.31 1264.97V1229.97C1314.31 1226.85 1312.7 1223.92 1310.02 1222.23C1299.93 1215.77 1287.86 1205.57 1287.86 1193.65C1287.86 1162.98 1368.61 1128.82 1484.47 1128.82C1600.33 1128.82 1713.18 1167.89 1713.18 1197.1C1713.18 1209.02 1700.05 1219.7 1689.96 1226.16C1687.28 1227.85 1678.66 1231.08 1678.66 1234.19L1679.83 1264.97V1265.19C1679.87 1265.37 1679.9 1265.56 1679.9 1265.78C1679.94 1266.18 1679.97 1266.62 1680.08 1267.03C1680.08 1267.1 1680.12 1267.18 1680.15 1267.25C1680.26 1267.76 1680.44 1268.28 1680.63 1268.75C1680.67 1268.75 1680.67 1268.79 1680.67 1268.79C1680.93 1269.3 1681.18 1269.82 1681.51 1270.26C1681.58 1270.33 1681.62 1270.37 1681.69 1270.44C1681.98 1270.84 1682.31 1271.25 1682.68 1271.58C1682.79 1271.73 1682.94 1271.8 1683.08 1271.91C1683.37 1272.2 1683.7 1272.46 1684.07 1272.72C1684.25 1272.83 1684.44 1272.9 1684.62 1273.01C1684.99 1273.19 1685.32 1273.38 1685.72 1273.52C1685.76 1273.56 1685.79 1273.59 1685.83 1273.59C1686.01 1273.66 1703.4 1280.38 1729.16 1300.01C1752.97 1318.17 1788.96 1351.41 1825.32 1406.66C1940.85 1582.1 1969.25 1836.27 1972.47 2021.07L1972.5 2021.09Z" fill="url(#paint0_linear_28_473)"/>
<path d="M937.471 1892.42C927.091 1893.01 917.071 1890.18 909.811 1884.06C899.761 1875.62 895.471 1861.68 897.341 1843.96C904.861 1855.11 912.971 1865.64 921.631 1875.55C926.771 1881.46 932.051 1887.07 937.481 1892.43L937.471 1892.42ZM1025.48 1717.42C1022.76 1711.73 1019.5 1708.47 1015.79 1707.77C1012.34 1707.11 1008.31 1708.36 1004.75 1710.15C1012.27 1715.54 1019.83 1719.58 1027.2 1721.49C1026.69 1720.1 1026.1 1718.74 1025.48 1717.42Z" fill="url(#paint1_linear_28_473)"/>
<path d="M1534.75 1325.88C1906.17 1479.74 1800.62 2114.25 1800.62 2114.25L1653.33 2115.77C1604.82 2114.06 1900.29 1602.24 1534.75 1325.88Z" fill="url(#paint2_linear_28_473)"/>
<path d="M1014.27 1979.11L1023.27 1980.75C1059.29 1978.19 1153.58 1951.34 1153.62 1954.28C1154.91 1884.92 1165.76 1774.5 1182.33 1691.21C1156.07 1784.14 1111.02 1964.31 1014.28 1979.11H1014.27Z" fill="url(#paint3_linear_28_473)"/>
<path d="M1076.02 1647.77C1076.02 1647.77 1150.61 1663.17 1136.78 1726.1" stroke="black" stroke-width="18.34" stroke-linecap="round" stroke-linejoin="round"/>
<path d="M1406.29 1190.39C1403.41 1188.05 1540.54 1151.06 1585.84 1186.95C1497.57 1215.96 1422.69 1203.67 1406.29 1190.39Z" fill="url(#paint4_linear_28_473)"/>
<path d="M1309.04 1257.99C1310.66 1256.9 1110.82 1378.84 1071.2 1643.07C1063.33 1695.59 1014.27 1698.45 1014.27 1698.45" stroke="black" stroke-width="18.34" stroke-linecap="round" stroke-linejoin="round"/>
<path d="M1696.05 1274.81C1696.05 1274.81 1964.09 1372.09 1973.27 2024.69" stroke="black" stroke-width="18.34" stroke-linecap="round" stroke-linejoin="round"/>
<path d="M1371.99 1180.19C1372.8 1182.61 1482.34 1248.68 1625.79 1176.97" stroke="black" stroke-width="18.34" stroke-linecap="round" stroke-linejoin="round"/>
<path d="M1395.08 1192.15C1457.4 1155.21 1574.38 1170.92 1597.75 1189.45" stroke="black" stroke-width="18.34" stroke-linecap="round" stroke-linejoin="round"/>
<path d="M889.201 1865.93C889.201 1865.93 918.941 2024.4 1153.96 1951.1" stroke="black" stroke-width="18.34" stroke-linecap="round" stroke-linejoin="round"/>
<path d="M891.421 1825.92C873.581 1892.63 923.861 1912.65 959.051 1896.23C1012.03 1871.52 1060.05 1768.84 1033.75 1713.5C1022.11 1689.01 1001.83 1700.25 993.341 1706.5" stroke="black" stroke-width="18.34" stroke-linecap="round" stroke-linejoin="round"/>
<path d="M1252.64 1444.9C1243.26 1444.92 1117.26 1858.69 1162.87 2162.91" stroke="black" stroke-width="18.34" stroke-linecap="round" stroke-linejoin="round"/>
<path d="M2106.34 1770.82C2086.46 1608.48 1933.06 1360.39 1784.04 1261.3C1758.43 1241.49 1793.21 1235.18 1798.72 1207.92C1804.22 1180.66 1783.71 1100.61 1545.79 1078.3C1542.19 1078.15 1538.6 1078.08 1535.11 1077.97C1411.65 1075 1342.17 1102.22 1342.17 1102.22C1273.53 1113.19 1195.6 1172.33 1227.96 1215.33C1254.19 1236.17 1268.28 1239.47 1229.06 1269.99C1189.8 1300.51 1092.32 1424.85 1081.72 1589.76C1161.52 1467.37 1252.1 1427.2 1313.92 1386.84C1381.32 1351.4 1465.4 1307.85 1510.9 1324.69C1672.4 1408.56 1849.6 1541.26 1697.09 2039.74C1829.42 2373.6 1946.71 2307.16 2021.63 2152.12C2081.25 2028.81 2114.05 1849.45 2106.34 1770.82ZM1477.69 1297.95C1393.6 1197.24 1304.85 1205.42 1304.85 1192.33C1304.85 1151.72 1375.25 1122.88 1486.57 1122.88C1597.89 1122.88 1695.54 1147.79 1695.54 1188.4C1695.54 1201.5 1578.8 1187.7 1477.69 1297.95Z" fill="url(#paint5_linear_28_473)"/>
<path d="M2021.63 2152.12L1947.34 2196.99C1947.34 2196.99 2073.22 2010.84 1977.64 1639.89C1882.07 1268.98 1630.06 1265.53 1630.06 1265.53C1630.06 1265.53 1642.42 1238.76 1739.9 1200.52C1796.19 1178.44 1722.35 1099.62 1535.11 1077.98C1538.59 1078.09 1542.19 1078.16 1545.79 1078.31C1783.71 1100.62 1804.22 1180.67 1798.72 1207.93C1793.22 1235.19 1758.44 1241.5 1784.04 1261.31C1933.07 1360.4 2086.46 1608.49 2106.34 1770.83C2114.04 1849.45 2081.25 2028.82 2021.63 2152.13V2152.12Z" fill="url(#paint6_linear_28_473)"/>
<path d="M1474.72 1320.33C1227.44 1400.13 1133.01 1515.45 1081.73 1589.77C1081.73 1589.77 1080.97 1362.02 1270.78 1238.8" stroke="black" stroke-width="18.34" stroke-linecap="round" stroke-linejoin="round"/>
<path d="M1474.72 1320.33C2170.12 1606.11 1237.91 2428.22 2048.8 2066.07C2048.8 2066.07 2170.49 1501 1764.02 1247.17" stroke="black" stroke-width="18.34" stroke-linecap="round" stroke-linejoin="round"/>
<path d="M1477.69 1297.96C1399.92 1192.6 1304.87 1205.42 1304.87 1192.33C1304.87 1151.72 1375.27 1122.87 1486.58 1122.87C1597.89 1122.87 1695.55 1147.8 1695.55 1188.41C1695.55 1201.5 1568.48 1191.9 1477.69 1297.96Z" stroke="black" stroke-width="18.34" stroke-linecap="round" stroke-linejoin="round"/>
<path d="M1317.79 1240.99C1356.36 1248.13 1389.22 1267.51 1412.14 1288.68" stroke="black" stroke-width="18.34" stroke-linecap="round" stroke-linejoin="round"/>
<path d="M1743.08 1247.74C1761.9 1246.81 1779.88 1238.24 1790.97 1223.02C1797.19 1214.49 1800.5 1205.53 1800.5 1196.3C1800.5 1139.01 1667.83 1078.3 1510.88 1078.3C1353.93 1078.3 1221.26 1136.75 1221.26 1194.04C1221.26 1211.19 1236.53 1235.09 1264.19 1238.42C1267.74 1238.85 1271.35 1238.72 1274.92 1238.48C1278.72 1238.23 1282.48 1238.1 1286.2 1238.1" stroke="black" stroke-width="18.34" stroke-linecap="round" stroke-linejoin="round"/>
<path d="M1558.94 1292.56C1603.95 1269.11 1660.32 1255.95 1710.37 1250.38" stroke="black" stroke-width="18.34" stroke-linecap="round" stroke-linejoin="round"/>
<path d="M1520.77 1289.19C1520.77 1265.98 1501.96 1247.17 1478.76 1247.17C1455.55 1247.17 1436.74 1265.98 1436.74 1289.19V1317.5C1436.74 1340.71 1455.55 1359.52 1478.76 1359.52C1501.96 1359.52 1520.77 1340.71 1520.77 1317.5V1289.19Z" fill="url(#paint7_linear_28_473)" stroke="black" stroke-width="18.34" stroke-miterlimit="10"/>
</g>
</g>
<defs>
<linearGradient id="paint0_linear_28_473" x1="694.071" y1="1625.57" x2="2237.23" y2="1625.57" gradientUnits="userSpaceOnUse">
<stop stop-color="#FFC800"/>
<stop offset="1" stop-color="#A3E8CF"/>
</linearGradient>
<linearGradient id="paint1_linear_28_473" x1="896.901" y1="1800.05" x2="1027.21" y2="1800.05" gradientUnits="userSpaceOnUse">
<stop stop-color="#68EBCB"/>
<stop offset="1" stop-color="#FF0085"/>
</linearGradient>
<linearGradient id="paint2_linear_28_473" x1="1903.56" y1="2011.31" x2="1376.44" y2="1484.19" gradientUnits="userSpaceOnUse">
<stop stop-color="#FFC800"/>
<stop offset="1" stop-color="#A3E8CF"/>
</linearGradient>
<linearGradient id="paint3_linear_28_473" x1="1185.52" y1="1922.38" x2="1068.34" y2="1805.2" gradientUnits="userSpaceOnUse">
<stop stop-color="#FFC800"/>
<stop offset="1" stop-color="#A3E8CF"/>
</linearGradient>
<linearGradient id="paint4_linear_28_473" x1="1540.09" y1="1232.7" x2="1451.94" y2="1144.55" gradientUnits="userSpaceOnUse">
<stop stop-color="#FFC800"/>
<stop offset="1" stop-color="#A3E8CF"/>
</linearGradient>
<linearGradient id="paint5_linear_28_473" x1="1081.72" y1="1678.71" x2="2107.45" y2="1678.71" gradientUnits="userSpaceOnUse">
<stop stop-color="#68EBCB"/>
<stop offset="1" stop-color="#FF0085"/>
</linearGradient>
<linearGradient id="paint6_linear_28_473" x1="2180.44" y1="1993.31" x2="1400.11" y2="1212.98" gradientUnits="userSpaceOnUse">
<stop stop-color="#68EBCB"/>
<stop offset="1" stop-color="#FF0085"/>
</linearGradient>
<linearGradient id="paint7_linear_28_473" x1="1436.74" y1="1303.35" x2="1520.77" y2="1303.35" gradientUnits="userSpaceOnUse">
<stop stop-color="#FF5DFF"/>
<stop offset="1" stop-color="#00C2ED"/>
</linearGradient>
<clipPath id="clip0_28_473">
<rect width="2000" height="2000" fill="white"/>
</clipPath>
</defs>
</svg>
