<svg width="2000" height="2000" viewBox="0 0 2000 2000" fill="none" xmlns="http://www.w3.org/2000/svg">
<mask id="mask0_554_145" style="mask-type:luminance" maskUnits="userSpaceOnUse" x="0" y="0" width="2000" height="2000">
<path d="M2000 0H0V2000H2000V0Z" fill="white"/>
</mask>
<g mask="url(#mask0_554_145)">
<path d="M1979.38 1708.1C1971.79 1632.34 1947.17 1474.99 1850.24 1365.88C1803.57 1313.45 1767.07 1279.11 1702.53 1246.53C1700.73 1245.61 1698.79 1244.73 1696.73 1243.85C1624.53 1212.52 1392.04 1188.89 1295.7 1259.59C1229.88 1307.87 1178.48 1345.99 1122.61 1444.2C1034.74 1598.77 1043.33 1693.2 1081.23 1703.84L1099.43 1681.09C1099.43 1681.09 1159.76 1708.64 1183.02 1758.94L1164.93 1867.9C1164.93 1867.9 1459.19 1990.9 1761.67 1858.6L1753.57 1775.31C1909.68 1734.18 1944.53 1770.29 1944.53 1770.29L1950.07 1806.28C1951.5 1805.8 1952.89 1805.29 1954.25 1804.7C1973.4 1796.7 1986.43 1778.84 1979.38 1708.1Z" fill="url(#paint0_linear_554_145)"/>
<path d="M1947.19 1806.64C1943.85 1657.69 1932.7 1409.12 1689.68 1245.79C1691.73 1246.67 1693.68 1247.55 1695.48 1248.47C1760.01 1281.05 1796.52 1315.39 1843.19 1367.82C1940.12 1476.93 1964.74 1634.28 1972.33 1710.04C1979.37 1780.77 1966.35 1798.64 1947.2 1806.64H1947.19Z" fill="url(#paint1_linear_554_145)"/>
<path d="M1164.92 1731.73C1164.92 1731.73 1212.37 1526.73 1256.54 1489.65C1200.02 1703.79 1183.01 1758.94 1183.01 1758.94L1164.92 1731.73Z" fill="url(#paint2_linear_554_145)"/>
<path style="mix-blend-mode:multiply" d="M1391.41 1279.64C1391.41 1279.64 1500.07 1209.85 1583.97 1279.64C1432.8 1292.85 1391.41 1279.64 1391.41 1279.64Z" fill="url(#paint3_linear_554_145)"/>
<path d="M1355.9 1266.31C1420.57 1300.21 1563.57 1299.32 1644.41 1258.58" stroke="black" stroke-width="18.34" stroke-linecap="round" stroke-linejoin="round"/>
<path d="M1387.75 1274.56C1426.66 1243.88 1551.84 1250.34 1603.12 1272.93" stroke="black" stroke-width="18.34" stroke-linecap="round" stroke-linejoin="round"/>
<path d="M1264.72 1459.49C1170.34 1759.18 1164.92 1867.9 1164.92 1867.9C1164.92 1867.9 1452.48 1999.84 1754.61 1860.54L1746.51 1777.25" stroke="black" stroke-width="18.34" stroke-linecap="round" stroke-linejoin="round"/>
<path d="M1183.01 1758.94C1157.44 1724.31 1092.36 1683.03 1092.36 1683.03L1074.16 1705.78C1036.26 1695.14 1027.68 1600.71 1115.54 1446.14C1171.42 1347.93 1222.82 1309.81 1288.63 1261.53C1384.97 1190.83 1617.46 1214.46 1689.66 1245.79C1691.71 1246.67 1693.66 1247.55 1695.46 1248.47C1759.99 1281.05 1796.5 1315.39 1843.17 1367.82C1940.1 1476.93 1964.72 1634.28 1972.31 1710.04C1979.35 1780.77 1966.33 1798.64 1947.18 1806.64C1945.82 1807.23 1944.43 1807.74 1943 1808.22L1937.46 1772.23C1937.46 1772.23 1902.61 1736.13 1746.5 1777.26" stroke="black" stroke-width="18.34" stroke-linecap="round" stroke-linejoin="round"/>
<path d="M1496.35 1437.36L1530.13 1505.81C1532.8 1511.22 1537.96 1514.97 1543.93 1515.84L1619.47 1526.82C1634.51 1529 1640.51 1547.48 1629.63 1558.09L1574.97 1611.37C1570.65 1615.58 1568.68 1621.65 1569.7 1627.6L1582.6 1702.84C1585.17 1717.82 1569.45 1729.24 1556 1722.17L1488.43 1686.65C1483.09 1683.84 1476.71 1683.84 1471.37 1686.65L1403.8 1722.17C1390.35 1729.24 1374.63 1717.82 1377.2 1702.84L1390.1 1627.6C1391.12 1621.65 1389.15 1615.59 1384.83 1611.37L1330.17 1558.09C1319.29 1547.48 1325.29 1529.01 1340.33 1526.82L1415.87 1515.84C1421.84 1514.97 1427 1511.22 1429.67 1505.81L1463.45 1437.36C1470.17 1423.73 1489.6 1423.73 1496.33 1437.36H1496.35Z" fill="#FFC700" stroke="black" stroke-width="18.34" stroke-linecap="round" stroke-linejoin="round"/>
<path d="M1705.02 1455.99C1705.02 1455.99 1729.96 1648.38 1747.77 1790.89" stroke="black" stroke-width="18.34" stroke-linecap="round" stroke-linejoin="round"/>
</g>
<defs>
<linearGradient id="paint0_linear_554_145" x1="1053.93" y1="1566.66" x2="1981.32" y2="1566.66" gradientUnits="userSpaceOnUse">
<stop stop-color="#FF0036"/>
<stop offset="1" stop-color="#2D1FC3"/>
</linearGradient>
<linearGradient id="paint1_linear_554_145" x1="2033.76" y1="1724.55" x2="1622.34" y2="1313.13" gradientUnits="userSpaceOnUse">
<stop stop-color="#2D1FC3"/>
<stop offset="1" stop-color="#FF0036"/>
</linearGradient>
<linearGradient id="paint2_linear_554_145" x1="1268.72" y1="1673.24" x2="1170.72" y2="1575.24" gradientUnits="userSpaceOnUse">
<stop stop-color="#2D1FC3"/>
<stop offset="1" stop-color="#FF2C10"/>
</linearGradient>
<linearGradient id="paint3_linear_554_145" x1="1391.41" y1="1267.06" x2="1583.97" y2="1267.06" gradientUnits="userSpaceOnUse">
<stop stop-color="#2D1FC3"/>
<stop offset="1" stop-color="#F269FF"/>
</linearGradient>
</defs>
</svg>
