<svg width="2000" height="2000" viewBox="0 0 2000 2000" fill="none" xmlns="http://www.w3.org/2000/svg">
<g clip-path="url(#clip0_7_1215)">
<mask id="mask0_7_1215" style="mask-type:luminance" maskUnits="userSpaceOnUse" x="0" y="0" width="2000" height="2000">
<path d="M2000 0H0V2000H2000V0Z" fill="white"/>
</mask>
<g mask="url(#mask0_7_1215)">
<path d="M1945.58 1787.49C1944.22 1788.08 1942.83 1788.59 1941.4 1789.07L1935.86 1753.08C1935.86 1753.08 1901.01 1716.98 1744.9 1758.11C1753.3 1929.52 1751.21 2106.17 1743.47 2237.84C1702.56 2408.99 1183.03 2405.98 1155.8 2369.62C1129.16 2334.14 1167.39 2049.22 1194.65 1752.71C1171.39 1702.41 1090.75 1663.89 1090.75 1663.89L1072.55 1686.64C1034.65 1676 1026.07 1581.57 1113.93 1427C1169.81 1328.79 1221.21 1290.67 1287.02 1242.39C1383.36 1171.69 1615.85 1195.32 1688.05 1226.65C1690.1 1227.53 1692.05 1228.41 1693.85 1229.33C1758.38 1261.91 1794.89 1296.25 1841.56 1348.68C1938.49 1457.79 1963.11 1615.14 1970.7 1690.9C1977.74 1761.63 1964.72 1779.5 1945.57 1787.5L1945.58 1787.49Z" fill="url(#paint0_linear_7_1215)"/>
<path d="M1945.58 1787.49C1942.24 1638.54 1931.09 1389.97 1688.07 1226.64C1690.12 1227.52 1692.07 1228.4 1693.87 1229.32C1758.4 1261.9 1794.91 1296.24 1841.58 1348.67C1938.51 1457.78 1963.13 1615.13 1970.72 1690.89C1977.76 1761.62 1964.74 1779.49 1945.59 1787.49H1945.58Z" fill="url(#paint1_linear_7_1215)"/>
<path d="M1163.31 1712.59C1163.31 1712.59 1210.76 1507.59 1254.93 1470.51C1198.41 1684.65 1194.65 1752.71 1194.65 1752.71L1163.31 1712.59Z" fill="url(#paint2_linear_7_1215)"/>
<path d="M1389.8 1260.49C1389.8 1260.49 1502.56 1189.39 1586.45 1259.18C1435.28 1272.39 1389.8 1260.49 1389.8 1260.49Z" fill="url(#paint3_linear_7_1215)"/>
<path d="M1743.46 2237.84C1750.59 2116.63 1752.93 1957.27 1746.68 1799.01C1745.65 1772.96 1733.74 1585.07 1699.04 1452.83" stroke="black" stroke-width="18.34" stroke-linecap="round" stroke-linejoin="round"/>
<path d="M1266.08 1440.08C1240.39 1499.18 1211.83 1649.21 1211.83 1649.21C1200.86 1715.28 1192.08 1781.73 1185.5 1848.38C1159.88 2108.04 1132.04 2337.98 1155.78 2369.62" stroke="black" stroke-width="18.34" stroke-linecap="round" stroke-linejoin="round"/>
<path d="M1354.28 1247.17C1418.95 1281.07 1561.95 1280.18 1642.79 1239.44" stroke="black" stroke-width="18.34" stroke-linecap="round" stroke-linejoin="round"/>
<path d="M1386.13 1253.31C1425.04 1225.74 1550.22 1231.54 1601.5 1251.85" stroke="black" stroke-width="18.34" stroke-linecap="round" stroke-linejoin="round"/>
<path d="M1941.39 1789.07L1935.85 1753.08C1935.85 1753.08 1901 1716.98 1744.89 1758.11C1753.29 1929.51 1751.2 2106.17 1743.46 2237.84C1702.55 2408.99 1183.02 2405.98 1155.79 2369.62C1129.15 2334.14 1167.38 2049.23 1194.64 1752.71C1171.38 1702.41 1090.74 1663.89 1090.74 1663.89L1072.54 1686.64C1034.64 1676 1026.06 1581.57 1113.92 1427C1169.8 1328.79 1221.22 1290.66 1287.01 1242.39C1386.12 1169.67 1629.27 1196.75 1693.83 1229.34C1758.39 1261.92 1794.87 1296.25 1841.54 1348.67C1938.47 1457.78 1963.09 1615.14 1970.69 1690.9C1978.25 1766.66 1962.73 1781.78 1941.38 1789.08L1941.39 1789.07Z" stroke="black" stroke-width="18.34" stroke-linecap="round" stroke-linejoin="round"/>
<path d="M1374.98 1516.06C1321.14 1462.77 1268.22 1436.71 1218.23 1287.87C1218.23 1287.87 1234.36 1220.89 1319.47 1222.57C1325.81 1222.69 1329.72 1229.59 1326.64 1235.13L1312.8 1247.18C1312.8 1247.18 1305.82 1294.09 1394.23 1388.43" fill="#FFC600"/>
<path d="M1402.78 1617.6C1378.6 1557.92 1298.95 1277.2 1474.58 1436.51C1653.17 1598.49 1758.66 1470.21 1729.86 1700.82C1701.06 1931.42 1517.13 1899.88 1402.78 1617.6Z" fill="#311DCB"/>
<path d="M1493.05 1580.31C1533.31 1605.76 1602.49 1644.55 1657.82 1650.22C1671.15 1651.59 1681.17 1662.95 1680.33 1676.32C1677.65 1718.76 1679.96 1811.95 1618.55 1806.11C1547.36 1799.34 1507.93 1717.42 1471.17 1597.04C1467.19 1584 1481.53 1573.02 1493.06 1580.3L1493.05 1580.31Z" fill="#FFC600"/>
<path d="M1689.24 1577.98C1549.15 1560.13 1433.14 1451.73 1433.14 1451.73C1433.14 1451.73 1445.42 1542.62 1581.47 1596.28C1725.56 1653.11 1689.24 1577.98 1689.24 1577.98Z" fill="#7D00DA"/>
<path d="M1374.18 1505.46C1343.8 1487.06 1248.81 1422.52 1223.51 1306.34C1221.69 1298 1224.25 1274.38 1227.89 1266.66C1238.01 1245.16 1256.3 1212.77 1318.56 1214C1324.9 1214.12 1328.81 1221.02 1325.73 1226.56L1311.48 1247.18C1311.48 1247.18 1309.47 1315.03 1392.91 1388.43" stroke="black" stroke-width="18.34" stroke-linecap="round" stroke-linejoin="round"/>
<path d="M1405.97 1617.6C1381.79 1557.92 1302.14 1277.2 1477.77 1436.51C1656.36 1598.49 1761.85 1470.21 1733.05 1700.82C1704.25 1931.42 1520.32 1899.88 1405.97 1617.6Z" stroke="black" stroke-width="18.34" stroke-linecap="round" stroke-linejoin="round"/>
<path d="M1493.05 1580.31C1533.31 1605.76 1602.49 1644.55 1657.82 1650.22C1671.15 1651.59 1681.17 1662.95 1680.33 1676.32C1677.65 1718.76 1679.96 1811.95 1618.55 1806.11C1547.36 1799.34 1507.93 1717.42 1471.17 1597.04C1467.19 1584 1481.53 1573.02 1493.06 1580.3L1493.05 1580.31Z" stroke="black" stroke-width="18.34" stroke-linecap="round" stroke-linejoin="round"/>
<path d="M1689.24 1577.98C1549.15 1560.13 1433.14 1451.73 1433.14 1451.73C1433.14 1451.73 1445.42 1542.62 1581.47 1596.28C1725.56 1653.11 1689.24 1577.98 1689.24 1577.98Z" stroke="black" stroke-width="18.34" stroke-linecap="round" stroke-linejoin="round"/>
</g>
</g>
<defs>
<linearGradient id="paint0_linear_7_1215" x1="1045.26" y1="1792.93" x2="1972.64" y2="1792.93" gradientUnits="userSpaceOnUse">
<stop stop-color="#FFC600"/>
<stop offset="1" stop-color="#00CCB1"/>
</linearGradient>
<linearGradient id="paint1_linear_7_1215" x1="2042.15" y1="1636.36" x2="1599.17" y2="1380.61" gradientUnits="userSpaceOnUse">
<stop stop-color="#FFC600"/>
<stop offset="1" stop-color="#00CCB1"/>
</linearGradient>
<linearGradient id="paint2_linear_7_1215" x1="1263.28" y1="1633.83" x2="1182.91" y2="1587.43" gradientUnits="userSpaceOnUse">
<stop stop-color="#FFC600"/>
<stop offset="1" stop-color="#00CCB1"/>
</linearGradient>
<linearGradient id="paint3_linear_7_1215" x1="1389.8" y1="1246.96" x2="1586.45" y2="1246.96" gradientUnits="userSpaceOnUse">
<stop stop-color="#FFC600"/>
<stop offset="1" stop-color="#00CCB1"/>
</linearGradient>
<clipPath id="clip0_7_1215">
<rect width="2000" height="2000" fill="white"/>
</clipPath>
</defs>
</svg>
