<svg width="2000" height="2000" viewBox="0 0 2000 2000" fill="none" xmlns="http://www.w3.org/2000/svg">
<g clip-path="url(#clip0_1_100)">
<mask id="mask0_1_100" style="mask-type:luminance" maskUnits="userSpaceOnUse" x="0" y="0" width="2000" height="2000">
<path d="M2000 0H0V2000H2000V0Z" fill="white"/>
</mask>
<g mask="url(#mask0_1_100)">
<path d="M1944.22 1806.9C1942.86 1807.49 1941.47 1808 1940.04 1808.48L1934.5 1772.49C1934.5 1772.49 1899.65 1736.39 1743.54 1777.52C1751.94 1948.93 1749.85 2125.58 1742.11 2257.25C1701.2 2428.4 1181.67 2425.39 1154.44 2389.03C1127.8 2353.55 1166.03 2068.63 1193.29 1772.12C1170.03 1721.82 1089.39 1683.3 1089.39 1683.3L1071.19 1706.05C1033.29 1695.41 1024.71 1600.98 1112.57 1446.41C1168.45 1348.2 1219.85 1310.08 1285.66 1261.8C1382 1191.1 1614.49 1214.73 1686.69 1246.06C1688.74 1246.94 1690.69 1247.82 1692.49 1248.74C1757.02 1281.32 1793.53 1315.66 1840.2 1368.09C1937.13 1477.2 1961.75 1634.55 1969.34 1710.31C1976.38 1781.04 1963.36 1798.91 1944.21 1806.91L1944.22 1806.9Z" fill="url(#paint0_linear_1_100)" stroke="black" stroke-width="18.34" stroke-linecap="round" stroke-linejoin="round"/>
<path d="M1944.22 1806.9C1940.88 1657.95 1929.73 1409.38 1686.71 1246.05C1688.76 1246.93 1690.71 1247.81 1692.51 1248.73C1757.04 1281.31 1793.55 1315.65 1840.22 1368.08C1937.15 1477.19 1961.77 1634.54 1969.36 1710.3C1976.4 1781.03 1963.38 1798.9 1944.23 1806.9H1944.22Z" fill="url(#paint1_linear_1_100)"/>
<path d="M1161.95 1732C1161.95 1732 1209.4 1527 1253.57 1489.92C1197.05 1704.06 1193.29 1772.12 1193.29 1772.12L1161.95 1732Z" fill="url(#paint2_linear_1_100)"/>
<path d="M1388.44 1279.9C1388.44 1279.9 1497.1 1210.11 1581 1279.9C1429.83 1293.11 1388.44 1279.9 1388.44 1279.9Z" fill="url(#paint3_linear_1_100)"/>
<path d="M1747.86 2139.62C1747.86 2139.62 1713.01 2140.68 1660.25 2141.31C1495.74 2143.18 1157.37 2140.76 1161.99 2088.33C1200.11 1654.9 1241.16 1532.62 1241.16 1532.62C1241.16 1532.62 1313.18 1413.94 1336.22 1427.22C1359.26 1440.5 1419.39 1493.37 1569.33 1479.54C1577.47 1477.3 1585.03 1475.47 1592.04 1473.96C1673.27 1456.46 1683.32 1484.12 1683.32 1484.12C1761.54 1556.65 1747.85 2139.62 1747.85 2139.62H1747.86Z" fill="#00D7AD"/>
<path d="M1747.86 2139.62C1747.86 2139.62 1736.18 2164.82 1683.42 2165.45C1698.83 1895.79 1711.04 1747.95 1622.61 1464.82C1703.84 1447.32 1683.32 1484.13 1683.32 1484.13C1761.54 1556.66 1747.85 2139.63 1747.85 2139.63L1747.86 2139.62Z" fill="#00B575"/>
<path d="M1351.51 1433.01C1351.51 1433.01 1468.77 1522.36 1622.62 1464.81" stroke="black" stroke-width="18.34" stroke-linecap="round" stroke-linejoin="round"/>
<path d="M1312.6 1435.92C1312.6 1435.92 1271.28 1477.31 1241.17 1532.63" stroke="black" stroke-width="18.34" stroke-linecap="round" stroke-linejoin="round"/>
<path d="M1662.8 1459.49C1662.8 1459.49 1696.98 1494.95 1707.47 1513.6" stroke="black" stroke-width="18.34" stroke-linecap="round" stroke-linejoin="round"/>
<path d="M1742.1 2257.24C1749.23 2136.03 1751.57 1976.67 1745.32 1818.41C1744.29 1792.36 1732.38 1604.47 1697.68 1472.23" stroke="black" stroke-width="18.34" stroke-linecap="round" stroke-linejoin="round"/>
<path d="M1264.72 1459.49C1239.03 1518.59 1210.47 1668.62 1210.47 1668.62C1199.5 1734.69 1190.72 1801.14 1184.14 1867.79C1158.52 2127.45 1130.68 2357.39 1154.42 2389.03" stroke="black" stroke-width="18.34" stroke-linecap="round" stroke-linejoin="round"/>
<path d="M1352.92 1266.57C1417.59 1300.47 1560.59 1299.58 1641.43 1258.84" stroke="black" stroke-width="18.34" stroke-linecap="round" stroke-linejoin="round"/>
<path d="M1384.78 1274.82C1423.69 1244.14 1548.87 1250.6 1600.15 1273.19" stroke="black" stroke-width="18.34" stroke-linecap="round" stroke-linejoin="round"/>
<path d="M1530.48 1784.33L1388.4 1781.3C1373.3 1780.98 1360.88 1771.62 1357.57 1758.04L1331.28 1650.25C1326.09 1628.99 1345.66 1608.19 1369.48 1609.32L1581.98 1619.48C1604.11 1620.54 1617.9 1641.96 1609.14 1661.71L1564.11 1763.17C1558.37 1776.11 1544.86 1784.64 1530.48 1784.34V1784.33Z" fill="url(#paint4_linear_1_100)" stroke="black" stroke-width="18.34" stroke-linecap="round" stroke-linejoin="round"/>
<path d="M1940.03 1808.47L1934.49 1772.48C1934.49 1772.48 1899.64 1736.38 1743.53 1777.51C1751.93 1948.91 1749.84 2125.57 1742.1 2257.24C1701.19 2428.39 1181.66 2425.38 1154.43 2389.02C1127.79 2353.54 1166.02 2068.63 1193.28 1772.11C1170.02 1721.81 1089.38 1683.29 1089.38 1683.29L1071.18 1706.04C1033.28 1695.4 1024.7 1600.97 1112.56 1446.4C1168.44 1348.19 1219.86 1310.06 1285.65 1261.79C1384.76 1189.07 1627.91 1216.15 1692.47 1248.74C1757.03 1281.32 1793.51 1315.65 1840.18 1368.07C1937.11 1477.18 1961.73 1634.54 1969.33 1710.3C1976.89 1786.06 1961.37 1801.18 1940.02 1808.48L1940.03 1808.47Z" stroke="black" stroke-width="18.34" stroke-linecap="round" stroke-linejoin="round"/>
<path d="M1351.09 1211.94C1358.03 1208.32 1366.21 1213.86 1365.39 1221.65C1359.66 1276.02 1344.25 1437.71 1355.48 1507.9C1358.88 1548.72 1316.36 1566.87 1312.96 1483.81C1309.7 1404.14 1322.08 1272.57 1327.6 1228.94C1328 1225.76 1329.95 1222.98 1332.79 1221.49L1351.09 1211.94Z" fill="#FF0085" stroke="black" stroke-width="18.34" stroke-linecap="round" stroke-linejoin="round"/>
<path d="M1629.03 1224.73C1629.12 1270.08 1628.88 1480.74 1616.55 1533.03C1637.3 1578.31 1658.75 1550.64 1661.52 1512.07C1664.05 1476.75 1666.01 1269.84 1666.32 1235.26C1666.35 1232.15 1664.93 1229.3 1662.67 1227.83C1657.32 1224.36 1646.96 1218.35 1637.02 1216.52C1632.83 1215.75 1629.03 1219.59 1629.04 1224.73H1629.03Z" fill="#FF0085" stroke="black" stroke-width="18.34" stroke-linecap="round" stroke-linejoin="round"/>
<path d="M1372.64 1547.9C1372.64 1568.01 1356.34 1546.44 1336.24 1546.44C1316.14 1546.44 1299.84 1568.01 1299.84 1547.9C1299.84 1527.79 1316.14 1511.5 1336.24 1511.5C1356.34 1511.5 1372.64 1527.8 1372.64 1547.9Z" fill="url(#paint5_linear_1_100)" stroke="black" stroke-width="18.34" stroke-linecap="round" stroke-linejoin="round"/>
<path d="M1672.96 1564.6C1672.96 1584.71 1656.66 1563.14 1636.56 1563.14C1616.46 1563.14 1600.16 1584.71 1600.16 1564.6C1600.16 1544.49 1616.46 1528.2 1636.56 1528.2C1656.66 1528.2 1672.96 1544.5 1672.96 1564.6Z" fill="url(#paint6_linear_1_100)" stroke="black" stroke-width="18.34" stroke-linecap="round" stroke-linejoin="round"/>
</g>
</g>
<defs>
<linearGradient id="paint0_linear_1_100" x1="1043.9" y1="1812.34" x2="1971.29" y2="1812.34" gradientUnits="userSpaceOnUse">
<stop stop-color="#FF0085"/>
<stop offset="1" stop-color="#FF33FF"/>
</linearGradient>
<linearGradient id="paint1_linear_1_100" x1="2030.79" y1="1724.81" x2="1619.37" y2="1313.39" gradientUnits="userSpaceOnUse">
<stop stop-color="#FF0085"/>
<stop offset="1" stop-color="#FF33FF"/>
</linearGradient>
<linearGradient id="paint2_linear_1_100" x1="1278.91" y1="1686.49" x2="1167.83" y2="1575.42" gradientUnits="userSpaceOnUse">
<stop stop-color="#FF0085"/>
<stop offset="1" stop-color="#FF33FF"/>
</linearGradient>
<linearGradient id="paint3_linear_1_100" x1="1388.44" y1="1267.32" x2="1581" y2="1267.32" gradientUnits="userSpaceOnUse">
<stop stop-color="#FF0085"/>
<stop offset="1" stop-color="#FF33FF"/>
</linearGradient>
<linearGradient id="paint4_linear_1_100" x1="1330.43" y1="1696.8" x2="1611.8" y2="1696.8" gradientUnits="userSpaceOnUse">
<stop stop-color="#FF33FF"/>
<stop offset="1" stop-color="#00D7AD"/>
</linearGradient>
<linearGradient id="paint5_linear_1_100" x1="1299.83" y1="1533.99" x2="1372.64" y2="1533.99" gradientUnits="userSpaceOnUse">
<stop stop-color="#FF33FF"/>
<stop offset="1" stop-color="#00D7AD"/>
</linearGradient>
<linearGradient id="paint6_linear_1_100" x1="1600.15" y1="1550.69" x2="1672.96" y2="1550.69" gradientUnits="userSpaceOnUse">
<stop stop-color="#FF33FF"/>
<stop offset="1" stop-color="#00D7AD"/>
</linearGradient>
<clipPath id="clip0_1_100">
<rect width="2000" height="2000" fill="white"/>
</clipPath>
</defs>
</svg>
