<svg width="2000" height="2000" viewBox="0 0 2000 2000" fill="none" xmlns="http://www.w3.org/2000/svg">
<g clip-path="url(#clip0_655_26)">
<mask id="mask0_655_26" style="mask-type:luminance" maskUnits="userSpaceOnUse" x="0" y="0" width="2000" height="2000">
<path d="M2000 0H0V2000H2000V0Z" fill="white"/>
</mask>
<g mask="url(#mask0_655_26)">
<path d="M872.059 1685.48C911.539 1682.1 920.569 1667.43 920.569 1667.43L872.059 1685.48Z" fill="url(#paint0_linear_655_26)"/>
<path d="M872.059 1685.48C911.539 1682.1 920.569 1667.43 920.569 1667.43" stroke="black" stroke-width="18.34" stroke-linecap="round" stroke-linejoin="round"/>
<path d="M887.508 1786.43C922.718 1779.39 933.668 1772.35 950.098 1748.88L887.508 1786.43Z" fill="#A97400"/>
<path d="M887.508 1786.43C922.718 1779.39 933.668 1772.35 950.098 1748.88" stroke="black" stroke-width="18.34" stroke-linecap="round" stroke-linejoin="round"/>
<g style="mix-blend-mode:multiply">
<path d="M1251.67 1437.27C1268.67 1373.84 1249.47 1313.58 1208.78 1302.68C1168.1 1291.78 1121.34 1334.36 1104.35 1397.8C1087.35 1461.23 1106.55 1521.49 1147.23 1532.39C1187.91 1543.3 1234.67 1500.71 1251.67 1437.27Z" fill="#00C1E9"/>
</g>
<path d="M1238.83 1427.56C1256.92 1360.02 1238.62 1296.42 1197.94 1285.52C1157.25 1274.62 1109.6 1320.54 1091.5 1388.09C1073.4 1455.64 1091.71 1519.23 1132.39 1530.13C1173.07 1541.03 1220.73 1495.11 1238.83 1427.56Z" fill="#EEF7F8" stroke="black" stroke-width="18.34" stroke-miterlimit="10"/>
<path d="M1085.76 1459.86C1092.44 1516.35 1126.03 1528.43 1132.37 1530.13C1173.07 1541.04 1220.73 1495.12 1238.83 1427.57C1247.68 1394.55 1247.83 1362.43 1240.84 1336.98C1238.83 1427.57 1167.35 1564.23 1085.76 1459.86Z" fill="#BBBABA"/>
<path d="M1238.83 1427.56C1256.92 1360.02 1238.62 1296.42 1197.94 1285.52C1157.25 1274.62 1109.6 1320.54 1091.5 1388.09C1073.4 1455.64 1091.71 1519.23 1132.39 1530.13C1173.07 1541.03 1220.73 1495.11 1238.83 1427.56Z" stroke="black" stroke-width="18.34" stroke-miterlimit="10"/>
<path d="M1816.38 1421.33C1884.65 1412.99 1892.3 1273.37 1820.1 1277.97C1743.8 1282.83 1818.51 1386.31 1886.76 1219.74" stroke="black" stroke-width="18.34" stroke-linecap="round" stroke-linejoin="round"/>
<path d="M1895.6 1227.01C1915.26 1227.01 1931.2 1211.07 1931.2 1191.41C1931.2 1171.75 1915.26 1155.81 1895.6 1155.81C1875.94 1155.81 1860 1171.75 1860 1191.41C1860 1211.07 1875.94 1227.01 1895.6 1227.01Z" fill="url(#paint1_linear_655_26)" stroke="black" stroke-width="18.34" stroke-linecap="round" stroke-linejoin="round"/>
<path d="M1200.12 1735.58C1098.5 1868.72 1038.85 1888.22 867.93 1881.33C867.93 1881.33 1060.85 1978.74 1182.92 1880.14" fill="#FFC700"/>
<path d="M1200.12 1735.58C1098.5 1868.72 1038.85 1888.22 867.93 1881.33C867.93 1881.33 1060.85 1978.74 1182.92 1880.14" stroke="black" stroke-width="18.34" stroke-linecap="round" stroke-linejoin="round"/>
<path d="M1188.31 1750.78C1159.66 1886.15 1125.39 1914.35 1035.97 1924.12C1149.64 1913.4 1185.62 1884.69 1186.43 1861.23C1187.24 1837.77 1188.3 1750.78 1188.3 1750.78H1188.31Z" fill="#CE6011"/>
<path d="M1200.12 1735.58C1098.5 1868.72 1038.85 1888.22 867.93 1881.33C867.93 1881.33 1060.85 1978.74 1182.92 1880.14" stroke="black" stroke-width="18.34" stroke-linecap="round" stroke-linejoin="round"/>
<path d="M1200.12 1735.58C1193.83 1779.53 1188.5 1823.62 1184.14 1867.79C1183.73 1871.91 1183.33 1876.03 1182.92 1880.14" stroke="black" stroke-width="18.34" stroke-linecap="round" stroke-linejoin="round"/>
</g>
</g>
<defs>
<linearGradient id="paint0_linear_655_26" x1="910.589" y1="1684.7" x2="882.029" y2="1668.21" gradientUnits="userSpaceOnUse">
<stop stop-color="#FFB000"/>
<stop offset="1" stop-color="#FFC800"/>
</linearGradient>
<linearGradient id="paint1_linear_655_26" x1="1859.99" y1="1191.41" x2="1931.2" y2="1191.41" gradientUnits="userSpaceOnUse">
<stop stop-color="#FF2C10"/>
<stop offset="1" stop-color="#FF0085"/>
</linearGradient>
<clipPath id="clip0_655_26">
<rect width="2000" height="2000" fill="white"/>
</clipPath>
</defs>
</svg>
