<svg width="2000" height="2000" viewBox="0 0 2000 2000" fill="none" xmlns="http://www.w3.org/2000/svg">
<g clip-path="url(#clip0_655_83)">
<mask id="mask0_655_83" style="mask-type:luminance" maskUnits="userSpaceOnUse" x="0" y="0" width="2000" height="2000">
<path d="M2000 0H0V2000H2000V0Z" fill="white"/>
</mask>
<g mask="url(#mask0_655_83)">
<path d="M1253.41 1407.32C1253.41 1407.32 1144.28 1854.5 1153.29 2145.7L1777.08 2135.37C1777.08 2135.37 1749.3 1571.5 1705.56 1520.11C1705.56 1520.11 1610.93 1443.32 1429.1 1471.44C1289.39 1493.05 1253.41 1407.32 1253.41 1407.32Z" fill="#00EEC9"/>
<path d="M1746.07 2135.88L1777.08 2135.37C1777.08 2135.37 1749.3 1571.5 1705.56 1520.11C1705.56 1520.11 1682.25 1501.23 1636.61 1485.62C1690.85 1648.69 1765.13 1919.79 1746.07 2135.88Z" fill="#00B599"/>
<path d="M1253.41 1407.32C1253.41 1407.32 1144.28 1854.5 1153.29 2145.7L1777.08 2135.37C1777.08 2135.37 1749.3 1571.5 1705.56 1520.11C1705.56 1520.11 1610.93 1443.32 1429.1 1471.44C1289.39 1493.05 1253.41 1407.32 1253.41 1407.32Z" stroke="black" stroke-width="18.34" stroke-linecap="round" stroke-linejoin="round"/>
<path d="M1822.72 2145.7C1822.72 2145.7 2033.02 2070.11 1404.42 1895.48C775.82 1720.86 1147.21 1432.99 1158.98 1447.87L1131.84 1519.49C1131.84 1519.49 2222.53 1923.47 1822.72 2145.7Z" fill="url(#paint0_linear_655_83)"/>
<path d="M1844.35 2132.5C1879.28 2109.16 1899.28 2084.05 1907.07 2057.8C1814.66 1965.46 1466.22 1860.6 1315.01 1823.99C1176.89 1790.55 1077.49 1667.15 1041.79 1610.77C1031.51 1700.87 1101.33 1811.28 1404.42 1895.48C1883.21 2028.49 1875.31 2104.04 1844.35 2132.5Z" fill="url(#paint1_linear_655_83)"/>
<path d="M1133.43 1522.52C1133.43 1522.52 2222.53 1923.47 1822.72 2145.7" stroke="black" stroke-width="18.34" stroke-linecap="round" stroke-linejoin="round"/>
<path d="M1822.72 2145.7C1822.72 2145.7 2033.02 2070.11 1404.42 1895.48C775.821 1720.86 1138.88 1440.35 1165.04 1443.91" stroke="black" stroke-width="18.34" stroke-linecap="round" stroke-linejoin="round"/>
<path d="M1281.61 2302.67C1281.61 2302.67 889.12 1933.71 1511.41 1737.79C2259.44 1502.29 1881.59 1272.12 1725.32 1294.07L1756.49 1326.44C1756.49 1326.44 771.63 1827.04 1171.44 2049.26" fill="url(#paint2_linear_655_83)"/>
<path d="M1511.41 1737.8C1739.76 1666.98 1864.62 1583.1 1928.19 1520.53C1798.13 1570.58 1496.71 1670.67 1398.52 1692.11C1276.7 1718.71 1038.02 1889.75 1171.45 2049.27C1184.47 2064.83 1166.52 2079.22 1178.37 2093.49L1312.37 2217.31C1312.37 2217.31 910.2 1924.26 1511.43 1737.79L1511.41 1737.8Z" fill="url(#paint3_linear_655_83)"/>
<path d="M1756.86 1329.07C1756.86 1329.07 771.642 1827.04 1171.45 2049.27" stroke="black" stroke-width="18.34" stroke-linecap="round" stroke-linejoin="round"/>
<path d="M1320.67 2346.09C1320.67 2346.09 889.121 1933.72 1511.42 1737.8C2259.45 1502.3 1875.74 1271.04 1719.48 1293" stroke="black" stroke-width="18.34" stroke-linecap="round" stroke-linejoin="round"/>
<path d="M1441.97 1223.53C1441.97 1223.53 1275.89 1276.97 1275.89 1436.92" stroke="black" stroke-width="18.34" stroke-linecap="round" stroke-linejoin="round"/>
<path d="M1558.76 1224.59C1558.76 1224.59 1635.35 1264.6 1653.77 1383.91" stroke="black" stroke-width="18.34" stroke-linecap="round" stroke-linejoin="round"/>
<path d="M1165.04 1443.9C1153.08 1470.06 1142.55 1496.8 1133.43 1522.52L1165.04 1443.9Z" fill="#FDC489"/>
<path d="M1165.04 1443.9C1153.08 1470.06 1142.55 1496.8 1133.43 1522.52" stroke="black" stroke-width="18.34" stroke-linecap="round" stroke-linejoin="round"/>
<path d="M1756.86 1329.07C1745.32 1315.74 1732.79 1303.73 1719.47 1292.99" stroke="black" stroke-width="18.34" stroke-linecap="round" stroke-linejoin="round"/>
</g>
</g>
<defs>
<linearGradient id="paint0_linear_655_83" x1="1039.38" y1="1796.51" x2="1910.82" y2="1796.51" gradientUnits="userSpaceOnUse">
<stop stop-color="#AE00A8"/>
<stop offset="1" stop-color="#FF2C10"/>
</linearGradient>
<linearGradient id="paint1_linear_655_83" x1="1791.29" y1="2191.73" x2="1126.06" y2="1526.5" gradientUnits="userSpaceOnUse">
<stop stop-color="#AE00A8"/>
<stop offset="1" stop-color="#FF2C10"/>
</linearGradient>
<linearGradient id="paint2_linear_655_83" x1="1075.94" y1="1797.65" x2="1960.15" y2="1797.65" gradientUnits="userSpaceOnUse">
<stop stop-color="#AE00A8"/>
<stop offset="1" stop-color="#FF0036"/>
</linearGradient>
<linearGradient id="paint3_linear_655_83" x1="1700.35" y1="1915.15" x2="1271.16" y2="1667.36" gradientUnits="userSpaceOnUse">
<stop stop-color="#FF0036"/>
<stop offset="1" stop-color="#AE00A8"/>
</linearGradient>
<clipPath id="clip0_655_83">
<rect width="2000" height="2000" fill="white"/>
</clipPath>
</defs>
</svg>
