<svg width="2000" height="2000" viewBox="0 0 2000 2000" fill="none" xmlns="http://www.w3.org/2000/svg">
<mask id="mask0_554_246" style="mask-type:luminance" maskUnits="userSpaceOnUse" x="0" y="0" width="2000" height="2000">
<path d="M2000 0H0V2000H2000V0Z" fill="white"/>
</mask>
<g mask="url(#mask0_554_246)">
<path d="M1282.07 1270.99C1312.87 1247.56 1333.62 1213.8 1353.92 1252.18C1374.22 1290.56 1418.37 1371.52 1432.57 1384.63C1388.23 1434.75 1221.23 1624.89 1211.59 1662.82C1201.94 1700.75 1165.22 2054.53 1165.22 2054.53C1165.22 2054.53 1137.65 2121.67 1124.44 1813.58C1095.39 1718.51 1085.7 1699.18 1073.38 1693.93C1061.06 1688.68 1058.57 1680.2 1081.82 1633.34C1102.15 1577.88 1158.01 1356.9 1282.06 1270.99H1282.07ZM1990.14 2027.96C1978.13 1855.85 1941.44 1551.55 1847.71 1392.16C1786 1282.13 1673.26 1240.05 1673.26 1240.05C1673.26 1240.05 1661.27 1219.94 1599.39 1278.22C1537.51 1336.5 1230.48 1667.22 1196.7 1760.2C1180.27 1939.9 1162.92 2073.32 1162.92 2073.32C1162.92 2073.32 1731.3 2130.69 1745.97 2128.02C1760.65 2125.35 1990.13 2027.95 1990.13 2027.95L1990.14 2027.96Z" fill="url(#paint0_linear_554_246)"/>
<path d="M1579.29 1220.06C1604.23 1191.32 1615.22 1180.51 1631.7 1206.96C1648.18 1233.41 1651.57 1242.04 1619.87 1269.51C1561.44 1308.22 1215.8 1709.92 1200.17 1736.55C1216.65 1655.4 1190.39 1673.09 1238.81 1621.13C1288.5 1561.99 1530.26 1272.89 1530.26 1272.89L1579.29 1220.06Z" fill="#F269FF"/>
<path d="M1383.18 1205.27C1394.36 1223.37 1468.98 1349.82 1459.68 1359.54C1450.38 1369.26 1442.03 1409.02 1415.99 1363.57C1389.94 1318.12 1335.38 1233.75 1351.07 1220.85C1366.76 1207.95 1383.18 1205.27 1383.18 1205.27Z" fill="#F269FF"/>
<path d="M1078.69 1692.71C1058.96 1682.95 1048.06 1704.57 1045.59 1726.05C1077.95 1712.96 1078.69 1692.71 1078.69 1692.71Z" fill="#D70088"/>
<path d="M1064.49 1966.41C1065.81 1951.17 1071.47 1952.54 1097.29 1951.16C1123.11 1949.78 1138.61 1938.84 1137.21 1969.42C1135.81 2000 1129.22 2048.79 1114.62 2041.49C1100.02 2034.19 1070.02 2023.16 1064.49 1966.41Z" fill="#D70088"/>
<path d="M1632.52 1248.74C1970.11 1390.41 1812.49 1644.85 1956.6 2049.02C2059.4 2337.34 1821.5 2073.79 1821.5 2073.79C1821.5 2073.79 1981.37 2123.33 1983.62 2051.27C1985.87 1979.21 1972.26 1860.85 1960.78 1792.2C1949.3 1723.55 1907.67 1431.55 1809.42 1338.36C1711.17 1245.17 1642.81 1212.89 1632.52 1248.73V1248.74Z" fill="url(#paint1_linear_554_246)"/>
<path d="M1682.63 1433.48C1727.68 1603.08 1702.51 1709.08 1649.5 1828.33C1596.5 1947.58 1587.22 2160.91 1587.22 2160.91C1587.22 2160.91 2011.91 2106.85 1999.99 2063.12C1988.07 2019.39 1964.78 1733.39 1902.57 1512.98C1884.04 1447.34 1803.19 1265.2 1648.17 1233.4L1612.39 1188.35C1612.39 1188.35 1259.48 1559.96 1210.45 1668.62" stroke="black" stroke-width="18.34" stroke-linecap="round" stroke-linejoin="round"/>
<path d="M1463.75 1347.24C1463.75 1347.24 1406.63 1255.66 1383.67 1199.54C1383.67 1199.54 1370.54 1200.52 1342.86 1228.88C1342.86 1228.88 1178.33 1313.06 1119.66 1519.68C1085.22 1645.95 1050.05 1698.44 1050.05 1698.44" stroke="black" stroke-width="18.34" stroke-linecap="round" stroke-linejoin="round"/>
<path d="M1041.44 1728.63C1045.07 1704.82 1051.71 1690.03 1061.07 1688.68C1066.87 1687.84 1073.18 1692.28 1079.6 1700.97C1078.21 1703.21 1076.67 1705.37 1075.05 1707.46C1064.48 1721.14 1053.11 1727.53 1041.44 1728.63Z" stroke="black" stroke-width="18.34" stroke-linecap="round" stroke-linejoin="round"/>
<path d="M1114.48 2054.71C1097.09 2057.24 1075.33 2012.56 1059.41 1946.88C1084.65 1952.27 1110.74 1952.68 1136.93 1947.61C1138.91 2008.84 1130.8 2052.32 1114.48 2054.7V2054.71Z" stroke="black" stroke-width="18.34" stroke-linecap="round" stroke-linejoin="round"/>
<path d="M1136.93 1947.62C1136.38 1930.45 1135.02 1911.85 1132.86 1892.37C1131.87 1883.64 1130.73 1874.69 1129.41 1865.62C1118.37 1790.08 1098.52 1726.76 1079.59 1700.97" stroke="black" stroke-width="18.34" stroke-linecap="round" stroke-linejoin="round"/>
<path d="M1264.72 1459.49C1239.03 1518.59 1210.47 1668.62 1210.47 1668.62C1199.5 1734.69 1190.72 1801.14 1184.14 1867.79C1158.52 2127.45 1130.68 2357.39 1154.42 2389.03" stroke="black" stroke-width="18.34" stroke-linecap="round" stroke-linejoin="round"/>
<path d="M1432.58 1384.63C1401.57 1353.71 1342.86 1228.87 1342.86 1228.87" stroke="black" stroke-width="18.34" stroke-linecap="round" stroke-linejoin="round"/>
<path d="M1648.18 1233.4C1648.18 1233.4 1492.94 1384.68 1442.67 1444.02C1392.4 1503.36 1220.62 1698.89 1199.23 1741.87" stroke="black" stroke-width="18.34" stroke-linecap="round" stroke-linejoin="round"/>
<path d="M1792.77 1609.71C1739.89 1742.54 1633.63 1816.86 1613.75 1947.62" stroke="black" stroke-width="18.34" stroke-linecap="round" stroke-linejoin="round"/>
</g>
<defs>
<linearGradient id="paint0_linear_554_246" x1="1064.17" y1="1681.46" x2="1990.14" y2="1681.46" gradientUnits="userSpaceOnUse">
<stop stop-color="#2D1FC3"/>
<stop offset="1" stop-color="#00C1E9"/>
</linearGradient>
<linearGradient id="paint1_linear_554_246" x1="2131.83" y1="2023.01" x2="1493.08" y2="1384.26" gradientUnits="userSpaceOnUse">
<stop stop-color="#00C1E9"/>
<stop offset="1" stop-color="#2D1FC3"/>
</linearGradient>
</defs>
</svg>
