<svg width="2000" height="2000" viewBox="0 0 2000 2000" fill="none" xmlns="http://www.w3.org/2000/svg">
<mask id="mask0_198_99" style="mask-type:luminance" maskUnits="userSpaceOnUse" x="0" y="0" width="2000" height="2000">
<path d="M2000 0H0V2000H2000V0Z" fill="white"/>
</mask>
<g mask="url(#mask0_198_99)">
<path d="M1892.51 2261.43L1155.6 2209.92C1155.6 2209.92 1156.44 2161.42 1172.62 2009.71C1172.62 2009.64 1172.66 2009.56 1172.66 2009.49C1175.37 1984.07 1178.53 1955.74 1182.16 1924.26C1084.83 1990 960.36 1957.44 902.25 1905.72C877.04 1881.44 946.33 1839.73 946.33 1839.73C946.33 1839.73 1001.09 1765.46 1008.91 1742.46C1016.76 1719.46 1020.35 1707.8 1033.35 1706.67C1073.56 1738.37 1085.81 1649.51 1098.36 1606.73C1110.91 1563.95 1165.02 1438.55 1170.93 1398.34C1186.33 1381.4 1184.56 1363.85 1218.71 1332.89C1215.85 1310.99 1197.19 1277.45 1268.31 1227.16C1292.3 1213.88 1338.27 1188.15 1391.69 1170.21C1466.02 1149.92 1585.2 1158.55 1663.28 1193C1664.2 1193.37 1665.08 1193.77 1665.96 1194.17C1665.56 1196.22 1698.5 1204.87 1698.36 1206.77C1697.81 1213.09 1816.86 1254.7 1773.3 1336.21C1786.77 1362.26 1822.71 1415.49 1835.02 1447.75C1921.93 1590.14 1951.43 1861.15 1953.34 1878.28C1955.28 1895.45 1961.74 2027.45 1983.5 2198.31C2005.29 2369.2 1892.51 2261.41 1892.51 2261.41V2261.43Z" fill="url(#paint0_linear_198_99)"/>
<path d="M1171.8 2009.21C1174.51 1983.79 1177.67 1955.46 1181.3 1923.98C1083.97 1989.72 926.361 1937.72 894.771 1884.58C1004.91 1919.29 1168.68 1920.68 1204.19 1732.91C1181.89 1960.41 1173.04 2003.81 1171.8 2009.21Z" fill="url(#paint1_linear_198_99)"/>
<path d="M1434.54 1206.28C1404.64 1207.06 1373.64 1224.19 1379.91 1265.39C1386.18 1306.59 1448.87 1424.8 1493.65 1389.43C1538.43 1354.05 1607.84 1299.87 1618.14 1244.79C1628.44 1189.71 1587.69 1189.71 1434.54 1206.28Z" fill="#00C1E9"/>
<g style="mix-blend-mode:multiply">
<path d="M1434.36 1258.02C1458.03 1238.07 1503.35 1225.15 1546.64 1249.87C1589.93 1274.59 1503.56 1274.59 1475.96 1271.21C1448.36 1267.83 1434.36 1258.02 1434.36 1258.02Z" fill="#00C1E9"/>
</g>
<path d="M1767.96 2239.62C1812.65 2069.68 1763.25 1653.02 1737.37 1515.06C1744.54 1749.21 1745.54 1871.49 1748.94 1902.71C1752.35 1933.93 1737.37 2279.95 1737.37 2279.95L1756.92 2268.24L1767.96 2239.62Z" fill="url(#paint2_linear_198_99)"/>
<path d="M1742.1 2257.24C1749.23 2136.03 1751.57 1976.67 1745.32 1818.41C1744.29 1792.36 1732.38 1604.47 1697.68 1472.23" stroke="black" stroke-width="18.34" stroke-linecap="round" stroke-linejoin="round"/>
<path d="M1264.72 1459.49C1239.03 1518.59 1210.47 1668.62 1210.47 1668.62C1199.5 1734.69 1190.72 1801.14 1184.14 1867.79C1158.52 2127.45 1130.68 2357.39 1154.42 2389.03" stroke="black" stroke-width="18.34" stroke-linecap="round" stroke-linejoin="round"/>
<path d="M1027.99 1697.22C1040.48 1706.17 1050.95 1711.97 1055.26 1710.89C1090.2 1702.02 1111.29 1463.7 1218.72 1332.9" stroke="black" stroke-width="18.34" stroke-linecap="round" stroke-linejoin="round"/>
<path d="M1177.42 1934.57C1114.45 1977.67 955.01 1963.32 871.02 1876.45" stroke="black" stroke-width="18.34" stroke-linecap="round" stroke-linejoin="round"/>
<path d="M1771.13 1338.2C1910.7 1505.03 1960.92 1906.05 1960.92 2000C1960.92 2107.62 2002.67 2254.14 1981.32 2261.45C1981.32 2261.45 1749.82 2125.58 1742.08 2257.25" stroke="black" stroke-width="18.34" stroke-linecap="round" stroke-linejoin="round"/>
<path d="M1352.59 1226.05C1431.69 1181.52 1603.99 1195.24 1658.92 1223.68" stroke="black" stroke-width="18.34" stroke-linecap="round" stroke-linejoin="round"/>
<path d="M1621.85 1211.34C1620.76 1221.72 1629.08 1319.69 1466.7 1400.96" stroke="black" stroke-width="18.34" stroke-linecap="round" stroke-linejoin="round"/>
<path d="M1404.64 1207.07C1323.38 1274.78 1466.7 1400.96 1466.7 1400.96C1426.73 1650.5 1425.22 1950.53 1429.11 2193.12" stroke="black" stroke-width="18.34" stroke-linecap="round" stroke-linejoin="round"/>
<path d="M1213.54 1653.05C1237.21 1503.57 1229.61 1475.97 1229.61 1475.97" stroke="black" stroke-width="18.34" stroke-linecap="round" stroke-linejoin="round"/>
<path d="M1737.37 1715.88V1504.05" stroke="black" stroke-width="18.34" stroke-linecap="round" stroke-linejoin="round"/>
<path d="M1055.25 1710.89C1085.85 1705.51 1122.15 1675.81 1153.49 1670.87" stroke="black" stroke-width="18.34" stroke-linecap="round" stroke-linejoin="round"/>
<path d="M1416.32 1250.31C1480.29 1301.65 1585.57 1258.43 1585.57 1258.43" stroke="black" stroke-width="18.34" stroke-linecap="round" stroke-linejoin="round"/>
<path d="M1569.5 1263.96C1496.77 1202.76 1431.46 1260.34 1431.46 1260.34" stroke="black" stroke-width="18.34" stroke-linecap="round" stroke-linejoin="round"/>
<path d="M1785.97 1306.14C1785.97 1366.91 1615.06 1402.79 1457.57 1402.79C1300.08 1402.79 1215.67 1366.91 1215.67 1306.14C1215.67 1245.37 1351.28 1153.56 1508.76 1153.56C1666.24 1153.56 1785.97 1245.37 1785.97 1306.14Z" stroke="black" stroke-width="18.34" stroke-linecap="round" stroke-linejoin="round"/>
<path d="M913.03 1860.7C901.95 1869.69 892.3 1873.91 884.89 1872.44C881.66 1871.82 876.09 1870.28 875.17 1867.08C873.12 1860.11 882.95 1845.14 893.44 1833.22C899.57 1842.8 906.1 1851.97 913.03 1860.7ZM1012.42 1689.37C1009.49 1687.21 1001.08 1688.82 991.95 1695.35C998.59 1701.62 1005.45 1707.09 1012.24 1711.27C1016.49 1697.04 1014.33 1690.76 1012.42 1689.37Z" fill="url(#paint3_linear_198_99)"/>
<path d="M978.43 1694.94C1005.84 1667.52 1046.01 1672.02 1008.9 1742.46C971.79 1812.9 918.34 1888.37 883.12 1881.45C838.05 1872.6 894.98 1818.36 894.98 1818.36" stroke="black" stroke-width="18.34" stroke-linecap="round" stroke-linejoin="round"/>
</g>
<defs>
<linearGradient id="paint0_linear_198_99" x1="896.73" y1="1727.18" x2="1986.29" y2="1727.18" gradientUnits="userSpaceOnUse">
<stop stop-color="#F269FF"/>
<stop offset="1" stop-color="#FF0085"/>
</linearGradient>
<linearGradient id="paint1_linear_198_99" x1="894.771" y1="1871.06" x2="1204.19" y2="1871.06" gradientUnits="userSpaceOnUse">
<stop stop-color="#FF0036"/>
<stop offset="1" stop-color="#F269FF"/>
</linearGradient>
<linearGradient id="paint2_linear_198_99" x1="1737.37" y1="1897.5" x2="1785.97" y2="1897.5" gradientUnits="userSpaceOnUse">
<stop stop-color="#FF0036"/>
<stop offset="1" stop-color="#F269FF"/>
</linearGradient>
<linearGradient id="paint3_linear_198_99" x1="874.9" y1="1780.6" x2="1014.7" y2="1780.6" gradientUnits="userSpaceOnUse">
<stop stop-color="#FF0036"/>
<stop offset="1" stop-color="#F269FF"/>
</linearGradient>
</defs>
</svg>
