<svg width="2000" height="2000" viewBox="0 0 2000 2000" fill="none" xmlns="http://www.w3.org/2000/svg">
<g clip-path="url(#clip0_28_63)">
<mask id="mask0_28_63" style="mask-type:luminance" maskUnits="userSpaceOnUse" x="0" y="-1" width="2000" height="2000">
<path d="M2000 -1H0V1999H2000V-1Z" fill="white"/>
</mask>
<g mask="url(#mask0_28_63)">
<path d="M1983.5 2197.3C1961.7 2026.4 1955.3 1894.4 1953.3 1877.3C1951.4 1860.2 1921.9 1589.1 1835 1446.8C1778.2 1297.9 1699 1286.5 1711.1 1264.7C1711.2 1261.6 1709.9 1258.8 1707.8 1256.2C1699.4 1245.9 1677.4 1237.7 1668.6 1219.5C1665.8 1213.8 1664.3 1207.1 1665 1199C1665.2 1197.1 1665.4 1195.1 1665.8 1193.1C1664.9 1192.7 1664 1192.3 1663.1 1191.9C1585 1157.5 1464.4 1156.9 1390.1 1177.2C1336.7 1195.1 1333.4 1236.8 1309.4 1250.1C1290.5 1270.9 1176.7 1357 1170.8 1397.3C1164.9 1437.5 1110.8 1562.9 1098.2 1605.7C1085.6 1648.5 1083.1 1702.1 1055.1 1709.9C1043.6 1705.3 1034.5 1700.7 1027.8 1696.2C1020 1719.2 992.1 1817.3 930.4 1856.1L883 1880.4C883 1880.4 900.1 1908.6 983.1 1941.8C1031.9 1961.3 1084.7 1989 1182 1923.3C1178.4 1954.8 1175.2 1983.1 1172.5 2008.5C1172.5 2008.6 1172.5 2008.7 1172.5 2008.7C1156.3 2160.4 1155.5 2208.9 1155.5 2208.9L1892.4 2260.4C1892.5 2260.4 2005.3 2368.2 1983.5 2197.3ZM1614.1 1239.9C1593.3 1290 1592.8 1326 1553.1 1332.5C1527.2 1370.2 1477.7 1609.7 1475.1 1639.4C1457.4 1682.4 1456.5 1536.7 1452.3 1496.1C1448.1 1455.5 1437.6 1341 1423.2 1326.3C1408.9 1311.6 1394.9 1281.3 1401.3 1249.3C1423.8 1238.2 1402.6 1237.6 1471.7 1235.7C1540.8 1233.8 1574.4 1231.8 1614.1 1239.9Z" fill="url(#paint0_linear_28_63)"/>
<path d="M1665.1 1199.1C1664.5 1196.7 1663.9 1194.3 1663.3 1192C1664.2 1192.4 1665.1 1192.8 1666 1193.2C1665.6 1195.2 1665.3 1197.2 1665.1 1199.1Z" fill="url(#paint1_linear_28_63)"/>
<path d="M1707.8 1256.2C1691.6 1296.6 1676.7 1347.2 1604.1 1414.2C1662.6 1331.6 1675.2 1275.7 1668.7 1219.5C1677.4 1237.8 1699.5 1245.9 1707.8 1256.2Z" fill="url(#paint2_linear_28_63)"/>
<path d="M1538.3 1364.5C1538.3 1364.5 1575.4 1300.7 1606.7 1411.3C1597.8 1334.7 1562.6 1285.2 1538.3 1364.5Z" fill="url(#paint3_linear_28_63)"/>
<path d="M1368 1346.4C1390.3 1312.4 1442.3 1367.5 1445.8 1420.8C1444.2 1344 1418.4 1265 1368 1346.4Z" fill="url(#paint4_linear_28_63)"/>
<path d="M1768 2238.6C1812.7 2068.7 1763.3 1652 1737.4 1514C1744.6 1748.2 1745.6 1870.4 1749 1901.7C1752.4 1932.9 1737.4 2278.9 1737.4 2278.9L1757 2267.2L1768 2238.6Z" fill="url(#paint5_linear_28_63)"/>
<path d="M1171.8 2008.2C1174.5 1982.8 1177.7 1954.4 1181.3 1923C1084 1988.7 926.4 1936.7 894.8 1883.6C1004.9 1918.3 1168.7 1919.7 1204.2 1731.9C1181.9 1959.4 1173 2002.8 1171.8 2008.2Z" fill="url(#paint6_linear_28_63)"/>
<path d="M1742.1 2256.2C1749.2 2135 1751.6 1975.6 1745.3 1817.4C1744.3 1791.3 1732.4 1603.5 1697.7 1471.2" stroke="black" stroke-width="18.34" stroke-linecap="round" stroke-linejoin="round"/>
<path d="M1264.7 1458.5C1239 1517.6 1210.5 1667.6 1210.5 1667.6C1199.5 1733.7 1190.7 1800.1 1184.2 1866.8C1158.6 2126.5 1130.7 2356.4 1154.5 2388" stroke="black" stroke-width="18.34" stroke-linecap="round" stroke-linejoin="round"/>
<path d="M1055.2 1709.9C1097.8 1699.1 1119.9 1346.7 1303.2 1264.7" stroke="black" stroke-width="18.34" stroke-linecap="round" stroke-linejoin="round"/>
<path d="M1704.4 1280.9C1895 1380.8 1960.9 1891.4 1960.9 1999C1960.9 2106.6 2002.7 2253.1 1981.3 2260.4C1981.3 2260.4 1749.8 2124.5 1742.1 2256.2" stroke="black" stroke-width="18.34" stroke-linecap="round" stroke-linejoin="round"/>
<path d="M1467.9 1726.8C1471.4 1577.3 1544.8 1265 1585.5 1335.1C1612.1 1381 1604.1 1414.3 1604.1 1414.3C1604.1 1414.3 1708.6 1303.8 1711.2 1257.6C1693.2 1237.2 1671.2 1253.9 1663 1200.4C1659.3 1176.3 1556.2 1167.4 1485.2 1167.4C1414.2 1167.4 1356.6 1181 1346.5 1200C1334.6 1222.5 1339.4 1241.3 1309.7 1245.6C1292.3 1271.9 1302 1384.3 1348.9 1408.6C1348.9 1408.6 1376.4 1279.4 1413.5 1314.9C1452 1353.4 1449.3 1479.7 1466.1 1701.2C1467.4 1718.4 1467.8 1735.8 1467.2 1753L1454.2 2125.6" stroke="black" stroke-width="18.34" stroke-linecap="round" stroke-linejoin="round"/>
<path d="M1374.3 1223.4C1453.4 1178.9 1584.5 1189.2 1639.4 1217.7" stroke="black" stroke-width="18.34" stroke-linecap="round" stroke-linejoin="round"/>
<path d="M1572.9 1325C1601.9 1311.9 1620.7 1220.7 1621.8 1210.4" stroke="black" stroke-width="18.34" stroke-linecap="round" stroke-linejoin="round"/>
<path d="M1404.3 1309.4C1404.3 1309.4 1384.3 1247 1403.1 1210.4" stroke="black" stroke-width="18.34" stroke-linecap="round" stroke-linejoin="round"/>
<path d="M1213.5 1652.1C1237.2 1502.6 1229.6 1475 1229.6 1475" stroke="black" stroke-width="18.34" stroke-linecap="round" stroke-linejoin="round"/>
<path d="M1737.4 1714.9V1503.1" stroke="black" stroke-width="18.34" stroke-linecap="round" stroke-linejoin="round"/>
<path d="M1055.2 1709.9C1085.8 1704.5 1122.1 1674.8 1153.4 1669.9" stroke="black" stroke-width="18.34" stroke-linecap="round" stroke-linejoin="round"/>
<path d="M1028 1696.2C1040.5 1705.1 1051 1711 1055.3 1709.9C1087.6 1701.7 1108.1 1497.1 1196 1362.9" stroke="black" stroke-width="18.34" stroke-linecap="round" stroke-linejoin="round"/>
<path d="M1177.4 1933.6C1114.4 1976.7 955 1962.4 871 1875.5" stroke="black" stroke-width="18.34" stroke-linecap="round" stroke-linejoin="round"/>
<path d="M913 1859.7C901.9 1868.7 892.3 1872.9 884.9 1871.4C881.7 1870.8 876.1 1869.2 875.2 1866C873.2 1859 883 1844.1 893.5 1832.1C899.6 1841.8 906.1 1851 913 1859.7ZM1012.4 1688.4C1009.5 1686.2 1001.1 1687.8 991.9 1694.4C998.5 1700.7 1005.4 1706.1 1012.2 1710.3C1016.5 1696 1014.3 1689.8 1012.4 1688.4Z" fill="url(#paint7_linear_28_63)"/>
<path d="M978.4 1693.9C1005.8 1666.5 1046 1671 1008.9 1741.4C971.8 1811.8 918.3 1887.3 883.1 1880.4C838 1871.6 895 1817.3 895 1817.3" stroke="black" stroke-width="18.34" stroke-linecap="round" stroke-linejoin="round"/>
<path d="M1395.1 1249.9C1443.5 1224.7 1548.9 1228.5 1612.7 1244.5" stroke="black" stroke-width="18.34" stroke-linecap="round" stroke-linejoin="round"/>
<path d="M1554.2 1522.6C1579.4 1524.5 1624.3 1526.9 1655.7 1524C1667.4 1522.9 1677.9 1531.2 1679.5 1542.9C1685 1581.3 1685.7 1656.8 1605.1 1655C1523.7 1653.2 1525.2 1578 1530.8 1541.1C1532.6 1529.8 1542.8 1521.8 1554.2 1522.6Z" fill="url(#paint8_linear_28_63)" stroke="black" stroke-width="18.34" stroke-linecap="round" stroke-linejoin="round"/>
</g>
</g>
<defs>
<linearGradient id="paint0_linear_28_63" x1="883.13" y1="1728.86" x2="1986.26" y2="1728.86" gradientUnits="userSpaceOnUse">
<stop stop-color="#FF000C"/>
<stop offset="1" stop-color="#FFA500"/>
</linearGradient>
<linearGradient id="paint1_linear_28_63" x1="1663.28" y1="1195.56" x2="1665.96" y2="1195.56" gradientUnits="userSpaceOnUse">
<stop stop-color="#00EEC9"/>
<stop offset="1" stop-color="#FFC700"/>
</linearGradient>
<linearGradient id="paint2_linear_28_63" x1="1618.46" y1="1306.59" x2="1670.54" y2="1336.66" gradientUnits="userSpaceOnUse">
<stop stop-color="#FF000C"/>
<stop offset="1" stop-color="#FFA500"/>
</linearGradient>
<linearGradient id="paint3_linear_28_63" x1="1546.29" y1="1343.31" x2="1621.14" y2="1386.52" gradientUnits="userSpaceOnUse">
<stop stop-color="#FF000C"/>
<stop offset="1" stop-color="#FFA500"/>
</linearGradient>
<linearGradient id="paint4_linear_28_63" x1="1374.45" y1="1335.21" x2="1465.02" y2="1387.5" gradientUnits="userSpaceOnUse">
<stop stop-color="#FF000C"/>
<stop offset="1" stop-color="#FFA500"/>
</linearGradient>
<linearGradient id="paint5_linear_28_63" x1="1932.51" y1="2091.65" x2="1546.15" y2="1705.28" gradientUnits="userSpaceOnUse">
<stop stop-color="#FF000C"/>
<stop offset="1" stop-color="#FFA500"/>
</linearGradient>
<linearGradient id="paint6_linear_28_63" x1="1210.17" y1="1969.84" x2="1009.35" y2="1769.01" gradientUnits="userSpaceOnUse">
<stop stop-color="#FF000C"/>
<stop offset="1" stop-color="#FFA500"/>
</linearGradient>
<linearGradient id="paint7_linear_28_63" x1="874.897" y1="1779.6" x2="1014.7" y2="1779.6" gradientUnits="userSpaceOnUse">
<stop stop-color="#FF5DFF"/>
<stop offset="1" stop-color="#00C2ED"/>
</linearGradient>
<linearGradient id="paint8_linear_28_63" x1="1647.64" y1="1646.06" x2="1568.93" y2="1509.73" gradientUnits="userSpaceOnUse">
<stop stop-color="#00EEC9"/>
<stop offset="1" stop-color="#FFC700"/>
</linearGradient>
<clipPath id="clip0_28_63">
<rect width="2000" height="2000" fill="white"/>
</clipPath>
</defs>
</svg>
