<svg width="2000" height="2000" viewBox="0 0 2000 2000" fill="none" xmlns="http://www.w3.org/2000/svg">
<g clip-path="url(#clip0_2_1008)">
<mask id="mask0_2_1008" style="mask-type:luminance" maskUnits="userSpaceOnUse" x="0" y="0" width="2000" height="2000">
<path d="M2000 0H0V2000H2000V0Z" fill="white"/>
</mask>
<g mask="url(#mask0_2_1008)">
<path d="M1944.22 1806.9C1942.86 1807.49 1941.47 1808 1940.04 1808.48L1934.5 1772.49C1934.5 1772.49 1899.65 1736.39 1743.54 1777.52C1751.94 1948.93 1749.85 2125.58 1742.11 2257.25C1701.2 2428.4 1181.67 2425.39 1154.44 2389.03C1127.8 2353.55 1166.03 2068.63 1193.29 1772.12C1170.03 1721.82 1089.39 1683.3 1089.39 1683.3L1071.19 1706.05C1033.29 1695.41 1024.71 1600.98 1112.57 1446.41C1168.45 1348.2 1219.85 1310.08 1285.66 1261.8C1382 1191.1 1614.49 1214.73 1686.69 1246.06C1688.74 1246.94 1690.69 1247.82 1692.49 1248.74C1757.02 1281.32 1793.53 1315.66 1840.2 1368.09C1937.13 1477.2 1961.75 1634.55 1969.34 1710.31C1976.38 1781.04 1963.36 1798.91 1944.21 1806.91L1944.22 1806.9Z" fill="url(#paint0_linear_2_1008)"/>
<path d="M1944.22 1806.9C1940.88 1657.95 1929.73 1409.38 1686.71 1246.05C1688.76 1246.93 1690.71 1247.81 1692.51 1248.73C1757.04 1281.31 1793.55 1315.65 1840.22 1368.08C1937.15 1477.19 1961.77 1634.54 1969.36 1710.3C1976.4 1781.03 1963.38 1798.9 1944.23 1806.9H1944.22Z" fill="url(#paint1_linear_2_1008)"/>
<path d="M1161.95 1732C1161.95 1732 1209.4 1527 1253.57 1489.92C1197.05 1704.06 1193.29 1772.12 1193.29 1772.12L1161.95 1732Z" fill="url(#paint2_linear_2_1008)"/>
<path d="M1742.1 2257.24C1749.23 2136.03 1751.57 1976.67 1745.32 1818.41C1744.29 1792.36 1732.38 1604.47 1697.68 1472.23" stroke="black" stroke-width="18.34" stroke-linecap="round" stroke-linejoin="round"/>
<path d="M1264.72 1459.49C1239.03 1518.59 1210.47 1668.62 1210.47 1668.62C1199.5 1734.69 1190.72 1801.14 1184.14 1867.79C1158.52 2127.45 1130.68 2357.39 1154.42 2389.03" stroke="black" stroke-width="18.34" stroke-linecap="round" stroke-linejoin="round"/>
<path d="M1940.03 1808.47L1934.49 1772.48C1934.49 1772.48 1899.64 1736.38 1743.53 1777.51C1751.93 1948.91 1749.84 2125.57 1742.1 2257.24C1701.19 2428.39 1181.66 2425.38 1154.43 2389.02C1127.79 2353.54 1166.02 2068.63 1193.28 1772.11C1170.02 1721.81 1089.38 1683.29 1089.38 1683.29L1071.18 1706.04C1033.28 1695.4 1024.7 1600.97 1112.56 1446.4C1168.44 1348.19 1219.86 1310.06 1285.65 1261.79C1384.76 1189.07 1627.91 1216.15 1692.47 1248.74C1757.03 1281.32 1793.51 1315.65 1840.18 1368.07C1937.11 1477.18 1961.73 1634.54 1969.33 1710.3C1976.89 1786.06 1961.37 1801.18 1940.02 1808.48L1940.03 1808.47Z" stroke="black" stroke-width="18.34" stroke-linecap="round" stroke-linejoin="round"/>
<path d="M1368 1161.15C1368 1161.15 1536.58 1143.16 1583.56 1155.09C1630.54 1167.03 1668.13 1193.25 1668.13 1193.25L1544.91 1244.62L1501.41 1329.75C1501.41 1329.75 1496.39 1236.2 1478.85 1236.32C1461.31 1236.44 1368 1193.24 1368 1193.24V1161.13V1161.15Z" fill="url(#paint3_linear_2_1008)"/>
<path d="M1513.33 1341.13L1533.3 1727.88C1533.66 1736.79 1531.31 1745.61 1526.56 1753.16L1472.65 1856.68L1480.97 1337.4L1513.34 1341.13H1513.33Z" fill="url(#paint4_linear_2_1008)"/>
<path d="M1476.87 2000.96C1471.35 1997.45 1462.87 1793.42 1476.87 1632.87" stroke="black" stroke-width="18.34" stroke-linecap="round" stroke-linejoin="round"/>
<path d="M1593.03 1189.68C1597.57 1188.85 1551.89 1222.25 1520.92 1223.96L1502.32 1309C1528.1 1268.6 1584.55 1233.8 1590.74 1259.36C1603.22 1310.89 1603.46 1362.75 1603.46 1362.75C1603.46 1362.75 1716.7 1269.62 1714.09 1223.44C1712.16 1189.25 1700.65 1197.96 1665.9 1166.29C1647.91 1149.89 1559.05 1133.32 1488.08 1133.32C1417.11 1133.32 1359.48 1146.89 1349.4 1165.93C1337.47 1188.47 1313.81 1169.91 1312.55 1211.49C1311.59 1243.02 1351.9 1325.11 1398.73 1349.33C1398.73 1349.33 1424.34 1203.74 1452.94 1248.03C1488.69 1303.39 1453.63 1248.03 1492.35 1307.45L1487.47 1222.21C1445.84 1222.21 1435.23 1183.65 1435.23 1183.65C1435.23 1183.65 1424.35 1181.86 1505.72 1177.19C1591.05 1172.29 1593.02 1189.68 1593.02 1189.68H1593.03Z" fill="url(#paint5_linear_2_1008)"/>
<path d="M1665.9 1166.29C1667.8 1184.41 1712.07 1237.18 1621.78 1346.88C1653.71 1318.28 1716.03 1257.85 1714.09 1223.45C1712.16 1189.26 1700.65 1197.97 1665.9 1166.3V1166.29Z" fill="#09A87C"/>
<path d="M1588.52 1287.46L1513.33 1309C1513.33 1309 1511.28 1534 1511.06 1593.11C1510.92 1631.33 1510.67 1744.31 1510.67 1744.31L1470.86 1822.63L1425.41 1736.23C1429.5 1675.46 1427.62 1515.85 1468.87 1305.51L1418.8 1273.94C1418.8 1273.94 1431.56 1229.29 1442.66 1237.2C1453.76 1245.11 1492.35 1307.47 1492.35 1307.47C1492.35 1307.47 1574.03 1236.72 1582.39 1248.05C1590.74 1259.38 1588.52 1287.48 1588.52 1287.48V1287.46Z" fill="#E9008A"/>
<path d="M1587.24 1188.21C1591.78 1187.38 1551.88 1222.25 1520.92 1223.96L1502.32 1309C1528.1 1268.6 1584.55 1233.8 1590.74 1259.36C1603.22 1310.89 1603.46 1362.75 1603.46 1362.75C1603.46 1362.75 1716.7 1269.62 1714.09 1223.44C1712.16 1189.25 1700.65 1197.96 1665.9 1166.29C1647.91 1149.89 1559.05 1133.32 1488.08 1133.32C1417.11 1133.32 1359.48 1146.89 1349.4 1165.93C1337.47 1188.47 1313.81 1169.91 1312.55 1211.49C1311.59 1243.02 1351.9 1325.11 1398.73 1349.33C1398.73 1349.33 1426.79 1202.65 1452.94 1248.03C1497.34 1325.08 1453.63 1248.03 1492.35 1307.45L1487.47 1222.21C1445.84 1222.21 1429.94 1184.92 1429.94 1184.92" stroke="black" stroke-width="18.34" stroke-linecap="round" stroke-linejoin="round"/>
<path d="M1380.77 1205.09C1458.96 1156.76 1590.73 1179.94 1645.89 1209.3" stroke="black" stroke-width="18.34" stroke-linecap="round" stroke-linejoin="round"/>
<path d="M1551.22 1451.06C1558.14 1453.76 1673.6 1459.16 1673.6 1459.16C1673.6 1459.16 1684.93 1583.18 1607.98 1583.18C1522.55 1583.18 1551.22 1451.07 1551.22 1451.07V1451.06Z" fill="url(#paint6_linear_2_1008)" stroke="black" stroke-width="18.34" stroke-linecap="round" stroke-linejoin="round"/>
<path d="M1418.8 1273.92L1468.87 1305.49C1428.13 1636.19 1426.19 1679.42 1425.41 1736.21L1470.86 1822.61L1516.17 1733.48C1516.17 1733.48 1511.51 1678.81 1511.34 1640.59C1511.05 1576.7 1502.33 1308.98 1502.33 1308.98L1588.53 1287.44" stroke="black" stroke-width="18.34" stroke-linecap="round" stroke-linejoin="round"/>
<path d="M1507.73 1343.7L1528.08 1300.23C1532.56 1293.94 1528.55 1285.16 1520.86 1284.42L1465.4 1279.12C1457.71 1278.39 1452.11 1286.25 1455.32 1293.27L1465.31 1339.15C1468.52 1346.18 1503.25 1349.99 1507.73 1343.7Z" fill="#E9008A" stroke="black" stroke-width="18.34" stroke-miterlimit="10"/>
</g>
</g>
<defs>
<linearGradient id="paint0_linear_2_1008" x1="1043.9" y1="1812.34" x2="1971.29" y2="1812.34" gradientUnits="userSpaceOnUse">
<stop offset="0.01" stop-color="white"/>
<stop offset="1" stop-color="#00CFAF"/>
</linearGradient>
<linearGradient id="paint1_linear_2_1008" x1="2003.95" y1="1772.88" x2="1696.51" y2="1240.39" gradientUnits="userSpaceOnUse">
<stop offset="0.01" stop-color="white"/>
<stop offset="1" stop-color="#00CFAF"/>
</linearGradient>
<linearGradient id="paint2_linear_2_1008" x1="1273.93" y1="1725.56" x2="1166.8" y2="1540.01" gradientUnits="userSpaceOnUse">
<stop offset="0.01" stop-color="white"/>
<stop offset="1" stop-color="#00CFAF"/>
</linearGradient>
<linearGradient id="paint3_linear_2_1008" x1="1368" y1="1240.38" x2="1668.13" y2="1240.38" gradientUnits="userSpaceOnUse">
<stop offset="0.01" stop-color="#1CA883"/>
<stop offset="1" stop-color="#D7E6A5"/>
</linearGradient>
<linearGradient id="paint4_linear_2_1008" x1="1472.64" y1="1597.04" x2="1533.33" y2="1597.04" gradientUnits="userSpaceOnUse">
<stop offset="0.01" stop-color="white"/>
<stop offset="1" stop-color="#00CFAF"/>
</linearGradient>
<linearGradient id="paint5_linear_2_1008" x1="1312.53" y1="1248.03" x2="1714.13" y2="1248.03" gradientUnits="userSpaceOnUse">
<stop offset="0.01" stop-color="white"/>
<stop offset="1" stop-color="#00CFAF"/>
</linearGradient>
<linearGradient id="paint6_linear_2_1008" x1="1546.59" y1="1517.11" x2="1674.18" y2="1517.11" gradientUnits="userSpaceOnUse">
<stop offset="0.01" stop-color="#1CA883"/>
<stop offset="1" stop-color="#D7E6A5"/>
</linearGradient>
<clipPath id="clip0_2_1008">
<rect width="2000" height="2000" fill="white"/>
</clipPath>
</defs>
</svg>
