<svg width="2000" height="2000" viewBox="0 0 2000 2000" fill="none" xmlns="http://www.w3.org/2000/svg">
<g clip-path="url(#clip0_655_143)">
<mask id="mask0_655_143" style="mask-type:luminance" maskUnits="userSpaceOnUse" x="0" y="0" width="2000" height="2000">
<path d="M2000 0H0V2000H2000V0Z" fill="white"/>
</mask>
<g mask="url(#mask0_655_143)">
<path d="M1432.8 1407.3C1418.75 1416.47 1402.73 1422.03 1384.49 1422.25C1384.49 1422.25 1382.92 1427.62 1382.93 1435.52L1272.34 1439.4L1248.41 1753.79C1248.41 1753.79 1474.3 1675.47 1698.13 1774.32L1673.27 1425.34L1583.82 1428.48C1583.39 1423.41 1582.46 1420.22 1582.46 1420.22C1562.77 1419.99 1545.73 1413.65 1531 1403.31C1558.32 1320.87 1576.81 1216.59 1576.81 1216.59L1526.14 1209.46C1526.14 1209.46 1516.41 1285.19 1484.06 1346.3" fill="url(#paint0_linear_655_143)"/>
<path d="M1192.94 1876.18C1192.94 1876.18 1456.18 1774.31 1751.11 1885.41V2083.94L1182.63 2066.49L1192.94 1876.18Z" fill="url(#paint1_linear_655_143)"/>
<path d="M1665.05 1858.49C1691.46 1957.32 1696.01 2043.83 1696.01 2043.83L1751.11 2035.86V1885.41C1713.71 1871.32 1700.97 1866.36 1665.05 1858.48V1858.49Z" fill="#0700FF"/>
<path d="M1277.71 1744.5C1313.73 1689.4 1380.94 1605.75 1437.95 1603.22C1497.79 1600.57 1581.83 1682.6 1612.62 1744.57C1644.72 1752.25 1665.4 1759.87 1698.13 1774.32L1694.09 1717.57C1662.07 1628.65 1635.1 1555.13 1633.24 1554.51C1628.52 1552.94 1343.73 1554.51 1343.73 1554.51C1343.73 1554.51 1290.55 1629.51 1254.08 1679.45L1248.42 1753.8C1248.42 1753.8 1228.44 1752.96 1277.73 1744.51L1277.71 1744.5Z" fill="#0700FF"/>
<path d="M1192.94 1876.18C1192.94 1876.18 1456.18 1774.31 1751.11 1885.41V2083.94L1182.63 2066.49L1192.94 1876.18Z" stroke="black" stroke-width="18.34" stroke-linecap="round" stroke-linejoin="round"/>
<path d="M1521.25 1430.66C1553.82 1346.2 1576.8 1216.57 1576.8 1216.57L1526.13 1209.44C1526.13 1209.44 1499 1420.92 1384.49 1422.24C1384.49 1422.24 1382.92 1427.61 1382.93 1435.51L1272.34 1439.39L1248.41 1753.78C1248.41 1753.78 1474.3 1675.46 1698.13 1774.31L1673.27 1425.33L1521.27 1430.66H1521.25Z" stroke="black" stroke-width="18.34" stroke-linecap="round" stroke-linejoin="round"/>
<path d="M1390.8 1221.03L1442.89 1210.87C1442.89 1210.87 1467.94 1418.89 1582.45 1420.21C1582.45 1420.21 1600.69 1482 1512.94 1495.99C1425.19 1509.98 1390.79 1221.04 1390.79 1221.04L1390.8 1221.03Z" fill="url(#paint2_linear_655_143)" stroke="black" stroke-width="18.34" stroke-linecap="round" stroke-linejoin="round"/>
<path d="M1705.3 1278.19C1694.83 1238.82 1618.17 1227.79 1618.17 1227.79C1618.17 1227.79 1623.72 1491.15 1486.34 1501.81C1348.97 1512.47 1350.87 1238.12 1350.87 1238.12C1308.56 1239.85 1271.88 1273.14 1271.88 1273.14C1153.02 1640.49 1153.02 2045.18 1153.02 2045.18C1155.04 2046.22 1172.5 2046.92 1200.19 2047.35C1200.4 1824.99 1324.95 1600.78 1462.8 1600.78C1600.65 1600.78 1710.88 1840.46 1711.68 2062C1735.84 2061.76 1750.18 2061.6 1750.18 2061.6C1785.98 1988.51 1705.3 1278.17 1705.3 1278.17V1278.19Z" fill="#FFD13D"/>
<path d="M1705.3 1278.19C1699.67 1257.02 1674.89 1244.05 1653.19 1236.58C1710.92 1468.25 1731.38 1794.48 1703.69 1958.58C1719.63 2018.34 1711.45 1999.31 1711.68 2062.01C1735.84 2061.77 1750.18 2061.61 1750.18 2061.61C1785.98 1988.52 1705.3 1278.18 1705.3 1278.18V1278.19Z" fill="#FFA500"/>
<path d="M1705.3 1278.19C1694.83 1238.82 1618.17 1227.79 1618.17 1227.79C1618.17 1227.79 1623.72 1491.15 1486.34 1501.81C1348.97 1512.47 1350.87 1238.12 1350.87 1238.12C1307.96 1244.06 1292.98 1256.9 1279.91 1266.67C1274.77 1270.52 1270.98 1275.9 1269.03 1282.02C1153.02 1646.98 1153.02 2045.17 1153.02 2045.17C1155.04 2046.21 1172.5 2046.91 1200.19 2047.34C1200.4 1824.98 1324.95 1600.77 1462.8 1600.77C1600.65 1600.77 1710.88 1840.45 1711.68 2061.99C1735.84 2061.75 1750.18 2061.59 1750.18 2061.59C1785.98 1988.5 1705.3 1278.16 1705.3 1278.16V1278.19Z" stroke="black" stroke-width="18.34" stroke-linecap="round" stroke-linejoin="round"/>
</g>
</g>
<defs>
<linearGradient id="paint0_linear_655_143" x1="1248.4" y1="1491.88" x2="1698.12" y2="1491.88" gradientUnits="userSpaceOnUse">
<stop stop-color="#FF2C10"/>
<stop offset="1" stop-color="#FFC700"/>
</linearGradient>
<linearGradient id="paint1_linear_655_143" x1="1182.63" y1="1958.74" x2="1751.1" y2="1958.74" gradientUnits="userSpaceOnUse">
<stop stop-color="#FFC700"/>
<stop offset="1" stop-color="#FF0036"/>
</linearGradient>
<linearGradient id="paint2_linear_655_143" x1="1390.8" y1="1353.67" x2="1584.03" y2="1353.67" gradientUnits="userSpaceOnUse">
<stop stop-color="#FF2C10"/>
<stop offset="1" stop-color="#FFC700"/>
</linearGradient>
<clipPath id="clip0_655_143">
<rect width="2000" height="2000" fill="white"/>
</clipPath>
</defs>
</svg>
