<svg width="2000" height="2000" viewBox="0 0 2000 2000" fill="none" xmlns="http://www.w3.org/2000/svg">
<g clip-path="url(#clip0_28_354)">
<mask id="mask0_28_354" style="mask-type:luminance" maskUnits="userSpaceOnUse" x="0" y="0" width="2000" height="2000">
<path d="M2000 0H0V2000H2000V0Z" fill="white"/>
</mask>
<g mask="url(#mask0_28_354)">
<path d="M1969.35 1710.28C1961.76 1634.52 1937.14 1477.17 1840.21 1368.06C1793.54 1315.63 1757.04 1281.29 1692.5 1248.71C1690.7 1247.79 1674.89 1233.37 1672.84 1232.49C1672.91 1157.46 1486.91 1150.53 1353.91 1193.09C1334.25 1244.71 1303.5 1248.71 1285.67 1261.77C1219.85 1310.05 1168.45 1348.17 1112.58 1446.38C1024.71 1600.95 1033.3 1695.38 1071.2 1706.02L1089.4 1683.27C1089.4 1683.27 1170.04 1721.79 1193.3 1772.09C1166.04 2068.6 1127.81 2353.52 1154.45 2389C1181.67 2425.36 1701.21 2428.37 1742.12 2257.22C1749.86 2125.55 1751.95 1948.9 1743.55 1777.49C1899.66 1736.36 1934.51 1772.46 1934.51 1772.46L1940.05 1808.45C1941.48 1807.97 1942.88 1807.46 1944.23 1806.87C1963.38 1798.87 1976.4 1781.01 1969.36 1710.27L1969.35 1710.28ZM1609.7 1261.88C1598.8 1291.52 1585.78 1313.76 1542.56 1355.65C1510.24 1429.61 1467.09 1671.31 1459.02 1601.61C1450.91 1531.9 1446.84 1360.79 1424.42 1331.48C1402 1302.17 1384.61 1250.11 1411.1 1244.24C1419.28 1241.78 1427.61 1239.69 1427.61 1239.69C1490.24 1223.84 1620.55 1232.24 1609.69 1261.89L1609.7 1261.88Z" fill="url(#paint0_linear_28_354)"/>
<path d="M1944.22 1806.9C1940.88 1657.95 1929.73 1409.38 1686.71 1246.05C1688.76 1246.93 1690.71 1247.81 1692.51 1248.73C1757.04 1281.31 1793.55 1315.65 1840.22 1368.08C1937.15 1477.19 1961.77 1634.54 1969.36 1710.3C1976.4 1781.03 1963.38 1798.9 1944.23 1806.9H1944.22Z" fill="url(#paint1_linear_28_354)"/>
<path d="M1161.95 1732C1161.95 1732 1209.4 1527 1253.57 1489.92C1197.05 1704.06 1193.29 1772.12 1193.29 1772.12L1161.95 1732Z" fill="url(#paint2_linear_28_354)"/>
<path d="M1304.48 1253.19C1236.02 1297.64 1168.44 1348.19 1112.57 1446.4C1024.7 1600.97 1033.29 1695.4 1071.19 1706.04L1089.39 1683.29C1089.39 1683.29 1170.03 1721.81 1193.29 1772.11C1166.03 2068.62 1127.8 2353.54 1154.44 2389.02C1181.66 2425.38 1701.2 2428.39 1742.11 2257.24C1749.85 2125.57 1751.94 1948.92 1743.54 1777.51C1899.65 1736.38 1934.5 1772.48 1934.5 1772.48L1940.04 1808.47C1961.39 1801.17 1976.91 1786.05 1969.35 1710.29C1961.76 1634.53 1937.13 1477.17 1840.2 1368.06C1799.37 1322.19 1762.01 1287.73 1711.14 1258.62" stroke="black" stroke-width="18.34" stroke-linecap="round" stroke-linejoin="round"/>
<path d="M1465.9 1702.22C1469.38 1552.74 1544.81 1265.94 1585.47 1336.06C1612.06 1381.92 1604.08 1415.27 1604.08 1415.27C1604.08 1415.27 1708.56 1304.8 1711.14 1258.62C1693.12 1238.19 1671.1 1254.93 1662.95 1201.47C1659.28 1177.4 1556.1 1168.5 1485.13 1168.5C1414.16 1168.5 1356.53 1182.07 1346.45 1201.11C1334.52 1223.65 1339.32 1242.39 1309.6 1246.67C1292.2 1272.98 1301.92 1385.41 1348.75 1409.63C1348.75 1409.63 1376.21 1280.43 1413.35 1315.96C1451.89 1354.5 1449.15 1480.81 1465.91 1702.22" stroke="black" stroke-width="18.34" stroke-linecap="round" stroke-linejoin="round"/>
<path d="M1374.34 1224.43C1453.44 1179.9 1584.52 1190.27 1639.46 1218.7" stroke="black" stroke-width="18.34" stroke-linecap="round" stroke-linejoin="round"/>
<path d="M1572.95 1325.98C1601.91 1312.92 1620.75 1221.71 1621.85 1211.34" stroke="black" stroke-width="18.34" stroke-linecap="round" stroke-linejoin="round"/>
<path d="M1404.31 1310.37C1404.31 1310.37 1384.29 1248 1403.13 1211.33" stroke="black" stroke-width="18.34" stroke-linecap="round" stroke-linejoin="round"/>
<path d="M1395.05 1250.92C1443.41 1225.67 1548.83 1229.5 1612.62 1245.53" stroke="black" stroke-width="18.34" stroke-linecap="round" stroke-linejoin="round"/>
<path d="M1742.1 2257.24C1749.23 2136.03 1751.57 1976.67 1745.32 1818.41C1744.29 1792.36 1732.38 1604.47 1697.68 1472.23" stroke="black" stroke-width="18.34" stroke-linecap="round" stroke-linejoin="round"/>
<path d="M1264.72 1459.49C1239.03 1518.59 1210.47 1668.62 1210.47 1668.62C1199.5 1734.69 1190.72 1801.14 1184.14 1867.79C1158.52 2127.45 1130.68 2357.39 1154.42 2389.03" stroke="black" stroke-width="18.34" stroke-linecap="round" stroke-linejoin="round"/>
</g>
</g>
<defs>
<linearGradient id="paint0_linear_28_354" x1="1043.9" y1="1788.02" x2="1971.29" y2="1788.02" gradientUnits="userSpaceOnUse">
<stop stop-color="#FF0085"/>
<stop offset="1" stop-color="#AE00A8"/>
</linearGradient>
<linearGradient id="paint1_linear_28_354" x1="2040.79" y1="1655.77" x2="1597.81" y2="1400.02" gradientUnits="userSpaceOnUse">
<stop stop-color="#FF0085"/>
<stop offset="1" stop-color="#AE00A8"/>
</linearGradient>
<linearGradient id="paint2_linear_28_354" x1="1261.92" y1="1653.24" x2="1181.56" y2="1606.84" gradientUnits="userSpaceOnUse">
<stop stop-color="#FF0085"/>
<stop offset="1" stop-color="#AE00A8"/>
</linearGradient>
<clipPath id="clip0_28_354">
<rect width="2000" height="2000" fill="white"/>
</clipPath>
</defs>
</svg>
