<svg width="2000" height="2000" viewBox="0 0 2000 2000" fill="none" xmlns="http://www.w3.org/2000/svg">
<g clip-path="url(#clip0_276_43)">
<mask id="mask0_276_43" style="mask-type:luminance" maskUnits="userSpaceOnUse" x="0" y="0" width="2000" height="2000">
<path d="M2000 0H0V2000H2000V0Z" fill="white"/>
</mask>
<g mask="url(#mask0_276_43)">
<path d="M1435.6 1538C1435.8 1538.4 1436.3 1539.2 1437.4 1540.4C1438.4 1541.6 1439.6 1543 1440.8 1544.4C1442.1 1545.8 1443.3 1547.2 1444.6 1548.6C1445.8 1549.9 1446.7 1550.9 1447.2 1551.5C1448.7 1553.6 1450.2 1555.6 1451.8 1557.6C1453.4 1559.6 1454.8 1561.7 1456.3 1563.9C1456.7 1564.3 1457 1564.7 1457.2 1565.3C1457.4 1565.9 1457.6 1566.4 1457.6 1567C1457.6 1567.7 1457.5 1568 1457.1 1568.1C1456.8 1568.1 1456.4 1568.2 1456 1568.4C1455.3 1568.9 1454.6 1569.3 1454 1569.4C1453.4 1569.5 1452.9 1569.5 1452.5 1569.5C1451.7 1569.5 1450.8 1569.5 1449.8 1569.5C1448.8 1569.5 1448 1569.6 1447.3 1569.7C1447.1 1569.8 1446.8 1569.9 1446.5 1570.1C1446.2 1570.3 1446 1570.4 1445.8 1570.4C1445.2 1570.4 1444.8 1570.3 1444.5 1570.1C1444.2 1569.9 1443.9 1569.8 1443.4 1569.6C1442.8 1568.9 1442.2 1568.2 1441.7 1567.5C1441.2 1566.8 1440.7 1566 1440.1 1565.3C1439.6 1564.8 1439.1 1564.3 1438.6 1563.9C1438.1 1563.5 1437.6 1563 1437.1 1562.4C1435.9 1560.7 1434.6 1559.1 1433.3 1557.5C1432 1555.9 1430.7 1554.4 1429.4 1552.8C1428.8 1552 1428.1 1551.2 1427.4 1550.5C1426.7 1549.8 1426 1549 1425.4 1548.3C1424.8 1547.5 1424.2 1546.6 1423.6 1545.7C1423 1544.8 1422.5 1543.9 1421.8 1543.1C1421.3 1542.4 1420.7 1541.4 1419.8 1540.4C1418.9 1539.3 1418 1538.2 1417.1 1537.1C1416.2 1536 1415.2 1534.9 1414.2 1533.9C1413.2 1532.9 1412.4 1532.1 1411.7 1531.6C1411.7 1531.1 1411.5 1530.7 1411.2 1530.5C1410.9 1530.3 1410.5 1530 1410.2 1529.7C1410 1529.3 1409.8 1529 1409.6 1528.6C1409.4 1528.3 1409.2 1527.9 1409.2 1527.4C1409.2 1527.1 1409.2 1526.8 1409.3 1526.6C1409.4 1526.4 1409.4 1526.1 1409.5 1525.9C1409.6 1525.6 1409.7 1525.3 1409.8 1525C1409.8 1524.7 1409.9 1524.4 1410.1 1524.1C1410.5 1523.1 1411 1522.2 1411.7 1521.5C1412.4 1520.7 1412.9 1519.8 1413.3 1518.9C1413.4 1518.6 1413.4 1518.3 1413.4 1518C1413.4 1517.7 1413.5 1517.5 1413.6 1517.1C1413.8 1516.6 1414.1 1516.2 1414.6 1515.7C1415 1515.2 1415.4 1514.7 1415.8 1514.2C1416.2 1513.5 1416.5 1512.8 1416.9 1512.1C1417.3 1511.4 1417.6 1510.7 1418 1510C1419 1508.2 1420.2 1506.5 1421.4 1504.9C1422.6 1503.2 1423.8 1501.6 1424.9 1500C1425.9 1498.5 1426.9 1496.9 1427.7 1495.5C1428.6 1494 1429.5 1492.5 1430.5 1491C1431 1490.2 1431.6 1489.4 1432.3 1488.4C1433 1487.4 1433.6 1486.5 1434.3 1485.6C1435 1484.7 1435.7 1483.8 1436.5 1483C1437.2 1482.2 1438 1481.6 1438.7 1481.2C1440 1481 1440.8 1481.2 1441.2 1481.8C1441.6 1482.4 1442.1 1482.6 1442.8 1482.6C1443.9 1482.8 1444.6 1483.1 1445 1483.6C1445.4 1484 1445.8 1484.5 1446.2 1484.8C1447.2 1484.8 1448 1484.9 1448.7 1485.3C1449.4 1485.7 1450.1 1486.2 1450.8 1487C1450.5 1487.8 1450.1 1488.6 1449.7 1489.3C1449.2 1490 1448.8 1490.7 1448.4 1491.5C1447.8 1491.7 1447.4 1492.1 1447.1 1492.7C1446.8 1493.2 1446.5 1493.7 1445.9 1494.1C1445.1 1495.4 1444.3 1496.7 1443.5 1498C1442.7 1499.3 1441.9 1500.5 1441.1 1501.6C1440.7 1502.1 1440.3 1502.4 1439.8 1502.7C1439.3 1503 1438.9 1503.4 1438.6 1503.9C1438.5 1504.1 1438.3 1504.4 1438.3 1504.6C1438.2 1504.9 1438.1 1505.1 1438 1505.3C1437.1 1506.8 1436.1 1508.2 1435 1509.6C1433.9 1511 1432.9 1512.4 1432.1 1514C1431.7 1514.5 1431.4 1515.1 1431.2 1515.7C1431 1516.3 1430.7 1516.8 1430.4 1517.4C1430.1 1517.9 1429.7 1518.5 1429.1 1519.4C1428.5 1520.3 1428 1521.1 1427.5 1522C1427 1522.9 1426.5 1523.7 1426.1 1524.5C1425.7 1525.3 1425.5 1526 1425.5 1526.5C1425.6 1526.9 1426.1 1527.6 1427 1528.7C1427.9 1529.8 1429 1531 1430.1 1532.3C1431.2 1533.6 1432.3 1534.7 1433.4 1535.9C1434.6 1537 1435.3 1537.7 1435.6 1538Z" fill="black"/>
<path d="M1510.8 1567.5C1510.4 1568.4 1509.7 1569.2 1508.5 1569.8C1508 1569.5 1507.5 1569.2 1507.1 1568.8C1506.7 1568.4 1506.2 1568.1 1505.5 1567.9C1505 1567 1504.7 1566.5 1504.4 1566.3C1504.2 1566.1 1503.9 1566 1503.6 1565.9C1503.1 1565.5 1502.7 1565.1 1502.4 1564.6C1502.1 1564.1 1501.7 1563.6 1501.3 1563.3C1501.1 1563.2 1500.9 1563 1500.4 1562.6C1500 1562.2 1499.5 1561.8 1499.1 1561.3C1498.6 1560.9 1498.2 1560.4 1497.8 1560C1497.4 1559.6 1497.2 1559.4 1497.1 1559.4C1496.4 1559 1495.8 1558.5 1495.3 1558C1495.1 1557.8 1495 1557.5 1494.8 1557.3C1494.6 1557 1494.4 1556.8 1494.3 1556.7C1493.7 1556.5 1493.2 1556.2 1492.8 1555.8C1492.4 1555.4 1492 1554.9 1491.7 1554.4C1491.3 1553.9 1491 1553.4 1490.5 1553C1490.1 1552.6 1489.6 1552.3 1489.1 1552.1C1488.6 1551.4 1487.9 1550.7 1487.1 1550.3C1486.3 1549.8 1485.7 1549.3 1485.1 1548.6C1484.6 1548.1 1484.1 1547.6 1483.6 1547.1C1483.1 1546.6 1482.5 1546.2 1481.9 1545.7C1481.6 1545.3 1481.1 1544.6 1480.4 1543.7C1479.7 1542.8 1479.1 1542.4 1478.6 1542.3C1478.6 1544 1478.5 1545.8 1478.5 1547.5C1478.5 1549.2 1478.5 1551 1478.4 1552.7C1478.4 1553.6 1478.5 1554.6 1478.5 1555.5C1478.6 1556.5 1478.6 1557.5 1478.5 1558.5C1478.4 1558.9 1478.3 1559.3 1478.2 1559.7C1478.1 1560.1 1478 1560.6 1478.1 1561C1478.1 1561.9 1478.1 1562.5 1478 1562.8C1477.9 1563.1 1477.8 1563.3 1477.7 1563.5C1477.5 1564.3 1477.3 1565.2 1477.1 1566.3C1476.9 1567.4 1476.6 1568.3 1476 1568.9C1475.2 1569 1474.5 1568.9 1474.1 1568.7C1474 1568.9 1473.8 1569 1473.7 1569.2C1473.6 1569.4 1473.3 1569.4 1473 1569.4C1472.8 1569.3 1472.6 1569.1 1472.3 1569C1472 1568.9 1471.7 1568.8 1471.6 1568.8C1471.2 1568.8 1470.8 1568.9 1470.4 1569.1C1470 1569.3 1469.6 1569.3 1469.2 1569.4C1468.8 1569.4 1468.5 1569.3 1468.2 1569.1C1467.9 1568.9 1467.6 1568.8 1467.2 1568.8C1467 1568.8 1466.7 1568.9 1466.4 1569.2C1466.1 1569.4 1465.8 1569.6 1465.5 1569.6C1465.1 1569.6 1464.8 1569.6 1464.5 1569.5C1464.2 1569.4 1463.9 1569.3 1463.6 1569.2C1463.6 1569 1463.6 1568.7 1463.6 1568.5C1463.6 1568.3 1463.6 1568 1463.5 1567.8L1463 1565C1463.1 1564.5 1463.1 1563.9 1463.2 1563.4C1463.3 1562.9 1463.4 1562.4 1463.5 1561.9C1463.5 1560.7 1463.6 1559.5 1463.6 1558.4C1463.6 1557.3 1463.6 1556.2 1463.6 1555.1C1463.6 1553.1 1463.5 1551.2 1463.4 1549.3C1463.3 1547.4 1463.3 1545.5 1463.3 1543.5C1463.4 1542.8 1463.4 1542.1 1463.5 1541.4C1463.6 1540.7 1463.6 1540 1463.6 1539.3C1463.6 1537.3 1463.6 1535.4 1463.8 1533.5C1464 1531.6 1464.1 1529.7 1464.2 1527.7C1464.3 1526.2 1464.4 1524.7 1464.3 1523.3C1464.3 1521.9 1464.2 1520.4 1464.2 1519C1464.1 1516.2 1464 1513.4 1463.9 1510.7C1463.8 1507.9 1463.7 1505.2 1463.6 1502.5C1463.6 1501.6 1463.6 1500.4 1463.6 1498.8C1463.6 1497.2 1463.5 1496.1 1463.3 1495.2C1463.3 1493 1463.3 1490.9 1463.2 1488.7C1463.5 1488.5 1463.7 1488.3 1463.7 1488C1463.7 1487.7 1463.7 1487.4 1463.7 1487.1V1485.5C1464.4 1484.7 1464.9 1484.3 1465.4 1484.3C1465.8 1484.3 1466.2 1484.3 1466.5 1484.4C1466.9 1484.5 1467.3 1484.6 1467.6 1484.8C1468.6 1484.6 1469.2 1484.5 1469.5 1484.6C1469.8 1484.7 1470.1 1484.9 1470.5 1485C1471.1 1484.9 1471.5 1484.6 1471.7 1484.2C1472.5 1484.3 1473 1484.5 1473 1484.7C1473 1484.9 1473.1 1485.2 1473.2 1485.4C1474 1485.5 1474.5 1485.4 1474.7 1485.2C1475 1485 1475.3 1484.9 1475.7 1484.8C1476.4 1484.9 1476.8 1485.1 1477.1 1485.3C1477.1 1485.8 1477.2 1486.3 1477.5 1486.8C1477.7 1487.4 1477.9 1488.1 1477.9 1489C1477.9 1489.7 1477.9 1490.3 1477.8 1491C1477.7 1491.6 1477.7 1492.3 1477.7 1492.9C1477.7 1494 1477.8 1495 1477.9 1496C1478 1497 1478.1 1498 1478.1 1499.1C1478.1 1499.4 1478.1 1499.7 1478.1 1500C1478.1 1500.3 1478.1 1500.6 1478.1 1500.9C1478.2 1503.8 1478.3 1506.7 1478.5 1509.6C1478.7 1512.5 1478.9 1515.5 1478.9 1518.4C1478.9 1518.6 1478.9 1518.8 1478.8 1519C1478.7 1519.3 1478.8 1519.5 1478.9 1519.6C1480.2 1518.2 1481.2 1516.7 1482.1 1515.2C1483 1513.6 1483.9 1512.1 1484.9 1510.5C1485.8 1509.3 1486.7 1508 1487.6 1506.4C1488.5 1504.8 1489.3 1503.3 1489.9 1502C1490.2 1501.5 1490.4 1501.1 1490.7 1500.6C1490.9 1500.1 1491.2 1499.7 1491.5 1499.2C1491.6 1498.8 1491.8 1498.5 1492.1 1498.1C1492.4 1497.8 1492.6 1497.4 1492.7 1496.9C1493.1 1496.3 1493.4 1495.7 1493.7 1495.1C1494 1494.5 1494.3 1493.9 1494.7 1493.3C1495.1 1492.7 1495.4 1492.1 1495.9 1491.6C1496.3 1491.1 1496.7 1490.6 1497.1 1490C1497.7 1489 1498.3 1488 1499 1486.9C1499.7 1485.9 1500.2 1484.8 1500.7 1483.7C1501.4 1483.3 1502.1 1482.9 1502.7 1482.3C1503.3 1481.8 1503.9 1481.3 1504.6 1481C1505.4 1482 1505.9 1482.6 1506.3 1483C1506.7 1483.4 1507.1 1483.6 1507.7 1483.6C1507.9 1483.8 1508 1484.1 1508 1484.4C1508 1484.7 1508.2 1484.9 1508.4 1485.1C1509.3 1485.2 1509.8 1485.1 1510 1485.1C1510.2 1485.5 1510.6 1485.8 1511 1485.9C1511.4 1486.1 1511.8 1486.2 1512.2 1486.4C1512.2 1486.6 1512.2 1486.9 1512.2 1487.1C1512.2 1487.4 1512.2 1487.6 1512.3 1487.7C1513.2 1488.1 1513.7 1488.8 1513.7 1489.8C1512.3 1492.4 1510.8 1494.9 1509.2 1497.2C1507.6 1499.5 1506.1 1502.1 1504.9 1504.7C1504.5 1505.5 1504.1 1506.3 1503.7 1507.1C1503.2 1507.9 1502.8 1508.7 1502.6 1509.5C1502.1 1510 1501.7 1510.6 1501.4 1511.2C1501.1 1511.8 1500.7 1512.3 1500.3 1512.9C1500 1513.3 1499.7 1513.7 1499.4 1514.1C1499.1 1514.5 1498.8 1514.9 1498.5 1515.3C1497.9 1516.1 1497.4 1517 1496.9 1517.9C1496.4 1518.8 1495.9 1519.6 1495.2 1520.5C1494.8 1521.3 1494.3 1522 1493.7 1522.8C1493.1 1523.6 1492.6 1524.6 1492.2 1525.6C1491.8 1526.6 1491.3 1527.6 1490.7 1528.4C1490.1 1529.3 1489.8 1530 1489.8 1530.4C1489.8 1530.8 1489.6 1531.5 1489.2 1532.5C1489.7 1533.3 1490.4 1534.1 1491.1 1534.7C1491.8 1535.4 1492.5 1536 1493.3 1536.6C1493.9 1537.4 1494.6 1538.1 1495.4 1538.8C1496.2 1539.4 1497 1540.1 1497.9 1540.8C1498.2 1541.1 1498.5 1541.4 1498.7 1541.6C1498.9 1541.9 1499.2 1542.1 1499.5 1542.3C1500.4 1543.2 1501.4 1544 1502.6 1544.8C1503.8 1545.6 1504.9 1546.4 1506 1547.1C1506.8 1547.8 1507.9 1548.7 1509.2 1549.8C1510.5 1550.9 1511.8 1552 1513.2 1553.2C1514.6 1554.4 1515.8 1555.6 1516.9 1556.6C1518 1557.7 1518.5 1558.4 1518.5 1558.7C1518.1 1559.8 1517.7 1560.6 1517.2 1560.8C1516.7 1561.1 1516.4 1561.5 1516.2 1562C1515.7 1562.2 1515.5 1562.3 1515.5 1562.5C1515.5 1562.7 1515.4 1562.9 1515.2 1563.3C1514.7 1563.7 1514.2 1564.1 1513.9 1564.6C1513.5 1565.1 1513.2 1565.6 1512.8 1566C1512.5 1566.2 1512.2 1566.3 1512 1566.4C1511.7 1566.5 1511.5 1566.7 1511.4 1567L1510.8 1567.5Z" fill="black"/>
<path d="M1547.5 1481.9C1548.1 1482.9 1548.3 1484 1548.4 1485.3C1548.4 1486.4 1548.2 1487.6 1547.8 1488.9C1547.4 1490.2 1546.7 1491.2 1545.7 1491.9C1545.1 1493.4 1544.4 1494.7 1543.8 1495.6C1543.2 1496.6 1542.6 1497.5 1542 1498.4C1541.8 1498.9 1541.6 1499.5 1541.4 1499.9C1541.2 1500.4 1540.9 1500.9 1540.5 1501.5C1540.3 1501.9 1539.8 1502.7 1539.1 1503.8C1538.4 1505 1537.6 1506.2 1536.9 1507.4C1536.1 1508.7 1535.5 1509.9 1534.9 1511C1534.3 1512.1 1534 1512.9 1534 1513.2C1534 1513.5 1534.4 1513.9 1535.1 1514.3C1535.8 1514.7 1536.3 1515.1 1536.5 1515.3C1536.9 1515.7 1537.3 1516 1537.6 1516.4C1537.9 1516.8 1538.3 1517.1 1538.7 1517.5C1539.5 1518.2 1540.4 1518.8 1541.2 1519.5C1542 1520.2 1542.8 1520.9 1543.7 1521.7C1545.3 1523.1 1547 1524.4 1548.8 1525.7C1550.6 1526.9 1552.2 1528.4 1553.6 1530.1C1554.9 1530.5 1555.7 1531.3 1556.2 1532.8C1556.6 1534.2 1556.8 1535.6 1556.6 1536.9C1556.8 1537.1 1556.9 1537.3 1557 1537.6C1557.1 1537.8 1557.3 1538.1 1557.4 1538.4C1557.4 1539.6 1557.3 1540.5 1556.9 1541.1C1556.6 1541.7 1556.2 1542.4 1555.9 1543.2C1555.5 1544 1555.3 1544.7 1555.2 1545.5C1555.1 1546.3 1554.9 1546.9 1554.5 1547.6C1554.4 1547.8 1554.1 1548 1553.9 1548.2C1553.6 1548.4 1553.4 1548.6 1553.3 1548.9C1553 1549.4 1552.8 1550.1 1552.6 1550.8C1552.4 1551.5 1552.2 1552.2 1551.9 1552.8C1551.7 1553.4 1551.4 1554 1551.1 1554.6C1550.8 1555.2 1550.5 1555.8 1550.3 1556.4C1550.2 1556.8 1550 1557.2 1549.9 1557.8C1549.8 1558.3 1549.4 1558.7 1548.8 1559C1548.5 1560.4 1548 1561.7 1547.4 1563C1546.8 1564.3 1546.3 1565.6 1546 1567C1545.3 1567.2 1544.5 1567.7 1543.5 1568.4C1542.5 1569.1 1541.7 1569.4 1541.1 1569.4C1540.9 1569.4 1540.7 1569.3 1540.5 1569.1C1540.3 1568.9 1540.1 1568.7 1539.8 1568.5C1539.6 1568.4 1539.4 1568.4 1539.2 1568.5C1538.9 1568.6 1538.7 1568.6 1538.6 1568.6C1538.2 1568.6 1537.9 1568.5 1537.7 1568.2C1537.5 1567.9 1537.3 1567.7 1536.9 1567.5C1536.7 1567.6 1536.4 1567.7 1536.2 1567.7C1536 1567.8 1535.7 1567.8 1535.5 1567.8C1535 1567.8 1534.7 1567.7 1534.6 1567.4C1534.5 1567.1 1534.3 1566.9 1533.9 1566.7C1533 1566.3 1532.4 1565.9 1532.3 1565.5C1532.1 1565.1 1531.9 1564.9 1531.6 1564.7C1532.1 1562.7 1532.8 1560.8 1533.6 1559C1534.5 1557.2 1535.3 1555.4 1536.1 1553.6C1536.3 1553 1536.6 1552.4 1536.9 1551.9C1537.2 1551.4 1537.5 1550.8 1537.8 1550.2C1538 1549.7 1538.3 1549 1538.8 1548.1C1539.3 1547.2 1539.6 1546.4 1540 1545.5C1540.4 1544.6 1540.7 1543.7 1541 1542.9C1541.3 1542.1 1541.4 1541.4 1541.4 1540.9C1541.4 1539.8 1541.1 1539.1 1540.4 1538.5C1538.2 1536.7 1536.1 1534.9 1534.1 1533.1C1532.1 1531.3 1530.1 1529.4 1527.9 1527.5C1526.5 1526.3 1525 1525.1 1523.4 1523.9C1523.1 1523.7 1522.9 1523.3 1522.7 1522.9C1522.5 1522.4 1522.3 1522 1522 1521.7C1521.8 1521.4 1521.6 1521.2 1521.3 1521C1521 1520.9 1520.8 1520.6 1520.6 1520.3C1520.4 1520 1520.2 1519.6 1520.1 1519.2C1520 1518.8 1519.8 1518.5 1519.4 1518.3C1519 1517.9 1518.6 1517.7 1518 1517.7C1517.5 1517.6 1517 1517.4 1516.6 1517.1C1516.8 1516.9 1516.9 1516.6 1516.9 1516.4C1516.9 1516.1 1516.8 1515.9 1516.8 1515.7C1516.8 1515.2 1517 1514.8 1517.5 1514.6C1517.9 1514.4 1518.2 1513.9 1518.2 1513.3C1518.5 1512.7 1518.7 1512.3 1518.9 1512.2C1519.7 1510.1 1520.6 1508.2 1521.6 1506.2C1522.6 1504.3 1523.7 1502.4 1524.8 1500.5C1525.2 1499.9 1525.5 1499.3 1525.8 1498.7C1526.1 1498.1 1526.5 1497.5 1526.8 1496.9C1527 1496.4 1527.2 1495.9 1527.4 1495.5C1527.6 1495.1 1527.9 1494.7 1528.2 1494.3C1529.2 1493.1 1530.1 1491.9 1530.8 1490.8C1531.5 1489.7 1532 1488.4 1532.4 1486.9C1532.5 1486.5 1532.6 1486 1532.8 1485.3C1533 1484.6 1533.3 1483.9 1533.6 1483.2C1533.9 1482.5 1534.3 1481.9 1534.6 1481.4C1535 1480.9 1535.4 1480.6 1535.8 1480.6C1536.2 1480.6 1536.7 1480.7 1537.5 1481C1538.2 1481.3 1538.9 1481.5 1539.4 1481.6C1539.9 1481.7 1540.3 1481.9 1540.8 1482C1541.3 1482.1 1541.8 1482.1 1542.2 1482.1C1542.5 1482.1 1542.8 1482 1543.1 1481.8C1543.4 1481.6 1543.7 1481.5 1544.1 1481.5C1544.7 1481.5 1545.3 1481.6 1545.8 1481.7C1546.3 1481.8 1546.9 1481.9 1547.5 1481.9Z" fill="black"/>
<path d="M1610.5 1483.8C1610.4 1484.1 1610.3 1484.4 1610.3 1484.7C1610.3 1485 1610.4 1485.3 1610.4 1485.7C1610.3 1486.6 1610.3 1487.1 1610.4 1487.1C1610.5 1487.1 1610.6 1487.2 1610.6 1487.3L1609.8 1488.5C1609.8 1489 1609.7 1489.4 1609.5 1489.8C1609.3 1490.2 1609.3 1490.6 1609.4 1491.2C1609.2 1491.6 1609 1492 1608.8 1492.3C1608.6 1492.7 1608.3 1493.1 1608 1493.5H1606.5C1605.7 1493.5 1604.8 1493.6 1603.8 1493.7C1602.9 1493.8 1601.9 1493.9 1601 1493.9C1600.8 1493.9 1600.7 1493.9 1600.4 1493.9C1600.2 1493.9 1599.9 1493.9 1599.7 1493.9C1599.5 1493.9 1599.4 1493.9 1599.1 1494C1598.9 1494 1598.6 1494.1 1598.3 1494.1C1597.2 1494.1 1596 1494.1 1594.9 1494C1593.8 1493.9 1592.6 1493.9 1591.4 1493.9C1591.1 1493.9 1590.8 1493.9 1590.5 1493.9C1590.2 1493.9 1589.9 1494 1589.5 1494C1589.5 1495.3 1589.4 1496.6 1589.4 1497.9C1589.4 1499.2 1589.4 1500.6 1589.4 1501.9C1589.4 1502.3 1589.4 1502.7 1589.3 1503.1C1589.2 1503.5 1589.2 1503.9 1589.2 1504.3C1589.1 1505.3 1589.1 1506.2 1589.1 1507.1C1589.1 1508 1589.1 1509 1589.1 1509.9C1589.1 1512 1589.2 1514.1 1589.3 1516.3C1589.4 1518.4 1589.5 1520.6 1589.6 1522.8C1589.7 1523.9 1589.8 1525 1589.9 1526.1C1590 1527.2 1590.1 1528.3 1590.1 1529.4C1590.2 1532 1590.2 1534.5 1590.2 1537.1C1590.2 1539.6 1590.2 1542.2 1590.3 1544.8C1590.3 1545.6 1590.3 1546.4 1590.2 1547.1C1590.1 1547.8 1590.1 1548.6 1590.1 1549.4C1590.1 1551.1 1590.2 1552.9 1590.3 1554.6C1590.4 1556.3 1590.5 1558.1 1590.5 1559.8C1590.5 1560.6 1590.5 1561.5 1590.5 1562.3C1590.5 1563.1 1590.5 1564 1590.5 1564.8C1590.1 1565.4 1589.9 1565.9 1589.7 1566.4C1589.6 1566.9 1589.1 1567.1 1588.4 1567.1C1587.9 1567 1587.6 1566.8 1587.7 1566.6C1587.7 1566.4 1587.7 1566.2 1587.5 1566.1C1586.8 1566 1586.3 1566.1 1586 1566.3C1585.7 1566.5 1585.3 1566.7 1584.8 1566.8C1584.6 1566.7 1584.3 1566.7 1584.1 1566.7C1583.8 1566.7 1583.6 1566.7 1583.4 1566.7C1583.2 1566.7 1583.1 1566.8 1583 1566.9C1582.8 1567 1582.5 1567.1 1582 1567.1C1581.5 1567.2 1581.3 1567.1 1581.2 1566.9C1581.1 1566.7 1580.9 1566.6 1580.5 1566.6C1580.1 1566.8 1579.7 1567 1579.2 1567.1C1578.7 1567.2 1578.2 1567.3 1577.8 1567.3C1577.3 1567 1577.1 1566.7 1577.2 1566.5C1577.2 1566.2 1577.2 1565.9 1577 1565.7C1576.9 1565.6 1576.8 1565.3 1576.6 1565.1C1576.4 1564.8 1576.2 1564.6 1576.1 1564.5C1576.2 1563.4 1576.3 1562.5 1576.4 1561.7C1576.5 1560.9 1576.5 1560 1576.5 1559C1576.5 1557 1576.3 1555.1 1576.1 1553.2C1575.9 1551.3 1575.8 1549.4 1575.7 1547.4C1575.7 1546.8 1575.7 1546.2 1575.9 1545.5C1576 1544.8 1576.1 1544.1 1576.1 1543.3C1575.9 1542.7 1575.9 1542.3 1576 1542.2C1576.1 1542.1 1576.1 1542 1576.1 1541.8C1576.1 1541.3 1576.1 1540.9 1576 1540.4C1576 1539.9 1575.9 1539.5 1575.9 1539C1575.9 1538.1 1575.9 1537.2 1575.9 1536.3C1575.9 1535.4 1575.9 1534.5 1575.9 1533.6C1575.9 1533.2 1575.9 1532.8 1575.8 1532.4C1575.8 1532 1575.7 1531.6 1575.7 1531.2C1575.6 1530.5 1575.6 1529.8 1575.6 1529C1575.6 1528.2 1575.6 1527.5 1575.6 1526.7C1575.5 1523.1 1575.4 1519.5 1575.2 1515.9C1575 1512.3 1574.9 1508.8 1574.8 1505.1C1574.8 1503.4 1574.8 1501.6 1575 1499.8C1575.1 1498 1575.2 1496.2 1575.2 1494.3C1575.2 1494.1 1575.1 1493.8 1575 1493.4C1574.8 1493 1574.7 1492.8 1574.5 1492.6C1574.1 1492.6 1573.8 1492.6 1573.4 1492.6C1573.1 1492.6 1572.7 1492.6 1572.3 1492.6C1571.5 1492.6 1570.7 1492.7 1569.9 1493C1568.5 1493.1 1567.1 1493.2 1565.8 1493.4C1564.5 1493.5 1563.1 1493.7 1561.8 1493.8C1560.9 1493.7 1560.3 1493.7 1560.2 1493.8C1560 1493.8 1559.8 1493.9 1559.6 1493.9C1559 1493.9 1558.5 1493.8 1558.2 1493.5V1492C1557.7 1491.1 1557.5 1490.6 1557.6 1490.5C1557.7 1490.4 1557.7 1490.3 1557.7 1490.2C1557.7 1490 1557.5 1489.7 1557.1 1489.5C1556.7 1489.2 1556.5 1488.8 1556.4 1488.2C1556.3 1487.6 1556.1 1487.1 1555.9 1486.8C1555.7 1486.5 1555.5 1486.2 1555.5 1485.9C1555.5 1485.4 1555.6 1484.8 1555.8 1484.1C1556.5 1483.7 1557.1 1483.4 1557.8 1483.3C1558.4 1483.1 1559.2 1482.9 1560 1482.7C1560.5 1482.5 1560.9 1482.4 1561.2 1482.2C1561.6 1482 1562 1481.9 1562.4 1481.8C1562.9 1481.7 1563.5 1481.7 1564 1481.7C1564.5 1481.7 1565.1 1481.6 1565.6 1481.5C1566.7 1481.2 1567.9 1481 1569.2 1480.9C1570.4 1480.7 1571.6 1480.6 1572.8 1480.6C1573.9 1480.6 1574.9 1480.7 1576 1480.9C1577.1 1481.1 1578 1481.3 1578.8 1481.2C1580 1481.2 1581.2 1481.2 1582.3 1481.3C1583.4 1481.4 1584.6 1481.5 1585.8 1481.4C1585.9 1481.4 1586.2 1481.4 1586.5 1481.6C1586.8 1481.7 1587.2 1481.8 1587.7 1481.7L1598.7 1481.4C1599.3 1481.5 1599.7 1481.6 1600 1481.5C1600.3 1481.4 1600.5 1481.4 1600.7 1481.4C1601.3 1481.4 1601.9 1481.4 1602.4 1481.5C1602.9 1481.6 1603.5 1481.6 1604.1 1481.6C1604.6 1481.6 1605 1481.5 1605.3 1481.5C1605.9 1481.6 1606.5 1481.7 1607 1482C1607.5 1482.3 1608.1 1482.4 1608.8 1482.4C1609.1 1482.6 1609.3 1482.9 1609.5 1483.2C1609.8 1483.4 1610.1 1483.7 1610.5 1483.8Z" fill="black"/>
<path d="M1442.7 2030.2C1443.5 2088.6 1172.6 2009.5 1172.6 2009.5C1172.6 2009.5 1176.8 1956.2 1178.5 1941.5C1180.3 1926.8 1128.6 1964.4 1063.9 1963.3C999.202 1962.2 910.402 1944.8 846.602 1811.8C945.302 1814.3 979.902 1754.5 979.902 1754.5C1007.6 1717.7 1026.1 1691.5 1014.4 1667.5C1069.4 1762.2 1078.2 1686.1 1120 1538.1C1173.7 1326.8 1283.5 1250.5 1371.8 1245.7C1372 1245.7 1441.9 1971.8 1442.7 2030.2ZM1496 1679.5C1496 1679.5 1442 2066.2 1443 2070C1444 2073.9 1915.4 2208.2 1956.7 2031.3C1998 1854.4 1887.4 1546.3 1825.6 1419.8C1763.8 1293.2 1656.5 1238.2 1591.8 1236.2L1496 1679.5Z" fill="url(#paint0_linear_276_43)"/>
<path d="M1172.7 2009.5C1175.4 1984.1 1178.6 1955.8 1182.2 1924.3C1084.9 1990 989.901 1975.2 931.801 1923.5C1041.9 1958.2 1169.6 1921 1205.1 1733.2C1182.7 1960.7 1173.9 2004.1 1172.7 2009.5Z" fill="url(#paint1_linear_276_43)"/>
<path d="M1742.1 2257.2C1749.2 2136 1751.6 1976.6 1745.3 1818.4C1744.3 1792.4 1732.4 1604.5 1697.7 1472.2" stroke="black" stroke-width="18.3439" stroke-miterlimit="10" stroke-linecap="round" stroke-linejoin="round"/>
<path d="M1264.7 1459.5C1239 1518.6 1210.4 1668.6 1210.4 1668.6C1199.4 1734.7 1190.6 1801.1 1184.1 1867.8C1158.5 2127.5 1130.6 2357.4 1154.4 2389" stroke="black" stroke-width="18.3439" stroke-miterlimit="10" stroke-linecap="round" stroke-linejoin="round"/>
<path d="M1005.5 1645.8C1020.1 1667.3 1042.7 1714.1 1055.3 1710.9C1097.5 1700.2 1119.5 1355 1297.7 1268.4C1301.7 1266.4 1305.9 1264.8 1310.1 1263.2C1316.6 1260.8 1326.8 1257.2 1335.3 1254.6" stroke="black" stroke-width="18.3439" stroke-miterlimit="10" stroke-linecap="round" stroke-linejoin="round"/>
<path d="M1177.4 1934.6C1095.1 1990.9 914.703 1984 840.203 1804.8" stroke="black" stroke-width="18.3439" stroke-miterlimit="10" stroke-linecap="round" stroke-linejoin="round"/>
<path d="M1742.1 2257.2C1749.8 2125.5 1981.3 2261.4 1981.3 2261.4C2002.7 2254.1 1960.9 2107.6 1960.9 2000C1960.9 1894.2 1909.7 1299 1634.8 1240.9" stroke="black" stroke-width="18.3439" stroke-miterlimit="10" stroke-linecap="round" stroke-linejoin="round"/>
<path d="M1213.5 1653C1237.2 1503.5 1229.6 1475.9 1229.6 1475.9" stroke="black" stroke-width="18.3439" stroke-miterlimit="10" stroke-linecap="round" stroke-linejoin="round"/>
<path d="M1737.4 1715.9V1504.1" stroke="black" stroke-width="18.3439" stroke-miterlimit="10" stroke-linecap="round" stroke-linejoin="round"/>
<path d="M1055.3 1710.9C1085.9 1705.5 1122.2 1675.8 1153.5 1670.9" stroke="black" stroke-width="18.3439" stroke-miterlimit="10" stroke-linecap="round" stroke-linejoin="round"/>
<path d="M1768 2239.6C1812.7 2069.7 1763.3 1653 1737.4 1515C1744.6 1749.1 1745.6 1871.4 1749 1902.6C1752.4 1933.8 1737.4 2279.8 1737.4 2279.8L1756.9 2268.1L1768 2239.6Z" fill="url(#paint2_linear_276_43)"/>
<path d="M1005.1 1706.4C992.302 1697 978.602 1682.9 964.502 1664.4C964.002 1663.8 963.502 1663.2 963.102 1662.5C1001.6 1616.6 1024.4 1650.1 1005.1 1706.4Z" fill="#FF008B"/>
<path d="M882.002 1814.2C866.702 1816.6 854.002 1815.6 846.702 1811.8C829.102 1802.7 849.601 1782.3 861.601 1772.2C867.701 1786.8 874.502 1800.9 882.002 1814.2Z" fill="#FF008B"/>
<path d="M963.102 1662.5C1001.7 1616.6 1024.5 1650.1 1005.1 1706.5" stroke="black" stroke-width="18.3439" stroke-miterlimit="10" stroke-linecap="round" stroke-linejoin="round"/>
<path d="M882.002 1814.2C866.702 1816.6 854.002 1815.6 846.702 1811.8C829.102 1802.7 849.601 1782.3 861.601 1772.2" stroke="black" stroke-width="18.3439" stroke-miterlimit="10" stroke-linecap="round" stroke-linejoin="round"/>
<path d="M882 1814.2C916.1 1806.2 968.5 1780.4 993.4 1733.2C996.6 1727.1 1002.7 1712.3 1005.1 1706.5" stroke="black" stroke-width="18.3439" stroke-miterlimit="10" stroke-linecap="round" stroke-linejoin="round"/>
<path d="M1339.7 1225.4C1389 1204.1 1420.2 1208 1420.2 1208L1445.4 2093.4C1445.4 2093.4 1410 1661.4 1357 1705.6C1292.8 1759.1 1251.6 1889.1 1251.6 1889.1C1251.6 1889.1 1254.1 1747 1388.2 1476.2C1361 1475.6 1329 1483.4 1281.4 1613.5C1298 1497 1339.7 1225.4 1339.7 1225.4Z" fill="#FF008B" stroke="black" stroke-width="18.3439" stroke-miterlimit="10" stroke-linecap="round" stroke-linejoin="round"/>
<path d="M1644.2 1248.7C1593.7 1229 1560.8 1234.4 1560.8 1234.4L1459.9 2123C1459.9 2123 1532.3 1694.4 1583.5 1743.3C1647.2 1804.2 1677 1910.2 1677 1910.2C1677 1910.2 1690.7 1795.3 1570.8 1507.3C1598.5 1506.7 1600.2 1493.2 1669 1624C1612 1515.5 1644.2 1248.7 1644.2 1248.7Z" fill="url(#paint3_linear_276_43)"/>
<path d="M1633.2 1219.4C1582.7 1199.7 1549.8 1205.1 1549.8 1205.1L1448.9 2093.7C1448.9 2093.7 1521.3 1665.1 1572.5 1714C1636.2 1774.9 1669.5 1915.2 1669.5 1915.2C1669.5 1915.2 1679.7 1766 1559.8 1478C1587.5 1477.4 1621.7 1486.8 1661.6 1624C1654 1501.7 1633.2 1219.4 1633.2 1219.4Z" fill="#FF008B" stroke="black" stroke-width="18.3439" stroke-miterlimit="10" stroke-linecap="round" stroke-linejoin="round"/>
<path d="M1238.9 1307.4L1211.4 1285.2C1204.1 1281.1 1195.8 1288.7 1199.3 1296.3L1217.8 1331.3" fill="white"/>
<path d="M1238.9 1307.4L1211.4 1285.2C1204.1 1281.1 1195.8 1288.7 1199.3 1296.3L1217.8 1331.3" stroke="black" stroke-width="18.3439" stroke-miterlimit="10" stroke-linecap="round" stroke-linejoin="round"/>
<path d="M1287.8 1271.6L1264.7 1241.1C1259.1 1234.9 1248.8 1239.4 1249.6 1247.8L1256.9 1292.7" fill="white"/>
<path d="M1287.8 1271.6L1264.7 1241.1C1259.1 1234.9 1248.8 1239.4 1249.6 1247.8L1256.9 1292.7" stroke="black" stroke-width="18.3439" stroke-miterlimit="10" stroke-linecap="round" stroke-linejoin="round"/>
<path d="M1747.1 1302.7L1787.8 1267.9C1795.1 1263.8 1803.4 1271.4 1799.9 1279L1771.9 1329.2" fill="white"/>
<path d="M1747.1 1302.7L1787.8 1267.9C1795.1 1263.8 1803.4 1271.4 1799.9 1279L1771.9 1329.2" stroke="black" stroke-width="18.3439" stroke-miterlimit="10" stroke-linecap="round" stroke-linejoin="round"/>
<path d="M1697.8 1265.3L1734.5 1223.8C1740.1 1217.6 1750.4 1222.1 1749.6 1230.5L1730.6 1288.1" fill="white"/>
<path d="M1697.8 1265.3L1734.5 1223.8C1740.1 1217.6 1750.4 1222.1 1749.6 1230.5L1730.6 1288.1" stroke="black" stroke-width="18.3439" stroke-miterlimit="10" stroke-linecap="round" stroke-linejoin="round"/>
</g>
</g>
<defs>
<linearGradient id="paint0_linear_276_43" x1="846.739" y1="1679.36" x2="1965.66" y2="1679.36" gradientUnits="userSpaceOnUse">
<stop stop-color="#2D1FC3"/>
<stop offset="1" stop-color="#AE00A8"/>
</linearGradient>
<linearGradient id="paint1_linear_276_43" x1="931.761" y1="1871.34" x2="1205.05" y2="1871.34" gradientUnits="userSpaceOnUse">
<stop stop-color="#2D1FC3"/>
<stop offset="1" stop-color="#AE00A8"/>
</linearGradient>
<linearGradient id="paint2_linear_276_43" x1="1737.37" y1="1897.5" x2="1785.97" y2="1897.5" gradientUnits="userSpaceOnUse">
<stop stop-color="#2D1FC3"/>
<stop offset="1" stop-color="#AE00A8"/>
</linearGradient>
<linearGradient id="paint3_linear_276_43" x1="1459.94" y1="1678.42" x2="1677.49" y2="1678.42" gradientUnits="userSpaceOnUse">
<stop stop-color="#2D1FC3"/>
<stop offset="1" stop-color="#AE00A8"/>
</linearGradient>
<clipPath id="clip0_276_43">
<rect width="2000" height="2000" fill="white"/>
</clipPath>
</defs>
</svg>
