<svg width="2000" height="2000" viewBox="0 0 2000 2000" fill="none" xmlns="http://www.w3.org/2000/svg">
<mask id="mask0_198_370" style="mask-type:luminance" maskUnits="userSpaceOnUse" x="0" y="0" width="2000" height="2000">
<path d="M2000 0H0V2000H2000V0Z" fill="white"/>
</mask>
<g mask="url(#mask0_198_370)">
<path d="M1435.63 1537.95C1435.79 1538.32 1436.38 1539.12 1437.39 1540.35C1438.4 1541.58 1439.55 1542.91 1440.83 1544.36C1442.11 1545.81 1443.37 1547.2 1444.61 1548.53C1445.85 1549.86 1446.71 1550.83 1447.17 1551.42C1448.65 1553.5 1450.18 1555.55 1451.74 1557.56C1453.3 1559.57 1454.79 1561.65 1456.2 1563.81C1456.59 1564.18 1456.9 1564.65 1457.14 1565.21C1457.38 1565.77 1457.51 1566.36 1457.52 1566.96C1457.54 1567.64 1457.37 1568 1457.03 1568.05C1456.69 1568.1 1456.33 1568.2 1455.96 1568.36C1455.21 1568.91 1454.54 1569.22 1453.94 1569.32C1453.34 1569.41 1452.85 1569.46 1452.47 1569.47C1451.64 1569.49 1450.73 1569.49 1449.75 1569.47C1448.76 1569.45 1447.94 1569.53 1447.26 1569.7C1447.03 1569.78 1446.77 1569.92 1446.47 1570.11C1446.17 1570.3 1445.95 1570.41 1445.79 1570.41C1445.19 1570.42 1444.75 1570.34 1444.48 1570.16C1444.21 1569.98 1443.85 1569.81 1443.39 1569.67C1442.77 1569 1442.2 1568.3 1441.7 1567.55C1441.19 1566.81 1440.66 1566.06 1440.12 1565.32C1439.65 1564.8 1439.15 1564.34 1438.61 1563.93C1438.07 1563.53 1437.57 1563.03 1437.1 1562.43C1435.85 1560.72 1434.58 1559.08 1433.3 1557.52C1432.02 1555.96 1430.71 1554.4 1429.39 1552.84C1428.77 1552.02 1428.09 1551.24 1427.35 1550.5C1426.61 1549.76 1425.93 1549.02 1425.31 1548.28C1424.68 1547.46 1424.1 1546.6 1423.55 1545.71C1423 1544.81 1422.41 1543.96 1421.79 1543.14C1421.32 1542.4 1420.66 1541.48 1419.8 1540.4C1418.94 1539.32 1418.05 1538.23 1417.11 1537.11C1416.18 1536 1415.23 1534.94 1414.26 1533.94C1413.29 1532.94 1412.46 1532.18 1411.77 1531.67C1411.76 1531.14 1411.6 1530.77 1411.29 1530.55C1410.98 1530.33 1410.64 1530.07 1410.25 1529.78C1410.09 1529.41 1409.89 1529.05 1409.66 1528.72C1409.43 1528.39 1409.3 1527.99 1409.29 1527.54C1409.29 1527.24 1409.32 1526.97 1409.39 1526.74C1409.46 1526.51 1409.53 1526.28 1409.6 1526.05C1409.75 1525.74 1409.83 1525.46 1409.86 1525.19C1409.89 1524.93 1409.98 1524.64 1410.12 1524.33C1410.48 1523.34 1411 1522.46 1411.71 1521.68C1412.41 1520.91 1412.94 1520.03 1413.29 1519.04C1413.36 1518.74 1413.39 1518.45 1413.38 1518.18C1413.38 1517.92 1413.44 1517.63 1413.59 1517.32C1413.81 1516.86 1414.14 1516.4 1414.58 1515.94C1415.02 1515.48 1415.43 1514.98 1415.79 1514.44C1416.15 1513.75 1416.51 1513.06 1416.88 1512.37C1417.24 1511.68 1417.6 1510.99 1417.97 1510.3C1418.99 1508.54 1420.12 1506.83 1421.37 1505.17C1422.62 1503.52 1423.79 1501.88 1424.89 1500.27C1425.91 1498.73 1426.86 1497.22 1427.74 1495.72C1428.61 1494.22 1429.56 1492.71 1430.59 1491.17C1431.1 1490.4 1431.69 1489.54 1432.35 1488.58C1433.01 1487.62 1433.69 1486.68 1434.39 1485.75C1435.09 1484.83 1435.8 1483.96 1436.54 1483.15C1437.28 1482.34 1438.02 1481.74 1438.77 1481.34C1440.05 1481.16 1440.89 1481.34 1441.28 1481.91C1441.67 1482.47 1442.21 1482.74 1442.89 1482.73C1443.95 1482.93 1444.68 1483.26 1445.07 1483.7C1445.46 1484.15 1445.84 1484.55 1446.23 1484.92C1447.21 1484.9 1448.05 1485.07 1448.74 1485.43C1449.43 1485.8 1450.12 1486.35 1450.82 1487.09C1450.54 1487.93 1450.16 1488.69 1449.68 1489.39C1449.2 1490.08 1448.78 1490.81 1448.42 1491.58C1447.82 1491.82 1447.39 1492.21 1447.14 1492.74C1446.89 1493.28 1446.5 1493.74 1445.98 1494.13C1445.18 1495.43 1444.37 1496.72 1443.57 1497.99C1442.77 1499.26 1441.96 1500.47 1441.16 1501.62C1440.79 1502.08 1440.36 1502.45 1439.88 1502.73C1439.39 1503.01 1439.01 1503.41 1438.72 1503.95C1438.57 1504.18 1438.46 1504.43 1438.4 1504.7C1438.33 1504.97 1438.22 1505.21 1438.08 1505.44C1437.21 1506.9 1436.21 1508.32 1435.11 1509.71C1434.01 1511.1 1433.06 1512.56 1432.26 1514.09C1431.89 1514.63 1431.6 1515.18 1431.39 1515.75C1431.18 1516.32 1430.92 1516.88 1430.63 1517.41C1430.34 1517.87 1429.92 1518.52 1429.37 1519.37C1428.82 1520.21 1428.27 1521.08 1427.73 1521.96C1427.18 1522.84 1426.71 1523.68 1426.31 1524.49C1425.91 1525.29 1425.72 1525.96 1425.73 1526.49C1425.81 1526.87 1426.32 1527.61 1427.26 1528.73C1428.19 1529.85 1429.22 1531.03 1430.35 1532.29C1431.47 1533.55 1432.56 1534.74 1433.61 1535.85C1434.66 1536.96 1435.34 1537.67 1435.64 1537.96L1435.63 1537.95Z" fill="black"/>
<path d="M1510.76 1567.46C1510.4 1568.38 1509.62 1569.15 1508.43 1569.78C1507.89 1569.49 1507.41 1569.14 1506.99 1568.74C1506.57 1568.34 1506.05 1568.02 1505.44 1567.81C1504.97 1566.91 1504.61 1566.37 1504.38 1566.19C1504.15 1566.01 1503.88 1565.88 1503.58 1565.81C1503.12 1565.44 1502.73 1565 1502.41 1564.47C1502.09 1563.95 1501.74 1563.5 1501.36 1563.13C1501.21 1563.06 1500.92 1562.82 1500.49 1562.41C1500.06 1562.01 1499.62 1561.58 1499.16 1561.14C1498.7 1560.7 1498.27 1560.27 1497.88 1559.86C1497.49 1559.45 1497.26 1559.25 1497.19 1559.25C1496.5 1558.81 1495.88 1558.34 1495.34 1557.82C1495.18 1557.6 1495.01 1557.36 1494.81 1557.1C1494.61 1556.84 1494.44 1556.64 1494.29 1556.49C1493.68 1556.28 1493.18 1555.97 1492.79 1555.56C1492.4 1555.15 1492.03 1554.69 1491.68 1554.17C1491.33 1553.65 1490.94 1553.19 1490.51 1552.78C1490.08 1552.38 1489.6 1552.06 1489.07 1551.85C1488.52 1551.11 1487.86 1550.5 1487.1 1550.02C1486.33 1549.55 1485.68 1548.98 1485.13 1548.31C1484.66 1547.79 1484.16 1547.29 1483.62 1546.81C1483.08 1546.33 1482.5 1545.87 1481.88 1545.43C1481.57 1544.98 1481.06 1544.33 1480.36 1543.48C1479.66 1542.63 1479.04 1542.17 1478.51 1542.1C1478.47 1543.84 1478.46 1545.58 1478.46 1547.32C1478.46 1549.06 1478.44 1550.8 1478.41 1552.54C1478.43 1553.45 1478.47 1554.39 1478.53 1555.38C1478.59 1556.36 1478.59 1557.35 1478.54 1558.33C1478.47 1558.71 1478.39 1559.11 1478.28 1559.53C1478.18 1559.95 1478.13 1560.38 1478.14 1560.84C1478.16 1561.75 1478.12 1562.34 1478.01 1562.6C1477.9 1562.87 1477.81 1563.12 1477.74 1563.34C1477.53 1564.1 1477.34 1565.03 1477.18 1566.13C1477.02 1567.23 1476.64 1568.09 1476.05 1568.71C1475.22 1568.8 1474.57 1568.74 1474.11 1568.53C1473.96 1568.68 1473.81 1568.84 1473.67 1568.99C1473.52 1569.14 1473.3 1569.23 1472.99 1569.23C1472.83 1569.08 1472.59 1568.95 1472.24 1568.85C1471.9 1568.74 1471.65 1568.69 1471.5 1568.7C1471.12 1568.7 1470.73 1568.79 1470.31 1568.95C1469.9 1569.11 1469.5 1569.2 1469.12 1569.2C1468.74 1569.2 1468.42 1569.12 1468.15 1568.94C1467.88 1568.76 1467.56 1568.67 1467.18 1568.68C1466.95 1568.68 1466.69 1568.81 1466.39 1569.04C1466.09 1569.27 1465.79 1569.39 1465.49 1569.4C1465.11 1569.4 1464.79 1569.36 1464.52 1569.25C1464.25 1569.14 1463.96 1569.05 1463.66 1568.99C1463.66 1568.76 1463.66 1568.54 1463.7 1568.31C1463.74 1568.08 1463.7 1567.86 1463.63 1567.63L1463.11 1564.8C1463.17 1564.27 1463.26 1563.74 1463.36 1563.21C1463.46 1562.68 1463.55 1562.19 1463.61 1561.73C1463.66 1560.52 1463.69 1559.36 1463.7 1558.27C1463.71 1557.17 1463.7 1556.05 1463.68 1554.92C1463.64 1552.95 1463.57 1551.03 1463.49 1549.13C1463.41 1547.24 1463.39 1545.31 1463.42 1543.34C1463.48 1542.66 1463.56 1541.96 1463.66 1541.24C1463.76 1540.52 1463.8 1539.82 1463.78 1539.14C1463.74 1537.17 1463.8 1535.24 1463.99 1533.35C1464.17 1531.45 1464.32 1529.52 1464.43 1527.55C1464.55 1526.03 1464.59 1524.56 1464.56 1523.12C1464.53 1521.68 1464.49 1520.25 1464.46 1518.81C1464.4 1516.01 1464.29 1513.23 1464.16 1510.47C1464.02 1507.71 1463.92 1504.97 1463.86 1502.25C1463.84 1501.34 1463.85 1500.11 1463.89 1498.56C1463.93 1497.01 1463.83 1495.82 1463.58 1494.99C1463.6 1492.8 1463.56 1490.64 1463.43 1488.52C1463.73 1488.36 1463.89 1488.13 1463.93 1487.83C1463.96 1487.53 1463.97 1487.23 1463.97 1486.92L1463.93 1485.33C1464.59 1484.56 1465.15 1484.17 1465.61 1484.16C1465.99 1484.16 1466.37 1484.18 1466.75 1484.25C1467.13 1484.32 1467.51 1484.46 1467.89 1484.68C1468.87 1484.43 1469.51 1484.38 1469.82 1484.52C1470.12 1484.67 1470.47 1484.81 1470.85 1484.95C1471.45 1484.86 1471.86 1484.59 1472.08 1484.13C1472.92 1484.26 1473.34 1484.44 1473.34 1484.67C1473.34 1484.9 1473.43 1485.12 1473.58 1485.35C1474.34 1485.41 1474.85 1485.35 1475.11 1485.15C1475.37 1484.96 1475.69 1484.82 1476.07 1484.73C1476.75 1484.87 1477.21 1485.04 1477.44 1485.26C1477.45 1485.71 1477.58 1486.22 1477.82 1486.79C1478.06 1487.35 1478.19 1488.09 1478.21 1488.99C1478.23 1489.67 1478.21 1490.33 1478.14 1490.98C1478.08 1491.63 1478.06 1492.25 1478.07 1492.85C1478.09 1493.91 1478.16 1494.93 1478.25 1495.91C1478.35 1496.89 1478.41 1497.91 1478.43 1498.97C1478.43 1499.27 1478.43 1499.56 1478.39 1499.82C1478.36 1500.09 1478.35 1500.37 1478.35 1500.67C1478.42 1503.55 1478.56 1506.45 1478.78 1509.4C1479 1512.35 1479.14 1515.3 1479.21 1518.25C1479.21 1518.4 1479.18 1518.61 1479.11 1518.88C1479.04 1519.15 1479.08 1519.36 1479.24 1519.5C1480.49 1518.11 1481.56 1516.63 1482.43 1515.06C1483.3 1513.49 1484.25 1511.94 1485.28 1510.4C1486.16 1509.25 1487.06 1507.86 1487.97 1506.25C1488.88 1504.64 1489.66 1503.19 1490.31 1501.88C1490.6 1501.42 1490.86 1500.96 1491.07 1500.5C1491.29 1500.04 1491.54 1499.58 1491.83 1499.12C1491.97 1498.74 1492.17 1498.37 1492.43 1498.03C1492.69 1497.69 1492.89 1497.28 1493.03 1496.83C1493.39 1496.22 1493.72 1495.62 1494.01 1495.05C1494.3 1494.48 1494.63 1493.88 1494.99 1493.27C1495.35 1492.66 1495.74 1492.1 1496.14 1491.6C1496.54 1491.1 1496.93 1490.58 1497.3 1490.04C1497.88 1489.04 1498.5 1488.02 1499.16 1486.99C1499.82 1485.95 1500.4 1484.9 1500.9 1483.83C1501.65 1483.43 1502.32 1482.99 1502.91 1482.48C1503.5 1481.98 1504.14 1481.53 1504.81 1481.13C1505.59 1482.1 1506.15 1482.76 1506.5 1483.13C1506.85 1483.5 1507.33 1483.72 1507.93 1483.78C1508.08 1484 1508.19 1484.27 1508.23 1484.57C1508.27 1484.87 1508.41 1485.1 1508.64 1485.24C1509.55 1485.29 1510.08 1485.28 1510.23 1485.2C1510.47 1485.58 1510.79 1485.85 1511.21 1486.03C1511.63 1486.21 1512.03 1486.37 1512.41 1486.51C1512.41 1486.74 1512.42 1486.98 1512.43 1487.25C1512.43 1487.52 1512.48 1487.72 1512.56 1487.87C1513.48 1488.23 1513.95 1488.94 1513.97 1490C1512.59 1492.6 1511.08 1495.08 1509.43 1497.42C1507.78 1499.77 1506.34 1502.28 1505.12 1504.95C1504.76 1505.79 1504.34 1506.6 1503.87 1507.36C1503.39 1508.13 1503.01 1508.93 1502.73 1509.77C1502.21 1510.31 1501.81 1510.87 1501.52 1511.44C1501.23 1512.02 1500.86 1512.57 1500.42 1513.11C1500.12 1513.5 1499.83 1513.9 1499.54 1514.32C1499.25 1514.74 1498.95 1515.15 1498.66 1515.53C1498.07 1516.38 1497.54 1517.24 1497.07 1518.12C1496.6 1519 1496.03 1519.87 1495.37 1520.71C1494.93 1521.48 1494.42 1522.24 1493.83 1523.01C1493.24 1523.86 1492.75 1524.79 1492.36 1525.82C1491.97 1526.85 1491.48 1527.79 1490.89 1528.63C1490.3 1529.55 1490 1530.22 1489.97 1530.64C1489.94 1531.06 1489.75 1531.76 1489.39 1532.75C1489.94 1533.57 1490.56 1534.31 1491.26 1534.98C1491.96 1535.65 1492.69 1536.27 1493.46 1536.86C1494.08 1537.68 1494.8 1538.4 1495.61 1539.02C1496.42 1539.65 1497.25 1540.33 1498.1 1541.06C1498.41 1541.36 1498.68 1541.63 1498.91 1541.89C1499.14 1542.15 1499.41 1542.39 1499.72 1542.61C1500.57 1543.5 1501.59 1544.35 1502.78 1545.15C1503.97 1545.96 1505.1 1546.73 1506.18 1547.45C1507.03 1548.19 1508.09 1549.09 1509.36 1550.16C1510.63 1551.23 1511.96 1552.37 1513.35 1553.59C1514.74 1554.81 1515.98 1555.95 1517.06 1557.03C1518.14 1558.1 1518.69 1558.79 1518.7 1559.09C1518.35 1560.24 1517.93 1560.94 1517.44 1561.22C1516.95 1561.5 1516.61 1561.9 1516.39 1562.44C1515.94 1562.6 1515.72 1562.76 1515.72 1562.91C1515.72 1563.06 1515.62 1563.33 1515.4 1563.71C1514.88 1564.1 1514.43 1564.55 1514.07 1565.04C1513.7 1565.54 1513.34 1566.02 1512.97 1566.48C1512.67 1566.64 1512.39 1566.78 1512.13 1566.9C1511.87 1567.02 1511.66 1567.23 1511.52 1567.54L1510.72 1567.44L1510.76 1567.46Z" fill="black"/>
<path d="M1547.53 1481.94C1548.08 1482.91 1548.37 1484.04 1548.4 1485.32C1548.43 1486.45 1548.23 1487.67 1547.8 1488.97C1547.38 1490.27 1546.68 1491.27 1545.71 1491.97C1545.06 1493.5 1544.43 1494.74 1543.81 1495.7C1543.19 1496.66 1542.59 1497.6 1542 1498.52C1541.79 1499.05 1541.57 1499.57 1541.35 1500.07C1541.13 1500.57 1540.84 1501.08 1540.48 1501.62C1540.26 1502 1539.79 1502.77 1539.06 1503.92C1538.33 1505.07 1537.58 1506.28 1536.82 1507.55C1536.05 1508.82 1535.38 1510.03 1534.8 1511.17C1534.22 1512.32 1533.93 1513.04 1533.94 1513.35C1533.94 1513.65 1534.31 1514.02 1535.04 1514.46C1535.77 1514.9 1536.25 1515.23 1536.48 1515.45C1536.87 1515.82 1537.24 1516.19 1537.58 1516.56C1537.93 1516.93 1538.3 1517.3 1538.68 1517.67C1539.53 1518.33 1540.35 1518.99 1541.17 1519.66C1541.98 1520.32 1542.81 1521.06 1543.66 1521.87C1545.28 1523.27 1546.98 1524.59 1548.75 1525.84C1550.52 1527.09 1552.1 1528.56 1553.51 1530.27C1554.8 1530.62 1555.66 1531.51 1556.07 1532.94C1556.48 1534.37 1556.63 1535.73 1556.5 1537.02C1556.66 1537.24 1556.79 1537.47 1556.91 1537.69C1557.03 1537.91 1557.17 1538.18 1557.33 1538.47C1557.36 1539.68 1557.21 1540.57 1556.88 1541.15C1556.55 1541.72 1556.21 1542.43 1555.85 1543.27C1555.49 1544.03 1555.26 1544.8 1555.16 1545.56C1555.06 1546.32 1554.83 1547 1554.47 1547.62C1554.32 1547.85 1554.12 1548.05 1553.86 1548.2C1553.6 1548.36 1553.4 1548.59 1553.25 1548.89C1552.96 1549.43 1552.73 1550.06 1552.56 1550.78C1552.39 1551.5 1552.16 1552.17 1551.87 1552.78C1551.66 1553.39 1551.39 1554 1551.06 1554.61C1550.73 1555.22 1550.46 1555.83 1550.25 1556.44C1550.11 1556.82 1549.99 1557.28 1549.88 1557.81C1549.77 1558.34 1549.43 1558.73 1548.83 1558.97C1548.48 1560.34 1548 1561.68 1547.39 1562.98C1546.78 1564.28 1546.3 1565.61 1545.95 1566.99C1545.27 1567.23 1544.43 1567.68 1543.43 1568.35C1542.42 1569.01 1541.62 1569.36 1541.01 1569.37C1540.78 1569.37 1540.59 1569.26 1540.44 1569.04C1540.28 1568.82 1540.05 1568.63 1539.75 1568.49C1539.6 1568.41 1539.39 1568.42 1539.13 1568.5C1538.87 1568.58 1538.66 1568.62 1538.51 1568.63C1538.13 1568.63 1537.84 1568.49 1537.65 1568.2C1537.45 1567.9 1537.2 1567.68 1536.9 1567.54C1536.67 1567.62 1536.45 1567.7 1536.22 1567.78C1535.99 1567.86 1535.77 1567.91 1535.54 1567.91C1535.01 1567.92 1534.7 1567.8 1534.62 1567.53C1534.54 1567.27 1534.31 1567.03 1533.92 1566.81C1533 1566.37 1532.46 1565.97 1532.3 1565.6C1532.14 1565.23 1531.91 1564.97 1531.6 1564.82C1532.08 1562.84 1532.76 1560.96 1533.63 1559.16C1534.5 1557.36 1535.32 1555.54 1536.12 1553.71C1536.33 1553.1 1536.6 1552.53 1536.93 1551.99C1537.26 1551.45 1537.57 1550.88 1537.86 1550.27C1538.07 1549.74 1538.4 1549.05 1538.83 1548.21C1539.26 1547.37 1539.66 1546.49 1540.02 1545.57C1540.38 1544.65 1540.7 1543.8 1540.98 1542.99C1541.26 1542.19 1541.4 1541.52 1541.39 1541C1541.37 1539.94 1541.05 1539.15 1540.43 1538.64C1538.19 1536.88 1536.09 1535.07 1534.12 1533.22C1532.15 1531.38 1530.08 1529.49 1527.92 1527.57C1526.53 1526.39 1525.03 1525.18 1523.41 1523.93C1523.1 1523.71 1522.87 1523.37 1522.71 1522.92C1522.55 1522.47 1522.31 1522.06 1522 1521.69C1521.84 1521.39 1521.61 1521.17 1521.3 1521.02C1520.99 1520.88 1520.76 1520.65 1520.6 1520.35C1520.37 1520.05 1520.21 1519.7 1520.12 1519.28C1520.03 1518.87 1519.8 1518.55 1519.42 1518.33C1519.03 1517.96 1518.57 1517.75 1518.04 1517.68C1517.51 1517.62 1517.05 1517.4 1516.66 1517.03C1516.88 1516.8 1516.97 1516.55 1516.93 1516.29C1516.89 1516.02 1516.86 1515.78 1516.86 1515.55C1516.85 1515.02 1517.07 1514.64 1517.51 1514.4C1517.96 1514.16 1518.18 1513.74 1518.16 1513.14C1518.45 1512.53 1518.67 1512.14 1518.81 1511.99C1519.6 1509.93 1520.5 1507.94 1521.51 1506.03C1522.52 1504.12 1523.58 1502.2 1524.67 1500.28C1525.03 1499.67 1525.38 1499.07 1525.71 1498.5C1526.04 1497.92 1526.38 1497.33 1526.75 1496.72C1526.96 1496.19 1527.16 1495.71 1527.34 1495.29C1527.52 1494.87 1527.79 1494.47 1528.16 1494.08C1529.19 1492.85 1530.05 1491.69 1530.75 1490.62C1531.44 1489.54 1531.96 1488.25 1532.31 1486.72C1532.38 1486.34 1532.52 1485.81 1532.73 1485.12C1532.94 1484.43 1533.21 1483.75 1533.54 1483.06C1533.86 1482.37 1534.21 1481.76 1534.58 1481.22C1534.95 1480.68 1535.36 1480.41 1535.81 1480.4C1536.19 1480.4 1536.74 1480.53 1537.47 1480.82C1538.2 1481.11 1538.82 1481.32 1539.36 1481.46C1539.82 1481.6 1540.29 1481.72 1540.79 1481.82C1541.28 1481.92 1541.76 1481.97 1542.21 1481.96C1542.51 1481.96 1542.81 1481.85 1543.11 1481.66C1543.41 1481.47 1543.75 1481.36 1544.13 1481.36C1544.73 1481.35 1545.3 1481.43 1545.84 1481.6C1546.37 1481.78 1546.94 1481.9 1547.55 1481.96L1547.53 1481.94Z" fill="black"/>
<path d="M1610.45 1483.8C1610.3 1484.11 1610.25 1484.41 1610.3 1484.71C1610.34 1485.01 1610.37 1485.35 1610.38 1485.73C1610.25 1486.64 1610.26 1487.09 1610.41 1487.09C1610.56 1487.09 1610.64 1487.16 1610.64 1487.31L1609.87 1488.46C1609.88 1488.91 1609.79 1489.33 1609.61 1489.72C1609.43 1490.1 1609.38 1490.56 1609.47 1491.09C1609.25 1491.47 1609.05 1491.86 1608.87 1492.24C1608.69 1492.62 1608.41 1493.01 1608.04 1493.39L1606.57 1493.42C1605.74 1493.44 1604.85 1493.52 1603.91 1493.65C1602.97 1493.79 1602.04 1493.86 1601.14 1493.88C1600.99 1493.88 1600.8 1493.88 1600.57 1493.84C1600.34 1493.81 1600.11 1493.79 1599.89 1493.8C1599.74 1493.8 1599.55 1493.83 1599.32 1493.87C1599.09 1493.91 1598.83 1493.94 1598.53 1493.94C1597.4 1493.97 1596.28 1493.94 1595.18 1493.85C1594.08 1493.76 1592.93 1493.73 1591.72 1493.76C1591.42 1493.76 1591.11 1493.77 1590.81 1493.78C1590.51 1493.79 1590.17 1493.83 1589.79 1493.92C1589.74 1495.21 1589.72 1496.52 1589.71 1497.84C1589.71 1499.17 1589.71 1500.51 1589.74 1501.87C1589.74 1502.25 1589.72 1502.65 1589.65 1503.06C1589.58 1503.48 1589.56 1503.88 1589.56 1504.25C1589.51 1505.23 1589.47 1506.18 1589.46 1507.09C1589.44 1508 1589.44 1508.95 1589.46 1509.93C1589.51 1512.05 1589.57 1514.17 1589.66 1516.28C1589.74 1518.4 1589.85 1520.55 1589.98 1522.74C1590.08 1523.87 1590.18 1524.97 1590.28 1526.03C1590.38 1527.09 1590.44 1528.18 1590.47 1529.32C1590.53 1531.89 1590.55 1534.44 1590.53 1536.98C1590.51 1539.52 1590.53 1542.07 1590.59 1544.64C1590.61 1545.47 1590.59 1546.25 1590.53 1546.97C1590.47 1547.69 1590.45 1548.47 1590.47 1549.3C1590.51 1551.04 1590.59 1552.78 1590.7 1554.52C1590.81 1556.26 1590.89 1558 1590.93 1559.74C1590.95 1560.57 1590.95 1561.4 1590.93 1562.24C1590.91 1563.07 1590.91 1563.9 1590.93 1564.74C1590.56 1565.35 1590.31 1565.89 1590.17 1566.35C1590.03 1566.81 1589.58 1567.04 1588.82 1567.06C1588.29 1566.92 1588.04 1566.75 1588.07 1566.57C1588.1 1566.38 1588.04 1566.21 1587.89 1566.07C1587.21 1566.01 1586.7 1566.07 1586.36 1566.27C1586.02 1566.47 1585.63 1566.64 1585.18 1566.81C1584.95 1566.74 1584.7 1566.71 1584.44 1566.71C1584.17 1566.71 1583.93 1566.72 1583.7 1566.73C1583.55 1566.73 1583.4 1566.79 1583.25 1566.91C1583.1 1567.03 1582.76 1567.09 1582.23 1567.11C1581.78 1567.19 1581.51 1567.13 1581.43 1566.9C1581.35 1566.67 1581.12 1566.57 1580.74 1566.57C1580.37 1566.81 1579.94 1566.98 1579.45 1567.11C1578.96 1567.23 1578.49 1567.3 1578.04 1567.31C1577.58 1567.02 1577.36 1566.74 1577.4 1566.47C1577.43 1566.2 1577.37 1565.92 1577.21 1565.62C1577.13 1565.47 1576.99 1565.27 1576.8 1565.01C1576.6 1564.75 1576.43 1564.55 1576.27 1564.4C1576.4 1563.34 1576.49 1562.39 1576.55 1561.55C1576.61 1560.72 1576.62 1559.81 1576.6 1558.83C1576.56 1556.86 1576.44 1554.94 1576.24 1553.05C1576.04 1551.16 1575.93 1549.24 1575.88 1547.27C1575.87 1546.67 1575.93 1546.02 1576.06 1545.34C1576.2 1544.66 1576.25 1543.93 1576.24 1543.18C1576.07 1542.58 1576.03 1542.22 1576.1 1542.11C1576.17 1541.99 1576.21 1541.86 1576.2 1541.71C1576.19 1541.26 1576.16 1540.8 1576.11 1540.35C1576.06 1539.9 1576.03 1539.44 1576.02 1538.99C1576 1538.08 1576 1537.17 1576.02 1536.27C1576.04 1535.36 1576.03 1534.45 1576.02 1533.55C1576.02 1533.17 1575.98 1532.78 1575.94 1532.36C1575.89 1531.95 1575.86 1531.55 1575.86 1531.17C1575.77 1530.49 1575.73 1529.77 1575.76 1529.02C1575.78 1528.26 1575.78 1527.51 1575.76 1526.75C1575.68 1523.12 1575.54 1519.53 1575.35 1515.97C1575.16 1512.42 1575.02 1508.83 1574.93 1505.2C1574.89 1503.46 1574.94 1501.68 1575.09 1499.86C1575.24 1498.04 1575.29 1496.22 1575.25 1494.41C1575.25 1494.18 1575.16 1493.88 1575 1493.51C1574.84 1493.14 1574.68 1492.88 1574.53 1492.72C1574.15 1492.72 1573.79 1492.72 1573.45 1492.69C1573.11 1492.66 1572.75 1492.65 1572.37 1492.66C1571.54 1492.68 1570.75 1492.81 1570 1493.05C1568.56 1493.16 1567.18 1493.29 1565.87 1493.43C1564.55 1493.58 1563.21 1493.7 1561.85 1493.81C1560.94 1493.76 1560.39 1493.75 1560.2 1493.79C1560.01 1493.83 1559.8 1493.86 1559.58 1493.86C1558.97 1493.87 1558.52 1493.73 1558.21 1493.44L1558.18 1491.96C1557.71 1491.06 1557.51 1490.58 1557.58 1490.5C1557.65 1490.42 1557.69 1490.31 1557.69 1490.16C1557.69 1489.93 1557.47 1489.69 1557.05 1489.44C1556.63 1489.19 1556.41 1488.76 1556.4 1488.15C1556.31 1487.55 1556.15 1487.1 1555.92 1486.8C1555.69 1486.5 1555.57 1486.2 1555.56 1485.9C1555.55 1485.37 1555.65 1484.76 1555.86 1484.08C1556.53 1483.69 1557.19 1483.41 1557.83 1483.24C1558.47 1483.07 1559.2 1482.87 1560.03 1482.62C1560.48 1482.46 1560.89 1482.3 1561.27 1482.14C1561.64 1481.98 1562.06 1481.86 1562.51 1481.77C1563.04 1481.69 1563.56 1481.63 1564.1 1481.62C1564.63 1481.61 1565.16 1481.56 1565.69 1481.47C1566.82 1481.22 1568.01 1481 1569.25 1480.82C1570.49 1480.64 1571.68 1480.54 1572.82 1480.51C1573.88 1480.49 1574.94 1480.59 1576.01 1480.83C1577.07 1481.07 1578.02 1481.18 1578.86 1481.16C1580.07 1481.13 1581.22 1481.18 1582.33 1481.31C1583.43 1481.44 1584.58 1481.49 1585.8 1481.46C1585.95 1481.46 1586.2 1481.51 1586.54 1481.61C1586.88 1481.72 1587.28 1481.77 1587.74 1481.76L1598.74 1481.51C1599.35 1481.65 1599.78 1481.67 1600.05 1481.59C1600.31 1481.51 1600.56 1481.47 1600.79 1481.46C1601.39 1481.45 1601.96 1481.47 1602.49 1481.53C1603.02 1481.59 1603.59 1481.62 1604.19 1481.61C1604.72 1481.6 1605.13 1481.55 1605.44 1481.47C1606.05 1481.53 1606.62 1481.69 1607.15 1481.94C1607.69 1482.19 1608.29 1482.31 1608.98 1482.29C1609.29 1482.51 1609.52 1482.79 1609.68 1483.13C1609.84 1483.47 1610.11 1483.71 1610.49 1483.85L1610.45 1483.8Z" fill="black"/>
<path d="M1442.73 2030.18C1443.57 2088.54 1172.65 2009.49 1172.65 2009.49C1172.65 2009.49 1176.84 1956.18 1178.59 1941.52C1180.34 1926.86 1128.71 1964.47 1064.02 1963.35C999.332 1962.23 937.022 1897.86 919.812 1884C902.602 1870.14 860.532 1807.83 852.732 1784.41C844.932 1760.99 857.032 1771.5 892.572 1769.75C928.102 1768 957.852 1708.76 957.852 1708.76C985.552 1671.96 966.542 1642.5 1000 1674.87C1077.96 1759.14 1078.4 1686.08 1120.17 1538.08C1173.88 1326.83 1283.68 1250.44 1372 1245.67C1372 1245.67 1441.88 1971.82 1442.73 2030.18ZM1495.99 1679.46C1495.99 1679.46 1442 2066.13 1442.97 2069.99C1443.94 2073.85 1915.39 2208.14 1956.66 2031.34C1997.93 1854.54 1887.37 1546.37 1825.54 1419.81C1763.71 1293.25 1656.47 1238.18 1591.75 1236.25L1495.99 1679.45V1679.46Z" fill="url(#paint0_linear_198_370)"/>
<path style="mix-blend-mode:multiply" d="M1172.66 2009.49C1175.37 1984.07 1178.53 1955.74 1182.16 1924.26C1084.83 1990 1004.44 1959.22 946.332 1907.49C1056.47 1942.2 1169.54 1920.95 1205.05 1733.19C1182.75 1960.69 1173.9 2004.09 1172.66 2009.49Z" fill="url(#paint1_linear_198_370)"/>
<path d="M1742.1 2257.24C1749.23 2136.03 1751.57 1976.67 1745.32 1818.41C1744.29 1792.36 1732.38 1604.47 1697.68 1472.23" stroke="black" stroke-width="18.34" stroke-linecap="round" stroke-linejoin="round"/>
<path d="M1264.72 1459.49C1239.03 1518.59 1210.47 1668.62 1210.47 1668.62C1199.5 1734.69 1190.72 1801.14 1184.14 1867.79C1158.52 2127.45 1130.68 2357.39 1154.42 2389.03" stroke="black" stroke-width="18.34" stroke-linecap="round" stroke-linejoin="round"/>
<path d="M962.871 1636.98C977.511 1658.52 1042.67 1714.05 1055.25 1710.89C1097.44 1700.18 1119.44 1354.96 1297.6 1268.38C1301.63 1266.42 1305.78 1264.77 1309.98 1263.22C1316.51 1260.82 1326.67 1257.18 1335.22 1254.63" stroke="black" stroke-width="18.34" stroke-linecap="round" stroke-linejoin="round"/>
<path d="M1177.42 1934.57C1088.92 1995.14 897.252 1952.99 834.062 1736.09" stroke="black" stroke-width="18.34" stroke-linecap="round" stroke-linejoin="round"/>
<path d="M1742.09 2257.25C1749.83 2125.58 1981.33 2261.45 1981.33 2261.45C2002.68 2254.15 1960.93 2107.63 1960.93 2000C1960.93 1892.37 1909.77 1299.02 1634.81 1240.88" stroke="black" stroke-width="18.34" stroke-linecap="round" stroke-linejoin="round"/>
<path d="M968.781 1684.33C950.071 1662.54 935.031 1638.32 927.621 1625.63C944.681 1623.06 959.131 1628.56 966.551 1642.51C967.831 1644.89 968.831 1647.43 969.601 1650.14C969.601 1650.14 969.601 1650.15 969.601 1650.18C972.461 1660.12 972.061 1671.94 968.791 1684.34L968.781 1684.33Z" fill="#00CEB4" stroke="black" stroke-width="18.34" stroke-linecap="round" stroke-linejoin="round"/>
<path d="M871.081 1771.09C864.511 1770.61 858.531 1768.67 853.581 1765.26C849.431 1762.44 845.991 1758.58 843.381 1753.7C835.351 1738.58 821.071 1724.8 847.011 1695.33C853.031 1722.37 861.171 1747.68 871.081 1771.09Z" fill="#00CEB4" stroke="black" stroke-width="18.34" stroke-linecap="round" stroke-linejoin="round"/>
<path d="M927.622 1625.63C935.032 1638.32 950.072 1662.54 968.782 1684.33C963.282 1705.35 949.632 1727.99 930.152 1745.56C910.122 1763.65 888.362 1772.38 871.082 1771.09C861.182 1747.68 853.032 1722.37 847.012 1695.33" stroke="black" stroke-width="18.34" stroke-linecap="round" stroke-linejoin="round"/>
<path d="M1213.54 1653.05C1237.21 1503.57 1229.61 1475.97 1229.61 1475.97" stroke="black" stroke-width="18.34" stroke-linecap="round" stroke-linejoin="round"/>
<path d="M1737.37 1715.88V1504.05" stroke="black" stroke-width="18.34" stroke-linecap="round" stroke-linejoin="round"/>
<path d="M1055.25 1710.89C1085.85 1705.51 1122.15 1675.81 1153.49 1670.87" stroke="black" stroke-width="18.34" stroke-linecap="round" stroke-linejoin="round"/>
<path style="mix-blend-mode:multiply" d="M1767.96 2239.62C1812.65 2069.68 1763.25 1653.02 1737.37 1515.06C1744.54 1749.21 1745.54 1871.49 1748.94 1902.71C1752.35 1933.93 1737.37 2279.95 1737.37 2279.95L1756.92 2268.24L1767.96 2239.62Z" fill="url(#paint2_linear_198_370)"/>
<path d="M1339.69 1225.4C1388.99 1204.13 1420.17 1208.04 1420.17 1208.04L1445.34 2093.39C1445.34 2093.39 1409.98 1661.38 1356.95 1705.62C1292.78 1759.16 1251.57 1889.11 1251.57 1889.11C1251.57 1889.11 1254.05 1747.04 1388.2 1476.2C1361.05 1475.6 1329.03 1483.43 1281.44 1613.48C1298.03 1497.01 1339.7 1225.4 1339.7 1225.4H1339.69Z" fill="#00CEB4" stroke="black" stroke-width="18.34" stroke-linecap="round" stroke-linejoin="round"/>
<path style="mix-blend-mode:multiply" d="M1644.23 1248.74C1593.71 1229.04 1560.87 1234.48 1560.87 1234.48L1459.93 2123.05C1459.93 2123.05 1532.32 1694.42 1583.49 1743.34C1647.2 1804.24 1677.01 1910.27 1677.01 1910.27C1677.01 1910.27 1690.67 1795.34 1570.82 1507.35C1598.5 1506.74 1600.25 1493.21 1668.99 1624.02C1611.98 1515.53 1644.23 1248.74 1644.23 1248.74Z" fill="url(#paint3_linear_198_370)"/>
<path d="M1633.23 1219.39C1582.71 1199.69 1549.87 1205.13 1549.87 1205.13L1448.93 2093.7C1448.93 2093.7 1521.32 1665.07 1572.49 1713.99C1636.2 1774.89 1669.5 1915.15 1669.5 1915.15C1669.5 1915.15 1679.67 1765.99 1559.81 1478C1587.49 1477.39 1621.73 1486.78 1661.65 1624.02C1654.03 1501.7 1633.22 1219.39 1633.22 1219.39H1633.23Z" fill="#00CEB4" stroke="black" stroke-width="18.34" stroke-linecap="round" stroke-linejoin="round"/>
<path d="M1015.66 1725.71C994.361 1789.27 957.831 1815.25 906.551 1822.04" stroke="black" stroke-width="18.34" stroke-linecap="round" stroke-linejoin="round"/>
<path d="M1238.85 1307.39L1211.4 1285.2C1204.11 1281.08 1195.81 1288.68 1199.26 1296.31L1217.78 1331.3" fill="#00CEB4"/>
<path d="M1238.85 1307.39L1211.4 1285.2C1204.11 1281.08 1195.81 1288.68 1199.26 1296.31L1217.78 1331.3" stroke="black" stroke-width="18.34" stroke-linecap="round" stroke-linejoin="round"/>
<path d="M1287.79 1271.6L1264.69 1241.14C1259.09 1234.91 1248.8 1239.47 1249.64 1247.79L1256.99 1292.73" fill="#00CEB4"/>
<path d="M1287.79 1271.6L1264.69 1241.14C1259.09 1234.91 1248.8 1239.47 1249.64 1247.79L1256.99 1292.73" stroke="black" stroke-width="18.34" stroke-linecap="round" stroke-linejoin="round"/>
<path d="M1747.08 1302.72L1787.76 1267.89C1795.05 1263.77 1803.35 1271.37 1799.9 1279L1771.91 1329.17" fill="#00CEB4"/>
<path d="M1747.08 1302.72L1787.76 1267.89C1795.05 1263.77 1803.35 1271.37 1799.9 1279L1771.91 1329.17" stroke="black" stroke-width="18.34" stroke-linecap="round" stroke-linejoin="round"/>
<path d="M1697.77 1265.3L1734.48 1223.82C1740.08 1217.59 1750.37 1222.15 1749.53 1230.47L1730.52 1288.07" fill="#00CEB4"/>
<path d="M1697.77 1265.3L1734.48 1223.82C1740.08 1217.59 1750.37 1222.15 1749.53 1230.47L1730.52 1288.07" stroke="black" stroke-width="18.34" stroke-linecap="round" stroke-linejoin="round"/>
</g>
<defs>
<linearGradient id="paint0_linear_198_370" x1="850.462" y1="1679.36" x2="1965.66" y2="1679.36" gradientUnits="userSpaceOnUse">
<stop stop-color="#AE00A8"/>
<stop offset="1" stop-color="#00CEB4"/>
</linearGradient>
<linearGradient id="paint1_linear_198_370" x1="946.332" y1="1871.34" x2="1205.05" y2="1871.34" gradientUnits="userSpaceOnUse">
<stop stop-color="#00CEB4"/>
<stop offset="1" stop-color="#AE00A8"/>
</linearGradient>
<linearGradient id="paint2_linear_198_370" x1="1737.37" y1="1897.5" x2="1785.97" y2="1897.5" gradientUnits="userSpaceOnUse">
<stop stop-color="#00CEB4"/>
<stop offset="1" stop-color="#AE00A8"/>
</linearGradient>
<linearGradient id="paint3_linear_198_370" x1="1459.93" y1="1678.42" x2="1677.49" y2="1678.42" gradientUnits="userSpaceOnUse">
<stop stop-color="#AE00A8"/>
<stop offset="1" stop-color="#00CEB4"/>
</linearGradient>
</defs>
</svg>
