<svg width="2000" height="2000" viewBox="0 0 2000 2000" fill="none" xmlns="http://www.w3.org/2000/svg">
<mask id="mask0_198_293" style="mask-type:luminance" maskUnits="userSpaceOnUse" x="0" y="0" width="2000" height="2000">
<path d="M2000 0H0V2000H2000V0Z" fill="white"/>
</mask>
<g mask="url(#mask0_198_293)">
<path d="M1820 1620.11C1742.37 1671.77 1731 1656.14 1729.38 1649.64C1731.87 1670.08 1751.54 1830.84 1756.64 1933.09C1762.11 2042.46 1727.03 2170.97 1727.03 2170.97C1727.03 2170.97 1211.13 2237.08 1173.01 2140.67C1134.89 2044.22 1182.4 1830.84 1213.48 1673.19C1204.78 1707.16 1142.23 1646.55 1098.79 1518.73C1202.29 1307.33 1302.04 1254.06 1302.04 1254.06C1302.04 1254.06 1330.51 1263.6 1367.23 1276.77C1369.06 1275.96 1370.97 1275.16 1372.92 1274.42C1424.8 1254.35 1517.32 1257.36 1551 1263.01C1562.59 1264.95 1575.36 1270.2 1589.96 1275.3C1619.49 1285.68 1656.59 1295.59 1706.77 1276.77C1748.74 1294.53 1865.92 1477.56 1883.06 1539.79C1906.98 1596.73 1895.97 1577.76 1819.99 1620.1L1820 1620.11Z" fill="url(#paint0_linear_198_293)"/>
<path d="M1701.86 1447.58C1736.09 1512.58 1750.85 1561.18 1759.52 1608.85C1763.6 1631.32 1766.34 1653.57 1769.11 1677.24C1776.76 1742.4 1731.91 1693.51 1731.91 1693.51L1701.86 1447.58Z" fill="url(#paint1_linear_198_293)"/>
<path d="M1258.14 1454.95C1251.56 1480.7 1201.34 1696.54 1203.5 1710.56C1168.4 1685.86 1184.54 1653.26 1206.79 1575.31C1229.04 1497.36 1258.14 1454.95 1258.14 1454.95Z" fill="url(#paint2_linear_198_293)"/>
<path d="M1501.66 1448.84C1545.08 1447.59 1693.46 1371.89 1722.51 1289.93C1704.86 1272.9 1716.69 1268.06 1695.85 1289.93C1675.01 1311.8 1571.62 1431.53 1498.95 1432.28C1506.25 1443.89 1501.66 1448.85 1501.66 1448.85V1448.84Z" fill="url(#paint3_linear_198_293)"/>
<path d="M1196.75 1757.87C1190.11 1763.26 1175.95 1756.33 1159.62 1744.59C1130.49 1723.64 1094.43 1687.47 1081.62 1678.74C1061.62 1665.17 1039.47 1605.47 1048.71 1572.46C1085.1 1574.4 1072.96 1530.86 1081.62 1501.1C1084.96 1489.58 1087.42 1480 1089.95 1473.25C1093.99 1462.54 1098.24 1458.91 1106.75 1465.88C1119.63 1470.91 1122.86 1474.35 1108.33 1506.05C1105.39 1513.31 1104.59 1521.68 1105.58 1530.85C1109.4 1566.73 1140.47 1615.23 1178 1661.39C1180.35 1664.29 1182.7 1667.15 1185.08 1670.01C1209.84 1686.04 1208.63 1697.45 1196.75 1757.88V1757.87Z" fill="#00CEB4"/>
<g style="mix-blend-mode:multiply">
<path d="M1108.33 1506.05C1105.39 1513.31 1104.59 1521.68 1105.58 1530.85C1093.25 1511.85 1089.44 1491.56 1089.95 1473.25C1093.99 1462.54 1098.24 1458.91 1106.75 1465.88C1119.63 1470.91 1122.86 1474.35 1108.33 1506.05Z" fill="#00CEB4"/>
</g>
<path d="M1878.22 1723.57C1840.84 1739.09 1813.1 1748.63 1792.52 1753.84C1759.65 1762.24 1744.86 1759.71 1737.93 1753.07C1734.66 1715.24 1721.49 1662.01 1745.6 1656.76C1751.51 1655.18 1761.78 1650.96 1774.25 1645.39C1815.78 1626.68 1881.93 1592.34 1894.37 1587.61C1895.87 1578.36 1884.54 1544.17 1883.22 1540.17C1884.03 1541.64 1885.75 1542.59 1888.14 1543.22C1898.16 1545.82 1919.66 1542.82 1931.32 1548.43C1936.86 1551.11 1940.2 1555.73 1939.02 1563.8C1934.76 1593.33 1914.92 1625.44 1947.38 1639.63C1969.03 1663 1975.04 1682.52 1878.22 1723.57Z" fill="#00CEB4"/>
<g style="mix-blend-mode:multiply">
<path d="M1933.73 1556.35C1933.73 1556.35 1916.05 1577.7 1902.47 1581.11C1895.87 1582.76 1890.25 1566.62 1888.12 1543.21C1898.14 1545.81 1919.64 1542.81 1931.3 1548.42C1932.8 1553.34 1933.72 1556.34 1933.72 1556.34L1933.73 1556.35Z" fill="#00CEB4"/>
</g>
<path d="M1792.52 1753.84C1759.65 1762.24 1744.86 1759.71 1737.93 1753.07C1734.66 1715.24 1721.49 1662.01 1745.6 1656.76C1751.51 1655.18 1761.78 1650.96 1774.25 1645.39C1779.24 1684.9 1785.99 1722.29 1792.52 1753.84Z" fill="#A3E8CF"/>
<path d="M1196.75 1757.87C1190.11 1763.26 1175.95 1756.33 1159.62 1744.59C1164.76 1717.37 1171.21 1688.82 1178 1661.38C1180.35 1664.28 1182.7 1667.14 1185.08 1670C1209.84 1686.03 1208.63 1697.44 1196.75 1757.87Z" fill="#A3E8CF"/>
<path d="M1589.97 1275.32C1575.99 1300.49 1563.81 1321.55 1557.35 1330.76C1535.3 1362.24 1428.76 1366.2 1412.32 1335.79C1404.29 1320.82 1388.44 1301.82 1372.92 1274.45C1424.8 1254.38 1517.32 1257.39 1551 1263.04C1562.59 1264.98 1575.36 1270.23 1589.96 1275.33L1589.97 1275.32Z" fill="url(#paint4_linear_198_293)"/>
<path d="M1765.26 1290.51L1759.9 1330.76C1759.9 1330.76 1713.34 1249.83 1695.84 1289.93C1659.45 1329.41 1568.06 1421.93 1491.75 1433.6C1486.25 1434.44 1480.85 1434.85 1475.53 1434.81C1475.53 1434.81 1477.07 1432.79 1479.82 1429.27C1498.64 1404.91 1573.3 1308.24 1579.35 1299.29C1586.25 1289.05 1601 1276.8 1559.87 1263.04C1518.74 1249.28 1379.62 1257.06 1381.16 1277.68C1397.3 1310.48 1458.39 1419.88 1469.32 1427.29C1477.35 1432.79 1462.61 1429.71 1445.88 1422.81C1439.9 1420.32 1433.63 1417.38 1428.09 1414.12C1407.03 1401.76 1339.2 1373.21 1290.95 1267.08C1268.72 1280.65 1240.58 1314.04 1240.58 1314.04C1240.58 1314.04 1226.09 1263.96 1263.55 1238.39C1279.91 1224.71 1299.03 1212.78 1320.71 1202.88C1379.23 1176.13 1456.45 1164.06 1548.39 1171.84C1569.3 1173.6 1589.04 1176.24 1607.46 1179.69C1636.74 1185.23 1662.68 1192.82 1684.69 1202.36C1732.42 1223.09 1761.51 1252.95 1765.26 1290.52V1290.51Z" fill="#00CEB4"/>
<path d="M1765.26 1290.51L1759.9 1330.76C1759.9 1330.76 1713.34 1249.83 1695.84 1289.93C1693.01 1293.01 1689.82 1296.42 1686.34 1300.09C1685.64 1300.82 1684.91 1301.56 1684.21 1302.33C1681.35 1305.34 1678.27 1308.49 1675 1311.8C1673.61 1313.23 1672.14 1314.7 1670.67 1316.2C1668.76 1318.11 1666.82 1320.05 1664.8 1322.03C1663.04 1323.75 1661.24 1325.52 1659.41 1327.31C1643.27 1342.94 1624.37 1360.04 1604.12 1375.85C1603.13 1376.62 1602.14 1377.39 1601.15 1378.16C1598.62 1380.1 1596.09 1382.01 1593.56 1383.92C1590.99 1385.79 1588.46 1387.66 1585.86 1389.5C1580.03 1393.65 1574.16 1397.61 1568.25 1401.35C1566.31 1402.63 1564.32 1403.84 1562.38 1405.02C1560.99 1405.86 1559.56 1406.71 1558.16 1407.55C1555.7 1408.98 1553.21 1410.41 1550.71 1411.77C1544.51 1415.18 1538.27 1418.34 1532.07 1421.09C1530.82 1421.64 1529.61 1422.19 1528.36 1422.7C1526.42 1423.54 1524.51 1424.31 1522.6 1425.05C1521.28 1425.56 1519.96 1426.04 1518.67 1426.52C1517.97 1426.78 1517.28 1427.03 1516.58 1427.25C1515.55 1427.62 1514.56 1427.95 1513.54 1428.28C1512.62 1428.61 1511.71 1428.9 1510.79 1429.16C1509.54 1429.56 1508.3 1429.93 1507.01 1430.26C1504.33 1431.03 1501.62 1431.69 1498.94 1432.28C1497.03 1432.68 1495.12 1433.05 1493.22 1433.34C1492.74 1433.45 1492.27 1433.52 1491.79 1433.56L1491.75 1433.6C1486.25 1434.44 1480.85 1434.85 1475.53 1434.81C1475.53 1434.81 1477.07 1432.79 1479.82 1429.27C1498.24 1419.91 1515.55 1408.69 1531.84 1396.03C1600.89 1342.47 1651.15 1264.1 1684.68 1202.35C1732.41 1223.08 1761.5 1252.94 1765.25 1290.51H1765.26Z" fill="#A3E8CF"/>
<path d="M1428.1 1414.11C1407.04 1401.75 1339.21 1373.2 1290.96 1267.07C1268.73 1280.64 1240.59 1314.03 1240.59 1314.03C1240.59 1314.03 1226.1 1263.95 1263.56 1238.38C1279.92 1224.7 1299.04 1212.77 1320.72 1202.87C1325.67 1228.37 1331.87 1257.83 1348.93 1283.77C1376.7 1326 1412.25 1383.38 1445.9 1422.82C1439.92 1420.33 1433.65 1417.39 1428.11 1414.13L1428.1 1414.11Z" fill="#A3E8CF"/>
<path d="M1677.22 1207.76C1643.69 1269.51 1600.9 1342.46 1531.86 1396.03C1643.01 1271.9 1653.38 1233.94 1624.03 1190.1C1653.31 1195.64 1655.21 1198.23 1677.22 1207.76Z" fill="#A3E8CF"/>
<path d="M1260.12 1447.58C1228.73 1562.66 1155.5 1916.38 1168.29 2020.84" stroke="black" stroke-width="18.34" stroke-linecap="round" stroke-linejoin="round"/>
<path d="M1701.86 1447.58C1725.11 1560.34 1759.98 1961.39 1750.68 2064.85" stroke="black" stroke-width="18.34" stroke-linecap="round" stroke-linejoin="round"/>
<path d="M1895.99 1577.78C1859.95 1461.53 1797.07 1358.16 1706.79 1276.78" stroke="black" stroke-width="18.34" stroke-linecap="round" stroke-linejoin="round"/>
<path d="M1729.91 1664.53C1729.91 1664.53 1921.56 1582.42 1932.02 1551.04C1932.02 1551.04 1920.66 1547.55 1887.4 1551.04" stroke="black" stroke-width="18.34" stroke-linecap="round" stroke-linejoin="round"/>
<path d="M1932.02 1551.04C1932.02 1551.04 1943.32 1578 1929.83 1608.6C1926.13 1616.98 1929.05 1626.86 1936.72 1631.87C1950 1640.54 1966.55 1654.36 1962.24 1667.29C1955.27 1688.21 1834.82 1749.5 1738.69 1762.45" stroke="black" stroke-width="18.34" stroke-linecap="round" stroke-linejoin="round"/>
<path d="M1113.29 1471.63C1113.29 1471.63 1090.38 1446.96 1091.27 1476.92C1092.16 1506.88 1124.1 1641.16 1206.8 1688.55" stroke="black" stroke-width="18.34" stroke-linecap="round" stroke-linejoin="round"/>
<path d="M1101.51 1528.73C1107.12 1488.36 1196.24 1330.79 1290.98 1263.03" stroke="black" stroke-width="18.34" stroke-linecap="round" stroke-linejoin="round"/>
<path d="M1091.27 1476.91C1080.64 1488.53 1067.25 1533.84 1073.43 1565.76C1073.43 1565.76 1018.55 1568.23 1054.44 1635.78C1074.63 1673.79 1123.61 1736.47 1193.25 1763.35" stroke="black" stroke-width="18.34" stroke-linecap="round" stroke-linejoin="round"/>
<path d="M1286.83 1251.34C1286.83 1251.34 1324.22 1382.35 1475.55 1434.79C1408.79 1347.48 1372.29 1257.57 1372.29 1257.57" stroke="black" stroke-width="18.34" stroke-linecap="round" stroke-linejoin="round"/>
<path d="M1721.37 1258.03C1721.37 1258.03 1596.62 1430.42 1475.55 1434.8C1546.77 1352.83 1599.29 1269.15 1599.29 1269.15" stroke="black" stroke-width="18.34" stroke-linecap="round" stroke-linejoin="round"/>
<path d="M1241.66 1306.29C1241.66 1306.29 1233.31 1263.3 1263.57 1238.37C1463.38 1106.58 1693.64 1205.94 1734.4 1237.1C1775.16 1268.26 1759.92 1330.75 1759.92 1330.75" stroke="black" stroke-width="18.34" stroke-linecap="round" stroke-linejoin="round"/>
<path d="M1418.45 1348.91C1418.45 1348.91 1488.5 1366.37 1548.41 1343.07" stroke="black" stroke-width="18.34" stroke-linecap="round" stroke-linejoin="round"/>
<path d="M1475.55 1434.8C1475.86 1493.16 1488.38 1501 1524.79 1526.38C1561.21 1551.76 1570.76 1563.79 1570.76 1563.79C1570.76 1563.79 1590.2 1514.85 1534.34 1488.75C1478.48 1462.65 1475.54 1434.8 1475.54 1434.8H1475.55Z" fill="#00CEB4" stroke="black" stroke-width="18.34" stroke-linecap="round" stroke-linejoin="round"/>
<path d="M1469.23 1447.58C1467.18 1384.31 1449.81 1496.22 1355.38 1544.86C1355.38 1544.86 1472.54 1549.89 1469.23 1447.58Z" fill="#00CEB4" stroke="black" stroke-width="18.34" stroke-linecap="round" stroke-linejoin="round"/>
<path d="M1081.61 1595.87C1099.77 1636.12 1110.72 1675.75 1173 1711.63" stroke="black" stroke-width="18.34" stroke-linecap="round" stroke-linejoin="round"/>
<path d="M1765.26 1723.32C1834.68 1702.57 1905.96 1653.76 1905.96 1653.76" stroke="black" stroke-width="18.34" stroke-linecap="round" stroke-linejoin="round"/>
<path d="M1592.27 1280.01C1497.34 1227.14 1378.37 1271.53 1378.37 1271.53" stroke="black" stroke-width="18.34" stroke-linecap="round" stroke-linejoin="round"/>
<path d="M1501.55 1421.54C1582.84 1355.2 1664.79 1276.79 1677.22 1207.76" stroke="black" stroke-width="18.34" stroke-linecap="round" stroke-linejoin="round"/>
<path d="M1319.07 1207.76C1319.07 1207.76 1368.99 1380.14 1475.55 1434.8" stroke="black" stroke-width="18.34" stroke-linecap="round" stroke-linejoin="round"/>
<path d="M1464.64 1394.85C1432.45 1408.37 1441.68 1476.69 1464.64 1474.69C1487.6 1472.69 1489.98 1474.69 1497.27 1460.72C1504.56 1446.75 1511.93 1402.78 1503.56 1399.84C1495.19 1396.89 1464.64 1394.85 1464.64 1394.85Z" fill="#00CEB4" stroke="black" stroke-width="18.34" stroke-linecap="round" stroke-linejoin="round"/>
<path d="M1497.26 1460.74C1491.21 1472.33 1488.57 1472.92 1474.62 1473.91C1494.71 1430.41 1491.31 1416.06 1483.42 1396.5C1492.74 1397.23 1497.55 1397.71 1503.56 1399.83C1511.92 1402.76 1504.55 1446.75 1497.25 1460.73L1497.26 1460.74Z" fill="#A3E8CF"/>
<path d="M1464.64 1394.85C1432.45 1408.37 1441.68 1476.69 1464.64 1474.69C1487.6 1472.69 1489.98 1474.69 1497.27 1460.72C1504.56 1446.75 1511.93 1402.78 1503.56 1399.84C1495.19 1396.89 1464.64 1394.85 1464.64 1394.85Z" stroke="black" stroke-width="18.34" stroke-linecap="round" stroke-linejoin="round"/>
<path d="M1222.17 1611.29C1235.63 1552.25 1226.79 1472.42 1226.79 1472.42" stroke="black" stroke-width="18.34" stroke-linecap="round" stroke-linejoin="round"/>
<path d="M1717.09 1547.82C1731.83 1511.99 1730.37 1467.84 1730.37 1467.84" stroke="black" stroke-width="18.34" stroke-linecap="round" stroke-linejoin="round"/>
</g>
<defs>
<linearGradient id="paint0_linear_198_293" x1="1098.79" y1="1723.58" x2="1894.36" y2="1723.58" gradientUnits="userSpaceOnUse">
<stop stop-color="#FFD13D"/>
<stop offset="1" stop-color="#FF2C10"/>
</linearGradient>
<linearGradient id="paint1_linear_198_293" x1="1810.18" y1="1663.87" x2="1647.87" y2="1501.57" gradientUnits="userSpaceOnUse">
<stop stop-color="#FFD13D"/>
<stop offset="1" stop-color="#FF2C10"/>
</linearGradient>
<linearGradient id="paint2_linear_198_293" x1="1280.72" y1="1633.34" x2="1180.24" y2="1532.86" gradientUnits="userSpaceOnUse">
<stop stop-color="#FFD13D"/>
<stop offset="1" stop-color="#FF2C10"/>
</linearGradient>
<linearGradient id="paint3_linear_198_293" x1="1637.53" y1="1393.48" x2="1587.63" y2="1343.58" gradientUnits="userSpaceOnUse">
<stop stop-color="#FFD13D"/>
<stop offset="1" stop-color="#FF2C10"/>
</linearGradient>
<linearGradient id="paint4_linear_198_293" x1="1481.45" y1="1356.6" x2="1481.45" y2="1258.82" gradientUnits="userSpaceOnUse">
<stop stop-color="#FFD13D"/>
<stop offset="1" stop-color="#FF2C10"/>
</linearGradient>
</defs>
</svg>
