<svg width="2000" height="2000" viewBox="0 0 2000 2000" fill="none" xmlns="http://www.w3.org/2000/svg">
<mask id="mask0_554_71" style="mask-type:luminance" maskUnits="userSpaceOnUse" x="0" y="0" width="2000" height="2000">
<path d="M2000 0H0V2000H2000V0Z" fill="white"/>
</mask>
<g mask="url(#mask0_554_71)">
<path d="M1172.4 1269.38C1172.4 1269.38 1189.37 1222.29 1191.02 1216.82C1192.66 1211.34 1226.06 1249.67 1226.06 1249.67L1172.4 1269.38Z" fill="#AE00A8"/>
<path d="M1764.76 1281.12C1764.76 1281.12 1823.63 1245.31 1833.95 1253.81C1833.95 1253.81 1823.63 1289.62 1835.77 1301.15L1764.76 1281.12Z" fill="#AE00A8"/>
<path d="M1362.14 1182.49C1362.14 1182.49 1399.22 1403.95 1468.24 1406.01C1537.25 1408.07 1645.56 1144.04 1645.56 1144.04C1645.56 1144.04 1569.18 1111.41 1431.15 1127.9C1293.12 1144.38 1362.14 1182.49 1362.14 1182.49Z" fill="url(#paint0_linear_554_71)"/>
<path d="M1741.1 1839.86C1741.1 1903.68 1738.03 2022.44 1738.03 2022.44C1667.85 2095.12 1167.77 2004.18 1167.77 2004.18C1169.9 1966.26 1184.22 1843.78 1184.22 1833.76L1213.56 1564.92C1153.04 1512.55 1106.22 1598.16 1106.22 1598.16C1077.89 1536.75 1051.52 1415.63 1111.49 1330.98C1144.14 1284.89 1217.41 1249.88 1217.41 1249.88L1414.76 1297.52C1485.17 1362.4 1532.64 1292.77 1532.64 1292.77L1782.75 1281.97C1782.75 1281.97 1851.23 1314.56 1891.72 1358.39C1952.93 1479.26 1957.65 1538.08 1898.68 1620.33C1898.68 1620.33 1803.84 1556.33 1734.98 1606.45L1741.11 1839.87L1741.1 1839.86Z" fill="url(#paint1_linear_554_71)"/>
<path d="M1708.72 1628.72L1748.61 1866.06C1678.18 1877.67 1607.85 1873.07 1564.06 1860.67C1547.33 1855.93 1537.87 1838.22 1543.07 1821.63C1551.85 1793.61 1566.57 1710.22 1581.55 1618.58C1605.89 1629.7 1631.73 1635.3 1659.08 1635.39C1676.41 1636.04 1692.96 1633.81 1708.73 1628.72H1708.72ZM1356.39 1497.63L1337.11 1500.87L1202.43 1832.22C1268.64 1858.88 1338.28 1869.72 1383.72 1867.16C1401.08 1866.18 1414.17 1850.96 1412.71 1833.63C1406.74 1762.81 1437.43 1367.7 1438.11 1318.28C1435.16 1316.05 1421.57 1303.27 1418.53 1300.55L1348.12 1473.79L1356.39 1497.64V1497.63Z" fill="url(#paint2_linear_554_71)"/>
<path d="M1186.57 1822.54C1184.56 1838.47 1162 1971.99 1159.88 2009.91C1159.88 2009.91 1670.82 2094.2 1740.99 2021.52C1740.99 2021.52 1746.73 1899.94 1744.86 1828.61" stroke="black" stroke-width="18.34" stroke-linecap="round" stroke-linejoin="round"/>
<path d="M1348.12 1473.79L1337.11 1500.88L1356.39 1497.63L1348.12 1473.79Z" fill="#AE00A8"/>
<path d="M1365.85 1165.47C1444.95 1120.94 1576.03 1131.31 1630.97 1159.74" stroke="black" stroke-width="18.34" stroke-linecap="round" stroke-linejoin="round"/>
<path d="M1410.02 1294.35C1476.48 1372.67 1534.32 1298.95 1534.32 1298.95" stroke="black" stroke-width="18.34" stroke-linecap="round" stroke-linejoin="round"/>
<path d="M1639.28 1164.11C1636.95 1168.61 1631.42 1170.37 1626.92 1168.04C1624.76 1166.92 1622.4 1165.84 1619.97 1164.77C1613.58 1187.37 1596.45 1235.69 1574.57 1258.98C1578 1262.13 1581.54 1266.54 1585.09 1272.65C1598.84 1296.36 1608.93 1341.5 1610.48 1356.66C1682.64 1259.7 1673.39 1257.56 1689.74 1224.59C1689.61 1224.03 1689.76 1225.19 1689.74 1224.59C1689.62 1221.07 1691.59 1216.21 1694.45 1214.58C1695.93 1210.72 1692.62 1206.4 1693.2 1203.15C1689.3 1199.78 1685.11 1198.08 1680.4 1196.17C1664.16 1189.59 1651.29 1181.57 1645.57 1144.03C1643.11 1135.01 1584.62 1118.85 1476.81 1118.85C1396.87 1118.85 1352.33 1135.07 1346.24 1146.58C1343.23 1152.27 1341.37 1157.79 1339.58 1163.13C1334.94 1176.95 1330.15 1191.2 1307.26 1196.1C1300.81 1211.18 1300.19 1249.57 1309.31 1284.65C1315.24 1307.43 1314.92 1327.06 1325.53 1337.45C1332.59 1309.39 1358.6 1252.15 1384.18 1243.17C1380.19 1226.95 1374.39 1195.99 1379.77 1168.82C1376.62 1170.34 1373.52 1171.92 1370.52 1173.61C1369.1 1174.41 1367.55 1174.79 1366.03 1174.79C1362.82 1174.79 1359.71 1173.11 1358.03 1170.12C1355.55 1165.71 1357.11 1160.11 1361.53 1157.63C1371.05 1152.27 1381.27 1147.71 1391.94 1143.83C1391.98 1143.82 1392.01 1143.8 1392.05 1143.79C1474.75 1113.72 1585.83 1126.11 1635.36 1151.76C1639.86 1154.09 1641.62 1159.62 1639.29 1164.12L1639.28 1164.11Z" fill="url(#paint3_linear_554_71)"/>
<path d="M1393.35 1260.33C1393.27 1260.31 1393.2 1260.29 1393.12 1260.27C1391.82 1259.97 1390.95 1260.23 1390.43 1260.39C1374.8 1265.21 1356.71 1318.34 1349.4 1352.73C1348.81 1355.53 1346.94 1357.89 1344.35 1359.11C1341.77 1360.34 1338.76 1360.28 1336.21 1358.97C1310.87 1345.86 1304.79 1312.74 1298.4 1288.18C1292.62 1265.95 1290 1235.28 1290.82 1215.26C1282.96 1214.07 1227.82 1206.46 1199.98 1215.14C1207.85 1225.09 1242.28 1255.48 1244.25 1277.15C1244.54 1280.32 1243.16 1283.41 1240.62 1285.32L1208.67 1309.28C1236.9 1316.12 1278.19 1330.18 1280.37 1354.2C1280.42 1354.73 1280.42 1355.26 1280.37 1355.79C1279.4 1367.42 1275.64 1399.96 1263.17 1417.81C1303.94 1439.91 1304.52 1459.25 1303.59 1465.02C1301.03 1480.83 1281.79 1490.69 1243.19 1495.86C1233.68 1530.67 1171.75 1705.04 1181.7 1804.37C1195.94 1812.07 1268.74 1845.66 1371.85 1821.86C1371.87 1821.86 1371.9 1821.86 1371.92 1821.86C1361.05 1758.61 1374.85 1634.01 1388.21 1513.39C1395.15 1450.74 1401.7 1391.56 1404.24 1345.32C1407.82 1279.96 1401.54 1266.53 1398.67 1263.78C1396.41 1261.61 1394.66 1260.69 1393.33 1260.34L1393.35 1260.33Z" fill="url(#paint4_linear_554_71)"/>
<path d="M1813.82 1248.05C1742.57 1218.12 1718.42 1231.65 1702.34 1231.06C1693.18 1249.9 1677.56 1273.32 1655.51 1301.15C1629.12 1334.47 1602.68 1362.49 1602.42 1362.77C1599.57 1365.79 1595.04 1366.51 1591.39 1364.53C1587.74 1362.55 1585.87 1358.37 1586.84 1354.33C1586.89 1354.08 1593.39 1323.55 1569.22 1281.86C1563.44 1271.89 1559.61 1270.25 1558.62 1270.43C1558.55 1270.45 1558.48 1270.47 1558.4 1270.49C1552.86 1272.4 1540.22 1292.27 1530.98 1354.67C1523.26 1406.83 1520.58 1470.51 1523.62 1529.38C1530.56 1663.54 1520.82 1805.07 1518.81 1831.88C1541.15 1837.25 1643.4 1851.01 1744.85 1828.62C1753.8 1663.03 1725.23 1572.3 1716.74 1523.04C1708.56 1475.56 1698.38 1458.44 1695.36 1454.2C1634.93 1430.43 1624.75 1418.8 1627.74 1406.85C1629.32 1400.51 1633.41 1384.07 1741.75 1395.59C1740.28 1384.87 1742.03 1375.24 1746.99 1366.83C1752.52 1357.46 1761.08 1351.53 1768.7 1347.86C1755.94 1334.72 1750.16 1320.78 1751.52 1306.28C1753.73 1282.64 1799.67 1257.65 1813.81 1248.07L1813.82 1248.05Z" fill="url(#paint5_linear_554_71)"/>
<path d="M1390.83 1215.39C1389.39 1216.35 1321.34 1293.71 1327.09 1344.53L1344.45 1374.53C1344.45 1374.53 1368.29 1244.15 1386.51 1248.47L1390.83 1215.39Z" fill="#AE00A8"/>
<path d="M1569.19 1255.62C1569.19 1255.62 1585.59 1238.13 1585.59 1237.04C1585.59 1235.95 1624.21 1338.07 1620.93 1357.74L1596.25 1387.9C1596.25 1387.9 1592.14 1264.36 1569.19 1255.62Z" fill="#AE00A8"/>
<path d="M1180.5 1771.75C1180.5 1771.75 1234.95 1805.02 1284.1 1805.78C1333.26 1806.54 1381.65 1792.92 1381.65 1792.92C1381.65 1792.92 1384.67 1829.22 1380.89 1831.49C1377.11 1833.76 1305.5 1835.88 1267.46 1839.05C1258.39 1839.81 1186.54 1823.17 1182.76 1809.56L1180.49 1771.75H1180.5Z" fill="#AE00A8"/>
<path d="M1509.27 1794.88C1509.27 1794.88 1568.53 1823.61 1619.74 1820.36C1670.95 1817.11 1747.61 1798.56 1747.61 1798.56C1747.61 1798.56 1748.61 1826.03 1744.86 1828.6C1741.1 1831.17 1644.38 1848.63 1605.03 1854.89C1595.65 1856.38 1519.58 1845.65 1514.59 1832.39L1509.28 1794.88H1509.27Z" fill="#AE00A8"/>
<path d="M1752.62 1832.61C1738.62 1480.96 1700.73 1446.35 1700.73 1446.35C1529.68 1379.59 1753.62 1406 1753.62 1406C1737.19 1359.46 1786.47 1351.25 1786.47 1351.25C1690.09 1277.89 1826.79 1253.89 1826.79 1253.89C1748.33 1217.23 1698.92 1222.75 1698.92 1222.75" stroke="black" stroke-width="18.34" stroke-linecap="round" stroke-linejoin="round"/>
<path d="M1220.37 1248.94C1220.37 1248.94 1169.37 1261.96 1132.69 1304.98C1067.54 1381.38 1052.26 1477.2 1108.18 1602.67C1108.18 1602.67 1146.37 1526.19 1215.74 1564.61" stroke="black" stroke-width="18.34" stroke-linecap="round" stroke-linejoin="round"/>
<path d="M1770.82 1276.13C1770.82 1276.13 1822.83 1291.87 1864.37 1332.69C1936.6 1403.68 1966.58 1542 1897.11 1629.37C1897.11 1629.37 1819.06 1550.66 1737.29 1611.71" stroke="black" stroke-width="18.34" stroke-linecap="round" stroke-linejoin="round"/>
<path d="M1382.83 1219C1382.83 1219 1335.8 1247.47 1326.37 1357.47" stroke="black" stroke-width="18.34" stroke-linecap="round" stroke-linejoin="round"/>
<path d="M1620.94 1357.74C1621.29 1265.99 1582.14 1236.34 1582.14 1236.34" stroke="black" stroke-width="18.34" stroke-linecap="round" stroke-linejoin="round"/>
<path d="M1173.42 1816.82C1173.42 1816.82 1255.79 1860.37 1380.9 1831.49" stroke="black" stroke-width="18.34" stroke-linecap="round" stroke-linejoin="round"/>
<path d="M1509.16 1835.47C1509.16 1835.47 1627.5 1861.48 1752.62 1832.6" stroke="black" stroke-width="18.34" stroke-linecap="round" stroke-linejoin="round"/>
<path d="M1514.01 1803.13C1514.01 1803.13 1615.02 1829.29 1747.61 1798.56" stroke="black" stroke-width="18.34" stroke-linecap="round" stroke-linejoin="round"/>
<path d="M1180.68 1777.41C1180.68 1777.41 1251.44 1824.65 1376.56 1795.78" stroke="black" stroke-width="18.34" stroke-linecap="round" stroke-linejoin="round"/>
<path d="M1173.42 1816.82C1175.49 1700.67 1235.83 1487.36 1235.83 1487.36C1361.04 1472.91 1247 1419.89 1247 1419.89C1266.26 1412.67 1271.08 1354.88 1271.08 1354.88C1268.67 1328.39 1186.8 1313.95 1186.8 1313.95L1234.96 1277.83C1233.31 1226.48 1185.14 1219.11 1185.14 1219.11C1238.41 1202.57 1291.08 1210.2 1291.08 1210.2" stroke="black" stroke-width="18.34" stroke-linecap="round" stroke-linejoin="round"/>
<path d="M1380.9 1831.49C1355.27 1710.68 1442 1292.53 1404.86 1257C1367.71 1221.47 1350.22 1383.75 1350.22 1383.75C1303.38 1359.52 1283.7 1214.02 1301.11 1187.71C1330.83 1183.43 1326.02 1164.69 1337.96 1142.15C1348.04 1123.11 1405.67 1109.54 1476.64 1109.54C1547.61 1109.54 1650.79 1118.44 1654.46 1142.51C1662.61 1195.97 1684.63 1179.23 1702.65 1199.66C1700.08 1245.84 1592.15 1402.99 1592.15 1402.99C1592.15 1402.99 1601.75 1324.84 1576.99 1277.11C1539.67 1205.16 1506.58 1380.37 1514.3 1529.69C1522.02 1679.01 1509.16 1835.48 1509.16 1835.48" stroke="black" stroke-width="18.34" stroke-linecap="round" stroke-linejoin="round"/>
<path d="M1395.82 1251.41C1395.82 1251.41 1374.11 1192.63 1392.95 1155.96" stroke="black" stroke-width="18.34" stroke-linecap="round" stroke-linejoin="round"/>
<path d="M1556.4 1261.34C1585.36 1248.28 1612.27 1162.74 1613.36 1152.37" stroke="black" stroke-width="18.34" stroke-linecap="round" stroke-linejoin="round"/>
<path d="M1826.8 1253.89C1826.8 1253.89 1821.64 1280.03 1822.79 1296.33" stroke="black" stroke-width="18.34" stroke-linecap="round" stroke-linejoin="round"/>
<path d="M1828.53 1591.47C1828.53 1591.47 1729.73 1689.14 1844.19 1706.3C1966.17 1724.58 1766.92 1810.83 1945.74 1849.32" stroke="black" stroke-width="18.34" stroke-linecap="round" stroke-linejoin="round"/>
<path d="M1185.14 1219.1C1185.14 1219.1 1186.73 1247.3 1182.3 1265.02" stroke="black" stroke-width="18.34" stroke-linecap="round" stroke-linejoin="round"/>
<path d="M1849.41 1609.59C1849.41 1609.59 1811.37 1655.78 1850.77 1672.08C1865.54 1678.19 1900.59 1683.39 1915.31 1692.11" stroke="black" stroke-width="18.34" stroke-linecap="round" stroke-linejoin="round"/>
<path d="M1908.29 1760.37C1908.29 1760.37 1856.34 1818.96 1936.39 1813.96" stroke="black" stroke-width="18.34" stroke-linecap="round" stroke-linejoin="round"/>
</g>
<defs>
<linearGradient id="paint0_linear_554_71" x1="1344.89" y1="1264.64" x2="1645.56" y2="1264.64" gradientUnits="userSpaceOnUse">
<stop stop-color="#FF0036"/>
<stop offset="1" stop-color="#FFC800"/>
</linearGradient>
<linearGradient id="paint1_linear_554_71" x1="1075.29" y1="1650.24" x2="1940.38" y2="1650.24" gradientUnits="userSpaceOnUse">
<stop stop-color="#AE00A8"/>
<stop offset="1" stop-color="#FF0036"/>
</linearGradient>
<linearGradient id="paint2_linear_554_71" x1="1679.85" y1="1934.83" x2="1232.05" y2="1487.03" gradientUnits="userSpaceOnUse">
<stop stop-color="#AE00A8"/>
<stop offset="1" stop-color="#FF0036"/>
</linearGradient>
<linearGradient id="paint3_linear_554_71" x1="802.92" y1="1237.77" x2="1896.28" y2="1237.77" gradientUnits="userSpaceOnUse">
<stop stop-color="#FF0036"/>
<stop offset="1" stop-color="#FFB000"/>
</linearGradient>
<linearGradient id="paint4_linear_554_71" x1="893.63" y1="1520.64" x2="1519.7" y2="1520.64" gradientUnits="userSpaceOnUse">
<stop stop-color="#FF0036"/>
<stop offset="1" stop-color="#FFC800"/>
</linearGradient>
<linearGradient id="paint5_linear_554_71" x1="1142.01" y1="1534.75" x2="1963.96" y2="1534.75" gradientUnits="userSpaceOnUse">
<stop stop-color="#FF0036"/>
<stop offset="1" stop-color="#FFC800"/>
</linearGradient>
</defs>
</svg>
