<svg width="2000" height="2000" viewBox="0 0 2000 2000" fill="none" xmlns="http://www.w3.org/2000/svg">
<mask id="mask0_554_270" style="mask-type:luminance" maskUnits="userSpaceOnUse" x="0" y="0" width="2000" height="2000">
<path d="M2000 0H0V2000H2000V0Z" fill="white"/>
</mask>
<g mask="url(#mask0_554_270)">
<path d="M1736.68 1686.69C1750.28 1806.46 1755.14 2089.53 1755.14 2089.53C1755.14 2089.53 1670.19 2070.84 1670.1 2066.42C1670.01 2062.03 1660.07 2010.95 1671.31 1944.8C1679.17 1898.59 1695.02 1737.34 1701.47 1645.26L1709.65 1580.74L1704.01 1581.43C1703.9 1579.84 1703.65 1578.97 1703.31 1578.83L1666.6 1582.31L1656.32 1583.29C1656.32 1583.29 1632.86 1572.93 1628.8 1590.86L1624.41 1591.43L1633.12 1928.79L1634.39 1935.74L1643.8 1987.82V1987.86C1644.85 2013.12 1645.53 2028.77 1645.53 2028.77L1610.06 2021.96L1476.66 1996.44C1476.66 1996.44 1606.36 1592.17 1590.75 1583.77C1564.85 1577.06 1549.98 1560.58 1542.74 1598.95C1535.47 1637.42 1446.53 2086.31 1446.53 2086.31L1413.89 1848.57L1398.03 1560.41C1374.79 1563.54 1342.46 1570.85 1346.94 1596.09C1354.99 1641.27 1426.42 2041.79 1426.42 2041.79L1267.9 2050.08L1262.51 1994.57C1262.51 1994.57 1320.38 1579.55 1307.75 1575.27C1280.64 1566.58 1226.52 1538.87 1246.85 1580.92C1246.45 1658.46 1264.91 2088.48 1262.49 2088.4C1260.11 2088.32 1160.54 2040.26 1160.54 2040.26C1160.54 2040.26 1190.43 1716.13 1205.27 1648.02C1220.07 1580.22 1229.64 1550.77 1219.11 1529.32C1217.37 1474.58 1218.07 1459.34 1276.35 1420.92C1310 1325.11 1331.88 1277.5 1324.39 1240.63C1340.19 1222.77 1353.54 1226.22 1353.54 1226.22L1351.22 1232.31C1340.74 1284.47 1306.94 1363.43 1352.27 1472.37C1376.99 1532.16 1376.96 1538.54 1446.79 1540.6C1511.41 1537.99 1506.84 1536.86 1549.38 1545.71C1549.38 1545.71 1628.99 1508.28 1636.12 1366.09C1631.55 1267 1621.64 1221.03 1621.64 1221.03C1621.64 1221.03 1626.01 1219.98 1631.57 1219.99C1643.15 1219.96 1659.96 1224.52 1653.72 1252.43C1660.87 1315.95 1679.17 1424.78 1708.16 1453.24C1747.34 1474.69 1757.92 1515.48 1736.45 1562.84C1721.55 1585.43 1723.32 1568.56 1736.69 1686.69H1736.68Z" fill="url(#paint0_linear_554_270)"/>
<path style="mix-blend-mode:multiply" d="M1736.68 1686.69C1750.28 1806.46 1755.14 2089.53 1755.14 2089.53C1755.14 2089.53 1670.19 2070.84 1670.1 2066.42C1670.01 2062.03 1660.07 2010.95 1671.31 1944.8C1679.17 1898.59 1695.02 1737.34 1701.47 1645.26L1709.65 1580.74L1704.01 1581.43C1703.9 1579.84 1703.65 1578.97 1703.31 1578.83L1693.31 1579.78C1742.55 1427.27 1663.44 1472.37 1638.1 1219.17C1649.69 1219.14 1659.94 1224.52 1653.7 1252.43C1660.85 1315.95 1679.15 1424.78 1708.14 1453.24C1747.32 1474.69 1757.9 1515.48 1736.43 1562.84C1721.53 1585.43 1723.3 1568.56 1736.67 1686.69H1736.68Z" fill="url(#paint1_linear_554_270)"/>
<path d="M1643.8 1987.82L1633.13 1928.8L1624.42 1591.44L1628.81 1590.87C1627.81 1595.37 1628.04 1601.64 1630.14 1610.34C1629.8 1648.55 1639.68 1889.53 1643.8 1987.81V1987.82Z" fill="#FF0036"/>
<path d="M1701.48 1645.27C1703.75 1612.98 1704.83 1589.1 1704.02 1581.44L1709.66 1580.75L1701.48 1645.27Z" fill="#FF0036"/>
<path opacity="0.5" d="M1343.66 1577.69L1389.67 1571.3L1420.04 1969.89L1409.29 1973.37L1343.66 1577.68V1577.69ZM1309.21 1579.36L1237.59 1560.51L1256.34 2019.26L1290.55 1784.63C1290.55 1784.63 1315.19 1586.02 1315.19 1584.85C1315.19 1583.68 1309.22 1579.36 1309.22 1579.36H1309.21ZM1356.53 1465.28C1356.53 1465.28 1377.93 1536.24 1412.26 1538.42C1446.78 1540.61 1537.7 1548.98 1543.35 1553C1549.01 1557.03 1598.18 1504.12 1606.21 1482.8C1480.58 1518.84 1455.59 1508.75 1356.53 1465.29V1465.28ZM1474.43 2002.42L1489.48 2010.68L1602.25 1588.66L1546.42 1577.58L1474.43 2002.42ZM1704.02 1581.43L1628.81 1590.86L1624.42 1591.43L1640.64 1929.28L1643.8 1987.81V1987.85L1652.11 2033.8L1701.47 1645.27L1709.65 1580.75L1704.01 1581.44L1704.02 1581.43Z" fill="url(#paint2_linear_554_270)"/>
<path d="M1276.36 1420.93C1201.4 1462.33 1214.19 1517.37 1225.59 1554.53C1225.59 1554.53 1270.03 1560.41 1317.81 1579C1326.18 1582.26 1335.54 1581.62 1343.67 1577.69C1395.18 1552.74 1543.69 1563.33 1598.4 1587.87C1606.14 1591.34 1614.93 1591.74 1622.97 1589.11C1674.26 1572.32 1721.55 1585.43 1721.55 1585.43C1780.38 1507 1739.4 1463.53 1699.38 1445.36C1682.73 1396.49 1644.59 1282.93 1655.72 1232.81C1649.9 1224.61 1621.65 1221.03 1621.65 1221.03C1621.65 1221.03 1660.49 1347.97 1615.48 1458.36C1585.95 1534.55 1549.39 1545.71 1549.39 1545.71C1490.59 1532.31 1393.41 1538.21 1393.41 1538.21C1328.16 1457.87 1320.95 1375.4 1336.16 1305.78C1351.29 1236.49 1353.56 1226.2 1353.56 1226.2L1324.42 1240.61C1324.42 1240.61 1324.63 1312.86 1276.38 1420.92L1276.36 1420.93Z" stroke="black" stroke-width="18.34" stroke-linecap="round" stroke-linejoin="round"/>
<path d="M1346.39 1458.32C1346.39 1458.32 1473.69 1556.66 1608.86 1474.01" stroke="black" stroke-width="18.34" stroke-linecap="round" stroke-linejoin="round"/>
<path d="M1392.13 1565.85L1439.08 2176.06L1343.66 1577.69" stroke="black" stroke-width="18.34" stroke-linecap="round" stroke-linejoin="round"/>
<path d="M1547.58 1573.33L1439.08 2176.06L1598.39 1587.87" stroke="black" stroke-width="18.34" stroke-linecap="round" stroke-linejoin="round"/>
<path d="M1242.65 1557.47L1253.72 2095.99L1314.4 1577.7" stroke="black" stroke-width="18.34" stroke-linecap="round" stroke-linejoin="round"/>
<path d="M1624.94 1588.49L1649.16 2106.78L1709.18 1582.93" stroke="black" stroke-width="18.34" stroke-linecap="round" stroke-linejoin="round"/>
<path d="M1750.3 2245.31C1754.83 2118.39 1760.82 1967.96 1750.28 1806.47C1749.15 1789.17 1737.69 1679.83 1721.54 1585.43" stroke="black" stroke-width="18.34" stroke-linecap="round" stroke-linejoin="round"/>
<path d="M1225.58 1554.53C1206.17 1638.61 1185.6 1798.2 1179.01 1862.78C1153.01 2117.81 1127.42 2319.43 1150.41 2352.83" stroke="black" stroke-width="18.34" stroke-linecap="round" stroke-linejoin="round"/>
<path d="M1466.24 1250.77C1499.58 1264.61 1505.62 1268.06 1505.62 1268.06L1466.24 1250.77Z" fill="#FF0036"/>
<path d="M1466.24 1250.77C1499.58 1264.61 1505.62 1268.06 1505.62 1268.06" stroke="black" stroke-width="18.34" stroke-linecap="round" stroke-linejoin="round"/>
<path d="M1465.3 1266.79C1499.62 1253.71 1506.53 1252 1506.53 1252L1465.3 1266.79Z" fill="#FF0036"/>
<path d="M1465.3 1266.79C1499.62 1253.71 1506.53 1252 1506.53 1252" stroke="black" stroke-width="18.34" stroke-linecap="round" stroke-linejoin="round"/>
</g>
<defs>
<linearGradient id="paint0_linear_554_270" x1="1160.54" y1="1654.77" x2="1755.14" y2="1654.77" gradientUnits="userSpaceOnUse">
<stop stop-color="#FF0036"/>
<stop offset="1" stop-color="#FFB000"/>
</linearGradient>
<linearGradient id="paint1_linear_554_270" x1="1511.38" y1="1975.21" x2="1872.04" y2="1350.53" gradientUnits="userSpaceOnUse">
<stop stop-color="#FFB000"/>
<stop offset="1" stop-color="#FF0036"/>
</linearGradient>
<linearGradient id="paint2_linear_554_270" x1="1473.62" y1="2033.8" x2="1473.62" y2="1465.28" gradientUnits="userSpaceOnUse">
<stop stop-color="#FFC800"/>
<stop offset="1" stop-color="#00C1E9"/>
</linearGradient>
</defs>
</svg>
