<svg width="2000" height="2000" viewBox="0 0 2000 2000" fill="none" xmlns="http://www.w3.org/2000/svg">
<g clip-path="url(#clip0_28_967)">
<mask id="mask0_28_967" style="mask-type:luminance" maskUnits="userSpaceOnUse" x="0" y="0" width="2000" height="2000">
<path d="M2000 0H0V2000H2000V0Z" fill="white"/>
</mask>
<g mask="url(#mask0_28_967)">
<path d="M1393.8 1123.96C1393.8 1123.96 1245.53 1143.47 1297.84 1216.79C1315.7 1237.44 1309.4 1260.38 1309.4 1260.38L1240.15 1304.76L1173.69 1373.12C1173.69 1373.12 1135.99 1395.94 1131.76 1449.3C1114.46 1492.95 1076.38 1545.96 1076.38 1592.49C1076.38 1639.02 1080.29 1645.53 1031.36 1704.84C1031.36 1704.84 1077.01 1665.66 1102.84 1705.95C1128.68 1746.24 1124.12 1791.78 1134.56 1824.14C1164.83 1917.91 1072.41 1978.11 1072.41 1978.11C1072.41 1978.11 1108.52 1991.19 1165.97 1959.77C1172.14 1964.84 1176.13 1990.62 1176.37 2001.28C1177.06 2032.7 1168.99 2090.61 1168.99 2090.61L1698.83 2185.07C1698.83 2185.07 2002.62 2180.54 2002.62 2172.22C2002.62 2163.9 1998.22 2005.55 1974.73 1928.68C1963.37 1821.56 1967.58 1753.6 1940.73 1684.46C1908.61 1595.3 1894.8 1488.18 1871.25 1464.06C1857.54 1450.02 1790.9 1372.15 1761.39 1319.31C1766.98 1305.62 1743.45 1304.27 1713.66 1273.22C1702.52 1242.16 1669.36 1260.9 1687.63 1230.28C1713.65 1201.45 1750.72 1138.17 1511.24 1115.97C1446.59 1117.31 1393.79 1123.94 1393.79 1123.94L1393.8 1123.96Z" fill="url(#paint0_linear_28_967)"/>
<path d="M1081.03 1694.39C1063.09 1726.97 1043.83 1732.11 1024.9 1723.59C1024.9 1723.59 1051.5 1682.68 1081.03 1694.39Z" fill="url(#paint1_linear_28_967)" stroke="black" stroke-width="18.34" stroke-linecap="round" stroke-linejoin="round"/>
<path d="M1102.86 1951.06C1097.14 1957.44 1091.49 1962.8 1086.68 1966.98C1074.39 1972.81 1061.07 1977.29 1049.52 1977.99C1029.45 1979.27 1014.67 1969.22 1019.88 1935.28C1026.34 1937.99 1032.9 1940.38 1039.54 1942.4C1041.34 1942.95 1043.14 1943.46 1044.93 1943.98C1052.41 1946.03 1059.97 1947.69 1067.6 1948.86C1068.85 1949.04 1070.06 1949.23 1071.31 1949.37C1073.33 1949.66 1075.35 1949.92 1077.4 1950.1C1079.05 1950.28 1080.67 1950.43 1082.32 1950.54C1083.97 1950.69 1085.62 1950.8 1087.27 1950.87C1092.44 1951.16 1097.62 1951.24 1102.86 1951.05V1951.06Z" fill="url(#paint2_linear_28_967)" stroke="black" stroke-width="18.34" stroke-linecap="round" stroke-linejoin="round"/>
<path d="M1374.19 1203.85C1370.9 1201.19 1527.36 1158.98 1579.04 1199.92C1478.33 1233.01 1392.89 1218.99 1374.19 1203.85Z" fill="url(#paint3_linear_28_967)"/>
<path d="M1877.43 2107C1899.64 2154.6 1760.1 2103.43 1760.1 2103.43C1760.1 2103.43 1772.91 1960.38 1738.85 1929.21C1725.41 1882.18 1748.75 1870.58 1751.36 1832.75C1753.97 1794.92 1715.13 1750.53 1738.85 1698.71C1738.72 1665.97 1735.62 1550.6 1746.99 1529.85C1753.23 1547.64 1777.97 1653.02 1771.09 1711.04C1767.68 1739.82 1777.69 1747.29 1771.64 1775.64C1753.64 1859.98 1864.39 2079.04 1877.44 2107.01L1877.43 2107Z" fill="url(#paint4_linear_28_967)"/>
<path d="M1879.83 1576.88C1922.34 1567.08 1903.2 1606.04 1903.2 1606.04C1903.2 1606.04 1939.07 1674.98 1929.46 1677.51C1919.85 1680.04 1756.04 1718.47 1738.84 1707.34C1738.84 1707.34 1744.96 1626.42 1723.69 1614.54C1788.35 1592.87 1879.83 1576.88 1879.83 1576.88Z" fill="#00D4B0"/>
<path d="M1230.66 1539.12C1230.66 1539.12 1139.6 1454.12 1114.46 1492.97C1087.82 1534.68 1084.64 1561.28 1084.64 1561.28C1084.64 1561.28 1211.4 1632.87 1216.42 1620.44C1221.44 1608.01 1230.66 1539.12 1230.66 1539.12Z" fill="#00D4B0"/>
<path d="M1265.97 1293.37C1265.97 1280.28 1282.75 1260.27 1309.4 1260.38V1225.62C1292.93 1214.95 1283.53 1202.64 1283.53 1189.55C1283.53 1148.94 1373.75 1115.99 1485.06 1115.99C1596.37 1115.99 1711.21 1148.94 1711.21 1189.55C1711.21 1202.64 1701.81 1214.95 1685.34 1225.62V1260.38C1717.11 1261.93 1725.96 1278.33 1725.96 1291.42" stroke="black" stroke-width="18.34" stroke-linecap="round" stroke-linejoin="round"/>
<path d="M1265.97 1293.37C1212.93 1304.59 1248.04 1304.13 1207.82 1338.95C1190.2 1354.2 1168.34 1370.26 1149.63 1397.75C1135.65 1418.29 1134.72 1449.78 1122.09 1478.8C1111.91 1502.21 1088.64 1523.71 1080.33 1553.46C1073.34 1578.47 1081.48 1609.05 1076.39 1639.03C1071.99 1664.94 1027.51 1693.66 1024.89 1723.59C1024.89 1723.59 1069.8 1654.55 1107.67 1721.5C1134.34 1768.66 1110.38 1773.15 1127.77 1805.13C1145.16 1837.11 1144.37 1928.51 1113.54 1951.19C1082.71 1973.87 1009.2 2005 1019.87 1935.28" stroke="black" stroke-width="18.34" stroke-linecap="round" stroke-linejoin="round"/>
<path d="M1725.96 1291.43C1792.26 1309.78 1754.35 1324.76 1815.91 1395.02C1839.69 1422.16 1856.13 1429.6 1880.14 1481.18C1896.78 1516.94 1899.18 1564.66 1913.9 1615.33C1925.37 1654.83 1950.27 1695.84 1959.67 1745.8C1967.47 1787.22 1959.92 1834.68 1965.8 1884.06C1970.86 1926.58 1989.74 1970.82 1993.06 2019.72" stroke="black" stroke-width="18.34" stroke-linecap="round" stroke-linejoin="round"/>
<path d="M1309.4 1225.62C1309.4 1225.62 1320.73 1232.17 1350.4 1238.72L1309.4 1225.62Z" fill="url(#paint5_linear_28_967)"/>
<path d="M1309.4 1225.62C1309.4 1225.62 1320.73 1232.17 1350.4 1238.72" stroke="black" stroke-width="18.34" stroke-linecap="round" stroke-linejoin="round"/>
<path d="M1685.34 1225.62C1685.34 1225.62 1653.68 1248.72 1606.4 1253.45L1685.34 1225.62Z" fill="url(#paint6_linear_28_967)"/>
<path d="M1685.34 1225.62C1685.34 1225.62 1653.68 1248.72 1606.4 1253.45" stroke="black" stroke-width="18.34" stroke-linecap="round" stroke-linejoin="round"/>
<path d="M1265.97 1293.37C1285 1325.7 1322.62 1338.82 1374.19 1340.25" stroke="black" stroke-width="18.34" stroke-linecap="round" stroke-linejoin="round"/>
<path d="M1685.34 1260.39C1685.34 1260.39 1672.94 1293.46 1598.45 1296.33" stroke="black" stroke-width="18.34" stroke-linecap="round" stroke-linejoin="round"/>
<path d="M1725.96 1291.43C1725.96 1291.43 1710.26 1323.48 1654.36 1323.21" stroke="black" stroke-width="18.34" stroke-linecap="round" stroke-linejoin="round"/>
<path d="M1309.4 1260.39C1309.4 1260.39 1300.8 1301.06 1446.7 1296.46" stroke="black" stroke-width="18.34" stroke-linecap="round" stroke-linejoin="round"/>
<path d="M1335.04 1192.2C1335.96 1194.96 1460.95 1270.34 1624.61 1188.52" stroke="black" stroke-width="18.34" stroke-linecap="round" stroke-linejoin="round"/>
<path d="M1361.39 1205.85C1432.49 1163.71 1565.96 1181.63 1592.62 1202.77" stroke="black" stroke-width="18.34" stroke-linecap="round" stroke-linejoin="round"/>
<path d="M1267.99 1463.42C1240.42 1500.15 1242.68 1473.66 1225.29 1543.84C1219.47 1567.32 1227.43 1599.88 1220.75 1636.79C1215.99 1663.08 1196.6 1690.79 1191.64 1725.11C1187.66 1752.63 1198.2 1784.82 1194.2 1818.1C1190.81 1846.32 1177.24 1875.82 1169.52 1907.77C1151.04 1984.18 1194.7 1992.48 1175.48 2068.83" stroke="black" stroke-width="18.34" stroke-linecap="round" stroke-linejoin="round"/>
<path d="M1705.83 1498.12C1735.59 1527.38 1702.71 1513.59 1713.83 1585.01C1717.18 1606.5 1735.24 1631.75 1738.72 1665.96C1741.16 1690.01 1728.98 1718.84 1731.32 1750.39C1733.19 1775.53 1749.64 1802.26 1751.36 1832.74C1752.81 1858.49 1721.9 1893.69 1740.84 1916.85C1768.94 1951.19 1757.71 2038.4 1758.71 2067.93" stroke="black" stroke-width="18.34" stroke-linecap="round" stroke-linejoin="round"/>
<path d="M1223.02 1570.24C1223.02 1570.24 1243.3 1462.5 1237.12 1444.78" stroke="black" stroke-width="18.34" stroke-linecap="round" stroke-linejoin="round"/>
<path d="M1746.98 1529.84C1722.17 1550.4 1733.11 1639.61 1733.11 1639.61" stroke="black" stroke-width="18.34" stroke-linecap="round" stroke-linejoin="round"/>
<path d="M1076.39 1639.03C1076.39 1639.03 1108.73 1611.37 1144.29 1639.61" stroke="black" stroke-width="18.34" stroke-linecap="round" stroke-linejoin="round"/>
<path d="M1731.14 1614.54C1731.14 1614.54 1786.54 1590.3 1819.9 1584.73C1853.25 1579.16 1897.33 1577.02 1903.21 1570.47" stroke="black" stroke-width="18.34" stroke-linecap="round" stroke-linejoin="round"/>
<path d="M1733.8 1712.87C1765.17 1722.59 1934.31 1668.83 1934.89 1670.22" stroke="black" stroke-width="18.34" stroke-linecap="round" stroke-linejoin="round"/>
<path d="M1122.09 1478.8C1122.09 1478.8 1217.19 1505.83 1225.29 1543.83" stroke="black" stroke-width="18.34" stroke-linecap="round" stroke-linejoin="round"/>
<path d="M1223.02 1622.84C1223.02 1622.84 1172.38 1604.26 1144.28 1596.14C1116.19 1588.02 1080.33 1553.47 1080.33 1553.47" stroke="black" stroke-width="18.34" stroke-linecap="round" stroke-linejoin="round"/>
<path d="M1404.12 1620.46C1393.42 1636.06 1369.12 1656.21 1358.98 1691.7C1352.05 1715.98 1359.94 1747.85 1354.81 1778.91C1352.19 1794.74 1333.2 1821.08 1330.15 1862.11C1328.06 1890.17 1342.62 1919.7 1343.35 1949.15C1344.07 1977.94 1330.92 2007.61 1332.14 2036.35C1333.4 2065.85 1349.02 2094.76 1348.49 2122.77C1347.78 2160.81 1331.57 2186.89 1329.68 2208.44C1326.62 2243.42 1337.36 2265.47 1335.05 2295.92C1333.43 2317.25 1317.93 2342.9 1318.67 2382.1" stroke="black" stroke-width="18.34" stroke-linecap="round" stroke-linejoin="round"/>
<path d="M1578.11 1617.9C1569.29 1633.63 1547.49 1655.24 1541.52 1689.26C1537.44 1712.53 1548.94 1740.98 1547.41 1770.29C1546.11 1795.31 1531.27 1822.11 1532.51 1850.15C1533.67 1876.32 1551.51 1901.78 1555.62 1928.87C1559.64 1955.36 1550.01 1984.38 1554.53 2010.76C1559.17 2037.84 1578 2062.6 1580.7 2088.52C1584.37 2123.73 1571.28 2149.81 1571.89 2169.94C1572.88 2202.61 1586.08 2221.64 1587.29 2250.04C1588.14 2269.93 1575.71 2295.53 1580.95 2331.63" stroke="black" stroke-width="18.34" stroke-linecap="round" stroke-linejoin="round"/>
<path d="M1049.51 1977.98C1049.51 1977.98 1154.65 2000 1164.85 1944.65" stroke="black" stroke-width="18.34" stroke-linecap="round" stroke-linejoin="round"/>
</g>
</g>
<defs>
<linearGradient id="paint0_linear_28_967" x1="1031.37" y1="1650.53" x2="2002.63" y2="1650.53" gradientUnits="userSpaceOnUse">
<stop stop-color="#FF4CFF"/>
<stop offset="1" stop-color="#00C7F1"/>
</linearGradient>
<linearGradient id="paint1_linear_28_967" x1="1032.49" y1="1731.19" x2="1075.16" y2="1688.53" gradientUnits="userSpaceOnUse">
<stop stop-color="#00C7F1"/>
<stop offset="1" stop-color="#00D4B0"/>
</linearGradient>
<linearGradient id="paint2_linear_28_967" x1="1029.99" y1="1974.73" x2="1078.26" y2="1926.46" gradientUnits="userSpaceOnUse">
<stop stop-color="#00C7F1"/>
<stop offset="1" stop-color="#00D4B0"/>
</linearGradient>
<linearGradient id="paint3_linear_28_967" x1="1374.14" y1="1201.15" x2="1579.04" y2="1201.15" gradientUnits="userSpaceOnUse">
<stop stop-color="#FF4CFF"/>
<stop offset="1" stop-color="#00C7F1"/>
</linearGradient>
<linearGradient id="paint4_linear_28_967" x1="1731.14" y1="1828.55" x2="1879.83" y2="1828.55" gradientUnits="userSpaceOnUse">
<stop stop-color="#FF4CFF"/>
<stop offset="1" stop-color="#00C7F1"/>
</linearGradient>
<linearGradient id="paint5_linear_28_967" x1="1309.4" y1="1232.17" x2="1350.4" y2="1232.17" gradientUnits="userSpaceOnUse">
<stop stop-color="#FF000C"/>
<stop offset="1" stop-color="#FFA500"/>
</linearGradient>
<linearGradient id="paint6_linear_28_967" x1="1606.4" y1="1239.54" x2="1685.34" y2="1239.54" gradientUnits="userSpaceOnUse">
<stop stop-color="#FF000C"/>
<stop offset="1" stop-color="#FFA500"/>
</linearGradient>
<clipPath id="clip0_28_967">
<rect width="2000" height="2000" fill="white"/>
</clipPath>
</defs>
</svg>
