<svg width="2000" height="2000" viewBox="0 0 2000 2000" fill="none" xmlns="http://www.w3.org/2000/svg">
<g clip-path="url(#clip0_186_186)">
<mask id="mask0_186_186" style="mask-type:luminance" maskUnits="userSpaceOnUse" x="0" y="0" width="2000" height="2000">
<path d="M2000 0H0V2000H2000V0Z" fill="white"/>
</mask>
<g mask="url(#mask0_186_186)">
<path d="M1820 1620.11C1742.37 1671.77 1731 1656.14 1729.38 1649.64C1731.87 1670.08 1751.54 1830.84 1756.64 1933.09C1762.11 2042.46 1727.03 2170.97 1727.03 2170.97C1727.03 2170.97 1211.13 2237.08 1173.01 2140.67C1134.89 2044.22 1182.4 1830.84 1213.48 1673.19C1204.78 1707.16 1142.23 1646.55 1098.79 1518.73C1202.29 1307.33 1302.04 1254.06 1302.04 1254.06C1302.04 1254.06 1533.3 1125.83 1708.73 1264.17C1750.7 1281.93 1865.93 1477.56 1883.07 1539.79C1906.99 1596.73 1895.98 1577.76 1820 1620.1V1620.11Z" fill="url(#paint0_linear_186_186)"/>
<path style="mix-blend-mode:multiply" d="M1701.86 1447.58C1736.09 1512.58 1750.85 1561.18 1759.52 1608.85C1763.6 1631.32 1766.34 1653.57 1769.11 1677.24C1776.76 1742.4 1731.91 1693.51 1731.91 1693.51L1701.86 1447.58Z" fill="url(#paint1_linear_186_186)"/>
<path style="mix-blend-mode:multiply" d="M1258.14 1454.95C1251.56 1480.7 1201.34 1696.54 1203.5 1710.56C1168.4 1685.86 1184.54 1653.26 1206.79 1575.31C1229.04 1497.36 1258.14 1454.95 1258.14 1454.95Z" fill="url(#paint2_linear_186_186)"/>
<path d="M1196.75 1757.87C1190.11 1763.26 1175.95 1756.33 1159.62 1744.59C1130.49 1723.64 1094.43 1687.47 1081.62 1678.74C1061.62 1665.17 1039.47 1605.47 1048.71 1572.46C1085.1 1574.4 1072.96 1530.86 1081.62 1501.1C1084.96 1489.58 1087.42 1480 1089.95 1473.25C1093.99 1462.54 1098.24 1458.91 1106.75 1465.88C1119.63 1470.91 1122.86 1474.35 1108.33 1506.05C1105.39 1513.31 1104.59 1521.68 1105.58 1530.85C1109.4 1566.73 1140.47 1615.23 1178 1661.39C1180.35 1664.29 1182.7 1667.15 1185.08 1670.01C1209.84 1686.04 1208.63 1697.45 1196.75 1757.88V1757.87Z" fill="#FF00DF"/>
<g style="mix-blend-mode:multiply">
<path d="M1108.33 1506.05C1105.39 1513.31 1104.59 1521.68 1105.58 1530.85C1093.25 1511.85 1089.44 1491.56 1089.95 1473.25C1093.99 1462.54 1098.24 1458.91 1106.75 1465.88C1119.63 1470.91 1122.86 1474.35 1108.33 1506.05Z" fill="#FF00DF"/>
</g>
<path d="M1878.22 1723.57C1840.84 1739.09 1813.1 1748.63 1792.52 1753.84C1759.65 1762.24 1744.86 1759.71 1737.93 1753.07C1734.66 1715.24 1721.49 1662.01 1745.6 1656.76C1751.51 1655.18 1761.78 1650.96 1774.25 1645.39C1815.78 1626.68 1881.93 1592.34 1894.37 1587.61C1895.87 1578.36 1884.54 1544.17 1883.22 1540.17C1884.03 1541.64 1885.75 1542.59 1888.14 1543.22C1898.16 1545.82 1919.66 1542.82 1931.32 1548.43C1936.86 1551.11 1940.2 1555.73 1939.02 1563.8C1934.76 1593.33 1914.92 1625.44 1947.38 1639.63C1969.03 1663 1975.04 1682.52 1878.22 1723.57Z" fill="#FF00DF"/>
<g style="mix-blend-mode:multiply">
<path d="M1933.73 1556.35C1933.73 1556.35 1916.05 1577.7 1902.47 1581.11C1895.87 1582.76 1890.25 1566.62 1888.12 1543.21C1898.14 1545.81 1919.64 1542.81 1931.3 1548.42C1932.8 1553.34 1933.72 1556.34 1933.72 1556.34L1933.73 1556.35Z" fill="#FF00DF"/>
</g>
<g style="mix-blend-mode:multiply">
<path d="M1792.52 1753.84C1759.65 1762.24 1744.86 1759.71 1737.93 1753.07C1734.66 1715.24 1721.49 1662.01 1745.6 1656.76C1751.51 1655.18 1761.78 1650.96 1774.25 1645.39C1779.24 1684.9 1785.99 1722.29 1792.52 1753.84Z" fill="#FF00DF"/>
</g>
<g style="mix-blend-mode:multiply">
<path d="M1196.75 1757.87C1190.11 1763.26 1175.95 1756.33 1159.62 1744.59C1164.76 1717.37 1171.21 1688.82 1178 1661.38C1180.35 1664.28 1182.7 1667.14 1185.08 1670C1209.84 1686.03 1208.63 1697.44 1196.75 1757.87Z" fill="#FF00DF"/>
</g>
<path d="M1260.12 1447.58C1228.73 1562.66 1155.5 1916.38 1168.29 2020.84" stroke="black" stroke-width="18.34" stroke-linecap="round" stroke-linejoin="round"/>
<path d="M1701.86 1447.58C1725.11 1560.34 1759.98 1961.39 1750.68 2064.85" stroke="black" stroke-width="18.34" stroke-linecap="round" stroke-linejoin="round"/>
<path d="M1729.91 1664.53C1729.91 1664.53 1921.56 1582.42 1932.02 1551.04C1932.02 1551.04 1920.66 1547.55 1887.4 1551.04" stroke="black" stroke-width="18.34" stroke-linecap="round" stroke-linejoin="round"/>
<path d="M1932.02 1551.04C1932.02 1551.04 1943.32 1578 1929.83 1608.6C1926.13 1616.98 1929.05 1626.86 1936.72 1631.87C1950 1640.54 1966.55 1654.36 1962.24 1667.29C1955.27 1688.21 1834.82 1749.5 1738.69 1762.45" stroke="black" stroke-width="18.34" stroke-linecap="round" stroke-linejoin="round"/>
<path d="M1113.29 1471.63C1113.29 1471.63 1090.38 1446.96 1091.27 1476.92C1092.16 1506.88 1124.1 1641.16 1206.8 1688.55" stroke="black" stroke-width="18.34" stroke-linecap="round" stroke-linejoin="round"/>
<path d="M1101.51 1528.73C1107.12 1488.36 1193.94 1327.44 1290.98 1263.03C1391.46 1196.33 1607.59 1174.99 1708.73 1264.18C1799.89 1344.57 1859.95 1461.53 1895.99 1577.77" stroke="black" stroke-width="18.34" stroke-linecap="round" stroke-linejoin="round"/>
<path d="M1091.27 1476.91C1080.64 1488.53 1067.25 1533.84 1073.43 1565.76C1073.43 1565.76 1018.55 1568.23 1054.44 1635.78C1074.63 1673.79 1123.61 1736.47 1193.25 1763.35" stroke="black" stroke-width="18.34" stroke-linecap="round" stroke-linejoin="round"/>
<path d="M1081.61 1595.87C1099.77 1636.12 1110.72 1675.75 1173 1711.63" stroke="black" stroke-width="18.34" stroke-linecap="round" stroke-linejoin="round"/>
<path d="M1765.26 1723.32C1834.68 1702.57 1905.96 1653.76 1905.96 1653.76" stroke="black" stroke-width="18.34" stroke-linecap="round" stroke-linejoin="round"/>
<path d="M1222.17 1611.29C1235.63 1552.25 1226.79 1472.42 1226.79 1472.42" stroke="black" stroke-width="18.34" stroke-linecap="round" stroke-linejoin="round"/>
<path d="M1717.09 1547.82C1731.83 1511.99 1730.37 1467.84 1730.37 1467.84" stroke="black" stroke-width="18.34" stroke-linecap="round" stroke-linejoin="round"/>
<g style="mix-blend-mode:multiply">
<path style="mix-blend-mode:multiply" d="M1388.44 1279.9C1388.44 1279.9 1497.1 1210.11 1581 1279.9C1429.83 1293.11 1388.44 1279.9 1388.44 1279.9Z" fill="url(#paint3_linear_186_186)"/>
</g>
<path d="M1352.92 1266.57C1417.59 1300.47 1560.59 1299.58 1641.43 1258.84" stroke="black" stroke-width="18.34" stroke-linecap="round" stroke-linejoin="round"/>
<path d="M1384.78 1274.82C1423.69 1244.14 1548.87 1250.6 1600.15 1273.19" stroke="black" stroke-width="18.34" stroke-linecap="round" stroke-linejoin="round"/>
<path d="M1528.39 1302.84L1528.11 1653.54" stroke="black" stroke-width="18.34" stroke-linecap="round" stroke-linejoin="round"/>
<path d="M1437.64 1409.49C1436.91 1407.16 1436.44 1404.72 1436.24 1402.2L1428.91 1316.24C1427.11 1294.88 1445.77 1276.53 1469.02 1276.53H1492.27C1514.8 1276.53 1532.75 1293.8 1531.52 1314.56L1526.44 1399.52C1525.33 1418.09 1509.96 1433.35 1490.08 1435.41L1484.12 1436.03L1480.57 1436.4C1460.67 1438.47 1442.83 1426.75 1437.63 1409.49H1437.64Z" fill="#FF00DF" stroke="black" stroke-width="18.34" stroke-linecap="round" stroke-linejoin="round"/>
<path d="M1488.35 1684.95H1462.78C1437.21 1684.95 1417.76 1662.97 1420.92 1637.88L1433.07 1542.16C1433.4 1539.47 1433.99 1536.91 1434.81 1534.4C1440.92 1516.26 1459.58 1504.06 1479.74 1506.2L1483.34 1506.58L1489.38 1507.22C1509.57 1509.36 1525.17 1525.28 1526.26 1545.02L1531.51 1639.83C1532.85 1664.2 1513.12 1684.95 1488.34 1684.95H1488.35Z" fill="#FF00DF" stroke="black" stroke-width="18.34" stroke-linecap="round" stroke-linejoin="round"/>
<path d="M1513.11 1516.08L1516.72 1516.57C1524.01 1503.5 1528.24 1487.8 1528.26 1471.04C1528.27 1454.35 1524.13 1439.01 1517.03 1426.4L1513.49 1426.87" stroke="black" stroke-width="18.34" stroke-linecap="round" stroke-linejoin="round"/>
</g>
</g>
<defs>
<linearGradient id="paint0_linear_186_186" x1="1098.79" y1="1696.53" x2="1894.36" y2="1696.53" gradientUnits="userSpaceOnUse">
<stop stop-color="#FFC800"/>
<stop offset="1" stop-color="#A3E8CF"/>
</linearGradient>
<linearGradient id="paint1_linear_186_186" x1="1769.99" y1="1579.35" x2="1701.86" y2="1579.35" gradientUnits="userSpaceOnUse">
<stop stop-color="#FFC800"/>
<stop offset="1" stop-color="#A3E8CF"/>
</linearGradient>
<linearGradient id="paint2_linear_186_186" x1="1258.14" y1="1582.75" x2="1183.05" y2="1582.75" gradientUnits="userSpaceOnUse">
<stop stop-color="#FFC800"/>
<stop offset="1" stop-color="#A3E8CF"/>
</linearGradient>
<linearGradient id="paint3_linear_186_186" x1="1388.44" y1="1267.32" x2="1581" y2="1267.32" gradientUnits="userSpaceOnUse">
<stop stop-color="#FFC800"/>
<stop offset="1" stop-color="#A3E8CF"/>
</linearGradient>
<clipPath id="clip0_186_186">
<rect width="2000" height="2000" fill="white"/>
</clipPath>
</defs>
</svg>
