<svg width="2000" height="2000" viewBox="0 0 2000 2000" fill="none" xmlns="http://www.w3.org/2000/svg">
<g clip-path="url(#clip0_1_573)">
<mask id="mask0_1_573" style="mask-type:luminance" maskUnits="userSpaceOnUse" x="0" y="0" width="2000" height="2000">
<path d="M2000 0H0V2000H2000V0Z" fill="white"/>
</mask>
<g mask="url(#mask0_1_573)">
<path d="M1944.22 1806.9C1942.86 1807.49 1941.47 1808 1940.04 1808.48L1934.5 1772.49C1934.5 1772.49 1899.65 1736.39 1743.54 1777.52C1751.94 1948.93 1749.85 2125.58 1742.11 2257.25C1701.2 2428.4 1181.67 2425.39 1154.44 2389.03C1127.8 2353.55 1166.03 2068.63 1193.29 1772.12C1170.03 1721.82 1089.39 1683.3 1089.39 1683.3L1071.19 1706.05C1033.29 1695.41 1024.71 1600.98 1112.57 1446.41C1168.45 1348.2 1219.85 1310.08 1285.66 1261.8C1382 1191.1 1614.49 1214.73 1686.69 1246.06C1688.74 1246.94 1690.69 1247.82 1692.49 1248.74C1757.02 1281.32 1793.53 1315.66 1840.2 1368.09C1937.13 1477.2 1961.75 1634.55 1969.34 1710.31C1976.38 1781.04 1963.36 1798.91 1944.21 1806.91L1944.22 1806.9Z" fill="url(#paint0_linear_1_573)" stroke="black" stroke-width="18.34" stroke-linecap="round" stroke-linejoin="round"/>
<path d="M1237.07 1548.43L1715.4 1552.29C1715.4 1552.29 1735.9 1619.66 1745.47 1786.26C1504.56 1793.49 1399.37 1783.43 1192.11 1784.8C1218.7 1628.11 1237.07 1548.43 1237.07 1548.43Z" fill="url(#paint1_linear_1_573)"/>
<path d="M1944.22 1806.9C1940.88 1657.95 1929.73 1409.38 1686.71 1246.05C1688.76 1246.93 1690.71 1247.81 1692.51 1248.73C1757.04 1281.31 1793.55 1315.65 1840.22 1368.08C1937.15 1477.19 1961.77 1634.54 1969.36 1710.3C1976.4 1781.03 1963.38 1798.9 1944.23 1806.9H1944.22Z" fill="url(#paint2_linear_1_573)"/>
<path d="M1161.95 1732C1161.95 1732 1209.4 1527 1253.57 1489.92C1197.05 1704.06 1193.29 1772.12 1193.29 1772.12L1161.95 1732Z" fill="url(#paint3_linear_1_573)"/>
<path d="M1388.44 1279.9C1388.44 1279.9 1497.1 1210.11 1581 1279.9C1429.83 1293.11 1388.44 1279.9 1388.44 1279.9Z" fill="url(#paint4_linear_1_573)"/>
<path d="M1742.1 2257.24C1749.23 2136.03 1751.57 1976.67 1745.32 1818.41C1744.29 1792.36 1732.38 1604.47 1697.68 1472.23" stroke="black" stroke-width="18.34" stroke-linecap="round" stroke-linejoin="round"/>
<path d="M1264.72 1459.49C1239.03 1518.59 1210.47 1668.62 1210.47 1668.62C1199.5 1734.69 1190.72 1801.14 1184.14 1867.79C1158.52 2127.45 1130.68 2357.39 1154.42 2389.03" stroke="black" stroke-width="18.34" stroke-linecap="round" stroke-linejoin="round"/>
<path d="M1352.92 1266.57C1417.59 1300.47 1560.59 1299.58 1641.43 1258.84" stroke="black" stroke-width="18.34" stroke-linecap="round" stroke-linejoin="round"/>
<path d="M1384.78 1274.82C1423.69 1244.14 1548.87 1250.6 1600.15 1273.19" stroke="black" stroke-width="18.34" stroke-linecap="round" stroke-linejoin="round"/>
<path d="M1940.03 1808.47L1934.49 1772.48C1934.49 1772.48 1899.64 1736.38 1743.53 1777.51C1751.93 1948.91 1749.84 2125.57 1742.1 2257.24C1701.19 2428.39 1181.66 2425.38 1154.43 2389.02C1127.79 2353.54 1166.02 2068.63 1193.28 1772.11C1170.02 1721.81 1089.38 1683.29 1089.38 1683.29L1071.18 1706.04C1033.28 1695.4 1024.7 1600.97 1112.56 1446.4C1168.44 1348.19 1219.86 1310.06 1285.65 1261.79C1384.76 1189.07 1627.91 1216.15 1692.47 1248.74C1757.03 1281.32 1793.51 1315.65 1840.18 1368.07C1937.11 1477.18 1961.73 1634.54 1969.33 1710.3C1976.89 1786.06 1961.37 1801.18 1940.02 1808.48L1940.03 1808.47Z" stroke="black" stroke-width="18.34" stroke-linecap="round" stroke-linejoin="round"/>
<path d="M1237.07 1548.43L1715.41 1552.3" stroke="black" stroke-width="18.34" stroke-linecap="round" stroke-linejoin="round"/>
<path d="M1745.47 1786.26L1192.11 1784.81" stroke="black" stroke-width="18.34" stroke-linecap="round" stroke-linejoin="round"/>
</g>
</g>
<defs>
<linearGradient id="paint0_linear_1_573" x1="1043.9" y1="1812.34" x2="1971.29" y2="1812.34" gradientUnits="userSpaceOnUse">
<stop stop-color="#E87600"/>
<stop offset="1" stop-color="#FF00A6"/>
</linearGradient>
<linearGradient id="paint1_linear_1_573" x1="1282.96" y1="1875.66" x2="1660.87" y2="1497.76" gradientUnits="userSpaceOnUse">
<stop stop-color="#E87600"/>
<stop offset="1" stop-color="#00FFA9"/>
</linearGradient>
<linearGradient id="paint2_linear_1_573" x1="2003.95" y1="1772.88" x2="1696.51" y2="1240.39" gradientUnits="userSpaceOnUse">
<stop stop-color="#E87600"/>
<stop offset="1" stop-color="#FF00A6"/>
</linearGradient>
<linearGradient id="paint3_linear_1_573" x1="1273.93" y1="1725.56" x2="1166.8" y2="1540.01" gradientUnits="userSpaceOnUse">
<stop stop-color="#E87600"/>
<stop offset="1" stop-color="#FF00A6"/>
</linearGradient>
<linearGradient id="paint4_linear_1_573" x1="1388.44" y1="1267.32" x2="1581" y2="1267.32" gradientUnits="userSpaceOnUse">
<stop stop-color="#E87600"/>
<stop offset="1" stop-color="#FF00A6"/>
</linearGradient>
<clipPath id="clip0_1_573">
<rect width="2000" height="2000" fill="white"/>
</clipPath>
</defs>
</svg>
