<svg width="2000" height="2000" viewBox="0 0 2000 2000" fill="none" xmlns="http://www.w3.org/2000/svg">
<g clip-path="url(#clip0_231_12)">
<mask id="mask0_231_12" style="mask-type:luminance" maskUnits="userSpaceOnUse" x="0" y="0" width="2000" height="2000">
<path d="M2000 0H0V2000H2000V0Z" fill="white"/>
</mask>
<g mask="url(#mask0_231_12)">
<path d="M931.71 884.11C943.67 928.76 1011.48 988.82 996.56 1082.58C991.15 1116.61 983.779 1146.75 974.479 1173.51C934 1289.92 947.44 1317.46 833.979 1347.86C810.96 1354.03 697.17 1382.53 674.27 1383.9C513.96 1393.52 363.61 1289.69 320.43 1128.52C271.08 944.33 380.38 755 564.58 705.65C665.16 678.7 767.26 699.06 847.28 753.08C913.8 797.99 909.31 800.5 931.719 884.12L931.71 884.11Z" fill="#A97400" stroke="black" stroke-width="18.34" stroke-linecap="round" stroke-linejoin="round"/>
<path d="M816.379 1352.41C801.559 1358.5 780.589 1363.67 764.439 1365.21C722.869 1369.1 687.859 1383.07 674.179 1383.88C510.589 1393.71 357.339 1285.34 317.789 1118.48C294.459 1019.86 316.619 920.26 370.689 842.29C364.969 1049.58 407.669 1360 816.369 1352.4L816.379 1352.41Z" fill="#703500"/>
<path d="M931.71 884.11C943.67 928.76 1011.48 988.82 996.56 1082.58C991.15 1116.61 983.779 1146.75 974.479 1173.51C933.999 1289.92 947.439 1317.46 833.979 1347.86C810.959 1354.03 697.17 1382.53 674.27 1383.9C513.96 1393.52 363.61 1289.69 320.43 1128.52C271.08 944.33 380.38 755 564.58 705.65C665.16 678.7 767.26 699.06 847.28 753.08C913.8 797.99 909.309 800.5 931.719 884.12L931.71 884.11Z" stroke="black" stroke-width="18.34" stroke-miterlimit="10"/>
</g>
</g>
<defs>
<clipPath id="clip0_231_12">
<rect width="2000" height="2000" fill="white"/>
</clipPath>
</defs>
</svg>
