<svg width="2000" height="2000" viewBox="0 0 2000 2000" fill="none" xmlns="http://www.w3.org/2000/svg">
<g clip-path="url(#clip0_1_157)">
<mask id="mask0_1_157" style="mask-type:luminance" maskUnits="userSpaceOnUse" x="0" y="0" width="88331" height="3168">
<path d="M2000 0H0V2000H2000V0Z" fill="white"/>
</mask>
<g mask="url(#mask0_1_157)">
<path d="M931.69 884.11C943.65 928.76 1011.46 988.82 996.54 1082.58C967.57 1264.7 882.82 1335.28 743.28 1372.67C559.09 1422.02 369.76 1312.72 320.41 1128.52C271.06 944.33 380.36 755 564.56 705.65C665.14 678.7 767.24 699.06 847.26 753.08C913.78 797.99 909.29 800.5 931.7 884.12L931.69 884.11Z" fill="#A97400" stroke="black" stroke-width="18.34" stroke-linecap="round" stroke-linejoin="round"/>
<path d="M743.18 1372.71C559.03 1421.98 369.76 1312.67 320.41 1128.5C302.34 1061.06 305.52 992.98 325.91 931.3C470.51 1263.84 499.25 1342.92 743.18 1372.7V1372.71Z" fill="#703500"/>
<path d="M931.69 884.11C939.17 912.02 968.46 945.94 985.73 990.35C996.09 1017 1002.13 1047.42 996.54 1082.58C967.57 1264.7 882.82 1335.28 743.28 1372.67C559.09 1422.02 369.76 1312.72 320.41 1128.52C271.06 944.33 380.36 755 564.56 705.65C665.14 678.7 767.24 699.06 847.26 753.08C913.78 797.99 909.29 800.5 931.7 884.12L931.69 884.11Z" stroke="black" stroke-width="18.34" stroke-miterlimit="10"/>
</g>
</g>
<defs>
<clipPath id="clip0_1_157">
<rect width="2000" height="2000" fill="white"/>
</clipPath>
</defs>
</svg>
