<svg width="2000" height="2000" viewBox="0 0 2000 2000" fill="none" xmlns="http://www.w3.org/2000/svg">
<g clip-path="url(#clip0_231_22)">
<mask id="mask0_231_22" style="mask-type:luminance" maskUnits="userSpaceOnUse" x="0" y="0" width="2000" height="2000">
<path d="M2000 0H0V2000H2000V0Z" fill="white"/>
</mask>
<g mask="url(#mask0_231_22)">
<path d="M991.909 1238.16C977.639 1247.81 964.399 1258.96 951.409 1270.37L919.569 1298.29L872.719 1337.33C859.989 1347.93 845.829 1356.44 830.679 1362.68C815.859 1368.77 800.119 1372.66 783.979 1374.2C742.409 1378.09 687.969 1383.08 674.279 1383.89C510.689 1393.72 357.439 1285.35 317.889 1118.49C294.559 1019.87 316.719 920.27 370.789 842.3C415.919 777.33 483.199 727.36 564.829 705.56C665.319 678.74 767.309 699.1 847.289 753.07C913.799 797.98 909.289 800.47 931.709 884.12C943.669 928.77 1011.47 988.83 996.569 1082.56C993.269 1103.29 997.159 1152.23 1000.72 1187.41C1002.92 1209.28 1010.92 1225.31 991.909 1238.15V1238.16Z" fill="#A97400" stroke="black" stroke-width="18.34" stroke-linecap="round" stroke-linejoin="round"/>
<path d="M919.57 1298.3C919.57 1298.3 962.4 1266.64 939.74 1234.99" stroke="black" stroke-width="18.34" stroke-linecap="round" stroke-linejoin="round"/>
<path d="M830.659 1362.68C815.839 1368.77 800.099 1372.66 783.959 1374.2C742.389 1378.09 687.949 1383.08 674.259 1383.89C510.669 1393.72 357.419 1285.35 317.869 1118.49C294.539 1019.87 316.699 920.27 370.769 842.3C365.049 1049.59 421.949 1370.27 830.649 1362.68H830.659Z" fill="#703500"/>
<path d="M991.909 1238.16C977.639 1247.81 964.399 1258.96 951.409 1270.37L919.569 1298.29L872.719 1337.33C859.989 1347.93 845.829 1356.44 830.679 1362.68C815.859 1368.77 800.119 1372.66 783.979 1374.2C742.409 1378.09 687.969 1383.08 674.279 1383.89C510.689 1393.72 357.439 1285.35 317.889 1118.49C294.559 1019.87 316.719 920.27 370.789 842.3C415.919 777.33 483.199 727.36 564.829 705.56C665.319 678.74 767.309 699.1 847.289 753.07C913.799 797.98 909.289 800.47 931.709 884.12C943.669 928.77 1011.47 988.83 996.569 1082.56C993.269 1103.29 997.159 1152.23 1000.72 1187.41C1002.92 1209.28 1010.92 1225.31 991.909 1238.15V1238.16Z" stroke="black" stroke-width="18.34" stroke-miterlimit="10"/>
</g>
</g>
<defs>
<clipPath id="clip0_231_22">
<rect width="2000" height="2000" fill="white"/>
</clipPath>
</defs>
</svg>
